<svg width="297" height="170" viewBox="0 0 297 170" fill="none" xmlns="http://www.w3.org/2000/svg">
<path d="M90.244 243.652C63.9053 243.652 42.436 234.799 25.836 217.092C9.236 199.385 0.936 176.809 0.936 149.364V94.584C0.936 67.1387 9.236 44.5627 25.836 26.856C42.436 9.14932 63.9053 0.295979 90.244 0.295979C116.361 0.295979 137.72 9.14932 154.32 26.856C170.92 44.5627 179.22 67.1387 179.22 94.584V149.364C179.22 176.809 170.92 199.385 154.32 217.092C137.72 234.799 116.361 243.652 90.244 243.652ZM90.244 194.184C101.975 194.184 111.381 190.2 118.464 182.232C125.547 174.264 129.088 163.308 129.088 149.364V94.584C129.088 80.64 125.547 69.684 118.464 61.716C111.381 53.748 101.975 49.764 90.244 49.764C78.292 49.764 68.7747 53.748 61.692 61.716C54.6093 69.684 51.068 80.64 51.068 94.584V149.364C51.068 163.308 54.6093 174.264 61.692 182.232C68.7747 190.2 78.292 194.184 90.244 194.184ZM246.222 240V53.748H195.094L230.95 4.27999H296.354V240H246.222Z" fill="#8877D8" fill-opacity="0.2"/>
</svg>
