<svg width="371" height="201" viewBox="0 0 371 201" fill="none" xmlns="http://www.w3.org/2000/svg">
<path d="M90.244 243.652C63.9053 243.652 42.436 234.799 25.836 217.092C9.236 199.385 0.936 176.809 0.936 149.364V94.584C0.936 67.1387 9.236 44.5627 25.836 26.856C42.436 9.14932 63.9053 0.295979 90.244 0.295979C116.361 0.295979 137.72 9.14932 154.32 26.856C170.92 44.5627 179.22 67.1387 179.22 94.584V149.364C179.22 176.809 170.92 199.385 154.32 217.092C137.72 234.799 116.361 243.652 90.244 243.652ZM90.244 194.184C101.975 194.184 111.381 190.2 118.464 182.232C125.547 174.264 129.088 163.308 129.088 149.364V94.584C129.088 80.64 125.547 69.684 118.464 61.716C111.381 53.748 101.975 49.764 90.244 49.764C78.292 49.764 68.7747 53.748 61.692 61.716C54.6093 69.684 51.068 80.64 51.068 94.584V149.364C51.068 163.308 54.6093 174.264 61.692 182.232C68.7747 190.2 78.292 194.184 90.244 194.184ZM370.722 190.532V240H208.042V223.068C208.042 216.649 208.706 210.452 210.034 204.476C211.362 198.279 212.911 192.967 214.682 188.54C216.452 183.892 219.219 179.133 222.982 174.264C226.744 169.395 229.954 165.411 232.61 162.312C235.266 159.213 239.25 155.561 244.562 151.356C249.874 146.929 253.968 143.72 256.846 141.728C259.723 139.515 264.26 136.305 270.458 132.1C276.655 127.673 280.971 124.575 283.406 122.804C307.088 105.983 318.93 90.932 318.93 77.652C318.93 69.4627 316.495 62.8227 311.626 57.732C306.978 52.42 300.116 49.764 291.042 49.764C281.524 49.764 273.778 52.6413 267.802 58.396C262.047 64.1507 259.17 71.1227 259.17 79.312H209.038C209.038 56.2933 216.895 37.3693 232.61 22.54C248.546 7.71065 268.576 0.295979 292.702 0.295979C313.95 0.295979 331.988 6.82531 346.818 19.884C361.647 32.7213 369.062 50.76 369.062 74C369.062 87.5013 366.738 99.564 362.09 110.188C357.442 120.812 352.019 129.333 345.822 135.752C339.624 142.171 331.214 149.364 320.59 157.332C320.147 157.553 315.72 160.431 307.31 165.964C299.12 171.276 292.812 175.813 288.386 179.576C283.959 183.339 280.75 186.991 278.758 190.532H370.722Z" fill="#8877D8" fill-opacity="0.2"/>
</svg>
