<svg width="378" height="201" viewBox="0 0 378 201" fill="none" xmlns="http://www.w3.org/2000/svg">
<path d="M90.244 243.652C63.9053 243.652 42.436 234.799 25.836 217.092C9.236 199.385 0.936 176.809 0.936 149.364V94.584C0.936 67.1387 9.236 44.5627 25.836 26.856C42.436 9.14932 63.9053 0.295979 90.244 0.295979C116.361 0.295979 137.72 9.14932 154.32 26.856C170.92 44.5627 179.22 67.1387 179.22 94.584V149.364C179.22 176.809 170.92 199.385 154.32 217.092C137.72 234.799 116.361 243.652 90.244 243.652ZM90.244 194.184C101.975 194.184 111.381 190.2 118.464 182.232C125.547 174.264 129.088 163.308 129.088 149.364V94.584C129.088 80.64 125.547 69.684 118.464 61.716C111.381 53.748 101.975 49.764 90.244 49.764C78.292 49.764 68.7747 53.748 61.692 61.716C54.6093 69.684 51.068 80.64 51.068 94.584V149.364C51.068 163.308 54.6093 174.264 61.692 182.232C68.7747 190.2 78.292 194.184 90.244 194.184ZM294.362 243.652C270.679 243.652 250.206 236.569 232.942 222.404C215.678 208.017 206.603 187.987 205.718 162.312H255.518C256.624 172.936 260.608 180.904 267.47 186.216C274.331 191.528 283.295 194.184 294.362 194.184C304.1 194.184 311.847 191.86 317.602 187.212C323.578 182.343 326.676 176.035 326.898 168.288C327.119 159.877 324.02 153.016 317.602 147.704C311.183 142.392 302.662 139.736 292.038 139.736H271.454V99.564H289.382C309.523 99.564 319.815 91.0427 320.258 74C320.479 66.9173 318.044 61.1627 312.954 56.736C307.863 52.088 301.334 49.764 293.366 49.764C283.627 49.764 275.659 52.6413 269.462 58.396C263.264 64.1507 260.276 71.1227 260.498 79.312H210.366C210.366 55.408 218.666 36.2627 235.266 21.876C252.087 7.48932 271.454 0.295979 293.366 0.295979C317.491 0.295979 336.415 7.04665 350.138 20.548C363.86 33.828 370.722 50.2067 370.722 69.684C370.722 80.308 368.287 90.1573 363.418 99.232C358.77 108.085 353.015 115.168 346.154 120.48C355.007 124.907 362.422 131.547 368.398 140.4C374.374 149.253 377.362 159.988 377.362 172.604C377.362 193.409 369.615 210.452 354.122 223.732C338.85 237.012 318.93 243.652 294.362 243.652Z" fill="#8877D8" fill-opacity="0.2"/>
</svg>
