<svg width="30" height="30" viewBox="0 0 28 34" fill="none" xmlns="http://www.w3.org/2000/svg">
<path d="M23.1952 17.926C23.1796 15.262 24.3866 13.2542 26.8241 11.7737C25.4608 9.82056 23.3983 8.74634 20.6796 8.53931C18.1053 8.33618 15.2889 10.0393 14.2577 10.0393C13.1678 10.0393 10.6757 8.60962 8.71472 8.60962C4.66785 8.67212 0.367065 11.8362 0.367065 18.2737C0.367065 20.176 0.714722 22.1409 1.41003 24.1643C2.33972 26.8284 5.69128 33.3557 9.18738 33.2502C11.0155 33.2073 12.3085 31.9534 14.6874 31.9534C16.996 31.9534 18.1913 33.2502 20.2303 33.2502C23.7577 33.1995 26.7889 27.2659 27.6718 24.594C22.9413 22.3635 23.1952 18.0627 23.1952 17.926ZM19.0897 6.01196C21.0702 3.6604 20.8905 1.51978 20.8319 0.750244C19.0819 0.851807 17.0585 1.94165 15.9061 3.28149C14.6366 4.71899 13.8905 6.49634 14.0507 8.50024C15.9413 8.64478 17.6678 7.67212 19.0897 6.01196Z" fill="white"/>
</svg>
