<svg width="104" height="40" viewBox="0 0 104 40" fill="none" xmlns="http://www.w3.org/2000/svg">
<path d="M29.1952 20.926C29.1796 18.2619 30.3866 16.2541 32.8241 14.7736C31.4608 12.8205 29.3983 11.7463 26.6796 11.5393C24.1053 11.3361 21.2889 13.0393 20.2577 13.0393C19.1678 13.0393 16.6757 11.6096 14.7147 11.6096C10.6678 11.6721 6.36707 14.8361 6.36707 21.2736C6.36707 23.176 6.71472 25.1408 7.41003 27.1643C8.33972 29.8283 11.6913 36.3557 15.1874 36.2502C17.0155 36.2072 18.3085 34.9533 20.6874 34.9533C22.996 34.9533 24.1913 36.2502 26.2303 36.2502C29.7577 36.1994 32.7889 30.2658 33.6718 27.5939C28.9413 25.3635 29.1952 21.0627 29.1952 20.926ZM25.0897 9.01191C27.0702 6.66035 26.8905 4.51973 26.8319 3.75019C25.0819 3.85176 23.0585 4.9416 21.9061 6.28144C20.6366 7.71894 19.8905 9.49629 20.0507 11.5002C21.9413 11.6447 23.6678 10.6721 25.0897 9.01191Z" fill="#8877D8"/>
<line x1="52.5" x2="52.5" y2="40" stroke="url(#paint0_linear_454_5380)"/>
<path d="M69 34.1668V5.83342C69 4.85009 69.5667 3.98342 70.4 3.58342L86.8167 20.0001L70.4 36.4168C69.5667 36.0001 69 35.1501 69 34.1668ZM92.0167 25.2001L74.0833 35.5668L88.2333 21.4168L92.0167 25.2001ZM97.6 18.0168C98.1667 18.4668 98.5833 19.1668 98.5833 20.0001C98.5833 20.8334 98.2167 21.5001 97.6333 21.9668L93.8167 24.1668L89.65 20.0001L93.8167 15.8334L97.6 18.0168ZM74.0833 4.43342L92.0167 14.8001L88.2333 18.5834L74.0833 4.43342Z" fill="#8877D8"/>
<defs>
<linearGradient id="paint0_linear_454_5380" x1="51.5" y1="0" x2="51.5" y2="40" gradientUnits="userSpaceOnUse">
<stop stop-color="#8877D8" stop-opacity="0"/>
<stop offset="0.5" stop-color="#8877D8"/>
<stop offset="1" stop-color="#8877D8" stop-opacity="0"/>
</linearGradient>
</defs>
</svg>
