<svg width="81" height="72" viewBox="0 0 81 72" fill="none" xmlns="http://www.w3.org/2000/svg">
<g clip-path="url(#clip0_906_2290)">
<path d="M12.3397 57.8715L16.8256 66.0939L23.4563 65.1629L26.239 60.7018L21.8398 53.5322H14.4779L12.3397 57.8715Z" fill="#8AECE7"/>
<path d="M31.6722 19.7632L15.2358 31.271L17.2208 40.0133L22.6634 38.9118L29.6225 22.326L31.6722 19.7632Z" fill="#8AECE7"/>
<path d="M20.5933 71.9463C19.7755 71.9463 19.0263 71.4579 18.7007 70.6973C18.0552 69.1922 17.5754 68.7733 15.9961 68.3392C15.1526 68.1078 14.5462 67.3662 14.4862 66.4942C14.4262 65.6221 14.926 64.8053 15.7305 64.4607C17.2356 63.8152 17.6545 63.3354 18.0886 61.756C18.3199 60.9126 19.0615 60.3061 19.9336 60.2462C20.8065 60.1871 21.6224 60.6869 21.967 61.4904C22.6125 62.9956 23.0923 63.4144 24.6717 63.8486C25.5152 64.0799 26.1216 64.8215 26.1816 65.6926C26.2415 66.5646 25.7417 67.3815 24.9382 67.7261C23.4331 68.3715 23.0142 68.8513 22.5801 70.4307C22.3488 71.2742 21.6072 71.8806 20.7351 71.9406C20.6885 71.9435 20.6409 71.9454 20.5943 71.9454L20.5933 71.9463ZM19.151 66.1753C19.6327 66.4808 20.0468 66.8407 20.4143 67.2767C20.7199 66.795 21.0798 66.3809 21.5158 66.0134C21.0341 65.7088 20.62 65.347 20.2525 64.9119C19.9469 65.3937 19.5861 65.8078 19.151 66.1753ZM23.812 66.9692C23.812 66.9692 23.812 66.9692 23.813 66.9692C23.813 66.9692 23.813 66.9692 23.812 66.9692Z" fill="#8AECE7"/>
<path d="M7.38205 67.9693L7.05171 63.1512L8.474 63.0541L8.05322 56.9108C7.71526 51.987 10.4999 47.4507 14.9305 45.4925C14.9686 45.2573 15.0267 45.0269 15.1057 44.8023C14.9848 44.5252 14.882 44.2282 14.7982 43.9179C14.6811 43.479 14.6106 43.0334 14.5906 42.6146C14.5488 42.4594 14.5069 42.3042 14.465 42.149C14.3688 41.7901 14.2774 41.4493 14.1851 41.1428L13.7272 42.6821L13.1788 38.9274C12.4429 40.1498 11.4776 41.3313 10.2133 42.2756C9.52692 42.7888 8.76056 43.2781 7.9742 43.3981C7.0698 43.9826 6.2882 43.7722 5.95309 43.6303C5.4552 43.419 5.06582 43.0096 4.85829 42.4784C4.39942 41.3075 4.93445 39.8813 5.18578 39.3225C5.53136 38.5543 5.99117 37.9126 6.49859 37.4766C6.58808 37.251 6.67376 37.0406 6.74802 36.8578C6.83941 36.6331 6.91748 36.4398 6.96603 36.3113C7.12977 35.8734 7.27448 35.4564 7.40205 35.0652C5.98165 35.6011 4.59363 35.9686 3.53595 36.0667C1.76903 36.754 0.908417 35.8429 0.678984 35.5326C0.371486 35.1175 0.248677 34.5949 0.334358 34.0608C0.511431 32.9565 1.5177 32.0997 2.10223 31.6874C2.41449 31.4675 2.73532 31.2809 3.059 31.1334C3.39315 30.9106 3.76729 30.6755 4.1738 30.4346C5.04488 29.9158 5.81125 29.4369 6.4786 29.0028C6.33675 28.8847 6.23394 28.7648 6.16634 28.6734C5.85885 28.2583 5.73604 27.7357 5.82172 27.2016C5.99879 26.0973 7.00506 25.2405 7.58959 24.8282C8.10558 24.4636 8.64632 24.1942 9.15469 24.0447C9.7516 23.5954 10.4723 23.0918 11.3024 22.5434C11.9545 22.1122 12.5962 21.4639 13.2445 20.7022L13.493 20.4062C13.9414 19.8626 14.3945 19.2714 14.8572 18.6678C17.2029 15.6052 20.1227 11.7943 25.2065 10.5558C26.6107 10.214 31.3393 9.13728 37.6663 8.48421L39.2676 8.03296C46.9531 5.86715 74.7431 8.15386 75.9226 8.25287L77.1736 8.35759L77.384 9.5952C77.3935 9.65232 78.3588 15.3377 79.1909 21.0745C79.6812 24.457 80.0315 27.2006 80.2305 29.2284C80.6075 33.065 80.4494 33.9799 79.8154 34.6348C79.4279 35.0347 78.8919 35.2222 78.3445 35.147C71.5463 34.2264 56.6198 34.0208 51.7141 33.9523C50.8249 33.9399 50.229 33.9313 49.9434 33.9237H49.9357C47.6147 33.9237 45.7079 31.4504 44.4979 29.3265C36.4125 32.7384 31.9619 34.8443 29.2268 38.5942C27.7321 40.6449 25.135 43.3533 22.9112 44.9689C24.9599 45.5791 26.8344 46.7663 28.2805 48.3866C30.0179 50.3325 31.0727 52.8391 31.2507 55.4438L31.6639 61.4652L33.0862 61.3681L33.4165 66.1862L31.5392 66.131C29.4019 66.0672 27.3865 65.5712 25.5482 64.6573C23.0045 63.393 21.3213 61.6404 19.82 58.6044C18.7471 61.8165 17.3191 63.7833 14.9714 65.3827C13.275 66.5384 11.3462 67.3048 9.23846 67.6599L7.38586 67.9712L7.38205 67.9693ZM18.8509 44.8032L18.2625 45.6686C18.1987 45.7619 18.1216 45.9133 18.1159 46.1037C18.114 46.1693 18.1188 46.236 18.1311 46.3007L18.4006 47.703L17.043 48.1448C13.3873 49.3348 11.0178 52.8486 11.2815 56.689L11.7156 63.0246C11.727 63.1931 11.7251 63.3597 11.7089 63.5244C12.2125 63.2864 12.6933 63.0122 13.1436 62.7057C15.1409 61.3453 16.2205 59.6098 17.1287 56.3053C17.4333 55.1963 18.373 54.4289 19.523 54.3499C20.6721 54.2709 21.7088 54.903 22.1619 55.9598C23.5119 59.11 24.819 60.6808 26.9829 61.7565C27.477 62.0021 27.9892 62.2087 28.5175 62.3753C28.4794 62.2144 28.4537 62.0478 28.4423 61.8774L28.0158 55.6627C27.7483 51.7624 24.9161 48.5551 21.1281 47.8649L19.7277 47.6097L19.8019 46.1884C19.8019 46.1731 19.8038 46.157 19.8048 46.1417C19.8048 45.859 19.6782 45.6657 19.5696 45.5524L18.849 44.8023L18.8509 44.8032ZM17.8217 42.3242V42.3794C17.8217 42.5822 17.857 42.8307 17.9236 43.0801C18.0169 43.4295 18.1473 43.6884 18.2378 43.8141L18.2911 43.8883L19.9876 43.0001C20.1104 42.9354 20.2398 42.8611 20.375 42.7773L17.8217 42.3242ZM25.3245 32.8175C25.1569 33.1212 24.9856 33.4315 24.8114 33.7476C23.2834 36.5112 21.5517 39.6443 20.7063 42.2471C20.6616 42.3842 20.6206 42.5165 20.5845 42.6431C22.3685 41.4683 25.0094 38.8789 26.6078 36.6864C29.976 32.0673 35.3082 29.672 44.4436 25.8355C44.5065 25.8088 44.5693 25.7841 44.6321 25.7583L46.0373 25.191L46.6961 26.5561C48.3126 29.9072 49.6625 30.6697 49.9281 30.6869H49.9643L49.9757 31.8978L50.0119 30.6878C50.2604 30.6954 50.8887 30.704 51.7579 30.7154C56.8454 30.7859 69.7613 30.9649 77.1783 31.7484C77.1117 30.3213 76.8289 27.2597 75.8712 20.7565C75.3086 16.9304 74.7069 13.2376 74.3985 11.3802C69.448 11.0023 51.1362 9.71706 42.7538 10.6824L43.2393 11.2536L40.0949 11.5106C32.9291 12.0971 27.4732 13.3356 25.9709 13.7012C21.9963 14.6694 19.6724 17.7025 17.4248 20.6366C16.3633 22.0227 15.3465 23.3488 14.1946 24.3808L14.3022 24.9901L17.1772 24.2028L14.5906 26.6237L15.4989 31.7541L15.5036 31.8578L15.9948 34.4187C16.5318 37.2205 16.9687 39.2064 17.2239 40.0127C17.3019 40.2574 17.3753 40.5154 17.4476 40.7753C17.4838 39.6852 17.4828 38.4324 17.4828 37.132C17.4828 34.6225 17.4809 32.0273 17.7408 30.0224C18.0179 27.8823 18.4843 25.726 19.9999 24.4503C21.4165 23.2584 23.3538 23.1203 25.3816 23.0775C25.7443 23.0699 26.0833 23.1108 26.3898 23.1984L27.418 23.4926L27.8645 27.0607L26.5288 27.2273L27.8245 27.6957C27.6798 28.1117 27.497 28.5553 27.2847 29.0247L25.4197 33.5753L25.3245 32.8175ZM11.1568 33.3782L11.2177 33.3963C11.014 34.3007 10.636 35.7373 9.99626 37.4461C9.93248 37.6156 9.8468 37.8279 9.74684 38.0744C9.70685 38.1734 9.66496 38.2772 9.62117 38.3838C11.8765 35.6325 12.2525 31.736 12.2563 31.6903L12.5381 28.543L12.3991 28.6734C12.3934 28.6791 12.2097 28.8486 11.8203 29.1637L12.2259 28.9342L11.3357 32.5718C11.2672 32.8527 11.2063 33.1231 11.1558 33.3782H11.1568ZM24.5124 26.3476C23.3662 26.4105 22.5199 26.5599 22.0829 26.9274C21.5565 27.3701 21.2071 28.4535 20.95 30.4384C20.8034 31.5694 20.7492 32.9736 20.7301 34.4597C21.1481 33.6838 21.5707 32.9193 21.9782 32.1815C23.0463 30.2499 24.0612 28.4135 24.6029 27.0683L24.5124 26.3486V26.3476ZM78.772 31.9378C78.772 31.9378 78.7748 31.9378 78.7758 31.9378C78.7748 31.9378 78.7729 31.9378 78.772 31.9378Z" fill="#8AECE7"/>
<path d="M21.4223 46.2208C21.4699 44.6557 20.0847 43.4486 18.5415 43.7094C17.3991 43.9027 16.5328 44.8966 16.4975 46.0542C16.4499 47.6193 17.8351 48.8264 19.3783 48.5656C20.5207 48.3733 21.387 47.3784 21.4223 46.2208Z" fill="#FF5B00"/>
<path d="M24.2361 65.4091C22.1855 64.8455 21.3097 64.0829 20.4719 62.1285C20.3072 61.7439 19.7532 61.7819 19.6427 62.1856C19.0791 64.2362 18.3166 65.1121 16.3621 65.9498C15.9775 66.1145 16.0156 66.6686 16.4192 66.779C18.4698 67.3426 19.3457 68.1052 20.1835 70.0596C20.3482 70.4442 20.9022 70.4062 21.0127 70.0025C21.5762 67.9519 22.3388 67.076 24.2933 66.2383C24.6779 66.0736 24.6398 65.5195 24.2361 65.4081" fill="#FF5B00"/>
<path d="M30.0531 61.768L29.6266 55.5542C29.2562 50.1573 24.7085 45.9323 19.3021 46.1208C13.6205 46.3179 9.27651 51.176 9.66207 56.8004L10.0962 63.136C10.1495 63.9214 9.55735 64.6021 8.771 64.6554L8.8681 66.0777L8.95949 66.0625C10.7797 65.7559 12.5248 65.0829 14.0499 64.0442C16.4632 62.4001 17.7008 60.3162 18.6842 56.7347C18.947 55.777 20.2779 55.6856 20.6692 56.5986C22.1324 60.0115 23.6432 61.9079 26.2574 63.2065C27.9101 64.028 29.7303 64.4564 31.5753 64.5117L31.6677 64.5145L31.5706 63.0922C30.7852 63.1465 30.1045 62.5534 30.0512 61.768" fill="#FF5B00"/>
<path d="M53.9299 19.6971C55.6006 26.0393 52.5428 31.6714 50.3199 32.2569C48.0969 32.8424 44.9401 28.1756 43.2703 21.8343C41.5995 15.4921 42.0479 9.87619 44.2708 9.29071C46.4938 8.70522 52.2591 13.3558 53.9299 19.6971Z" fill="#8477D4"/>
<path d="M71.485 28.5854C71.485 28.5854 54.0538 23.5541 45.0678 27.3278C36.0828 31.1016 31.0381 33.3559 27.9137 37.6409C24.7892 41.9259 16.8447 48.8888 19.1657 41.7479C21.4867 34.6059 29.6101 24.6079 25.4146 24.6974C21.2191 24.7869 19.9692 25.4114 19.3446 30.2324C18.7201 35.0524 19.6855 44.0879 18.207 44.8238C16.7285 45.5587 16.3001 42.459 15.6794 40.5045C15.0597 38.5491 13.8678 31.8375 13.8678 31.8375C13.8678 31.8375 13.3213 37.9322 9.24292 40.9815C5.33208 43.9051 7.97675 38.2245 8.48036 36.8812C9.50472 34.147 9.81507 32.1602 9.81507 32.1602C5.06933 34.8658 -1.55282 35.7293 4.99888 31.8261C9.50377 29.1423 11.2926 27.4935 11.2926 27.4935C11.2926 27.4935 3.50709 29.6374 12.1913 23.8958C16.0612 21.3369 18.4574 13.8665 25.585 12.13C32.7127 10.3936 50.3505 7.65178 62.5962 11.673C74.8418 15.6943 71.485 28.5864 71.485 28.5864" fill="#802E00"/>
<path d="M26.2564 27.2609C26.2564 27.2609 27.9034 23.2072 25.6385 22.3247" stroke="black" stroke-width="0.299882" stroke-linecap="round" stroke-linejoin="round"/>
<path d="M18.9492 45.2168C19.4938 45.5148 20.5077 44.756 21.2122 43.5222C21.9176 42.2884 22.0471 41.0461 21.5025 40.7481C20.958 40.4501 19.9441 41.2089 19.2387 42.4427C18.5332 43.6765 18.4038 44.9188 18.9483 45.2168" fill="#FFE4C4"/>
<path d="M17.6605 45.2149C18.0927 45.0892 18.2098 44.1172 17.9223 43.0434C17.6348 41.9695 17.0512 41.2003 16.62 41.3259C16.1878 41.4516 16.0707 42.4236 16.3582 43.4975C16.6457 44.5713 17.2293 45.3406 17.6615 45.2149" fill="#FFE4C4"/>
<path d="M6.58574 42.1411C6.99986 42.3172 7.70435 41.6375 8.16036 40.6236C8.61637 39.6097 8.64969 38.6444 8.23557 38.4692C7.82144 38.2931 7.11696 38.9728 6.66095 39.9867C6.20494 41.0006 6.17162 41.9659 6.58574 42.1411Z" fill="#FFE4C4"/>
<path d="M7.46234 27.7096C7.6813 28.0047 8.50859 27.7848 9.31018 27.2183C10.1118 26.6519 10.5849 25.9541 10.3669 25.6589C10.1479 25.3638 9.32065 25.5837 8.51906 26.1502C7.71652 26.7166 7.24433 27.4144 7.46234 27.7096Z" fill="#FFE4C4"/>
<path d="M1.97711 34.568C2.19607 34.8631 3.02336 34.6432 3.82495 34.0767C4.62654 33.5103 5.09969 32.8125 4.88168 32.5173C4.66272 32.2222 3.83542 32.4421 3.03384 33.0086C2.23129 33.575 1.7591 34.2728 1.97711 34.568Z" fill="#FFE4C4"/>
<path d="M78.5591 33.5426C70.4889 32.4506 51.7601 32.3583 49.9608 32.305C49.9704 32.304 50.0084 32.2869 50.0646 32.2612C50.8243 31.907 51.4593 31.3054 51.7915 30.5352C52.9063 27.9553 52.8235 24.6699 51.8296 22.0709C50.97 19.8223 49.2126 18.0401 47.3628 16.4998C44.7134 14.2921 41.8888 12.27 39.702 9.59203C47.1943 7.48048 75.783 9.86621 75.783 9.86621C75.783 9.86621 79.8386 33.7178 78.5581 33.5435" fill="black"/>
<path d="M13.918 29.8591L10.7611 28.9214" stroke="#FF5B00" stroke-width="0.506467" stroke-miterlimit="10"/>
<path d="M14.2664 35.1865L14.0551 33.7375C13.4449 29.5582 14.3435 25.2971 16.5912 21.7213L19.7814 16.6443" stroke="black" stroke-width="0.253233" stroke-linecap="round" stroke-linejoin="round"/>
<path d="M9.50415 33.4027C10.1763 29.6023 12.6058 24.1797 13.2541 23.2419" stroke="black" stroke-width="0.253233" stroke-linecap="round" stroke-linejoin="round"/>
<path d="M18.3474 2.18292C17.7009 1.63933 17.5115 1.21759 17.5343 0.373164C17.5391 0.207515 17.3325 0.128497 17.2259 0.256066C16.6823 0.902478 16.2606 1.09098 15.4161 1.06908C15.2505 1.06432 15.1715 1.2709 15.299 1.37753C15.9454 1.92208 16.1339 2.34286 16.112 3.18729C16.1073 3.35294 16.3139 3.43196 16.4205 3.30439C16.965 2.65798 17.3858 2.46853 18.2303 2.49138C18.3959 2.49614 18.4749 2.28955 18.3474 2.18292Z" fill="#FF9960"/>
<path d="M73.4268 26.3174C72.7804 25.7739 72.591 25.3521 72.6138 24.5077C72.6186 24.342 72.412 24.263 72.3054 24.3906C71.7618 25.037 71.34 25.2255 70.4956 25.2036C70.3299 25.1988 70.2509 25.4054 70.3785 25.512C71.0249 26.0566 71.2144 26.4774 71.1915 27.3218C71.1868 27.4875 71.3933 27.5665 71.5 27.4389C72.0445 26.7925 72.4653 26.603 73.3097 26.6259C73.4754 26.6307 73.5544 26.4241 73.4268 26.3174Z" fill="white"/>
</g>
<defs>
<clipPath id="clip0_906_2290">
<rect width="80.4444" height="72" fill="white"/>
</clipPath>
</defs>
</svg>
