<svg width="48" height="49" viewBox="0 0 48 49" fill="none" xmlns="http://www.w3.org/2000/svg">
<path opacity="0.5" d="M37.5001 18.9087V20.3167C37.5001 22.0067 37.9801 23.6587 38.8841 25.0647L41.1001 28.5107C43.1221 31.6587 41.5781 35.9367 38.0601 36.9307C28.8675 39.534 19.1327 39.534 9.94012 36.9307C6.42212 35.9367 4.87812 31.6587 6.90012 28.5107L9.11612 25.0647C10.0226 23.6471 10.5036 21.9993 10.5021 20.3167V18.9087C10.5021 11.1767 16.5461 4.90869 24.0001 4.90869C31.4541 4.90869 37.5001 11.1767 37.5001 18.9087Z" fill="#8877D8"/>
<path d="M14.4863 37.9988C15.1398 40.007 16.4121 41.7569 18.1209 42.9979C19.8297 44.2388 21.8874 44.9072 23.9993 44.9072C26.1112 44.9072 28.1689 44.2388 29.8777 42.9979C31.5866 41.7569 32.8588 40.007 33.5123 37.9988C27.2223 39.1788 20.7783 39.1788 14.4863 37.9988Z" fill="#8877D8"/>
</svg>
