<svg width="28" height="34" viewBox="0 0 28 34" fill="none" xmlns="http://www.w3.org/2000/svg">
<path d="M24.4797 16.5119C24.9883 16.7491 25.4756 17.0216 25.9113 17.3675C26.7276 18.0146 27.3519 18.9703 27.3256 19.9926C27.3058 20.7687 26.9108 21.5066 26.352 22.0624C25.7932 22.6182 25.0801 23.0072 24.3417 23.307C24.8975 23.6955 25.423 24.162 25.7059 24.7669C25.9892 25.3718 25.9833 26.14 25.5451 26.6511C24.9873 27.3022 23.9859 27.3324 23.1135 27.3091C23.4922 27.3191 23.7438 28.7547 23.7611 29.0107C23.8083 29.7079 23.6197 30.3545 23.2599 30.953C22.5314 32.1638 20.9519 32.7792 19.5619 32.9444C18.0554 33.1236 16.521 32.8174 15.1072 32.2814C14.3748 32.0041 13.3768 31.3048 12.5779 31.6448C12.228 31.7936 11.9422 32.0507 11.632 32.2666C10.6028 32.9836 9.25157 33.2481 8.01643 32.9742C6.93959 32.735 5.7243 31.8353 5.38438 30.7808C4.8137 30.9327 4.21921 31.0433 3.63166 30.9724C3.04461 30.9019 2.46053 30.6275 2.13798 30.1461C1.9236 29.8261 1.83825 29.4415 1.78217 29.0638C1.70178 28.5219 1.67399 27.9632 1.81244 27.4327C1.95139 26.9022 2.27444 26.3995 2.76522 26.1301C2.14592 25.8948 1.53108 25.6125 1.04476 25.1723C0.558446 24.7322 0.211575 24.1099 0.244326 23.4657C0.277078 22.8211 0.757935 22.1859 1.41446 22.0822C0.487484 20.9602 0.464657 19.2423 1.30479 18.0577C2.14492 16.8732 3.75473 16.2787 5.2102 16.5531C5.31044 15.2302 6.25081 14.1077 7.28845 13.2432C7.71819 12.8849 8.18615 12.547 8.73003 12.3932C9.62772 12.1391 10.5835 12.4185 11.4737 12.6964C11.574 12.7276 12.3694 12.279 12.5521 12.2378C12.9927 12.1381 13.4542 12.1257 13.9003 12.1942C14.5886 12.2994 15.66 12.6621 15.8744 13.3827C16.0461 13.1172 16.2729 12.9152 16.5567 12.7574C18.1402 11.8766 20.218 12.1748 21.7424 13.1494C22.2258 13.4586 22.6754 13.8392 22.9592 14.329C23.2431 14.8183 23.3423 15.4296 23.1225 15.9492C23.578 16.1269 24.0365 16.306 24.4797 16.5124" fill="black"/>
<path d="M13.5801 32.6472C11.0279 32.5519 9.00921 30.4528 9.01368 27.8987C9.01666 26.0482 9.02609 24.0364 9.04991 22.6896C9.0504 22.6708 9.05139 22.6519 9.04991 22.6331C9.08166 20.8253 9.10896 19.3782 9.12186 19.3162L12.5459 18.7257L12.7489 18.6904L18.5559 17.6895L18.5008 27.9329C18.4864 30.6121 16.2578 32.7474 13.5806 32.6477" fill="#94410F"/>
<path d="M19.3324 14.78C20.1765 20.2818 17.1083 24.9088 13.5587 25.0041C9.7927 25.1053 6.45598 19.6328 7.41918 14.2123C7.8127 11.9986 7.60974 11.2999 7.60924 9.8633C7.60825 6.11768 10.9579 4.90735 13.5582 4.90735C15.9679 4.90735 19.6957 6.48936 19.4212 9.75512C19.2287 12.0453 19.0734 13.0948 19.3319 14.7795" fill="#481A00"/>
<path d="M23.9411 11.7212C24.9122 12.7812 24.4229 15.2003 23.0652 16.4444C21.7075 17.6885 19.8724 17.9758 18.9013 16.9158C17.9301 15.8559 18.3673 13.2982 19.7245 12.0547C21.0822 10.8106 22.9699 10.6612 23.9411 11.7212Z" fill="#94410F"/>
<path d="M19.9452 14.8986C19.9863 14.7815 20.0379 14.6694 20.0995 14.5617C20.162 14.452 20.2191 14.3409 20.289 14.2352C20.3064 14.2089 20.3243 14.1826 20.3431 14.1568C20.3526 14.1439 20.362 14.131 20.3714 14.1185C20.3754 14.1136 20.3789 14.1081 20.3828 14.1032C20.3863 14.0987 20.4007 14.0798 20.3893 14.0947C20.4285 14.0446 20.4692 13.9965 20.5114 13.9493C20.5967 13.855 20.688 13.7652 20.7838 13.6809C20.8076 13.6595 20.8319 13.6392 20.8567 13.6188C20.8677 13.6099 20.8791 13.6005 20.89 13.5915C20.8964 13.5866 20.9024 13.5816 20.9089 13.5767C20.9118 13.5742 20.9376 13.5543 20.9148 13.5717C20.9654 13.533 21.017 13.4958 21.0701 13.46C21.1838 13.3836 21.3034 13.3141 21.4254 13.2516C21.4904 13.2184 21.5564 13.1866 21.6234 13.1573C21.6403 13.1499 21.6572 13.1424 21.6736 13.1355C21.6527 13.1444 21.6701 13.137 21.6745 13.1355C21.685 13.1315 21.6949 13.1271 21.7048 13.1231C21.7386 13.1092 21.7728 13.0963 21.807 13.0834C21.9445 13.0323 22.0844 12.9881 22.2259 12.9499C22.3857 12.9072 22.5469 12.8695 22.7097 12.8387C22.7891 12.8239 22.8685 12.808 22.9474 12.7926C22.9866 12.7847 23.0268 12.7782 23.065 12.7673C23.1092 12.7544 23.1429 12.734 23.1871 12.7182C23.2139 12.7082 23.2337 12.6864 23.2337 12.6571C23.2337 12.6318 23.2144 12.5996 23.1871 12.5961C23.1528 12.5911 23.1131 12.5847 23.0859 12.5787C23.0422 12.5693 22.9955 12.5733 22.9514 12.5757C22.8784 12.5802 22.8055 12.5891 22.733 12.5981C22.5767 12.6179 22.4209 12.6492 22.2676 12.6849C21.9673 12.7549 21.6726 12.8596 21.3942 12.9926C20.8969 13.2303 20.4583 13.5891 20.161 14.056C20.0806 14.1826 20.0112 14.3161 19.9595 14.457C19.9352 14.524 19.9208 14.5969 19.9069 14.6669C19.8926 14.7403 19.8821 14.8148 19.8752 14.8892C19.8712 14.9314 19.9327 14.9344 19.9457 14.8986" fill="black"/>
<path d="M21.1292 13.3191C21.1515 13.3866 21.1992 13.4382 21.2478 13.4893C21.2949 13.5384 21.3406 13.589 21.3848 13.6407C21.4701 13.7414 21.5446 13.8401 21.6145 13.9602C21.6304 13.9875 21.6458 14.0153 21.6597 14.0436C21.6666 14.057 21.6731 14.0704 21.679 14.0838C21.6835 14.0927 21.687 14.1022 21.6914 14.1111C21.7014 14.1329 21.686 14.0967 21.6954 14.121C21.7202 14.183 21.7426 14.2451 21.7584 14.3101C21.7664 14.3433 21.7728 14.3771 21.7783 14.4113C21.7758 14.389 21.7778 14.4069 21.7783 14.4113C21.7793 14.4217 21.7803 14.4317 21.7813 14.4421C21.7827 14.459 21.7837 14.4763 21.7847 14.4932C21.7877 14.5617 21.7847 14.6307 21.7773 14.6986C21.7773 14.7021 21.7723 14.7359 21.7763 14.7091C21.7748 14.7195 21.7733 14.7294 21.7713 14.7398C21.7679 14.7602 21.7639 14.7805 21.7594 14.8004C21.751 14.8371 21.7416 14.8738 21.7306 14.91C21.7197 14.9458 21.7073 14.9815 21.6939 15.0167C21.682 15.0485 21.6661 15.0852 21.6522 15.117C21.6344 15.1567 21.6374 15.2023 21.6751 15.2301C21.7073 15.2544 21.7619 15.2574 21.7902 15.2232C21.9946 14.9765 22.0512 14.6401 21.9951 14.3299C21.942 14.0342 21.7703 13.7801 21.5629 13.5697C21.5058 13.5116 21.4448 13.457 21.3828 13.404C21.3198 13.3509 21.2543 13.2918 21.1709 13.2764C21.1471 13.272 21.1203 13.2918 21.1292 13.3181" fill="black"/>
<path d="M20.3698 13.2243C21.4119 18.7261 17.6231 23.3531 13.2399 23.4483C8.5891 23.5496 4.46882 18.077 5.6583 12.6566C6.14412 10.4429 5.89352 9.74418 5.89303 8.30757C5.89154 4.56195 10.0277 3.35162 13.2394 3.35162C16.2153 3.35162 20.8184 4.93364 20.4795 8.19939C20.2418 10.4895 20.0502 11.5391 20.3693 13.2238" fill="#94410F"/>
<path d="M1.38169 11.3322C0.410551 12.3922 0.899843 14.8113 2.25755 16.0554C3.61527 17.2995 5.45036 17.5868 6.4215 16.5268C7.39264 15.4669 6.95546 12.9093 5.59824 11.6657C4.24053 10.4216 2.35283 10.2722 1.38169 11.3322Z" fill="#94410F"/>
<path d="M5.44694 14.4997C5.43453 14.3702 5.4117 14.2421 5.37746 14.1166C5.34223 13.989 5.2797 13.8655 5.21321 13.7513C5.07873 13.5201 4.90802 13.3072 4.71002 13.1271C4.27383 12.7296 3.73342 12.476 3.16721 12.3237C3.00395 12.2795 2.83721 12.2467 2.66998 12.2199C2.58016 12.2056 2.48885 12.1946 2.39804 12.1882C2.35685 12.1852 2.31368 12.1807 2.272 12.1837C2.22336 12.1872 2.18515 12.1991 2.13454 12.206C2.10724 12.21 2.08789 12.2418 2.08789 12.2671C2.08789 12.2964 2.10824 12.3187 2.13454 12.3281C2.17126 12.3415 2.20203 12.3564 2.23577 12.3698C2.26902 12.3832 2.30624 12.3892 2.34197 12.3961C2.41392 12.411 2.48587 12.4239 2.55783 12.4383C2.70224 12.4681 2.84664 12.4954 2.98906 12.5321C3.13148 12.5688 3.27241 12.6085 3.41136 12.6561C3.48034 12.68 3.54932 12.7058 3.61681 12.7331C3.62524 12.7365 3.63368 12.74 3.64211 12.7435C3.64757 12.746 3.6704 12.7554 3.64807 12.746C3.66494 12.7529 3.68181 12.7603 3.69819 12.7678C3.73144 12.7827 3.76468 12.7976 3.79793 12.8134C3.92596 12.8745 4.05102 12.943 4.1716 13.0184C4.22569 13.0521 4.27829 13.0879 4.3304 13.1251C4.3562 13.1439 4.38201 13.1628 4.40732 13.1822C4.38598 13.1658 4.41823 13.1906 4.42468 13.196C4.43858 13.207 4.45198 13.2179 4.46587 13.2293C4.56462 13.3107 4.65742 13.3985 4.74625 13.4903C4.79041 13.536 4.83309 13.5831 4.87378 13.6317C4.89313 13.6546 4.91199 13.6784 4.93035 13.7017C4.94177 13.7161 4.91546 13.6819 4.93383 13.7067C4.9378 13.7116 4.94127 13.7166 4.94524 13.7221C4.95665 13.7374 4.96807 13.7528 4.97898 13.7682C5.06186 13.8833 5.13431 14.0059 5.19931 14.132C5.23107 14.193 5.26631 14.2516 5.29558 14.3131C5.32635 14.3771 5.35265 14.4426 5.37647 14.5096C5.38888 14.5448 5.45091 14.5428 5.44694 14.5002" fill="black"/>
<path d="M4.15106 12.8879C4.07613 12.9013 4.01609 12.9509 3.95852 12.9986C3.90245 13.0457 3.84687 13.0938 3.79476 13.145C3.69006 13.2467 3.59279 13.3578 3.51339 13.4809C3.34467 13.7414 3.27073 14.0531 3.32135 14.3607C3.35013 14.5339 3.41861 14.6987 3.53126 14.8342C3.55855 14.8674 3.61512 14.8659 3.64639 14.8411C3.68311 14.8118 3.68757 14.7691 3.66921 14.728C3.66078 14.7091 3.66227 14.7126 3.65482 14.6932C3.64986 14.6808 3.6444 14.6684 3.63894 14.656C3.631 14.6381 3.64688 14.6768 3.63497 14.6466C3.62207 14.6133 3.61016 14.5796 3.59875 14.5453C3.57691 14.4803 3.56054 14.4133 3.54912 14.3459C3.54764 14.3374 3.54664 14.329 3.54515 14.3205C3.54863 14.3439 3.54515 14.321 3.54515 14.3151C3.54367 14.2997 3.54218 14.2843 3.54069 14.2689C3.53821 14.2312 3.53573 14.1935 3.53573 14.1558C3.53573 14.125 3.53672 14.0943 3.5392 14.0635C3.54069 14.0466 3.54218 14.0293 3.54466 14.0124C3.54118 14.0392 3.54615 14.0054 3.54664 14.002C3.54813 13.992 3.55012 13.9816 3.5521 13.9717C3.565 13.9057 3.58386 13.8412 3.60768 13.7782C3.61364 13.7628 3.62009 13.7474 3.62604 13.732C3.63398 13.7122 3.62803 13.727 3.62604 13.731C3.63001 13.7221 3.63398 13.7127 3.63795 13.7037C3.65185 13.6734 3.66673 13.6437 3.68261 13.6144C3.71437 13.5558 3.7501 13.4993 3.78732 13.4442C3.82702 13.3856 3.85878 13.3444 3.90046 13.2943C3.95058 13.2343 4.00219 13.1752 4.05628 13.1187C4.11037 13.0616 4.16794 13.006 4.19275 12.9301C4.20168 12.9033 4.17488 12.8839 4.15106 12.8884" fill="black"/>
<path d="M11.6008 12.1505C11.6008 12.1505 9.97261 13.6347 6.87012 12.2899" stroke="black" stroke-width="0.226285" stroke-linecap="round" stroke-linejoin="round"/>
<path d="M19.4698 12.3847C19.4698 12.3847 17.5022 13.7469 14.7441 12.2036" stroke="black" stroke-width="0.226285" stroke-linecap="round" stroke-linejoin="round"/>
<path d="M14.9627 18.9435C15.0138 18.9554 14.5746 20.2829 13.33 20.3603C11.4945 20.4744 10.9575 18.8582 10.9575 18.8582C10.9575 18.8582 12.3758 18.3366 14.9627 18.943" fill="#FE6A8D"/>
<path d="M10.9574 18.8587C10.9078 18.8428 11.4159 18.0612 12.6838 18.0706C13.9517 18.0801 15.1149 18.9505 15.1149 18.9505C15.1149 18.9505 13.4783 19.6536 10.9574 18.8587Z" fill="#7F3546"/>
<path d="M10.6645 18.8006C10.7613 18.8378 10.8576 18.875 10.9548 18.9112C11.0521 18.9475 11.1498 18.9792 11.2491 19.009C11.4466 19.0686 11.6476 19.1187 11.8485 19.1658C12.1934 19.2462 12.5478 19.3177 12.9026 19.3276C13.1805 19.3355 13.4593 19.3152 13.7348 19.2834C14.0469 19.2472 14.3565 19.1971 14.6632 19.1261C14.9218 19.0666 15.1748 18.9837 15.4155 18.8715C15.4388 18.8606 15.4617 18.8492 15.485 18.8378C15.5366 18.812 15.5009 18.7271 15.4458 18.7445C15.3381 18.7788 15.2284 18.8055 15.1178 18.8284C14.9848 18.8562 14.8523 18.8859 14.7183 18.9108C14.5714 18.938 14.4245 18.9658 14.2766 18.9887C14.2002 19.0006 14.1233 19.014 14.0469 19.0254C14.0102 19.0308 13.9729 19.0363 13.9357 19.0413C13.9253 19.0428 13.9149 19.0442 13.9045 19.0457C13.8916 19.0477 13.9099 19.0447 13.9109 19.0447C13.9065 19.0452 13.902 19.0457 13.8975 19.0467C13.8782 19.0492 13.8593 19.0517 13.84 19.0542C13.5596 19.0894 13.2767 19.1162 12.9939 19.1182C12.6664 19.1207 12.3592 19.071 12.0386 19.012C11.8371 18.9748 11.6371 18.9311 11.4377 18.884C11.3369 18.8601 11.2362 18.8373 11.1355 18.8135C11.0367 18.7902 10.9355 18.7763 10.8357 18.7584C10.7851 18.7495 10.734 18.74 10.6829 18.7306C10.6367 18.7222 10.6199 18.7837 10.6635 18.8006" fill="black"/>
<path d="M14.554 11.1029C14.7615 10.9253 14.9689 10.7744 15.213 10.6285C15.3287 10.5595 15.4482 10.497 15.5713 10.4419C15.5852 10.4355 15.5996 10.4295 15.614 10.4236C15.6343 10.4146 15.5961 10.4315 15.5961 10.431C15.5961 10.43 15.617 10.4226 15.6204 10.4211C15.6527 10.4077 15.6854 10.3953 15.7182 10.3834C15.7807 10.3605 15.8433 10.3397 15.9068 10.3208C16.0378 10.2811 16.1688 10.2439 16.3033 10.2176C16.338 10.2107 16.3727 10.2047 16.4075 10.1988C16.4239 10.1963 16.4402 10.1933 16.4571 10.1908C16.4665 10.1893 16.476 10.1883 16.4854 10.1868C16.5181 10.1819 16.475 10.1893 16.4655 10.1893C16.5405 10.1878 16.6174 10.1725 16.6928 10.167C17.0248 10.1447 17.3593 10.1551 17.6898 10.1918C17.7384 10.1973 17.7875 10.2072 17.8366 10.2097C17.7677 10.2062 17.857 10.2126 17.8729 10.2151C17.917 10.2216 17.9617 10.2275 18.0059 10.233C18.0118 10.234 18.0446 10.238 18.0113 10.2335C17.9731 10.228 18.0287 10.236 18.0366 10.237C18.0629 10.2409 18.0892 10.2444 18.1155 10.2484C18.1726 10.2568 18.2292 10.2662 18.2862 10.2757C18.5359 10.3184 18.7845 10.366 19.0351 10.4042C19.1378 10.4201 19.2549 10.3784 19.2807 10.2648C19.3065 10.1511 19.246 10.0583 19.1413 10.0191C18.7229 9.86131 18.2803 9.76405 17.8371 9.70897C17.4918 9.66579 17.1394 9.64297 16.7921 9.67423C16.4819 9.70202 16.1728 9.75809 15.8785 9.86082C15.607 9.9556 15.35 10.098 15.1168 10.2648C14.8463 10.4583 14.6096 10.6895 14.3918 10.9401C14.294 11.0523 14.4419 11.1992 14.5545 11.1029" fill="black"/>
<path d="M12.0735 16.0067C12.0625 16.033 12.0561 16.0584 12.0615 16.0871C12.066 16.11 12.074 16.1323 12.0819 16.1541C12.1003 16.2047 12.1226 16.2554 12.1543 16.2985C12.2005 16.3606 12.2506 16.4161 12.3092 16.4663C12.4298 16.57 12.5672 16.6439 12.7161 16.6985C13.0396 16.8171 13.4024 16.8082 13.7249 16.6916C13.8341 16.6519 13.9443 16.6042 14.0425 16.5417C14.1562 16.4697 14.2827 16.3794 14.3284 16.2469C14.3403 16.2112 14.3264 16.1685 14.3006 16.1427C14.2713 16.1134 14.2351 16.109 14.1964 16.1149C14.1656 16.1199 14.1383 16.1343 14.11 16.1467C14.1051 16.1487 14.0996 16.1516 14.0941 16.1536C14.0986 16.1521 14.1199 16.1427 14.0971 16.1521C14.0768 16.1606 14.0574 16.169 14.0381 16.1799C13.9954 16.2042 13.9542 16.2305 13.9115 16.2549C13.8708 16.2782 13.8301 16.3015 13.7885 16.3228C13.7691 16.3328 13.7493 16.3427 13.7299 16.3516C13.721 16.3556 13.712 16.3601 13.7026 16.364C13.6981 16.366 13.6887 16.3685 13.6847 16.372C13.6902 16.368 13.715 16.3596 13.6952 16.3675C13.6168 16.3988 13.5364 16.4246 13.4535 16.4429C13.4346 16.4474 13.4153 16.4509 13.3964 16.4544C13.386 16.4563 13.3761 16.4578 13.3657 16.4593C13.3587 16.4603 13.3235 16.4653 13.3518 16.4613C13.381 16.4573 13.3438 16.4623 13.3379 16.4628C13.3294 16.4638 13.3205 16.4648 13.3121 16.4653C13.2922 16.4673 13.2724 16.4682 13.252 16.4692C13.1776 16.4727 13.1022 16.4702 13.0277 16.4628C13.0183 16.4618 13.0089 16.4608 12.9994 16.4598C12.9955 16.4598 12.9915 16.4588 12.9875 16.4583C12.9846 16.4578 13.0252 16.4643 13.0084 16.4608C12.99 16.4573 12.9717 16.4548 12.9533 16.4514C12.9186 16.4449 12.8843 16.437 12.8501 16.4276C12.8168 16.4186 12.7841 16.4082 12.7513 16.3963C12.7359 16.3908 12.7206 16.3849 12.7057 16.3789C12.7022 16.3774 12.6987 16.3759 12.6952 16.3745C12.6809 16.369 12.7151 16.3829 12.7131 16.3819C12.7042 16.3774 12.6947 16.374 12.6858 16.37C12.6268 16.3432 12.5702 16.3109 12.5146 16.2772C12.4853 16.2593 12.4571 16.2395 12.4293 16.2191C12.4223 16.2142 12.4114 16.2037 12.4402 16.2276C12.4367 16.2246 12.4332 16.2221 12.4293 16.2191C12.4233 16.2142 12.4169 16.2092 12.4109 16.2042C12.398 16.1938 12.3856 16.1824 12.3727 16.172C12.3325 16.1382 12.2923 16.104 12.2531 16.0693C12.2342 16.0524 12.2169 16.0345 12.199 16.0162C12.1777 15.9943 12.1538 15.9854 12.1261 15.975C12.1022 15.9656 12.0809 15.9854 12.0725 16.0053" fill="black"/>
<path d="M11.6503 11.0097C11.2751 10.5779 10.8349 10.2107 10.305 9.98592C9.69409 9.72638 9.00333 9.69462 8.35127 9.76211C7.8585 9.81322 7.36425 9.91396 6.90026 10.0891C6.80251 10.1259 6.72509 10.2256 6.76082 10.3348C6.79754 10.4479 6.8958 10.4911 7.00696 10.4742C7.22977 10.4405 7.45208 10.4003 7.6739 10.3601C7.77414 10.3422 7.87488 10.3253 7.97562 10.311C7.99844 10.3075 8.02127 10.304 8.0441 10.3015C7.99249 10.307 8.04211 10.3015 8.06395 10.299C8.10513 10.2936 8.14632 10.2876 8.18751 10.2817C8.19694 10.2802 8.20637 10.2792 8.2158 10.2777C8.27783 10.2688 8.17858 10.2822 8.21431 10.2777C8.55374 10.235 8.89316 10.2162 9.23507 10.2301C9.31001 10.233 9.38494 10.238 9.45987 10.2454C9.4961 10.2489 9.53232 10.2534 9.56855 10.2574C9.59534 10.2603 9.53976 10.2534 9.54175 10.2539C9.55118 10.2554 9.5611 10.2564 9.57053 10.2579C9.58939 10.2603 9.60825 10.2633 9.6271 10.2663C9.76605 10.2886 9.90351 10.3199 10.0385 10.3596C10.166 10.3973 10.2926 10.4375 10.4156 10.4871C10.4236 10.4906 10.4315 10.4941 10.4399 10.497C10.4608 10.5055 10.4211 10.4896 10.4221 10.4896C10.4315 10.4881 10.4618 10.507 10.4707 10.5109C10.503 10.5253 10.5347 10.5402 10.5665 10.5556C10.626 10.5844 10.6846 10.6151 10.7426 10.6474C10.8727 10.7204 10.9997 10.8012 11.1223 10.8866C11.2577 10.9804 11.359 11.0618 11.488 11.1719C11.6006 11.2682 11.748 11.1218 11.6508 11.0092" fill="black"/>
<path d="M19.4381 9.16263C19.6281 10.362 19.9502 11.5411 20.3968 12.67C20.3338 12.5113 20.7318 11.681 20.8365 11.5347C21.0141 11.288 21.2915 11.163 21.4855 10.9268C21.9917 10.3124 22.088 9.38643 22.0552 8.62272C21.9977 7.26699 21.5401 5.93558 20.7774 4.81557C19.9666 3.62558 19.0783 2.57405 17.8119 1.84756C16.3951 1.03472 15.0116 0.916115 13.4291 0.815378C11.9141 0.718611 10.5946 0.649634 9.12471 1.22676C7.50548 1.86244 6.10112 3.03208 5.18258 4.50939C4.83323 5.07163 4.55186 5.67853 4.3752 6.31669C4.10723 7.28485 4.13899 8.28726 4.23278 9.27726C4.28488 9.82858 4.47048 10.7739 4.79849 11.2166C4.95431 11.427 5.17117 11.5843 5.39299 11.7232C5.60935 11.8587 5.85449 12.0041 5.92297 12.2502C5.80288 11.819 5.99641 11.3044 6.07085 10.8856C6.16563 10.3531 6.13834 9.8127 6.13983 9.2713C6.20086 9.46583 6.26637 9.66829 6.40879 9.81468C6.55071 9.96107 6.79387 10.0315 6.96259 9.91691C7.03703 9.86629 7.08715 9.78789 7.13429 9.71147C7.67767 8.83511 8.13223 7.90367 8.48853 6.936C8.48158 7.25607 8.47513 7.57664 8.46818 7.89672C8.46173 8.2029 8.52078 8.59791 8.82002 8.66341C9.10287 8.72494 9.32122 8.42621 9.4557 8.16965C9.69787 7.70716 9.94053 7.24466 10.1827 6.78216C10.0631 7.43869 10.2497 8.14434 10.6784 8.65597C10.8025 8.80384 10.9578 8.94229 11.1484 8.97405C11.5141 9.03459 11.8128 8.69566 12.0128 8.38353C12.7031 7.30818 13.2033 6.11125 13.4842 4.8642C13.3874 5.90878 13.2911 6.96974 13.4896 7.99994C13.5427 8.27436 13.6827 8.60237 13.9621 8.61378C14.2052 8.62321 14.3729 8.38155 14.4866 8.16618C14.8781 7.42331 15.2051 6.64669 15.4632 5.84824C15.3098 6.70475 15.5823 7.62676 16.1763 8.26195C16.2755 8.36815 16.3872 8.46938 16.5227 8.52198C16.7886 8.6252 17.0998 8.5195 17.3146 8.33142C17.5295 8.14335 17.668 7.88531 17.8015 7.63272L17.6759 9.08372C17.6446 9.44449 17.6253 9.84644 17.8555 10.1258C18.4684 10.8697 19.247 9.59386 19.4366 9.16263" fill="black"/>
<path d="M9.46973 5.19271C10.3481 5.46167 11.4319 4.21512 11.4319 4.21512" stroke="#0E2536" stroke-width="0.0451578" stroke-linecap="round" stroke-linejoin="round"/>
<path d="M10.0381 6.28841C10.904 6.35739 11.9556 5.50832 12.1253 5.23093" stroke="#0E2536" stroke-width="0.0451578" stroke-linecap="round" stroke-linejoin="round"/>
<path d="M10.479 2.33035C10.2225 3.24691 9.89941 4.05826 9.89941 4.05826" stroke="#0E2536" stroke-width="0.0451578" stroke-linecap="round" stroke-linejoin="round"/>
<path d="M12.1542 12.6998C12.1542 13.7052 10.8476 15.0624 9.23577 15.0624C7.62398 15.0624 6.31738 13.7047 6.31738 12.6998C6.31738 11.6949 7.62398 13.001 9.23577 13.001C10.8476 13.001 12.1542 11.6949 12.1542 12.6998Z" fill="#FF5B00"/>
<path d="M20.1961 12.8551C20.1961 13.8605 18.8895 15.2177 17.2778 15.2177C15.666 15.2177 14.3594 13.86 14.3594 12.8551C14.3594 11.8503 15.666 13.1564 17.2778 13.1564C18.8895 13.1564 20.1961 11.8503 20.1961 12.8551Z" fill="#FF5B00"/>
<path d="M7.66916 12.5052C7.66916 12.5052 7.35802 12.7926 6.86773 12.8769L6.37695 12.9613L7.07367 12.3782L7.66916 12.5047V12.5052Z" fill="black"/>
<path d="M8.37375 12.6676C8.37375 12.6676 8.1286 13.0129 7.66611 13.1965L7.20361 13.3807L7.76486 12.6666L8.37375 12.6676Z" fill="black"/>
<path d="M9.16493 12.7544C9.16493 12.7544 8.95701 13.1231 8.51634 13.3543L8.07568 13.5856L8.55952 12.8169L9.16543 12.7544H9.16493Z" fill="black"/>
<path d="M17.8555 12.9132C17.8555 12.9132 18.1572 13.21 18.645 13.3102L19.1328 13.4099L18.4549 12.805L17.8555 12.9132Z" fill="black"/>
<path d="M18.5566 12.7499C18.5566 12.7499 18.9229 12.9623 19.4201 12.938L19.9173 12.9137L19.1104 12.4963L18.5566 12.7499Z" fill="black"/>
<path d="M17.0449 12.9286C17.0449 12.9286 17.2752 13.2839 17.7292 13.4878L18.1833 13.6913L17.6533 12.9534L17.0449 12.9286Z" fill="black"/>
<path d="M16.1587 12.7167C16.1587 12.7167 16.2197 13.1355 16.5477 13.5102L16.8758 13.8849L16.7016 12.9936L16.1592 12.7172L16.1587 12.7167Z" fill="black"/>
<path d="M15.271 12.4969C15.271 12.4969 15.3256 12.868 15.6189 13.2189L15.9116 13.5692L15.7558 12.7762L15.271 12.4974V12.4969Z" fill="black"/>
<path d="M21.1618 18.4537C21.5214 18.4537 21.8129 18.1096 21.8129 17.685C21.8129 17.2605 21.5214 16.9164 21.1618 16.9164C20.8022 16.9164 20.5107 17.2605 20.5107 17.685C20.5107 18.1096 20.8022 18.4537 21.1618 18.4537Z" stroke="#8AECE7" stroke-width="0.24812" stroke-miterlimit="10"/>
<path d="M4.52802 18.3361C4.88759 18.3361 5.17909 17.9919 5.17909 17.5674C5.17909 17.1429 4.88759 16.7987 4.52802 16.7987C4.16845 16.7987 3.87695 17.1429 3.87695 17.5674C3.87695 17.9919 4.16845 18.3361 4.52802 18.3361Z" stroke="#8AECE7" stroke-width="0.24812" stroke-miterlimit="10"/>
</svg>
