<svg width="125" height="49" viewBox="0 0 125 49" fill="none" xmlns="http://www.w3.org/2000/svg">
<path d="M45.2776 5.965H53.4014C56.5759 5.965 58.838 7.96566 58.838 10.7767C58.838 12.7489 57.6351 14.4298 55.6916 15.0092C57.9788 15.5885 59.466 17.3865 59.466 19.7038C59.466 22.6889 57.2351 24.8036 54.0888 24.8036H45.2776V5.965ZM53.1733 14.0215C55.0324 14.0215 56.3759 12.8059 56.3759 11.1534C56.3759 9.50098 55.0324 8.28539 53.1733 8.28539H47.6803V14.0246H53.1733V14.0215ZM53.6294 22.4262C55.576 22.4262 57.0039 21.1504 57.0039 19.384C57.0039 17.6176 55.5729 16.3419 53.6294 16.3419H47.6803V22.4293H53.6294V22.4262Z" fill="#8877D8"/>
<path d="M60.7537 17.5575C60.7537 13.1224 63.6157 9.96317 67.6183 9.96317C71.9957 9.96317 74.6828 13.6448 74.3422 18.5135H63.3002C63.7001 21.065 65.4748 22.8314 67.9057 22.8314C69.8523 22.8314 71.3958 21.6728 71.7395 20.0488L74.1985 20.8592C73.5111 23.4107 70.9365 25.1486 67.8495 25.1486C63.7032 25.1486 60.7537 21.9893 60.7537 17.5543V17.5575ZM71.9113 16.2532C71.5677 13.8189 69.8523 12.2234 67.6776 12.2234C65.503 12.2234 63.7314 13.8759 63.3283 16.2532H71.9113Z" fill="#8877D8"/>
<path d="M75.6584 20.9795C75.6584 18.9788 77.2332 17.358 79.6641 16.9212L84.0697 16.1108C84.5571 16.0253 84.9289 15.6486 84.9289 15.1833C84.9289 13.3567 83.6979 12.0525 81.9544 12.0525C80.1234 12.0525 78.7517 13.3852 78.6361 15.4143L76.1178 15.1231C76.4052 12.1095 78.7767 9.96317 81.8388 9.96317C84.9008 9.96317 87.2161 12.1949 87.2161 15.2972V21.9039L87.2723 24.8036H85.4413L85.0414 22.6003C84.154 24.1641 82.4387 25.1518 80.3515 25.1518C77.5207 25.1518 75.6616 23.4993 75.6616 20.9795H75.6584ZM80.8077 22.8915C83.2104 22.8915 84.9258 21.2106 84.9258 18.8934V17.8804C84.6696 17.9373 84.354 18.026 84.0103 18.083L80.2359 18.7794C78.9767 19.0105 78.1768 19.824 78.1768 20.8655C78.1768 22.0843 79.2079 22.8947 80.8077 22.8947V22.8915Z" fill="#8877D8"/>
<path d="M89.6433 19.4726V10.3145H91.9305V19.1244C91.9305 21.239 93.5053 22.7775 95.7049 22.7775C98.0514 22.7775 99.7106 21.0681 99.7106 18.6622V10.3145H101.998V21.907L102.054 24.8067H100.051L99.7074 22.4894C99.0794 24.1134 97.3609 25.1549 95.1862 25.1549C91.9242 25.1549 89.6371 22.8376 89.6371 19.4758L89.6433 19.4726Z" fill="#8877D8"/>
<path d="M105.807 21.6728V12.5717H103.52V10.3114H104.379C105.323 10.3114 105.922 9.61498 105.922 8.51335V6.60132H108.097V10.3114H111.3V12.5717H108.097V21.0935C108.097 22.7174 109.756 23.1796 111.243 22.6003L111.359 24.9175C108.956 25.614 105.81 24.9175 105.81 21.6728H105.807Z" fill="#8877D8"/>
<path d="M116.417 26.4274L117.217 24.3413L111.611 10.3145H114.301L118.479 21.4448L122.369 10.3145H125L118.707 26.8928C117.82 29.21 116.248 30.7169 114.301 30.9511L113.673 28.5167C114.933 28.3996 115.904 27.7633 116.42 26.4306L116.417 26.4274Z" fill="#8877D8"/>
<path d="M45.2778 29.8022H53.4016C56.5761 29.8022 58.8383 31.8029 58.8383 34.6139C58.8383 36.5861 57.6353 38.267 55.6919 38.8463C57.979 39.4256 59.4663 41.2237 59.4663 43.5409C59.4663 46.5261 57.2354 48.6407 54.089 48.6407H45.2778V29.8022ZM53.1735 37.8587C55.0326 37.8587 56.3762 36.6431 56.3762 34.9906C56.3762 33.3382 55.0326 32.1226 53.1735 32.1226H47.6806V37.8618H53.1735V37.8587ZM53.6297 46.2634C55.5763 46.2634 57.0042 44.9876 57.0042 43.2212C57.0042 41.4548 55.5731 40.1791 53.6297 40.1791H47.6806V46.2665H53.6297V46.2634Z" fill="#8877D8"/>
<path d="M61.3258 43.3098V34.1516H63.613V42.9615C63.613 45.0762 65.1877 46.6147 67.3874 46.6147C69.7339 46.6147 71.393 44.9052 71.393 42.4994V34.1516H73.6802V45.7441L73.7364 48.6438H71.7336L71.3899 46.3266C70.7619 47.9505 69.0434 48.992 66.8687 48.992C63.6067 48.992 61.3196 46.6748 61.3196 43.3129L61.3258 43.3098Z" fill="#8877D8"/>
<path d="M77.4854 45.5098V36.4086H75.1982V34.1484H76.0575C77.0011 34.1484 77.601 33.452 77.601 32.3503V30.4383H79.7757V34.1484H82.9783V36.4086H79.7757V44.9305C79.7757 46.5544 81.4348 47.0166 82.9221 46.4373L83.0377 48.7545C80.6349 49.451 77.4885 48.7545 77.4885 45.5098H77.4854Z" fill="#8877D8"/>
<path d="M85.0662 28.9346H87.3533V48.6437H85.0662V28.9346Z" fill="#8877D8"/>
<path d="M89.5593 41.3945C89.5593 36.9594 92.4213 33.8002 96.4239 33.8002C100.801 33.8002 103.488 37.4818 103.145 42.3505H92.1026C92.5026 44.902 94.2773 46.6684 96.7082 46.6684C98.6548 46.6684 100.198 45.5098 100.542 43.8858L103.001 44.6962C102.314 47.2477 99.739 48.9856 96.6519 48.9856C92.5026 48.9856 89.5562 45.8263 89.5562 41.3913L89.5593 41.3945ZM100.717 40.0902C100.373 37.6559 98.6579 36.0604 96.4832 36.0604C94.3085 36.0604 92.5369 37.7129 92.1339 40.0902H100.717Z" fill="#8877D8"/>
<path d="M105.375 34.1516H107.322L107.55 36.4688C108.265 34.3542 110.468 33.338 112.927 34.0344L112.812 36.76C110.524 35.6014 107.662 36.5574 107.662 39.8338V48.6437H105.375V34.1516Z" fill="#8877D8"/>
<path d="M113.642 46.9596C113.642 45.858 114.414 45.0476 115.473 45.0476C116.532 45.0476 117.304 45.858 117.304 46.9596C117.304 48.0612 116.532 48.8716 115.473 48.8716C114.414 48.8716 113.642 48.0612 113.642 46.9596Z" fill="#8877D8"/>
<path d="M21.9282 4.34734C22.1719 1.85284 20.1191 -0.22697 17.657 0.019948C15.8354 0.203553 14.3606 1.69456 14.1794 3.54327C13.9356 6.03778 15.9885 8.11758 18.4506 7.87066C20.2722 7.68706 21.747 6.19605 21.9282 4.34734Z" fill="#8877D8"/>
<path d="M24.2931 41.5054C21.1217 40.3816 19.825 39.0647 18.7127 35.8516C18.4939 35.2185 17.616 35.2185 17.3972 35.8516C16.288 39.0647 14.9882 40.3784 11.8168 41.5054C11.1919 41.727 11.1919 42.6165 11.8168 42.8381C14.9882 43.9619 16.2849 45.2788 17.3972 48.4919C17.616 49.125 18.4939 49.125 18.7127 48.4919C19.8219 45.2788 21.1217 43.965 24.2931 42.8381C24.918 42.6165 24.918 41.727 24.2931 41.5054Z" fill="#8877D8"/>
<path d="M33.8605 36.3263V26.3546C33.8605 17.6935 27.1459 10.4475 18.6034 10.1562C9.62665 9.84915 2.25277 17.1332 2.25277 26.1584V36.3263C2.25277 37.5862 1.24356 38.6087 0 38.6087V40.8911L0.146844 40.8753C3.04953 40.5841 5.8741 39.7009 8.38934 38.2099C12.37 35.8483 14.5478 32.6542 16.485 27.0416C17.0036 25.5411 19.1127 25.5411 19.6282 27.0416C21.5655 32.6542 23.7433 35.8483 27.7239 38.2099C30.2423 39.704 33.0637 40.5872 35.9664 40.8753L36.1132 40.8911V38.6087C34.8697 38.6087 33.8605 37.5862 33.8605 36.3263Z" fill="#8877D8"/>
</svg>
