<svg width="36" height="30" viewBox="0 0 36 30" fill="none" xmlns="http://www.w3.org/2000/svg">
<g clip-path="url(#clip0_1530_14063)">
<path d="M1.98486 28.8351V13.6349C1.98486 11.472 2.87608 9.43853 4.49435 7.90926C6.11262 6.38 8.26441 5.53745 10.5533 5.53745C12.8421 5.53745 14.9939 6.37964 16.6122 7.90926C18.2304 9.43853 19.1216 11.472 19.1216 13.6349V28.8351H1.98486Z" stroke="#FFDDBD" stroke-width="0.0711617" stroke-miterlimit="10"/>
<path d="M10.5536 6.20883C14.8907 6.20883 18.4123 9.53635 18.4123 13.6353V28.1643H2.69531V13.6353C2.69531 9.53671 6.2165 6.20883 10.554 6.20883H10.5536Z" stroke="#FFDDBD" stroke-width="0.0711617" stroke-miterlimit="10"/>
<path d="M2.7583 12.6874H18.2441" stroke="#FFDDBD" stroke-width="0.0711617" stroke-miterlimit="10"/>
<path d="M2.7583 16.9596H18.2441" stroke="#FFDDBD" stroke-width="0.0711617" stroke-miterlimit="10"/>
<path d="M10.4175 6.24585V26.6653" stroke="#FFDDBD" stroke-width="0.0839632" stroke-miterlimit="10"/>
<path d="M2.81055 21.3506H18.2963" stroke="#FFDDBD" stroke-width="0.0711617" stroke-miterlimit="10"/>
<path d="M26.2751 22.5665C26.123 22.6092 25.969 22.6298 25.8177 22.6298C25.1629 22.6298 24.5529 22.2491 24.3135 21.6417L20.557 15.4535L14.8558 15.1849L14.7044 17.3528L11.5718 16.5647L12.0292 13.6417C12.2028 12.8013 13.033 12.2299 13.9325 12.3316L21.1978 13.1539C22.1154 13.2382 22.911 13.7897 23.272 14.5921L27.2812 20.4875C27.6818 21.3254 27.2081 22.3049 26.2755 22.5665H26.2751Z" fill="#37353F"/>
<path d="M18.9425 15.0052L20.3006 14.6497L21.8394 15.3009L22.1154 17.002L21.0532 18.1779L25.0191 28.8575L11.5718 28.9159C11.5718 28.9159 12.7635 23.7509 16.0877 21.3023L15.9687 20.8632L13.6904 14.9746L15.8358 14.6451L17.721 14.4672L18.9428 15.0055L18.9425 15.0052Z" fill="#37353F"/>
<path d="M14.704 17.3528L14.344 22.507C14.2066 23.5129 13.1877 24.1925 12.1391 23.9776C11.2844 23.8025 10.6948 23.088 10.6948 22.2871C10.6948 22.1907 10.7035 22.0928 10.7212 21.9946L11.5714 16.5643L14.704 17.3524V17.3528Z" fill="#37353F"/>
<path d="M26.4985 19.3368L21.6919 25.7367L23.2379 28.0775L27.7376 23.4915C28.363 22.8539 28.4282 21.8886 27.8931 21.1813L26.4985 19.3368Z" fill="#37353F"/>
<path d="M16.2396 21.1093L20.3683 20.7947L20.7115 24.8166L16.7483 25.1185C16.6567 25.1255 16.5764 25.061 16.5691 24.9744L16.2393 21.1094L16.2396 21.1093Z" fill="#FF9260"/>
<path d="M11.4013 23.4147C13.2052 25.1037 19.6301 22.5568 19.6301 22.5568L19.9863 20.4875L11.4051 21.1283C11.4051 21.1283 10.4849 22.5561 11.4017 23.4147H11.4013Z" fill="#37353F"/>
<path d="M13.6899 20.9575L18.6577 20.6597" stroke="black" stroke-width="0.0402873" stroke-linecap="round" stroke-linejoin="round"/>
<path d="M19.5646 11.398C19.6396 11.3969 19.6955 11.0804 19.6893 10.6909C19.6831 10.3015 19.6172 9.98666 19.5422 9.98773C19.4671 9.98879 19.4113 10.3054 19.4175 10.6948C19.4236 11.0842 19.4895 11.3991 19.5646 11.398Z" fill="#FF5B00"/>
<path d="M14.7074 8.4455C14.7541 9.92246 16.0391 11.0838 17.5779 11.04C19.1167 10.9959 20.3265 9.76305 20.2798 8.28645C20.2331 6.80949 19.3976 5.66521 17.4092 5.69189C15.87 5.71289 14.6607 6.96889 14.7074 8.4455Z" fill="black"/>
<path d="M16.3296 12.7803L17.8281 14.8031L18.6727 13.1037C18.6727 13.1037 18.8459 12.1374 18.9739 11.4112C18.9746 11.4069 18.9754 11.4023 18.9765 11.398C19.0507 10.9764 19.1098 10.6387 19.1094 10.6238L18.2935 10.3395L18.2453 10.3227L16.862 9.84097L16.3296 12.7807V12.7803Z" fill="#8E410F"/>
<path d="M17.0072 10.1035C17.0072 10.1035 17.5298 10.7917 17.9658 11.0632C18.2463 11.2375 18.7979 11.3734 18.9764 11.3983C19.0506 10.9767 19.1097 10.639 19.1093 10.6241L18.2934 10.3398L18.2452 10.3231L17.0068 10.1039L17.0072 10.1035Z" fill="#72310B"/>
<path d="M16.2448 9.3994C16.2448 9.3994 17.0787 10.9369 18.7855 10.9258C20.4919 10.9144 20.7117 9.91283 20.3074 8.86534C20.2595 8.74187 20.2227 8.63442 20.1937 8.53941C20.1455 8.38001 20.1199 8.25584 20.1078 8.15372C20.0645 7.79649 20.1778 7.69864 20.0171 7.27381C19.5043 5.95803 18.2143 6.04876 18.2143 6.04876C14.4981 6.28074 16.2444 9.3994 16.2444 9.3994H16.2448Z" fill="#8E410F"/>
<path d="M17.751 8.46612C17.751 8.46612 17.8116 8.63584 18.0951 8.71625C18.1328 8.72728 18.1746 8.73654 18.2209 8.7433C18.2578 8.74899 18.2973 8.75326 18.3402 8.75575C18.7265 8.77781 18.9167 8.62944 18.9167 8.62944C18.9167 8.62944 18.7653 8.28039 18.3869 8.23342C18.3715 8.23129 18.3553 8.22986 18.3391 8.2288C18.1896 8.22061 18.0714 8.24979 17.981 8.29071C17.8233 8.36151 17.751 8.46648 17.751 8.46648V8.46612Z" fill="#FF5B00"/>
<path d="M15.5594 8.8312C15.3738 9.17349 15.6893 9.76306 16.1536 9.98722C16.6178 10.2117 17.1404 10.1555 17.3257 9.81323C17.5113 9.47094 17.1995 8.84223 16.7357 8.61772C16.2714 8.3932 15.745 8.48891 15.5598 8.8312H15.5594Z" fill="#8F410F"/>
<path d="M17.751 8.56397C17.751 8.56397 17.8127 8.71519 18.1015 8.786C18.1399 8.79561 18.1825 8.80379 18.2299 8.80984C18.2676 8.81482 18.3078 8.81873 18.3519 8.82051C18.7461 8.83937 18.9404 8.70701 18.9404 8.70701C18.9404 8.70701 18.7868 8.39639 18.4005 8.35512C18.3847 8.35298 18.3681 8.35191 18.3515 8.3512C18.199 8.34409 18.0782 8.37041 17.9859 8.40706C17.8248 8.4704 17.751 8.56433 17.751 8.56433V8.56397Z" fill="white"/>
<path d="M17.9409 8.5533C17.9424 8.65684 18.0079 8.74544 18.1017 8.78564C18.1378 8.80201 18.1789 8.81055 18.2214 8.80984C18.2241 8.80984 18.2271 8.80984 18.2301 8.80948C18.3784 8.80343 18.4955 8.68673 18.4933 8.54547C18.4921 8.46933 18.4564 8.40137 18.4006 8.35512C18.3848 8.35298 18.3683 8.35191 18.3517 8.3512C18.1992 8.34409 18.0783 8.37041 17.9861 8.40706C17.9571 8.4494 17.9402 8.49993 17.9413 8.55366L17.9409 8.5533Z" fill="black"/>
<path d="M18.9146 8.69312C18.9146 8.69312 18.5652 8.00605 17.7402 8.54012" stroke="black" stroke-width="0.0775624" stroke-linecap="round" stroke-linejoin="round"/>
<path d="M19.4097 8.51522C19.4097 8.51522 19.5 8.56255 19.7798 8.53835C19.8174 8.53551 19.8573 8.52981 19.9014 8.52127C19.936 8.51416 19.9733 8.50562 20.0128 8.49423C20.0727 8.47715 20.1262 8.45794 20.1736 8.43766C20.1254 8.27826 20.0998 8.15408 20.0878 8.05196C20.0302 8.0484 19.9669 8.05267 19.8999 8.06762C19.8852 8.07046 19.8705 8.07438 19.8555 8.07865C19.7177 8.11814 19.6194 8.17756 19.5501 8.23769C19.4285 8.3423 19.4097 8.51558 19.4097 8.51558V8.51522Z" fill="#FF5B00"/>
<path d="M19.4146 8.54866C19.4146 8.54866 19.5204 8.66429 19.8001 8.6401C19.8378 8.63725 19.8777 8.63156 19.9217 8.62302C19.9564 8.6159 19.9936 8.60736 20.0332 8.59598C20.093 8.5789 20.1465 8.55969 20.1939 8.5394C20.1457 8.38 20.1201 8.25583 20.1081 8.15371C20.0505 8.15015 19.9872 8.15442 19.9202 8.16936C19.9055 8.17221 19.8908 8.17612 19.8758 8.18039C19.738 8.21989 19.6397 8.27931 19.5704 8.33944C19.4488 8.44405 19.4149 8.54901 19.4149 8.54901L19.4146 8.54866Z" fill="white"/>
<path d="M19.5096 8.54155C19.5612 8.62588 19.6576 8.67036 19.7543 8.66324C19.792 8.66111 19.8296 8.65043 19.8647 8.63157C19.8669 8.63051 19.8695 8.62908 19.8714 8.62766C19.9904 8.55828 20.0303 8.41204 19.9599 8.29676C19.9219 8.23485 19.8598 8.19429 19.7916 8.18005C19.7777 8.18539 19.7637 8.19144 19.7494 8.19784C19.6207 8.25798 19.5341 8.33198 19.4757 8.40172C19.4723 8.4494 19.4829 8.49779 19.5096 8.54191V8.54155Z" fill="black"/>
<path d="M20.0979 8.14554C19.901 8.12775 19.6506 8.20104 19.3979 8.53123" stroke="black" stroke-width="0.0730442" stroke-linecap="round" stroke-linejoin="round"/>
<path d="M16.8287 11.398C16.9038 11.3969 16.9596 11.0804 16.9534 10.6909C16.9472 10.3015 16.8814 9.98666 16.8063 9.98773C16.7313 9.98879 16.6754 10.3054 16.6816 10.6948C16.6878 11.0842 16.7537 11.3991 16.8287 11.398Z" fill="#FF5B00"/>
<path d="M18.7906 6.0438C18.8911 6.05625 18.9913 6.07511 19.0835 6.09753C19.195 6.12493 19.3038 6.17474 19.3798 6.25693C19.4555 6.33912 19.4932 6.45725 19.4566 6.56079C19.3682 6.81057 18.7285 6.83939 18.4984 6.89383C18.3998 6.91731 18.2943 6.94471 18.2303 7.01907C18.1592 7.10162 18.1592 7.21975 18.1757 7.32507C18.1923 7.43039 18.2224 7.53784 18.1987 7.64209C18.1705 7.76769 18.0665 7.8691 17.9464 7.92887C17.8263 7.98865 17.69 8.01284 17.5556 8.03206C17.4144 8.05234 17.2593 8.0744 17.1648 8.17545C17.0887 8.25657 17.0692 8.37399 17.0865 8.48109C17.1192 8.68497 17.2254 8.96961 17.4935 8.96107C17.4171 8.96356 17.3414 8.98669 17.2646 8.981C17.184 8.97459 17.1053 8.95467 17.0311 8.92407C16.8794 8.86109 16.7838 8.74652 16.6508 8.66326C16.382 8.49532 16.0066 8.49034 15.7337 8.65188C15.7141 8.66362 15.6941 8.67607 15.6715 8.67963C15.629 8.68603 15.5872 8.65792 15.5665 8.62199C15.5458 8.58605 15.5416 8.54442 15.5379 8.5035C15.5322 8.44231 15.5273 8.37719 15.5586 8.32347C15.5691 8.30532 15.5834 8.28895 15.5928 8.27045C15.6305 8.19644 15.5864 8.11176 15.5842 8.03526C15.5819 7.96018 15.5699 7.88689 15.5605 7.81075C15.5409 7.64885 15.5409 7.4802 15.6079 7.3272C15.6422 7.24892 15.6926 7.17812 15.7465 7.11051C16.0111 6.77677 16.3662 6.50777 16.7683 6.33592C17.0172 6.22953 17.2823 6.16051 17.5503 6.11212C17.8783 6.05305 18.2126 6.02423 18.5466 6.02708C18.6245 6.02779 18.7074 6.03384 18.7902 6.04416L18.7906 6.0438Z" fill="black"/>
<path d="M18.8162 9.73423C18.8045 9.736 18.8708 10.0562 19.1487 10.0968C19.5583 10.1566 19.7183 9.78582 19.7183 9.78582C19.7183 9.78582 19.4122 9.6378 18.8162 9.73423Z" fill="#FF27E7"/>
<path d="M19.718 9.78616C19.7297 9.78332 19.6344 9.59047 19.349 9.56983C19.064 9.54955 18.7812 9.73315 18.7812 9.73315C18.7812 9.73315 19.1318 9.92777 19.718 9.78581V9.78616Z" fill="#801478"/>
<path d="M19.7848 9.76089C19.6952 9.77085 19.6068 9.78651 19.5171 9.79861C19.4381 9.80928 19.356 9.81818 19.2762 9.81391C19.1482 9.80679 19.0201 9.77441 18.8982 9.73954C18.8368 9.72211 18.7735 9.70574 18.7152 9.68048C18.7012 9.67443 18.6899 9.69186 18.7031 9.7004C18.8089 9.76694 18.9347 9.80288 19.0574 9.82921C19.1207 9.84273 19.1847 9.85376 19.2494 9.85874C19.3232 9.86443 19.397 9.85732 19.4697 9.84735C19.5781 9.83241 19.6828 9.80928 19.7871 9.77726C19.7958 9.77441 19.795 9.76018 19.7848 9.76125V9.76089Z" fill="black"/>
<path d="M16.9069 9.35954C16.7891 9.06956 16.4314 8.96068 16.1294 8.96033C16.0793 8.96033 16.0293 8.96353 15.9796 8.96851C15.9532 8.97136 15.9272 8.97491 15.9012 8.9799C15.8753 8.98488 15.8542 8.99306 15.8305 9.00302C15.8124 9.0105 15.8241 9.03327 15.8395 9.03469C15.8602 9.03647 15.8794 9.03861 15.9005 9.03718C15.9216 9.03576 15.9442 9.03398 15.9664 9.03256C16.0089 9.02971 16.0515 9.02686 16.094 9.02615C16.1772 9.02473 16.2608 9.02864 16.3429 9.04359C16.4811 9.06849 16.617 9.12044 16.7266 9.20512C16.7864 9.25138 16.844 9.30688 16.8885 9.36666C16.8945 9.37484 16.9114 9.37022 16.9069 9.35919V9.35954Z" fill="black"/>
<path d="M16.4315 9.03577C16.407 9.04787 16.392 9.071 16.3769 9.09235C16.3618 9.11369 16.3475 9.13647 16.3347 9.15995C16.3084 9.20905 16.2892 9.26171 16.285 9.31686C16.2775 9.41649 16.3204 9.52252 16.4081 9.58123C16.4326 9.59759 16.4541 9.56379 16.4379 9.54493C16.3788 9.47626 16.3404 9.39549 16.349 9.30547C16.3536 9.25958 16.3679 9.21439 16.3863 9.17205C16.3965 9.14856 16.4085 9.12579 16.4213 9.10338C16.4322 9.08416 16.4435 9.06566 16.4454 9.0436C16.4462 9.03648 16.4368 9.03293 16.4307 9.03577H16.4315Z" fill="black"/>
<path d="M18.9347 8.23591C18.7942 8.11208 18.6323 8.02349 18.4392 8.00107C18.1974 7.97296 17.9358 8.03416 17.72 8.13557C17.6688 8.15976 17.705 8.23377 17.758 8.22096C17.9787 8.16759 18.1967 8.09394 18.4282 8.10888C18.6011 8.11991 18.7588 8.1868 18.9 8.27896C18.9271 8.29639 18.9588 8.25725 18.935 8.23626L18.9347 8.23591Z" fill="black"/>
<path d="M19.5658 8.03629C19.6106 8.01672 19.66 8.00818 19.7074 7.99573C19.7503 7.9847 19.794 7.97545 19.838 7.96869C19.9175 7.95624 20.0007 7.94948 20.0779 7.93951C20.1076 7.93596 20.1332 7.91817 20.1332 7.88721C20.1332 7.85839 20.108 7.83562 20.0779 7.83491C19.9868 7.83348 19.8975 7.84771 19.8102 7.87262C19.7639 7.88579 19.7183 7.9018 19.6739 7.91994C19.6264 7.93951 19.5843 7.96905 19.541 7.99538C19.5135 8.0121 19.5372 8.04839 19.5662 8.03594L19.5658 8.03629Z" fill="black"/>
<path d="M19.4011 8.09465C19.2957 8.13166 19.2193 8.23021 19.1862 8.32877C19.1692 8.3793 19.1636 8.43267 19.1718 8.48533C19.1798 8.53443 19.2016 8.58069 19.228 8.62338C19.2829 8.71269 19.3578 8.78883 19.4173 8.87565C19.4727 8.95642 19.5122 9.05142 19.4727 9.14607C19.4508 9.19837 19.3835 9.22612 19.3292 9.23644C19.2494 9.25174 19.17 9.2311 19.0977 9.19979C19.0747 9.18983 19.0585 9.21723 19.0781 9.23146C19.1824 9.30689 19.339 9.31721 19.4497 9.24711C19.5002 9.21545 19.5292 9.17133 19.5401 9.11511C19.5499 9.06565 19.5454 9.01513 19.5288 8.96745C19.4938 8.86711 19.4185 8.78528 19.3514 8.70273C19.2863 8.62232 19.217 8.53372 19.2193 8.42769C19.2204 8.36542 19.2411 8.30565 19.2739 8.25192C19.3089 8.19463 19.3571 8.15016 19.4091 8.1071C19.4147 8.10248 19.4091 8.09216 19.4015 8.09465H19.4011Z" fill="black"/>
<path d="M17.7149 6.33483C19.1574 6.33483 20.3268 5.63725 20.3268 4.77674C20.3268 3.91624 19.1574 3.21866 17.7149 3.21866C16.2724 3.21866 15.103 3.91624 15.103 4.77674C15.103 5.63725 16.2724 6.33483 17.7149 6.33483Z" fill="black"/>
<path d="M17.7228 4.3601C18.7182 4.3601 19.5252 3.66252 19.5252 2.80201C19.5252 1.94151 18.7182 1.24393 17.7228 1.24393C16.7274 1.24393 15.9204 1.94151 15.9204 2.80201C15.9204 3.66252 16.7274 4.3601 17.7228 4.3601Z" fill="black"/>
<path d="M16.5144 15.7399L19.8157 18.7799L19.9858 21.0813L16.2617 21.2314L16.5144 15.7399Z" fill="#37353F"/>
<path d="M16.3994 15.6317L19.8163 18.7799L19.7203 20.0053" stroke="black" stroke-width="0.0402873" stroke-linecap="round" stroke-linejoin="round"/>
<path d="M19.7848 12.9941L20.798 13.7513L20.4106 14.8141L21.7939 14.8856L19.5254 18.5124" stroke="black" stroke-width="0.0402873" stroke-linecap="round" stroke-linejoin="round"/>
<path d="M14.6177 12.432L14.1467 13.5688L15.0485 14.3017L13.8926 15.0226L17.7869 17.0731" stroke="black" stroke-width="0.0402873" stroke-linecap="round" stroke-linejoin="round"/>
<path d="M14.1802 16.2423L14.9626 18.264" stroke="black" stroke-width="0.0402873" stroke-linecap="round" stroke-linejoin="round"/>
<path d="M21.5449 17.6332L22.1553 16.8625C22.3051 16.6732 22.3631 16.4327 22.3149 16.2007L22.1221 15.2735" stroke="black" stroke-width="0.0402873" stroke-linecap="round" stroke-linejoin="round"/>
<path d="M19.3969 19.2368C19.516 19.2368 19.6126 19.1455 19.6126 19.0329C19.6126 18.9203 19.516 18.829 19.3969 18.829C19.2777 18.829 19.1812 18.9203 19.1812 19.0329C19.1812 19.1455 19.2777 19.2368 19.3969 19.2368Z" fill="black"/>
<path d="M19.3969 20.2092C19.516 20.2092 19.6126 20.1179 19.6126 20.0053C19.6126 19.8927 19.516 19.8015 19.3969 19.8015C19.2777 19.8015 19.1812 19.8927 19.1812 20.0053C19.1812 20.1179 19.2777 20.2092 19.3969 20.2092Z" fill="black"/>
<path d="M17.829 19.1777C17.9482 19.1777 18.0448 19.0865 18.0448 18.9739C18.0448 18.8613 17.9482 18.77 17.829 18.77C17.7099 18.77 17.6133 18.8613 17.6133 18.9739C17.6133 19.0865 17.7099 19.1777 17.829 19.1777Z" fill="black"/>
<path d="M17.829 20.1505C17.9482 20.1505 18.0448 20.0592 18.0448 19.9466C18.0448 19.834 17.9482 19.7428 17.829 19.7428C17.7099 19.7428 17.6133 19.834 17.6133 19.9466C17.6133 20.0592 17.7099 20.1505 17.829 20.1505Z" fill="black"/>
<path d="M19.1226 28.8351L19.3974 27.3069" stroke="black" stroke-width="0.0402873" stroke-linecap="round" stroke-linejoin="round"/>
<path d="M13.5283 23.9922C13.5283 23.9922 14.9433 23.91 15.8398 23.6976C16.7362 23.4851 17.1128 23.3841 17.1128 23.3841" stroke="black" stroke-width="0.0402873" stroke-linecap="round" stroke-linejoin="round"/>
<path d="M22.6597 24.222L23.1371 24.111L24.5377 27.2916L24.0791 27.6538L22.6597 24.222Z" fill="black"/>
<path d="M13.453 24.3903L13.8928 24.5988L12.7708 27.8769L12.1729 27.8705L13.453 24.3903Z" fill="black"/>
<path d="M26.672 20.5038C26.431 20.312 26.3606 20.1637 26.3689 19.8662C26.3704 19.8075 26.2936 19.7801 26.2537 19.8249C26.0508 20.0527 25.8937 20.1192 25.579 20.1114C25.5169 20.1099 25.4879 20.1825 25.5353 20.2202C25.7763 20.412 25.8467 20.5604 25.8384 20.8578C25.8369 20.9166 25.9137 20.9439 25.9536 20.8991C26.1566 20.6714 26.3136 20.6049 26.6283 20.6127C26.6905 20.6141 26.7195 20.5415 26.672 20.5038Z" fill="white"/>
<path d="M18.8152 12.3099L17.8287 14.8034L16.4371 12.1904C16.4371 12.1904 16.0768 11.4549 15.4898 11.4727C14.9028 11.4905 14.7036 11.7687 14.7036 11.7687L15.7477 12.5376L14.7036 12.4195L15.6257 14.9568L18.8152 17.8189L19.9858 14.8547L19.7847 12.9945C19.7847 12.9945 19.8747 12.4537 20.3005 12.4675L20.7264 12.4814C20.7264 12.4814 20.139 11.4795 18.8758 12.3206" fill="#FFDDBD"/>
<path d="M16.8975 13.1041C16.8975 13.1041 16.2627 12.585 15.626 12.4476" stroke="black" stroke-width="0.0402873" stroke-linecap="round" stroke-linejoin="round"/>
<path d="M18.376 13.4211C18.376 13.4211 19.2472 12.6921 20.0436 12.5419" stroke="black" stroke-width="0.0402873" stroke-linecap="round" stroke-linejoin="round"/>
<path d="M16.7097 13.625C16.7692 13.625 16.8174 13.5794 16.8174 13.5232C16.8174 13.467 16.7692 13.4214 16.7097 13.4214C16.6503 13.4214 16.6021 13.467 16.6021 13.5232C16.6021 13.5794 16.6503 13.625 16.7097 13.625Z" fill="#FF9260"/>
<path d="M16.9617 14.0644C17.0212 14.0644 17.0694 14.0189 17.0694 13.9627C17.0694 13.9065 17.0212 13.8609 16.9617 13.8609C16.9022 13.8609 16.854 13.9065 16.854 13.9627C16.854 14.0189 16.9022 14.0644 16.9617 14.0644Z" fill="#FF9260"/>
<path d="M17.221 14.4668C17.2804 14.4668 17.3286 14.4213 17.3286 14.3651C17.3286 14.3089 17.2804 14.2633 17.221 14.2633C17.1615 14.2633 17.1133 14.3089 17.1133 14.3651C17.1133 14.4213 17.1615 14.4668 17.221 14.4668Z" fill="#FF9260"/>
<path d="M17.4729 14.9561C17.5324 14.9561 17.5806 14.9105 17.5806 14.8543C17.5806 14.7981 17.5324 14.7525 17.4729 14.7525C17.4134 14.7525 17.3652 14.7981 17.3652 14.8543C17.3652 14.9105 17.4134 14.9561 17.4729 14.9561Z" fill="#FF9260"/>
<path d="M17.7156 15.5061C17.7751 15.5061 17.8233 15.4606 17.8233 15.4044C17.8233 15.3482 17.7751 15.3026 17.7156 15.3026C17.6561 15.3026 17.6079 15.3482 17.6079 15.4044C17.6079 15.4606 17.6561 15.5061 17.7156 15.5061Z" fill="#FF9260"/>
<path d="M17.9368 16.0455C17.9963 16.0455 18.0445 16 18.0445 15.9438C18.0445 15.8876 17.9963 15.842 17.9368 15.842C17.8773 15.842 17.8291 15.8876 17.8291 15.9438C17.8291 16 17.8773 16.0455 17.9368 16.0455Z" fill="#FF9260"/>
<path d="M17.7871 14.7248L18.8154 17.8185" stroke="#FF9260" stroke-width="0.0203319" stroke-linecap="round" stroke-linejoin="round"/>
<path d="M19.2697 22.6227C19.2697 22.6227 21.1281 22.2476 21.4926 22.4561C21.7373 22.5963 22.2208 23.3841 22.3032 23.7392C22.324 23.8292 21.9889 24.7486 22.3503 24.4448C22.5612 24.2676 22.7682 23.9295 22.6978 23.651C22.6387 23.4179 22.4591 22.9628 22.4591 22.9628C22.4591 22.9628 22.9189 23.5015 22.9712 23.6968C23.0235 23.8922 23.0725 24.3668 23.161 24.5718C23.2494 24.7767 23.411 24.7917 23.4287 24.6479C23.4464 24.5042 23.4155 24.2697 23.4155 24.2697C23.4155 24.2697 23.5183 24.8803 23.7404 24.8411C23.9626 24.802 23.7543 23.8566 23.7543 23.8566C23.7543 23.8566 24.0002 24.2163 24.1324 24.2985C24.2645 24.3807 24.5439 24.4658 24.3086 24.127C24.0733 23.7883 23.1527 22.0356 23.0043 21.7826C22.856 21.5296 22.4004 20.5291 21.6797 20.4348C20.9587 20.3405 19.1895 20.5465 19.1895 20.5465L19.2704 22.6223L19.2697 22.6227Z" fill="#8E410F"/>
<path d="M22.8823 22.0214C22.8823 22.0214 23.5393 23.1037 23.6271 23.388C23.7148 23.672 23.7611 23.8883 23.7611 23.8883" stroke="black" stroke-width="0.0402873" stroke-linecap="round" stroke-linejoin="round"/>
<path d="M22.6147 22.386L23.2108 23.3756C23.2898 23.5068 23.3399 23.6524 23.3584 23.8025L23.4243 24.3487" stroke="black" stroke-width="0.0402873" stroke-linecap="round" stroke-linejoin="round"/>
<path d="M22.2593 22.6404L22.5221 23.0386" stroke="black" stroke-width="0.0402873" stroke-linecap="round" stroke-linejoin="round"/>
<path d="M21.4335 21.9698C21.3921 22.2455 21.4184 22.3967 21.4184 22.3967" stroke="black" stroke-width="0.0402873" stroke-linecap="round" stroke-linejoin="round"/>
<path d="M22.4014 24.4271C22.4774 24.3381 22.5157 24.2482 22.487 24.2264C22.4584 24.2045 22.3736 24.259 22.2976 24.3481C22.2217 24.4371 22.1834 24.527 22.212 24.5489C22.2407 24.5707 22.3255 24.5162 22.4014 24.4271Z" fill="#FFDDBD"/>
<path d="M23.3692 24.7649C23.406 24.764 23.4335 24.6707 23.4306 24.5563C23.4276 24.442 23.3954 24.35 23.3586 24.3508C23.3218 24.3517 23.2944 24.445 23.2973 24.5594C23.3002 24.6737 23.3325 24.7657 23.3692 24.7649Z" fill="#FFDDBD"/>
<path d="M24.4188 24.3812C24.4511 24.3645 24.4302 24.2696 24.372 24.1693C24.3139 24.069 24.2406 24.0012 24.2084 24.0179C24.1761 24.0346 24.197 24.1294 24.2551 24.2298C24.3133 24.3301 24.3865 24.3979 24.4188 24.3812Z" fill="#FFDDBD"/>
<path d="M23.7679 24.8674C23.8146 24.8664 23.8499 24.7628 23.8467 24.6361C23.8434 24.5094 23.8029 24.4075 23.7561 24.4086C23.7093 24.4097 23.674 24.5132 23.6773 24.64C23.6805 24.7667 23.7211 24.8685 23.7679 24.8674Z" fill="#FFDDBD"/>
<path d="M20.5235 19.9441L16.6762 20.2373C16.5 20.2508 16.3773 20.4974 16.4021 20.7874L16.875 20.7515L17.4699 27.7189C17.4884 27.9345 17.6092 28.101 17.7403 28.0911L21.339 27.8168C21.47 27.8068 21.5612 27.6239 21.5427 27.4086L20.9565 20.5401C20.9271 20.195 20.7332 19.9281 20.5235 19.9441Z" fill="#FFDDBD"/>
<mask id="mask0_1530_14063" style="mask-type:luminance" maskUnits="userSpaceOnUse" x="16" y="19" width="6" height="10">
<path d="M20.5235 19.9189L16.6762 20.2121C16.5 20.2256 16.3773 20.4721 16.4021 20.7621L16.875 20.7262L17.4699 27.6936C17.4884 27.9093 17.6092 28.0758 17.7403 28.0658L21.339 27.7915C21.47 27.7815 21.5612 27.5986 21.5427 27.3834L20.9565 20.5148C20.9271 20.1697 20.7332 19.9029 20.5235 19.9189Z" fill="white"/>
</mask>
<g mask="url(#mask0_1530_14063)">
<path d="M17.703 21.2496C17.508 21.1852 17.4281 21.1098 17.36 20.9254C17.3464 20.8892 17.2926 20.8892 17.279 20.9254C17.2109 21.1098 17.1311 21.1852 16.936 21.2496C16.8976 21.2624 16.8976 21.3133 16.936 21.3261C17.1311 21.3905 17.2109 21.4659 17.279 21.6502C17.2926 21.6865 17.3464 21.6865 17.36 21.6502C17.4281 21.4659 17.508 21.3905 17.703 21.3261C17.7414 21.3133 17.7414 21.2624 17.703 21.2496Z" fill="#FFEAD7"/>
<path d="M18.2907 20.9525V20.3807C18.2907 19.884 17.8781 19.4688 17.3528 19.4521C16.8009 19.4346 16.3475 19.852 16.3475 20.3697V20.9525C16.3475 21.0247 16.2854 21.0834 16.209 21.0834V21.2144L16.218 21.2133C16.3965 21.1966 16.5701 21.1461 16.7248 21.0603C16.9695 20.9248 17.1032 20.7419 17.2226 20.4202C17.2546 20.3341 17.3841 20.3341 17.4157 20.4202C17.5347 20.7419 17.6687 20.9251 17.9135 21.0603C18.0682 21.1461 18.2418 21.1966 18.4203 21.2133L18.4293 21.2144V21.0834C18.3529 21.0834 18.2907 21.0247 18.2907 20.9525Z" fill="#FFEAD7"/>
<path d="M19.9237 21.2496C19.7287 21.1852 19.6488 21.1098 19.5807 20.9254C19.5671 20.8892 19.5133 20.8892 19.4997 20.9254C19.4316 21.1098 19.3518 21.1852 19.1567 21.2496C19.1183 21.2624 19.1183 21.3133 19.1567 21.3261C19.3518 21.3905 19.4316 21.4659 19.4997 21.6502C19.5133 21.6865 19.5671 21.6865 19.5807 21.6502C19.6488 21.4659 19.7287 21.3905 19.9237 21.3261C19.9621 21.3133 19.9621 21.2624 19.9237 21.2496Z" fill="#FFEAD7"/>
<path d="M20.5114 20.9525V20.3807C20.5114 19.884 20.0988 19.4688 19.5735 19.4521C19.0216 19.4346 18.5682 19.852 18.5682 20.3697V20.9525C18.5682 21.0247 18.5061 21.0834 18.4297 21.0834V21.2144L18.4387 21.2133C18.6172 21.1966 18.7908 21.1461 18.9455 21.0603C19.1903 20.9248 19.3239 20.7419 19.4433 20.4202C19.4753 20.3341 19.6048 20.3341 19.6364 20.4202C19.7554 20.7419 19.8894 20.9251 20.1342 21.0603C20.2889 21.1461 20.4625 21.1966 20.641 21.2133L20.65 21.2144V21.0834C20.5736 21.0834 20.5114 21.0247 20.5114 20.9525Z" fill="#FFEAD7"/>
<path d="M22.1429 21.2496C21.9479 21.1852 21.8681 21.1098 21.7999 20.9254C21.7864 20.8892 21.7325 20.8892 21.719 20.9254C21.6508 21.1098 21.571 21.1852 21.376 21.2496C21.3376 21.2624 21.3376 21.3133 21.376 21.3261C21.571 21.3905 21.6508 21.4659 21.719 21.6502C21.7325 21.6865 21.7864 21.6865 21.7999 21.6502C21.8681 21.4659 21.9479 21.3905 22.1429 21.3261C22.1813 21.3133 22.1813 21.2624 22.1429 21.2496Z" fill="#FFEAD7"/>
<path d="M22.7307 20.9525V20.3807C22.7307 19.884 22.318 19.4688 21.7928 19.4521C21.2408 19.4346 20.7875 19.852 20.7875 20.3697V20.9525C20.7875 21.0247 20.7254 21.0834 20.6489 21.0834V21.2144L20.658 21.2133C20.8364 21.1966 21.01 21.1461 21.1648 21.0603C21.4095 20.9248 21.5432 20.7419 21.6625 20.4202C21.6945 20.3341 21.824 20.3341 21.8557 20.4202C21.9746 20.7419 22.1087 20.9251 22.3534 21.0603C22.5082 21.1461 22.6817 21.1966 22.8602 21.2133L22.8692 21.2144V21.0834C22.7928 21.0834 22.7307 21.0247 22.7307 20.9525Z" fill="#FFEAD7"/>
<path d="M21.3765 22.2519C21.5715 22.3163 21.6513 22.3917 21.7195 22.576C21.733 22.6123 21.7869 22.6123 21.8004 22.576C21.8686 22.3917 21.9484 22.3163 22.1434 22.2519C22.1818 22.2391 22.1818 22.1882 22.1434 22.1754C21.9484 22.111 21.8686 22.0356 21.8004 21.8513C21.7869 21.815 21.733 21.815 21.7195 21.8513C21.6513 22.0356 21.5715 22.111 21.3765 22.1754C21.3381 22.1882 21.3381 22.2391 21.3765 22.2519Z" fill="#FFEAD7"/>
<path d="M20.7885 22.549V23.1208C20.7885 23.6175 21.2011 24.0327 21.7264 24.0495C22.2783 24.0669 22.7317 23.6495 22.7317 23.1318V22.549C22.7317 22.4768 22.7938 22.4181 22.8702 22.4181V22.2871L22.8612 22.2882C22.6827 22.3049 22.5091 22.3555 22.3544 22.4412C22.1097 22.5768 21.976 22.7597 21.8566 23.0813C21.8246 23.1674 21.6951 23.1674 21.6635 23.0813C21.5445 22.7597 21.4105 22.5764 21.1657 22.4412C21.011 22.3555 20.8374 22.3049 20.6589 22.2882L20.6499 22.2871V22.4181C20.7263 22.4181 20.7885 22.4768 20.7885 22.549Z" fill="#FFEAD7"/>
<path d="M19.1567 22.2519C19.3518 22.3163 19.4316 22.3917 19.4997 22.576C19.5133 22.6123 19.5671 22.6123 19.5807 22.576C19.6488 22.3917 19.7287 22.3163 19.9237 22.2519C19.9621 22.2391 19.9621 22.1882 19.9237 22.1754C19.7287 22.111 19.6488 22.0356 19.5807 21.8513C19.5671 21.815 19.5133 21.815 19.4997 21.8513C19.4316 22.0356 19.3518 22.111 19.1567 22.1754C19.1183 22.1882 19.1183 22.2391 19.1567 22.2519Z" fill="#FFEAD7"/>
<path d="M18.5682 22.549V23.1208C18.5682 23.6175 18.9809 24.0327 19.5061 24.0494C20.0581 24.0669 20.5114 23.6495 20.5114 23.1318V22.549C20.5114 22.4768 20.5736 22.418 20.65 22.418V22.2871L20.641 22.2882C20.4625 22.3049 20.2889 22.3554 20.1342 22.4412C19.8894 22.5767 19.7558 22.7596 19.6364 23.0813C19.6044 23.1674 19.4749 23.1674 19.4433 23.0813C19.3243 22.7596 19.1903 22.5764 18.9455 22.4412C18.7908 22.3554 18.6172 22.3049 18.4387 22.2882L18.4297 22.2871V22.418C18.5061 22.418 18.5682 22.4768 18.5682 22.549Z" fill="#FFEAD7"/>
<path d="M16.936 22.2519C17.1311 22.3163 17.2109 22.3917 17.279 22.576C17.2926 22.6123 17.3464 22.6123 17.36 22.576C17.4281 22.3917 17.508 22.3163 17.703 22.2519C17.7414 22.2391 17.7414 22.1882 17.703 22.1754C17.508 22.111 17.4281 22.0356 17.36 21.8513C17.3464 21.815 17.2926 21.815 17.279 21.8513C17.2109 22.0356 17.1311 22.111 16.936 22.1754C16.8976 22.1882 16.8976 22.2391 16.936 22.2519Z" fill="#FFEAD7"/>
<path d="M16.3475 22.549V23.1208C16.3475 23.6175 16.7602 24.0327 17.2854 24.0494C17.8374 24.0669 18.2907 23.6495 18.2907 23.1318V22.549C18.2907 22.4768 18.3529 22.418 18.4293 22.418V22.2871L18.4203 22.2882C18.2418 22.3049 18.0682 22.3554 17.9135 22.4412C17.6687 22.5767 17.5351 22.7596 17.4157 23.0813C17.3837 23.1674 17.2542 23.1674 17.2226 23.0813C17.1036 22.7596 16.9695 22.5764 16.7248 22.4412C16.5701 22.3554 16.3965 22.3049 16.218 22.2882L16.209 22.2871V22.418C16.2854 22.418 16.3475 22.4768 16.3475 22.549Z" fill="#FFEAD7"/>
<path d="M17.703 25.5432C17.508 25.4788 17.4281 25.4033 17.36 25.219C17.3464 25.1827 17.2926 25.1827 17.279 25.219C17.2109 25.4033 17.1311 25.4788 16.936 25.5432C16.8976 25.556 16.8976 25.6069 16.936 25.6197C17.1311 25.6841 17.2109 25.7595 17.279 25.9438C17.2926 25.9801 17.3464 25.9801 17.36 25.9438C17.4281 25.7595 17.508 25.6841 17.703 25.6197C17.7414 25.6069 17.7414 25.556 17.703 25.5432Z" fill="#FFEAD7"/>
<path d="M18.2907 25.2464V24.6746C18.2907 24.1779 17.8781 23.7627 17.3528 23.7459C16.8009 23.7285 16.3475 24.1459 16.3475 24.6636V25.2464C16.3475 25.3186 16.2854 25.3773 16.209 25.3773V25.5083L16.218 25.5072C16.3965 25.4905 16.5701 25.44 16.7248 25.3542C16.9695 25.2186 17.1032 25.0358 17.2226 24.7141C17.2546 24.628 17.3841 24.628 17.4157 24.7141C17.5347 25.0358 17.6687 25.219 17.9135 25.3542C18.0682 25.44 18.2418 25.4905 18.4203 25.5072L18.4293 25.5083V25.3773C18.3529 25.3773 18.2907 25.3186 18.2907 25.2464Z" fill="#FFEAD7"/>
<path d="M19.9237 25.5432C19.7287 25.4788 19.6488 25.4033 19.5807 25.219C19.5671 25.1827 19.5133 25.1827 19.4997 25.219C19.4316 25.4033 19.3518 25.4788 19.1567 25.5432C19.1183 25.556 19.1183 25.6069 19.1567 25.6197C19.3518 25.6841 19.4316 25.7595 19.4997 25.9438C19.5133 25.9801 19.5671 25.9801 19.5807 25.9438C19.6488 25.7595 19.7287 25.6841 19.9237 25.6197C19.9621 25.6069 19.9621 25.556 19.9237 25.5432Z" fill="#FFEAD7"/>
<path d="M20.5114 25.2464V24.6746C20.5114 24.1779 20.0988 23.7627 19.5735 23.7459C19.0216 23.7285 18.5682 24.1459 18.5682 24.6636V25.2464C18.5682 25.3186 18.5061 25.3773 18.4297 25.3773V25.5083L18.4387 25.5072C18.6172 25.4905 18.7908 25.44 18.9455 25.3542C19.1903 25.2186 19.3239 25.0358 19.4433 24.7141C19.4753 24.628 19.6048 24.628 19.6364 24.7141C19.7554 25.0358 19.8894 25.219 20.1342 25.3542C20.2889 25.44 20.4625 25.4905 20.641 25.5072L20.65 25.5083V25.3773C20.5736 25.3773 20.5114 25.3186 20.5114 25.2464Z" fill="#FFEAD7"/>
<path d="M22.1429 25.5432C21.9479 25.4788 21.8681 25.4033 21.7999 25.219C21.7864 25.1827 21.7325 25.1827 21.719 25.219C21.6508 25.4033 21.571 25.4788 21.376 25.5432C21.3376 25.556 21.3376 25.6069 21.376 25.6197C21.571 25.6841 21.6508 25.7595 21.719 25.9438C21.7325 25.9801 21.7864 25.9801 21.7999 25.9438C21.8681 25.7595 21.9479 25.6841 22.1429 25.6197C22.1813 25.6069 22.1813 25.556 22.1429 25.5432Z" fill="#FFEAD7"/>
<path d="M22.7307 25.2464V24.6746C22.7307 24.1779 22.318 23.7627 21.7928 23.7459C21.2408 23.7285 20.7875 24.1459 20.7875 24.6636V25.2464C20.7875 25.3186 20.7254 25.3773 20.6489 25.3773V25.5083L20.658 25.5072C20.8364 25.4905 21.01 25.44 21.1648 25.3542C21.4095 25.2186 21.5432 25.0358 21.6625 24.7141C21.6945 24.628 21.824 24.628 21.8557 24.7141C21.9746 25.0358 22.1087 25.219 22.3534 25.3542C22.5082 25.44 22.6817 25.4905 22.8602 25.5072L22.8692 25.5083V25.3773C22.7928 25.3773 22.7307 25.3186 22.7307 25.2464Z" fill="#FFEAD7"/>
<path d="M21.3765 26.5458C21.5715 26.6102 21.6513 26.6856 21.7195 26.87C21.733 26.9062 21.7869 26.9062 21.8004 26.87C21.8686 26.6856 21.9484 26.6102 22.1434 26.5458C22.1818 26.533 22.1818 26.4821 22.1434 26.4693C21.9484 26.4049 21.8686 26.3295 21.8004 26.1452C21.7869 26.1089 21.733 26.1089 21.7195 26.1452C21.6513 26.3295 21.5715 26.4049 21.3765 26.4693C21.3381 26.4821 21.3381 26.533 21.3765 26.5458Z" fill="#FFEAD7"/>
<path d="M20.7885 26.8425V27.4143C20.7885 27.911 21.2011 28.3263 21.7264 28.343C22.2783 28.3604 22.7317 27.943 22.7317 27.4253V26.8425C22.7317 26.7703 22.7938 26.7116 22.8702 26.7116V26.5807L22.8612 26.5817C22.6827 26.5984 22.5091 26.649 22.3544 26.7347C22.1097 26.8703 21.976 27.0532 21.8566 27.3748C21.8246 27.4609 21.6951 27.4609 21.6635 27.3748C21.5445 27.0532 21.4105 26.8699 21.1657 26.7347C21.011 26.649 20.8374 26.5984 20.6589 26.5817L20.6499 26.5807V26.7116C20.7263 26.7116 20.7885 26.7703 20.7885 26.8425Z" fill="#FFEAD7"/>
<path d="M19.1567 26.5458C19.3518 26.6102 19.4316 26.6856 19.4997 26.87C19.5133 26.9062 19.5671 26.9062 19.5807 26.87C19.6488 26.6856 19.7287 26.6102 19.9237 26.5458C19.9621 26.533 19.9621 26.4821 19.9237 26.4693C19.7287 26.4049 19.6488 26.3295 19.5807 26.1452C19.5671 26.1089 19.5133 26.1089 19.4997 26.1452C19.4316 26.3295 19.3518 26.4049 19.1567 26.4693C19.1183 26.4821 19.1183 26.533 19.1567 26.5458Z" fill="#FFEAD7"/>
<path d="M18.5682 26.8425V27.4143C18.5682 27.911 18.9809 28.3263 19.5061 28.343C20.0581 28.3604 20.5114 27.943 20.5114 27.4253V26.8425C20.5114 26.7703 20.5736 26.7116 20.65 26.7116V26.5807L20.641 26.5817C20.4625 26.5984 20.2889 26.649 20.1342 26.7347C19.8894 26.8703 19.7558 27.0532 19.6364 27.3748C19.6044 27.4609 19.4749 27.4609 19.4433 27.3748C19.3243 27.0532 19.1903 26.8699 18.9455 26.7347C18.7908 26.649 18.6172 26.5984 18.4387 26.5817L18.4297 26.5807V26.7116C18.5061 26.7116 18.5682 26.7703 18.5682 26.8425Z" fill="#FFEAD7"/>
<path d="M16.936 26.5458C17.1311 26.6102 17.2109 26.6856 17.279 26.87C17.2926 26.9062 17.3464 26.9062 17.36 26.87C17.4281 26.6856 17.508 26.6102 17.703 26.5458C17.7414 26.533 17.7414 26.4821 17.703 26.4693C17.508 26.4049 17.4281 26.3295 17.36 26.1452C17.3464 26.1089 17.2926 26.1089 17.279 26.1452C17.2109 26.3295 17.1311 26.4049 16.936 26.4693C16.8976 26.4821 16.8976 26.533 16.936 26.5458Z" fill="#FFEAD7"/>
<path d="M16.3475 26.8425V27.4143C16.3475 27.911 16.7602 28.3263 17.2854 28.343C17.8374 28.3604 18.2907 27.943 18.2907 27.4253V26.8425C18.2907 26.7703 18.3529 26.7116 18.4293 26.7116V26.5807L18.4203 26.5817C18.2418 26.5984 18.0682 26.649 17.9135 26.7347C17.6687 26.8703 17.5351 27.0532 17.4157 27.3748C17.3837 27.4609 17.2542 27.4609 17.2226 27.3748C17.1036 27.0532 16.9695 26.8699 16.7248 26.7347C16.5701 26.649 16.3965 26.5984 16.218 26.5817L16.209 26.5807V26.7116C16.2854 26.7116 16.3475 26.7703 16.3475 26.8425Z" fill="#FFEAD7"/>
</g>
<path d="M12.7321 9.18911C12.4196 9.1521 12.2751 9.06386 12.1109 8.80981C12.0785 8.76 11.9983 8.77601 11.9904 8.83437C11.9512 9.12969 11.8579 9.26632 11.589 9.42145C11.5363 9.45205 11.5533 9.52784 11.615 9.53531C11.9275 9.57231 12.0721 9.66055 12.2363 9.9146C12.2687 9.96441 12.3488 9.9484 12.3568 9.89005C12.3959 9.59473 12.4893 9.4581 12.7581 9.30297C12.8108 9.27237 12.7939 9.19658 12.7321 9.18911Z" fill="#FFDDBD"/>
<path d="M32.1138 25.0429C32.1138 25.0429 31.1691 20.3875 31.11 19.8214C31.0509 19.2556 31.1601 18.5017 31.7271 18.4355C32.2938 18.3693 32.549 18.9511 32.7008 19.9573C32.8525 20.9635 33.5084 24.8564 33.5084 24.8564" fill="#A7B964"/>
<path d="M31.8428 19.0699L32.6707 25.0261" stroke="#365650" stroke-width="0.0493237" stroke-miterlimit="10" stroke-linecap="round"/>
<path d="M32.6928 26.0132L31.5007 21.309L30.0918 21.6638L31.48 26.2281" fill="#808F3C"/>
<path d="M32.0155 26.1647C32.0174 26.1412 30.8325 21.4773 30.8325 21.4773" stroke="#365650" stroke-width="0.0493237" stroke-miterlimit="10" stroke-linecap="round"/>
<path d="M32.6752 26.017C32.6771 25.9936 31.4922 21.3296 31.4922 21.3296" stroke="#496836" stroke-width="0.0399108" stroke-linejoin="round"/>
<path d="M30.091 21.6638C30.091 21.6638 29.6068 22.3996 29.4852 22.6035C29.3639 22.8073 29.2303 23.3478 29.6433 23.3887C30.0563 23.4296 30.5074 23.0916 30.9201 22.333C31.1723 21.8691 31.4999 21.309 31.4999 21.309" fill="#A7B964"/>
<path d="M30.7801 21.4901L29.8667 22.8877" stroke="#365650" stroke-width="0.0493237" stroke-miterlimit="10" stroke-linecap="round"/>
<path d="M30.6104 19.4012C31.1454 21.4215 31.5949 23.4905 31.9568 25.5922" stroke="#365650" stroke-width="0.0493237" stroke-miterlimit="10" stroke-linecap="round"/>
<path d="M31.0061 18.712C31.002 18.6123 30.9632 18.5252 30.8442 18.5405C30.7787 18.549 30.7377 18.6063 30.7087 18.6572C30.659 18.7447 30.6266 18.8404 30.6127 18.939C30.6044 18.8529 30.5957 18.7668 30.5822 18.6814C30.5694 18.602 30.5509 18.5209 30.5027 18.4551C30.3969 18.3099 30.2056 18.4398 30.1864 18.5397C30.1627 18.6625 30.2512 18.8674 30.3039 18.982C30.2644 18.9386 30.2248 18.8948 30.1857 18.8514C30.127 18.7867 30.0565 18.7166 29.9666 18.7162C29.9169 18.7162 29.8649 18.7433 29.8502 18.7881C29.8442 18.8073 29.8431 18.877 29.8453 18.8973C29.8754 19.1514 30.1315 19.2919 30.3536 19.3862C30.4285 19.4182 30.511 19.4616 30.5935 19.4709C30.6759 19.4801 30.7154 19.4026 30.7497 19.3449C30.8292 19.2104 30.9203 19.0788 30.9722 18.9315C30.9899 18.8813 31.0091 18.7924 31.0057 18.712H31.0061Z" fill="#FF926C"/>
<path d="M30.6464 19.2371C30.6193 19.2382 30.5929 19.2432 30.5669 19.2503C30.5022 19.2681 30.4419 19.3008 30.396 19.3474C30.3881 19.3553 30.3791 19.3691 30.3719 19.3805C30.3659 19.3905 30.37 19.4033 30.3809 19.4083C30.4258 19.4286 30.5364 19.4766 30.6008 19.4837C30.6833 19.493 30.7228 19.4154 30.7571 19.3577C30.7695 19.3364 30.7827 19.315 30.7955 19.2937C30.8015 19.2837 30.7974 19.2709 30.7861 19.2656C30.7432 19.245 30.6946 19.2343 30.6464 19.2364V19.2371Z" fill="#496836"/>
<path d="M34.4743 21.1183C34.1494 23.1781 33.7266 25.2521 33.2085 27.3247" stroke="#365650" stroke-width="0.0493237" stroke-miterlimit="10" stroke-linecap="round"/>
<path d="M35.1191 20.6245C35.1556 20.5309 35.1553 20.4366 35.0393 20.4074C34.9753 20.3914 34.9139 20.4295 34.8669 20.4661C34.7855 20.5291 34.7166 20.6056 34.6639 20.6917C34.691 20.6092 34.7181 20.5266 34.74 20.443C34.7603 20.3651 34.7761 20.2836 34.7584 20.205C34.7196 20.0324 34.4903 20.0833 34.432 20.1687C34.3604 20.2736 34.3589 20.4949 34.3612 20.6198C34.3424 20.5654 34.3235 20.5106 34.3047 20.4562C34.2769 20.375 34.2403 20.285 34.1571 20.2519C34.1112 20.2338 34.0521 20.2402 34.0208 20.2761C34.0073 20.2914 33.9783 20.3558 33.9723 20.375C33.897 20.6205 34.0766 20.8429 34.2433 21.0105C34.2998 21.0671 34.3582 21.1372 34.4305 21.1756C34.5028 21.214 34.5709 21.1567 34.6259 21.1158C34.7539 21.0201 34.8913 20.9315 34.999 20.8145C35.0355 20.7746 35.0894 20.6995 35.1191 20.6237V20.6245Z" fill="#FFD490"/>
<path d="M34.574 20.9795C34.5488 20.971 34.522 20.9656 34.4953 20.9628C34.4283 20.956 34.359 20.9642 34.298 20.9906C34.2875 20.9952 34.2735 21.0044 34.2626 21.0126C34.2528 21.0197 34.2517 21.0329 34.2596 21.0418C34.2927 21.077 34.3756 21.161 34.4321 21.1912C34.5044 21.2297 34.5725 21.1724 34.6275 21.1315C34.6478 21.1162 34.6681 21.1012 34.6888 21.0863C34.6986 21.0791 34.6998 21.066 34.6919 21.0571C34.6606 21.0226 34.6199 20.9952 34.5744 20.9795H34.574Z" fill="#496836"/>
<path d="M32.0044 25.3955C32.0044 25.3955 32.5097 20.8215 32.6226 20.2804C32.7356 19.7392 33.0613 19.0681 33.6072 19.1571C34.1532 19.246 34.2172 19.8537 34.0598 20.8283C33.902 21.8029 33.355 25.5922 33.355 25.5922" fill="#65732D"/>
<path d="M33.5265 19.7769L32.5269 25.5278" stroke="#365650" stroke-width="0.0493237" stroke-miterlimit="10" stroke-linecap="round"/>
<path d="M32.4849 26.0436L34.1976 21.9795L35.4096 22.4698L33.5146 26.3225" fill="#808F3C"/>
<path d="M33.0698 26.2618C33.0713 26.2405 34.7721 22.2117 34.7721 22.2117" stroke="#365650" stroke-width="0.0493237" stroke-miterlimit="10" stroke-linecap="round"/>
<path d="M35.4096 22.4696C35.4096 22.4696 35.7421 23.1873 35.8227 23.3848C35.9033 23.5822 35.9488 24.0825 35.5734 24.0679C35.198 24.0537 34.8411 23.6961 34.5757 22.9663C34.4134 22.5202 34.1973 21.979 34.1973 21.979" fill="#A7B964"/>
<path d="M34.8164 22.2298L35.4418 23.5926" stroke="#365650" stroke-width="0.0493237" stroke-miterlimit="10" stroke-linecap="round"/>
<path d="M32.7435 22.5625C32.6181 24.6415 32.3967 26.0071 32.0801 28.1156" stroke="#496836" stroke-width="0.0399108" stroke-linejoin="round"/>
<path d="M33.3385 22.0156C33.366 21.9192 33.3566 21.8253 33.238 21.8064C33.1729 21.7961 33.1153 21.8391 33.0716 21.8797C32.9967 21.9491 32.9353 22.0316 32.8912 22.1217C32.9104 22.0373 32.9293 21.9526 32.9432 21.8673C32.956 21.7879 32.9639 21.7054 32.9387 21.6289C32.8833 21.4606 32.6601 21.531 32.61 21.621C32.5486 21.7317 32.5686 21.9523 32.5829 22.0765C32.5588 22.0238 32.5351 21.9712 32.511 21.9185C32.4756 21.8402 32.4304 21.7534 32.3442 21.7278C32.2967 21.7139 32.2387 21.7249 32.2105 21.7637C32.1984 21.7804 32.1759 21.847 32.1717 21.8665C32.1205 22.1174 32.3204 22.3238 32.503 22.476C32.5648 22.5276 32.6299 22.5924 32.7052 22.6244C32.7809 22.6564 32.8434 22.5938 32.8939 22.5483C33.0121 22.4419 33.1405 22.3419 33.2365 22.2159C33.2693 22.1729 33.3156 22.0935 33.3378 22.016L33.3385 22.0156Z" fill="#FFD490"/>
<path d="M32.8296 22.4159C32.8037 22.4095 32.7765 22.4067 32.7494 22.4063C32.682 22.4052 32.6139 22.4195 32.5555 22.4511C32.5454 22.4565 32.5326 22.4671 32.5224 22.476C32.5134 22.4839 32.5134 22.4974 32.5224 22.5052C32.5589 22.5372 32.6493 22.6141 32.7084 22.639C32.7841 22.671 32.8466 22.6084 32.897 22.5629C32.9159 22.5461 32.9347 22.5294 32.9539 22.5127C32.9629 22.5049 32.9629 22.4913 32.9539 22.4832C32.9192 22.4515 32.8763 22.4277 32.8296 22.4159Z" fill="#496836"/>
<path d="M34.2545 25.3343H30.7988V28.8351H34.2545V25.3343Z" fill="#FF9260"/>
<mask id="mask1_1530_14063" style="mask-type:luminance" maskUnits="userSpaceOnUse" x="30" y="25" width="5" height="4">
<path d="M34.3227 25.378H30.7021V28.8824H34.3227V25.378Z" fill="white"/>
</mask>
<g mask="url(#mask1_1530_14063)">
<path d="M30.6885 25.4307H32.3685" stroke="black" stroke-width="0.034263" stroke-miterlimit="10" stroke-linecap="round"/>
<path d="M30.6885 25.7313H32.3685" stroke="black" stroke-width="0.034263" stroke-miterlimit="10" stroke-linecap="round"/>
<path d="M30.6885 26.0323H32.3685" stroke="black" stroke-width="0.034263" stroke-miterlimit="10" stroke-linecap="round"/>
<path d="M30.7456 27.5154V26.2284" stroke="black" stroke-width="0.034263" stroke-miterlimit="10" stroke-linecap="round"/>
<path d="M31.2261 27.5153V26.2284" stroke="black" stroke-width="0.034263" stroke-miterlimit="10" stroke-linecap="round"/>
<path d="M31.7061 27.5153V26.2284" stroke="black" stroke-width="0.034263" stroke-miterlimit="10" stroke-linecap="round"/>
<path d="M32.1855 27.5153V26.2284" stroke="black" stroke-width="0.034263" stroke-miterlimit="10" stroke-linecap="round"/>
<path d="M30.6948 27.8388H32.3748" stroke="black" stroke-width="0.034263" stroke-miterlimit="10" stroke-linecap="round"/>
<path d="M30.6948 28.1398H32.3748" stroke="black" stroke-width="0.034263" stroke-miterlimit="10" stroke-linecap="round"/>
<path d="M30.6948 28.4408H32.3748" stroke="black" stroke-width="0.034263" stroke-miterlimit="10" stroke-linecap="round"/>
<path d="M30.7524 29.9238V28.6369" stroke="black" stroke-width="0.034263" stroke-miterlimit="10" stroke-linecap="round"/>
<path d="M31.2329 29.9238V28.6369" stroke="black" stroke-width="0.034263" stroke-miterlimit="10" stroke-linecap="round"/>
<path d="M31.7129 29.9238V28.6369" stroke="black" stroke-width="0.034263" stroke-miterlimit="10" stroke-linecap="round"/>
<path d="M32.1929 29.9238V28.6369" stroke="black" stroke-width="0.034263" stroke-miterlimit="10" stroke-linecap="round"/>
<path d="M32.6797 26.5397H34.3593" stroke="black" stroke-width="0.034263" stroke-miterlimit="10" stroke-linecap="round"/>
<path d="M32.6797 26.8408H34.3593" stroke="black" stroke-width="0.034263" stroke-miterlimit="10" stroke-linecap="round"/>
<path d="M32.6797 27.1418H34.3593" stroke="black" stroke-width="0.034263" stroke-miterlimit="10" stroke-linecap="round"/>
<path d="M32.7363 28.6248V27.3378" stroke="black" stroke-width="0.034263" stroke-miterlimit="10" stroke-linecap="round"/>
<path d="M33.2163 28.6248V27.3378" stroke="black" stroke-width="0.034263" stroke-miterlimit="10" stroke-linecap="round"/>
<path d="M33.6958 28.6248V27.3378" stroke="black" stroke-width="0.034263" stroke-miterlimit="10" stroke-linecap="round"/>
<path d="M34.1758 28.6248V27.3378" stroke="black" stroke-width="0.034263" stroke-miterlimit="10" stroke-linecap="round"/>
<path d="M32.6865 28.8173H34.3662" stroke="black" stroke-width="0.034263" stroke-miterlimit="10" stroke-linecap="round"/>
<path d="M32.8003 26.2284V25.1418" stroke="black" stroke-width="0.0312509" stroke-miterlimit="10" stroke-linecap="round"/>
<path d="M33.2803 26.2284V25.1418" stroke="black" stroke-width="0.0312509" stroke-miterlimit="10" stroke-linecap="round"/>
<path d="M33.7598 26.2284V25.1418" stroke="black" stroke-width="0.0312509" stroke-miterlimit="10" stroke-linecap="round"/>
<path d="M34.2402 26.2284V25.1418" stroke="black" stroke-width="0.0312509" stroke-miterlimit="10" stroke-linecap="round"/>
</g>
<path d="M-0.135254 28.8575H35.048" stroke="black" stroke-width="0.0704086" stroke-miterlimit="10" stroke-linecap="round"/>
</g>
<defs>
<clipPath id="clip0_1530_14063">
<rect width="36" height="28.4464" fill="white" transform="translate(0 0.887665)"/>
</clipPath>
</defs>
</svg>
