<svg width="170" height="170" viewBox="0 0 170 170" fill="none" xmlns="http://www.w3.org/2000/svg">
<path d="M18.9727 104.312C18.9727 92.718 28.2546 83.2999 39.6449 83.2999C51.0344 83.2999 60.3172 92.718 60.3172 104.312C60.3172 116.144 51.0685 130.458 39.6449 130.458C28.1865 130.458 18.9727 116.144 18.9727 104.312ZM75.5143 158.61C75.7525 160.174 75.8886 161.704 75.8886 163.2C75.8886 165.07 74.3588 166.6 72.4886 166.6H6.80039C4.93107 166.6 3.40039 165.07 3.40039 163.2C3.40039 161.704 3.50249 160.14 3.74073 158.61C5.91721 143.854 18.8365 132.736 33.797 132.736H45.4588C60.4185 132.736 73.3386 143.854 75.5143 158.61ZM109.684 104.312C109.684 92.718 118.967 83.2999 130.357 83.2999C141.747 83.2999 151.029 92.718 151.029 104.312C151.029 116.144 141.814 130.458 130.357 130.458C118.899 130.458 109.684 116.144 109.684 104.312ZM166.6 163.2C166.6 165.07 165.071 166.6 163.2 166.6H97.513C95.6428 166.6 94.113 165.07 94.113 163.2C94.113 161.704 94.2491 160.14 94.4865 158.61C96.629 143.854 109.549 132.736 124.543 132.736H136.171C151.131 132.736 164.05 143.854 166.227 158.61C166.464 160.14 166.6 161.704 166.6 163.2Z" fill="#8877D8"/>
<path d="M95.4384 11.3901V16.5921H72.999C64.8725 16.5921 58.2426 23.222 58.2426 31.3821V54.672L47.2607 63.5124C46.2059 64.3911 44.725 64.4551 43.6565 63.9199C42.5002 63.3762 41.7523 62.1859 41.7523 60.8603V50.2859H40.1204C35.7342 50.2859 32.1641 46.6821 32.1641 42.2964V11.3901C32.1641 6.96991 35.7342 3.40015 40.1204 3.40015H87.4821C91.8683 3.40015 95.4384 6.96991 95.4384 11.3901Z" fill="#8877D8"/>
<path d="M120.327 23.392H72.9993C68.6131 23.392 65.043 26.9621 65.043 31.3819V62.2878C65.043 66.6739 68.6131 70.2781 72.9993 70.2781H96.7993L113.187 83.5038C114.2 84.3481 115.691 84.4537 116.791 83.9462C117.981 83.3681 118.729 82.1781 118.729 80.8521V70.2781H120.327C124.747 70.2781 128.317 66.6739 128.317 62.2878V31.3819C128.317 26.9621 124.747 23.392 120.327 23.392ZM84.7299 50.3903H80.2475C78.3682 50.3903 76.8475 48.8679 76.8475 46.9903C76.8475 45.1126 78.3682 43.5903 80.2475 43.5903H84.7299C86.6092 43.5903 88.1299 45.1126 88.1299 46.9903C88.1299 48.8679 86.6092 50.3903 84.7299 50.3903ZM98.9176 50.3903H94.4352C92.5559 50.3903 91.0352 48.8679 91.0352 46.9903C91.0352 45.1126 92.5559 43.5903 94.4352 43.5903H98.9176C100.797 43.5903 102.318 45.1126 102.318 46.9903C102.318 48.8679 100.797 50.3903 98.9176 50.3903ZM113.102 50.3903H108.62C106.74 50.3903 105.22 48.8679 105.22 46.9903C105.22 45.1126 106.74 43.5903 108.62 43.5903H113.102C114.981 43.5903 116.502 45.1126 116.502 46.9903C116.502 48.8679 114.981 50.3903 113.102 50.3903Z" fill="#8877D8"/>
</svg>
