<svg width="176" height="176" viewBox="0 0 176 176" fill="none" xmlns="http://www.w3.org/2000/svg">
<g clip-path="url(#clip0_498_17971)">
<path d="M42.4594 95.3972C32.3394 78.2647 33.3294 63.4972 39.3519 53.5697C28.9294 43.6147 16.9394 44.5222 9.40436 50.1322C-0.138138 57.2272 -4.67564 73.0672 6.76436 92.4272C6.87436 92.5922 19.2769 112.392 47.4369 130.02C53.0194 126.5 58.3269 122.732 63.3044 118.69C49.2519 106.26 42.8444 95.9747 42.4594 95.3972Z" fill="#8877D8"/>
<path d="M128.671 92.4002C140.771 71.9677 135.024 55.6327 124.546 49.1427C115.444 43.4227 100.814 44.6052 90.3636 60.5552C89.3186 62.1777 86.6511 62.1777 85.6061 60.5552C78.7861 50.1052 70.1511 46.0077 62.4786 46.0077C58.4086 46.0077 54.5861 47.1352 51.4236 49.1427C40.9461 55.6327 35.2261 71.9677 47.3261 92.4552C47.4086 92.5927 59.7836 112.42 87.9711 129.993C116.186 112.42 128.561 92.6202 128.671 92.4002Z" fill="#8877D8"/>
<path d="M166.568 50.1327C159.005 44.5227 147.043 43.6152 136.648 53.5977C142.67 63.4977 143.633 78.2652 133.54 95.3427C133.155 96.0027 126.72 106.26 112.668 118.718C117.645 122.76 122.953 126.555 128.48 130.048C156.778 112.393 169.07 92.6202 169.18 92.4277C180.648 73.0677 176.138 57.2277 166.568 50.1327Z" fill="#8877D8"/>
</g>
<defs>
<clipPath id="clip0_498_17971">
<rect width="176" height="176" fill="white"/>
</clipPath>
</defs>
</svg>
