<svg width="164" height="170" viewBox="0 0 164 170" fill="none" xmlns="http://www.w3.org/2000/svg">
<path d="M156.235 98.3383C151.738 96.8774 146.978 98.7338 144.509 102.517L131.234 98.2039C132.369 93.9791 133.031 89.5624 133.031 84.984C133.031 80.4163 132.371 76.0092 131.24 71.7934L144.497 67.486C146.993 71.3157 151.755 73.1169 156.233 71.661C161.612 69.9128 164.571 64.1421 162.818 58.74C161.07 53.364 155.273 50.409 149.897 52.1568C145.399 53.619 142.64 57.9175 142.867 62.4305L129.601 66.7409C126.36 58.3163 120.981 50.9525 114.083 45.3588L122.263 34.1003C126.733 35.8195 131.548 34.246 134.216 30.5744C137.534 26.0063 136.549 19.5978 131.947 16.2516C127.361 12.923 120.96 13.9357 117.626 18.5207C114.997 22.1405 114.905 27.1738 117.975 30.9649L109.78 42.2433C102.477 37.4827 93.8876 34.5774 84.6548 34.1013V20.137C89.0167 18.9586 92.253 15.0065 92.253 10.2773C92.253 4.62385 87.6524 0.0235596 81.9992 0.0235596C76.346 0.0235596 71.7454 4.62419 71.7454 10.2773C71.7454 15.0068 74.9817 18.9586 79.3436 20.137V34.1032C70.1122 34.5844 61.5238 37.4903 54.2218 42.25L46.0233 30.9659C49.0919 27.1774 49.0033 22.1438 46.3726 18.5214C43.046 13.9466 36.6461 12.913 32.0511 16.2523C27.4764 19.5789 26.4454 25.9801 29.782 30.5751C32.4671 34.2699 37.2939 35.8092 41.7351 34.1013L49.9193 45.3657C43.0204 50.9585 37.6418 58.3199 34.3995 66.7413L21.1316 62.4302C21.3574 57.9179 18.5995 53.6197 14.1018 52.1578C8.72855 50.41 2.92863 53.365 1.18082 58.741C-0.571976 64.1421 2.38543 69.9135 7.765 71.662C12.2305 73.1136 16.9995 71.3276 19.5023 67.486L32.7596 71.7934C31.6274 76.0096 30.967 80.4166 30.967 84.9847C30.967 89.5634 31.6294 93.9804 32.7653 98.2052L19.4907 102.519C17.0217 98.7345 12.2634 96.8777 7.76367 98.339C2.38642 100.087 -0.566 105.883 1.18048 111.26C2.92531 116.628 8.70996 119.589 14.1015 117.843C18.5992 116.381 21.3574 112.083 21.1312 107.571L34.4059 103.257C37.6495 111.678 43.0267 119.038 49.9223 124.63L41.7252 135.913C37.182 134.169 32.4203 135.795 29.7817 139.425C26.4643 143.993 27.4491 150.402 32.0508 153.748C36.6633 157.098 43.0596 156.034 46.3723 151.479C48.9963 147.867 49.0982 142.831 46.023 139.034L54.2241 127.747C61.5258 132.508 70.1128 135.416 79.3433 135.897V149.863C74.9814 151.042 71.7451 154.994 71.7451 159.723C71.7451 165.376 76.3457 169.977 81.9989 169.977C87.652 169.977 92.2527 165.376 92.2527 159.723C92.2527 154.993 89.0164 151.042 84.6545 149.863V135.898C93.8866 135.422 102.475 132.516 109.778 127.753L117.974 139.035C114.902 142.829 114.999 147.865 117.626 151.479C120.938 156.034 127.334 157.098 131.947 153.748C136.522 150.421 137.553 144.02 134.216 139.425C131.58 135.797 126.819 134.168 122.272 135.913L114.079 124.636C120.974 119.043 126.351 111.68 129.594 103.257L142.867 107.569C142.64 112.082 145.398 116.381 149.896 117.843C155.221 119.574 161.054 116.686 162.817 111.26C164.564 105.882 161.612 100.086 156.235 98.3383ZM151.538 57.209C154.137 56.3636 156.924 57.791 157.766 60.3819C158.608 62.9707 157.197 65.7654 154.592 66.6098C152.001 67.4551 149.207 66.0287 148.365 63.4369C147.523 60.845 148.946 58.052 151.538 57.209ZM121.923 21.6438C123.523 19.4384 126.61 18.9407 128.825 20.5494C131.03 22.1495 131.528 25.2383 129.919 27.4527C128.321 29.6547 125.236 30.1567 123.016 28.5457C120.81 26.9447 120.315 23.8524 121.923 21.6438ZM34.0798 27.4527C32.4721 25.24 32.9675 22.1508 35.1742 20.5494C37.3878 18.9414 40.4751 19.4374 42.0761 21.6438C43.6164 23.7601 43.284 26.8019 41.0203 28.4664C38.9892 29.9598 35.8924 29.9505 34.0798 27.4527ZM9.40722 66.6098C6.80742 65.7674 5.38898 62.9757 6.233 60.3819C7.08101 57.7728 9.888 56.3713 12.4609 57.209C15.4914 58.1944 16.2846 60.9842 15.5717 63.317C14.8396 65.7116 12.5213 67.6245 9.40722 66.6098ZM12.4609 112.791C9.86908 113.635 7.07736 112.21 6.233 109.618C5.39031 107.026 6.81406 104.233 9.4059 103.39C12.4769 102.389 14.7738 104.242 15.5369 106.592C16.2999 108.944 15.5282 111.795 12.4609 112.791ZM42.0761 148.356C40.4787 150.557 37.3935 151.063 35.1742 149.451C32.9692 147.851 32.4708 144.762 34.0798 142.547C35.9624 139.953 38.8986 140.118 40.8957 141.575C42.8926 143.032 43.9504 145.781 42.0761 148.356ZM129.919 142.547C131.527 144.76 131.032 147.849 128.825 149.451C126.596 151.068 123.515 150.55 121.923 148.356C120.318 146.152 120.805 143.059 123.016 141.454C125.224 139.85 128.315 140.336 129.919 142.547ZM77.0566 10.2773C77.0566 7.5517 79.2739 5.3344 81.9995 5.3344C84.7252 5.3344 86.9425 7.5517 86.9425 10.2773C86.9425 13.4841 84.4712 15.1107 81.9999 15.1223C79.5282 15.134 77.0566 13.5306 77.0566 10.2773ZM86.9422 159.723C86.9422 162.448 84.7249 164.666 81.9992 164.666C79.2736 164.666 77.0563 162.448 77.0563 159.723C77.0563 156.998 79.2736 154.781 81.9992 154.781C84.7249 154.781 86.9422 156.998 86.9422 159.723ZM82.0152 130.721C56.7954 130.721 36.2788 110.204 36.2788 84.9844C36.2788 59.7829 56.7957 39.2793 82.0152 39.2793C107.217 39.2793 127.72 59.7829 127.72 84.9844C127.72 110.204 107.217 130.721 82.0152 130.721ZM157.766 109.618C156.923 112.209 154.136 113.634 151.538 112.791C148.946 111.95 147.523 109.155 148.365 106.563C149.213 103.954 152.02 102.552 154.593 103.39C157.185 104.233 158.609 107.026 157.766 109.618Z" fill="#8877D8"/>
</svg>
