<svg width="199" height="198" viewBox="0 0 199 198" fill="none" xmlns="http://www.w3.org/2000/svg">
<g clip-path="url(#clip0_498_17961)">
<path fill-rule="evenodd" clip-rule="evenodd" d="M80.5316 136.283C80.5316 136.376 80.5341 141.35 80.5391 143.993H118.453C118.456 141.382 118.457 136.358 118.457 136.283C118.457 106.086 137.965 116.853 137.965 87.0232C137.965 65.7763 120.741 48.5522 99.4944 48.5522C78.2475 48.5522 61.0234 65.7763 61.0234 87.0232C61.0234 116.853 80.5316 106.086 80.5316 136.283ZM124.554 82.6937C124.554 83.9178 125.546 84.9102 126.77 84.9102C127.994 84.9102 128.987 83.9178 128.987 82.6937C128.987 75.5328 126.084 69.0495 121.391 64.3566C116.698 59.6637 110.215 56.7609 103.054 56.7609C101.83 56.7609 100.837 57.7532 100.837 58.9774C100.837 60.2016 101.83 61.1939 103.054 61.1939C108.991 61.1939 114.366 63.6004 118.257 67.4909C122.147 71.3815 124.554 76.7566 124.554 82.6937Z" fill="#8877D8"/>
<path d="M82.1104 146.21C80.8862 146.21 79.8938 147.202 79.8938 148.426C79.8938 149.65 80.8862 150.643 82.1104 150.643H116.444C117.668 150.643 118.66 149.65 118.66 148.426C118.66 147.202 117.668 146.21 116.444 146.21H82.1104ZM39.8436 82.8941C38.6194 82.8941 37.627 83.8866 37.627 85.1106C37.627 86.3348 38.6194 87.3273 39.8436 87.3273H49.7317C50.9559 87.3273 51.9482 86.3348 51.9482 85.1106C51.9482 83.8866 50.9559 82.8941 49.7317 82.8941H39.8436ZM49.6969 53.5732C48.6401 52.9611 47.2872 53.3216 46.6752 54.3784C46.0631 55.4353 46.4236 56.7882 47.4804 57.4002L56.0436 62.3443C57.1004 62.9563 58.4534 62.5958 59.0655 61.539C59.6775 60.4823 59.3171 59.1293 58.2602 58.5172L49.6969 53.5732ZM72.8873 33.0957C72.2753 32.0388 70.9223 31.6783 69.8655 32.2903C68.8087 32.9025 68.4482 34.2554 69.0602 35.3122L74.0043 43.8755C74.6163 44.9322 75.9693 45.2927 77.0261 44.6807C78.0828 44.0687 78.4434 42.7157 77.8313 41.6589L72.8873 33.0957ZM103.218 26.9653C103.218 25.7413 102.225 24.7488 101.001 24.7488C99.7772 24.7488 98.7848 25.7413 98.7848 26.9653V36.8534C98.7848 38.0775 99.7772 39.07 101.001 39.07C102.225 39.07 103.218 38.0775 103.218 36.8534V26.9653ZM132.539 36.8187C133.151 35.762 132.79 34.409 131.734 33.7969C130.677 33.1848 129.324 33.5453 128.712 34.6022L123.768 43.1654C123.156 44.2221 123.516 45.5751 124.573 46.1871C125.63 46.7991 126.983 46.4386 127.595 45.3819L132.539 36.8187ZM153.016 60.0088C154.073 59.3967 154.433 58.0437 153.821 56.987C153.209 55.9302 151.856 55.5697 150.799 56.1817L142.236 61.1259C141.179 61.7379 140.819 63.0908 141.431 64.1477C142.043 65.2045 143.396 65.5649 144.452 64.9529L153.016 60.0088ZM159.146 90.3393C160.371 90.3393 161.363 89.3468 161.363 88.1228C161.363 86.8987 160.371 85.9062 159.146 85.9062H149.258C148.034 85.9062 147.042 86.8987 147.042 88.1228C147.042 89.3468 148.034 90.3393 149.258 90.3393H159.146ZM82.1104 157.292C80.8862 157.292 79.8938 156.3 79.8938 155.076C79.8938 153.852 80.8862 152.859 82.1104 152.859H116.444C117.668 152.859 118.66 153.852 118.66 155.076C118.66 156.3 117.668 157.292 116.444 157.292H82.1104ZM82.1104 159.509C80.8862 159.509 79.8938 160.502 79.8938 161.726C79.8938 162.95 80.8862 163.942 82.1104 163.942H116.444C117.668 163.942 118.66 162.95 118.66 161.726C118.66 160.502 117.668 159.509 116.444 159.509H82.1104Z" fill="#8877D8"/>
<path fill-rule="evenodd" clip-rule="evenodd" d="M109.185 166.159H89.3672C90.0438 170.161 94.2218 173.242 99.2759 173.242C104.33 173.242 108.508 170.161 109.185 166.159Z" fill="#8877D8"/>
</g>
<defs>
<clipPath id="clip0_498_17961">
<rect width="198" height="198" fill="white" transform="translate(0.5)"/>
</clipPath>
</defs>
</svg>
