<svg width="199" height="198" viewBox="0 0 199 198" fill="none" xmlns="http://www.w3.org/2000/svg">
<path d="M91.3212 180.953L50.824 86.625H11.1621L91.3212 180.953Z" fill="#8877D8"/>
<path d="M139.862 80.4375L110.997 37.125H87.6704L58.8057 80.4375H139.862Z" fill="#8877D8"/>
<path d="M141.1 86.625H57.5684L99.334 183.954L141.1 86.625Z" fill="#8877D8"/>
<path d="M147.844 86.625L107.347 180.953L187.506 86.625H147.844Z" fill="#8877D8"/>
<path d="M51.3811 80.4375L80.2458 37.125H45.7814C45.309 37.1261 44.843 37.2355 44.4194 37.4446C43.9957 37.6538 43.6256 37.9572 43.3374 38.3316L11.2861 80.4375H51.3811ZM147.287 80.4375H187.506L155.331 38.3316C155.043 37.9572 154.673 37.6538 154.249 37.4446C153.825 37.2355 153.36 37.1261 152.887 37.125H118.423L147.287 80.4375Z" fill="#8877D8"/>
</svg>
