<svg width="1280" height="1495" viewBox="0 0 1280 495" fill="none" xmlns="http://www.w3.org/2000/svg">
<g clip-path="url(#clip0_1333_12715)">
<rect width="1280" height="495" rx="32" fill="#8877D8"/>
<path d="M1196.23 412.627C1208.99 417.091 1214.21 422.309 1218.68 435.073C1219.56 437.588 1223.09 437.588 1223.97 435.073C1228.43 422.309 1233.65 417.091 1246.42 412.627C1248.93 411.746 1248.93 408.213 1246.42 407.333C1233.65 402.869 1228.43 397.65 1223.97 384.886C1223.09 382.371 1219.56 382.371 1218.68 384.886C1214.21 397.65 1208.99 402.869 1196.23 407.333C1193.71 408.213 1193.71 411.746 1196.23 412.627Z" fill="#8FF1EC"/>
<path d="M1157.72 433.2V472.811C1157.72 507.216 1184.74 535.988 1219.13 537.145C1255.26 538.364 1284.93 509.442 1284.93 473.578V433.2C1284.93 428.195 1288.99 424.133 1294 424.133V415.066L1293.41 415.129C1281.73 416.286 1270.36 419.795 1260.24 425.717C1244.22 435.098 1235.45 447.787 1227.65 470.069C1225.57 476.03 1217.09 476.03 1215 470.069C1207.21 447.787 1198.44 435.098 1182.42 425.717C1172.3 419.782 1160.93 416.274 1149.25 415.129L1148.66 415.066V424.133C1153.66 424.133 1157.72 428.195 1157.72 433.2Z" fill="#8FF1EC"/>
<path d="M1050.89 412.627C1063.65 417.091 1068.87 422.309 1073.33 435.073C1074.21 437.588 1077.75 437.588 1078.63 435.073C1083.09 422.309 1088.31 417.091 1101.07 412.627C1103.59 411.746 1103.59 408.213 1101.07 407.333C1088.31 402.869 1083.09 397.65 1078.63 384.886C1077.75 382.371 1074.21 382.371 1073.33 384.886C1068.87 397.65 1063.65 402.869 1050.89 407.333C1048.37 408.213 1048.37 411.746 1050.89 412.627Z" fill="#8FF1EC"/>
<path d="M1012.38 433.2V472.811C1012.38 507.216 1039.39 535.988 1073.79 537.145C1109.91 538.364 1139.59 509.442 1139.59 473.578V433.2C1139.59 428.195 1143.65 424.133 1148.66 424.133V415.066L1148.07 415.129C1136.39 416.286 1125.02 419.795 1114.89 425.717C1098.87 435.098 1090.11 447.787 1082.31 470.069C1080.23 476.03 1071.75 476.03 1069.66 470.069C1061.87 447.787 1053.1 435.098 1037.08 425.717C1026.96 419.782 1015.59 416.274 1003.91 415.129L1003.32 415.066V424.133C1008.32 424.133 1012.38 428.195 1012.38 433.2Z" fill="#8FF1EC"/>
<path d="M905.558 412.627C918.321 417.091 923.54 422.309 928.004 435.073C928.884 437.588 932.418 437.588 933.298 435.073C937.762 422.309 942.981 417.091 955.745 412.627C958.26 411.746 958.26 408.213 955.745 407.333C942.981 402.869 937.762 397.65 933.298 384.886C932.418 382.371 928.884 382.371 928.004 384.886C923.54 397.65 918.321 402.869 905.558 407.333C903.043 408.213 903.043 411.746 905.558 412.627Z" fill="#8FF1EC"/>
<path d="M867.052 433.2V472.811C867.052 507.216 894.064 535.988 928.456 537.145C964.584 538.364 994.261 509.442 994.261 473.578V433.2C994.261 428.195 998.323 424.133 1003.33 424.133V415.066L1002.74 415.129C991.055 416.286 979.687 419.795 969.564 425.717C953.543 435.098 944.779 447.787 936.982 470.069C934.895 476.03 926.419 476.03 924.332 470.069C916.535 447.787 907.77 435.098 891.75 425.717C881.627 419.782 870.259 416.274 858.577 415.129L857.986 415.066V424.133C862.991 424.133 867.052 428.195 867.052 433.2Z" fill="#8FF1EC"/>
<path d="M760.228 412.627C772.991 417.091 778.21 422.309 782.674 435.073C783.554 437.588 787.088 437.588 787.968 435.073C792.432 422.309 797.651 417.091 810.414 412.627C812.929 411.746 812.929 408.213 810.414 407.333C797.651 402.869 792.432 397.65 787.968 384.886C787.088 382.371 783.554 382.371 782.674 384.886C778.21 397.65 772.991 402.869 760.228 407.333C757.713 408.213 757.713 411.746 760.228 412.627Z" fill="#8FF1EC"/>
<path d="M721.723 433.2V472.811C721.723 507.216 748.734 535.988 783.127 537.145C819.255 538.364 848.932 509.442 848.932 473.578V433.2C848.932 428.195 852.993 424.133 857.998 424.133V415.066L857.407 415.129C845.725 416.286 834.357 419.795 824.234 425.717C808.214 435.098 799.449 447.787 791.652 470.069C789.565 476.03 781.089 476.03 779.002 470.069C771.205 447.787 762.441 435.098 746.42 425.717C736.297 419.782 724.929 416.274 713.247 415.129L712.656 415.066V424.133C717.661 424.133 721.723 428.195 721.723 433.2Z" fill="#8FF1EC"/>
<path d="M614.899 412.627C627.663 417.091 632.881 422.309 637.345 435.073C638.226 437.588 641.759 437.588 642.639 435.073C647.104 422.309 652.322 417.091 665.086 412.627C667.601 411.746 667.601 408.213 665.086 407.333C652.322 402.869 647.104 397.65 642.639 384.886C641.759 382.371 638.226 382.371 637.345 384.886C632.881 397.65 627.663 402.869 614.899 407.333C612.384 408.213 612.384 411.746 614.899 412.627Z" fill="#8FF1EC"/>
<path d="M576.395 433.2V472.811C576.395 507.216 603.406 535.988 637.799 537.145C673.927 538.365 703.604 509.442 703.604 473.578V433.2C703.604 428.195 707.666 424.133 712.671 424.133V415.067L712.08 415.13C700.397 416.286 689.03 419.795 678.907 425.718C662.886 435.099 654.121 447.787 646.325 470.07C644.237 476.03 635.762 476.03 633.674 470.07C625.878 447.787 617.113 435.099 601.093 425.718C590.97 419.782 579.602 416.274 567.92 415.13L567.329 415.067V424.133C572.333 424.133 576.395 428.195 576.395 433.2Z" fill="#8FF1EC"/>
<path d="M469.57 412.627C482.334 417.091 487.553 422.309 492.017 435.073C492.897 437.588 496.431 437.588 497.311 435.073C501.775 422.309 506.994 417.091 519.757 412.627C522.272 411.746 522.272 408.213 519.757 407.333C506.994 402.869 501.775 397.65 497.311 384.886C496.431 382.371 492.897 382.371 492.017 384.886C487.553 397.65 482.334 402.869 469.57 407.333C467.055 408.213 467.055 411.746 469.57 412.627Z" fill="#8FF1EC"/>
<path d="M431.066 433.2V472.811C431.066 507.216 458.077 535.988 492.469 537.145C528.597 538.364 558.274 509.442 558.274 473.578V433.2C558.274 428.195 562.336 424.133 567.341 424.133V415.066L566.75 415.129C555.068 416.286 543.7 419.795 533.577 425.717C517.557 435.098 508.792 447.787 500.995 470.069C498.908 476.03 490.432 476.03 488.345 470.069C480.548 447.787 471.783 435.098 455.763 425.717C445.64 419.782 434.272 416.274 422.59 415.129L421.999 415.066V424.133C427.004 424.133 431.066 428.195 431.066 433.2Z" fill="#8FF1EC"/>
<path d="M324.241 412.627C337.004 417.091 342.223 422.309 346.687 435.073C347.567 437.588 351.101 437.588 351.981 435.073C356.445 422.309 361.664 417.091 374.428 412.627C376.943 411.746 376.943 408.213 374.428 407.333C361.664 402.869 356.445 397.65 351.981 384.886C351.101 382.371 347.567 382.371 346.687 384.886C342.223 397.65 337.004 402.869 324.241 407.333C321.726 408.213 321.726 411.746 324.241 412.627Z" fill="#8FF1EC"/>
<path d="M285.736 433.2V472.811C285.736 507.216 312.747 535.988 347.14 537.145C383.268 538.364 412.945 509.442 412.945 473.578V433.2C412.945 428.195 417.007 424.133 422.011 424.133V415.066L421.42 415.129C409.738 416.286 398.37 419.795 388.247 425.717C372.227 435.098 363.462 447.787 355.666 470.069C353.578 476.03 345.103 476.03 343.015 470.069C335.219 447.787 326.454 435.098 310.433 425.717C300.31 419.782 288.943 416.274 277.26 415.129L276.669 415.066V424.133C281.674 424.133 285.736 428.195 285.736 433.2Z" fill="#8FF1EC"/>
<path d="M178.911 412.627C191.675 417.091 196.893 422.309 201.358 435.073C202.238 437.588 205.771 437.588 206.652 435.073C211.116 422.309 216.334 417.091 229.098 412.627C231.613 411.746 231.613 408.213 229.098 407.333C216.334 402.869 211.116 397.65 206.652 384.886C205.771 382.371 202.238 382.371 201.358 384.886C196.893 397.65 191.675 402.869 178.911 407.333C176.396 408.213 176.396 411.746 178.911 412.627Z" fill="#8FF1EC"/>
<path d="M140.406 433.2V472.811C140.406 507.216 167.417 535.988 201.81 537.145C237.938 538.364 267.615 509.442 267.615 473.578V433.2C267.615 428.195 271.676 424.133 276.681 424.133V415.066L276.09 415.129C264.408 416.286 253.04 419.795 242.917 425.717C226.897 435.098 218.132 447.787 210.336 470.069C208.248 476.03 199.773 476.03 197.685 470.069C189.889 447.787 181.124 435.098 165.103 425.717C154.98 419.782 143.613 416.274 131.93 415.129L131.339 415.066V424.133C136.344 424.133 140.406 428.195 140.406 433.2Z" fill="#8FF1EC"/>
<path d="M33.5811 412.627C46.3447 417.091 51.5633 422.309 56.0275 435.073C56.9077 437.588 60.4413 437.588 61.3215 435.073C65.7857 422.309 71.0043 417.091 83.7679 412.627C86.2829 411.746 86.2829 408.213 83.7679 407.333C71.0043 402.869 65.7857 397.65 61.3215 384.886C60.4413 382.371 56.9077 382.371 56.0275 384.886C51.5633 397.65 46.3447 402.869 33.5811 407.333C31.0661 408.213 31.0661 411.746 33.5811 412.627Z" fill="#8FF1EC"/>
<path d="M-4.92365 433.2V472.811C-4.92365 507.216 22.0875 535.988 56.4801 537.145C92.6081 538.364 122.285 509.442 122.285 473.578V433.2C122.285 428.195 126.347 424.133 131.352 424.133V415.066L130.761 415.129C119.079 416.286 107.711 419.795 97.5879 425.717C81.5673 435.098 72.8025 447.787 65.006 470.069C62.9185 476.03 54.443 476.03 52.3555 470.069C44.559 447.787 35.7942 435.098 19.7737 425.717C9.65079 419.782 -1.71702 416.274 -13.3992 415.129L-13.9902 415.066V424.133C-8.98538 424.133 -4.92365 428.195 -4.92365 433.2Z" fill="#8FF1EC"/>
<path d="M297.563 173V141.8H312.203C317.195 141.8 320.747 145.064 320.747 149.672C320.747 152.984 318.731 155.768 315.467 156.728C319.403 157.592 321.947 160.616 321.947 164.552C321.947 169.496 318.299 173 313.211 173H297.563ZM302.891 168.056H311.723C314.459 168.056 316.475 166.232 316.475 163.64C316.475 161.096 314.507 159.224 311.771 159.224H302.891V168.056ZM302.891 154.904H310.907C313.499 154.904 315.419 153.176 315.419 150.776C315.419 148.376 313.547 146.648 310.955 146.648H302.891V154.904ZM336.674 173.576C329.618 173.576 324.674 168.344 324.674 161C324.674 153.656 329.522 148.424 336.338 148.424C343.97 148.424 348.386 154.952 347.714 162.584H330.05C330.674 166.232 333.266 168.68 336.722 168.68C339.458 168.68 341.666 167.144 342.242 164.888L347.378 166.712C346.13 170.792 341.858 173.576 336.674 173.576ZM330.098 158.84H342.434C341.954 155.48 339.458 153.224 336.338 153.224C333.17 153.224 330.77 155.48 330.098 158.84ZM362.359 173.576C355.447 173.576 350.551 168.344 350.551 161.048C350.551 153.656 355.399 148.424 362.263 148.424C367.831 148.424 372.295 151.976 373.015 156.968L368.023 158.504C367.543 155.384 365.191 153.224 362.215 153.224C358.471 153.224 355.879 156.488 355.879 160.952C355.879 165.464 358.567 168.632 362.359 168.632C365.479 168.632 367.879 166.472 368.215 163.112L373.399 164.744C372.535 170.072 367.975 173.576 362.359 173.576ZM388.055 173.576C380.999 173.576 376.007 168.344 376.007 161C376.007 153.656 380.999 148.424 388.055 148.424C395.111 148.424 400.151 153.656 400.151 161C400.151 168.344 395.111 173.576 388.055 173.576ZM388.055 168.632C392.039 168.632 394.919 165.464 394.919 161C394.919 156.44 392.039 153.224 388.055 153.224C384.071 153.224 381.239 156.44 381.239 161C381.239 165.464 384.071 168.632 388.055 168.632ZM404.164 173V149H408.148L409.012 152.888C410.116 150.248 412.852 148.424 416.068 148.424C419.332 148.424 422.212 150.296 423.46 153.032C424.66 150.296 427.588 148.424 430.948 148.424C435.892 148.424 439.444 152.456 439.444 158.072V173H434.404V158.744C434.404 155.672 432.436 153.416 429.7 153.416C426.628 153.416 424.42 156.008 424.42 159.56V173H419.476V158.84C419.476 155.672 417.46 153.416 414.676 153.416C411.508 153.416 409.204 156.056 409.204 159.752V173H404.164ZM455.136 173.576C448.08 173.576 443.136 168.344 443.136 161C443.136 153.656 447.984 148.424 454.8 148.424C462.432 148.424 466.848 154.952 466.176 162.584H448.512C449.136 166.232 451.728 168.68 455.184 168.68C457.92 168.68 460.128 167.144 460.704 164.888L465.84 166.712C464.592 170.792 460.32 173.576 455.136 173.576ZM448.56 158.84H460.896C460.416 155.48 457.92 153.224 454.8 153.224C451.632 153.224 449.232 155.48 448.56 158.84ZM491.093 173.576C484.037 173.576 479.093 168.344 479.093 161C479.093 153.656 483.941 148.424 490.757 148.424C498.389 148.424 502.805 154.952 502.133 162.584H484.469C485.093 166.232 487.685 168.68 491.141 168.68C493.877 168.68 496.085 167.144 496.661 164.888L501.797 166.712C500.549 170.792 496.277 173.576 491.093 173.576ZM484.517 158.84H496.853C496.373 155.48 493.877 153.224 490.757 153.224C487.589 153.224 485.189 155.48 484.517 158.84ZM507.85 147.416C507.85 140.504 515.098 138.2 519.802 140.936L518.41 145.64C516.106 144.152 512.89 144.872 512.89 147.656V150.344H518.65V155H512.89V173H507.85V155H504.202V150.344H507.85V147.416ZM524.165 147.416C524.165 140.504 531.413 138.2 536.117 140.936L534.725 145.64C532.421 144.152 529.205 144.872 529.205 147.656V150.344H534.965V155H529.205V173H524.165V155H520.517V150.344H524.165V147.416ZM548.194 173.576C541.138 173.576 536.146 168.344 536.146 161C536.146 153.656 541.138 148.424 548.194 148.424C555.25 148.424 560.29 153.656 560.29 161C560.29 168.344 555.25 173.576 548.194 173.576ZM548.194 168.632C552.178 168.632 555.058 165.464 555.058 161C555.058 156.44 552.178 153.224 548.194 153.224C544.21 153.224 541.378 156.44 541.378 161C541.378 165.464 544.21 168.632 548.194 168.632ZM564.304 173V149H568.384L569.104 152.504C570.256 149.192 574.096 147.608 577.888 148.904L577.408 154.616C573.664 152.792 569.344 154.28 569.344 159.224V173H564.304ZM593.185 173.048C588.193 174.584 582.337 173.048 582.337 166.952V153.656H578.737V149H580.129C581.617 149 582.577 147.896 582.577 146.216V142.616H587.377V149H592.897V153.656H587.377V165.8C587.377 168.584 590.017 169.352 592.609 168.392L593.185 173.048ZM596.84 173V140.36H601.88V173H596.84ZM617.998 173.576C610.942 173.576 605.998 168.344 605.998 161C605.998 153.656 610.846 148.424 617.662 148.424C625.294 148.424 629.71 154.952 629.038 162.584H611.374C611.998 166.232 614.59 168.68 618.046 168.68C620.782 168.68 622.99 167.144 623.566 164.888L628.702 166.712C627.454 170.792 623.182 173.576 617.998 173.576ZM611.422 158.84H623.758C623.278 155.48 620.782 153.224 617.662 153.224C614.494 153.224 612.094 155.48 611.422 158.84ZM642.195 173.576C636.291 173.576 631.875 170.36 631.491 165.896L637.251 164.552C637.395 167.144 639.603 169.064 642.531 169.064C644.787 169.064 646.467 167.864 646.467 166.136C646.467 161.192 632.643 163.064 632.643 155.144C632.643 151.16 636.339 148.424 641.571 148.424C646.947 148.424 650.835 151.208 651.219 155.096L645.747 156.344C645.699 154.232 643.923 152.792 641.427 152.792C639.315 152.792 637.875 153.848 637.875 155.384C637.875 160.184 651.891 158.216 651.891 166.328C651.891 170.552 647.859 173.576 642.195 173.576ZM664.604 173.576C658.7 173.576 654.284 170.36 653.9 165.896L659.66 164.552C659.804 167.144 662.012 169.064 664.94 169.064C667.196 169.064 668.876 167.864 668.876 166.136C668.876 161.192 655.052 163.064 655.052 155.144C655.052 151.16 658.748 148.424 663.98 148.424C669.356 148.424 673.244 151.208 673.628 155.096L668.156 156.344C668.108 154.232 666.332 152.792 663.836 152.792C661.724 152.792 660.284 153.848 660.284 155.384C660.284 160.184 674.3 158.216 674.3 166.328C674.3 170.552 670.268 173.576 664.604 173.576ZM678.036 173V140.36H683.076V173H678.036ZM689.402 178.28C691.514 178.136 693.29 176.984 694.154 174.968L695.258 172.232L685.802 149H691.562L697.754 166.376L703.418 149H709.082L698.714 176.456C697.226 180.392 694.586 182.888 691.322 183.176L689.402 178.28ZM731.517 173.576C725.133 173.576 720.573 168.344 720.573 161C720.573 153.608 725.085 148.424 731.469 148.424C734.733 148.424 737.565 149.864 739.485 152.312V140.36H744.525V168.2L744.621 173H740.493L739.725 169.4C737.805 171.992 734.925 173.576 731.517 173.576ZM732.669 168.632C736.653 168.632 739.533 165.416 739.533 161C739.533 156.488 736.653 153.272 732.669 153.272C728.685 153.272 725.805 156.488 725.805 161C725.805 165.416 728.685 168.632 732.669 168.632ZM749.95 149H754.99V173H749.95V149ZM752.494 146.264C750.526 146.264 749.134 144.776 749.134 142.76C749.134 140.744 750.526 139.304 752.494 139.304C754.462 139.304 755.854 140.744 755.854 142.76C755.854 144.776 754.462 146.264 752.494 146.264ZM769.429 173.576C763.525 173.576 759.109 170.36 758.725 165.896L764.485 164.552C764.629 167.144 766.837 169.064 769.765 169.064C772.021 169.064 773.701 167.864 773.701 166.136C773.701 161.192 759.877 163.064 759.877 155.144C759.877 151.16 763.573 148.424 768.805 148.424C774.181 148.424 778.069 151.208 778.453 155.096L772.981 156.344C772.933 154.232 771.157 152.792 768.661 152.792C766.549 152.792 765.109 153.848 765.109 155.384C765.109 160.184 779.125 158.216 779.125 166.328C779.125 170.552 775.093 173.576 769.429 173.576ZM793.325 173.576C786.413 173.576 781.517 168.344 781.517 161.048C781.517 153.656 786.365 148.424 793.229 148.424C798.797 148.424 803.261 151.976 803.981 156.968L798.989 158.504C798.509 155.384 796.157 153.224 793.181 153.224C789.437 153.224 786.845 156.488 786.845 160.952C786.845 165.464 789.533 168.632 793.325 168.632C796.445 168.632 798.845 166.472 799.181 163.112L804.365 164.744C803.501 170.072 798.941 173.576 793.325 173.576ZM819.02 173.576C811.964 173.576 806.972 168.344 806.972 161C806.972 153.656 811.964 148.424 819.02 148.424C826.076 148.424 831.116 153.656 831.116 161C831.116 168.344 826.076 173.576 819.02 173.576ZM819.02 168.632C823.004 168.632 825.884 165.464 825.884 161C825.884 156.44 823.004 153.224 819.02 153.224C815.036 153.224 812.204 156.44 812.204 161C812.204 165.464 815.036 168.632 819.02 168.632ZM840.761 173L831.785 149H837.545L843.833 167.96L849.977 149H855.545L846.809 173H840.761ZM868.383 173.576C861.327 173.576 856.383 168.344 856.383 161C856.383 153.656 861.231 148.424 868.047 148.424C875.679 148.424 880.095 154.952 879.423 162.584H861.759C862.383 166.232 864.975 168.68 868.431 168.68C871.167 168.68 873.375 167.144 873.951 164.888L879.087 166.712C877.839 170.792 873.567 173.576 868.383 173.576ZM861.807 158.84H874.143C873.663 155.48 871.167 153.224 868.047 153.224C864.879 153.224 862.479 155.48 861.807 158.84ZM883.556 173V149H887.636L888.356 152.504C889.508 149.192 893.348 147.608 897.14 148.904L896.66 154.616C892.916 152.792 888.596 154.28 888.596 159.224V173H883.556ZM906.353 173.576C901.649 173.576 898.481 170.744 898.481 166.568C898.481 163.352 900.977 160.664 904.769 159.944L912.353 158.456C913.073 158.36 913.553 157.832 913.553 157.208C913.553 154.76 911.777 152.984 909.281 152.984C906.689 152.984 904.673 154.808 904.481 157.544L899.297 156.296C900.065 151.688 904.097 148.424 909.041 148.424C914.609 148.424 918.593 152.168 918.593 157.352V168.2L918.689 173H914.705L913.841 169.736C912.353 172.088 909.617 173.576 906.353 173.576ZM903.905 165.896C903.905 167.624 905.297 168.776 907.601 168.776C910.961 168.776 913.553 166.328 913.553 162.728V161.624C913.073 161.72 912.545 161.864 912.017 161.96L906.785 162.92C905.009 163.256 903.905 164.408 903.905 165.896ZM936.791 173.576C933.335 173.576 930.407 171.992 928.535 169.304L927.719 173H923.639V140.36H928.679V152.408C930.599 149.912 933.431 148.424 936.791 148.424C943.031 148.424 947.543 153.608 947.543 160.904C947.543 168.296 943.031 173.576 936.791 173.576ZM935.495 168.632C939.479 168.632 942.311 165.416 942.311 161C942.311 156.488 939.479 153.272 935.495 153.272C931.463 153.272 928.631 156.488 928.631 161C928.631 165.416 931.463 168.632 935.495 168.632ZM951.626 173V140.36H956.666V173H951.626ZM972.784 173.576C965.728 173.576 960.784 168.344 960.784 161C960.784 153.656 965.632 148.424 972.448 148.424C980.08 148.424 984.496 154.952 983.824 162.584H966.16C966.784 166.232 969.376 168.68 972.832 168.68C975.568 168.68 977.776 167.144 978.352 164.888L983.488 166.712C982.24 170.792 977.968 173.576 972.784 173.576ZM966.208 158.84H978.544C978.064 155.48 975.568 153.224 972.448 153.224C969.28 153.224 966.88 155.48 966.208 158.84ZM459.252 235L455.46 211H460.788L463.284 229.432L467.556 211.048H472.26L476.388 229.432L479.124 211H484.212L480.084 235H474.228L469.86 216.664L465.396 235H459.252ZM487.892 211H492.932V235H487.892V211ZM490.436 208.264C488.468 208.264 487.076 206.776 487.076 204.76C487.076 202.744 488.468 201.304 490.436 201.304C492.404 201.304 493.796 202.744 493.796 204.76C493.796 206.776 492.404 208.264 490.436 208.264ZM510.539 235.048C505.547 236.584 499.691 235.048 499.691 228.952V215.656H496.091V211H497.483C498.971 211 499.931 209.896 499.931 208.216V204.616H504.731V211H510.251V215.656H504.731V227.8C504.731 230.584 507.371 231.352 509.963 230.392L510.539 235.048ZM514.194 235V202.36H519.234V214.456C520.578 212.008 523.41 210.424 526.674 210.424C532.002 210.424 535.794 214.6 535.794 220.312V235H530.754V221.128C530.754 217.768 528.498 215.368 525.33 215.368C521.826 215.368 519.234 218.104 519.234 221.944V235H514.194ZM550.902 235V203.8H565.542C570.534 203.8 574.086 207.064 574.086 211.672C574.086 214.984 572.07 217.768 568.806 218.728C572.742 219.592 575.286 222.616 575.286 226.552C575.286 231.496 571.638 235 566.55 235H550.902ZM556.23 230.056H565.062C567.798 230.056 569.814 228.232 569.814 225.64C569.814 223.096 567.846 221.224 565.11 221.224H556.23V230.056ZM556.23 216.904H564.246C566.838 216.904 568.758 215.176 568.758 212.776C568.758 210.376 566.886 208.648 564.294 208.648H556.23V216.904ZM590.013 235.576C582.957 235.576 578.013 230.344 578.013 223C578.013 215.656 582.861 210.424 589.677 210.424C597.309 210.424 601.725 216.952 601.053 224.584H583.389C584.013 228.232 586.605 230.68 590.061 230.68C592.797 230.68 595.005 229.144 595.581 226.888L600.717 228.712C599.469 232.792 595.197 235.576 590.013 235.576ZM583.437 220.84H595.773C595.293 217.48 592.797 215.224 589.677 215.224C586.509 215.224 584.109 217.48 583.437 220.84ZM611.715 235.576C607.011 235.576 603.843 232.744 603.843 228.568C603.843 225.352 606.339 222.664 610.131 221.944L617.715 220.456C618.435 220.36 618.915 219.832 618.915 219.208C618.915 216.76 617.139 214.984 614.643 214.984C612.051 214.984 610.035 216.808 609.843 219.544L604.659 218.296C605.427 213.688 609.459 210.424 614.403 210.424C619.971 210.424 623.955 214.168 623.955 219.352V230.2L624.051 235H620.067L619.203 231.736C617.715 234.088 614.979 235.576 611.715 235.576ZM609.267 227.896C609.267 229.624 610.659 230.776 612.963 230.776C616.323 230.776 618.915 228.328 618.915 224.728V223.624C618.435 223.72 617.907 223.864 617.379 223.96L612.147 224.92C610.371 225.256 609.267 226.408 609.267 227.896ZM637.594 235.576C632.314 235.576 628.57 231.688 628.57 226.072V211H633.61V225.112C633.61 228.232 635.866 230.536 639.034 230.536C642.394 230.536 644.794 227.992 644.794 224.488V211H649.834V230.2L649.93 235H645.754L644.89 231.352C643.786 233.896 641.002 235.576 637.594 235.576ZM667.398 235.048C662.406 236.584 656.55 235.048 656.55 228.952V215.656H652.95V211H654.342C655.83 211 656.79 209.896 656.79 208.216V204.616H661.59V211H667.11V215.656H661.59V227.8C661.59 230.584 664.23 231.352 666.822 230.392L667.398 235.048ZM672.198 240.28C674.31 240.136 676.086 238.984 676.95 236.968L678.054 234.232L668.598 211H674.358L680.55 228.376L686.214 211H691.878L681.51 238.456C680.022 242.392 677.382 244.888 674.118 245.176L672.198 240.28ZM704.713 235V203.8H719.353C724.345 203.8 727.897 207.064 727.897 211.672C727.897 214.984 725.881 217.768 722.617 218.728C726.553 219.592 729.097 222.616 729.097 226.552C729.097 231.496 725.449 235 720.361 235H704.713ZM710.041 230.056H718.873C721.609 230.056 723.625 228.232 723.625 225.64C723.625 223.096 721.657 221.224 718.921 221.224H710.041V230.056ZM710.041 216.904H718.057C720.649 216.904 722.569 215.176 722.569 212.776C722.569 210.376 720.697 208.648 718.105 208.648H710.041V216.904ZM741.76 235.576C736.48 235.576 732.736 231.688 732.736 226.072V211H737.776V225.112C737.776 228.232 740.032 230.536 743.2 230.536C746.56 230.536 748.96 227.992 748.96 224.488V211H754V230.2L754.096 235H749.92L749.056 231.352C747.952 233.896 745.168 235.576 741.76 235.576ZM771.564 235.048C766.572 236.584 760.716 235.048 760.716 228.952V215.656H757.116V211H758.508C759.996 211 760.956 209.896 760.956 208.216V204.616H765.756V211H771.276V215.656H765.756V227.8C765.756 230.584 768.396 231.352 770.988 230.392L771.564 235.048ZM775.219 235V202.36H780.259V235H775.219ZM796.378 235.576C789.322 235.576 784.378 230.344 784.378 223C784.378 215.656 789.226 210.424 796.042 210.424C803.674 210.424 808.09 216.952 807.418 224.584H789.754C790.378 228.232 792.97 230.68 796.426 230.68C799.162 230.68 801.37 229.144 801.946 226.888L807.082 228.712C805.834 232.792 801.562 235.576 796.378 235.576ZM789.802 220.84H802.138C801.658 217.48 799.162 215.224 796.042 215.224C792.874 215.224 790.474 217.48 789.802 220.84ZM811.551 235V211H815.631L816.351 214.504C817.503 211.192 821.343 209.608 825.135 210.904L824.655 216.616C820.911 214.792 816.591 216.28 816.591 221.224V235H811.551Z" fill="#101828"/>
<path d="M512.167 290V282.8L505.711 272.96H508.999L513.559 280.016L518.143 272.96H521.455L514.975 282.824V290H512.167ZM530.378 288.44C529.178 289.64 527.69 290.24 525.914 290.24C524.138 290.24 522.642 289.64 521.426 288.44C520.226 287.224 519.626 285.744 519.626 284C519.626 282.256 520.226 280.784 521.426 279.584C522.642 278.368 524.138 277.76 525.914 277.76C527.69 277.76 529.178 278.368 530.378 279.584C531.594 280.784 532.202 282.256 532.202 284C532.202 285.744 531.594 287.224 530.378 288.44ZM525.914 287.792C526.954 287.792 527.81 287.432 528.482 286.712C529.17 285.976 529.514 285.072 529.514 284C529.514 282.928 529.17 282.032 528.482 281.312C527.81 280.576 526.954 280.208 525.914 280.208C524.858 280.208 523.986 280.576 523.298 281.312C522.626 282.032 522.29 282.928 522.29 284C522.29 285.072 522.626 285.976 523.298 286.712C523.986 287.432 524.858 287.792 525.914 287.792ZM539.061 290.24C537.685 290.24 536.597 289.784 535.797 288.872C534.997 287.944 534.597 286.712 534.597 285.176V278H537.237V284.744C537.237 285.704 537.445 286.464 537.861 287.024C538.277 287.568 538.869 287.84 539.637 287.84C540.533 287.84 541.245 287.504 541.773 286.832C542.301 286.144 542.565 285.168 542.565 283.904V278H545.205V290H542.565V288.368C541.861 289.616 540.693 290.24 539.061 290.24ZM548.666 290V278H551.306V280.136C551.53 279.464 551.938 278.92 552.53 278.504C553.138 278.088 553.786 277.88 554.474 277.88C554.89 277.88 555.234 277.912 555.506 277.976V280.688C555.122 280.544 554.682 280.472 554.186 280.472C553.386 280.472 552.706 280.8 552.146 281.456C551.586 282.096 551.306 282.992 551.306 284.144V290H548.666ZM562.662 290V278H565.302V279.632C566.054 278.384 567.27 277.76 568.95 277.76C570.342 277.76 571.454 278.216 572.286 279.128C573.118 280.04 573.534 281.256 573.534 282.776V290H570.894V283.208C570.894 282.248 570.67 281.504 570.222 280.976C569.774 280.432 569.166 280.16 568.398 280.16C567.486 280.16 566.742 280.504 566.166 281.192C565.59 281.88 565.302 282.848 565.302 284.096V290H562.662ZM582.124 290.24C580.332 290.24 578.86 289.656 577.708 288.488C576.556 287.304 575.98 285.808 575.98 284C575.98 282.192 576.548 280.704 577.684 279.536C578.82 278.352 580.308 277.76 582.148 277.76C584.004 277.76 585.5 278.408 586.636 279.704C587.772 280.984 588.276 282.632 588.148 284.648H578.596C578.628 285.576 578.98 286.352 579.652 286.976C580.324 287.6 581.18 287.912 582.22 287.912C583.692 287.912 584.7 287.352 585.244 286.232H588.004C587.636 287.4 586.932 288.36 585.892 289.112C584.852 289.864 583.596 290.24 582.124 290.24ZM582.076 279.968C581.212 279.968 580.468 280.216 579.844 280.712C579.236 281.192 578.844 281.88 578.668 282.776H585.316C585.124 281.848 584.732 281.152 584.14 280.688C583.548 280.208 582.86 279.968 582.076 279.968ZM600.874 290L598.234 282.248L595.618 290H593.122L589.09 278H591.874L594.466 286.28L597.226 278H599.242L601.954 286.28L604.594 278H607.402L603.37 290H600.874ZM620.924 290.24C620.108 290.24 619.348 290.064 618.644 289.712C617.956 289.344 617.428 288.904 617.06 288.392V290H614.42V272H617.06V279.608C617.428 279.096 617.956 278.664 618.644 278.312C619.348 277.944 620.108 277.76 620.924 277.76C622.556 277.76 623.924 278.368 625.028 279.584C626.148 280.8 626.708 282.272 626.708 284C626.708 285.728 626.148 287.2 625.028 288.416C623.924 289.632 622.556 290.24 620.924 290.24ZM620.444 287.84C621.484 287.84 622.34 287.472 623.012 286.736C623.684 286 624.02 285.088 624.02 284C624.02 282.912 623.684 282 623.012 281.264C622.34 280.528 621.484 280.16 620.444 280.16C619.388 280.16 618.524 280.528 617.852 281.264C617.18 282 616.844 282.912 616.844 284C616.844 285.088 617.18 286 617.852 286.736C618.524 287.472 619.388 287.84 620.444 287.84ZM634.609 290.24C632.817 290.24 631.345 289.656 630.193 288.488C629.041 287.304 628.465 285.808 628.465 284C628.465 282.192 629.033 280.704 630.169 279.536C631.305 278.352 632.793 277.76 634.633 277.76C636.489 277.76 637.985 278.408 639.121 279.704C640.257 280.984 640.761 282.632 640.633 284.648H631.081C631.113 285.576 631.465 286.352 632.137 286.976C632.809 287.6 633.665 287.912 634.705 287.912C636.177 287.912 637.185 287.352 637.729 286.232H640.489C640.121 287.4 639.417 288.36 638.377 289.112C637.337 289.864 636.081 290.24 634.609 290.24ZM634.561 279.968C633.697 279.968 632.953 280.216 632.329 280.712C631.721 281.192 631.329 281.88 631.153 282.776H637.801C637.609 281.848 637.217 281.152 636.625 280.688C636.033 280.208 635.345 279.968 634.561 279.968ZM648.173 290.24C646.541 290.24 645.165 289.632 644.045 288.416C642.941 287.2 642.389 285.728 642.389 284C642.389 282.272 642.941 280.8 644.045 279.584C645.165 278.368 646.541 277.76 648.173 277.76C648.989 277.76 649.741 277.944 650.429 278.312C651.117 278.664 651.645 279.096 652.013 279.608V278H654.653V290H652.013V288.392C651.645 288.904 651.117 289.344 650.429 289.712C649.741 290.064 648.989 290.24 648.173 290.24ZM646.085 286.736C646.757 287.472 647.613 287.84 648.653 287.84C649.693 287.84 650.549 287.472 651.221 286.736C651.893 286 652.229 285.088 652.229 284C652.229 282.912 651.893 282 651.221 281.264C650.549 280.528 649.693 280.16 648.653 280.16C647.613 280.16 646.757 280.528 646.085 281.264C645.413 282 645.077 282.912 645.077 284C645.077 285.088 645.413 286 646.085 286.736ZM662.433 290.24C661.057 290.24 659.969 289.784 659.169 288.872C658.369 287.944 657.969 286.712 657.969 285.176V278H660.609V284.744C660.609 285.704 660.817 286.464 661.233 287.024C661.649 287.568 662.241 287.84 663.009 287.84C663.905 287.84 664.617 287.504 665.145 286.832C665.673 286.144 665.937 285.168 665.937 283.904V278H668.577V290H665.937V288.368C665.233 289.616 664.065 290.24 662.433 290.24ZM677.246 290.12C676.03 290.12 675.038 289.784 674.27 289.112C673.518 288.424 673.142 287.432 673.142 286.136V280.352H670.646V278H673.142V274.664H675.782V278H679.214V280.352H675.782V285.704C675.782 286.44 675.942 286.968 676.262 287.288C676.582 287.592 677.094 287.744 677.798 287.744C678.374 287.744 678.846 287.664 679.214 287.504V289.856C678.638 290.032 677.982 290.12 677.246 290.12ZM685.466 295.016H682.562L685.13 289.352L679.97 278H682.874L686.546 286.496L690.242 278H693.17L685.466 295.016ZM706.439 290.24C705.623 290.24 704.863 290.064 704.159 289.712C703.471 289.344 702.943 288.904 702.575 288.392V290H699.935V272H702.575V279.608C702.943 279.096 703.471 278.664 704.159 278.312C704.863 277.944 705.623 277.76 706.439 277.76C708.071 277.76 709.439 278.368 710.543 279.584C711.663 280.8 712.223 282.272 712.223 284C712.223 285.728 711.663 287.2 710.543 288.416C709.439 289.632 708.071 290.24 706.439 290.24ZM705.959 287.84C706.999 287.84 707.855 287.472 708.527 286.736C709.199 286 709.535 285.088 709.535 284C709.535 282.912 709.199 282 708.527 281.264C707.855 280.528 706.999 280.16 705.959 280.16C704.903 280.16 704.039 280.528 703.367 281.264C702.695 282 702.359 282.912 702.359 284C702.359 285.088 702.695 286 703.367 286.736C704.039 287.472 704.903 287.84 705.959 287.84ZM720.124 290.24C718.332 290.24 716.86 289.656 715.708 288.488C714.556 287.304 713.98 285.808 713.98 284C713.98 282.192 714.548 280.704 715.684 279.536C716.82 278.352 718.308 277.76 720.148 277.76C722.004 277.76 723.5 278.408 724.636 279.704C725.772 280.984 726.276 282.632 726.148 284.648H716.596C716.628 285.576 716.98 286.352 717.652 286.976C718.324 287.6 719.18 287.912 720.22 287.912C721.692 287.912 722.7 287.352 723.244 286.232H726.004C725.636 287.4 724.932 288.36 723.892 289.112C722.852 289.864 721.596 290.24 720.124 290.24ZM720.076 279.968C719.212 279.968 718.468 280.216 717.844 280.712C717.236 281.192 716.844 281.88 716.668 282.776H723.316C723.124 281.848 722.732 281.152 722.14 280.688C721.548 280.208 720.86 279.968 720.076 279.968ZM732.991 290.24C731.567 290.24 730.367 289.888 729.391 289.184C728.431 288.48 727.919 287.536 727.855 286.352H730.591C730.783 287.536 731.607 288.128 733.063 288.128C733.655 288.128 734.127 288.024 734.479 287.816C734.831 287.592 735.007 287.272 735.007 286.856C735.007 286.44 734.871 286.112 734.599 285.872C734.327 285.632 733.871 285.432 733.231 285.272L731.263 284.744C729.215 284.2 728.191 282.992 728.191 281.12C728.191 280.112 728.599 279.304 729.415 278.696C730.231 278.072 731.311 277.76 732.655 277.76C733.951 277.76 735.015 278.088 735.847 278.744C736.679 279.4 737.143 280.272 737.239 281.36H734.599C734.343 280.368 733.687 279.872 732.631 279.872C732.103 279.872 731.679 279.984 731.359 280.208C731.039 280.416 730.879 280.712 730.879 281.096C730.879 281.784 731.415 282.264 732.487 282.536L734.503 283.064C736.631 283.608 737.695 284.816 737.695 286.688C737.695 287.824 737.255 288.704 736.375 289.328C735.511 289.936 734.383 290.24 732.991 290.24ZM745.251 290.12C744.035 290.12 743.043 289.784 742.275 289.112C741.523 288.424 741.147 287.432 741.147 286.136V280.352H738.651V278H741.147V274.664H743.787V278H747.219V280.352H743.787V285.704C743.787 286.44 743.947 286.968 744.267 287.288C744.587 287.592 745.099 287.744 745.803 287.744C746.379 287.744 746.851 287.664 747.219 287.504V289.856C746.643 290.032 745.987 290.12 745.251 290.12ZM750.951 275.384C750.471 275.384 750.055 275.216 749.703 274.88C749.351 274.528 749.175 274.104 749.175 273.608C749.175 273.128 749.351 272.72 749.703 272.384C750.055 272.032 750.471 271.856 750.951 271.856C751.447 271.856 751.863 272.032 752.199 272.384C752.535 272.72 752.703 273.128 752.703 273.608C752.703 274.104 752.535 274.528 752.199 274.88C751.863 275.216 751.447 275.384 750.951 275.384ZM749.631 290V278H752.271V290H749.631ZM761.031 290.24C759.239 290.24 757.767 289.656 756.615 288.488C755.463 287.304 754.887 285.808 754.887 284C754.887 282.192 755.455 280.704 756.591 279.536C757.727 278.352 759.215 277.76 761.055 277.76C762.911 277.76 764.407 278.408 765.543 279.704C766.679 280.984 767.183 282.632 767.055 284.648H757.503C757.535 285.576 757.887 286.352 758.559 286.976C759.231 287.6 760.087 287.912 761.127 287.912C762.599 287.912 763.607 287.352 764.151 286.232H766.911C766.543 287.4 765.839 288.36 764.799 289.112C763.759 289.864 762.503 290.24 761.031 290.24ZM760.983 279.968C760.119 279.968 759.375 280.216 758.751 280.712C758.143 281.192 757.751 281.88 757.575 282.776H764.223C764.031 281.848 763.639 281.152 763.047 280.688C762.455 280.208 761.767 279.968 760.983 279.968ZM770.418 284.288L769.914 279.584V272.96H772.578V279.584L772.05 284.288H770.418ZM771.234 290.192C770.674 290.192 770.186 289.992 769.77 289.592C769.37 289.176 769.17 288.68 769.17 288.104C769.17 287.544 769.37 287.056 769.77 286.64C770.186 286.224 770.674 286.016 771.234 286.016C771.81 286.016 772.298 286.224 772.698 286.64C773.114 287.056 773.322 287.544 773.322 288.104C773.322 288.68 773.114 289.176 772.698 289.592C772.298 289.992 771.81 290.192 771.234 290.192Z" fill="#8877D8"/>
<path d="M89.9346 86.0666C93.7283 84.7392 95.2823 83.1864 96.609 79.3929C96.8699 78.647 97.9218 78.647 98.1826 79.3929C99.5108 83.1864 101.063 84.7392 104.857 86.0666C105.603 86.3275 105.603 87.3797 104.857 87.6407C101.063 88.968 99.5094 90.5209 98.1826 94.3157C97.9218 95.0616 96.8699 95.0616 96.609 94.3157C95.2809 90.5223 93.7283 88.968 89.9346 87.6407C89.1885 87.3797 89.1885 86.3289 89.9346 86.0666Z" fill="#FFC0FF"/>
<path d="M954.384 124.96C956.985 124.05 958.051 122.985 958.96 120.384C959.139 119.872 959.861 119.872 960.04 120.384C960.95 122.985 962.015 124.05 964.616 124.96C965.128 125.139 965.128 125.86 964.616 126.039C962.015 126.949 960.949 128.014 960.04 130.616C959.861 131.128 959.139 131.128 958.96 130.616C958.05 128.015 956.985 126.949 954.384 126.039C953.872 125.86 953.872 125.14 954.384 124.96Z" fill="#FFC0FF"/>
<path d="M838.384 284.96C840.985 284.05 842.051 282.985 842.96 280.384C843.139 279.872 843.861 279.872 844.04 280.384C844.95 282.985 846.015 284.05 848.616 284.96C849.128 285.139 849.128 285.86 848.616 286.039C846.015 286.949 844.949 288.014 844.04 290.616C843.861 291.128 843.139 291.128 842.96 290.616C842.05 288.015 840.985 286.949 838.384 286.039C837.872 285.86 837.872 285.14 838.384 284.96Z" fill="#FFC0FF"/>
<path d="M251.551 261.627C254.152 260.716 255.218 259.652 256.127 257.05C256.306 256.539 257.028 256.539 257.207 257.05C258.117 259.652 259.182 260.716 261.783 261.627C262.295 261.805 262.295 262.527 261.783 262.706C259.182 263.616 258.116 264.681 257.207 267.283C257.028 267.795 256.306 267.795 256.127 267.283C255.217 264.682 254.152 263.616 251.551 262.706C251.039 262.527 251.039 261.806 251.551 261.627Z" fill="#FFC0FF"/>
<g filter="url(#filter0_d_1333_12715)">
<path d="M639.5 299.583C668.265 299.583 691.583 276.265 691.583 247.5C691.583 218.735 668.265 195.417 639.5 195.417C610.735 195.417 587.417 218.735 587.417 247.5C587.417 276.265 610.735 299.583 639.5 299.583Z" stroke="white" stroke-width="7.8125"/>
<path d="M626.479 243.332V251.668C626.479 259.581 626.479 263.537 628.853 265.136C631.226 266.735 634.473 264.966 640.966 261.428L648.613 257.259C656.426 253.001 660.333 250.872 660.333 247.5C660.333 244.128 656.426 241.999 648.613 237.741L640.966 233.573C634.473 230.034 631.226 228.264 628.853 229.864C626.479 231.463 626.479 235.419 626.479 243.332Z" fill="white"/>
</g>
</g>
<defs>
<filter id="filter0_d_1333_12715" x="571" y="183" width="133" height="133" filterUnits="userSpaceOnUse" color-interpolation-filters="sRGB">
<feFlood flood-opacity="0" result="BackgroundImageFix"/>
<feColorMatrix in="SourceAlpha" type="matrix" values="0 0 0 0 0 0 0 0 0 0 0 0 0 0 0 0 0 0 127 0" result="hardAlpha"/>
<feOffset dx="-2" dy="2"/>
<feGaussianBlur stdDeviation="2"/>
<feComposite in2="hardAlpha" operator="out"/>
<feColorMatrix type="matrix" values="0 0 0 0 0 0 0 0 0 0 0 0 0 0 0 0 0 0 0.05 0"/>
<feBlend mode="normal" in2="BackgroundImageFix" result="effect1_dropShadow_1333_12715"/>
<feBlend mode="normal" in="SourceGraphic" in2="effect1_dropShadow_1333_12715" result="shape"/>
</filter>
<clipPath id="clip0_1333_12715">
<rect width="1280" height="495" rx="32" fill="white"/>
</clipPath>
</defs>
</svg>
