<svg width="309" height="327" viewBox="0 0 309 327" fill="none" xmlns="http://www.w3.org/2000/svg">
<g clip-path="url(#clip0_827_1223)">
<path d="M-53.2861 318.046V148.015C-53.2861 123.82 -43.8652 101.074 -26.7586 83.967C-9.65208 66.8605 13.0943 57.4355 37.2894 57.4355C61.4846 57.4355 84.231 66.8565 101.338 83.967C118.444 101.074 127.865 123.82 127.865 148.015V318.046H-53.2861Z" stroke="#FFDDBD" stroke-width="0.752243" stroke-miterlimit="10"/>
<path d="M37.2927 64.9487C83.1397 64.9487 120.366 102.171 120.366 148.022V310.546H-45.7764V148.022C-45.7764 102.175 -8.55429 64.9487 37.2967 64.9487H37.2927Z" stroke="#FFDDBD" stroke-width="0.752243" stroke-miterlimit="10"/>
<path d="M-45.1079 137.425H118.59" stroke="#FFDDBD" stroke-width="0.752243" stroke-miterlimit="10"/>
<path d="M-45.1079 185.213H118.59" stroke="#FFDDBD" stroke-width="0.752243" stroke-miterlimit="10"/>
<path d="M35.855 65.3579V293.773" stroke="#FFDDBD" stroke-width="0.887567" stroke-miterlimit="10"/>
<path d="M-44.5493 234.333H119.149" stroke="#FFDDBD" stroke-width="0.752243" stroke-miterlimit="10"/>
<path d="M203.481 247.934C201.873 248.411 200.245 248.642 198.645 248.642C191.724 248.642 185.276 244.383 182.744 237.589L143.035 168.367L82.7678 165.362L81.1678 189.613L48.0532 180.797L52.8891 148.1C54.7239 138.699 63.5001 132.307 73.0086 133.446L149.809 142.644C159.509 143.587 167.919 149.756 171.735 158.731L214.116 224.678C218.351 234.051 213.344 245.008 203.485 247.934H203.481Z" fill="#37353F"/>
<path d="M125.964 163.341L140.32 159.365L156.587 166.648L159.505 185.677L148.277 198.831L190.199 318.295L48.0493 318.947C48.0493 318.947 60.6464 261.172 95.7869 233.781L94.5292 228.869L70.4455 162.998L93.1242 159.313L113.053 157.323L125.968 163.345L125.964 163.341Z" fill="#37353F"/>
<path d="M81.1669 189.605L77.3619 247.261C75.9092 258.512 65.139 266.114 54.0544 263.71C45.0195 261.752 38.7866 253.76 38.7866 244.801C38.7866 243.722 38.8782 242.628 39.0652 241.529L48.0523 180.785L81.1669 189.601V189.605Z" fill="#37353F"/>
<path d="M205.844 211.8L155.034 283.39L171.377 309.575L218.943 258.276C225.554 251.143 226.243 240.345 220.587 232.433L205.844 211.8Z" fill="#37353F"/>
<path d="M97.3941 231.622L141.038 228.103L144.665 273.092L102.771 276.47C101.803 276.548 100.954 275.826 100.876 274.858L97.3901 231.623L97.3941 231.622Z" fill="#FF9260"/>
<path d="M46.2516 257.421C65.3204 276.315 133.237 247.825 133.237 247.825L137.002 224.677L46.2914 231.845C46.2914 231.845 36.564 247.817 46.2556 257.421H46.2516Z" fill="#37353F"/>
<path d="M70.4468 229.929L122.96 226.597" stroke="black" stroke-width="0.425873" stroke-linecap="round" stroke-linejoin="round"/>
<path d="M132.553 122.988C133.347 122.976 133.937 119.435 133.872 115.078C133.806 110.722 133.11 107.2 132.317 107.212C131.523 107.224 130.933 110.765 130.998 115.122C131.064 119.478 131.76 123 132.553 122.988Z" fill="#FF5B00"/>
<path d="M81.2067 89.9689C81.7002 106.49 95.2844 119.481 111.551 118.992C127.818 118.498 140.606 104.707 140.112 88.1898C139.619 71.6683 130.787 58.8682 109.768 59.1667C93.4973 59.4016 80.7132 73.4514 81.2067 89.9689Z" fill="black"/>
<path d="M98.3643 138.458L114.205 161.085L123.133 142.076C123.133 142.076 124.963 131.266 126.317 123.142C126.325 123.095 126.333 123.043 126.344 122.995C127.129 118.279 127.753 114.502 127.749 114.334L119.125 111.154L118.615 110.967L103.992 105.578L98.3643 138.462V138.458Z" fill="#8E410F"/>
<path d="M105.521 108.509C105.521 108.509 111.045 116.206 115.654 119.243C118.619 121.193 124.45 122.714 126.337 122.992C127.121 118.276 127.746 114.499 127.742 114.332L119.117 111.152L118.607 110.965L105.517 108.513L105.521 108.509Z" fill="#72310B"/>
<path d="M97.4581 100.635C97.4581 100.635 106.274 117.833 124.316 117.71C142.354 117.583 144.678 106.379 140.404 94.6612C139.898 93.2801 139.508 92.0781 139.202 91.0154C138.692 89.2323 138.421 87.8432 138.294 86.7009C137.836 82.7049 139.034 81.6104 137.335 76.8581C131.914 62.1396 118.278 63.1546 118.278 63.1546C78.9943 65.7496 97.4541 100.635 97.4541 100.635H97.4581Z" fill="#8E410F"/>
<path d="M113.376 90.1995C113.376 90.1995 114.017 92.098 117.014 92.9975C117.412 93.1209 117.854 93.2244 118.344 93.3C118.734 93.3637 119.152 93.4114 119.605 93.4393C123.689 93.6861 125.699 92.0263 125.699 92.0263C125.699 92.0263 124.099 88.1219 120.099 87.5965C119.936 87.5726 119.765 87.5567 119.593 87.5447C118.013 87.4532 116.764 87.7796 115.808 88.2373C114.141 89.0293 113.376 90.2035 113.376 90.2035V90.1995Z" fill="#FF5B00"/>
<path d="M90.213 94.2768C88.2508 98.1057 91.5862 104.701 96.4937 107.208C101.401 109.72 106.926 109.091 108.884 105.262C110.846 101.433 107.55 94.4002 102.647 91.8887C97.7394 89.3773 92.1752 90.4479 90.217 94.2768H90.213Z" fill="#8F410F"/>
<path d="M113.376 91.2955C113.376 91.2955 114.029 92.987 117.082 93.7791C117.488 93.8865 117.938 93.9781 118.439 94.0457C118.837 94.1015 119.263 94.1453 119.729 94.1652C123.896 94.3761 125.95 92.8955 125.95 92.8955C125.95 92.8955 124.326 89.4208 120.242 88.9592C120.075 88.9353 119.9 88.9233 119.725 88.9154C118.113 88.8358 116.835 89.1303 115.86 89.5402C114.157 90.2487 113.376 91.2995 113.376 91.2995V91.2955Z" fill="white"/>
<path d="M115.386 91.1761C115.402 92.3343 116.095 93.3253 117.086 93.7751C117.468 93.9582 117.902 94.0537 118.351 94.0457C118.379 94.0457 118.411 94.0458 118.443 94.0418C120.011 93.9741 121.249 92.6686 121.225 91.0885C121.213 90.2368 120.835 89.4766 120.246 88.9592C120.079 88.9353 119.904 88.9233 119.729 88.9154C118.117 88.8358 116.839 89.1303 115.864 89.5402C115.557 90.0139 115.378 90.5791 115.39 91.1801L115.386 91.1761Z" fill="black"/>
<path d="M125.683 92.7282C125.683 92.7282 121.989 85.0426 113.269 91.0168" stroke="black" stroke-width="0.819905" stroke-linecap="round" stroke-linejoin="round"/>
<path d="M130.918 90.7495C130.918 90.7495 131.874 91.2789 134.831 91.0082C135.229 90.9764 135.651 90.9127 136.117 90.8172C136.483 90.7376 136.877 90.6421 137.295 90.5147C137.927 90.3237 138.493 90.1087 138.994 89.8819C138.485 88.0988 138.214 86.7097 138.087 85.5674C137.478 85.5276 136.809 85.5754 136.101 85.7425C135.945 85.7744 135.79 85.8182 135.631 85.8659C134.174 86.3077 133.135 86.9724 132.403 87.645C131.117 88.8152 130.918 90.7535 130.918 90.7535V90.7495Z" fill="#FF5B00"/>
<path d="M130.963 91.1284C130.963 91.1284 132.081 92.422 135.039 92.1513C135.437 92.1195 135.858 92.0558 136.324 91.9603C136.69 91.8807 137.084 91.7851 137.502 91.6578C138.135 91.4667 138.7 91.2518 139.202 91.0249C138.692 89.2418 138.422 87.8528 138.294 86.7105C137.685 86.6707 137.017 86.7184 136.308 86.8856C136.153 86.9174 135.998 86.9612 135.839 87.009C134.382 87.4508 133.343 88.1155 132.611 88.7881C131.325 89.9583 130.967 91.1324 130.967 91.1324L130.963 91.1284Z" fill="white"/>
<path d="M131.966 91.0326C132.511 91.9758 133.53 92.4734 134.553 92.3938C134.951 92.3699 135.349 92.2505 135.719 92.0395C135.743 92.0276 135.771 92.0117 135.791 91.9958C137.048 91.2196 137.47 89.5838 136.726 88.2942C136.324 87.6017 135.667 87.148 134.947 86.9888C134.8 87.0485 134.652 87.1161 134.501 87.1878C133.14 87.8604 132.224 88.6883 131.608 89.4684C131.572 90.0017 131.683 90.543 131.966 91.0365V91.0326Z" fill="black"/>
<path d="M138.186 86.6082C136.105 86.4092 133.458 87.2291 130.787 90.9226" stroke="black" stroke-width="0.772143" stroke-linecap="round" stroke-linejoin="round"/>
<path d="M103.631 122.988C104.424 122.976 105.015 119.435 104.949 115.078C104.884 110.722 104.188 107.2 103.394 107.212C102.601 107.224 102.011 110.765 102.076 115.122C102.141 119.478 102.838 123 103.631 122.988Z" fill="#FF5B00"/>
<path d="M124.368 63.1003C125.43 63.2397 126.489 63.4506 127.464 63.7013C128.642 64.0078 129.793 64.565 130.597 65.4844C131.397 66.4038 131.795 67.7252 131.409 68.8835C130.473 71.6775 123.711 71.9999 121.279 72.6088C120.236 72.8715 119.122 73.178 118.445 74.0099C117.693 74.9332 117.693 76.2546 117.868 77.4328C118.043 78.6109 118.362 79.8129 118.111 80.979C117.813 82.384 116.714 83.5184 115.444 84.187C114.175 84.8557 112.734 85.1263 111.313 85.3413C109.82 85.5681 108.181 85.8149 107.182 86.9452C106.378 87.8527 106.171 89.1662 106.354 90.3642C106.7 92.6448 107.822 95.8289 110.656 95.7333C109.848 95.7612 109.048 96.0199 108.236 95.9562C107.385 95.8846 106.553 95.6617 105.769 95.3194C104.165 94.6149 103.154 93.3333 101.749 92.402C98.907 90.5234 94.9388 90.4676 92.0532 92.2746C91.8462 92.406 91.6353 92.5453 91.3965 92.5851C90.9467 92.6567 90.5049 92.3423 90.286 91.9403C90.0671 91.5383 90.0233 91.0726 89.9835 90.6149C89.9238 89.9303 89.8721 89.202 90.2024 88.601C90.3139 88.398 90.4651 88.2149 90.5646 88.0079C90.9626 87.1801 90.497 86.2328 90.4731 85.3771C90.4492 84.5373 90.3218 83.7174 90.2223 82.8656C90.0154 81.0547 90.0154 79.1681 90.7238 77.4566C91.086 76.581 91.6194 75.789 92.1885 75.0328C94.9865 71.2994 98.7398 68.2904 102.991 66.368C105.621 65.178 108.423 64.4058 111.257 63.8645C114.724 63.2038 118.258 62.8814 121.789 62.9133C122.613 62.9212 123.488 62.9889 124.364 63.1043L124.368 63.1003Z" fill="black"/>
<path d="M124.642 104.383C124.519 104.403 125.219 107.985 128.157 108.439C132.487 109.107 134.179 104.96 134.179 104.96C134.179 104.96 130.943 103.304 124.642 104.383Z" fill="#FF27E7"/>
<path d="M134.178 104.958C134.301 104.927 133.294 102.769 130.277 102.538C127.264 102.312 124.275 104.365 124.275 104.365C124.275 104.365 127.981 106.542 134.178 104.954V104.958Z" fill="#801478"/>
<path d="M134.878 104.675C133.93 104.786 132.995 104.961 132.048 105.097C131.212 105.216 130.344 105.316 129.5 105.268C128.147 105.188 126.794 104.826 125.504 104.436C124.856 104.241 124.187 104.058 123.57 103.775C123.423 103.708 123.303 103.903 123.443 103.998C124.561 104.742 125.89 105.144 127.188 105.439C127.857 105.59 128.533 105.714 129.218 105.769C129.998 105.833 130.778 105.753 131.546 105.642C132.693 105.475 133.799 105.216 134.901 104.858C134.993 104.826 134.985 104.667 134.878 104.679V104.675Z" fill="black"/>
<path d="M104.462 100.194C103.216 96.9504 99.435 95.7325 96.2429 95.7285C95.7136 95.7285 95.1842 95.7643 94.6589 95.8201C94.3802 95.8519 94.1056 95.8917 93.831 95.9474C93.5564 96.0031 93.3335 96.0947 93.0827 96.2061C92.8917 96.2897 93.0151 96.5444 93.1783 96.5604C93.3972 96.5803 93.6002 96.6041 93.823 96.5882C94.0459 96.5723 94.2847 96.5524 94.5196 96.5365C94.9693 96.5046 95.4191 96.4728 95.8688 96.4648C96.7484 96.4489 97.632 96.4927 98.4997 96.6599C99.9604 96.9385 101.397 97.5196 102.555 98.4668C103.188 98.9843 103.797 99.6051 104.267 100.274C104.331 100.365 104.51 100.314 104.462 100.19V100.194Z" fill="black"/>
<path d="M99.44 96.5647C99.1813 96.7 99.0221 96.9587 98.8629 97.1975C98.7037 97.4363 98.5525 97.6911 98.4171 97.9538C98.1385 98.503 97.9355 99.0921 97.8917 99.709C97.8121 100.823 98.2659 102.01 99.1933 102.666C99.452 102.849 99.6788 102.471 99.5077 102.26C98.8828 101.492 98.4768 100.589 98.5684 99.5816C98.6161 99.0682 98.7674 98.5627 98.9624 98.0891C99.0699 97.8264 99.1972 97.5717 99.3325 97.3209C99.448 97.106 99.5674 96.899 99.5873 96.6523C99.5952 96.5727 99.4957 96.5329 99.4321 96.5647H99.44Z" fill="black"/>
<path d="M125.892 87.6199C124.407 86.2348 122.696 85.2438 120.654 84.993C118.099 84.6786 115.333 85.3632 113.052 86.4975C112.511 86.7682 112.893 87.596 113.454 87.4527C115.787 86.8557 118.091 86.0318 120.539 86.199C122.366 86.3224 124.033 87.0706 125.526 88.1015C125.812 88.2965 126.147 87.8587 125.896 87.6239L125.892 87.6199Z" fill="black"/>
<path d="M132.568 85.3827C133.041 85.1638 133.563 85.0683 134.064 84.929C134.518 84.8056 134.98 84.7021 135.445 84.6265C136.285 84.4872 137.165 84.4116 137.981 84.3002C138.295 84.2604 138.566 84.0613 138.566 83.7151C138.566 83.3927 138.299 83.138 137.981 83.13C137.017 83.1141 136.074 83.2733 135.151 83.5519C134.661 83.6992 134.18 83.8783 133.71 84.0813C133.208 84.3002 132.763 84.6305 132.305 84.925C132.014 85.1121 132.265 85.5181 132.572 85.3788L132.568 85.3827Z" fill="black"/>
<path d="M130.822 86.037C129.707 86.4509 128.899 87.5534 128.549 88.6559C128.37 89.2211 128.31 89.8181 128.398 90.4072C128.481 90.9564 128.712 91.4738 128.991 91.9515C129.572 92.9505 130.364 93.8022 130.993 94.7734C131.578 95.6768 131.996 96.7395 131.578 97.7983C131.347 98.3833 130.634 98.6938 130.061 98.8092C129.218 98.9804 128.378 98.7495 127.614 98.3992C127.371 98.2878 127.2 98.5943 127.407 98.7535C128.509 99.5973 130.165 99.7127 131.335 98.9286C131.868 98.5744 132.175 98.0808 132.29 97.452C132.394 96.8987 132.346 96.3336 132.171 95.8002C131.801 94.6778 131.005 93.7624 130.296 92.839C129.608 91.9395 128.875 90.9485 128.899 89.7624C128.911 89.0659 129.13 88.3972 129.476 87.7962C129.846 87.1554 130.356 86.6579 130.905 86.1763C130.965 86.1246 130.905 86.0091 130.825 86.037H130.822Z" fill="black"/>
<path d="M113 66.3515C128.248 66.3515 140.61 58.5483 140.61 48.9226C140.61 39.2969 128.248 31.4937 113 31.4937C97.7511 31.4937 85.3896 39.2969 85.3896 48.9226C85.3896 58.5483 97.7511 66.3515 113 66.3515Z" fill="black"/>
<path d="M113.085 44.2636C123.608 44.2636 132.138 36.4604 132.138 26.8347C132.138 17.209 123.608 9.40576 113.085 9.40576C102.562 9.40576 94.0322 17.209 94.0322 26.8347C94.0322 36.4604 102.562 44.2636 113.085 44.2636Z" fill="black"/>
<path d="M100.307 171.573L135.205 205.579L137.004 231.322L97.6362 233.002L100.307 171.573Z" fill="#37353F"/>
<path d="M99.0815 170.353L135.201 205.569L134.186 219.276" stroke="black" stroke-width="0.425873" stroke-linecap="round" stroke-linejoin="round"/>
<path d="M134.88 140.849L145.591 149.318L141.495 161.207L156.118 162.007L132.138 202.576" stroke="black" stroke-width="0.425873" stroke-linecap="round" stroke-linejoin="round"/>
<path d="M80.2575 134.562L75.2784 147.279L84.8108 155.478L72.5918 163.542L113.758 186.479" stroke="black" stroke-width="0.425873" stroke-linecap="round" stroke-linejoin="round"/>
<path d="M75.6309 177.18L83.9015 199.795" stroke="black" stroke-width="0.425873" stroke-linecap="round" stroke-linejoin="round"/>
<path d="M153.481 192.736L159.933 184.116C161.517 181.998 162.13 179.308 161.621 176.713L159.583 166.34" stroke="black" stroke-width="0.425873" stroke-linecap="round" stroke-linejoin="round"/>
<path d="M130.78 210.677C132.04 210.677 133.061 209.656 133.061 208.397C133.061 207.137 132.04 206.116 130.78 206.116C129.521 206.116 128.5 207.137 128.5 208.397C128.5 209.656 129.521 210.677 130.78 210.677Z" fill="black"/>
<path d="M130.78 221.566C132.04 221.566 133.061 220.545 133.061 219.285C133.061 218.025 132.04 217.004 130.78 217.004C129.521 217.004 128.5 218.025 128.5 219.285C128.5 220.545 129.521 221.566 130.78 221.566Z" fill="black"/>
<path d="M114.201 210.02C115.461 210.02 116.482 208.999 116.482 207.739C116.482 206.48 115.461 205.458 114.201 205.458C112.942 205.458 111.921 206.48 111.921 207.739C111.921 208.999 112.942 210.02 114.201 210.02Z" fill="black"/>
<path d="M114.201 220.901C115.461 220.901 116.482 219.88 116.482 218.62C116.482 217.36 115.461 216.339 114.201 216.339C112.942 216.339 111.921 217.36 111.921 218.62C111.921 219.88 112.942 220.901 114.201 220.901Z" fill="black"/>
<path d="M127.873 318.045L130.778 300.951" stroke="black" stroke-width="0.425873" stroke-linecap="round" stroke-linejoin="round"/>
<path d="M68.7383 263.873C68.7383 263.873 83.6956 262.954 93.1722 260.578C102.649 258.202 106.629 257.071 106.629 257.071" stroke="black" stroke-width="0.425873" stroke-linecap="round" stroke-linejoin="round"/>
<path d="M165.264 266.443L170.311 265.201L185.117 300.779L180.269 304.831L165.264 266.443Z" fill="black"/>
<path d="M67.9445 268.335L72.5933 270.667L60.7325 307.336L54.4121 307.265L67.9445 268.335Z" fill="black"/>
<path d="M207.682 224.856C205.135 222.71 204.39 221.051 204.478 217.723C204.494 217.067 203.682 216.76 203.26 217.262C201.115 219.809 199.455 220.553 196.128 220.466C195.471 220.45 195.164 221.262 195.666 221.683C198.213 223.829 198.957 225.488 198.87 228.816C198.854 229.473 199.666 229.779 200.088 229.278C202.233 226.73 203.893 225.986 207.22 226.074C207.877 226.089 208.183 225.278 207.682 224.856Z" fill="white"/>
<path d="M124.628 133.195L114.2 161.088L99.4895 131.858C99.4895 131.858 95.6805 123.631 89.4755 123.83C83.2705 124.029 81.165 127.141 81.165 127.141L92.2019 135.742L81.165 134.421L90.9123 162.803L124.628 194.819L137.002 161.661L134.877 140.853C134.877 140.853 135.828 134.803 140.33 134.958L144.831 135.113C144.831 135.113 138.622 123.905 125.269 133.314" fill="#FFDDBD"/>
<path d="M104.354 142.079C104.354 142.079 97.644 136.272 90.9136 134.735" stroke="black" stroke-width="0.425873" stroke-linecap="round" stroke-linejoin="round"/>
<path d="M119.981 145.631C119.981 145.631 129.191 137.476 137.609 135.796" stroke="black" stroke-width="0.425873" stroke-linecap="round" stroke-linejoin="round"/>
<path d="M102.372 147.907C103 147.907 103.51 147.398 103.51 146.769C103.51 146.14 103 145.631 102.372 145.631C101.743 145.631 101.233 146.14 101.233 146.769C101.233 147.398 101.743 147.907 102.372 147.907Z" fill="#FF9260"/>
<path d="M105.03 152.814C105.659 152.814 106.168 152.305 106.168 151.676C106.168 151.047 105.659 150.538 105.03 150.538C104.401 150.538 103.892 151.047 103.892 151.676C103.892 152.305 104.401 152.814 105.03 152.814Z" fill="#FF9260"/>
<path d="M107.771 157.326C108.4 157.326 108.909 156.817 108.909 156.188C108.909 155.559 108.4 155.05 107.771 155.05C107.142 155.05 106.633 155.559 106.633 156.188C106.633 156.817 107.142 157.326 107.771 157.326Z" fill="#FF9260"/>
<path d="M110.436 162.802C111.064 162.802 111.574 162.292 111.574 161.664C111.574 161.035 111.064 160.525 110.436 160.525C109.807 160.525 109.297 161.035 109.297 161.664C109.297 162.292 109.807 162.802 110.436 162.802Z" fill="#FF9260"/>
<path d="M113 168.949C113.629 168.949 114.138 168.439 114.138 167.811C114.138 167.182 113.629 166.672 113 166.672C112.371 166.672 111.862 167.182 111.862 167.811C111.862 168.439 112.371 168.949 113 168.949Z" fill="#FF9260"/>
<path d="M115.343 174.986C115.972 174.986 116.482 174.476 116.482 173.847C116.482 173.219 115.972 172.709 115.343 172.709C114.715 172.709 114.205 173.219 114.205 173.847C114.205 174.476 114.715 174.986 115.343 174.986Z" fill="#FF9260"/>
<path d="M113.761 160.207L124.631 194.814" stroke="#FF9260" stroke-width="0.214926" stroke-linecap="round" stroke-linejoin="round"/>
<path d="M129.434 248.561C129.434 248.561 149.08 244.366 152.932 246.698C155.519 248.266 160.63 257.078 161.502 261.05C161.72 262.057 158.178 272.342 161.999 268.943C164.228 266.961 166.417 263.18 165.673 260.063C165.048 257.456 163.149 252.366 163.149 252.366C163.149 252.366 168.009 258.392 168.562 260.577C169.115 262.762 169.633 268.071 170.568 270.364C171.504 272.656 173.211 272.823 173.398 271.215C173.585 269.608 173.259 266.985 173.259 266.985C173.259 266.985 174.345 273.815 176.694 273.377C179.042 272.939 176.841 262.364 176.841 262.364C176.841 262.364 179.44 266.388 180.837 267.307C182.234 268.226 185.187 269.178 182.7 265.389C180.212 261.6 170.481 241.993 168.913 239.164C167.344 236.334 162.528 225.142 154.91 224.087C147.289 223.032 128.586 225.337 128.586 225.337L129.442 248.557L129.434 248.561Z" fill="#8E410F"/>
<path d="M167.61 241.824C167.61 241.824 174.555 253.932 175.483 257.112C176.41 260.288 176.899 262.708 176.899 262.708" stroke="black" stroke-width="0.425873" stroke-linecap="round" stroke-linejoin="round"/>
<path d="M164.786 245.914L171.086 256.983C171.922 258.451 172.451 260.079 172.646 261.759L173.343 267.868" stroke="black" stroke-width="0.425873" stroke-linecap="round" stroke-linejoin="round"/>
<path d="M161.029 248.762L163.807 253.216" stroke="black" stroke-width="0.425873" stroke-linecap="round" stroke-linejoin="round"/>
<path d="M152.311 241.255C151.873 244.34 152.152 246.032 152.152 246.032" stroke="black" stroke-width="0.425873" stroke-linecap="round" stroke-linejoin="round"/>
<path d="M162.533 268.746C163.336 267.75 163.741 266.744 163.438 266.5C163.135 266.256 162.239 266.866 161.436 267.862C160.634 268.858 160.228 269.863 160.531 270.108C160.834 270.352 161.731 269.742 162.533 268.746Z" fill="#FFDDBD"/>
<path d="M172.765 272.512C173.154 272.503 173.444 271.458 173.413 270.18C173.382 268.901 173.042 267.871 172.653 267.881C172.264 267.89 171.974 268.935 172.005 270.214C172.036 271.493 172.376 272.522 172.765 272.512Z" fill="#FFDDBD"/>
<path d="M183.861 268.234C184.202 268.047 183.981 266.986 183.366 265.864C182.752 264.742 181.977 263.984 181.636 264.17C181.295 264.357 181.516 265.418 182.13 266.541C182.745 267.663 183.52 268.421 183.861 268.234Z" fill="#FFDDBD"/>
<path d="M176.978 273.667C177.473 273.655 177.846 272.497 177.811 271.079C177.777 269.662 177.348 268.522 176.854 268.534C176.359 268.546 175.986 269.705 176.021 271.123C176.055 272.54 176.484 273.679 176.978 273.667Z" fill="#FFDDBD"/>
<path d="M142.678 218.592L102.009 221.872C100.147 222.023 98.8492 224.781 99.1119 228.025L104.111 227.623L110.4 305.562C110.595 307.974 111.872 309.836 113.257 309.725L151.299 306.656C152.684 306.545 153.648 304.499 153.452 302.091L147.255 225.259C146.945 221.398 144.895 218.413 142.678 218.592Z" fill="#FFDDBD"/>
<mask id="mask0_827_1223" style="mask-type:luminance" maskUnits="userSpaceOnUse" x="99" y="218" width="55" height="92">
<path d="M142.678 218.309L102.009 221.589C100.147 221.74 98.8492 224.498 99.1119 227.742L104.111 227.34L110.4 305.279C110.595 307.69 111.872 309.553 113.257 309.442L151.299 306.373C152.684 306.262 153.648 304.216 153.452 301.808L147.255 224.976C146.945 221.115 144.895 218.13 142.678 218.309Z" fill="white"/>
</mask>
<g mask="url(#mask0_827_1223)">
<path d="M112.862 233.21C110.8 232.489 109.956 231.645 109.236 229.584C109.093 229.178 108.523 229.178 108.38 229.584C107.66 231.645 106.816 232.489 104.754 233.21C104.348 233.353 104.348 233.922 104.754 234.065C106.816 234.786 107.66 235.63 108.38 237.691C108.523 238.097 109.093 238.097 109.236 237.691C109.956 235.63 110.8 234.786 112.862 234.065C113.268 233.922 113.268 233.353 112.862 233.21Z" fill="#FFEAD7"/>
<path d="M119.085 229.872V223.476C119.085 217.92 114.722 213.275 109.17 213.088C103.335 212.893 98.5433 217.562 98.5433 223.353V229.872C98.5433 230.68 97.8866 231.337 97.0786 231.337V232.801L97.1741 232.79C99.0607 232.602 100.896 232.037 102.531 231.078C105.118 229.562 106.531 227.516 107.793 223.918C108.131 222.955 109.501 222.955 109.835 223.918C111.093 227.516 112.51 229.566 115.097 231.078C116.732 232.037 118.567 232.602 120.454 232.79L120.549 232.801V231.337C119.741 231.337 119.085 230.68 119.085 229.872Z" fill="#FFEAD7"/>
<path d="M136.329 233.21C134.268 232.489 133.424 231.645 132.704 229.584C132.56 229.178 131.991 229.178 131.848 229.584C131.127 231.645 130.284 232.489 128.222 233.21C127.816 233.353 127.816 233.922 128.222 234.065C130.284 234.786 131.127 235.63 131.848 237.691C131.991 238.097 132.56 238.097 132.704 237.691C133.424 235.63 134.268 234.786 136.329 234.065C136.735 233.922 136.735 233.353 136.329 233.21Z" fill="#FFEAD7"/>
<path d="M142.545 229.872V223.476C142.545 217.92 138.183 213.275 132.631 213.088C126.796 212.893 122.004 217.562 122.004 223.353V229.872C122.004 230.68 121.347 231.337 120.539 231.337V232.801L120.635 232.79C122.521 232.602 124.356 232.037 125.992 231.078C128.579 229.562 129.992 227.516 131.254 223.918C131.592 222.955 132.961 222.955 133.295 223.918C134.553 227.516 135.97 229.566 138.557 231.078C140.193 232.037 142.028 232.602 143.914 232.79L144.01 232.801V231.337C143.202 231.337 142.545 230.68 142.545 229.872Z" fill="#FFEAD7"/>
<path d="M159.798 233.21C157.736 232.489 156.892 231.645 156.172 229.584C156.029 229.178 155.459 229.178 155.316 229.584C154.596 231.645 153.752 232.489 151.69 233.21C151.284 233.353 151.284 233.922 151.69 234.065C153.752 234.786 154.596 235.63 155.316 237.691C155.459 238.097 156.029 238.097 156.172 237.691C156.892 235.63 157.736 234.786 159.798 234.065C160.204 233.922 160.204 233.353 159.798 233.21Z" fill="#FFEAD7"/>
<path d="M166.013 229.872V223.476C166.013 217.92 161.651 213.275 156.099 213.088C150.264 212.893 145.472 217.562 145.472 223.353V229.872C145.472 230.68 144.815 231.337 144.007 231.337V232.801L144.103 232.79C145.989 232.602 147.824 232.037 149.46 231.078C152.047 229.562 153.46 227.516 154.722 223.918C155.06 222.955 156.429 222.955 156.764 223.918C158.021 227.516 159.438 229.566 162.025 231.078C163.661 232.037 165.496 232.602 167.383 232.79L167.478 232.801V231.337C166.67 231.337 166.013 230.68 166.013 229.872Z" fill="#FFEAD7"/>
<path d="M151.697 244.414C153.759 245.134 154.603 245.978 155.323 248.039C155.466 248.445 156.035 248.445 156.179 248.039C156.899 245.978 157.743 245.134 159.805 244.414C160.211 244.27 160.211 243.701 159.805 243.558C157.743 242.837 156.899 241.994 156.179 239.932C156.035 239.526 155.466 239.526 155.323 239.932C154.603 241.994 153.759 242.837 151.697 243.558C151.291 243.701 151.291 244.27 151.697 244.414Z" fill="#FFEAD7"/>
<path d="M145.479 247.734V254.13C145.479 259.686 149.842 264.331 155.394 264.518C161.229 264.713 166.021 260.044 166.021 254.253V247.734C166.021 246.926 166.677 246.269 167.485 246.269V244.804L167.39 244.816C165.503 245.003 163.668 245.568 162.033 246.528C159.446 248.044 158.033 250.09 156.771 253.688C156.433 254.651 155.063 254.651 154.729 253.688C153.471 250.09 152.054 248.04 149.467 246.528C147.832 245.568 145.997 245.003 144.11 244.816L144.015 244.804V246.269C144.823 246.269 145.479 246.926 145.479 247.734Z" fill="#FFEAD7"/>
<path d="M128.228 244.414C130.29 245.134 131.134 245.978 131.854 248.039C131.997 248.445 132.567 248.445 132.71 248.039C133.43 245.978 134.274 245.134 136.336 244.414C136.742 244.27 136.742 243.701 136.336 243.558C134.274 242.837 133.43 241.994 132.71 239.932C132.567 239.526 131.997 239.526 131.854 239.932C131.134 241.994 130.29 242.837 128.228 243.558C127.822 243.701 127.822 244.27 128.228 244.414Z" fill="#FFEAD7"/>
<path d="M122.011 247.734V254.13C122.011 259.686 126.373 264.331 131.926 264.518C137.76 264.713 142.552 260.044 142.552 254.253V247.734C142.552 246.926 143.209 246.269 144.017 246.269V244.804L143.922 244.816C142.035 245.003 140.2 245.568 138.564 246.528C135.977 248.044 134.564 250.09 133.303 253.688C132.964 254.651 131.595 254.651 131.261 253.688C130.003 250.09 128.586 248.04 125.999 246.528C124.363 245.568 122.528 245.003 120.642 244.816L120.546 244.804V246.269C121.354 246.269 122.011 246.926 122.011 247.734Z" fill="#FFEAD7"/>
<path d="M104.761 244.414C106.822 245.134 107.666 245.978 108.386 248.039C108.53 248.445 109.099 248.445 109.242 248.039C109.963 245.978 110.806 245.134 112.868 244.414C113.274 244.27 113.274 243.701 112.868 243.558C110.806 242.837 109.963 241.994 109.242 239.932C109.099 239.526 108.53 239.526 108.386 239.932C107.666 241.994 106.822 242.837 104.761 243.558C104.355 243.701 104.355 244.27 104.761 244.414Z" fill="#FFEAD7"/>
<path d="M98.5433 247.734V254.13C98.5433 259.686 102.906 264.331 108.458 264.518C114.293 264.713 119.085 260.044 119.085 254.253V247.734C119.085 246.926 119.741 246.269 120.549 246.269V244.804L120.454 244.816C118.567 245.003 116.732 245.568 115.097 246.528C112.51 248.044 111.097 250.09 109.835 253.688C109.497 254.651 108.127 254.651 107.793 253.688C106.535 250.09 105.118 248.04 102.531 246.528C100.896 245.568 99.0607 245.003 97.1741 244.816L97.0786 244.804V246.269C97.8866 246.269 98.5433 246.926 98.5433 247.734Z" fill="#FFEAD7"/>
<path d="M112.862 281.233C110.8 280.513 109.956 279.669 109.236 277.607C109.093 277.201 108.523 277.201 108.38 277.607C107.66 279.669 106.816 280.513 104.754 281.233C104.348 281.376 104.348 281.946 104.754 282.089C106.816 282.809 107.66 283.653 108.38 285.715C108.523 286.121 109.093 286.121 109.236 285.715C109.956 283.653 110.8 282.809 112.862 282.089C113.268 281.946 113.268 281.376 112.862 281.233Z" fill="#FFEAD7"/>
<path d="M119.085 277.917V271.52C119.085 265.964 114.722 261.319 109.17 261.132C103.335 260.937 98.5433 265.606 98.5433 271.397V277.917C98.5433 278.724 97.8866 279.381 97.0786 279.381V280.846L97.1741 280.834C99.0607 280.647 100.896 280.082 102.531 279.123C105.118 277.606 106.531 275.56 107.793 271.962C108.131 270.999 109.501 270.999 109.835 271.962C111.093 275.56 112.51 277.61 115.097 279.123C116.732 280.082 118.567 280.647 120.454 280.834L120.549 280.846V279.381C119.741 279.381 119.085 278.724 119.085 277.917Z" fill="#FFEAD7"/>
<path d="M136.329 281.233C134.268 280.513 133.424 279.669 132.704 277.607C132.56 277.201 131.991 277.201 131.848 277.607C131.127 279.669 130.284 280.513 128.222 281.233C127.816 281.376 127.816 281.946 128.222 282.089C130.284 282.809 131.127 283.653 131.848 285.715C131.991 286.121 132.56 286.121 132.704 285.715C133.424 283.653 134.268 282.809 136.329 282.089C136.735 281.946 136.735 281.376 136.329 281.233Z" fill="#FFEAD7"/>
<path d="M142.545 277.917V271.52C142.545 265.964 138.183 261.319 132.631 261.132C126.796 260.937 122.004 265.606 122.004 271.397V277.917C122.004 278.724 121.347 279.381 120.539 279.381V280.846L120.635 280.834C122.521 280.647 124.356 280.082 125.992 279.123C128.579 277.606 129.992 275.56 131.254 271.962C131.592 270.999 132.961 270.999 133.295 271.962C134.553 275.56 135.97 277.61 138.557 279.123C140.193 280.082 142.028 280.647 143.914 280.834L144.01 280.846V279.381C143.202 279.381 142.545 278.724 142.545 277.917Z" fill="#FFEAD7"/>
<path d="M159.798 281.233C157.736 280.513 156.892 279.669 156.172 277.607C156.029 277.201 155.459 277.201 155.316 277.607C154.596 279.669 153.752 280.513 151.69 281.233C151.284 281.376 151.284 281.946 151.69 282.089C153.752 282.809 154.596 283.653 155.316 285.715C155.459 286.121 156.029 286.121 156.172 285.715C156.892 283.653 157.736 282.809 159.798 282.089C160.204 281.946 160.204 281.376 159.798 281.233Z" fill="#FFEAD7"/>
<path d="M166.013 277.917V271.52C166.013 265.964 161.651 261.319 156.099 261.132C150.264 260.937 145.472 265.606 145.472 271.397V277.917C145.472 278.724 144.815 279.381 144.007 279.381V280.846L144.103 280.834C145.989 280.647 147.824 280.082 149.46 279.123C152.047 277.606 153.46 275.56 154.722 271.962C155.06 270.999 156.429 270.999 156.764 271.962C158.021 275.56 159.438 277.61 162.025 279.123C163.661 280.082 165.496 280.647 167.383 280.834L167.478 280.846V279.381C166.67 279.381 166.013 278.724 166.013 277.917Z" fill="#FFEAD7"/>
<path d="M151.694 292.436C153.755 293.157 154.599 294.001 155.32 296.062C155.463 296.468 156.032 296.468 156.175 296.062C156.896 294.001 157.739 293.157 159.801 292.436C160.207 292.293 160.207 291.724 159.801 291.581C157.739 290.86 156.896 290.017 156.175 287.955C156.032 287.549 155.463 287.549 155.32 287.955C154.599 290.017 153.755 290.86 151.694 291.581C151.288 291.724 151.288 292.293 151.694 292.436Z" fill="#FFEAD7"/>
<path d="M145.475 295.758V302.154C145.475 307.71 149.838 312.355 155.39 312.542C161.225 312.737 166.017 308.069 166.017 302.277V295.758C166.017 294.95 166.674 294.293 167.481 294.293V292.829L167.386 292.841C165.499 293.028 163.665 293.593 162.029 294.552C159.442 296.068 158.029 298.114 156.767 301.712C156.429 302.675 155.06 302.675 154.725 301.712C153.468 298.114 152.051 296.064 149.464 294.552C147.828 293.593 145.993 293.028 144.106 292.841L144.011 292.829V294.293C144.819 294.293 145.475 294.95 145.475 295.758Z" fill="#FFEAD7"/>
<path d="M128.228 292.436C130.29 293.157 131.134 294.001 131.854 296.062C131.997 296.468 132.567 296.468 132.71 296.062C133.43 294.001 134.274 293.157 136.336 292.436C136.742 292.293 136.742 291.724 136.336 291.581C134.274 290.86 133.43 290.017 132.71 287.955C132.567 287.549 131.997 287.549 131.854 287.955C131.134 290.017 130.29 290.86 128.228 291.581C127.822 291.724 127.822 292.293 128.228 292.436Z" fill="#FFEAD7"/>
<path d="M122.011 295.758V302.154C122.011 307.71 126.373 312.355 131.926 312.542C137.76 312.737 142.552 308.069 142.552 302.277V295.758C142.552 294.95 143.209 294.293 144.017 294.293V292.829L143.922 292.841C142.035 293.028 140.2 293.593 138.564 294.552C135.977 296.068 134.564 298.114 133.303 301.712C132.964 302.675 131.595 302.675 131.261 301.712C130.003 298.114 128.586 296.064 125.999 294.552C124.363 293.593 122.528 293.028 120.642 292.841L120.546 292.829V294.293C121.354 294.293 122.011 294.95 122.011 295.758Z" fill="#FFEAD7"/>
<path d="M104.761 292.436C106.822 293.157 107.666 294.001 108.386 296.062C108.53 296.468 109.099 296.468 109.242 296.062C109.963 294.001 110.806 293.157 112.868 292.436C113.274 292.293 113.274 291.724 112.868 291.581C110.806 290.86 109.963 290.017 109.242 287.955C109.099 287.549 108.53 287.549 108.386 287.955C107.666 290.017 106.822 290.86 104.761 291.581C104.355 291.724 104.355 292.293 104.761 292.436Z" fill="#FFEAD7"/>
<path d="M98.5433 295.758V302.154C98.5433 307.71 102.906 312.355 108.458 312.542C114.293 312.737 119.085 308.069 119.085 302.277V295.758C119.085 294.95 119.741 294.293 120.549 294.293V292.829L120.454 292.841C118.567 293.028 116.732 293.593 115.097 294.552C112.51 296.068 111.097 298.114 109.835 301.712C109.497 302.675 108.127 302.675 107.793 301.712C106.535 298.114 105.118 296.064 102.531 294.552C100.896 293.593 99.0607 293.028 97.1741 292.841L97.0786 292.829V294.293C97.8866 294.293 98.5433 294.95 98.5433 295.758Z" fill="#FFEAD7"/>
</g>
<path d="M60.3167 98.2874C57.0132 97.8734 55.4848 96.8864 53.7495 94.0446C53.4072 93.4873 52.5594 93.6665 52.4758 94.3192C52.0619 97.6227 51.0748 99.1511 48.233 100.886C47.6758 101.229 47.8549 102.076 48.5077 102.16C51.8112 102.574 53.3395 103.561 55.0749 106.403C55.4172 106.96 56.2649 106.781 56.3485 106.128C56.7624 102.825 57.7495 101.296 60.5913 99.561C61.1485 99.2187 60.9694 98.371 60.3167 98.2874Z" fill="#FFDDBD"/>
<path d="M265.202 275.635C265.202 275.635 255.216 223.559 254.591 217.227C253.966 210.898 255.12 202.464 261.114 201.724C267.104 200.984 269.803 207.491 271.407 218.747C273.011 230.003 279.944 273.549 279.944 273.549" fill="#A7B964"/>
<path d="M262.341 208.813L271.094 275.44" stroke="#365650" stroke-width="0.521396" stroke-miterlimit="10" stroke-linecap="round"/>
<path d="M271.317 286.488L258.716 233.867L243.822 237.835L258.497 288.892" fill="#808F3C"/>
<path d="M264.159 288.179C264.179 287.917 251.654 235.745 251.654 235.745" stroke="#365650" stroke-width="0.521396" stroke-miterlimit="10" stroke-linecap="round"/>
<path d="M271.135 286.53C271.155 286.268 258.63 234.096 258.63 234.096" stroke="#496836" stroke-width="0.421893" stroke-linejoin="round"/>
<path d="M243.816 237.835C243.816 237.835 238.698 246.066 237.412 248.347C236.131 250.627 234.718 256.673 239.084 257.131C243.45 257.589 248.218 253.808 252.58 245.322C255.247 240.132 258.71 233.867 258.71 233.867" fill="#A7B964"/>
<path d="M251.104 235.877L241.448 251.511" stroke="#365650" stroke-width="0.521396" stroke-miterlimit="10" stroke-linecap="round"/>
<path d="M249.304 212.513C254.96 235.112 259.712 258.257 263.537 281.767" stroke="#365650" stroke-width="0.521396" stroke-miterlimit="10" stroke-linecap="round"/>
<path d="M253.491 204.809C253.447 203.694 253.037 202.719 251.78 202.89C251.087 202.986 250.653 203.627 250.347 204.196C249.821 205.175 249.479 206.246 249.332 207.348C249.244 206.385 249.153 205.422 249.009 204.466C248.874 203.579 248.679 202.671 248.17 201.935C247.051 200.311 245.029 201.764 244.826 202.882C244.576 204.255 245.511 206.548 246.068 207.83C245.65 207.344 245.232 206.854 244.818 206.369C244.198 205.645 243.453 204.86 242.502 204.856C241.977 204.856 241.427 205.159 241.272 205.66C241.208 205.875 241.197 206.655 241.22 206.882C241.539 209.724 244.245 211.296 246.594 212.351C247.386 212.709 248.257 213.195 249.129 213.298C250.001 213.402 250.418 212.534 250.781 211.889C251.62 210.385 252.584 208.912 253.133 207.264C253.32 206.703 253.523 205.708 253.487 204.809H253.491Z" fill="#FF926C"/>
<path d="M249.688 210.681C249.402 210.693 249.123 210.749 248.848 210.828C248.164 211.027 247.527 211.393 247.041 211.915C246.958 212.002 246.862 212.158 246.787 212.285C246.723 212.396 246.767 212.54 246.882 212.595C247.356 212.822 248.526 213.36 249.207 213.439C250.078 213.543 250.496 212.675 250.858 212.03C250.99 211.791 251.129 211.553 251.264 211.314C251.328 211.202 251.284 211.059 251.165 210.999C250.711 210.768 250.198 210.649 249.688 210.673V210.681Z" fill="#496836"/>
<path d="M290.149 231.726C286.714 254.767 282.244 277.967 276.768 301.151" stroke="#365650" stroke-width="0.521396" stroke-miterlimit="10" stroke-linecap="round"/>
<path d="M296.969 226.206C297.355 225.159 297.351 224.104 296.125 223.778C295.448 223.599 294.8 224.024 294.302 224.434C293.442 225.139 292.714 225.995 292.157 226.958C292.443 226.034 292.73 225.111 292.961 224.176C293.176 223.304 293.343 222.393 293.156 221.513C292.746 219.583 290.322 220.152 289.705 221.107C288.949 222.281 288.933 224.757 288.957 226.154C288.758 225.545 288.559 224.932 288.36 224.323C288.065 223.415 287.679 222.409 286.8 222.038C286.314 221.835 285.689 221.907 285.359 222.309C285.216 222.48 284.909 223.201 284.845 223.415C284.049 226.162 285.948 228.649 287.711 230.524C288.308 231.157 288.925 231.941 289.689 232.371C290.453 232.801 291.174 232.16 291.755 231.702C293.108 230.631 294.561 229.64 295.699 228.331C296.085 227.885 296.654 227.045 296.969 226.198V226.206Z" fill="#FFD490"/>
<path d="M291.201 230.178C290.935 230.082 290.652 230.022 290.369 229.991C289.661 229.915 288.929 230.006 288.284 230.301C288.172 230.353 288.025 230.456 287.91 230.548C287.806 230.627 287.794 230.775 287.878 230.874C288.228 231.268 289.104 232.208 289.701 232.546C290.465 232.976 291.185 232.335 291.767 231.877C291.981 231.706 292.196 231.539 292.415 231.372C292.519 231.292 292.531 231.145 292.447 231.045C292.117 230.659 291.687 230.353 291.205 230.178H291.201Z" fill="#496836"/>
<path d="M264.043 279.579C264.043 279.579 269.384 228.415 270.578 222.361C271.772 216.307 275.215 208.801 280.986 209.796C286.758 210.791 287.434 217.589 285.77 228.491C284.103 239.392 278.32 281.78 278.32 281.78" fill="#65732D"/>
<path d="M280.138 216.721L269.57 281.052" stroke="#365650" stroke-width="0.521396" stroke-miterlimit="10" stroke-linecap="round"/>
<path d="M269.127 286.82L287.233 241.359L300.045 246.844L280.013 289.941" fill="#808F3C"/>
<path d="M275.306 289.258C275.322 289.019 293.3 243.952 293.3 243.952" stroke="#365650" stroke-width="0.521396" stroke-miterlimit="10" stroke-linecap="round"/>
<path d="M300.043 246.848C300.043 246.848 303.557 254.876 304.409 257.085C305.261 259.294 305.743 264.89 301.774 264.727C297.806 264.567 294.033 260.567 291.227 252.404C289.512 247.413 287.227 241.359 287.227 241.359" fill="#A7B964"/>
<path d="M293.78 244.16L300.391 259.404" stroke="#365650" stroke-width="0.521396" stroke-miterlimit="10" stroke-linecap="round"/>
<path d="M271.86 247.882C270.534 271.138 268.194 286.414 264.847 310" stroke="#496836" stroke-width="0.421893" stroke-linejoin="round"/>
<path d="M278.147 241.77C278.438 240.691 278.339 239.641 277.085 239.43C276.396 239.314 275.787 239.796 275.326 240.25C274.534 241.026 273.885 241.949 273.419 242.956C273.622 242.013 273.821 241.065 273.968 240.11C274.104 239.223 274.187 238.299 273.921 237.444C273.336 235.561 270.975 236.349 270.446 237.356C269.797 238.594 270.008 241.061 270.159 242.451C269.905 241.861 269.654 241.272 269.399 240.683C269.025 239.808 268.547 238.837 267.636 238.55C267.134 238.395 266.522 238.518 266.223 238.952C266.096 239.139 265.857 239.883 265.813 240.102C265.272 242.908 267.385 245.217 269.316 246.92C269.968 247.497 270.657 248.222 271.453 248.58C272.253 248.938 272.914 248.238 273.447 247.728C274.697 246.538 276.054 245.42 277.069 244.011C277.415 243.529 277.905 242.642 278.14 241.774L278.147 241.77Z" fill="#FFD490"/>
<path d="M272.765 246.236C272.49 246.164 272.204 246.133 271.917 246.129C271.205 246.117 270.484 246.276 269.867 246.63C269.76 246.69 269.624 246.809 269.517 246.909C269.421 246.996 269.421 247.147 269.517 247.235C269.903 247.593 270.858 248.453 271.483 248.732C272.283 249.09 272.944 248.389 273.477 247.88C273.676 247.693 273.875 247.506 274.078 247.319C274.174 247.231 274.174 247.08 274.078 246.988C273.712 246.634 273.258 246.367 272.765 246.236Z" fill="#496836"/>
<path d="M287.83 278.883H251.301V318.043H287.83V278.883Z" fill="#FF9260"/>
<mask id="mask1_827_1223" style="mask-type:luminance" maskUnits="userSpaceOnUse" x="250" y="279" width="39" height="40">
<path d="M288.544 279.375H250.271V318.576H288.544V279.375Z" fill="white"/>
</mask>
<g mask="url(#mask1_827_1223)">
<path d="M250.136 279.971H267.896" stroke="black" stroke-width="0.362191" stroke-miterlimit="10" stroke-linecap="round"/>
<path d="M250.136 283.326H267.896" stroke="black" stroke-width="0.362191" stroke-miterlimit="10" stroke-linecap="round"/>
<path d="M250.136 286.702H267.896" stroke="black" stroke-width="0.362191" stroke-miterlimit="10" stroke-linecap="round"/>
<path d="M250.732 303.28V288.884" stroke="black" stroke-width="0.362191" stroke-miterlimit="10" stroke-linecap="round"/>
<path d="M255.806 303.28V288.884" stroke="black" stroke-width="0.362191" stroke-miterlimit="10" stroke-linecap="round"/>
<path d="M260.883 303.28V288.884" stroke="black" stroke-width="0.362191" stroke-miterlimit="10" stroke-linecap="round"/>
<path d="M265.95 303.28V288.884" stroke="black" stroke-width="0.362191" stroke-miterlimit="10" stroke-linecap="round"/>
<path d="M250.209 306.912H267.969" stroke="black" stroke-width="0.362191" stroke-miterlimit="10" stroke-linecap="round"/>
<path d="M250.209 310.266H267.969" stroke="black" stroke-width="0.362191" stroke-miterlimit="10" stroke-linecap="round"/>
<path d="M250.209 313.635H267.969" stroke="black" stroke-width="0.362191" stroke-miterlimit="10" stroke-linecap="round"/>
<path d="M250.806 330.235V315.839" stroke="black" stroke-width="0.362191" stroke-miterlimit="10" stroke-linecap="round"/>
<path d="M255.879 330.235V315.839" stroke="black" stroke-width="0.362191" stroke-miterlimit="10" stroke-linecap="round"/>
<path d="M260.953 330.235V315.839" stroke="black" stroke-width="0.362191" stroke-miterlimit="10" stroke-linecap="round"/>
<path d="M266.029 330.235V315.839" stroke="black" stroke-width="0.362191" stroke-miterlimit="10" stroke-linecap="round"/>
<path d="M271.189 292.371H288.944" stroke="black" stroke-width="0.362191" stroke-miterlimit="10" stroke-linecap="round"/>
<path d="M271.182 295.739H288.937" stroke="black" stroke-width="0.362191" stroke-miterlimit="10" stroke-linecap="round"/>
<path d="M271.182 299.107H288.937" stroke="black" stroke-width="0.362191" stroke-miterlimit="10" stroke-linecap="round"/>
<path d="M271.781 315.693V301.297" stroke="black" stroke-width="0.362191" stroke-miterlimit="10" stroke-linecap="round"/>
<path d="M276.858 315.693V301.297" stroke="black" stroke-width="0.362191" stroke-miterlimit="10" stroke-linecap="round"/>
<path d="M281.931 315.693V301.297" stroke="black" stroke-width="0.362191" stroke-miterlimit="10" stroke-linecap="round"/>
<path d="M287.005 315.693V301.297" stroke="black" stroke-width="0.362191" stroke-miterlimit="10" stroke-linecap="round"/>
<path d="M271.258 317.848H289.014" stroke="black" stroke-width="0.362191" stroke-miterlimit="10" stroke-linecap="round"/>
<path d="M272.458 288.89V276.735" stroke="black" stroke-width="0.33035" stroke-miterlimit="10" stroke-linecap="round"/>
<path d="M277.531 288.89V276.735" stroke="black" stroke-width="0.33035" stroke-miterlimit="10" stroke-linecap="round"/>
<path d="M282.604 288.89V276.735" stroke="black" stroke-width="0.33035" stroke-miterlimit="10" stroke-linecap="round"/>
<path d="M287.681 288.89V276.735" stroke="black" stroke-width="0.33035" stroke-miterlimit="10" stroke-linecap="round"/>
</g>
<path d="M-75.7041 318.292H296.214" stroke="black" stroke-width="0.744282" stroke-miterlimit="10" stroke-linecap="round"/>
</g>
<defs>
<clipPath id="clip0_827_1223">
<rect width="370" height="326.471" fill="white" transform="translate(-61)"/>
</clipPath>
</defs>
</svg>
