<svg width="36" height="33" viewBox="0 0 36 33" fill="none" xmlns="http://www.w3.org/2000/svg">
<g clip-path="url(#clip0_1530_14412)">
<path d="M5.52197 25.8983L7.52945 29.578L10.4968 29.1613L11.7421 27.1649L9.77338 23.9565H6.47885L5.52197 25.8983Z" fill="#8AECE7"/>
<path d="M14.1739 8.84448L6.81836 13.9944L7.70664 17.9067L10.1423 17.4138L13.2566 9.99137L14.1739 8.84448Z" fill="#8AECE7"/>
<path d="M9.21615 32.1969C8.85019 32.1969 8.5149 31.9784 8.36919 31.638C8.08034 30.9644 7.86562 30.7769 7.15882 30.5827C6.78136 30.4791 6.50997 30.1473 6.48313 29.757C6.45629 29.3668 6.67996 29.0012 7.03996 28.847C7.71352 28.5582 7.90098 28.3434 8.09525 27.6366C8.19878 27.2592 8.53066 26.9878 8.92091 26.9609C9.31158 26.9345 9.6767 27.1582 9.83092 27.5178C10.1198 28.1913 10.3345 28.3788 11.0413 28.5731C11.4188 28.6766 11.6901 29.0085 11.717 29.3983C11.7438 29.7885 11.5202 30.1541 11.1606 30.3083C10.487 30.5972 10.2996 30.8119 10.1053 31.5187C10.0018 31.8961 9.66988 32.1675 9.27963 32.1944C9.25875 32.1956 9.23745 32.1965 9.21658 32.1965L9.21615 32.1969ZM8.57071 29.6143C8.78628 29.751 8.97161 29.9121 9.13606 30.1072C9.27281 29.8916 9.43386 29.7063 9.62898 29.5419C9.41341 29.4055 9.22808 29.2436 9.06363 29.0489C8.92687 29.2645 8.76541 29.4498 8.57071 29.6143ZM10.6566 29.9696C10.6566 29.9696 10.6566 29.9696 10.657 29.9696C10.657 29.9696 10.657 29.9696 10.6566 29.9696Z" fill="#8AECE7"/>
<path d="M3.30355 30.4173L3.15572 28.2611L3.79221 28.2176L3.60391 25.4684C3.45266 23.265 4.69882 21.2349 6.68159 20.3585C6.69863 20.2533 6.72462 20.1502 6.75998 20.0497C6.70587 19.9257 6.65986 19.7928 6.62237 19.6539C6.56997 19.4575 6.53844 19.2581 6.52949 19.0706C6.51075 19.0012 6.492 18.9318 6.47326 18.8623C6.43023 18.7017 6.38933 18.5492 6.348 18.412L6.14308 19.1009L5.89768 17.4206C5.56836 17.9676 5.13636 18.4963 4.57058 18.919C4.26341 19.1486 3.92045 19.3676 3.56854 19.4213C3.16381 19.6829 2.81404 19.5887 2.66407 19.5252C2.44125 19.4306 2.26701 19.2474 2.17413 19.0097C1.96878 18.4857 2.20821 17.8475 2.32069 17.5974C2.47534 17.2536 2.68111 16.9665 2.90819 16.7713C2.94824 16.6704 2.98658 16.5762 3.01981 16.4944C3.06071 16.3939 3.09564 16.3074 3.11737 16.2499C3.19065 16.0539 3.25541 15.8673 3.3125 15.6922C2.67685 15.932 2.05569 16.0965 1.58237 16.1404C0.791644 16.448 0.406507 16.0402 0.303833 15.9014C0.166223 15.7156 0.111264 15.4817 0.149607 15.2427C0.22885 14.7485 0.67917 14.3651 0.940756 14.1806C1.0805 14.0822 1.22407 13.9987 1.36892 13.9326C1.51846 13.833 1.68589 13.7277 1.86781 13.6199C2.25763 13.3877 2.60059 13.1735 2.89924 12.9792C2.83576 12.9264 2.78975 12.8727 2.7595 12.8318C2.62189 12.646 2.56693 12.4121 2.60528 12.1731C2.68452 11.6789 3.13484 11.2955 3.39643 11.111C3.62734 10.9478 3.86933 10.8273 4.09683 10.7604C4.36395 10.5593 4.68646 10.3339 5.05797 10.0885C5.3498 9.89553 5.63695 9.6054 5.92708 9.26457L6.03827 9.13208C6.23894 8.88881 6.44173 8.62424 6.64878 8.35414C7.69854 6.98358 9.00519 5.27816 11.2802 4.72388C11.9086 4.57094 14.0247 4.08909 16.8562 3.79683L17.5728 3.59489C21.0122 2.62566 33.4486 3.649 33.9764 3.6933L34.5362 3.74017L34.6304 4.29401C34.6346 4.31958 35.0666 6.86386 35.439 9.43115C35.6584 10.9449 35.8152 12.1727 35.9042 13.0802C36.0729 14.7971 36.0022 15.2065 35.7185 15.4996C35.5451 15.6785 35.3052 15.7625 35.0603 15.7288C32.0179 15.3168 25.3381 15.2248 23.1428 15.1941C22.7448 15.1886 22.4781 15.1848 22.3503 15.1814H22.3469C21.3082 15.1814 20.4549 14.0745 19.9134 13.124C16.2951 14.6509 14.3034 15.5933 13.0794 17.2715C12.4105 18.1892 11.2483 19.4012 10.253 20.1242C11.1699 20.3973 12.0087 20.9286 12.6559 21.6537C13.4334 22.5245 13.9055 23.6463 13.9851 24.8119L14.17 27.5066L14.8065 27.4631L14.9544 29.6193L14.1142 29.5946C13.1578 29.566 12.2558 29.3441 11.4332 28.9351C10.2948 28.3693 9.54157 27.585 8.86971 26.2263C8.38957 27.6638 7.75051 28.544 6.69991 29.2597C5.94071 29.7769 5.07756 30.1199 4.13432 30.2788L3.30525 30.4181L3.30355 30.4173ZM8.436 20.0501L8.17271 20.4374C8.14417 20.4791 8.10966 20.5469 8.1071 20.6321C8.10625 20.6615 8.10838 20.6913 8.11392 20.7203L8.23449 21.3478L7.62696 21.5455C5.99098 22.078 4.93058 23.6505 5.04859 25.3692L5.24287 28.2044C5.24798 28.2798 5.24713 28.3544 5.23988 28.4281C5.46526 28.3216 5.6804 28.1989 5.88192 28.0617C6.77574 27.4529 7.25887 26.6762 7.6653 25.1975C7.80164 24.7011 8.22213 24.3577 8.73678 24.3224C9.25101 24.287 9.71496 24.5699 9.91776 25.0428C10.5219 26.4526 11.1068 27.1555 12.0752 27.6369C12.2963 27.7469 12.5255 27.8393 12.762 27.9139C12.7449 27.8419 12.7334 27.7673 12.7283 27.691L12.5375 24.9099C12.4177 23.1644 11.1503 21.7291 9.45508 21.4202L8.82838 21.3061L8.86161 20.67C8.86161 20.6632 8.86246 20.6559 8.86289 20.6491C8.86289 20.5226 8.80623 20.4361 8.75766 20.3854L8.43515 20.0497L8.436 20.0501ZM7.97546 18.9407V18.9654C7.97546 19.0562 7.99122 19.1674 8.02104 19.279C8.0628 19.4353 8.12116 19.5512 8.16164 19.6074L8.18549 19.6407L8.94469 19.2432C8.99965 19.2142 9.05759 19.181 9.11809 19.1435L7.97546 18.9407ZM11.333 14.6863C11.2581 14.8222 11.1814 14.9611 11.1034 15.1025C10.4196 16.3393 9.64467 17.7414 9.26635 18.9062C9.24632 18.9675 9.228 19.0268 9.21181 19.0834C10.0102 18.5577 11.192 17.3989 11.9073 16.4177C13.4147 14.3506 15.8009 13.2787 19.8891 11.5618C19.9172 11.5498 19.9454 11.5388 19.9735 11.5273L20.6023 11.2733L20.8971 11.8843C21.6205 13.3839 22.2247 13.7252 22.3435 13.7328H22.3597L22.3648 14.2748L22.381 13.7333C22.4922 13.7367 22.7734 13.7405 23.1624 13.7456C25.4391 13.7771 31.2191 13.8572 34.5384 14.2079C34.5085 13.5692 34.382 12.1991 33.9534 9.28886C33.7016 7.57662 33.4324 5.92403 33.2943 5.09283C31.079 4.92369 22.8842 4.34855 19.1329 4.78055L19.3502 5.03617L17.943 5.1512C14.7362 5.41364 12.2946 5.96791 11.6223 6.13151C9.84363 6.56479 8.80367 7.92214 7.7978 9.23518C7.32277 9.85549 6.86777 10.449 6.35226 10.9108L6.4004 11.1834L7.68703 10.8311L6.52949 11.9145L6.93593 14.2104L6.93806 14.2569L7.1579 15.4029C7.39818 16.6567 7.59373 17.5454 7.70791 17.9063C7.74284 18.0158 7.77565 18.1312 7.80803 18.2475C7.82422 17.7597 7.82379 17.1991 7.82379 16.6171C7.82379 15.4941 7.82294 14.3327 7.93925 13.4355C8.06322 12.4777 8.27198 11.5128 8.95023 10.9419C9.58417 10.4085 10.4512 10.3467 11.3586 10.3275C11.5209 10.3241 11.6726 10.3424 11.8098 10.3816L12.2699 10.5133L12.4697 12.1101L11.872 12.1846L12.4518 12.3942C12.3871 12.5804 12.3053 12.7789 12.2103 12.989L11.3757 15.0254L11.333 14.6863ZM4.99278 14.9372L5.02005 14.9453C4.92888 15.3501 4.75974 15.993 4.47344 16.7577C4.4449 16.8335 4.40656 16.9285 4.36182 17.0389C4.34393 17.0832 4.32518 17.1296 4.30559 17.1773C5.31487 15.9461 5.48315 14.2023 5.48485 14.1819L5.61096 12.7734L5.54876 12.8318C5.5462 12.8343 5.46398 12.9102 5.28973 13.0512L5.47122 12.9485L5.07288 14.5764C5.0422 14.7021 5.01494 14.8231 4.99236 14.9372H4.99278ZM10.9696 11.791C10.4567 11.8191 10.0779 11.886 9.88239 12.0504C9.6468 12.2485 9.49044 12.7334 9.37541 13.6216C9.3098 14.1278 9.28552 14.7562 9.277 15.4212C9.46403 15.074 9.65319 14.7319 9.83553 14.4017C10.3135 13.5373 10.7677 12.7155 11.0101 12.1135L10.9696 11.7914V11.791ZM35.2515 14.2926C35.2515 14.2926 35.2528 14.2926 35.2533 14.2926C35.2528 14.2926 35.252 14.2926 35.2515 14.2926Z" fill="#8AECE7"/>
<path d="M9.58674 20.6844C9.60804 19.984 8.98816 19.4438 8.29756 19.5605C7.78631 19.647 7.39862 20.0918 7.38286 20.6099C7.36156 21.3103 7.98144 21.8505 8.67204 21.7337C9.18329 21.6477 9.57098 21.2025 9.58674 20.6844Z" fill="#FF5B00"/>
<path d="M10.8459 29.2717C9.92819 29.0195 9.53624 28.6783 9.16133 27.8036C9.08763 27.6315 8.83967 27.6485 8.79025 27.8292C8.53804 28.7469 8.19678 29.1388 7.32213 29.5137C7.15001 29.5874 7.16706 29.8354 7.3477 29.8848C8.26538 30.137 8.65733 30.4783 9.03224 31.3529C9.10595 31.525 9.3539 31.508 9.40332 31.3274C9.65553 30.4097 9.99679 30.0177 10.8714 29.6428C11.0436 29.5691 11.0265 29.3211 10.8459 29.2713" fill="#FF5B00"/>
<path d="M13.4493 27.6423L13.2585 24.8616C13.0927 22.4464 11.0576 20.5557 8.6381 20.64C6.09552 20.7282 4.15152 22.9023 4.32406 25.4193L4.51833 28.2546C4.54219 28.606 4.2772 28.9106 3.92529 28.9345L3.96875 29.571L4.00965 29.5642C4.82423 29.427 5.60515 29.1258 6.28766 28.661C7.36766 27.9252 7.92151 26.9926 8.3616 25.3899C8.47919 24.9613 9.07479 24.9204 9.24989 25.329C9.90471 26.8563 10.5808 27.705 11.7507 28.2861C12.4903 28.6537 13.3049 28.8455 14.1306 28.8702L14.1719 28.8715L14.1284 28.235C13.7769 28.2592 13.4723 27.9938 13.4485 27.6423" fill="#FF5B00"/>
<path d="M24.1345 8.81478C24.8822 11.653 23.5137 14.1735 22.519 14.4355C21.5242 14.6975 20.1114 12.6091 19.3642 9.77124C18.6165 6.93298 18.8171 4.4198 19.8119 4.15779C20.8067 3.89578 23.3868 5.97696 24.1345 8.81478Z" fill="#8477D4"/>
<path d="M31.9906 12.7925C31.9906 12.7925 24.1899 10.5409 20.1686 12.2297C16.1476 13.9185 13.8901 14.9274 12.4918 16.845C11.0936 18.7626 7.53831 21.8786 8.57699 18.6829C9.61567 15.4868 13.251 11.0125 11.3735 11.0526C9.49595 11.0926 8.93656 11.3721 8.65708 13.5296C8.37761 15.6866 8.80961 19.7301 8.14797 20.0594C7.48634 20.3883 7.29462 19.0011 7.01685 18.1265C6.7395 17.2514 6.2061 14.2479 6.2061 14.2479C6.2061 14.2479 5.96156 16.9753 4.13642 18.3399C2.38626 19.6483 3.56979 17.1061 3.79516 16.505C4.25358 15.2814 4.39247 14.3923 4.39247 14.3923C2.26868 15.6031 -0.694827 15.9895 2.23715 14.2427C4.25315 13.0417 5.05367 12.3039 5.05367 12.3039C5.05367 12.3039 1.56955 13.2633 5.45585 10.6939C7.18769 9.54868 8.26002 6.20557 11.4497 5.42849C14.6395 4.6514 22.5326 3.42441 28.0127 5.22399C33.4928 7.02356 31.9906 12.7929 31.9906 12.7929" fill="#802E00"/>
<path d="M11.7501 12.1998C11.7501 12.1998 12.4872 10.3857 11.4736 9.99078" stroke="black" stroke-width="0.134201" stroke-linecap="round" stroke-linejoin="round"/>
<path d="M8.48022 20.2355C8.72391 20.3688 9.17764 20.0293 9.4929 19.4771C9.8086 18.925 9.86654 18.369 9.62284 18.2356C9.37915 18.1023 8.92542 18.4418 8.60973 18.994C8.29404 19.5461 8.2361 20.1021 8.47979 20.2355" fill="#FFE4C4"/>
<path d="M7.9033 20.2344C8.09672 20.1781 8.14912 19.7432 8.02046 19.2626C7.89179 18.782 7.63063 18.4378 7.43764 18.494C7.24422 18.5503 7.19182 18.9852 7.32048 19.4658C7.44914 19.9464 7.7103 20.2906 7.90372 20.2344" fill="#FFE4C4"/>
<path d="M2.94715 18.859C3.13247 18.9378 3.44774 18.6336 3.65181 18.1799C3.85588 17.7262 3.87079 17.2942 3.68547 17.2158C3.50014 17.137 3.18487 17.4411 2.9808 17.8949C2.77673 18.3486 2.76182 18.7806 2.94715 18.859Z" fill="#FFE4C4"/>
<path d="M3.33922 12.4005C3.43721 12.5326 3.80743 12.4342 4.16615 12.1807C4.52488 11.9272 4.73662 11.6149 4.63905 11.4829C4.54107 11.3508 4.17084 11.4492 3.81212 11.7027C3.45297 11.9562 3.24166 12.2685 3.33922 12.4005Z" fill="#FFE4C4"/>
<path d="M0.884629 15.4696C0.982617 15.6017 1.35284 15.5033 1.71156 15.2498C2.07029 14.9963 2.28203 14.684 2.18446 14.5519C2.08648 14.4199 1.71625 14.5183 1.35753 14.7718C0.998381 15.0253 0.787067 15.3375 0.884629 15.4696Z" fill="#FFE4C4"/>
<path d="M35.1562 15.011C31.5447 14.5224 23.1633 14.4811 22.3581 14.4572C22.3623 14.4568 22.3794 14.4491 22.4045 14.4376C22.7445 14.2791 23.0286 14.0099 23.1773 13.6652C23.6762 12.5106 23.6391 11.0404 23.1944 9.87731C22.8097 8.87101 22.0232 8.07347 21.1954 7.38415C20.0097 6.39617 18.7457 5.49127 17.7671 4.29283C21.12 3.34789 33.9138 4.41553 33.9138 4.41553C33.9138 4.41553 35.7288 15.0894 35.1557 15.0115" fill="black"/>
<path d="M6.22865 13.3627L4.81592 12.943" stroke="#FF5B00" stroke-width="0.226651" stroke-miterlimit="10"/>
<path d="M6.38456 15.7465L6.28998 15.0981C6.01689 13.2278 6.41907 11.3208 7.42494 9.72063L8.85258 7.44858" stroke="black" stroke-width="0.113326" stroke-linecap="round" stroke-linejoin="round"/>
<path d="M4.25293 14.9484C4.55371 13.2477 5.64095 10.821 5.93108 10.4014" stroke="black" stroke-width="0.113326" stroke-linecap="round" stroke-linejoin="round"/>
<path d="M8.21081 0.976941C7.92153 0.733675 7.83675 0.544942 7.84697 0.167048C7.8491 0.092918 7.75665 0.0575565 7.70894 0.114645C7.46567 0.403924 7.27694 0.488279 6.89904 0.47848C6.82491 0.47635 6.78955 0.568799 6.84664 0.616515C7.13592 0.860208 7.22027 1.04852 7.21047 1.42641C7.20834 1.50054 7.30079 1.5359 7.34851 1.47881C7.5922 1.18953 7.78051 1.10475 8.1584 1.11498C8.23253 1.11711 8.26789 1.02466 8.21081 0.976941Z" fill="#FF9960"/>
<path d="M32.8592 11.7777C32.57 11.5345 32.4852 11.3457 32.4954 10.9678C32.4975 10.8937 32.4051 10.8583 32.3574 10.9154C32.1141 11.2047 31.9254 11.2891 31.5475 11.2793C31.4733 11.2771 31.438 11.3696 31.4951 11.4173C31.7844 11.661 31.8691 11.8493 31.8589 12.2272C31.8568 12.3013 31.9492 12.3367 31.9969 12.2796C32.2406 11.9903 32.4289 11.9055 32.8068 11.9158C32.881 11.9179 32.9163 11.8254 32.8592 11.7777Z" fill="white"/>
</g>
<defs>
<clipPath id="clip0_1530_14412">
<rect width="36" height="32.221" fill="white"/>
</clipPath>
</defs>
</svg>
