<svg width="376" height="283" viewBox="0 0 376 283" fill="none" xmlns="http://www.w3.org/2000/svg">
<path d="M271.374 88.815C273.313 89.668 275.168 90.6498 276.833 91.8926C279.945 94.2218 282.323 97.658 282.225 101.334C282.149 104.127 280.645 106.779 278.514 108.778C276.384 110.776 273.664 112.176 270.848 113.255C272.968 114.655 274.97 116.329 276.049 118.505C277.129 120.681 277.104 123.445 275.437 125.28C273.309 127.623 269.49 127.731 266.165 127.647C267.61 127.682 268.568 132.845 268.634 133.768C268.815 136.278 268.094 138.6 266.722 140.752C263.944 145.107 257.921 147.321 252.622 147.913C246.878 148.557 241.026 147.457 235.636 145.528C232.844 144.529 229.039 142.016 225.993 143.238C224.659 143.774 223.569 144.696 222.386 145.476C218.462 148.056 213.31 149.006 208.599 148.021C204.494 147.161 199.861 143.923 198.565 140.132C196.39 140.679 194.123 141.076 191.884 140.821C189.646 140.567 187.421 139.582 186.189 137.852C185.371 136.699 185.047 135.317 184.834 133.959C184.528 132.01 184.42 130.001 184.949 128.093C185.479 126.185 186.711 124.378 188.584 123.407C186.224 122.561 183.881 121.544 182.025 119.964C180.169 118.383 178.85 116.145 178.972 113.826C179.094 111.507 180.928 109.223 183.431 108.847C179.898 104.812 179.811 98.6328 183.014 94.3715C186.217 90.1101 192.354 87.9725 197.904 88.9578C198.287 84.1986 201.873 80.1635 205.828 77.0546C207.468 75.7664 209.25 74.5514 211.325 73.9978C214.747 73.0822 218.392 74.0883 221.787 75.0875C222.17 75.1989 225.202 73.587 225.899 73.4373C227.577 73.0787 229.338 73.0335 231.041 73.2806C233.666 73.6601 237.75 74.9622 238.568 77.5559C239.222 76.602 240.086 75.8743 241.168 75.3069C247.205 72.1387 255.129 73.211 260.94 76.7169C262.781 77.8275 264.498 79.1992 265.58 80.9608C266.663 82.7224 267.039 84.9192 266.204 86.7888C267.941 87.4259 269.689 88.0735 271.377 88.815H271.374Z" fill="black"/>
<path d="M199.726 109.422C196.454 109.374 193.748 112.886 193.686 117.266C193.62 121.649 196.217 125.242 199.486 125.291C202.759 125.34 205.46 121.827 205.526 117.444C205.592 113.064 202.995 109.471 199.726 109.422ZM199.521 123.522C197.181 123.488 195.326 120.918 195.371 117.785C195.42 114.652 197.352 112.141 199.691 112.176C202.027 112.211 203.887 114.78 203.838 117.914C203.793 121.047 201.86 123.557 199.521 123.522Z" fill="#FF5B00"/>
<path d="M318.57 213.054C317.059 211.331 316.721 210.123 317.125 207.867C317.205 207.421 316.683 207.129 316.345 207.424C314.622 208.935 313.414 209.273 311.158 208.869C310.712 208.789 310.42 209.311 310.715 209.649C312.226 211.372 312.564 212.581 312.16 214.837C312.08 215.282 312.602 215.575 312.94 215.279C314.663 213.768 315.872 213.43 318.128 213.834C318.573 213.914 318.866 213.392 318.57 213.054Z" fill="#FF9260"/>
<path d="M94.1751 272.639C92.6642 270.916 92.3265 269.708 92.7303 267.452C92.8104 267.006 92.2882 266.714 91.9505 267.01C90.2271 268.521 89.0191 268.859 86.7631 268.455C86.3174 268.375 86.025 268.897 86.3209 269.235C87.8319 270.958 88.1696 272.166 87.7657 274.422C87.6857 274.868 88.2079 275.16 88.5456 274.864C90.2689 273.353 91.477 273.015 93.733 273.419C94.1786 273.499 94.4711 272.977 94.1751 272.639Z" fill="#FF9260"/>
<path d="M82.7705 126.721C80.6433 125.868 79.7973 124.942 79.1393 122.745C79.0105 122.313 78.4117 122.285 78.2445 122.703C77.3916 124.83 76.4655 125.676 74.2687 126.334C73.837 126.463 73.8091 127.062 74.2269 127.229C76.3541 128.082 77.2001 129.008 77.8581 131.205C77.9869 131.637 78.5857 131.665 78.7528 131.247C79.6058 129.12 80.5319 128.274 82.7287 127.616C83.1604 127.487 83.1882 126.888 82.7705 126.721Z" fill="#FF9260"/>
<path d="M139.666 258.793C141.285 259.273 142.921 259.507 144.533 259.507C151.496 259.507 157.986 255.221 160.53 248.387L189.301 171.105L249.935 168.08L251.547 192.481L284.865 183.61L279.998 150.714C278.152 141.255 269.32 134.828 259.756 135.97L182.488 145.227C172.73 146.178 164.27 152.382 160.43 161.413L128.971 235.394C124.71 244.825 129.747 255.848 139.666 258.793Z" fill="#1A1A1A"/>
<path d="M150.681 296.795H281.55C271.203 276.662 255.707 251.644 236.837 236.934L238.101 231.991L248.559 199.7L251.546 163.214L219.468 160.004L206.475 166.065L192.03 162.065L175.664 169.394L172.729 188.538L184.026 201.768L150.681 296.795Z" fill="#1A1A1A"/>
<path d="M246.812 89.9398C247.047 74.2979 235.026 61.4343 219.963 61.2082C204.899 60.9821 192.498 73.4791 192.263 89.121C192.028 104.763 204.049 117.626 219.112 117.853C234.175 118.079 246.577 105.582 246.812 89.9398Z" fill="black"/>
<path d="M234.254 141.02L219.541 161.411L209.337 144.662C209.337 144.662 207.495 133.786 206.134 125.611C206.127 125.563 206.12 125.514 206.106 125.462C205.316 120.716 204.689 116.915 204.692 116.747L213.368 113.548L213.884 113.357L228.596 107.932L234.261 141.017L234.254 141.02Z" fill="#8E410F"/>
<path d="M227.05 110.903C227.05 110.903 221.494 118.649 216.853 121.702C213.87 123.662 208.003 125.194 206.106 125.476C205.316 120.731 204.689 116.929 204.692 116.762L213.368 113.563L213.884 113.371L227.054 110.903H227.05Z" fill="#72310B"/>
<path d="M235.154 102.972C235.154 102.972 226.284 120.275 208.131 120.15C189.986 120.021 187.643 108.752 191.946 96.9635C192.454 95.5743 192.847 94.3663 193.154 93.294C193.666 91.501 193.941 90.1049 194.069 88.9526C194.529 84.9349 193.328 83.8313 195.034 79.0512C200.486 64.2515 214.161 68.7461 214.182 68.753C215.846 69.2996 218.307 68.6381 220.045 68.6346C222.228 68.6277 223.756 68.9828 225.518 70.2048C227.419 71.5243 229.5 72.5478 231.44 73.8012C233.365 75.0441 234.691 77.0598 236.648 78.0764C237.508 78.5221 238.451 79.2288 238.392 80.1966C238.354 80.7989 237.926 81.3038 237.779 81.8886C237.494 83.0132 238.277 84.0959 238.932 85.0533C239.235 85.4955 239.527 86.0664 239.276 86.5399C239.068 86.9368 238.545 87.0935 238.333 87.4903C238.041 88.03 238.451 88.6636 238.81 89.1615C239.68 90.3695 238.848 92.3609 238.528 93.6944C238.141 95.2958 237.661 96.8764 237.101 98.4257C236.54 99.9715 235.927 101.521 235.158 102.976L235.154 102.972Z" fill="#8E410F"/>
<path d="M219.146 92.477C219.146 92.477 218.498 94.3884 215.487 95.2901C215.086 95.4119 214.644 95.5163 214.15 95.5929C213.756 95.6556 213.335 95.7043 212.879 95.7322C208.771 95.9794 206.748 94.3118 206.748 94.3118C206.748 94.3118 208.356 90.3846 212.381 89.852C212.548 89.8276 212.715 89.8102 212.889 89.7998C214.477 89.7092 215.737 90.0365 216.698 90.4961C218.376 91.2933 219.142 92.477 219.142 92.477H219.146Z" fill="#FF5B00"/>
<path d="M219.141 93.5687C219.141 93.5687 218.487 95.2677 215.413 96.0684C215.002 96.1764 214.553 96.2704 214.048 96.3365C213.648 96.3922 213.219 96.434 212.753 96.4584C208.561 96.6707 206.493 95.1806 206.493 95.1806C206.493 95.1806 208.126 91.6852 212.234 91.2222C212.405 91.2013 212.575 91.1874 212.753 91.1769C214.372 91.0969 215.66 91.3928 216.642 91.8036C218.358 92.5173 219.141 93.5722 219.141 93.5722V93.5687Z" fill="white"/>
<path d="M217.117 93.4538C217.099 94.6201 216.403 95.6158 215.407 96.0684C215.021 96.2529 214.586 96.3469 214.133 96.3435C214.105 96.3435 214.07 96.3435 214.043 96.3365C212.466 96.2669 211.219 94.9543 211.244 93.3668C211.257 92.5103 211.633 91.7444 212.229 91.2222C212.399 91.2013 212.57 91.1874 212.748 91.1769C214.366 91.0969 215.655 91.3928 216.636 91.8036C216.946 92.2806 217.124 92.848 217.113 93.4538H217.117Z" fill="black"/>
<path d="M206.761 95.0266C206.761 95.0266 210.475 87.2942 219.249 93.3068" stroke="black" stroke-width="0.825111" stroke-linecap="round" stroke-linejoin="round"/>
<path d="M201.494 93.0219C201.494 93.0219 200.533 93.5545 197.556 93.283C197.156 93.2517 196.731 93.189 196.261 93.0915C195.892 93.0114 195.498 92.914 195.074 92.7851C194.437 92.5937 193.869 92.3743 193.364 92.148C193.876 90.3551 194.151 88.959 194.28 87.8066C194.896 87.7648 195.565 87.8136 196.278 87.9807C196.435 88.012 196.592 88.0538 196.752 88.1025C198.217 88.5482 199.262 89.2166 200 89.8955C201.292 91.0722 201.494 93.0219 201.494 93.0219Z" fill="#FF5B00"/>
<path d="M201.443 93.397C201.443 93.397 200.318 94.6991 197.345 94.4275C196.945 94.3962 196.52 94.3335 196.05 94.236C195.681 94.156 195.287 94.0585 194.863 93.9297C194.226 93.7382 193.658 93.5189 193.153 93.2926C193.665 91.4996 193.94 90.1035 194.069 88.9511C194.685 88.9094 195.354 88.9581 196.067 89.1252C196.224 89.1566 196.381 89.1983 196.541 89.2471C198.006 89.6927 199.051 90.3612 199.789 91.04C201.081 92.2168 201.443 93.397 201.443 93.397Z" fill="white"/>
<path d="M200.435 93.3226C199.889 94.273 198.862 94.7744 197.835 94.6908C197.434 94.6665 197.03 94.5446 196.661 94.3322C196.637 94.3183 196.613 94.3044 196.588 94.287C195.324 93.5071 194.9 91.8569 195.648 90.5618C196.052 89.862 196.713 89.4059 197.438 89.2493C197.587 89.3085 197.737 89.3781 197.887 89.4512C199.255 90.1301 200.178 90.9587 200.797 91.749C200.836 92.2851 200.721 92.8317 200.435 93.3261V93.3226Z" fill="black"/>
<path d="M194.187 88.8663C196.282 88.6678 198.946 89.4895 201.633 93.2077" stroke="black" stroke-width="0.77637" stroke-linecap="round" stroke-linejoin="round"/>
<path d="M207.811 106.743C207.936 106.764 207.229 110.367 204.277 110.823C199.918 111.495 198.216 107.324 198.216 107.324C198.216 107.324 201.471 105.657 207.811 106.743Z" fill="#FF27E7"/>
<path d="M198.214 107.321C198.092 107.29 199.105 105.117 202.137 104.887C205.17 104.658 208.174 106.726 208.174 106.726C208.174 106.726 204.446 108.916 198.214 107.321Z" fill="#801478"/>
<path d="M197.483 107.223C197.967 107.38 198.447 107.536 198.942 107.651C199.436 107.766 199.934 107.86 200.435 107.944C201.267 108.083 202.124 108.201 202.97 108.152C204.373 108.072 205.797 107.735 207.12 107.268C207.781 107.035 208.429 106.742 209.017 106.353C209.156 106.259 209.038 106.06 208.888 106.13C208.345 106.377 207.76 106.554 207.189 106.722C206.496 106.927 205.8 107.125 205.093 107.286C204.446 107.432 203.784 107.561 203.123 107.616C202.35 107.682 201.563 107.606 200.797 107.515C200.244 107.449 199.694 107.355 199.144 107.261C198.6 107.167 198.061 107.101 197.514 107.038C197.406 107.024 197.396 107.188 197.49 107.219L197.483 107.223Z" fill="black"/>
<path d="M206.927 90.3585C208.424 89.3245 210.102 88.5725 211.936 88.4472C214.401 88.2766 216.72 89.1087 219.07 89.7075C219.627 89.8502 220.024 89.0216 219.474 88.7466C217.183 87.6047 214.401 86.9153 211.832 87.2322C209.778 87.4863 208.051 88.4785 206.557 89.8746C206.307 90.1079 206.638 90.5535 206.927 90.3551V90.3585Z" fill="black"/>
<path d="M200.111 87.1737C199.662 86.8847 199.23 86.561 198.739 86.3451C198.248 86.1292 197.754 85.9447 197.246 85.7915C196.32 85.513 195.369 85.3529 194.398 85.3668C194.081 85.3738 193.81 85.6314 193.81 85.9552C193.81 86.3068 194.081 86.5018 194.398 86.5435C195.216 86.6515 196.1 86.7315 196.946 86.8708C197.416 86.9474 197.879 87.0518 198.335 87.1772C198.84 87.3164 199.363 87.4139 199.839 87.6332C200.146 87.7725 200.397 87.3652 200.108 87.1772L200.111 87.1737Z" fill="black"/>
<path d="M201.506 88.4258C201.997 88.8541 202.46 89.2962 202.816 89.8428C203.171 90.3894 203.4 90.9534 203.491 91.5696C203.574 92.1406 203.519 92.7185 203.299 93.2512C203.08 93.7838 202.756 94.2643 202.419 94.7238C201.726 95.6778 200.894 96.5655 200.413 97.6518C199.933 98.738 199.825 100.141 200.737 100.984C201.889 102.052 203.815 102.004 205.03 101.071C205.239 100.91 205.068 100.601 204.821 100.715C203.689 101.234 202.144 101.492 201.144 100.545C200.727 100.151 200.626 99.5248 200.664 98.9712C200.702 98.4595 200.901 97.9686 201.148 97.523C201.712 96.4994 202.52 95.6325 203.164 94.6647C203.474 94.2016 203.756 93.7038 203.923 93.1676C204.1 92.6071 204.114 92.0048 204.01 91.4269C203.773 90.1248 202.871 88.7531 201.594 88.2831C201.517 88.2552 201.451 88.3701 201.513 88.4224L201.506 88.4258Z" fill="black"/>
<path d="M95.3873 175.727C95.3873 175.727 85.5138 165.066 82.0532 165.456C75.9432 166.146 53.4389 164.308 50.2011 163.824C46.9634 163.34 39.4294 162.327 44.3627 165.268C47.2105 166.967 50.4205 168.698 52.6242 169.857C53.1012 170.108 54.3476 170.741 54.3476 170.741C51.1272 170.202 43.7395 169.283 38.66 168.252C30.6491 166.626 29.2983 166.421 32.7102 169.439C32.9957 169.693 35.471 170.383 35.0776 170.508C32.4386 171.347 38.66 174.47 38.66 174.47C37.0237 175.8 44.3105 179.261 52.3388 182.484C64.6667 187.432 64.9313 187.09 73.0745 188.518C81.1202 189.928 87.8603 200.076 87.8603 200.076L96.4805 181.416" fill="#8E410F"/>
<path d="M46.3375 165.41C46.492 165.052 45.6581 164.348 44.475 163.838C43.2919 163.329 42.2076 163.206 42.0531 163.564C41.8986 163.923 42.7325 164.627 43.9156 165.136C45.0987 165.646 46.1831 165.769 46.3375 165.41Z" fill="#B57548"/>
<path d="M35.5038 170.014C35.6768 169.66 34.7147 168.835 33.355 168.171C31.9953 167.506 30.7528 167.255 30.5798 167.609C30.4068 167.964 31.3689 168.789 32.7286 169.453C34.0883 170.117 35.3308 170.368 35.5038 170.014Z" fill="#B57548"/>
<path d="M41.575 177.235C41.732 176.983 41.0305 176.262 40.0082 175.623C38.986 174.984 38.03 174.669 37.8731 174.92C37.7161 175.171 38.4176 175.893 39.4399 176.532C40.4621 177.171 41.4181 177.486 41.575 177.235Z" fill="#B57548"/>
<path d="M38.9774 173.73C39.1504 173.376 38.1884 172.55 36.8286 171.886C35.4689 171.222 34.2264 170.971 34.0534 171.325C33.8805 171.679 34.8425 172.505 36.2022 173.169C37.562 173.833 38.8045 174.084 38.9774 173.73Z" fill="#B57548"/>
<path d="M55.9224 175.553L48.7331 174.554C44.9035 174.021 41.1609 172.998 37.5958 171.501L33.627 169.833" stroke="black" stroke-width="0.428222" stroke-linecap="round" stroke-linejoin="round"/>
<path d="M56.3075 180.446L48.3071 178.472C47.6978 178.322 47.106 178.123 46.5281 177.883L38.0576 174.329" stroke="black" stroke-width="0.428222" stroke-linecap="round" stroke-linejoin="round"/>
<path d="M55.3867 170.835C55.3867 170.835 53.5624 170.392 50.7842 168.875" stroke="black" stroke-width="0.518741" stroke-linecap="round" stroke-linejoin="round"/>
<path d="M251.545 192.485L257.161 248.189C258.619 259.511 269.37 268.859 278.826 267.041C287.958 265.287 294.186 257.028 294.186 248.018C294.186 246.932 294.096 245.832 293.908 244.728L284.866 183.615L251.548 192.485H251.545Z" fill="#1A1A1A"/>
<path d="M129.647 254.672L78.501 197.373L95.3896 175.74L151.344 234.705C156.316 239.945 156.761 248.015 152.392 253.77C146.783 261.158 135.827 261.593 129.651 254.672H129.647Z" fill="#1A1A1A"/>
<path d="M331.081 296.798H289.498L260.884 258.55C255.268 251.044 257.041 240.213 264.964 235.2C267.415 233.647 279.197 230.399 281.547 232.902C307.47 260.528 323.861 285.076 331.081 296.798Z" fill="#1A1A1A"/>
<path d="M152.076 236.674L116.944 198.447" stroke="black" stroke-width="0.428222" stroke-linecap="round" stroke-linejoin="round"/>
<path d="M246.331 137.584L265.225 136.139L251.557 197.678L237.345 234.978L260.974 264.766L224.102 284.93L204.63 251.87L184.823 286.716L162.086 264.317L184.033 201.768L172.736 188.539L179.058 145.793L208.961 142.959L214.813 177.694L239.525 138.398L246.331 137.584Z" fill="#37353F"/>
<mask id="mask0_533_8446" style="mask-type:luminance" maskUnits="userSpaceOnUse" x="162" y="136" width="104" height="151">
<path d="M246.675 137.502L265.569 136.06L251.9 197.595L237.689 234.9L261.318 264.684L224.445 284.848L204.973 251.788L185.167 286.634L162.43 264.238L184.377 201.686L173.08 188.457L179.402 145.714L209.304 142.881L215.157 177.612L239.868 138.32L246.675 137.502Z" fill="white"/>
</mask>
<g mask="url(#mask0_533_8446)">
<path d="M178.133 153.261C175.852 152.464 174.919 151.531 174.122 149.251C173.965 148.802 173.335 148.802 173.179 149.251C172.381 151.531 171.448 152.464 169.168 153.261C168.719 153.418 168.719 154.048 169.168 154.205C171.448 155.002 172.381 155.935 173.179 158.215C173.335 158.665 173.965 158.665 174.122 158.215C174.919 155.935 175.852 155.002 178.133 154.205C178.582 154.048 178.582 153.418 178.133 153.261Z" fill="#29282F"/>
<path d="M185.015 149.59V142.516C185.015 136.371 180.189 131.232 174.048 131.027C167.597 130.811 162.295 135.974 162.295 142.38V149.59C162.295 150.485 161.571 151.209 160.676 151.209V152.828L160.78 152.818C162.866 152.612 164.895 151.986 166.706 150.927C169.567 149.253 171.131 146.986 172.527 143.007C172.899 141.941 174.414 141.941 174.786 143.007C176.179 146.99 177.742 149.253 180.607 150.927C182.418 151.989 184.447 152.612 186.533 152.818L186.637 152.828V151.209C185.742 151.209 185.018 150.485 185.018 149.59" fill="#29282F"/>
<path d="M204.095 153.261C201.814 152.464 200.881 151.531 200.084 149.251C199.927 148.802 199.297 148.802 199.14 149.251C198.343 151.531 197.41 152.464 195.13 153.261C194.681 153.418 194.681 154.048 195.13 154.205C197.41 155.002 198.343 155.935 199.14 158.215C199.297 158.665 199.927 158.665 200.084 158.215C200.881 155.935 201.814 155.002 204.095 154.205C204.544 154.048 204.544 153.418 204.095 153.261Z" fill="#29282F"/>
<path d="M210.964 149.59V142.516C210.964 136.371 206.139 131.232 199.997 131.027C193.546 130.811 188.244 135.974 188.244 142.38V149.59C188.244 150.485 187.52 151.209 186.625 151.209V152.828L186.729 152.818C188.815 152.612 190.845 151.986 192.655 150.927C195.517 149.253 197.08 146.986 198.476 143.007C198.848 141.941 200.363 141.941 200.735 143.007C202.128 146.99 203.691 149.253 206.556 150.927C208.367 151.989 210.397 152.612 212.482 152.818L212.586 152.828V151.209C211.692 151.209 210.968 150.485 210.968 149.59" fill="#29282F"/>
<path d="M230.052 153.261C227.771 152.464 226.838 151.531 226.041 149.251C225.884 148.802 225.254 148.802 225.097 149.251C224.3 151.531 223.367 152.464 221.087 153.261C220.638 153.418 220.638 154.048 221.087 154.205C223.367 155.002 224.3 155.935 225.097 158.215C225.254 158.665 225.884 158.665 226.041 158.215C226.838 155.935 227.771 155.002 230.052 154.205C230.501 154.048 230.501 153.418 230.052 153.261Z" fill="#29282F"/>
<path d="M236.921 149.59V142.516C236.921 136.371 232.096 131.232 225.954 131.027C219.503 130.811 214.201 135.974 214.201 142.38V149.59C214.201 150.485 213.477 151.209 212.582 151.209V152.828L212.686 152.818C214.772 152.612 216.802 151.986 218.612 150.927C221.474 149.253 223.037 146.986 224.433 143.007C224.806 141.941 226.32 141.941 226.692 143.007C228.085 146.99 229.648 149.253 232.514 150.927C234.324 151.989 236.354 152.612 238.439 152.818L238.543 152.828V151.209C237.649 151.209 236.925 150.485 236.925 149.59" fill="#29282F"/>
<path d="M256 153.261C253.72 152.464 252.786 151.531 251.989 149.251C251.833 148.802 251.202 148.802 251.046 149.251C250.248 151.531 249.315 152.464 247.035 153.261C246.586 153.418 246.586 154.048 247.035 154.205C249.315 155.002 250.248 155.935 251.046 158.215C251.202 158.665 251.833 158.665 251.989 158.215C252.786 155.935 253.72 155.002 256 154.205C256.449 154.048 256.449 153.418 256 153.261Z" fill="#29282F"/>
<path d="M262.882 149.59V142.516C262.882 136.371 258.057 131.232 251.915 131.027C245.464 130.811 240.162 135.974 240.162 142.38V149.59C240.162 150.485 239.438 151.209 238.543 151.209V152.828L238.647 152.818C240.733 152.612 242.763 151.986 244.573 150.927C247.435 149.253 248.998 146.986 250.394 143.007C250.766 141.941 252.281 141.941 252.653 143.007C254.046 146.99 255.609 149.253 258.474 150.927C260.285 151.989 262.315 152.612 264.4 152.818L264.504 152.828V151.209C263.61 151.209 262.885 150.485 262.885 149.59" fill="#29282F"/>
<path d="M288.844 149.591V142.516C288.844 136.371 284.019 131.233 277.877 131.027C271.426 130.811 266.124 135.974 266.124 142.38V149.591C266.124 150.485 265.4 151.209 264.505 151.209V152.828L264.609 152.818C266.695 152.612 268.724 151.986 270.535 150.927C273.397 149.253 274.96 146.986 276.356 143.007C276.728 141.942 278.243 141.942 278.615 143.007C280.008 146.99 281.571 149.253 284.436 150.927C286.247 151.989 288.276 152.612 290.362 152.818L290.466 152.828V151.209C289.572 151.209 288.847 150.485 288.847 149.591" fill="#29282F"/>
<path d="M178.133 183.35C175.852 182.553 174.919 181.62 174.122 179.34C173.965 178.89 173.335 178.89 173.179 179.34C172.381 181.62 171.448 182.553 169.168 183.35C168.719 183.507 168.719 184.137 169.168 184.294C171.448 185.091 172.381 186.024 173.179 188.304C173.335 188.753 173.965 188.753 174.122 188.304C174.919 186.024 175.852 185.091 178.133 184.294C178.582 184.137 178.582 183.507 178.133 183.35Z" fill="#29282F"/>
<path d="M185.015 179.679V172.605C185.015 166.46 180.189 161.321 174.048 161.116C167.597 160.9 162.295 166.063 162.295 172.469V179.679C162.295 180.574 161.571 181.298 160.676 181.298V182.917L160.78 182.906C162.866 182.701 164.895 182.074 166.706 181.016C169.567 179.341 171.131 177.075 172.527 173.096C172.899 172.03 174.414 172.03 174.786 173.096C176.179 177.078 177.742 179.341 180.607 181.016C182.418 182.078 184.447 182.701 186.533 182.906L186.637 182.917V181.298C185.742 181.298 185.018 180.574 185.018 179.679" fill="#29282F"/>
<path d="M204.095 183.35C201.814 182.553 200.881 181.62 200.084 179.34C199.927 178.891 199.297 178.891 199.14 179.34C198.343 181.62 197.41 182.553 195.13 183.35C194.681 183.507 194.681 184.137 195.13 184.294C197.41 185.091 198.343 186.024 199.14 188.305C199.297 188.754 199.927 188.754 200.084 188.305C200.881 186.024 201.814 185.091 204.095 184.294C204.544 184.137 204.544 183.507 204.095 183.35Z" fill="#29282F"/>
<path d="M210.964 179.679V172.605C210.964 166.46 206.139 161.321 199.997 161.116C193.546 160.9 188.244 166.063 188.244 172.469V179.679C188.244 180.574 187.52 181.298 186.625 181.298V182.917L186.729 182.906C188.815 182.701 190.845 182.074 192.655 181.016C195.517 179.341 197.08 177.075 198.476 173.096C198.848 172.03 200.363 172.03 200.735 173.096C202.128 177.078 203.691 179.341 206.556 181.016C208.367 182.078 210.397 182.701 212.482 182.906L212.586 182.917V181.298C211.692 181.298 210.968 180.574 210.968 179.679" fill="#29282F"/>
<path d="M230.052 183.35C227.771 182.553 226.838 181.62 226.041 179.34C225.884 178.891 225.254 178.891 225.097 179.34C224.3 181.62 223.367 182.553 221.087 183.35C220.638 183.507 220.638 184.137 221.087 184.294C223.367 185.091 224.3 186.024 225.097 188.305C225.254 188.754 225.884 188.754 226.041 188.305C226.838 186.024 227.771 185.091 230.052 184.294C230.501 184.137 230.501 183.507 230.052 183.35Z" fill="#29282F"/>
<path d="M236.921 179.679V172.605C236.921 166.46 232.096 161.321 225.954 161.116C219.503 160.9 214.201 166.063 214.201 172.469V179.679C214.201 180.574 213.477 181.298 212.582 181.298V182.917L212.686 182.906C214.772 182.701 216.802 182.074 218.612 181.016C221.474 179.341 223.037 177.075 224.433 173.096C224.806 172.03 226.32 172.03 226.692 173.096C228.085 177.078 229.648 179.341 232.514 181.016C234.324 182.078 236.354 182.701 238.439 182.906L238.543 182.917V181.298C237.649 181.298 236.925 180.574 236.925 179.679" fill="#29282F"/>
<path d="M256 183.35C253.72 182.553 252.786 181.62 251.989 179.34C251.833 178.89 251.202 178.89 251.046 179.34C250.248 181.62 249.315 182.553 247.035 183.35C246.586 183.507 246.586 184.137 247.035 184.294C249.315 185.091 250.248 186.024 251.046 188.304C251.202 188.753 251.833 188.753 251.989 188.304C252.786 186.024 253.72 185.091 256 184.294C256.449 184.137 256.449 183.507 256 183.35Z" fill="#29282F"/>
<path d="M262.882 179.679V172.605C262.882 166.46 258.057 161.321 251.915 161.116C245.464 160.9 240.162 166.063 240.162 172.469V179.679C240.162 180.574 239.438 181.298 238.543 181.298V182.917L238.647 182.906C240.733 182.701 242.763 182.074 244.573 181.016C247.435 179.341 248.998 177.075 250.394 173.096C250.766 172.03 252.281 172.03 252.653 173.096C254.046 177.078 255.609 179.341 258.474 181.016C260.285 182.078 262.315 182.701 264.4 182.906L264.504 182.917V181.298C263.61 181.298 262.885 180.574 262.885 179.679" fill="#29282F"/>
<path d="M288.844 179.679V172.605C288.844 166.46 284.019 161.321 277.877 161.116C271.426 160.9 266.124 166.063 266.124 172.469V179.679C266.124 180.574 265.4 181.298 264.505 181.298V182.917L264.609 182.906C266.695 182.701 268.724 182.074 270.535 181.016C273.397 179.341 274.96 177.075 276.356 173.096C276.728 172.03 278.243 172.03 278.615 173.096C280.008 177.078 281.571 179.341 284.436 181.016C286.247 182.078 288.276 182.701 290.362 182.906L290.466 182.917V181.298C289.572 181.298 288.847 180.574 288.847 179.679" fill="#29282F"/>
<path d="M178.133 213.435C175.852 212.638 174.919 211.705 174.122 209.425C173.965 208.976 173.335 208.976 173.179 209.425C172.381 211.705 171.448 212.638 169.168 213.435C168.719 213.592 168.719 214.222 169.168 214.379C171.448 215.176 172.381 216.109 173.179 218.39C173.335 218.839 173.965 218.839 174.122 218.39C174.919 216.109 175.852 215.176 178.133 214.379C178.582 214.222 178.582 213.592 178.133 213.435Z" fill="#29282F"/>
<path d="M185.015 209.765V202.69C185.015 196.545 180.189 191.407 174.048 191.201C167.597 190.986 162.295 196.149 162.295 202.554V209.765C162.295 210.659 161.571 211.383 160.676 211.383V213.002L160.78 212.992C162.866 212.787 164.895 212.16 166.706 211.101C169.567 209.427 171.131 207.16 172.527 203.181C172.899 202.116 174.414 202.116 174.786 203.181C176.179 207.164 177.742 209.427 180.607 211.101C182.418 212.163 184.447 212.787 186.533 212.992L186.637 213.002V211.383C185.742 211.383 185.018 210.659 185.018 209.765" fill="#29282F"/>
<path d="M204.095 213.436C201.814 212.638 200.881 211.705 200.084 209.425C199.927 208.976 199.297 208.976 199.14 209.425C198.343 211.705 197.41 212.638 195.13 213.436C194.681 213.592 194.681 214.222 195.13 214.379C197.41 215.176 198.343 216.109 199.14 218.39C199.297 218.839 199.927 218.839 200.084 218.39C200.881 216.109 201.814 215.176 204.095 214.379C204.544 214.222 204.544 213.592 204.095 213.436Z" fill="#29282F"/>
<path d="M210.964 209.765V202.69C210.964 196.545 206.139 191.407 199.997 191.201C193.546 190.986 188.244 196.149 188.244 202.554V209.765C188.244 210.659 187.52 211.383 186.625 211.383V213.002L186.729 212.992C188.815 212.787 190.845 212.16 192.655 211.101C195.517 209.427 197.08 207.16 198.476 203.181C198.848 202.116 200.363 202.116 200.735 203.181C202.128 207.164 203.691 209.427 206.556 211.101C208.367 212.163 210.397 212.787 212.482 212.992L212.586 213.002V211.383C211.692 211.383 210.968 210.659 210.968 209.765" fill="#29282F"/>
<path d="M230.052 213.436C227.771 212.638 226.838 211.705 226.041 209.425C225.884 208.976 225.254 208.976 225.097 209.425C224.3 211.705 223.367 212.638 221.087 213.436C220.638 213.592 220.638 214.222 221.087 214.379C223.367 215.176 224.3 216.109 225.097 218.39C225.254 218.839 225.884 218.839 226.041 218.39C226.838 216.109 227.771 215.176 230.052 214.379C230.501 214.222 230.501 213.592 230.052 213.436Z" fill="#29282F"/>
<path d="M236.921 209.765V202.69C236.921 196.545 232.096 191.407 225.954 191.201C219.503 190.986 214.201 196.149 214.201 202.554V209.765C214.201 210.659 213.477 211.383 212.582 211.383V213.002L212.686 212.992C214.772 212.787 216.802 212.16 218.612 211.101C221.474 209.427 223.037 207.16 224.433 203.181C224.806 202.116 226.32 202.116 226.692 203.181C228.085 207.164 229.648 209.427 232.514 211.101C234.324 212.163 236.354 212.787 238.439 212.992L238.543 213.002V211.383C237.649 211.383 236.925 210.659 236.925 209.765" fill="#29282F"/>
<path d="M256 213.435C253.72 212.638 252.786 211.705 251.989 209.425C251.833 208.976 251.202 208.976 251.046 209.425C250.248 211.705 249.315 212.638 247.035 213.435C246.586 213.592 246.586 214.222 247.035 214.379C249.315 215.176 250.248 216.109 251.046 218.39C251.202 218.839 251.833 218.839 251.989 218.39C252.786 216.109 253.72 215.176 256 214.379C256.449 214.222 256.449 213.592 256 213.435Z" fill="#29282F"/>
<path d="M262.882 209.765V202.69C262.882 196.545 258.057 191.407 251.915 191.201C245.464 190.986 240.162 196.149 240.162 202.554V209.765C240.162 210.659 239.438 211.383 238.543 211.383V213.002L238.647 212.992C240.733 212.787 242.763 212.16 244.573 211.101C247.435 209.427 248.998 207.16 250.394 203.181C250.766 202.116 252.281 202.116 252.653 203.181C254.046 207.164 255.609 209.427 258.474 211.101C260.285 212.163 262.315 212.787 264.4 212.992L264.504 213.002V211.383C263.61 211.383 262.885 210.659 262.885 209.765" fill="#29282F"/>
<path d="M288.844 209.764V202.69C288.844 196.545 284.019 191.407 277.877 191.201C271.426 190.985 266.124 196.148 266.124 202.554V209.764C266.124 210.659 265.4 211.383 264.505 211.383V213.002L264.609 212.992C266.695 212.786 268.724 212.16 270.535 211.101C273.397 209.427 274.96 207.16 276.356 203.181C276.728 202.116 278.243 202.116 278.615 203.181C280.008 207.164 281.571 209.427 284.436 211.101C286.247 212.163 288.276 212.786 290.362 212.992L290.466 213.002V211.383C289.572 211.383 288.847 210.659 288.847 209.764" fill="#29282F"/>
<path d="M178.133 243.536C175.852 242.739 174.919 241.806 174.122 239.525C173.965 239.076 173.335 239.076 173.179 239.525C172.381 241.806 171.448 242.739 169.168 243.536C168.719 243.693 168.719 244.323 169.168 244.479C171.448 245.277 172.381 246.21 173.179 248.49C173.335 248.939 173.965 248.939 174.122 248.49C174.919 246.21 175.852 245.277 178.133 244.479C178.582 244.323 178.582 243.693 178.133 243.536Z" fill="#29282F"/>
<path d="M185.015 239.854V232.78C185.015 226.635 180.189 221.497 174.048 221.291C167.597 221.075 162.295 226.238 162.295 232.644V239.854C162.295 240.749 161.571 241.473 160.676 241.473V243.092L160.78 243.082C162.866 242.876 164.895 242.25 166.706 241.191C169.567 239.517 171.131 237.25 172.527 233.271C172.899 232.206 174.414 232.206 174.786 233.271C176.179 237.254 177.742 239.517 180.607 241.191C182.418 242.253 184.447 242.876 186.533 243.082L186.637 243.092V241.473C185.742 241.473 185.018 240.749 185.018 239.854" fill="#29282F"/>
<path d="M204.095 243.536C201.814 242.739 200.881 241.806 200.084 239.526C199.927 239.076 199.297 239.076 199.14 239.526C198.343 241.806 197.41 242.739 195.13 243.536C194.681 243.693 194.681 244.323 195.13 244.48C197.41 245.277 198.343 246.21 199.14 248.49C199.297 248.939 199.927 248.939 200.084 248.49C200.881 246.21 201.814 245.277 204.095 244.48C204.544 244.323 204.544 243.693 204.095 243.536Z" fill="#29282F"/>
<path d="M210.964 239.854V232.78C210.964 226.635 206.139 221.497 199.997 221.291C193.546 221.075 188.244 226.238 188.244 232.644V239.854C188.244 240.749 187.52 241.473 186.625 241.473V243.092L186.729 243.082C188.815 242.876 190.845 242.25 192.655 241.191C195.517 239.517 197.08 237.25 198.476 233.271C198.848 232.206 200.363 232.206 200.735 233.271C202.128 237.254 203.691 239.517 206.556 241.191C208.367 242.253 210.397 242.876 212.482 243.082L212.586 243.092V241.473C211.692 241.473 210.968 240.749 210.968 239.854" fill="#29282F"/>
<path d="M230.052 243.536C227.771 242.739 226.838 241.806 226.041 239.526C225.884 239.076 225.254 239.076 225.097 239.526C224.3 241.806 223.367 242.739 221.087 243.536C220.638 243.693 220.638 244.323 221.087 244.48C223.367 245.277 224.3 246.21 225.097 248.49C225.254 248.939 225.884 248.939 226.041 248.49C226.838 246.21 227.771 245.277 230.052 244.48C230.501 244.323 230.501 243.693 230.052 243.536Z" fill="#29282F"/>
<path d="M236.921 239.854V232.78C236.921 226.635 232.096 221.497 225.954 221.291C219.503 221.075 214.201 226.238 214.201 232.644V239.854C214.201 240.749 213.477 241.473 212.582 241.473V243.092L212.686 243.082C214.772 242.876 216.802 242.25 218.612 241.191C221.474 239.517 223.037 237.25 224.433 233.271C224.806 232.206 226.32 232.206 226.692 233.271C228.085 237.254 229.648 239.517 232.514 241.191C234.324 242.253 236.354 242.876 238.439 243.082L238.543 243.092V241.473C237.649 241.473 236.925 240.749 236.925 239.854" fill="#29282F"/>
<path d="M256 243.536C253.72 242.739 252.786 241.806 251.989 239.525C251.833 239.076 251.202 239.076 251.046 239.525C250.248 241.806 249.315 242.739 247.035 243.536C246.586 243.693 246.586 244.323 247.035 244.479C249.315 245.277 250.248 246.21 251.046 248.49C251.202 248.939 251.833 248.939 251.989 248.49C252.786 246.21 253.72 245.277 256 244.479C256.449 244.323 256.449 243.693 256 243.536Z" fill="#29282F"/>
<path d="M262.882 239.854V232.78C262.882 226.635 258.057 221.497 251.915 221.291C245.464 221.075 240.162 226.238 240.162 232.644V239.854C240.162 240.749 239.438 241.473 238.543 241.473V243.092L238.647 243.082C240.733 242.876 242.763 242.25 244.573 241.191C247.435 239.517 248.998 237.25 250.394 233.271C250.766 232.206 252.281 232.206 252.653 233.271C254.046 237.254 255.609 239.517 258.474 241.191C260.285 242.253 262.315 242.876 264.4 243.082L264.504 243.092V241.473C263.61 241.473 262.885 240.749 262.885 239.854" fill="#29282F"/>
<path d="M288.844 239.854V232.78C288.844 226.635 284.019 221.496 277.877 221.291C271.426 221.075 266.124 226.238 266.124 232.644V239.854C266.124 240.749 265.4 241.473 264.505 241.473V243.092L264.609 243.082C266.695 242.876 268.724 242.249 270.535 241.191C273.397 239.517 274.96 237.25 276.356 233.271C276.728 232.205 278.243 232.205 278.615 233.271C280.008 237.254 281.571 239.517 284.436 241.191C286.247 242.253 288.276 242.876 290.362 243.082L290.466 243.092V241.473C289.572 241.473 288.847 240.749 288.847 239.854" fill="#29282F"/>
<path d="M178.133 273.61C175.852 272.813 174.919 271.88 174.122 269.599C173.965 269.15 173.335 269.15 173.179 269.599C172.381 271.88 171.448 272.813 169.168 273.61C168.719 273.767 168.719 274.397 169.168 274.553C171.448 275.351 172.381 276.284 173.179 278.564C173.335 279.013 173.965 279.013 174.122 278.564C174.919 276.284 175.852 275.351 178.133 274.553C178.582 274.397 178.582 273.767 178.133 273.61Z" fill="#29282F"/>
<path d="M185.015 269.939V262.864C185.015 256.72 180.189 251.581 174.048 251.375C167.597 251.16 162.295 256.323 162.295 262.729V269.939C162.295 270.833 161.571 271.558 160.676 271.558V273.176L160.78 273.166C162.866 272.961 164.895 272.334 166.706 271.276C169.567 269.601 171.131 267.335 172.527 263.355C172.899 262.29 174.414 262.29 174.786 263.355C176.179 267.338 177.742 269.601 180.607 271.276C182.418 272.337 184.447 272.961 186.533 273.166L186.637 273.176V271.558C185.742 271.558 185.018 270.833 185.018 269.939" fill="#29282F"/>
<path d="M204.095 273.61C201.814 272.813 200.881 271.88 200.084 269.6C199.927 269.15 199.297 269.15 199.14 269.6C198.343 271.88 197.41 272.813 195.13 273.61C194.681 273.767 194.681 274.397 195.13 274.554C197.41 275.351 198.343 276.284 199.14 278.564C199.297 279.013 199.927 279.013 200.084 278.564C200.881 276.284 201.814 275.351 204.095 274.554C204.544 274.397 204.544 273.767 204.095 273.61Z" fill="#29282F"/>
<path d="M210.964 269.939V262.865C210.964 256.72 206.139 251.581 199.997 251.376C193.546 251.16 188.244 256.323 188.244 262.729V269.939C188.244 270.834 187.52 271.558 186.625 271.558V273.177L186.729 273.166C188.815 272.961 190.845 272.334 192.655 271.276C195.517 269.601 197.08 267.335 198.476 263.355C198.848 262.29 200.363 262.29 200.735 263.355C202.128 267.338 203.691 269.601 206.556 271.276C208.367 272.338 210.397 272.961 212.482 273.166L212.586 273.177V271.558C211.692 271.558 210.968 270.834 210.968 269.939" fill="#29282F"/>
<path d="M230.052 273.61C227.771 272.813 226.838 271.88 226.041 269.6C225.884 269.15 225.254 269.15 225.097 269.6C224.3 271.88 223.367 272.813 221.087 273.61C220.638 273.767 220.638 274.397 221.087 274.554C223.367 275.351 224.3 276.284 225.097 278.564C225.254 279.013 225.884 279.013 226.041 278.564C226.838 276.284 227.771 275.351 230.052 274.554C230.501 274.397 230.501 273.767 230.052 273.61Z" fill="#29282F"/>
<path d="M236.921 269.939V262.865C236.921 256.72 232.096 251.581 225.954 251.376C219.503 251.16 214.201 256.323 214.201 262.729V269.939C214.201 270.834 213.477 271.558 212.582 271.558V273.177L212.686 273.166C214.772 272.961 216.802 272.334 218.612 271.276C221.474 269.601 223.037 267.335 224.433 263.355C224.806 262.29 226.32 262.29 226.692 263.355C228.085 267.338 229.648 269.601 232.514 271.276C234.324 272.338 236.354 272.961 238.439 273.166L238.543 273.177V271.558C237.649 271.558 236.925 270.834 236.925 269.939" fill="#29282F"/>
<path d="M256 273.61C253.72 272.813 252.786 271.88 251.989 269.599C251.833 269.15 251.202 269.15 251.046 269.599C250.248 271.88 249.315 272.813 247.035 273.61C246.586 273.767 246.586 274.397 247.035 274.553C249.315 275.351 250.248 276.284 251.046 278.564C251.202 279.013 251.833 279.013 251.989 278.564C252.786 276.284 253.72 275.351 256 274.553C256.449 274.397 256.449 273.767 256 273.61Z" fill="#29282F"/>
<path d="M262.882 269.939V262.864C262.882 256.72 258.057 251.581 251.915 251.375C245.464 251.16 240.162 256.323 240.162 262.729V269.939C240.162 270.833 239.438 271.558 238.543 271.558V273.176L238.647 273.166C240.733 272.961 242.763 272.334 244.573 271.276C247.435 269.601 248.998 267.335 250.394 263.355C250.766 262.29 252.281 262.29 252.653 263.355C254.046 267.338 255.609 269.601 258.474 271.276C260.285 272.337 262.315 272.961 264.4 273.166L264.504 273.176V271.558C263.61 271.558 262.885 270.833 262.885 269.939" fill="#29282F"/>
<path d="M288.844 269.939V262.865C288.844 256.72 284.019 251.581 277.877 251.376C271.426 251.16 266.124 256.323 266.124 262.729V269.939C266.124 270.834 265.4 271.558 264.505 271.558V273.177L264.609 273.166C266.695 272.961 268.724 272.334 270.535 271.276C273.397 269.601 274.96 267.335 276.356 263.355C276.728 262.29 278.243 262.29 278.615 263.355C280.008 267.338 281.571 269.601 284.436 271.276C286.247 272.338 288.276 272.961 290.362 273.166L290.466 273.177V271.558C289.572 271.558 288.847 270.834 288.847 269.939" fill="#29282F"/>
</g>
<path d="M201.442 142.962L207.817 135.731L208.952 142.962L221.562 148.923L234.248 141.027L233.051 132.553L239.516 137.204L254.458 136.612L212.663 195.895L201.442 142.962Z" fill="#FFDDBD"/>
<path d="M236.978 156.307L220.033 148.181L235.564 139.742L236.978 156.307Z" fill="#FF5B00"/>
<path d="M206.161 156.307L223.102 148.181L207.571 139.742L206.161 156.307Z" fill="#FF5B00"/>
<path d="M221.568 148.924L212.669 195.896" stroke="black" stroke-width="0.44563" stroke-miterlimit="10"/>
<path d="M217.368 190.694L202.464 207.14L204.619 251.867" stroke="black" stroke-width="0.44563" stroke-miterlimit="10"/>
<path d="M217.375 157.714C218.15 157.714 218.778 157.086 218.778 156.311C218.778 155.536 218.15 154.908 217.375 154.908C216.6 154.908 215.972 155.536 215.972 156.311C215.972 157.086 216.6 157.714 217.375 157.714Z" stroke="#1A1A1A" stroke-width="0.348148" stroke-miterlimit="10"/>
<path d="M216.12 163.667C216.895 163.667 217.523 163.039 217.523 162.264C217.523 161.489 216.895 160.861 216.12 160.861C215.345 160.861 214.717 161.489 214.717 162.264C214.717 163.039 215.345 163.667 216.12 163.667Z" stroke="#1A1A1A" stroke-width="0.348148" stroke-miterlimit="10"/>
<path d="M215.406 169.011C216.181 169.011 216.809 168.383 216.809 167.608C216.809 166.833 216.181 166.205 215.406 166.205C214.631 166.205 214.003 166.833 214.003 167.608C214.003 168.383 214.631 169.011 215.406 169.011Z" stroke="#1A1A1A" stroke-width="0.348148" stroke-miterlimit="10"/>
<path d="M214.629 174.739C215.403 174.739 216.032 174.111 216.032 173.336C216.032 172.562 215.403 171.933 214.629 171.933C213.854 171.933 213.226 172.562 213.226 173.336C213.226 174.111 213.854 174.739 214.629 174.739Z" stroke="#1A1A1A" stroke-width="0.348148" stroke-miterlimit="10"/>
<path d="M207.824 215.554C209.328 215.554 210.547 214.335 210.547 212.831C210.547 211.328 209.328 210.109 207.824 210.109C206.32 210.109 205.102 211.328 205.102 212.831C205.102 214.335 206.32 215.554 207.824 215.554Z" fill="#1A1A1A"/>
<path d="M208.884 225.559C210.387 225.559 211.606 224.34 211.606 222.837C211.606 221.333 210.387 220.114 208.884 220.114C207.38 220.114 206.161 221.333 206.161 222.837C206.161 224.34 207.38 225.559 208.884 225.559Z" fill="#1A1A1A"/>
<path d="M208.884 235.629C210.387 235.629 211.606 234.41 211.606 232.906C211.606 231.402 210.387 230.184 208.884 230.184C207.38 230.184 206.161 231.402 206.161 232.906C206.161 234.41 207.38 235.629 208.884 235.629Z" fill="#1A1A1A"/>
<path d="M209.227 246.856C210.731 246.856 211.95 245.637 211.95 244.133C211.95 242.63 210.731 241.411 209.227 241.411C207.724 241.411 206.505 242.63 206.505 244.133C206.505 245.637 207.724 246.856 209.227 246.856Z" fill="#1A1A1A"/>
<path d="M203.576 74.5652C203.74 72.7931 204.969 71.2926 206.267 70.1611C210.181 66.9443 215.956 66.1191 220.628 68.0026C217.513 69.6842 214.153 70.478 210.846 71.5781C208.332 72.4276 205.884 73.1587 203.576 74.5652Z" fill="black"/>
<path d="M198.216 74.5652C198.379 72.7931 199.608 71.2926 200.907 70.1611C204.82 66.9443 210.596 66.1191 215.268 68.0026C212.152 69.6842 208.793 70.478 205.485 71.5781C202.972 72.4276 200.524 73.1587 198.216 74.5652Z" fill="black"/>
<path d="M210.035 74.5374C210.435 72.7409 211.744 71.3379 213.123 70.2099C217.294 67.0522 223.156 66.1609 228.027 68.0409C225.123 69.5693 221.941 70.3596 218.895 71.3449C215.863 72.2814 212.917 73.1413 210.031 74.5374H210.035Z" fill="black"/>
<path d="M216.365 74.832C216.81 73.1121 218.262 71.8205 219.721 70.9083C224.097 68.3529 229.932 68.4469 234.249 71.0476C230.903 72.2174 227.46 72.468 224.017 73.032C221.396 73.4742 218.868 73.8119 216.361 74.832H216.365Z" fill="black"/>
<path d="M221.461 76.1609C222.397 74.1033 224.657 72.9892 226.742 72.4287C231.278 71.3634 236.403 72.6167 239.738 75.9241C236.417 76.5299 233.162 76.2201 229.858 76.0912C227.02 75.9868 224.319 75.7396 221.457 76.1574L221.461 76.1609Z" fill="black"/>
<path d="M224.395 79.1043C225.321 77.5168 227.152 76.6916 228.872 76.2669C232.249 75.5079 235.845 76.3365 238.773 78.0982C240.232 79.0417 241.516 80.1453 242.491 81.6284C240.764 81.7711 239.191 81.5971 237.561 81.3638C233.081 80.8102 228.927 79.3724 224.395 79.1043Z" fill="black"/>
<path d="M227.494 83.4072C228.333 82.2757 229.715 81.7152 231.041 81.388C234.06 80.73 237.256 81.5446 239.86 83.1113C242.071 84.483 243.919 86.3839 244.915 88.8314C243.961 88.807 243.129 88.6538 242.328 88.4763C238.885 87.7939 235.184 86.1924 231.922 84.9217C230.415 84.3437 229.147 83.8006 227.49 83.4072H227.494Z" fill="black"/>
<path d="M230.326 88.1478C231.395 87.2704 232.84 87.0511 234.184 87.0337C237.24 87.079 240.144 88.5481 242.355 90.5952C244.214 92.3673 245.641 94.5641 246.177 97.1126C245.279 96.8619 244.52 96.5172 243.793 96.1552C238.981 93.9061 235.134 90.4038 230.326 88.1478Z" fill="black"/>
<path d="M243.783 96.2442C245.753 100.098 242.401 106.73 237.464 109.258C232.527 111.786 226.971 111.152 224.997 107.298C223.026 103.444 226.337 96.3696 231.274 93.842C236.211 91.3145 241.809 92.3902 243.783 96.2442Z" fill="#8F410F"/>
<path d="M232.375 108.932C229.102 108.883 226.397 112.396 226.334 116.775C226.268 121.159 228.865 124.752 232.134 124.8C235.407 124.849 238.109 121.336 238.175 116.953C238.241 112.573 235.644 108.98 232.375 108.932ZM232.169 123.032C229.83 122.997 227.974 120.428 228.019 117.294C228.068 114.161 230 111.651 232.34 111.686C234.676 111.72 236.535 114.29 236.486 117.423C236.441 120.556 234.509 123.066 232.169 123.032Z" fill="#FF5B00"/>
<path d="M229.649 102.279C230.064 101.687 230.589 101.148 231.125 100.667C231.662 100.187 232.285 99.7968 232.932 99.4696C234.415 98.721 236.097 98.4391 237.747 98.4425C238.252 98.4425 238.757 98.4634 239.258 98.5017C239.502 98.5226 239.746 98.54 239.989 98.5574C240.268 98.5783 240.522 98.5644 240.797 98.54C240.964 98.5261 241.086 98.2685 240.894 98.1849C240.675 98.0874 240.473 97.9934 240.236 97.9447C240 97.8959 239.756 97.8576 239.512 97.8263C239.035 97.7602 238.551 97.7288 238.071 97.7114C237.117 97.6801 236.153 97.7567 235.216 97.9377C233.615 98.2476 232.086 98.9508 230.885 100.061C230.231 100.664 229.764 101.367 229.444 102.196C229.399 102.317 229.576 102.373 229.642 102.279H229.649Z" fill="black"/>
<path d="M234.347 98.6348C234.364 98.8889 234.493 99.1048 234.611 99.3276C234.737 99.5608 234.855 99.8011 234.959 100.048C235.165 100.532 235.321 101.047 235.37 101.573C235.468 102.593 235.06 103.505 234.427 104.282C234.256 104.491 234.482 104.877 234.744 104.693C235.687 104.024 236.14 102.816 236.049 101.685C236 101.082 235.805 100.508 235.534 99.9716C235.398 99.7001 235.241 99.4425 235.074 99.1883C234.918 98.9516 234.757 98.6835 234.496 98.5512C234.434 98.5199 234.336 98.5582 234.343 98.6382L234.347 98.6348Z" fill="black"/>
<path d="M122.632 163.216C122.998 155.118 99.8746 147.494 70.9837 146.187C42.0929 144.88 18.3753 150.385 18.009 158.484C17.6427 166.582 40.7663 174.206 69.6572 175.513C98.548 176.82 122.266 171.314 122.632 163.216Z" fill="#FFDDBD"/>
<path d="M112.111 162.508C112.404 156.038 93.9323 149.948 70.8538 148.904C47.7754 147.86 28.8293 152.258 28.5367 158.727C28.2441 165.196 46.7156 171.287 69.7941 172.331C92.8726 173.375 111.819 168.977 112.111 162.508Z" stroke="#FF5B00" stroke-width="0.348148" stroke-miterlimit="10"/>
<path d="M98.1026 155.594V156.346C98.1026 157.021 97.664 157.617 97.0199 157.818L65.5438 167.65C64.3532 168.023 63.0755 168.037 61.8743 167.688L40.8392 161.603C40.1778 161.411 39.7217 160.806 39.7217 160.113V159.396L42.9386 160.325L74.3938 151.002L94.8823 156.6L98.1026 155.594Z" fill="#29282F"/>
<path d="M39.7217 159.394L73.7323 149.312C74.164 149.183 74.6235 149.18 75.0587 149.298L98.1026 155.596L65.5995 165.751C64.3706 166.134 63.0581 166.148 61.8256 165.79L39.7252 159.394H39.7217Z" fill="#84E6E1"/>
<path d="M78.6319 150.279L77.6745 150.672C77.1244 150.899 77.1731 151.692 77.7476 151.849L86.1658 154.164C86.9248 154.373 87.7325 154.345 88.474 154.081L90.2496 153.454L78.6319 150.279Z" fill="#37353F"/>
<path d="M51.0579 161.664L56.5238 163.287C56.677 163.332 56.8406 163.304 56.966 163.21L56.9869 163.196C57.3315 162.949 57.241 162.409 56.8337 162.291L51.3469 160.683C51.2355 160.651 51.1171 160.655 51.0092 160.7C50.5635 160.885 50.5983 161.525 51.0579 161.661V161.664Z" fill="#37353F"/>
</svg>
