<svg width="168" height="66" viewBox="0 0 168 66" fill="none" xmlns="http://www.w3.org/2000/svg">
<path d="M60.853 8.4126H71.7714C76.0379 8.4126 79.0783 11.0666 79.0783 14.7956C79.0783 17.4118 77.4615 19.6417 74.8495 20.4102C77.9235 21.1787 79.9223 23.5639 79.9223 26.6378C79.9223 30.5979 76.924 33.403 72.6952 33.403H60.853V8.4126ZM71.4648 19.1C73.9635 19.1 75.7692 17.4874 75.7692 15.2954C75.7692 13.1033 73.9635 11.4907 71.4648 11.4907H64.0823V19.1042H71.4648V19.1ZM72.0779 30.2493C74.6941 30.2493 76.6132 28.557 76.6132 26.2137C76.6132 23.8705 74.6899 22.1781 72.0779 22.1781H64.0823V30.2535H72.0779V30.2493Z" fill="#8FF1EC"/>
<path d="M81.6528 23.7911C81.6528 17.9078 85.4995 13.7168 90.8789 13.7168C96.7622 13.7168 100.374 18.6007 99.9159 25.0593H85.0753C85.6128 28.444 87.9981 30.7872 91.2652 30.7872C93.8814 30.7872 95.9559 29.2503 96.4178 27.096L99.7227 28.171C98.7989 31.5557 95.3386 33.8612 91.1896 33.8612C85.617 33.8612 81.6528 29.6702 81.6528 23.7869V23.7911ZM96.6488 22.0609C96.1868 18.8316 93.8814 16.7151 90.9586 16.7151C88.0359 16.7151 85.6548 18.9072 85.1131 22.0609H96.6488Z" fill="#8FF1EC"/>
<path d="M101.685 28.3306C101.685 25.6766 103.802 23.5265 107.069 22.947L112.99 21.872C113.645 21.7586 114.145 21.2589 114.145 20.6416C114.145 18.2185 112.49 16.4884 110.147 16.4884C107.686 16.4884 105.842 18.2563 105.687 20.9481L102.302 20.5618C102.689 16.564 105.876 13.7168 109.991 13.7168C114.107 13.7168 117.219 16.6774 117.219 20.7927V29.5568L117.294 33.4034H114.833L114.296 30.4807C113.103 32.5551 110.798 33.8654 107.993 33.8654C104.188 33.8654 101.689 31.6733 101.689 28.3306H101.685ZM108.606 30.867C111.835 30.867 114.14 28.6371 114.14 25.5632V24.2194C113.796 24.295 113.372 24.4126 112.91 24.4882L107.837 25.412C106.145 25.7186 105.07 26.7978 105.07 28.1794C105.07 29.7962 106.456 30.8712 108.606 30.8712V30.867Z" fill="#8FF1EC"/>
<path d="M120.481 26.3309V14.1821H123.555V25.869C123.555 28.6741 125.671 30.715 128.627 30.715C131.781 30.715 134.011 28.4474 134.011 25.2559V14.1821H137.085V29.5602L137.16 33.4068H134.469L134.007 30.3329C133.163 32.4872 130.853 33.8688 127.93 33.8688C123.546 33.8688 120.472 30.7948 120.472 26.3351L120.481 26.3309Z" fill="#8FF1EC"/>
<path d="M142.204 29.2495V17.1764H139.13V14.178H140.285C141.553 14.178 142.36 13.2541 142.36 11.7928V9.25635H145.282V14.178H149.587V17.1764H145.282V28.481C145.282 30.6353 147.512 31.2484 149.511 30.4799L149.667 33.5539C146.437 34.4777 142.208 33.5539 142.208 29.2495H142.204Z" fill="#8FF1EC"/>
<path d="M156.464 35.5569L157.539 32.7895L150.005 14.1821H153.621L159.236 28.9471L164.464 14.1821H168L159.542 36.1742C158.35 39.2481 156.237 41.247 153.621 41.5578L152.777 38.3285C154.469 38.1731 155.775 37.329 156.468 35.5611L156.464 35.5569Z" fill="#8FF1EC"/>
<path d="M60.8535 40.0342H71.7719C76.0384 40.0342 79.0788 42.6882 79.0788 46.4172C79.0788 49.0334 77.462 51.2633 74.85 52.0318C77.9239 52.8003 79.9228 55.1855 79.9228 58.2594C79.9228 62.2194 76.9245 65.0246 72.6957 65.0246H60.8535V40.0342ZM71.4653 50.7216C73.9639 50.7216 75.7697 49.109 75.7697 46.9169C75.7697 44.7249 73.9639 43.1123 71.4653 43.1123H64.0828V50.7258H71.4653V50.7216ZM72.0784 61.8709C74.6946 61.8709 76.6137 60.1785 76.6137 57.8353C76.6137 55.492 74.6904 53.7997 72.0784 53.7997H64.0828V61.8751H72.0784V61.8709Z" fill="#8FF1EC"/>
<path d="M82.422 57.9525V45.8037H85.4959V57.4905C85.4959 60.2957 87.6124 62.3366 90.5687 62.3366C93.7225 62.3366 95.9523 60.069 95.9523 56.8774V45.8037H99.0263V61.1818L99.1018 65.0284H96.41L95.9481 61.9545C95.104 64.1087 92.7944 65.4903 89.8716 65.4903C85.4875 65.4903 82.4136 62.4164 82.4136 57.9567L82.422 57.9525Z" fill="#8FF1EC"/>
<path d="M104.14 60.8706V48.7974H101.066V45.7991H102.221C103.489 45.7991 104.296 44.8752 104.296 43.4139V40.8774H107.218V45.7991H111.523V48.7974H107.218V60.1021C107.218 62.2564 109.448 62.8695 111.447 62.101L111.603 65.175C108.373 66.0988 104.145 65.175 104.145 60.8706H104.14Z" fill="#8FF1EC"/>
<path d="M114.329 38.8828H117.403V65.0281H114.329V38.8828Z" fill="#8FF1EC"/>
<path d="M120.367 55.4122C120.367 49.5289 124.214 45.3379 129.593 45.3379C135.477 45.3379 139.088 50.2218 138.626 56.6804H123.786C124.323 60.0651 126.709 62.4083 129.976 62.4083C132.592 62.4083 134.666 60.8713 135.128 58.7171L138.433 59.7921C137.509 63.1768 134.049 65.4822 129.9 65.4822C124.323 65.4822 120.363 61.2913 120.363 55.408L120.367 55.4122ZM135.363 53.682C134.901 50.4527 132.596 48.3362 129.673 48.3362C126.751 48.3362 124.369 50.5283 123.828 53.682H135.363Z" fill="#8FF1EC"/>
<path d="M141.625 45.8038H144.241L144.547 48.8777C145.509 46.0725 148.469 44.7245 151.774 45.6484L151.619 49.2641C148.545 47.7271 144.698 48.9953 144.698 53.3416V65.0285H141.625V45.8038Z" fill="#8FF1EC"/>
<path d="M152.735 62.7942C152.735 61.3329 153.773 60.2578 155.196 60.2578C156.62 60.2578 157.657 61.3329 157.657 62.7942C157.657 64.2556 156.62 65.3307 155.196 65.3307C153.773 65.3307 152.735 64.2556 152.735 62.7942Z" fill="#8FF1EC"/>
<path d="M29.4717 6.26651C29.7992 2.95741 27.0402 0.198424 23.7311 0.525974C21.2829 0.769537 19.3008 2.74744 19.0572 5.19987C18.7297 8.50897 21.4887 11.268 24.7978 10.9404C27.246 10.6968 29.2281 8.71894 29.4717 6.26651Z" fill="#8FF1EC"/>
<path d="M32.6499 55.5587C28.3876 54.0679 26.6448 52.321 25.1499 48.0586C24.8559 47.2187 23.6759 47.2187 23.3819 48.0586C21.8912 52.321 20.1442 54.0637 15.8819 55.5587C15.042 55.8526 15.042 57.0327 15.8819 57.3266C20.1442 58.8174 21.887 60.5643 23.3819 64.8267C23.6759 65.6666 24.8559 65.6666 25.1499 64.8267C26.6406 60.5643 28.3876 58.8216 32.6499 57.3266C33.4898 57.0327 33.4898 55.8526 32.6499 55.5587Z" fill="#8FF1EC"/>
<path d="M45.5085 48.6885V35.4605C45.5085 23.9711 36.4841 14.3587 25.003 13.9724C12.9382 13.565 3.02773 23.2278 3.02773 35.2002V48.6885C3.02773 50.3599 1.67135 51.7163 0 51.7163V54.744L0.197358 54.723C4.09857 54.3367 7.8948 53.1651 11.2753 51.1872C16.6253 48.0544 19.5522 43.8173 22.1558 36.3718C22.8529 34.3813 25.6875 34.3813 26.3804 36.3718C28.984 43.8173 31.911 48.0544 37.261 51.1872C40.6456 53.1693 44.4377 54.3409 48.3389 54.723L48.5362 54.744V51.7163C46.8649 51.7163 45.5085 50.3599 45.5085 48.6885Z" fill="#8FF1EC"/>
</svg>
