<svg width="470" height="392" viewBox="0 0 470 392" fill="none" xmlns="http://www.w3.org/2000/svg">
<path d="M346.928 257.628H430.448V386.12H346.928V257.628Z" fill="#FEFDFD"/>
<path d="M390.236 276.236H396.06V305.355H390.236V276.236Z" fill="#F0E8DB"/>
<path d="M391.218 278.187H395.073V285.898H391.218V278.187Z" fill="#37353F"/>
<path d="M391.863 297.463C391.863 298.172 392.441 298.749 393.15 298.749C393.859 298.749 394.437 298.172 394.437 297.463C394.437 296.754 393.859 296.176 393.15 296.176C392.441 296.176 391.863 296.754 391.863 297.463Z" fill="#FF5B00"/>
<path d="M370.046 320.589H377.893V344.412H370.046V320.589Z" fill="#B2AD0D"/>
<path d="M371.396 322.972H376.538V324.258H371.396V322.972Z" fill="#D4CB61"/>
<path d="M372.487 334.743H375.447L376.929 337.302L375.447 339.866H372.487L371.009 337.302L372.487 334.743Z" fill="#D4CB61"/>
<path d="M375.556 333.183H372.383C371.873 333.183 371.869 332.387 372.383 332.387H375.556C376.065 332.387 376.07 333.183 375.556 333.183Z" fill="#D4CB61"/>
<path d="M375.446 330.996H372.496C371.987 330.996 371.982 330.201 372.496 330.201H375.446C375.956 330.201 375.96 330.996 375.446 330.996Z" fill="#D4CB61"/>
<path d="M393.677 343.885V338.062H422.796V343.885H393.677Z" fill="#ED9618"/>
<path d="M414.518 273.049H420.341V302.168H414.518V273.049Z" fill="#F0E8DB"/>
<path d="M410.317 277.068H414.477V302.859H410.317V277.068Z" fill="#37353F"/>
<path d="M402.829 267.084H407.821V303.691H402.829V267.084Z" fill="#FF84EE"/>
<path d="M400.127 277.77L402.612 278L400.311 302.853L397.826 302.623L400.127 277.77Z" fill="#37353F"/>
<path d="M354.038 302.477V296.653H383.157V302.477H354.038Z" fill="#EBA88A"/>
<path d="M354.657 296.653V292.016H383.776V296.653H354.657Z" fill="#FF84EE"/>
<path d="M380.007 320.631H382.866V344.453H380.007V320.631Z" fill="#913757"/>
<path d="M358.081 324.714L363.472 323.177L369.259 343.467L363.869 345.004L358.081 324.714Z" fill="#3D71A9"/>
<path d="M352.915 315.057H359.644V345.008H352.915V315.057Z" fill="#B2AD0D"/>
<path d="M381.998 356.933H388.726V386.884H381.998V356.933Z" fill="#913757"/>
<path d="M391.541 362.757H398.196V386.884H391.541V362.757Z" fill="#913757"/>
<path d="M398.428 364.42H405.138V386.884H398.428V364.42Z" fill="#913757"/>
<path d="M400.27 369.417C400.27 370.836 400.947 371.986 401.783 371.986C402.62 371.986 403.297 370.836 403.297 369.417C403.297 367.999 402.62 366.849 401.783 366.849C400.947 366.849 400.27 367.999 400.27 369.417Z" fill="#AB6680"/>
<path d="M399.192 383.552H404.334V384.838H399.192V383.552Z" fill="#AB6680"/>
<path d="M417.181 339.552C415.763 339.552 414.613 340.23 414.613 341.066C414.613 341.903 415.763 342.58 417.181 342.58C418.6 342.58 419.75 341.903 419.75 341.066C419.75 340.23 418.6 339.552 417.181 339.552Z" fill="#EBAC61"/>
<path d="M410.758 338.493V343.635H409.471V338.493H410.758Z" fill="#EBAC61"/>
<path d="M396.623 338.493V343.635H395.336V338.493H396.623Z" fill="#EBAC61"/>
<path d="M403.693 338.493V343.635H402.406V338.493H403.693Z" fill="#EBAC61"/>
<path d="M411.308 380.982H413.858V383.551H411.308V380.982Z" fill="#EDB84B"/>
<path d="M435.14 257.632V391.625H348.342V386.052H429.802L429.73 349.863H348.064L348.205 386.124L348.224 391.625H342.241V257.632H435.14ZM429.652 307.851H347.901L348.042 344.039H429.72L429.652 307.851ZM429.598 265.338H347.792L347.878 302.027H429.639L429.598 265.338Z" fill="#FFDDBD"/>
<path d="M395.337 337.602V333.442H424.456V337.602H395.337Z" fill="#3D71A9"/>
<path d="M410.294 334.879H421.86V336.166H410.294V334.879Z" fill="#5F8ABD"/>
<path d="M396.805 334.879H398.092V336.166H396.805V334.879Z" fill="#5F8ABD"/>
<path d="M394.264 333.292V327.468H415.895V333.292H394.264Z" fill="#B2AD0D"/>
<path d="M409.471 330.378C409.471 331.442 410.335 332.305 411.399 332.305C412.463 332.305 413.327 331.442 413.327 330.378C413.327 329.314 412.463 328.45 411.399 328.45C410.335 328.45 409.471 329.314 409.471 330.378Z" fill="#D4CB61"/>
<path d="M396.623 331.515C396.623 331.869 396.91 332.156 397.264 332.156C397.619 332.156 397.905 331.869 397.905 331.515C397.905 331.16 397.619 330.874 397.264 330.874C396.91 330.874 396.623 331.16 396.623 331.515Z" fill="#D4CB61"/>
<path d="M396.623 328.941C396.623 329.296 396.91 329.582 397.264 329.582C397.619 329.582 397.905 329.296 397.905 328.941C397.905 328.587 397.619 328.3 397.264 328.3C396.91 328.3 396.623 328.587 396.623 328.941Z" fill="#D4CB61"/>
<path d="M399.192 330.228C399.192 330.583 399.478 330.869 399.833 330.869C400.187 330.869 400.474 330.583 400.474 330.228C400.474 329.873 400.187 329.587 399.833 329.587C399.478 329.587 399.192 329.873 399.192 330.228Z" fill="#D4CB61"/>
<path d="M358.403 316.998H355.998C355.789 316.998 355.588 316.816 355.602 316.603C355.611 316.389 355.775 316.207 355.998 316.207H358.403C358.612 316.207 358.812 316.389 358.798 316.603C358.789 316.816 358.625 316.998 358.403 316.998Z" fill="#D4CB61"/>
<path d="M356.871 343.353H354.029C353.815 343.353 353.634 343.171 353.634 342.957C353.634 342.743 353.815 342.562 354.029 342.562H356.871C357.084 342.562 357.266 342.743 357.266 342.957C357.266 343.171 357.084 343.353 356.871 343.353Z" fill="#D4CB61"/>
<path d="M358.471 320.976V330.6C358.471 331.11 357.675 331.114 357.675 330.6V320.976C357.675 320.467 358.471 320.462 358.471 320.976Z" fill="#D4CB61"/>
<path d="M354.22 338.579C354.22 339.643 355.084 340.507 356.148 340.507C357.211 340.507 358.075 339.643 358.075 338.579C358.075 337.516 357.211 336.652 356.148 336.652C355.084 336.652 354.22 337.516 354.22 338.579Z" fill="#D4CB61"/>
<path d="M353.224 292.075V286.251H374.855V292.075H353.224Z" fill="#37353F"/>
<path d="M370.4 287.143H372.969V290.998H370.4V287.143Z" fill="#FFDDBD"/>
<path d="M354.979 287.143H356.266V290.998H354.979V287.143Z" fill="#EBAC61"/>
<path d="M378.634 293.608H382.489V294.894H378.634V293.608Z" fill="#BF6A86"/>
<path d="M356.789 293.608H364.499V294.894H356.789V293.608Z" fill="#BF6A86"/>
<path d="M375.751 293.526V294.949C375.751 295.158 375.57 295.353 375.356 295.344C375.142 295.335 374.96 295.171 374.96 294.949V293.526C374.96 293.316 375.142 293.116 375.356 293.13C375.57 293.139 375.751 293.303 375.751 293.526Z" fill="#BF6A86"/>
<path d="M373.892 293.471V294.894C373.892 295.104 373.71 295.304 373.496 295.29C373.282 295.281 373.101 295.117 373.101 294.894V293.471C373.101 293.262 373.282 293.062 373.496 293.076C373.71 293.085 373.892 293.249 373.892 293.471Z" fill="#BF6A86"/>
<path d="M417.896 279.915L419.396 278.514L418.932 276.519L416.968 275.918L415.468 277.319L415.932 279.315L417.896 279.915Z" fill="#FF5B00"/>
<path d="M417.027 299.199L418.973 298.544L419.377 296.535L417.836 295.18L415.89 295.835L415.486 297.844L417.027 299.199Z" fill="#FF5B00"/>
<path d="M415.99 282.042H418.559V291.035H415.99V282.042Z" fill="#FF5B00"/>
<path d="M361.707 362.338C361.707 362.306 360.198 362.306 360.198 362.306C359.384 362.306 358.693 361.638 358.666 360.783C358.634 359.883 359.316 359.142 360.166 359.142H368.982C369.795 359.142 370.486 359.81 370.514 360.665C370.545 361.565 369.864 362.306 369.018 362.306H367.863C367.863 365.871 369.068 369.262 371.168 372.004C372.178 373.317 372.782 374.99 372.782 376.814C372.782 380.301 370.573 383.237 367.554 384.16V385.761H362.021V384.16C359.002 383.237 356.793 380.296 356.793 376.814C356.793 374.99 357.398 373.317 358.407 372.004C360.512 369.262 361.712 365.871 361.712 362.343L361.707 362.338Z" fill="#913757"/>
<path d="M366.926 363.189H362.73C362.221 363.189 362.216 362.393 362.73 362.393H366.926C367.436 362.393 367.44 363.189 366.926 363.189Z" fill="#5B1E36"/>
<path d="M371.732 377.969C371.7 377.732 371.432 377.51 371.273 377.355C371.059 377.141 370.827 376.946 370.563 376.805C370.372 376.705 370.136 376.628 369.922 376.709C369.754 376.773 369.659 376.882 369.554 377.014C369.309 377.323 369.122 377.746 368.854 378.073C368.554 378.437 368.113 378.632 367.64 378.519C367.022 378.369 366.599 377.769 366.258 377.278C365.963 376.859 365.658 376.387 365.135 376.232C364.935 376.173 364.726 376.164 364.553 376.296C364.339 376.464 364.226 376.746 364.067 376.964C363.698 377.473 363.203 377.851 362.616 378.073C362.23 378.219 361.816 378.237 361.548 377.869C361.362 377.614 361.266 377.291 361.089 377.028C360.734 376.5 360.239 376.091 359.67 375.814H360.071C359.852 375.95 359.725 376.182 359.607 376.4C359.466 376.659 359.334 376.919 359.143 377.146C358.752 377.605 358.052 377.914 357.497 377.546C357.075 377.264 357.47 376.578 357.897 376.859C358.097 376.991 358.329 376.841 358.502 376.668C358.72 376.45 358.834 376.137 358.988 375.873C359.152 375.586 359.42 375.177 359.761 375.086C359.961 375.032 360.171 375.173 360.339 375.268C360.512 375.368 360.671 375.482 360.83 375.605C361.412 376.059 361.821 376.637 362.135 377.296C362.148 377.328 362.185 377.364 362.189 377.396C362.198 377.478 362.189 377.36 362.162 377.391C362.162 377.382 362.185 377.378 362.203 377.373C362.248 377.35 362.303 377.341 362.353 377.328C362.507 377.273 362.648 377.196 362.785 377.11C363.071 376.932 363.307 376.687 363.489 376.405C363.694 376.091 363.885 375.759 364.221 375.564C364.54 375.382 364.917 375.355 365.267 375.436C366.017 375.614 366.49 376.218 366.908 376.819C367.104 377.1 367.308 377.41 367.59 377.614C367.69 377.687 367.79 377.732 367.908 377.751C367.995 377.764 368.027 377.741 368.095 377.696C368.158 377.651 368.117 377.682 368.104 377.696C368.122 377.682 368.14 377.664 368.158 377.646C368.195 377.61 368.231 377.573 368.263 377.532C368.286 377.505 368.29 377.5 368.336 377.432C368.372 377.378 368.408 377.323 368.44 377.273C368.577 377.055 368.704 376.828 368.854 376.618C369.045 376.359 369.263 376.127 369.563 375.996C369.977 375.814 370.413 375.864 370.818 376.046C371.2 376.214 371.532 376.496 371.827 376.787C372.173 377.123 372.455 377.469 372.518 377.96C372.546 378.173 372.318 378.355 372.123 378.355C371.886 378.355 371.754 378.173 371.727 377.96L371.732 377.969Z" fill="#5B1E36"/>
<path d="M366.604 384.824H362.567C362.058 384.824 362.053 384.029 362.567 384.029H366.604C367.113 384.029 367.118 384.824 366.604 384.824Z" fill="#5B1E36"/>
<path d="M427.683 263.92H349.71C349.201 263.92 349.196 263.125 349.71 263.125H427.683C428.192 263.125 428.197 263.92 427.683 263.92Z" fill="#FF9260"/>
<path d="M428.166 349.159H350.192C349.683 349.159 349.678 348.363 350.192 348.363H428.166C428.675 348.363 428.679 349.159 428.166 349.159Z" fill="white"/>
<path d="M428.406 389.662H349.706C349.196 389.662 349.192 388.866 349.706 388.866H428.406C428.916 388.866 428.92 389.662 428.406 389.662Z" fill="#926F1A"/>
<path d="M346.505 306.864H430.443V346.69H346.505V306.864Z" fill="#FFDDBD"/>
<path d="M389.085 306.651V348.058C389.085 348.568 388.29 348.572 388.29 348.058V306.651C388.29 306.142 389.085 306.137 389.085 306.651Z" fill="#FF9260"/>
<path d="M427.925 307.024H350.674C350.165 307.024 350.16 306.228 350.674 306.228H427.925C428.434 306.228 428.438 307.024 427.925 307.024Z" fill="white"/>
<path d="M410.526 329.628C408.954 329.628 407.68 328.354 407.68 326.783C407.68 325.211 408.954 323.937 410.526 323.937C412.097 323.937 413.372 325.211 413.372 326.783C413.372 328.354 412.097 329.628 410.526 329.628Z" fill="#FF9260"/>
<path d="M369.268 329.628C367.696 329.628 366.422 328.354 366.422 326.783C366.422 325.211 367.696 323.937 369.268 323.937C370.84 323.937 372.114 325.211 372.114 326.783C372.114 328.354 370.84 329.628 369.268 329.628Z" fill="#FF9260"/>
<path d="M430.316 303.632V347.29C430.316 348.14 428.993 348.14 428.993 347.29V303.632C428.993 302.782 430.316 302.782 430.316 303.632Z" fill="#FF9260"/>
<path d="M348.564 303.632V347.29C348.564 348.14 347.241 348.14 347.241 347.29V303.632C347.241 302.782 348.564 302.782 348.564 303.632Z" fill="#B88830"/>
<path d="M398.583 365.644V384.634C398.583 385.061 397.923 385.061 397.923 384.634V365.644C397.923 365.216 398.583 365.216 398.583 365.644Z" fill="#5B1E36"/>
<path d="M407.021 299.263H404.098C403.67 299.263 403.67 298.604 404.098 298.604H407.021C407.448 298.604 407.448 299.263 407.021 299.263Z" fill="#5B1E36"/>
<path d="M405.07 271.995H403.611C403.438 271.995 403.275 271.845 403.279 271.663C403.288 271.486 403.425 271.331 403.611 271.331H405.07C405.243 271.331 405.407 271.481 405.402 271.663C405.393 271.84 405.257 271.995 405.07 271.995Z" fill="#5B1E36"/>
<path d="M406.043 273.94H404.584C404.411 273.94 404.247 273.79 404.252 273.608C404.261 273.431 404.397 273.276 404.584 273.276H406.043C406.216 273.276 406.379 273.426 406.375 273.608C406.366 273.786 406.229 273.94 406.043 273.94Z" fill="#5B1E36"/>
<g opacity="0.49">
<path d="M29.309 107.364H198.94V245.772H29.309V107.364Z" fill="#FFDDBD"/>
<path d="M112.188 107.364H116.057V245.772H112.188V107.364Z" fill="white"/>
<path d="M29.3089 175.845H202.309V178.705H29.3089V175.845Z" fill="white"/>
</g>
<path d="M280.165 136.337C273.707 136.337 268.472 131.102 268.472 124.644C268.472 118.186 273.707 112.951 280.165 112.951C286.623 112.951 291.858 118.186 291.858 124.644C291.858 131.102 286.623 136.337 280.165 136.337Z" fill="#FF9260"/>
<path d="M280.165 5.20898V93.0071" stroke="#FFDDBD" stroke-width="1.09111" stroke-miterlimit="10"/>
<path d="M295.709 93.0068H264.626C247.591 93.0068 233.757 106.837 233.757 123.876H326.574C326.574 106.841 312.744 93.0068 295.704 93.0068H295.709Z" fill="#FFDDBD"/>
<path d="M356.197 239.066H390.862V256.802H356.197V239.066Z" fill="#FF84EE"/>
<path d="M353.019 235.397H394.049V239.68H353.019V235.397Z" fill="#37353F"/>
<path d="M382.606 246.099C382.606 246.945 381.724 247.627 380.633 247.627H366.431C365.34 247.627 364.458 246.94 364.458 246.099C364.458 245.258 365.34 244.572 366.431 244.572H380.633C381.724 244.572 382.606 245.258 382.606 246.099Z" fill="#37353F"/>
<path d="M358.884 223.236H382.656V235.397H358.884V223.236Z" fill="#FF84EE"/>
<path d="M356.706 220.722H384.843V223.659H356.706V220.722Z" fill="#37353F"/>
<path d="M376.997 228.06C376.997 228.637 376.392 229.11 375.642 229.11H365.904C365.158 229.11 364.549 228.642 364.549 228.06C364.549 227.478 365.153 227.01 365.904 227.01H375.642C376.387 227.01 376.997 227.478 376.997 228.06Z" fill="#37353F"/>
<path d="M352.365 126.613C355.452 124.012 356.352 122.003 356.247 117.97C356.224 117.179 357.211 116.802 357.72 117.411C360.321 120.498 362.33 121.398 366.363 121.294C367.154 121.271 367.531 122.258 366.922 122.767C363.835 125.367 362.935 127.377 363.039 131.409C363.062 132.2 362.075 132.578 361.566 131.968C358.966 128.881 356.956 127.981 352.924 128.086C352.133 128.109 351.755 127.122 352.365 126.613Z" fill="#FF9260"/>
<path d="M48.972 226.486C52.059 223.885 52.9591 221.876 52.8545 217.843C52.8318 217.052 53.8184 216.675 54.3275 217.284C56.928 220.371 58.9375 221.271 62.9701 221.167C63.7611 221.144 64.1385 222.131 63.5293 222.64C60.4423 225.24 59.5422 227.25 59.6467 231.282C59.6694 232.073 58.6829 232.451 58.1737 231.841C55.5732 228.754 53.5638 227.854 49.5312 227.959C48.7402 227.982 48.3628 226.995 48.972 226.486Z" fill="white"/>
<path d="M117.748 239.529H175.486C196.637 239.529 213.784 256.676 213.784 277.827V348.931C213.784 370.083 196.637 387.229 175.486 387.229H117.748C96.5963 387.229 79.4497 370.083 79.4497 348.931V277.827C79.4497 256.676 96.5963 239.529 117.748 239.529Z" fill="#8077CD"/>
<path d="M135.31 239.529H193.048C214.2 239.529 231.346 256.676 231.346 277.827V348.931C231.346 370.083 214.2 387.229 193.048 387.229H135.31C114.159 387.229 97.0122 370.083 97.0122 348.931V277.827C97.0122 256.676 114.159 239.529 135.31 239.529Z" fill="#37353F"/>
<path d="M167.521 171.099L131.009 265.562L255.978 261.043L217.835 164.575L167.521 171.099Z" fill="black"/>
<path d="M216.991 217.086C215.877 217.069 215.009 214.646 215.054 211.673C215.099 208.701 216.038 206.305 217.153 206.321C218.268 206.338 219.135 208.761 219.091 211.734C219.046 214.706 218.106 217.102 216.991 217.086Z" stroke="#FF84EE" stroke-width="0.7365" stroke-miterlimit="10"/>
<path d="M278.26 359.429C276.559 359.934 274.841 360.18 273.145 360.18C265.83 360.18 259.011 355.674 256.337 348.496L226.109 267.308L162.411 264.13L160.72 289.762L125.718 280.442L130.828 245.881C132.769 235.947 142.044 229.192 152.095 230.392L233.27 240.116C243.521 241.112 252.409 247.636 256.442 257.12L289.489 334.843C293.967 344.754 288.671 356.329 278.255 359.425L278.26 359.429Z" fill="#8E410F"/>
<path d="M165.693 182.032C165.446 165.598 178.076 152.083 193.903 151.845C209.729 151.608 222.759 164.738 223.006 181.172C223.253 197.606 210.623 211.121 194.796 211.359C178.969 211.596 165.939 198.466 165.693 182.032Z" fill="black"/>
<path d="M178.895 235.702L205.073 239.53C205.073 239.53 207.01 228.105 208.437 219.517C208.446 219.467 208.451 219.412 208.465 219.362C209.297 214.375 209.951 210.383 209.951 210.206L200.836 206.846L200.295 206.646L184.837 200.95L178.886 235.706L178.895 235.702Z" fill="#8E410F"/>
<path d="M186.46 204.05C186.46 204.05 192.298 212.188 197.172 215.393C200.304 217.453 206.469 219.062 208.465 219.358C209.297 214.37 209.951 210.379 209.951 210.201L200.836 206.842L200.295 206.642L186.46 204.05Z" fill="#72310B"/>
<path d="M177.941 195.726C177.941 195.726 187.261 213.902 206.328 213.775C225.391 213.638 227.85 201.8 223.331 189.416C222.8 187.956 222.386 186.688 222.063 185.56C221.522 183.678 221.24 182.21 221.104 181C220.622 176.777 221.886 175.622 220.09 170.598C214.362 155.041 199.95 156.114 199.95 156.114C158.428 158.86 177.941 195.73 177.941 195.73V195.726Z" fill="#8E410F"/>
<path d="M194.766 184.692C194.766 184.692 195.444 186.697 198.613 187.647C199.035 187.779 199.499 187.888 200.017 187.965C200.431 188.033 200.872 188.083 201.349 188.111C205.668 188.37 207.792 186.619 207.792 186.619C207.792 186.619 206.1 182.496 201.872 181.937C201.699 181.909 201.518 181.891 201.336 181.882C199.667 181.787 198.344 182.132 197.335 182.614C195.571 183.451 194.766 184.692 194.766 184.692Z" fill="#FF5B00"/>
<path d="M170.281 189.011C168.207 193.057 171.731 200.027 176.918 202.682C182.101 205.337 187.943 204.673 190.016 200.622C192.089 196.576 188.607 189.143 183.424 186.488C178.241 183.833 172.358 184.965 170.285 189.011H170.281Z" fill="#8F410F"/>
<path d="M194.767 185.847C194.767 185.847 195.458 187.634 198.686 188.47C199.118 188.584 199.59 188.684 200.118 188.752C200.541 188.811 200.991 188.857 201.477 188.88C205.883 189.102 208.056 187.538 208.056 187.538C208.056 187.538 206.337 183.87 202.023 183.379C201.845 183.356 201.664 183.342 201.477 183.329C199.777 183.247 198.427 183.556 197.39 183.988C195.59 184.738 194.767 185.847 194.767 185.847Z" fill="white"/>
<path d="M196.89 185.725C196.908 186.947 197.64 187.993 198.686 188.47C199.09 188.661 199.545 188.766 200.022 188.757C200.054 188.757 200.086 188.757 200.118 188.752C201.773 188.68 203.082 187.302 203.059 185.629C203.046 184.729 202.65 183.924 202.027 183.379C201.85 183.356 201.668 183.342 201.482 183.329C199.781 183.247 198.431 183.556 197.395 183.988C197.067 184.492 196.881 185.088 196.895 185.725H196.89Z" fill="black"/>
<path d="M207.769 187.379C207.769 187.379 203.868 179.255 194.648 185.575" stroke="black" stroke-width="0.863796" stroke-linecap="round" stroke-linejoin="round"/>
<path d="M213.306 185.274C213.306 185.274 214.316 185.833 217.443 185.547C217.862 185.515 218.312 185.447 218.803 185.347C219.189 185.265 219.603 185.16 220.048 185.024C220.717 184.824 221.312 184.592 221.844 184.356C221.303 182.473 221.021 181.005 220.885 179.796C220.239 179.755 219.535 179.805 218.785 179.978C218.621 180.009 218.457 180.055 218.289 180.105C216.752 180.573 215.652 181.273 214.875 181.987C213.515 183.224 213.306 185.274 213.306 185.274Z" fill="#FF5B00"/>
<path d="M213.356 185.67C213.356 185.67 214.538 187.038 217.662 186.752C218.08 186.72 218.53 186.652 219.021 186.552C219.407 186.47 219.821 186.365 220.267 186.229C220.935 186.029 221.531 185.797 222.062 185.561C221.521 183.679 221.24 182.21 221.103 181.001C220.458 180.96 219.753 181.01 219.003 181.183C218.839 181.214 218.676 181.26 218.507 181.31C216.971 181.778 215.87 182.478 215.093 183.192C213.734 184.429 213.356 185.67 213.356 185.67Z" fill="white"/>
<path d="M214.416 185.588C214.993 186.588 216.071 187.111 217.148 187.024C217.571 186.997 217.989 186.87 218.38 186.647C218.403 186.633 218.435 186.615 218.458 186.597C219.785 185.779 220.231 184.047 219.444 182.683C219.021 181.951 218.326 181.469 217.562 181.305C217.403 181.369 217.248 181.437 217.089 181.514C215.653 182.228 214.684 183.101 214.034 183.928C213.993 184.492 214.116 185.065 214.416 185.583V185.588Z" fill="black"/>
<path d="M220.99 180.905C218.789 180.696 215.989 181.56 213.166 185.465" stroke="black" stroke-width="0.813787" stroke-linecap="round" stroke-linejoin="round"/>
<path d="M183.775 213.786C182.66 213.77 181.793 211.346 181.838 208.374C181.882 205.401 182.822 203.005 183.937 203.022C185.051 203.039 185.919 205.462 185.874 208.434C185.83 211.407 184.89 213.803 183.775 213.786Z" stroke="#FF84EE" stroke-width="0.7365" stroke-miterlimit="10"/>
<path d="M206.673 199.686C206.541 199.709 207.283 203.491 210.388 203.973C214.966 204.678 216.752 200.3 216.752 200.3C216.752 200.3 213.334 198.549 206.673 199.691V199.686Z" fill="#FF27E7"/>
<path d="M216.753 200.3C216.88 200.268 215.816 197.986 212.634 197.745C209.451 197.504 206.292 199.677 206.292 199.677C206.292 199.677 210.211 201.977 216.757 200.3H216.753Z" fill="#801478"/>
<path d="M217.516 200.195C216.507 200.522 215.493 200.772 214.443 200.95C213.57 201.095 212.675 201.222 211.793 201.177C210.31 201.1 208.81 200.745 207.414 200.254C206.71 200.009 206.023 199.699 205.405 199.286C205.26 199.186 205.382 198.981 205.541 199.054C206.114 199.313 206.733 199.499 207.333 199.677C208.06 199.89 208.787 200.1 209.528 200.268C210.21 200.422 210.906 200.559 211.606 200.618C212.424 200.686 213.252 200.609 214.061 200.513C215.211 200.377 216.348 200.15 217.498 200.013C217.612 200 217.621 200.172 217.525 200.204L217.516 200.195Z" fill="black"/>
<path d="M185.134 195.344C184.252 194.089 183.029 193.071 181.66 192.384C180.114 191.607 178.36 191.311 176.641 191.311C175.564 191.311 174.482 191.507 173.413 191.416C173.24 191.402 173.109 191.129 173.313 191.043C173.527 190.948 173.727 190.852 173.959 190.802C174.218 190.743 174.482 190.707 174.741 190.67C175.245 190.602 175.764 190.561 176.273 190.547C177.278 190.516 178.287 190.593 179.273 190.784C180.956 191.107 182.556 191.848 183.82 193.007C184.511 193.643 185.002 194.38 185.343 195.257C185.393 195.385 185.206 195.444 185.134 195.344Z" fill="black"/>
<path d="M180.196 191.521C180.151 192.021 179.773 192.498 179.573 192.953C179.351 193.466 179.178 194.021 179.123 194.58C179.019 195.662 179.441 196.622 180.11 197.449C180.287 197.667 180.051 198.076 179.778 197.881C178.791 197.181 178.314 195.917 178.405 194.73C178.455 194.098 178.655 193.494 178.941 192.93C179.091 192.634 179.264 192.348 179.446 192.071C179.61 191.825 179.769 191.571 180.032 191.43C180.101 191.393 180.201 191.439 180.196 191.521Z" fill="black"/>
<path d="M207.601 182.474C206.023 181.387 204.259 180.596 202.327 180.465C199.74 180.292 197.313 181.16 194.844 181.792C194.258 181.942 193.844 181.069 194.421 180.783C196.835 179.583 199.759 178.86 202.464 179.192C204.619 179.46 206.423 180.505 207.992 181.969C208.256 182.215 207.906 182.683 207.601 182.474Z" fill="black"/>
<path d="M214.766 179.127C215.239 178.823 215.694 178.482 216.208 178.254C216.717 178.027 217.244 177.836 217.776 177.672C218.749 177.377 219.749 177.209 220.767 177.227C221.099 177.231 221.386 177.509 221.386 177.845C221.386 178.213 221.099 178.418 220.767 178.464C219.908 178.577 218.976 178.659 218.09 178.804C217.599 178.886 217.108 178.995 216.63 179.127C216.098 179.273 215.553 179.377 215.048 179.609C214.725 179.755 214.462 179.327 214.766 179.132V179.127Z" fill="black"/>
<path d="M160.72 289.767L152.527 350.087C150.995 361.98 143.78 370.636 132.06 368.095C122.513 366.022 115.925 357.575 115.925 348.109C115.925 346.968 116.021 345.813 116.221 344.654L125.718 280.451L160.72 289.771V289.767Z" fill="#8E410F"/>
<path d="M290.394 360.661L309.756 265.294L288.502 258.87L262.329 332.738L290.394 360.661Z" fill="#8E410F"/>
<path d="M128.468 335.647L190.121 320.322" stroke="black" stroke-width="0.450083" stroke-linecap="round" stroke-linejoin="round"/>
<path d="M264.53 334.924L279.242 285.001" stroke="black" stroke-width="0.450083" stroke-linecap="round" stroke-linejoin="round"/>
<path d="M296.438 271.076C287.711 267.495 281.538 262.394 282.65 259.683C283.763 256.973 291.739 257.678 300.466 261.259C309.193 264.84 315.366 269.941 314.254 272.652C313.142 275.362 305.165 274.657 296.438 271.076Z" stroke="#FF84EE" stroke-width="0.904713" stroke-miterlimit="10"/>
<path d="M296.764 268.453C288.037 264.872 281.864 259.772 282.976 257.061C284.089 254.35 292.065 255.056 300.792 258.637C309.52 262.218 315.693 267.318 314.58 270.029C313.468 272.74 305.491 272.034 296.764 268.453Z" stroke="#FF84EE" stroke-width="0.904713" stroke-miterlimit="10"/>
<path d="M311.483 258.842L308.901 269.499L287.756 260.979L291.612 251.027L311.483 258.842Z" fill="#8E410F"/>
<path d="M139.848 353.442C148.022 335.848 158.16 319.636 170.244 310.216L168.912 305.024L152.532 264.916L155.723 230.833L168.321 231.683L168.867 225.646L187.547 227.782L186.865 235.602L194.653 250.541L201.413 237.107L202.659 228.955L225.282 231.101V239.112L227.814 239.471L233.274 240.121L245.981 270.645C248.199 275.982 247.608 282.079 244.394 286.884L231.314 306.46L248.868 353.442L263.143 391.626H125.213C129.073 379.538 133.951 366.131 139.848 353.442ZM194.426 254.446L195.221 253.16L193.767 253.56L194.426 254.446Z" fill="#8077CD"/>
<path d="M199.977 194.585C195.148 194.585 191.234 191.509 191.234 187.715C191.234 183.921 195.148 180.846 199.977 180.846C204.805 180.846 208.719 183.921 208.719 187.715C208.719 191.509 204.805 194.585 199.977 194.585Z" stroke="#84E6E1" stroke-width="0.377343" stroke-linecap="round" stroke-linejoin="round"/>
<path d="M212.859 187.303C212.314 183.549 215.508 179.977 219.993 179.326C224.478 178.675 228.555 181.191 229.101 184.945C229.646 188.7 226.452 192.271 221.966 192.923C217.481 193.574 213.404 191.058 212.859 187.303Z" stroke="#84E6E1" stroke-width="0.36825" stroke-linecap="round" stroke-linejoin="round"/>
<path opacity="0.37" d="M199.727 194.585C194.898 194.585 190.984 191.509 190.984 187.715C190.984 183.921 194.898 180.846 199.727 180.846C204.555 180.846 208.469 183.921 208.469 187.715C208.469 191.509 204.555 194.585 199.727 194.585Z" fill="#84E6E1"/>
<path opacity="0.37" d="M212.609 187.301C212.064 183.547 215.258 179.975 219.743 179.324C224.228 178.673 228.306 181.189 228.851 184.944C229.396 188.698 226.202 192.27 221.717 192.921C217.232 193.572 213.154 191.056 212.609 187.301Z" fill="#84E6E1"/>
<path d="M213.293 180.45C212.279 181.342 211.393 182.396 211.206 183.783C211.029 185.092 211.661 186.156 212.411 187.17C213.161 188.184 213.993 189.088 214.48 190.23C214.966 191.371 215.03 192.83 214.066 193.685C212.838 194.767 210.865 194.712 209.597 193.739C209.379 193.571 209.556 193.248 209.815 193.366C211.015 193.917 212.666 194.189 213.711 193.157C214.148 192.725 214.243 192.012 214.175 191.425C214.111 190.866 213.875 190.343 213.593 189.866C212.416 187.852 210.165 186.111 210.688 183.524C210.961 182.183 211.893 180.796 213.211 180.305C213.293 180.273 213.361 180.396 213.298 180.45H213.293Z" fill="black"/>
<path d="M213.166 184.433C213.166 184.433 212.379 182.842 210.52 183.165C208.66 183.488 207.969 184.933 207.969 184.933" stroke="#84E6E1" stroke-width="0.377343" stroke-linecap="round" stroke-linejoin="round"/>
<path d="M191.316 186.792L184.728 187.279" stroke="#84E6E1" stroke-width="0.377343" stroke-linecap="round" stroke-linejoin="round"/>
<path d="M206.401 155.932C209.788 156.428 212.993 157.696 215.771 160.265C218.999 163.247 221.067 167.452 221.463 171.83C218.121 171.476 215.107 169.721 212.275 167.902C208.77 165.652 205.364 163.252 202.068 160.706C196.717 164.202 192.626 169.498 190.366 175.458C189.166 178.627 185.393 190.77 191.885 190.547C191.03 190.575 190.184 190.852 189.33 190.779C188.43 190.707 187.548 190.466 186.72 190.102C185.024 189.356 183.961 188.002 182.469 187.015C179.469 185.033 175.273 184.969 172.222 186.879C172.004 187.015 171.781 187.165 171.526 187.206C171.049 187.283 170.585 186.947 170.353 186.524C170.122 186.101 170.076 185.606 170.035 185.124C169.972 184.401 169.917 183.633 170.267 182.996C170.385 182.782 170.544 182.591 170.653 182.369C171.072 181.496 170.581 180.491 170.558 179.591C170.535 178.704 170.399 177.836 170.294 176.936C170.076 175.022 170.076 173.026 170.826 171.221C171.208 170.298 171.772 169.457 172.372 168.657C175.332 164.711 179.296 161.528 183.792 159.496C186.57 158.241 189.534 157.423 192.53 156.85C197.09 155.982 201.909 155.268 206.401 155.923V155.932Z" fill="black"/>
<path d="M446.25 391.625H435.138H348.34H348.222H342.239H-4.26573" stroke="black" stroke-width="0.900167" stroke-miterlimit="10" stroke-linecap="round"/>
<mask id="mask0_498_8949" style="mask-type:luminance" maskUnits="userSpaceOnUse" x="125" y="225" width="139" height="167">
<path d="M139.848 353.442C148.022 335.848 158.16 319.636 170.244 310.216L168.912 305.024L152.532 264.916L155.723 230.833L168.321 231.683L168.867 225.646L187.547 227.782L186.865 235.602L194.653 250.541L201.413 237.107L202.659 228.955L225.282 231.101V239.112L227.814 239.471L233.274 240.121L245.981 270.645C248.199 275.982 247.608 282.079 244.394 286.884L231.314 306.46L248.868 353.442L263.143 391.626H125.213C129.073 379.538 133.951 366.131 139.848 353.442ZM194.426 254.446L195.221 253.16L193.767 253.56L194.426 254.446Z" fill="white"/>
</mask>
<g mask="url(#mask0_498_8949)">
<path d="M133.733 243.73C133.737 253.096 133.733 262.466 133.733 271.836C133.733 311.534 133.733 351.232 133.733 390.93C133.733 392.244 134.015 393.494 134.665 394.654C134.801 394.663 134.942 394.672 135.079 394.672H152.8C152.891 394.672 152.986 394.672 153.077 394.672C153.618 394.64 153.664 394.572 153.405 394.099C152.577 392.594 151.759 391.089 150.909 389.603C146.631 382.092 142.207 374.677 137.67 367.321C137.024 366.276 136.365 365.244 135.933 364.084C135.006 361.602 134.906 359.011 135.01 356.415C135.079 354.842 135.11 353.269 135.101 351.696C135.101 351.405 135.033 351.109 135.151 350.827C135.46 350.796 135.597 351.018 135.765 351.159C136.852 352.06 137.938 352.964 139.016 353.874C141.684 356.128 144.335 358.411 147.085 360.575C149.868 362.766 152.691 364.907 155.491 367.08C159.151 369.922 162.815 372.754 166.689 375.296C170.949 378.083 175.395 380.492 180.237 382.129C183.883 383.361 187.588 384.147 191.475 383.82C193.958 383.611 196.317 383.015 198.481 381.765C200.927 380.356 202.727 378.36 203.841 375.755C205.191 372.6 205.392 369.29 204.964 365.935C204.441 361.857 203.4 357.892 202.1 354.001C200.959 350.587 199.563 347.281 197.999 344.049C196.585 341.13 195.017 338.289 193.357 335.502C191.175 331.838 188.852 328.264 186.447 324.75C184.665 322.149 182.878 319.553 180.996 317.03C177.95 312.948 174.754 308.983 171.39 305.151C168.235 301.546 164.97 298.036 161.602 294.626C160.006 293.012 158.378 291.43 156.773 289.821C155.682 288.721 154.555 287.657 153.418 286.602C151.263 284.606 149.104 282.61 146.913 280.646C144.708 278.664 142.466 276.732 140.252 274.763C139.057 273.704 137.784 272.736 136.747 271.504C135.451 269.972 134.724 268.239 134.86 266.212C134.942 264.939 135.224 263.698 135.624 262.479C135.965 261.434 135.801 261.415 136.783 262.084C137.843 262.807 138.729 263.72 139.652 264.602C141.762 266.616 143.889 268.608 146.008 270.617C147.454 271.986 148.886 273.363 150.331 274.736C152.45 276.741 154.573 278.741 156.692 280.746C158.106 282.087 159.506 283.429 160.92 284.765C162.938 286.675 164.989 288.552 166.975 290.489C169.362 292.817 171.699 295.199 174.118 297.495C176.754 300.004 179.473 302.409 182.451 304.505C184.76 306.133 187.229 307.438 189.961 308.197C193.862 309.279 197.695 309.097 201.445 307.519C204.196 306.365 206.574 304.66 208.706 302.605C212.088 299.336 214.711 295.513 216.839 291.33C218.539 287.975 219.881 284.47 220.994 280.883C222.186 277.055 223.277 273.204 223.99 269.253C224.422 266.862 224.741 264.448 224.859 262.025C224.972 259.715 224.982 257.397 224.795 255.082C224.65 253.305 224.436 251.536 224.118 249.781C223.213 244.844 221.549 240.175 219.18 235.752C217.921 233.397 216.489 231.155 214.893 229.019L167.412 221.485C175.04 229.719 186.17 248.345 188.702 259.22C189.689 263.452 190.098 268.626 186.784 271.431C183.069 274.572 177.25 272.486 173.604 269.276C167.953 264.307 164.598 257.183 159.151 251.991C154.1 247.181 147.313 244.235 140.348 243.826C138.211 243.703 135.956 243.767 133.742 243.73H133.733Z" fill="#84E6E1"/>
<path d="M253.796 304.66C251.991 304.646 250.191 304.646 248.386 304.76C247.231 304.833 246.072 304.792 244.912 304.819C243.271 304.86 241.63 304.883 239.989 304.969C238.002 305.069 236.024 305.246 234.038 305.351C228.559 305.633 223.345 306.938 218.385 309.279C216.794 310.034 215.198 310.775 213.738 311.77C210.242 314.162 207.901 317.412 206.692 321.458C205.428 325.696 205.555 329.96 206.587 334.22C207.365 337.43 208.788 340.353 210.583 343.112C212.165 345.545 213.97 347.8 215.984 349.896C218.726 352.746 221.781 355.21 225.031 357.442C228.723 359.975 232.615 362.166 236.561 364.266C241.266 366.771 246.144 368.899 251.032 371.018C251.627 371.277 252.214 371.55 252.809 371.804C253.123 371.936 253.428 372.136 253.791 372.104V340.539C253.423 340.539 253.05 340.521 252.682 340.53C250.668 340.589 248.663 340.571 246.658 340.289C242.212 339.666 237.984 338.403 234.07 336.175C231.642 334.793 229.441 333.106 227.505 331.092C226.7 330.251 226.027 329.301 225.659 328.182C225.091 326.459 225.3 324.905 226.691 323.613C227.35 323.004 228.114 322.586 228.95 322.286C230.755 321.64 232.642 321.436 234.542 321.349C237.011 321.236 239.434 321.486 241.807 322.222C245.131 323.25 248.336 324.573 251.541 325.909C252.282 326.218 252.982 326.646 253.796 326.778V304.669V304.66Z" fill="#84E6E1"/>
<path d="M253.796 375.718C251.682 375.468 249.568 375.277 247.445 375.127C245.435 374.986 243.43 374.895 241.416 374.841C240.375 374.813 239.339 374.745 238.297 374.768C232.665 374.9 227.077 375.377 221.594 376.759C215.871 378.2 210.492 380.451 205.505 383.628C202.586 385.488 199.868 387.593 197.335 389.952C195.994 391.203 194.771 392.557 193.557 393.921C193.398 394.099 193.157 394.253 193.18 394.59C193.476 394.731 193.803 394.667 194.117 394.667C205.951 394.667 217.789 394.667 229.623 394.667C237.361 394.667 245.094 394.667 252.832 394.667C253.155 394.667 253.478 394.644 253.8 394.631C253.8 388.325 253.8 382.024 253.8 375.718H253.796Z" fill="#84E6E1"/>
<path d="M226.418 229.009C226.423 229.377 226.432 229.75 226.436 230.118C226.523 234.583 227.036 238.984 228.364 243.262C229.673 247.485 231.769 251.259 234.933 254.395C237.711 257.146 241.012 258.987 244.78 259.992C246.981 260.578 249.227 260.856 251.509 260.833C252.273 260.824 253.037 260.842 253.8 260.851V229.004H226.418V229.009Z" fill="#84E6E1"/>
<path d="M253.796 267.53C253.096 267.503 252.423 267.708 251.736 267.808C248.718 268.258 245.699 268.717 242.712 269.331C240.693 269.744 238.689 270.204 236.738 270.872C234.62 271.599 232.751 272.718 231.319 274.477C229.469 276.75 228.955 279.346 229.555 282.178C229.987 284.215 230.96 285.993 232.26 287.593C234.351 290.166 236.943 292.112 239.852 293.667C243.198 295.454 246.786 296.618 250.395 297.713C251.523 298.054 252.664 298.359 253.796 298.682C253.796 288.298 253.796 277.914 253.796 267.53Z" fill="#84E6E1"/>
</g>
<path d="M208.97 340.921C208.97 340.921 228.728 333.142 233.147 334.906C236.116 336.093 242.972 344.394 244.572 348.386C244.977 349.4 243.067 360.734 246.459 356.528C248.436 354.073 250.069 349.754 248.75 346.636C247.645 344.026 244.786 339.048 244.786 339.048C244.786 339.048 250.896 344.49 251.851 346.667C252.805 348.85 254.265 354.296 255.638 356.524C257.011 358.751 258.82 358.629 258.734 356.919C258.647 355.21 257.856 352.532 257.856 352.532C257.856 352.532 260.175 359.461 262.544 358.601C264.912 357.742 260.789 347.095 260.789 347.095C260.789 347.095 264.198 350.841 265.812 351.559C267.426 352.278 270.672 352.759 267.422 349.236C264.171 345.713 250.623 326.964 248.5 324.281C246.377 321.604 239.412 310.77 231.283 310.988C223.154 311.211 204.051 316.853 204.051 316.853L208.97 340.912V340.921Z" fill="#8E410F"/>
<path d="M247.618 327.291C247.618 327.291 256.961 338.711 258.475 341.862C259.993 345.012 260.92 347.454 260.92 347.454" stroke="black" stroke-width="0.450083" stroke-linecap="round" stroke-linejoin="round"/>
<path d="M245.381 332.033L253.869 342.48C254.996 343.867 255.833 345.472 256.324 347.19L258.106 353.441" stroke="black" stroke-width="0.450083" stroke-linecap="round" stroke-linejoin="round"/>
<path d="M241.953 335.647L245.622 339.812" stroke="black" stroke-width="0.450083" stroke-linecap="round" stroke-linejoin="round"/>
<path d="M231.56 329.337C231.642 332.628 232.224 334.342 232.224 334.342" stroke="black" stroke-width="0.450083" stroke-linecap="round" stroke-linejoin="round"/>
<path d="M245.159 358.059C244.802 357.858 245.052 356.74 245.717 355.561C246.382 354.382 247.209 353.589 247.566 353.79C247.922 353.991 247.673 355.11 247.008 356.289C246.343 357.468 245.515 358.26 245.159 358.059Z" fill="#FFDDBD"/>
<path d="M257.086 356.192C256.832 354.863 256.952 353.723 257.354 353.646C257.756 353.569 258.288 354.584 258.542 355.913C258.796 357.243 258.677 358.383 258.275 358.46C257.873 358.536 257.341 357.521 257.086 356.192Z" fill="#FFDDBD"/>
<path d="M267.038 350.549C266.202 349.485 265.785 348.417 266.107 348.164C266.429 347.911 267.368 348.569 268.203 349.634C269.039 350.698 269.456 351.766 269.134 352.019C268.812 352.271 267.874 351.613 267.038 350.549Z" fill="#FFDDBD"/>
<path d="M261.43 356.434C261.148 354.961 261.336 353.688 261.849 353.59C262.362 353.492 263.006 354.606 263.287 356.078C263.569 357.551 263.382 358.824 262.869 358.922C262.356 359.02 261.711 357.906 261.43 356.434Z" fill="#FFDDBD"/>
<path d="M36.3691 391.626H427.41L398.182 353.441H69.7616L36.3691 391.626Z" fill="#FFDDBD"/>
<path d="M123.781 364.58C146.935 380.974 212.811 339.493 212.811 339.493L212.725 314.702L119.385 337.902C119.385 337.902 112.011 356.242 123.781 364.575V364.58Z" fill="#8E410F"/>
<path d="M249.532 350.164H200.537C198.145 350.164 196.204 352.105 196.204 354.496H249.537V350.164H249.532Z" fill="#FF7C33"/>
<path d="M241.944 354.496H338.89C341.263 354.496 343.381 353 344.172 350.759L366.072 288.738C367.077 285.888 364.963 282.896 361.939 282.896H273.464C269.354 282.896 265.699 285.506 264.358 289.389L241.94 354.492L241.944 354.496Z" fill="#FF7C33"/>
<path d="M245.608 354.496H342.554C344.927 354.496 347.045 353 347.836 350.759L369.736 288.738C370.741 285.888 368.627 282.896 365.603 282.896H277.128C273.018 282.896 269.363 285.506 268.022 289.389L245.604 354.492L245.608 354.496Z" fill="#FF5B00"/>
<path d="M312.235 308.806C312.19 307.369 313.463 306.264 314.877 306.501C315.927 306.678 316.718 307.592 316.754 308.651C316.8 310.088 315.527 311.193 314.113 310.956C313.063 310.779 312.272 309.865 312.235 308.806Z" fill="#FFECDC"/>
<path d="M309.653 326.409C311.535 325.891 312.34 325.191 313.108 323.399C313.258 323.045 313.767 323.081 313.867 323.449C314.386 325.332 315.086 326.136 316.877 326.905C317.232 327.055 317.195 327.564 316.827 327.664C314.945 328.182 314.14 328.882 313.372 330.673C313.222 331.028 312.713 330.992 312.613 330.623C312.094 328.741 311.394 327.937 309.603 327.168C309.248 327.018 309.285 326.509 309.653 326.409Z" fill="#FFECDC"/>
<path d="M304.316 323.072L304.707 317.371C305.048 312.42 309.221 308.542 314.181 308.715C319.396 308.896 323.378 313.352 323.024 318.512L322.624 324.327C322.574 325.045 323.119 325.672 323.837 325.722L323.746 327.027L323.665 327.013C321.996 326.732 320.396 326.113 318.996 325.163C316.782 323.654 315.645 321.744 314.745 318.457C314.504 317.58 313.281 317.493 312.922 318.334C311.581 321.467 310.194 323.204 307.794 324.399C306.275 325.154 304.607 325.545 302.915 325.595H302.829L302.92 324.295C303.638 324.345 304.266 323.799 304.316 323.081" fill="#FFECDC"/>
<path d="M303.943 210.147C303.352 210.081 302.989 208.987 303.132 207.705C303.275 206.422 303.871 205.436 304.462 205.502C305.054 205.568 305.417 206.662 305.274 207.944C305.13 209.227 304.534 210.213 303.943 210.147Z" fill="#8077CD"/>
<path d="M331.537 207.743C331.09 207.35 331.42 206.246 332.273 205.277C333.125 204.309 334.179 203.842 334.625 204.235C335.072 204.629 334.743 205.733 333.89 206.701C333.037 207.67 331.984 208.136 331.537 207.743Z" fill="#8077CD"/>
<path d="M288.339 259.261C288.339 259.261 295.595 241.93 297.022 234.038C297.513 231.328 299.218 225.504 300.059 220.322C302.083 207.856 304.274 201.514 305.533 209.365C307.452 221.322 305.606 228.919 312.344 222.304C321.736 213.079 330.615 205.683 332.324 205.028C339.985 202.1 323.145 220.772 323.145 220.772C323.145 220.772 329.351 227.109 326.637 233.506C323.927 239.903 316.171 246.135 314.276 251.077C312.262 256.337 309.161 266.557 309.161 266.557L288.344 259.256L288.339 259.261Z" fill="#8E410F"/>
<path d="M322.168 236.338C319.595 239.393 312.23 243.453 314.248 239.179C316.89 233.592 323.768 227.868 325.446 228.009C327.124 228.145 327.242 228.873 327.242 228.873" stroke="black" stroke-width="0.213676" stroke-linecap="round" stroke-linejoin="round"/>
<path d="M317.208 234.492C314.58 236.774 311.184 237.902 312.58 234.81C314.526 230.505 321.436 224.359 323.114 224.499C324.791 224.636 324.91 225.363 324.91 225.363" stroke="black" stroke-width="0.213676" stroke-linecap="round" stroke-linejoin="round"/>
<path d="M314.58 231.497C312.575 232.401 309.634 233.529 310.039 231.956C311.057 227.96 318.545 220.508 320.763 220.34C322.441 220.213 323.291 220.926 323.291 220.926" stroke="black" stroke-width="0.213676" stroke-linecap="round" stroke-linejoin="round"/>
<path d="M306.242 237.575C306.242 237.575 308.134 234.979 307.643 230.615" stroke="black" stroke-width="0.213676" stroke-linecap="round" stroke-linejoin="round"/>
<path d="M309.948 233.156C309.502 232.763 309.831 231.659 310.684 230.69C311.536 229.722 312.59 229.255 313.036 229.648C313.483 230.042 313.154 231.146 312.301 232.114C311.448 233.083 310.395 233.549 309.948 233.156Z" fill="#8077CD"/>
<path d="M311.812 237.156C311.365 236.763 311.695 235.659 312.547 234.69C313.4 233.721 314.454 233.255 314.9 233.648C315.347 234.041 315.018 235.145 314.165 236.114C313.312 237.082 312.259 237.549 311.812 237.156Z" fill="#8077CD"/>
<path d="M313.769 241.736C313.322 241.343 313.652 240.239 314.504 239.27C315.357 238.301 316.411 237.835 316.857 238.228C317.304 238.621 316.975 239.725 316.122 240.694C315.269 241.663 314.216 242.129 313.769 241.736Z" fill="#8077CD"/>
</svg>
