<svg width="143" height="172" viewBox="0 0 143 172" fill="none" xmlns="http://www.w3.org/2000/svg">
<path d="M128.752 87.7639C126.689 86.128 124.384 84.8371 121.981 83.7175C120.347 82.9547 118.664 82.2717 116.982 81.6075C122.079 75.4253 123.591 65.6027 119.427 61.0588C116.381 57.7329 111.426 56.9279 106.561 58.477C107.006 58.1226 107.445 57.7564 107.819 57.3011C110.213 54.3954 110.668 50.0157 110.513 46.4035C110.238 39.9913 108.077 33.6941 104.469 28.3967C100.634 22.7684 96.4328 17.7949 90.4431 14.3588C83.7421 10.5142 77.1985 9.95329 69.7136 9.47683C62.548 9.01915 56.307 8.69291 49.355 11.4226C41.6964 14.4292 35.0542 19.9613 30.7097 26.9485C29.0574 29.6078 27.7266 32.4783 26.891 35.4966C25.6236 40.0758 25.7738 44.8169 26.2174 49.4994C26.4333 51.776 27.1304 55.4727 28.3368 57.7681C22.6756 54.8695 16.3549 55.2615 12.7287 59.2163C8.13544 64.2297 10.4497 75.6717 16.8713 81.5559C18.2209 82.7928 19.6714 83.8279 21.1641 84.647C17.6388 85.8487 14.4867 88.0409 12.3696 91.0264C8.39597 96.6289 8.50394 104.754 12.8883 110.061C9.7831 110.552 7.50877 113.558 7.35387 116.605C7.19896 119.654 8.83957 122.595 11.1397 124.677C13.4399 126.758 16.3456 128.094 19.2771 129.206C16.9534 130.481 15.4255 132.858 14.7707 135.368C14.1135 137.877 14.2473 140.519 14.6275 143.08C14.8927 144.866 15.2941 146.685 16.3103 148.199C17.836 150.476 20.5961 151.774 23.3751 152.107C26.1517 152.44 28.9658 151.917 31.665 151.201C33.2727 156.189 39.0208 160.446 44.1139 161.575C49.9558 162.873 56.3493 161.622 61.2148 158.228C61.3697 158.12 61.5246 158.008 61.6795 157.895C64.3458 159.158 67.3032 159.911 70.4318 160.028C73.3868 160.139 76.2244 159.674 78.8414 158.733C85.195 160.993 92.018 162.228 98.7236 161.432C105.298 160.65 112.769 157.74 116.214 152.013C117.916 149.185 118.808 146.127 118.585 142.827C118.503 141.615 117.313 134.828 115.522 134.778C119.648 134.886 124.384 134.743 127.022 131.666C129.095 129.249 129.123 125.618 127.783 122.754C126.443 119.893 123.957 117.687 121.331 115.849C124.823 114.432 128.196 112.591 130.839 109.963C133.482 107.334 135.35 103.844 135.444 100.173C135.568 95.338 132.613 90.8198 128.755 87.7569L128.752 87.7639Z" stroke="#8AECE7" stroke-width="8.44951" stroke-miterlimit="10"/>
<path d="M121.979 83.7179C124.385 84.8398 126.69 86.1284 128.75 87.7643C132.611 90.8249 135.564 95.3454 135.439 100.18C135.346 103.851 133.477 107.341 130.834 109.97C128.192 112.599 124.819 114.439 121.326 115.857C123.955 117.694 126.441 119.901 127.779 122.762C129.119 125.623 129.091 129.256 127.018 131.674C124.38 134.753 119.644 134.896 115.517 134.786C117.308 134.833 118.498 141.623 118.58 142.834C118.803 146.132 117.911 149.19 116.21 152.021C112.764 157.747 105.293 160.658 98.7193 161.439C91.5935 162.287 84.3363 160.839 77.6495 158.304C74.1852 156.992 69.4652 153.685 65.6864 155.292C64.0317 155.996 62.6798 157.212 61.2129 158.233C56.345 161.625 49.9539 162.876 44.112 161.58C39.0188 160.449 33.2708 156.194 31.663 151.206C28.9639 151.924 26.1521 152.448 23.3731 152.112C20.5965 151.779 17.834 150.481 16.3084 148.204C15.2945 146.69 14.8908 144.871 14.6255 143.085C14.2453 140.522 14.1139 137.879 14.7687 135.37C15.4259 132.861 16.9538 130.484 19.2751 129.209C16.346 128.097 13.4379 126.761 11.1378 124.679C8.83762 122.597 7.19701 119.654 7.35191 116.608C7.50682 113.559 9.78115 110.555 12.8863 110.064C8.50199 104.757 8.39402 96.6316 12.3676 91.0291C16.3413 85.4266 23.9552 82.6148 30.8392 83.9128C31.3133 77.6554 35.761 72.3463 40.6688 68.2577C42.7014 66.5631 44.9147 64.9647 47.4871 64.2371C51.733 63.0354 56.2535 64.3568 60.4641 65.6712C60.9382 65.8191 64.7006 63.6973 65.5644 63.5025C67.6486 63.0307 69.8314 62.972 71.9414 63.2959C75.1968 63.7935 80.2642 65.5092 81.2781 68.9172C82.0902 67.6615 83.1628 66.7063 84.5053 65.9599C91.9949 61.7938 101.822 63.2044 109.032 67.8141C111.318 69.2763 113.445 71.0765 114.787 73.3931C116.13 75.7073 116.599 78.5989 115.56 81.0563C117.714 81.8966 119.883 82.7439 121.979 83.7203" fill="black"/>
<path d="M70.428 160.033C58.3569 159.583 48.809 149.654 48.8301 137.574C48.8442 128.822 48.8888 119.307 49.0015 112.937C49.0038 112.847 49.0085 112.758 49.0015 112.669C49.1517 104.119 49.2808 97.2745 49.3418 96.9811L65.5367 94.1881L66.4966 94.0214L93.9622 89.2874L93.7017 137.736C93.6336 150.408 83.0929 160.507 70.4304 160.036" fill="#94410F"/>
<path d="M97.6329 75.5271C101.625 101.549 87.1133 123.433 70.3246 123.884C52.5125 124.363 36.7307 98.4792 41.2864 72.842C43.1477 62.3716 42.1877 59.067 42.1854 52.2721C42.1807 34.5563 58.0235 28.8318 70.3222 28.8318C81.7197 28.8318 99.351 36.3143 98.0531 51.7605C97.1424 62.5923 96.4077 67.5564 97.6306 75.5247" fill="#481A00"/>
<path d="M119.427 61.0591C124.02 66.0724 121.706 77.5145 115.285 83.3986C108.863 89.2828 100.183 90.6417 95.5902 85.6284C90.997 80.615 93.0647 68.5181 99.484 62.6363C105.906 56.7521 114.834 56.0457 119.427 61.0591Z" fill="#94410F"/>
<path d="M100.532 76.0877C100.727 75.5338 100.971 75.0034 101.262 74.4941C101.558 73.9754 101.828 73.4496 102.159 72.9497C102.241 72.8253 102.325 72.7009 102.414 72.5788C102.459 72.5178 102.504 72.4568 102.548 72.3981C102.567 72.3747 102.583 72.3488 102.602 72.3254C102.619 72.3042 102.687 72.215 102.633 72.2855C102.818 72.0484 103.011 71.8207 103.21 71.5978C103.614 71.1518 104.046 70.727 104.499 70.328C104.611 70.2271 104.726 70.1308 104.844 70.0346C104.895 69.9924 104.949 69.9478 105.001 69.9055C105.031 69.8821 105.06 69.8586 105.09 69.8351C105.104 69.8234 105.226 69.7295 105.118 69.8116C105.358 69.6286 105.602 69.4525 105.853 69.2835C106.39 68.9221 106.956 68.5935 107.533 68.2978C107.841 68.1405 108.153 67.9903 108.47 67.8518C108.55 67.8166 108.629 67.7814 108.707 67.7486C108.608 67.7908 108.69 67.7556 108.712 67.7486C108.761 67.7298 108.808 67.7087 108.855 67.6899C109.014 67.6242 109.176 67.5631 109.338 67.5021C109.988 67.2603 110.65 67.0515 111.319 66.8707C112.075 66.6689 112.838 66.4905 113.608 66.345C113.983 66.2746 114.359 66.1995 114.732 66.1267C114.917 66.0892 115.107 66.0586 115.288 66.007C115.497 65.946 115.657 65.8498 115.866 65.7746C115.992 65.7277 116.086 65.6244 116.086 65.486C116.086 65.3663 115.995 65.2137 115.866 65.1973C115.704 65.1738 115.516 65.1433 115.387 65.1151C115.18 65.0705 114.96 65.0893 114.751 65.101C114.406 65.1222 114.061 65.1644 113.718 65.2067C112.979 65.3005 112.242 65.4484 111.516 65.6174C110.096 65.9483 108.702 66.4436 107.385 67.0726C105.034 68.1968 102.959 69.8938 101.553 72.1024C101.173 72.7009 100.844 73.3323 100.6 73.9988C100.485 74.3157 100.417 74.6607 100.351 74.9917C100.283 75.339 100.234 75.6911 100.201 76.0431C100.182 76.2427 100.473 76.2567 100.534 76.0877" fill="black"/>
<path d="M106.131 68.6169C106.237 68.9361 106.462 69.1802 106.692 69.422C106.915 69.6544 107.131 69.8938 107.34 70.1379C107.744 70.6143 108.096 71.0814 108.427 71.6494C108.502 71.7785 108.575 71.9099 108.64 72.0437C108.673 72.1071 108.704 72.1704 108.732 72.2338C108.753 72.2761 108.769 72.3206 108.791 72.3629C108.838 72.4662 108.765 72.2948 108.809 72.4098C108.927 72.7032 109.032 72.9966 109.107 73.3041C109.145 73.4613 109.176 73.6209 109.201 73.7829C109.19 73.6773 109.199 73.7618 109.201 73.7829C109.206 73.8322 109.211 73.8791 109.215 73.9284C109.222 74.0082 109.227 74.0903 109.232 74.1701C109.246 74.494 109.232 74.8203 109.197 75.1418C109.197 75.1583 109.173 75.3179 109.192 75.1911C109.185 75.2404 109.178 75.2874 109.168 75.3366C109.152 75.4329 109.133 75.5291 109.112 75.623C109.072 75.7967 109.028 75.9704 108.976 76.1417C108.924 76.3107 108.866 76.4797 108.802 76.6463C108.746 76.7965 108.671 76.9702 108.605 77.1204C108.521 77.3082 108.535 77.5241 108.713 77.6556C108.866 77.7706 109.124 77.7847 109.258 77.6227C110.225 76.4562 110.492 74.8649 110.227 73.398C109.976 71.9991 109.164 70.7974 108.183 69.8022C107.913 69.5276 107.624 69.2694 107.331 69.0183C107.033 68.7672 106.723 68.4878 106.329 68.4151C106.216 68.394 106.089 68.4879 106.131 68.6122" fill="black"/>
<path d="M102.541 68.1677C107.47 94.1898 89.5498 116.074 68.818 116.525C46.8211 117.004 27.3332 91.1199 32.9592 65.4826C35.257 55.0123 34.0717 51.7076 34.0693 44.9128C34.0623 27.197 53.6253 21.4724 68.8156 21.4724C82.8911 21.4724 104.663 28.9549 103.06 44.4011C101.935 55.2329 101.029 60.197 102.539 68.1653" fill="#94410F"/>
<path d="M12.731 59.2185C8.13771 64.2318 10.4519 75.6739 16.8736 81.558C23.2952 87.4422 31.9747 88.8012 36.568 83.7878C41.1612 78.7744 39.0934 66.6775 32.6742 60.7957C26.2525 54.9116 17.3242 54.2051 12.731 59.2185Z" fill="#94410F"/>
<path d="M31.9587 74.1999C31.9 73.5874 31.7921 72.9818 31.6301 72.388C31.4635 71.7848 31.1678 71.2004 30.8532 70.6605C30.2172 69.5668 29.4098 68.5599 28.4733 67.7079C26.4102 65.8279 23.8542 64.6285 21.1762 63.908C20.404 63.6991 19.6154 63.5442 18.8244 63.4174C18.3996 63.3494 17.9677 63.2977 17.5382 63.2672C17.3434 63.2531 17.1392 63.232 16.9421 63.2461C16.712 63.2625 16.5313 63.3188 16.2919 63.3517C16.1628 63.3705 16.0713 63.5207 16.0713 63.6404C16.0713 63.7789 16.1675 63.8845 16.2919 63.9291C16.4656 63.9925 16.6111 64.0629 16.7707 64.1263C16.928 64.1896 17.104 64.2178 17.273 64.2506C17.6133 64.3211 17.9537 64.3821 18.294 64.4501C18.977 64.591 19.66 64.7201 20.3336 64.8937C21.0072 65.0674 21.6738 65.2552 22.331 65.4805C22.6572 65.5932 22.9835 65.7152 23.3027 65.8443C23.3426 65.8607 23.3825 65.8772 23.4224 65.8936C23.4482 65.9053 23.5561 65.9499 23.4505 65.9053C23.5303 65.9382 23.6101 65.9734 23.6876 66.0086C23.8448 66.079 24.0021 66.1494 24.1594 66.2245C24.7649 66.5132 25.3564 66.8371 25.9267 67.1939C26.1825 67.3535 26.4313 67.5225 26.6778 67.6985C26.7998 67.7877 26.9219 67.8769 27.0416 67.9684C26.9406 67.891 27.0932 68.0083 27.1237 68.0341C27.1894 68.0858 27.2528 68.1374 27.3185 68.1914C27.7856 68.5763 28.2245 68.9918 28.6446 69.426C28.8535 69.6419 29.0554 69.8649 29.2478 70.0949C29.3394 70.2029 29.4286 70.3155 29.5154 70.4258C29.5694 70.4939 29.445 70.3319 29.5318 70.4493C29.5506 70.4728 29.567 70.4963 29.5858 70.5221C29.6398 70.5948 29.6938 70.6676 29.7454 70.7403C30.1374 71.2849 30.4801 71.8646 30.7875 72.4607C30.9377 72.7494 31.1044 73.0264 31.2429 73.3174C31.3884 73.6202 31.5128 73.93 31.6254 74.2469C31.6841 74.4135 31.9775 74.4041 31.9587 74.2023" fill="black"/>
<path d="M25.8286 66.5771C25.4742 66.6405 25.1902 66.8752 24.9179 67.1005C24.6527 67.3235 24.3898 67.5512 24.1434 67.7929C23.6482 68.2741 23.1881 68.7998 22.8126 69.3819C22.0146 70.6141 21.6649 72.0881 21.9043 73.5433C22.0404 74.3624 22.3643 75.1416 22.8971 75.7824C23.0262 75.9396 23.2937 75.9326 23.4416 75.8152C23.6153 75.6768 23.6364 75.4749 23.5496 75.2801C23.5097 75.1909 23.5167 75.2073 23.4815 75.1158C23.458 75.0571 23.4322 74.9985 23.4064 74.9398C23.3689 74.8553 23.444 75.0384 23.3876 74.8952C23.3266 74.7379 23.2703 74.5783 23.2163 74.4164C23.113 74.1089 23.0356 73.792 22.9816 73.4728C22.9745 73.4329 22.9698 73.3931 22.9628 73.3532C22.9792 73.4635 22.9628 73.3555 22.9628 73.3273C22.9558 73.2546 22.9487 73.1818 22.9417 73.1091C22.9299 72.9307 22.9182 72.7523 22.9182 72.5739C22.9182 72.4284 22.9229 72.2829 22.9346 72.1374C22.9417 72.0576 22.9487 71.9754 22.9605 71.8956C22.944 72.0224 22.9675 71.8627 22.9698 71.8463C22.9769 71.7994 22.9863 71.7501 22.9957 71.7031C23.0567 71.391 23.1459 71.0859 23.2585 70.7878C23.2867 70.715 23.3172 70.6423 23.3454 70.5695C23.3829 70.4756 23.3548 70.546 23.3454 70.5648C23.3642 70.5226 23.3829 70.478 23.4017 70.4357C23.4674 70.2925 23.5378 70.1517 23.6129 70.0132C23.7632 69.7363 23.9322 69.4687 24.1082 69.2082C24.296 68.9312 24.4462 68.7364 24.6433 68.4994C24.8804 68.2154 25.1245 67.9361 25.3803 67.6685C25.6361 67.3986 25.9084 67.1357 26.0258 66.7766C26.068 66.6499 25.9413 66.5583 25.8286 66.5795" fill="black"/>
<path d="M61.0652 63.0886C61.0652 63.0886 53.3644 70.1088 38.6904 63.7482" stroke="black" stroke-width="1.07027" stroke-linecap="round" stroke-linejoin="round"/>
<path d="M98.2849 64.197C98.2849 64.197 88.9787 70.6398 75.9336 63.3403" stroke="black" stroke-width="1.07027" stroke-linecap="round" stroke-linejoin="round"/>
<path d="M76.9638 95.218C77.2056 95.2744 75.1284 101.553 69.2419 101.919C60.5601 102.459 58.0205 94.8143 58.0205 94.8143C58.0205 94.8143 64.7285 92.3475 76.9638 95.2157" fill="#FE6A8D"/>
<path d="M58.0205 94.8167C57.7858 94.7416 60.1892 91.0449 66.186 91.0895C72.1828 91.1341 77.6844 95.2509 77.6844 95.2509C77.6844 95.2509 69.9437 98.5767 58.0205 94.8167Z" fill="#7F3546"/>
<path d="M56.6334 94.5427C57.091 94.7187 57.5464 94.8947 58.0064 95.0661C58.4664 95.2374 58.9288 95.3876 59.3982 95.5285C60.3324 95.8101 61.2829 96.0472 62.2335 96.2701C63.8647 96.6504 65.5406 96.9883 67.2187 97.0353C68.5331 97.0728 69.8521 96.9766 71.1548 96.8264C72.6311 96.6551 74.0957 96.418 75.5462 96.0824C76.769 95.8007 77.966 95.4088 79.1044 94.8783C79.2147 94.8267 79.3226 94.7727 79.433 94.7187C79.677 94.5967 79.5081 94.1953 79.2475 94.2775C78.7382 94.4394 78.2195 94.5661 77.6961 94.6741C77.0671 94.8056 76.4404 94.9464 75.8067 95.0637C75.112 95.1928 74.4172 95.3243 73.7178 95.4322C73.3563 95.4885 72.9926 95.5519 72.6311 95.6059C72.4574 95.6317 72.2814 95.6575 72.1053 95.681C72.0561 95.6881 72.0068 95.6951 71.9575 95.7021C71.8965 95.7115 71.9833 95.6974 71.988 95.6974C71.9669 95.6998 71.9457 95.7021 71.9246 95.7068C71.8331 95.7186 71.7439 95.7303 71.6524 95.742C70.3263 95.9087 68.9884 96.0354 67.6506 96.0448C66.1015 96.0566 64.6487 95.8218 63.1324 95.5425C62.1795 95.3665 61.2336 95.16 60.2901 94.937C59.8137 94.8243 59.3372 94.7164 58.8607 94.6037C58.3937 94.4934 57.9149 94.4277 57.4431 94.3432C57.2037 94.3009 56.9619 94.2563 56.7202 94.2117C56.5019 94.1718 56.4221 94.4629 56.6287 94.5427" fill="black"/>
<path d="M75.0326 58.1347C76.0137 57.2944 76.9947 56.5809 78.1495 55.8909C78.6964 55.5646 79.262 55.2689 79.8441 55.0084C79.9098 54.9779 79.9779 54.9497 80.046 54.9215C80.1422 54.8793 79.9615 54.9591 79.9615 54.9567C79.9615 54.952 80.06 54.9168 80.0765 54.9098C80.229 54.8464 80.3839 54.7877 80.5388 54.7314C80.8346 54.6234 81.1303 54.5249 81.4307 54.4357C82.0504 54.2479 82.67 54.0719 83.3061 53.9475C83.4704 53.9146 83.6347 53.8865 83.7989 53.8583C83.8764 53.8466 83.9539 53.8325 84.0337 53.8207C84.0783 53.8137 84.1228 53.809 84.1674 53.802C84.3224 53.7785 84.1182 53.8137 84.0736 53.8137C84.428 53.8067 84.7918 53.7339 85.1485 53.7081C86.7187 53.6025 88.3007 53.6518 89.8638 53.8254C90.0938 53.8513 90.3262 53.8982 90.5586 53.9099C90.2323 53.8935 90.6548 53.924 90.7299 53.9357C90.9388 53.9663 91.15 53.9944 91.3589 54.0202C91.3871 54.0249 91.542 54.0437 91.3847 54.0226C91.204 53.9968 91.4669 54.0343 91.5044 54.039C91.6288 54.0578 91.7532 54.0742 91.8776 54.093C92.1475 54.1329 92.4151 54.1775 92.685 54.2221C93.8656 54.4239 95.0415 54.6493 96.2268 54.83C96.7126 54.9051 97.2665 54.7079 97.3886 54.1705C97.5106 53.633 97.2243 53.1941 96.729 53.0086C94.7505 52.2623 92.6569 51.8022 90.5609 51.5417C88.9273 51.3375 87.2609 51.2296 85.6179 51.3774C84.151 51.5089 82.6888 51.7741 81.297 52.2599C80.0131 52.7082 78.7973 53.3818 77.6942 54.1705C76.415 55.0858 75.2955 56.1796 74.2651 57.3648C73.8027 57.8953 74.5021 58.59 75.0349 58.1347" fill="black"/>
<path d="M63.2991 81.3277C63.2474 81.4521 63.2169 81.5718 63.2428 81.7079C63.2639 81.8159 63.3014 81.9215 63.339 82.0247C63.4258 82.2641 63.5314 82.5036 63.6817 82.7078C63.8999 83.0011 64.137 83.264 64.4139 83.5011C64.9843 83.9916 65.6344 84.3413 66.3386 84.5995C67.8689 85.1605 69.5846 85.1182 71.1102 84.5666C71.6265 84.3789 72.1476 84.1536 72.6123 83.8578C73.1498 83.5175 73.7483 83.0903 73.9642 82.4636C74.0206 82.2947 73.9549 82.0928 73.8328 81.9708C73.6943 81.8323 73.523 81.8112 73.3399 81.8393C73.1944 81.8628 73.0653 81.9309 72.9315 81.9895C72.9081 81.9989 72.8822 82.013 72.8564 82.0224C72.8775 82.0154 72.9785 81.9708 72.8705 82.0154C72.7743 82.0553 72.6827 82.0952 72.5912 82.1468C72.3893 82.2618 72.1945 82.3862 71.9927 82.5012C71.8002 82.6115 71.6078 82.7218 71.4106 82.8228C71.3191 82.8697 71.2252 82.9166 71.1337 82.9589C71.0914 82.9777 71.0492 82.9988 71.0046 83.0176C70.9834 83.027 70.9388 83.0387 70.9201 83.0551C70.9459 83.0363 71.0632 82.9964 70.9694 83.034C70.5985 83.1819 70.2183 83.3039 69.8263 83.3907C69.7371 83.4119 69.6456 83.4283 69.5564 83.4447C69.5071 83.4541 69.4602 83.4612 69.4109 83.4682C69.378 83.4729 69.2114 83.4964 69.3452 83.4776C69.4837 83.4588 69.3076 83.4823 69.2795 83.4846C69.2396 83.4893 69.1973 83.494 69.1574 83.4964C69.0635 83.5058 68.9696 83.5105 68.8734 83.5152C68.5213 83.5316 68.1646 83.5198 67.8125 83.4846C67.7679 83.4799 67.7233 83.4753 67.6787 83.4706C67.66 83.4706 67.6412 83.4659 67.6224 83.4635C67.6083 83.4612 67.8008 83.4917 67.721 83.4752C67.6341 83.4588 67.5473 83.4471 67.4605 83.4307C67.2962 83.4001 67.1342 83.3626 66.9723 83.318C66.815 83.2757 66.6601 83.2265 66.5052 83.1701C66.4324 83.1443 66.3597 83.1161 66.2893 83.088C66.2728 83.0809 66.2564 83.0739 66.24 83.0669C66.1719 83.041 66.3339 83.1068 66.3245 83.1021C66.2822 83.0809 66.2376 83.0645 66.1954 83.0457C65.9161 82.919 65.6485 82.7664 65.3856 82.6068C65.2472 82.5223 65.1134 82.4284 64.9819 82.3322C64.9491 82.3087 64.8974 82.2595 65.0336 82.3721C65.0171 82.358 65.0007 82.3463 64.9819 82.3322C64.9538 82.3087 64.9233 82.2853 64.8951 82.2618C64.8341 82.2125 64.7754 82.1585 64.7144 82.1092C64.5243 81.9496 64.3341 81.7877 64.1487 81.6234C64.0595 81.5436 63.9774 81.4591 63.8929 81.3723C63.792 81.269 63.6793 81.2267 63.5479 81.1774C63.4352 81.1329 63.3343 81.2267 63.2944 81.3206" fill="black"/>
<path d="M61.2977 57.6937C59.5233 55.6518 57.4414 53.9149 54.9347 52.8517C52.0455 51.6242 48.7783 51.4739 45.6942 51.7931C43.3636 52.0349 41.0259 52.5114 38.8314 53.3399C38.369 53.5136 38.0028 53.9853 38.1718 54.5017C38.3455 55.0368 38.8102 55.241 39.336 55.1612C40.3898 55.0016 41.4413 54.8115 42.4905 54.6214C42.9646 54.5369 43.441 54.4571 43.9175 54.389C44.0255 54.3726 44.1334 54.3562 44.2414 54.3444C43.9973 54.3702 44.232 54.3444 44.3353 54.3327C44.5301 54.3069 44.7249 54.2787 44.9197 54.2506C44.9643 54.2435 45.0089 54.2388 45.0535 54.2318C45.3469 54.1895 44.8775 54.2529 45.0464 54.2318C46.6519 54.0299 48.2573 53.9407 49.8744 54.0064C50.2288 54.0205 50.5832 54.044 50.9376 54.0792C51.109 54.0956 51.2803 54.1168 51.4516 54.1356C51.5784 54.1496 51.3155 54.1168 51.3249 54.1191C51.3695 54.1262 51.4164 54.1308 51.461 54.1379C51.5502 54.1496 51.6394 54.1637 51.7286 54.1778C52.3858 54.2834 53.0359 54.4313 53.6743 54.6191C54.2775 54.7974 54.876 54.9875 55.4581 55.2223C55.4957 55.2387 55.5332 55.2551 55.5731 55.2692C55.6717 55.3091 55.4839 55.234 55.4886 55.234C55.5332 55.2269 55.6764 55.3161 55.7187 55.3349C55.8712 55.403 56.0214 55.4734 56.1716 55.5461C56.4533 55.6823 56.7302 55.8278 57.0048 55.9804C57.6198 56.3254 58.2206 56.708 58.8004 57.1117C59.4411 57.5553 59.9199 57.9402 60.5302 58.4612C61.063 58.9166 61.7601 58.2242 61.3 57.6914" fill="black"/>
<path d="M98.133 48.9572C99.0319 54.6301 100.555 60.2068 102.668 65.5464C102.369 64.7953 104.252 60.8686 104.747 60.1763C105.587 59.0098 106.899 58.4183 107.817 57.3011C110.211 54.3954 110.666 50.0157 110.512 46.4035C110.239 39.9913 108.075 33.6941 104.468 28.3967C100.633 22.7684 96.4313 17.7949 90.4416 14.3588C83.7406 10.5142 77.197 9.95329 69.7121 9.47683C62.5464 9.01915 56.3055 8.69291 49.3535 11.4226C41.6949 14.4292 35.0527 19.9613 30.7082 26.9485C29.0559 29.6078 27.7251 32.4783 26.8895 35.4966C25.6221 40.0758 25.7723 44.8169 26.2159 49.4994C26.4623 52.107 27.3401 56.5782 28.8916 58.6718C29.6286 59.6669 30.6542 60.411 31.7034 61.0681C32.7267 61.7089 33.8862 62.3966 34.2101 63.5607C33.6421 61.5211 34.5574 59.0872 34.9095 57.1063C35.3578 54.5878 35.2287 52.0319 35.2357 49.4712C35.5244 50.3913 35.8343 51.3489 36.5079 52.0412C37.1791 52.7336 38.3292 53.0669 39.1272 52.5247C39.4793 52.2853 39.7163 51.9145 39.9393 51.5531C42.5094 47.4081 44.6593 43.0026 46.3445 38.4258C46.3116 39.9397 46.2811 41.4559 46.2483 42.9698C46.2178 44.4179 46.4971 46.2862 47.9124 46.596C49.2502 46.887 50.2829 45.4741 50.919 44.2607C52.0644 42.0732 53.2121 39.8857 54.3575 37.6982C53.7918 40.8034 54.6743 44.141 56.7022 46.5608C57.289 47.2602 58.0236 47.9151 58.9249 48.0653C60.6547 48.3516 62.0676 46.7486 63.0135 45.2723C66.2783 40.1861 68.6442 34.5249 69.9726 28.6267C69.5149 33.5673 69.0596 38.5854 69.9984 43.458C70.2496 44.7559 70.9115 46.3073 72.2329 46.3613C73.3829 46.4059 74.1763 45.2629 74.7137 44.2442C76.5656 40.7306 78.1123 37.0574 79.3328 33.281C78.6076 37.3321 79.8961 41.6929 82.7056 44.6972C83.175 45.1995 83.7031 45.6783 84.3438 45.9271C85.6019 46.4153 87.0735 45.9154 88.0898 45.0258C89.1061 44.1363 89.7609 42.9158 90.3923 41.7211L89.7985 48.584C89.6506 50.2903 89.5591 52.1915 90.6481 53.5129C93.5468 57.0312 97.2293 50.9968 98.1259 48.9572" fill="black"/>
<path d="M50.9844 30.1809C55.1387 31.453 60.2648 25.5571 60.2648 25.5571" stroke="#0E2536" stroke-width="0.213585" stroke-linecap="round" stroke-linejoin="round"/>
<path d="M53.6738 35.3627C57.7695 35.689 62.743 31.6731 63.5457 30.3611" stroke="#0E2536" stroke-width="0.213585" stroke-linecap="round" stroke-linejoin="round"/>
<path d="M55.758 16.6426C54.5446 20.9776 53.0166 24.8151 53.0166 24.8151" stroke="#0E2536" stroke-width="0.213585" stroke-linecap="round" stroke-linejoin="round"/>
<path d="M63.6797 65.6876C63.6797 70.4428 57.4998 76.8621 49.8765 76.8621C42.2531 76.8621 36.0732 70.4404 36.0732 65.6876C36.0732 60.9347 42.2531 67.1123 49.8765 67.1123C57.4998 67.1123 63.6797 60.9347 63.6797 65.6876Z" fill="#FF5B00"/>
<path d="M101.719 66.4222C101.719 71.1774 95.5389 77.5967 87.9155 77.5967C80.2922 77.5967 74.1123 71.1751 74.1123 66.4222C74.1123 61.6694 80.2922 67.8469 87.9155 67.8469C95.5389 67.8469 101.719 61.6694 101.719 66.4222Z" fill="#FF5B00"/>
<path d="M42.4692 64.7666C42.4692 64.7666 40.9976 66.1256 38.6787 66.5246L36.3574 66.9236L39.6527 64.1658L42.4692 64.7643V64.7666Z" fill="black"/>
<path d="M45.802 65.5347C45.802 65.5347 44.6425 67.1683 42.4551 68.0367L40.2676 68.9075L42.9221 65.53L45.802 65.5347Z" fill="black"/>
<path d="M49.5435 65.9451C49.5435 65.9451 48.56 67.6889 46.4758 68.7827L44.3916 69.8764L46.68 66.2408L49.5458 65.9451H49.5435Z" fill="black"/>
<path d="M90.6475 66.6972C90.6475 66.6972 92.0745 68.1008 94.3817 68.5749L96.6889 69.0466L93.4827 66.1855L90.6475 66.6972Z" fill="black"/>
<path d="M93.9619 65.9237C93.9619 65.9237 95.6941 66.9283 98.0458 66.8133L100.398 66.6983L96.5813 64.7244L93.9619 65.9237Z" fill="black"/>
<path d="M86.8125 66.7688C86.8125 66.7688 87.9016 68.4493 90.0491 69.414L92.1967 70.3763L89.69 66.8862L86.8125 66.7688Z" fill="black"/>
<path d="M82.623 65.7671C82.623 65.7671 82.9117 67.748 84.4632 69.5201L86.0146 71.2921L85.1908 67.0768L82.6254 65.7694L82.623 65.7671Z" fill="black"/>
<path d="M78.4219 64.7271C78.4219 64.7271 78.6801 66.4827 80.0672 68.1421L81.452 69.7991L80.715 66.0484L78.4219 64.7294V64.7271Z" fill="black"/>
<path d="M106.286 92.9014C107.987 92.9014 109.366 91.2737 109.366 89.2658C109.366 87.2579 107.987 85.6301 106.286 85.6301C104.586 85.6301 103.207 87.2579 103.207 89.2658C103.207 91.2737 104.586 92.9014 106.286 92.9014Z" stroke="#8AECE7" stroke-width="1.17354" stroke-miterlimit="10"/>
<path d="M27.6116 92.346C29.3123 92.346 30.691 90.7182 30.691 88.7103C30.691 86.7024 29.3123 85.0747 27.6116 85.0747C25.9109 85.0747 24.5322 86.7024 24.5322 88.7103C24.5322 90.7182 25.9109 92.346 27.6116 92.346Z" stroke="#8AECE7" stroke-width="1.17354" stroke-miterlimit="10"/>
</svg>
