<svg width="36" height="28" viewBox="0 0 36 28" fill="none" xmlns="http://www.w3.org/2000/svg">
<g clip-path="url(#clip0_1530_12837)">
<path d="M26.7076 3.45748C26.9109 3.54689 27.1054 3.6498 27.2798 3.78009C27.6061 4.02423 27.8553 4.38442 27.8451 4.7698C27.8371 5.06248 27.6794 5.34056 27.4561 5.55003C27.2328 5.75951 26.9477 5.90621 26.6525 6.01934C26.8748 6.16605 27.0846 6.34158 27.1977 6.56967C27.3109 6.79775 27.3083 7.08751 27.1335 7.27983C26.9105 7.52544 26.5102 7.53675 26.1617 7.52799C26.3131 7.53164 26.4135 8.07284 26.4204 8.16955C26.4394 8.43267 26.3638 8.67609 26.2201 8.90162C25.9288 9.35815 25.2975 9.59025 24.7421 9.65229C24.1399 9.71981 23.5265 9.60449 22.9615 9.40231C22.6689 9.29757 22.27 9.03409 21.9507 9.16218C21.8109 9.21838 21.6967 9.31509 21.5726 9.39684C21.1613 9.66725 20.6212 9.76688 20.1274 9.66361C19.6972 9.57347 19.2114 9.23407 19.0757 8.83666C18.8476 8.89395 18.61 8.93555 18.3754 8.90891C18.1407 8.88227 17.9075 8.779 17.7783 8.59762C17.6926 8.47683 17.6586 8.33195 17.6364 8.18962C17.6043 7.98526 17.5929 7.77469 17.6484 7.5747C17.7039 7.37472 17.8331 7.18532 18.0294 7.0835C17.782 6.99482 17.5364 6.88826 17.3419 6.72257C17.1474 6.55689 17.009 6.32224 17.0218 6.07919C17.0346 5.83614 17.2269 5.59674 17.4893 5.55733C17.1189 5.13437 17.1098 4.4866 17.4455 4.03992C17.7812 3.59324 18.4246 3.36917 19.0063 3.47244C19.0465 2.97357 19.4224 2.55061 19.8369 2.22472C20.0088 2.0897 20.1957 1.96233 20.4132 1.90431C20.7719 1.80833 21.154 1.9138 21.5098 2.01853C21.55 2.03021 21.8678 1.86124 21.9408 1.84555C22.1167 1.80796 22.3014 1.80322 22.4798 1.82913C22.755 1.86891 23.1831 2.00539 23.2688 2.27727C23.3374 2.17728 23.4279 2.10101 23.5414 2.04152C24.1742 1.70943 25.0048 1.82183 25.6139 2.18932C25.807 2.30574 25.9869 2.44952 26.1004 2.63418C26.2139 2.81884 26.2533 3.04912 26.1657 3.24509C26.3478 3.31187 26.531 3.37975 26.708 3.45748H26.7076Z" fill="black"/>
<path d="M19.1978 5.61718C18.8547 5.61207 18.5712 5.98029 18.5646 6.43938C18.5576 6.89884 18.8299 7.27545 19.1726 7.28056C19.5156 7.28567 19.7988 6.91745 19.8057 6.45799C19.8127 5.9989 19.5404 5.62229 19.1978 5.61718ZM19.1762 7.09518C18.931 7.09153 18.7365 6.8222 18.7412 6.49376C18.7463 6.16531 18.9489 5.9022 19.1941 5.90584C19.439 5.90949 19.6339 6.17882 19.6287 6.50726C19.624 6.8357 19.4215 7.09882 19.1762 7.09518Z" fill="#FF5B00"/>
<path d="M31.6549 16.4799C31.4966 16.2993 31.4612 16.1727 31.5035 15.9362C31.5119 15.8895 31.4571 15.8588 31.4217 15.8898C31.2411 16.0482 31.1145 16.0836 30.878 16.0413C30.8313 16.0329 30.8006 16.0876 30.8316 16.123C30.99 16.3037 31.0254 16.4303 30.9831 16.6668C30.9747 16.7135 31.0294 16.7442 31.0648 16.7131C31.2455 16.5548 31.3721 16.5194 31.6086 16.5617C31.6553 16.5701 31.686 16.5153 31.6549 16.4799Z" fill="#FF9260"/>
<path d="M8.13273 22.7266C7.97434 22.5459 7.93894 22.4193 7.98128 22.1828C7.98967 22.1361 7.93493 22.1054 7.89953 22.1365C7.71889 22.2948 7.59225 22.3302 7.35577 22.2879C7.30906 22.2795 7.27841 22.3343 7.30943 22.3696C7.46781 22.5503 7.50321 22.6769 7.46088 22.9134C7.45248 22.9601 7.50722 22.9908 7.54262 22.9598C7.72327 22.8014 7.8499 22.766 8.08638 22.8083C8.13309 22.8167 8.16375 22.762 8.13273 22.7266Z" fill="#FF9260"/>
<path d="M6.93658 7.43045C6.7136 7.34104 6.62492 7.24397 6.55595 7.0137C6.54245 6.96844 6.47968 6.96552 6.46216 7.00932C6.37275 7.23229 6.27568 7.32097 6.0454 7.38995C6.00015 7.40345 5.99723 7.46622 6.04102 7.48373C6.264 7.57314 6.35268 7.67022 6.42165 7.90049C6.43516 7.94574 6.49793 7.94867 6.51544 7.90487C6.60485 7.6819 6.70193 7.59322 6.9322 7.52424C6.97745 7.51074 6.98037 7.44797 6.93658 7.43045Z" fill="#FF9260"/>
<path d="M12.9015 21.2751C13.0712 21.3255 13.2428 21.3499 13.4117 21.3499C14.1416 21.3499 14.8218 20.9007 15.0886 20.1843L18.1045 12.0835L24.4602 11.7663L24.6292 14.3242L28.1216 13.3943L27.6114 9.94602C27.418 8.95448 26.4922 8.28081 25.4897 8.40051L17.3903 9.37087C16.3674 9.4705 15.4806 10.1208 15.078 11.0675L11.7805 18.8224C11.3338 19.811 11.8618 20.9664 12.9015 21.2751Z" fill="#1A1A1A"/>
<path d="M14.0559 25.2584H27.7739C26.6893 23.1479 25.065 20.5255 23.087 18.9836L23.2195 18.4654L24.3158 15.0806L24.6289 11.2561L21.2663 10.9196L19.9044 11.555L18.3903 11.1357L16.6747 11.9039L16.3671 13.9106L17.5513 15.2974L14.0559 25.2584Z" fill="#1A1A1A"/>
<path d="M24.1326 3.57519C24.1572 1.93557 22.8972 0.587184 21.3182 0.563483C19.7392 0.539781 18.4393 1.84974 18.4147 3.48936C18.3901 5.12898 19.6501 6.47737 21.2291 6.50108C22.808 6.52478 24.108 5.21481 24.1326 3.57519Z" fill="black"/>
<path d="M22.8157 8.93001L21.2735 11.0674L20.2039 9.31173C20.2039 9.31173 20.0108 8.17166 19.8681 7.31479C19.8674 7.30968 19.8667 7.30457 19.8652 7.2991C19.7824 6.80169 19.7167 6.40318 19.717 6.38566L20.6265 6.05028L20.6805 6.03021L22.2227 5.46164L22.8165 8.92964L22.8157 8.93001Z" fill="#8E410F"/>
<path d="M22.0607 5.77225C22.0607 5.77225 21.4782 6.58423 20.9918 6.90428C20.679 7.10974 20.0641 7.27031 19.8652 7.29987C19.7824 6.80246 19.7167 6.40395 19.717 6.38644L20.6265 6.05106L20.6805 6.03099L22.061 5.77225H22.0607Z" fill="#72310B"/>
<path d="M22.9111 4.9416C22.9111 4.9416 21.9812 6.75534 20.0785 6.7422C18.1764 6.7287 17.9308 5.5474 18.3819 4.31172C18.4352 4.16611 18.4764 4.03948 18.5085 3.92707C18.5621 3.73913 18.591 3.59279 18.6045 3.472C18.6527 3.05086 18.5268 2.93517 18.7056 2.43412C19.2771 0.882766 20.7105 1.3539 20.7127 1.35463C20.8872 1.41193 21.1452 1.34259 21.3273 1.34222C21.5561 1.34149 21.7163 1.37872 21.901 1.50681C22.1002 1.64512 22.3185 1.75241 22.5217 1.88379C22.7235 2.01407 22.8626 2.22537 23.0677 2.33193C23.1578 2.37864 23.2567 2.45273 23.2505 2.55418C23.2465 2.61731 23.2016 2.67023 23.1863 2.73154C23.1563 2.84941 23.2385 2.96291 23.3071 3.06327C23.3388 3.10961 23.3695 3.16946 23.3432 3.2191C23.3213 3.2607 23.2666 3.27712 23.2443 3.31872C23.2136 3.37529 23.2567 3.44171 23.2943 3.49389C23.3855 3.62053 23.2983 3.82927 23.2647 3.96904C23.2242 4.13691 23.1739 4.30259 23.1151 4.46499C23.0564 4.62702 22.9921 4.78942 22.9115 4.94197L22.9111 4.9416Z" fill="#8E410F"/>
<path d="M21.2324 3.84054C21.2324 3.84054 21.1645 4.04089 20.8489 4.13541C20.8069 4.14818 20.7605 4.15913 20.7087 4.16716C20.6675 4.17373 20.6233 4.17883 20.5755 4.18175C20.1449 4.20766 19.9329 4.03286 19.9329 4.03286C19.9329 4.03286 20.1015 3.62121 20.5233 3.56538C20.5408 3.56282 20.5584 3.561 20.5766 3.5599C20.743 3.55041 20.8751 3.58472 20.9759 3.63289C21.1518 3.71646 21.232 3.84054 21.232 3.84054H21.2324Z" fill="#FF5B00"/>
<path d="M21.2316 3.95591C21.2316 3.95591 21.163 4.134 20.8407 4.21794C20.7977 4.22925 20.7506 4.23911 20.6977 4.24604C20.6557 4.25188 20.6108 4.25626 20.5619 4.25881C20.1225 4.28107 19.9058 4.12488 19.9058 4.12488C19.9058 4.12488 20.0769 3.75848 20.5075 3.70995C20.5254 3.70776 20.5433 3.7063 20.5619 3.7052C20.7316 3.69681 20.8666 3.72783 20.9696 3.77089C21.1495 3.8457 21.2316 3.95628 21.2316 3.95628V3.95591Z" fill="white"/>
<path d="M21.0197 3.9435C21.0179 4.06576 20.9449 4.17013 20.8406 4.21757C20.8 4.23691 20.7544 4.24677 20.707 4.2464C20.7041 4.2464 20.7004 4.2464 20.6975 4.24567C20.5322 4.23837 20.4015 4.10079 20.4041 3.93438C20.4055 3.84461 20.445 3.76432 20.5074 3.70958C20.5252 3.70739 20.5431 3.70593 20.5617 3.70484C20.7314 3.69644 20.8665 3.72746 20.9694 3.77052C21.0019 3.82052 21.0205 3.88001 21.0194 3.9435H21.0197Z" fill="black"/>
<path d="M19.9343 4.1085C19.9343 4.1085 20.3237 3.29797 21.2434 3.92822" stroke="black" stroke-width="0.0864901" stroke-linecap="round" stroke-linejoin="round"/>
<path d="M19.3822 3.89823C19.3822 3.89823 19.2814 3.95406 18.9694 3.9256C18.9274 3.92231 18.8829 3.91574 18.8337 3.90552C18.795 3.89713 18.7537 3.88691 18.7092 3.87341C18.6424 3.85334 18.5829 3.83035 18.53 3.80663C18.5837 3.61868 18.6125 3.47234 18.626 3.35155C18.6906 3.34717 18.7607 3.35228 18.8355 3.3698C18.8519 3.37308 18.8683 3.37746 18.8851 3.38257C19.0388 3.42928 19.1482 3.49935 19.2256 3.57051C19.361 3.69386 19.3822 3.89823 19.3822 3.89823Z" fill="#FF5B00"/>
<path d="M19.3772 3.93806C19.3772 3.93806 19.2593 4.07454 18.9477 4.04608C18.9057 4.04279 18.8612 4.03623 18.8119 4.02601C18.7732 4.01761 18.732 4.0074 18.6875 3.99389C18.6207 3.97382 18.5612 3.95083 18.5083 3.92711C18.5619 3.73917 18.5908 3.59283 18.6043 3.47203C18.6689 3.46765 18.7389 3.47276 18.8138 3.49028C18.8302 3.49356 18.8466 3.49794 18.8634 3.50305C19.017 3.54976 19.1265 3.61983 19.2039 3.691C19.3393 3.81434 19.3772 3.93806 19.3772 3.93806Z" fill="white"/>
<path d="M19.272 3.92966C19.2147 4.02929 19.107 4.08184 18.9994 4.07308C18.9574 4.07053 18.9151 4.05776 18.8764 4.03549C18.8739 4.03403 18.8713 4.03257 18.8687 4.03075C18.7363 3.949 18.6917 3.77602 18.7702 3.64027C18.8125 3.56691 18.8819 3.51911 18.9578 3.50269C18.9735 3.50889 18.9892 3.51619 19.0049 3.52385C19.1483 3.59501 19.245 3.68187 19.31 3.76471C19.314 3.82091 19.3019 3.87821 19.272 3.93003V3.92966Z" fill="black"/>
<path d="M18.616 3.46253C18.8357 3.44173 19.1148 3.52785 19.3966 3.91761" stroke="black" stroke-width="0.081381" stroke-linecap="round" stroke-linejoin="round"/>
<path d="M20.0443 5.33686C20.0575 5.33905 19.9834 5.71676 19.6739 5.76457C19.217 5.835 19.0386 5.39781 19.0386 5.39781C19.0386 5.39781 19.3798 5.223 20.0443 5.33686Z" fill="#FF27E7"/>
<path d="M19.0389 5.39786C19.0261 5.39457 19.1323 5.16685 19.4501 5.14277C19.768 5.11868 20.0829 5.33545 20.0829 5.33545C20.0829 5.33545 19.6921 5.565 19.0389 5.39786Z" fill="#801478"/>
<path d="M18.9625 5.38723C19.0133 5.40365 19.0636 5.42007 19.1154 5.43212C19.1673 5.44416 19.2194 5.45401 19.272 5.46277C19.3592 5.47737 19.449 5.48978 19.5377 5.48467C19.6847 5.47627 19.834 5.44088 19.9727 5.39197C20.042 5.36752 20.1099 5.33687 20.1716 5.296C20.1862 5.28614 20.1738 5.26534 20.1581 5.27264C20.1011 5.29855 20.0398 5.31716 19.98 5.33468C19.9074 5.35621 19.8344 5.37701 19.7603 5.3938C19.6924 5.40913 19.6231 5.42263 19.5537 5.42847C19.4727 5.4354 19.3902 5.42737 19.31 5.41788C19.2519 5.41095 19.1943 5.4011 19.1366 5.39124C19.0797 5.38139 19.0231 5.37446 18.9658 5.36789C18.9545 5.36643 18.9534 5.38358 18.9633 5.38687L18.9625 5.38723Z" fill="black"/>
<path d="M19.9515 3.61909C20.1085 3.51071 20.2844 3.43188 20.4767 3.41874C20.7351 3.40086 20.9781 3.48808 21.2244 3.55085C21.2828 3.56581 21.3244 3.47896 21.2668 3.45013C21.0267 3.33043 20.7351 3.25817 20.4657 3.29138C20.2504 3.31802 20.0694 3.42203 19.9129 3.56837C19.8866 3.59282 19.9213 3.63953 19.9515 3.61873V3.61909Z" fill="black"/>
<path d="M19.2365 3.2855C19.1894 3.25521 19.1441 3.22127 19.0927 3.19864C19.0412 3.17602 18.9894 3.15668 18.9361 3.14062C18.839 3.11142 18.7394 3.09464 18.6376 3.0961C18.6044 3.09683 18.5759 3.12383 18.5759 3.15777C18.5759 3.19463 18.6044 3.21507 18.6376 3.21944C18.7234 3.23076 18.8161 3.23915 18.9047 3.25375C18.954 3.26178 19.0025 3.27273 19.0503 3.28586C19.1033 3.30046 19.158 3.31068 19.208 3.33367C19.2401 3.34827 19.2664 3.30557 19.2361 3.28586L19.2365 3.2855Z" fill="black"/>
<path d="M19.3841 3.41693C19.4356 3.46182 19.4841 3.50817 19.5214 3.56546C19.5586 3.62276 19.5827 3.68188 19.5922 3.74647C19.6009 3.80632 19.5951 3.8669 19.5721 3.92273C19.5491 3.97857 19.5152 4.02893 19.4798 4.0771C19.4071 4.1771 19.3199 4.27016 19.2695 4.38402C19.2192 4.49788 19.2079 4.64495 19.3035 4.73326C19.4243 4.8453 19.6261 4.84019 19.7535 4.74238C19.7754 4.7256 19.7575 4.69312 19.7316 4.70516C19.613 4.75954 19.4509 4.78654 19.3462 4.68728C19.3024 4.64604 19.2918 4.58035 19.2958 4.52233C19.2998 4.46868 19.3206 4.41723 19.3466 4.37051C19.4057 4.26322 19.4903 4.17235 19.5578 4.0709C19.5903 4.02236 19.6199 3.97018 19.6374 3.91398C19.656 3.85522 19.6575 3.79209 19.6465 3.73151C19.6217 3.59502 19.5272 3.45124 19.3933 3.40197C19.3852 3.39905 19.3783 3.41109 19.3849 3.41657L19.3841 3.41693Z" fill="black"/>
<path d="M8.25872 12.5684C8.25872 12.5684 7.22376 11.451 6.86101 11.4918C6.22055 11.5641 3.86159 11.3714 3.5222 11.3207C3.18281 11.27 2.39308 11.1638 2.9102 11.4721C3.20872 11.6502 3.54519 11.8316 3.7762 11.9531C3.82619 11.9794 3.95684 12.0458 3.95684 12.0458C3.61927 11.9893 2.84488 11.8929 2.31243 11.7849C1.47271 11.6145 1.33111 11.5929 1.68875 11.9093C1.71868 11.936 1.97815 12.0082 1.93691 12.0214C1.66029 12.1093 2.31243 12.4367 2.31243 12.4367C2.14091 12.5761 2.90472 12.9388 3.74627 13.2768C5.03851 13.7953 5.06625 13.7596 5.91984 13.9092C6.76321 14.057 7.46973 15.1208 7.46973 15.1208L8.37331 13.1647" fill="#8E410F"/>
<path d="M3.11709 11.4863C3.13328 11.4488 3.04587 11.375 2.92185 11.3216C2.79784 11.2681 2.68418 11.2553 2.66799 11.2928C2.6518 11.3304 2.73921 11.4042 2.86322 11.4576C2.98724 11.5111 3.1009 11.5239 3.11709 11.4863Z" fill="#B57548"/>
<path d="M1.98184 11.97C1.99997 11.9329 1.89913 11.8464 1.7566 11.7768C1.61407 11.7072 1.48382 11.6808 1.46569 11.718C1.44756 11.7551 1.5484 11.8416 1.69093 11.9112C1.83346 11.9808 1.96371 12.0072 1.98184 11.97Z" fill="#B57548"/>
<path d="M2.61828 12.7263C2.63473 12.7 2.5612 12.6243 2.45404 12.5573C2.34689 12.4904 2.24668 12.4574 2.23023 12.4837C2.21378 12.51 2.28731 12.5857 2.39446 12.6527C2.50162 12.7196 2.60183 12.7526 2.61828 12.7263Z" fill="#B57548"/>
<path d="M2.3461 12.3589C2.36423 12.3218 2.26338 12.2352 2.12085 12.1656C1.97832 12.096 1.84808 12.0697 1.82995 12.1068C1.81182 12.1439 1.91266 12.2305 2.05519 12.3001C2.19772 12.3697 2.32796 12.396 2.3461 12.3589Z" fill="#B57548"/>
<path d="M4.12197 12.5502L3.36838 12.4455C2.96694 12.3897 2.57464 12.2824 2.20094 12.1255L1.78491 11.9507" stroke="black" stroke-width="0.0448873" stroke-linecap="round" stroke-linejoin="round"/>
<path d="M4.16203 13.0622L3.3234 12.8553C3.25953 12.8396 3.1975 12.8188 3.13692 12.7936L2.24902 12.421" stroke="black" stroke-width="0.0448873" stroke-linecap="round" stroke-linejoin="round"/>
<path d="M4.06594 12.0557C4.06594 12.0557 3.87472 12.0093 3.5835 11.8502" stroke="black" stroke-width="0.0543757" stroke-linecap="round" stroke-linejoin="round"/>
<path d="M24.6292 14.3242L25.2178 20.1632C25.3707 21.35 26.4976 22.3298 27.4888 22.1393C28.446 21.9554 29.0989 21.0898 29.0989 20.1453C29.0989 20.0314 29.0894 19.9161 29.0697 19.8004L28.122 13.3943L24.6295 14.3242H24.6292Z" fill="#1A1A1A"/>
<path d="M11.8508 20.8423L6.4895 14.8361L8.25981 12.5684L14.1251 18.7493C14.6462 19.2986 14.6929 20.1445 14.2349 20.7477C13.647 21.5221 12.4986 21.5677 11.8512 20.8423H11.8508Z" fill="#1A1A1A"/>
<path d="M32.9667 25.2585H28.6079L25.6084 21.2493C25.0198 20.4624 25.2056 19.3271 26.0361 18.8016C26.2931 18.6389 27.528 18.2984 27.7743 18.5608C30.4917 21.4565 32.2098 24.0297 32.9667 25.2585Z" fill="#1A1A1A"/>
<path d="M14.2019 18.9567L10.5193 14.9496" stroke="black" stroke-width="0.0448873" stroke-linecap="round" stroke-linejoin="round"/>
<path d="M24.0817 8.56945L26.0622 8.418L24.6295 14.8686L23.1398 18.7786L25.6167 21.901L21.7516 24.0147L19.7105 20.5492L17.6344 24.2019L15.251 21.8539L17.5515 15.2974L16.3673 13.9107L17.03 9.42997L20.1645 9.13291L20.778 12.7739L23.3683 8.65484L24.0817 8.56945Z" fill="#37353F"/>
<mask id="mask0_1530_12837" style="mask-type:luminance" maskUnits="userSpaceOnUse" x="15" y="8" width="12" height="17">
<path d="M24.1176 8.56069L26.0981 8.40961L24.6654 14.8599L23.1757 18.7702L25.6525 21.8922L21.7875 24.0059L19.7464 20.5405L17.6703 24.1931L15.2869 21.8455L17.5874 15.2887L16.4032 13.9019L17.0659 9.42158L20.2004 9.12452L20.8138 12.7651L23.4042 8.64645L24.1176 8.56069Z" fill="white"/>
</mask>
<g mask="url(#mask0_1530_12837)">
<path d="M16.9323 10.2157C16.6933 10.1321 16.5955 10.0343 16.5119 9.79526C16.4955 9.74818 16.4294 9.74818 16.413 9.79526C16.3294 10.0343 16.2316 10.1321 15.9926 10.2157C15.9455 10.2321 15.9455 10.2981 15.9926 10.3146C16.2316 10.3981 16.3294 10.4959 16.413 10.735C16.4294 10.782 16.4955 10.782 16.5119 10.735C16.5955 10.4959 16.6933 10.3981 16.9323 10.3146C16.9794 10.2981 16.9794 10.2321 16.9323 10.2157Z" fill="#29282F"/>
<path d="M17.6531 9.83066V9.0891C17.6531 8.44499 17.1473 7.90634 16.5035 7.88481C15.8273 7.86218 15.2715 8.40339 15.2715 9.07487V9.83066C15.2715 9.92444 15.1956 10.0004 15.1018 10.0004V10.17L15.1128 10.169C15.3314 10.1474 15.5441 10.0817 15.7339 9.97079C16.0339 9.79526 16.1977 9.55768 16.3441 9.14056C16.3831 9.02889 16.5418 9.02889 16.5809 9.14056C16.7269 9.55805 16.8907 9.79526 17.1911 9.97079C17.3808 10.0821 17.5936 10.1474 17.8122 10.169L17.8231 10.17V10.0004C17.7294 10.0004 17.6534 9.92444 17.6534 9.83066" fill="#29282F"/>
<path d="M19.6537 10.2157C19.4147 10.1321 19.3169 10.0343 19.2333 9.79526C19.2169 9.74818 19.1508 9.74818 19.1344 9.79526C19.0509 10.0343 18.9531 10.1321 18.714 10.2157C18.6669 10.2321 18.6669 10.2981 18.714 10.3146C18.9531 10.3981 19.0509 10.4959 19.1344 10.735C19.1508 10.782 19.2169 10.782 19.2333 10.735C19.3169 10.4959 19.4147 10.3981 19.6537 10.3146C19.7008 10.2981 19.7008 10.2321 19.6537 10.2157Z" fill="#29282F"/>
<path d="M20.3748 9.83066V9.0891C20.3748 8.44499 19.869 7.90634 19.2252 7.88481C18.549 7.86218 17.9932 8.40339 17.9932 9.07487V9.83066C17.9932 9.92444 17.9173 10.0004 17.8235 10.0004V10.17L17.8344 10.169C18.053 10.1474 18.2658 10.0817 18.4556 9.97079C18.7555 9.79526 18.9194 9.55768 19.0657 9.14056C19.1048 9.02889 19.2635 9.02889 19.3026 9.14056C19.4486 9.55805 19.6124 9.79526 19.9128 9.97079C20.1025 10.0821 20.3153 10.1474 20.5339 10.169L20.5448 10.17V10.0004C20.451 10.0004 20.3751 9.92444 20.3751 9.83066" fill="#29282F"/>
<path d="M22.3744 10.2157C22.1354 10.1321 22.0376 10.0343 21.954 9.79526C21.9376 9.74818 21.8716 9.74818 21.8551 9.79526C21.7716 10.0343 21.6738 10.1321 21.4347 10.2157C21.3876 10.2321 21.3876 10.2981 21.4347 10.3146C21.6738 10.3981 21.7716 10.4959 21.8551 10.735C21.8716 10.782 21.9376 10.782 21.954 10.735C22.0376 10.4959 22.1354 10.3981 22.3744 10.3146C22.4215 10.2981 22.4215 10.2321 22.3744 10.2157Z" fill="#29282F"/>
<path d="M23.0952 9.83066V9.0891C23.0952 8.44499 22.5894 7.90634 21.9457 7.88481C21.2694 7.86218 20.7136 8.40339 20.7136 9.07487V9.83066C20.7136 9.92444 20.6377 10.0004 20.5439 10.0004V10.17L20.5549 10.169C20.7735 10.1474 20.9862 10.0817 21.176 9.97079C21.476 9.79526 21.6399 9.55768 21.7862 9.14056C21.8252 9.02889 21.984 9.02889 22.023 9.14056C22.169 9.55805 22.3329 9.79526 22.6332 9.97079C22.823 10.0821 23.0357 10.1474 23.2543 10.169L23.2653 10.17V10.0004C23.1715 10.0004 23.0956 9.92444 23.0956 9.83066" fill="#29282F"/>
<path d="M25.0949 10.2157C24.8559 10.1321 24.7581 10.0343 24.6745 9.79526C24.6581 9.74818 24.592 9.74818 24.5756 9.79526C24.492 10.0343 24.3942 10.1321 24.1552 10.2157C24.1081 10.2321 24.1081 10.2981 24.1552 10.3146C24.3942 10.3981 24.492 10.4959 24.5756 10.735C24.592 10.782 24.6581 10.782 24.6745 10.735C24.7581 10.4959 24.8559 10.3981 25.0949 10.3146C25.142 10.2981 25.142 10.2321 25.0949 10.2157Z" fill="#29282F"/>
<path d="M25.8157 9.83066V9.0891C25.8157 8.44499 25.3099 7.90634 24.6661 7.88481C23.9899 7.86218 23.4341 8.40339 23.4341 9.07487V9.83066C23.4341 9.92444 23.3582 10.0004 23.2644 10.0004V10.17L23.2754 10.169C23.4939 10.1474 23.7067 10.0817 23.8965 9.97079C24.1965 9.79526 24.3603 9.55768 24.5067 9.14056C24.5457 9.02889 24.7044 9.02889 24.7435 9.14056C24.8895 9.55805 25.0533 9.79526 25.3537 9.97079C25.5434 10.0821 25.7562 10.1474 25.9748 10.169L25.9857 10.17V10.0004C25.892 10.0004 25.816 9.92444 25.816 9.83066" fill="#29282F"/>
<path d="M28.5366 9.83066V9.0891C28.5366 8.44499 28.0308 7.90634 27.3871 7.88481C26.7108 7.86218 26.155 8.40339 26.155 9.07487V9.83066C26.155 9.92444 26.0791 10.0004 25.9854 10.0004V10.17L25.9963 10.169C26.2149 10.1474 26.4277 10.0817 26.6174 9.97079C26.9174 9.79526 27.0813 9.55768 27.2276 9.14056C27.2666 9.02889 27.4254 9.02889 27.4644 9.14056C27.6104 9.55805 27.7743 9.79526 28.0746 9.97079C28.2644 10.0821 28.4771 10.1474 28.6957 10.169L28.7067 10.17V10.0004C28.6129 10.0004 28.537 9.92444 28.537 9.83066" fill="#29282F"/>
<path d="M16.9323 13.3696C16.6933 13.286 16.5955 13.1882 16.5119 12.9492C16.4955 12.9021 16.4294 12.9021 16.413 12.9492C16.3294 13.1882 16.2316 13.286 15.9926 13.3696C15.9455 13.386 15.9455 13.452 15.9926 13.4685C16.2316 13.552 16.3294 13.6498 16.413 13.8889C16.4294 13.9359 16.4955 13.9359 16.5119 13.8889C16.5955 13.6498 16.6933 13.552 16.9323 13.4685C16.9794 13.452 16.9794 13.386 16.9323 13.3696Z" fill="#29282F"/>
<path d="M17.6531 12.9846V12.243C17.6531 11.5989 17.1473 11.0603 16.5035 11.0387C15.8273 11.0161 15.2715 11.5573 15.2715 12.2288V12.9846C15.2715 13.0784 15.1956 13.1543 15.1018 13.1543V13.324L15.1128 13.3229C15.3314 13.3014 15.5441 13.2357 15.7339 13.1247C16.0339 12.9492 16.1977 12.7116 16.3441 12.2945C16.3831 12.1828 16.5418 12.1828 16.5809 12.2945C16.7269 12.712 16.8907 12.9492 17.1911 13.1247C17.3808 13.236 17.5936 13.3014 17.8122 13.3229L17.8231 13.324V13.1543C17.7294 13.1543 17.6534 13.0784 17.6534 12.9846" fill="#29282F"/>
<path d="M19.6537 13.3696C19.4147 13.286 19.3169 13.1882 19.2333 12.9492C19.2169 12.9021 19.1508 12.9021 19.1344 12.9492C19.0509 13.1882 18.9531 13.286 18.714 13.3696C18.6669 13.386 18.6669 13.452 18.714 13.4685C18.9531 13.552 19.0509 13.6498 19.1344 13.8889C19.1508 13.9359 19.2169 13.9359 19.2333 13.8889C19.3169 13.6498 19.4147 13.552 19.6537 13.4685C19.7008 13.452 19.7008 13.386 19.6537 13.3696Z" fill="#29282F"/>
<path d="M20.3748 12.9846V12.243C20.3748 11.5989 19.869 11.0603 19.2252 11.0387C18.549 11.0161 17.9932 11.5573 17.9932 12.2288V12.9846C17.9932 13.0784 17.9173 13.1543 17.8235 13.1543V13.324L17.8344 13.3229C18.053 13.3014 18.2658 13.2357 18.4556 13.1247C18.7555 12.9492 18.9194 12.7116 19.0657 12.2945C19.1048 12.1828 19.2635 12.1828 19.3026 12.2945C19.4486 12.712 19.6124 12.9492 19.9128 13.1247C20.1025 13.236 20.3153 13.3014 20.5339 13.3229L20.5448 13.324V13.1543C20.451 13.1543 20.3751 13.0784 20.3751 12.9846" fill="#29282F"/>
<path d="M22.3744 13.3696C22.1354 13.286 22.0376 13.1882 21.954 12.9492C21.9376 12.9021 21.8716 12.9021 21.8551 12.9492C21.7716 13.1882 21.6738 13.286 21.4347 13.3696C21.3876 13.386 21.3876 13.452 21.4347 13.4685C21.6738 13.552 21.7716 13.6498 21.8551 13.8889C21.8716 13.9359 21.9376 13.9359 21.954 13.8889C22.0376 13.6498 22.1354 13.552 22.3744 13.4685C22.4215 13.452 22.4215 13.386 22.3744 13.3696Z" fill="#29282F"/>
<path d="M23.0952 12.9846V12.243C23.0952 11.5989 22.5894 11.0603 21.9457 11.0387C21.2694 11.0161 20.7136 11.5573 20.7136 12.2288V12.9846C20.7136 13.0784 20.6377 13.1543 20.5439 13.1543V13.324L20.5549 13.3229C20.7735 13.3014 20.9862 13.2357 21.176 13.1247C21.476 12.9492 21.6399 12.7116 21.7862 12.2945C21.8252 12.1828 21.984 12.1828 22.023 12.2945C22.169 12.712 22.3329 12.9492 22.6332 13.1247C22.823 13.236 23.0357 13.3014 23.2543 13.3229L23.2653 13.324V13.1543C23.1715 13.1543 23.0956 13.0784 23.0956 12.9846" fill="#29282F"/>
<path d="M25.0949 13.3696C24.8559 13.286 24.7581 13.1882 24.6745 12.9492C24.6581 12.9021 24.592 12.9021 24.5756 12.9492C24.492 13.1882 24.3942 13.286 24.1552 13.3696C24.1081 13.386 24.1081 13.452 24.1552 13.4685C24.3942 13.552 24.492 13.6498 24.5756 13.8889C24.592 13.9359 24.6581 13.9359 24.6745 13.8889C24.7581 13.6498 24.8559 13.552 25.0949 13.4685C25.142 13.452 25.142 13.386 25.0949 13.3696Z" fill="#29282F"/>
<path d="M25.8157 12.9846V12.243C25.8157 11.5989 25.3099 11.0602 24.6661 11.0387C23.9899 11.0161 23.4341 11.5573 23.4341 12.2288V12.9846C23.4341 13.0783 23.3582 13.1543 23.2644 13.1543V13.3239L23.2754 13.3229C23.4939 13.3013 23.7067 13.2356 23.8965 13.1247C24.1965 12.9492 24.3603 12.7116 24.5067 12.2945C24.5457 12.1828 24.7044 12.1828 24.7435 12.2945C24.8895 12.7119 25.0533 12.9492 25.3537 13.1247C25.5434 13.236 25.7562 13.3013 25.9748 13.3229L25.9857 13.3239V13.1543C25.892 13.1543 25.816 13.0783 25.816 12.9846" fill="#29282F"/>
<path d="M28.5366 12.9846V12.243C28.5366 11.5989 28.0308 11.0603 27.3871 11.0387C26.7108 11.0161 26.155 11.5573 26.155 12.2288V12.9846C26.155 13.0784 26.0791 13.1543 25.9854 13.1543V13.324L25.9963 13.3229C26.2149 13.3014 26.4277 13.2357 26.6174 13.1247C26.9174 12.9492 27.0813 12.7116 27.2276 12.2945C27.2666 12.1828 27.4254 12.1828 27.4644 12.2945C27.6104 12.712 27.7743 12.9492 28.0746 13.1247C28.2644 13.236 28.4771 13.3014 28.6957 13.3229L28.7067 13.324V13.1543C28.6129 13.1543 28.537 13.0784 28.537 12.9846" fill="#29282F"/>
<path d="M16.9323 16.523C16.6933 16.4394 16.5955 16.3416 16.5119 16.1026C16.4955 16.0555 16.4294 16.0555 16.413 16.1026C16.3294 16.3416 16.2316 16.4394 15.9926 16.523C15.9455 16.5394 15.9455 16.6055 15.9926 16.6219C16.2316 16.7054 16.3294 16.8032 16.413 17.0423C16.4294 17.0894 16.4955 17.0894 16.5119 17.0423C16.5955 16.8032 16.6933 16.7054 16.9323 16.6219C16.9794 16.6055 16.9794 16.5394 16.9323 16.523Z" fill="#29282F"/>
<path d="M17.6531 16.1379V15.3964C17.6531 14.7522 17.1473 14.2136 16.5035 14.1921C15.8273 14.1694 15.2715 14.7106 15.2715 15.3821V16.1379C15.2715 16.2317 15.1956 16.3076 15.1018 16.3076V16.4773L15.1128 16.4762C15.3314 16.4547 15.5441 16.389 15.7339 16.278C16.0339 16.1025 16.1977 15.8649 16.3441 15.4478C16.3831 15.3361 16.5418 15.3361 16.5809 15.4478C16.7269 15.8653 16.8907 16.1025 17.1911 16.278C17.3808 16.3893 17.5936 16.4547 17.8122 16.4762L17.8231 16.4773V16.3076C17.7294 16.3076 17.6534 16.2317 17.6534 16.1379" fill="#29282F"/>
<path d="M19.6537 16.523C19.4147 16.4394 19.3169 16.3416 19.2333 16.1026C19.2169 16.0555 19.1508 16.0555 19.1344 16.1026C19.0509 16.3416 18.9531 16.4394 18.714 16.523C18.6669 16.5394 18.6669 16.6055 18.714 16.6219C18.9531 16.7054 19.0509 16.8032 19.1344 17.0423C19.1508 17.0894 19.2169 17.0894 19.2333 17.0423C19.3169 16.8032 19.4147 16.7054 19.6537 16.6219C19.7008 16.6055 19.7008 16.5394 19.6537 16.523Z" fill="#29282F"/>
<path d="M20.3748 16.1379V15.3964C20.3748 14.7522 19.869 14.2136 19.2252 14.1921C18.549 14.1694 17.9932 14.7106 17.9932 15.3821V16.1379C17.9932 16.2317 17.9173 16.3076 17.8235 16.3076V16.4773L17.8344 16.4762C18.053 16.4547 18.2658 16.389 18.4556 16.278C18.7555 16.1025 18.9194 15.8649 19.0657 15.4478C19.1048 15.3361 19.2635 15.3361 19.3026 15.4478C19.4486 15.8653 19.6124 16.1025 19.9128 16.278C20.1025 16.3893 20.3153 16.4547 20.5339 16.4762L20.5448 16.4773V16.3076C20.451 16.3076 20.3751 16.2317 20.3751 16.1379" fill="#29282F"/>
<path d="M22.3744 16.523C22.1354 16.4394 22.0376 16.3416 21.954 16.1026C21.9376 16.0555 21.8716 16.0555 21.8551 16.1026C21.7716 16.3416 21.6738 16.4394 21.4347 16.523C21.3876 16.5394 21.3876 16.6055 21.4347 16.6219C21.6738 16.7054 21.7716 16.8032 21.8551 17.0423C21.8716 17.0894 21.9376 17.0894 21.954 17.0423C22.0376 16.8032 22.1354 16.7054 22.3744 16.6219C22.4215 16.6055 22.4215 16.5394 22.3744 16.523Z" fill="#29282F"/>
<path d="M23.0952 16.1379V15.3964C23.0952 14.7522 22.5894 14.2136 21.9457 14.1921C21.2694 14.1694 20.7136 14.7106 20.7136 15.3821V16.1379C20.7136 16.2317 20.6377 16.3076 20.5439 16.3076V16.4773L20.5549 16.4762C20.7735 16.4547 20.9862 16.389 21.176 16.278C21.476 16.1025 21.6399 15.8649 21.7862 15.4478C21.8252 15.3361 21.984 15.3361 22.023 15.4478C22.169 15.8653 22.3329 16.1025 22.6332 16.278C22.823 16.3893 23.0357 16.4547 23.2543 16.4762L23.2653 16.4773V16.3076C23.1715 16.3076 23.0956 16.2317 23.0956 16.1379" fill="#29282F"/>
<path d="M25.0949 16.523C24.8559 16.4394 24.7581 16.3416 24.6745 16.1026C24.6581 16.0555 24.592 16.0555 24.5756 16.1026C24.492 16.3416 24.3942 16.4394 24.1552 16.523C24.1081 16.5394 24.1081 16.6055 24.1552 16.6219C24.3942 16.7055 24.492 16.8033 24.5756 17.0423C24.592 17.0894 24.6581 17.0894 24.6745 17.0423C24.7581 16.8033 24.8559 16.7055 25.0949 16.6219C25.142 16.6055 25.142 16.5394 25.0949 16.523Z" fill="#29282F"/>
<path d="M25.8157 16.138V15.3964C25.8157 14.7523 25.3099 14.2137 24.6661 14.1921C23.9899 14.1695 23.4341 14.7107 23.4341 15.3822V16.138C23.4341 16.2318 23.3582 16.3077 23.2644 16.3077V16.4774L23.2754 16.4763C23.4939 16.4547 23.7067 16.389 23.8965 16.2781C24.1965 16.1026 24.3603 15.865 24.5067 15.4479C24.5457 15.3362 24.7044 15.3362 24.7435 15.4479C24.8895 15.8654 25.0533 16.1026 25.3537 16.2781C25.5434 16.3894 25.7562 16.4547 25.9748 16.4763L25.9857 16.4774V16.3077C25.892 16.3077 25.816 16.2318 25.816 16.138" fill="#29282F"/>
<path d="M28.5366 16.1379V15.3964C28.5366 14.7522 28.0308 14.2136 27.3871 14.1921C26.7108 14.1694 26.155 14.7106 26.155 15.3821V16.1379C26.155 16.2317 26.0791 16.3076 25.9854 16.3076V16.4773L25.9963 16.4762C26.2149 16.4547 26.4277 16.389 26.6174 16.278C26.9174 16.1025 27.0813 15.8649 27.2276 15.4478C27.2666 15.3361 27.4254 15.3361 27.4644 15.4478C27.6104 15.8653 27.7743 16.1025 28.0746 16.278C28.2644 16.3893 28.4771 16.4547 28.6957 16.4762L28.7067 16.4773V16.3076C28.6129 16.3076 28.537 16.2317 28.537 16.1379" fill="#29282F"/>
<path d="M16.9323 19.6768C16.6933 19.5932 16.5955 19.4954 16.5119 19.2563C16.4955 19.2093 16.4294 19.2093 16.413 19.2563C16.3294 19.4954 16.2316 19.5932 15.9926 19.6768C15.9455 19.6932 15.9455 19.7592 15.9926 19.7757C16.2316 19.8592 16.3294 19.957 16.413 20.1961C16.4294 20.2431 16.4955 20.2431 16.5119 20.1961C16.5955 19.957 16.6933 19.8592 16.9323 19.7757C16.9794 19.7592 16.9794 19.6932 16.9323 19.6768Z" fill="#29282F"/>
<path d="M17.6531 19.2914V18.5499C17.6531 17.9058 17.1473 17.3671 16.5035 17.3456C15.8273 17.323 15.2715 17.8642 15.2715 18.5357V19.2914C15.2715 19.3852 15.1956 19.4611 15.1018 19.4611V19.6308L15.1128 19.6297C15.3314 19.6082 15.5441 19.5425 15.7339 19.4316C16.0339 19.256 16.1977 19.0185 16.3441 18.6013C16.3831 18.4897 16.5418 18.4897 16.5809 18.6013C16.7269 19.0188 16.8907 19.256 17.1911 19.4316C17.3808 19.5429 17.5936 19.6082 17.8122 19.6297L17.8231 19.6308V19.4611C17.7294 19.4611 17.6534 19.3852 17.6534 19.2914" fill="#29282F"/>
<path d="M19.6537 19.6768C19.4147 19.5932 19.3169 19.4954 19.2333 19.2563C19.2169 19.2093 19.1508 19.2093 19.1344 19.2563C19.0509 19.4954 18.9531 19.5932 18.714 19.6768C18.6669 19.6932 18.6669 19.7592 18.714 19.7757C18.9531 19.8592 19.0509 19.957 19.1344 20.1961C19.1508 20.2431 19.2169 20.2431 19.2333 20.1961C19.3169 19.957 19.4147 19.8592 19.6537 19.7757C19.7008 19.7592 19.7008 19.6932 19.6537 19.6768Z" fill="#29282F"/>
<path d="M20.3748 19.2914V18.5499C20.3748 17.9058 19.869 17.3671 19.2252 17.3456C18.549 17.323 17.9932 17.8642 17.9932 18.5357V19.2914C17.9932 19.3852 17.9173 19.4611 17.8235 19.4611V19.6308L17.8344 19.6297C18.053 19.6082 18.2658 19.5425 18.4556 19.4316C18.7555 19.256 18.9194 19.0185 19.0657 18.6013C19.1048 18.4897 19.2635 18.4897 19.3026 18.6013C19.4486 19.0188 19.6124 19.256 19.9128 19.4316C20.1025 19.5429 20.3153 19.6082 20.5339 19.6297L20.5448 19.6308V19.4611C20.451 19.4611 20.3751 19.3852 20.3751 19.2914" fill="#29282F"/>
<path d="M22.3744 19.6768C22.1354 19.5932 22.0376 19.4954 21.954 19.2563C21.9376 19.2093 21.8716 19.2093 21.8551 19.2563C21.7716 19.4954 21.6738 19.5932 21.4347 19.6768C21.3876 19.6932 21.3876 19.7592 21.4347 19.7757C21.6738 19.8592 21.7716 19.957 21.8551 20.1961C21.8716 20.2431 21.9376 20.2431 21.954 20.1961C22.0376 19.957 22.1354 19.8592 22.3744 19.7757C22.4215 19.7592 22.4215 19.6932 22.3744 19.6768Z" fill="#29282F"/>
<path d="M23.0952 19.2914V18.5499C23.0952 17.9058 22.5894 17.3671 21.9457 17.3456C21.2694 17.323 20.7136 17.8642 20.7136 18.5357V19.2914C20.7136 19.3852 20.6377 19.4611 20.5439 19.4611V19.6308L20.5549 19.6297C20.7735 19.6082 20.9862 19.5425 21.176 19.4316C21.476 19.256 21.6399 19.0185 21.7862 18.6013C21.8252 18.4897 21.984 18.4897 22.023 18.6013C22.169 19.0188 22.3329 19.256 22.6332 19.4316C22.823 19.5429 23.0357 19.6082 23.2543 19.6297L23.2653 19.6308V19.4611C23.1715 19.4611 23.0956 19.3852 23.0956 19.2914" fill="#29282F"/>
<path d="M25.0949 19.6768C24.8559 19.5932 24.7581 19.4954 24.6745 19.2563C24.6581 19.2093 24.592 19.2093 24.5756 19.2563C24.492 19.4954 24.3942 19.5932 24.1552 19.6768C24.1081 19.6932 24.1081 19.7592 24.1552 19.7757C24.3942 19.8592 24.492 19.957 24.5756 20.1961C24.592 20.2431 24.6581 20.2431 24.6745 20.1961C24.7581 19.957 24.8559 19.8592 25.0949 19.7757C25.142 19.7592 25.142 19.6932 25.0949 19.6768Z" fill="#29282F"/>
<path d="M25.8157 19.2914V18.5499C25.8157 17.9057 25.3099 17.3671 24.6661 17.3456C23.9899 17.3229 23.4341 17.8641 23.4341 18.5356V19.2914C23.4341 19.3852 23.3582 19.4611 23.2644 19.4611V19.6308L23.2754 19.6297C23.4939 19.6082 23.7067 19.5425 23.8965 19.4315C24.1965 19.256 24.3603 19.0184 24.5067 18.6013C24.5457 18.4896 24.7044 18.4896 24.7435 18.6013C24.8895 19.0188 25.0533 19.256 25.3537 19.4315C25.5434 19.5429 25.7562 19.6082 25.9748 19.6297L25.9857 19.6308V19.4611C25.892 19.4611 25.816 19.3852 25.816 19.2914" fill="#29282F"/>
<path d="M28.5366 19.2914V18.5499C28.5366 17.9058 28.0308 17.3671 27.3871 17.3456C26.7108 17.323 26.155 17.8642 26.155 18.5357V19.2914C26.155 19.3852 26.0791 19.4611 25.9854 19.4611V19.6308L25.9963 19.6297C26.2149 19.6082 26.4277 19.5425 26.6174 19.4316C26.9174 19.256 27.0813 19.0185 27.2276 18.6013C27.2666 18.4897 27.4254 18.4897 27.4644 18.6013C27.6104 19.0188 27.7743 19.256 28.0746 19.4316C28.2644 19.5429 28.4771 19.6082 28.6957 19.6297L28.7067 19.6308V19.4611C28.6129 19.4611 28.537 19.3852 28.537 19.2914" fill="#29282F"/>
<path d="M16.9323 22.8302C16.6933 22.7466 16.5955 22.6488 16.5119 22.4098C16.4955 22.3627 16.4294 22.3627 16.413 22.4098C16.3294 22.6488 16.2316 22.7466 15.9926 22.8302C15.9455 22.8466 15.9455 22.9126 15.9926 22.9291C16.2316 23.0126 16.3294 23.1104 16.413 23.3495C16.4294 23.3965 16.4955 23.3965 16.5119 23.3495C16.5955 23.1104 16.6933 23.0126 16.9323 22.9291C16.9794 22.9126 16.9794 22.8466 16.9323 22.8302Z" fill="#29282F"/>
<path d="M17.6531 22.4451V21.7036C17.6531 21.0595 17.1473 20.5208 16.5035 20.4993C15.8273 20.4767 15.2715 21.0179 15.2715 21.6893V22.4451C15.2715 22.5389 15.1956 22.6148 15.1018 22.6148V22.7845L15.1128 22.7834C15.3314 22.7619 15.5441 22.6962 15.7339 22.5853C16.0339 22.4097 16.1977 22.1722 16.3441 21.755C16.3831 21.6434 16.5418 21.6434 16.5809 21.755C16.7269 22.1725 16.8907 22.4097 17.1911 22.5853C17.3808 22.6966 17.5936 22.7619 17.8122 22.7834L17.8231 22.7845V22.6148C17.7294 22.6148 17.6534 22.5389 17.6534 22.4451" fill="#29282F"/>
<path d="M19.6537 22.8302C19.4147 22.7466 19.3169 22.6488 19.2333 22.4098C19.2169 22.3627 19.1508 22.3627 19.1344 22.4098C19.0509 22.6488 18.9531 22.7466 18.714 22.8302C18.6669 22.8466 18.6669 22.9126 18.714 22.9291C18.9531 23.0126 19.0509 23.1104 19.1344 23.3495C19.1508 23.3965 19.2169 23.3965 19.2333 23.3495C19.3169 23.1104 19.4147 23.0126 19.6537 22.9291C19.7008 22.9126 19.7008 22.8466 19.6537 22.8302Z" fill="#29282F"/>
<path d="M20.3748 22.4451V21.7036C20.3748 21.0595 19.869 20.5208 19.2252 20.4993C18.549 20.4767 17.9932 21.0179 17.9932 21.6893V22.4451C17.9932 22.5389 17.9173 22.6148 17.8235 22.6148V22.7845L17.8344 22.7834C18.053 22.7619 18.2658 22.6962 18.4556 22.5853C18.7555 22.4097 18.9194 22.1722 19.0657 21.755C19.1048 21.6434 19.2635 21.6434 19.3026 21.755C19.4486 22.1725 19.6124 22.4097 19.9128 22.5853C20.1025 22.6966 20.3153 22.7619 20.5339 22.7834L20.5448 22.7845V22.6148C20.451 22.6148 20.3751 22.5389 20.3751 22.4451" fill="#29282F"/>
<path d="M22.3744 22.8302C22.1354 22.7466 22.0376 22.6488 21.954 22.4098C21.9376 22.3627 21.8716 22.3627 21.8551 22.4098C21.7716 22.6488 21.6738 22.7466 21.4347 22.8302C21.3876 22.8466 21.3876 22.9126 21.4347 22.9291C21.6738 23.0126 21.7716 23.1104 21.8551 23.3495C21.8716 23.3965 21.9376 23.3965 21.954 23.3495C22.0376 23.1104 22.1354 23.0126 22.3744 22.9291C22.4215 22.9126 22.4215 22.8466 22.3744 22.8302Z" fill="#29282F"/>
<path d="M23.0952 22.4451V21.7036C23.0952 21.0595 22.5894 20.5208 21.9457 20.4993C21.2694 20.4767 20.7136 21.0179 20.7136 21.6893V22.4451C20.7136 22.5389 20.6377 22.6148 20.5439 22.6148V22.7845L20.5549 22.7834C20.7735 22.7619 20.9862 22.6962 21.176 22.5853C21.476 22.4097 21.6399 22.1722 21.7862 21.755C21.8252 21.6434 21.984 21.6434 22.023 21.755C22.169 22.1725 22.3329 22.4097 22.6332 22.5853C22.823 22.6966 23.0357 22.7619 23.2543 22.7834L23.2653 22.7845V22.6148C23.1715 22.6148 23.0956 22.5389 23.0956 22.4451" fill="#29282F"/>
<path d="M25.0949 22.8302C24.8559 22.7466 24.7581 22.6488 24.6745 22.4098C24.6581 22.3627 24.592 22.3627 24.5756 22.4098C24.492 22.6488 24.3942 22.7466 24.1552 22.8302C24.1081 22.8466 24.1081 22.9126 24.1552 22.9291C24.3942 23.0126 24.492 23.1104 24.5756 23.3495C24.592 23.3965 24.6581 23.3965 24.6745 23.3495C24.7581 23.1104 24.8559 23.0126 25.0949 22.9291C25.142 22.9126 25.142 22.8466 25.0949 22.8302Z" fill="#29282F"/>
<path d="M25.8157 22.4451V21.7035C25.8157 21.0594 25.3099 20.5208 24.6661 20.4993C23.9899 20.4766 23.4341 21.0178 23.4341 21.6893V22.4451C23.4341 22.5389 23.3582 22.6148 23.2644 22.6148V22.7845L23.2754 22.7834C23.4939 22.7619 23.7067 22.6962 23.8965 22.5852C24.1965 22.4097 24.3603 22.1721 24.5067 21.755C24.5457 21.6433 24.7044 21.6433 24.7435 21.755C24.8895 22.1725 25.0533 22.4097 25.3537 22.5852C25.5434 22.6965 25.7562 22.7619 25.9748 22.7834L25.9857 22.7845V22.6148C25.892 22.6148 25.816 22.5389 25.816 22.4451" fill="#29282F"/>
<path d="M28.5366 22.4451V21.7036C28.5366 21.0595 28.0308 20.5208 27.3871 20.4993C26.7108 20.4767 26.155 21.0179 26.155 21.6893V22.4451C26.155 22.5389 26.0791 22.6148 25.9854 22.6148V22.7845L25.9963 22.7834C26.2149 22.7619 26.4277 22.6962 26.6174 22.5853C26.9174 22.4097 27.0813 22.1722 27.2276 21.755C27.2666 21.6434 27.4254 21.6434 27.4644 21.755C27.6104 22.1725 27.7743 22.4097 28.0746 22.5853C28.2644 22.6966 28.4771 22.7619 28.6957 22.7834L28.7067 22.7845V22.6148C28.6129 22.6148 28.537 22.5389 28.537 22.4451" fill="#29282F"/>
</g>
<path d="M19.377 9.13294L20.0452 8.37497L20.1641 9.13294L21.4859 9.75771L22.8158 8.93004L22.6902 8.04178L23.3679 8.52933L24.9342 8.4673L20.5531 14.6814L19.377 9.13294Z" fill="#FFDDBD"/>
<path d="M23.1016 10.5325L21.3254 9.68072L22.9534 8.79611L23.1016 10.5325Z" fill="#FF5B00"/>
<path d="M19.8711 10.5325L21.6469 9.68072L20.0189 8.79611L19.8711 10.5325Z" fill="#FF5B00"/>
<path d="M21.4862 9.75769L20.5535 14.6814" stroke="black" stroke-width="0.046712" stroke-miterlimit="10"/>
<path d="M21.0467 14.1369L19.4844 15.8608L19.7103 20.5492" stroke="black" stroke-width="0.046712" stroke-miterlimit="10"/>
<path d="M21.0467 10.6796C21.128 10.6796 21.1938 10.6137 21.1938 10.5325C21.1938 10.4513 21.128 10.3854 21.0467 10.3854C20.9655 10.3854 20.8997 10.4513 20.8997 10.5325C20.8997 10.6137 20.9655 10.6796 21.0467 10.6796Z" stroke="#1A1A1A" stroke-width="0.0364937" stroke-miterlimit="10"/>
<path d="M20.9149 11.3035C20.9961 11.3035 21.062 11.2377 21.062 11.1565C21.062 11.0752 20.9961 11.0094 20.9149 11.0094C20.8337 11.0094 20.7678 11.0752 20.7678 11.1565C20.7678 11.2377 20.8337 11.3035 20.9149 11.3035Z" stroke="#1A1A1A" stroke-width="0.0364937" stroke-miterlimit="10"/>
<path d="M20.8404 11.8637C20.9217 11.8637 20.9875 11.7979 20.9875 11.7166C20.9875 11.6354 20.9217 11.5696 20.8404 11.5696C20.7592 11.5696 20.6934 11.6354 20.6934 11.7166C20.6934 11.7979 20.7592 11.8637 20.8404 11.8637Z" stroke="#1A1A1A" stroke-width="0.0364937" stroke-miterlimit="10"/>
<path d="M20.7594 12.4641C20.8406 12.4641 20.9064 12.3982 20.9064 12.317C20.9064 12.2358 20.8406 12.1699 20.7594 12.1699C20.6781 12.1699 20.6123 12.2358 20.6123 12.317C20.6123 12.3982 20.6781 12.4641 20.7594 12.4641Z" stroke="#1A1A1A" stroke-width="0.0364937" stroke-miterlimit="10"/>
<path d="M20.0454 16.7426C20.203 16.7426 20.3308 16.6149 20.3308 16.4573C20.3308 16.2996 20.203 16.1719 20.0454 16.1719C19.8878 16.1719 19.76 16.2996 19.76 16.4573C19.76 16.6149 19.8878 16.7426 20.0454 16.7426Z" fill="#1A1A1A"/>
<path d="M20.1565 17.7907C20.3141 17.7907 20.4419 17.6629 20.4419 17.5053C20.4419 17.3477 20.3141 17.2199 20.1565 17.2199C19.9989 17.2199 19.8711 17.3477 19.8711 17.5053C19.8711 17.6629 19.9989 17.7907 20.1565 17.7907Z" fill="#1A1A1A"/>
<path d="M20.1565 18.8461C20.3141 18.8461 20.4419 18.7183 20.4419 18.5607C20.4419 18.4031 20.3141 18.2753 20.1565 18.2753C19.9989 18.2753 19.8711 18.4031 19.8711 18.5607C19.8711 18.7183 19.9989 18.8461 20.1565 18.8461Z" fill="#1A1A1A"/>
<path d="M20.1933 20.0233C20.351 20.0233 20.4787 19.8956 20.4787 19.738C20.4787 19.5803 20.351 19.4526 20.1933 19.4526C20.0357 19.4526 19.908 19.5803 19.908 19.738C19.908 19.8956 20.0357 20.0233 20.1933 20.0233Z" fill="#1A1A1A"/>
<path d="M19.6001 1.9641C19.6172 1.77834 19.7461 1.62106 19.8822 1.50245C20.2924 1.16525 20.8978 1.07876 21.3876 1.27619C21.0609 1.45245 20.7088 1.53566 20.3621 1.65098C20.0986 1.74003 19.8421 1.81666 19.6001 1.9641Z" fill="black"/>
<path d="M19.0386 1.9641C19.0557 1.77834 19.1845 1.62106 19.3207 1.50245C19.7309 1.16525 20.3363 1.07876 20.826 1.27619C20.4994 1.45245 20.1473 1.53566 19.8006 1.65098C19.5371 1.74003 19.2805 1.81666 19.0386 1.9641Z" fill="black"/>
<path d="M20.277 1.96084C20.3189 1.77253 20.4562 1.62546 20.6007 1.50722C21.0379 1.17622 21.6524 1.0828 22.163 1.27986C21.8586 1.44007 21.5251 1.52291 21.2057 1.62619C20.8879 1.72436 20.5791 1.8145 20.2766 1.96084H20.277Z" fill="black"/>
<path d="M20.9405 1.99147C20.9873 1.81119 21.1394 1.6758 21.2923 1.58019C21.7511 1.31232 22.3627 1.32218 22.8152 1.59478C22.4645 1.7174 22.1036 1.74368 21.7427 1.8028C21.4679 1.84915 21.2029 1.88454 20.9402 1.99147H20.9405Z" fill="black"/>
<path d="M21.4752 2.13051C21.5734 1.91483 21.8102 1.79805 22.0288 1.73929C22.5043 1.62762 23.0415 1.759 23.3911 2.10569C23.043 2.16919 22.7018 2.13671 22.3554 2.12321C22.058 2.11226 21.7748 2.08635 21.4749 2.13014L21.4752 2.13051Z" fill="black"/>
<path d="M21.7827 2.43927C21.8798 2.27286 22.0717 2.18637 22.252 2.14184C22.606 2.06229 22.983 2.14914 23.2899 2.3338C23.4428 2.4327 23.5775 2.54838 23.6797 2.70385C23.4987 2.71881 23.3337 2.70056 23.1629 2.67611C22.6932 2.61809 22.2579 2.46737 21.7827 2.43927Z" fill="black"/>
<path d="M22.1075 2.89067C22.1955 2.77206 22.3404 2.71331 22.4794 2.679C22.7958 2.61003 23.1308 2.69542 23.4038 2.85965C23.6355 3.00343 23.8293 3.20269 23.9337 3.45924C23.8337 3.45668 23.7465 3.44063 23.6625 3.42201C23.3016 3.35049 22.9137 3.18261 22.5717 3.04941C22.4137 2.98883 22.2809 2.9319 22.1072 2.89067H22.1075Z" fill="black"/>
<path d="M22.4043 3.38704C22.5163 3.29508 22.6678 3.27209 22.8086 3.27026C23.1291 3.27501 23.4334 3.42901 23.6652 3.64359C23.86 3.82935 24.0097 4.05962 24.0659 4.32676C23.9717 4.30048 23.8921 4.26435 23.8159 4.2264C23.3115 3.99065 22.9083 3.62352 22.4043 3.38704Z" fill="black"/>
<path d="M23.8157 4.2366C24.0222 4.64058 23.6708 5.33579 23.1533 5.60073C22.6358 5.86568 22.0534 5.79926 21.8465 5.39527C21.6399 4.99129 21.987 4.24974 22.5044 3.98479C23.0219 3.71985 23.6087 3.83261 23.8157 4.2366Z" fill="#8F410F"/>
<path d="M22.6189 5.56563C22.2759 5.56053 21.9923 5.92875 21.9857 6.38784C21.9788 6.84729 22.251 7.22391 22.5937 7.22902C22.9368 7.23413 23.2199 6.86591 23.2269 6.40645C23.2338 5.94736 22.9616 5.57074 22.6189 5.56563ZM22.5974 7.04363C22.3521 7.03998 22.1576 6.77066 22.1624 6.44221C22.1675 6.11377 22.37 5.85065 22.6152 5.8543C22.8601 5.85795 23.055 6.12727 23.0499 6.45572C23.0451 6.78416 22.8426 7.04728 22.5974 7.04363Z" fill="#FF5B00"/>
<path d="M22.3336 4.86867C22.377 4.80663 22.4321 4.75007 22.4883 4.69971C22.5445 4.64935 22.6098 4.60847 22.6777 4.57417C22.8332 4.49571 23.0094 4.46615 23.1824 4.46651C23.2353 4.46651 23.2883 4.4687 23.3408 4.47272C23.3663 4.47491 23.3919 4.47673 23.4174 4.47856C23.4466 4.48075 23.4733 4.47929 23.5021 4.47673C23.5196 4.47527 23.5324 4.44827 23.5123 4.43951C23.4893 4.42929 23.4682 4.41944 23.4433 4.41433C23.4185 4.40922 23.393 4.4052 23.3674 4.40192C23.3174 4.39499 23.2667 4.3917 23.2164 4.38988C23.1164 4.38659 23.0153 4.39462 22.9171 4.4136C22.7492 4.44608 22.589 4.51979 22.4631 4.63621C22.3945 4.69934 22.3456 4.77306 22.312 4.85992C22.3073 4.87269 22.3259 4.87853 22.3328 4.86867H22.3336Z" fill="black"/>
<path d="M22.8263 4.48686C22.8282 4.5135 22.8417 4.53613 22.8541 4.55948C22.8672 4.58394 22.8796 4.60912 22.8906 4.63503C22.9121 4.68575 22.9285 4.73976 22.9336 4.79487C22.9438 4.9018 22.9011 4.99741 22.8347 5.07879C22.8168 5.10069 22.8406 5.1412 22.8679 5.12185C22.9668 5.05179 23.0143 4.92515 23.0048 4.80655C22.9997 4.74341 22.9792 4.6832 22.9508 4.627C22.9365 4.59853 22.9201 4.57153 22.9026 4.54489C22.8862 4.52007 22.8694 4.49197 22.842 4.4781C22.8355 4.47482 22.8252 4.47883 22.826 4.48723L22.8263 4.48686Z" fill="black"/>
<path d="M11.1152 11.2566C11.1536 10.4077 8.72973 9.60854 5.70132 9.47155C2.67292 9.33456 0.186782 9.91165 0.148384 10.7605C0.109985 11.6094 2.53387 12.4086 5.56227 12.5456C8.59068 12.6825 11.0768 12.1055 11.1152 11.2566Z" fill="#FFDDBD"/>
<path d="M10.0135 11.1826C10.0442 10.5045 8.10798 9.86605 5.68884 9.75662C3.2697 9.64719 1.28373 10.1082 1.25305 10.7863C1.22238 11.4645 3.15861 12.1029 5.57775 12.2123C7.9969 12.3218 9.98286 11.8607 10.0135 11.1826Z" stroke="#FF5B00" stroke-width="0.0364937" stroke-miterlimit="10"/>
<path d="M8.5442 10.4576V10.5365C8.5442 10.6073 8.49821 10.6697 8.4307 10.6908L5.1313 11.7214C5.00649 11.7605 4.87256 11.7619 4.74666 11.7254L2.54171 11.0875C2.47237 11.0675 2.42456 11.004 2.42456 10.9313V10.8562L2.76176 10.9536L6.05897 9.97629L8.20663 10.5631L8.5442 10.4576Z" fill="#29282F"/>
<path d="M2.42456 10.8558L5.98963 9.79894C6.03489 9.78544 6.08306 9.78507 6.12868 9.79748L8.5442 10.4577L5.13714 11.5222C5.00832 11.5623 4.87074 11.5638 4.74155 11.5262L2.42493 10.8558H2.42456Z" fill="#84E6E1"/>
<path d="M6.50267 9.89963L6.40232 9.94086C6.34466 9.96459 6.34977 10.0478 6.40998 10.0642L7.2924 10.3069C7.37196 10.3288 7.45662 10.3259 7.53435 10.2981L7.72047 10.2325L6.50267 9.89963Z" fill="#37353F"/>
<path d="M3.61365 11.0933L4.1866 11.2633C4.20266 11.2681 4.21981 11.2652 4.23295 11.2553L4.23514 11.2539C4.27127 11.2279 4.26178 11.1714 4.21908 11.159L3.64394 10.9904C3.63226 10.9871 3.61986 10.9875 3.60854 10.9922C3.56183 11.0115 3.56548 11.0787 3.61365 11.0929V11.0933Z" fill="#37353F"/>
<path d="M35.9739 25.2584H32.9661H28.6073H5.48413" stroke="black" stroke-width="0.0437925" stroke-linecap="round" stroke-linejoin="round"/>
</g>
<defs>
<clipPath id="clip0_1530_12837">
<rect width="36" height="27.6279" fill="white" transform="translate(0 0.233398)"/>
</clipPath>
</defs>
</svg>
