<svg width="36" height="33" viewBox="0 0 36 33" fill="none" xmlns="http://www.w3.org/2000/svg">
<g clip-path="url(#clip0_1530_14501)">
<path d="M13.0816 28.8303C13.1031 30.179 13.2865 31.2882 13.2865 31.2882H25.4819C25.4819 31.2882 25.1408 29.7929 24.7966 28.3276C24.5635 27.3333 24.3299 26.3527 24.2009 25.8629C24.1966 25.847 24.1924 25.8312 24.1868 25.8149C23.9382 25.001 22.6761 23.6296 21.8485 22.7917C21.4242 22.3614 21.1135 22.0726 21.1135 22.0726L19.8891 22.1369L16.0851 22.3374L15.5275 22.367C15.5275 22.367 14.7308 23.1016 13.9499 24.629C13.8166 24.8896 13.6838 25.1729 13.5556 25.4797C13.1571 26.4333 13.0641 27.7139 13.0821 28.8299L13.0816 28.8303Z" fill="#1A1A1A"/>
<path d="M16.0852 22.3379C16.356 23.111 17.0923 23.6656 17.9576 23.6656C18.8962 23.6656 19.6826 23.0137 19.8892 22.1377L16.0852 22.3383V22.3379Z" fill="#FFDDBD"/>
<path d="M31.3884 9.01315C31.1351 8.49373 30.8934 8.12044 30.3761 7.8633C30.2617 7.8063 30.0281 7.54616 29.9369 7.6353C29.8357 7.73344 29.9026 7.96016 29.9617 8.08787C30.1991 8.59873 30.5099 9.36287 30.9761 9.70487C31.1021 9.79701 31.3503 9.92558 31.4943 9.79701C31.6966 9.61658 31.4784 9.19744 31.3884 9.01315Z" fill="#FF5B00"/>
<path d="M33.4889 5.70862C33.4616 5.66291 33.5345 5.56905 33.6517 5.49897C33.7689 5.4289 33.8861 5.40915 33.9134 5.45486C33.9407 5.50057 33.8679 5.59443 33.7506 5.66451C33.6334 5.73458 33.5162 5.75433 33.4889 5.70862Z" fill="#FFDDBD"/>
<path d="M30.4229 10.8098C30.4229 10.8098 31.8449 8.97937 32.4149 8.61037C32.9142 8.28723 35.5743 7.64437 35.0048 7.34952C34.8938 7.29209 33.4966 7.50723 33.4966 7.50723C33.4966 7.50723 35.1398 6.81723 35.4488 6.55452C35.7578 6.29137 35.2036 6.2648 35.2036 6.2648C35.2036 6.2648 35.2473 6.04152 34.6461 6.21552C34.0448 6.38952 33.2095 6.6788 32.9725 6.70623C32.7355 6.73366 32.2559 6.71094 32.8251 6.43923C33.3946 6.16752 34.1686 5.39137 33.6878 5.49852C33.2069 5.60523 31.4459 6.57552 31.1386 6.90423C30.8313 7.23294 29.0412 9.03337 29.0412 9.03337L30.4225 10.8094L30.4229 10.8098Z" fill="#8F410F"/>
<path d="M31.9161 7.54874C31.9161 7.54874 32.2311 7.48274 32.4492 6.90717" stroke="black" stroke-width="0.0334286" stroke-miterlimit="10"/>
<path d="M32.9957 7.18017C32.9957 7.18017 33.5382 7.0186 34.1562 6.79617C34.7742 6.57374 35.2041 6.26517 35.2041 6.26517" stroke="black" stroke-width="0.0334286" stroke-linecap="round" stroke-linejoin="round"/>
<path d="M33.2231 7.56504C33.2231 7.56504 33.449 7.54661 33.7173 7.42532" stroke="black" stroke-width="0.0334286" stroke-linecap="round" stroke-linejoin="round"/>
<path d="M5.26293 7.03232C5.31735 7.0486 5.35635 7.10217 5.36964 7.15789C5.39921 7.28132 5.35678 7.41889 5.30621 7.53032C5.23378 7.6906 5.15107 7.84703 5.0525 7.99317C4.96721 8.11917 4.8695 8.2366 4.7615 8.34417C4.56864 8.53575 4.34407 8.69518 4.09935 8.81389C4.0325 8.84646 3.96607 8.87175 3.89621 8.89403C3.83064 8.91503 3.76507 8.94803 3.70421 8.9806C3.66435 9.00203 3.61121 9.01189 3.56621 9.00889C3.52678 9.00632 3.49293 9.0196 3.4535 9.01917C3.42178 9.01917 3.39007 9.00503 3.36864 8.98189C3.34721 8.95875 3.33564 8.92575 3.33821 8.89403C3.34678 8.78003 3.48778 8.71232 3.56321 8.64546C3.58336 8.62789 3.60093 8.60432 3.62193 8.58846C3.6395 8.57518 3.66178 8.56618 3.68064 8.55418C3.73164 8.5216 3.78178 8.48775 3.82892 8.44918C3.93478 8.36303 4.02221 8.25717 4.1135 8.15646C4.20993 8.05017 4.31964 7.96746 4.42464 7.87146C4.67235 7.64646 4.81978 7.32717 5.06964 7.10432C5.12107 7.05846 5.18578 7.01475 5.25307 7.02889C5.25607 7.02975 5.2595 7.03017 5.2625 7.03146L5.26293 7.03232Z" fill="#FF5B00"/>
<path d="M2.0567 4.59574C1.95188 4.50819 1.89458 4.40409 1.92872 4.36321C1.96286 4.32234 2.07551 4.36018 2.18033 4.44773C2.28515 4.53528 2.34244 4.63938 2.3083 4.68026C2.27416 4.72113 2.16152 4.68329 2.0567 4.59574Z" fill="#FFDDBD"/>
<path d="M4.53838 10.1973C4.53838 10.1973 3.42024 8.16677 2.91495 7.71334C2.47224 7.31605 -0.0541911 6.26477 0.55438 6.06291C0.673094 6.02348 2.01924 6.45463 2.01924 6.45463C2.01924 6.45463 0.504236 5.51605 0.240236 5.20791C-0.0237637 4.89977 0.527809 4.9602 0.527809 4.9602C0.527809 4.9602 0.519665 4.73263 1.08624 4.99877C1.65281 5.26491 2.43281 5.68105 2.66252 5.74534C2.89224 5.80963 3.36967 5.86191 2.84981 5.50491C2.32995 5.14748 1.68667 4.25991 2.14481 4.44077C2.60295 4.62163 4.19038 5.85548 4.44238 6.22791C4.69438 6.60034 6.18066 8.6592 6.18066 8.6592L4.53838 10.1973Z" fill="#8F410F"/>
<path d="M3.57471 6.7426C3.57471 6.7426 3.27385 6.62818 3.14871 6.0256" stroke="black" stroke-width="0.0334286" stroke-miterlimit="10"/>
<path d="M2.56592 6.20992C2.56592 6.20992 2.05506 5.9652 1.47992 5.64892C0.904777 5.3322 0.528061 4.96063 0.528061 4.96063" stroke="black" stroke-width="0.0334286" stroke-linecap="round" stroke-linejoin="round"/>
<path d="M2.28076 6.55404C2.28076 6.55404 2.06048 6.50047 1.81448 6.33847" stroke="black" stroke-width="0.0334286" stroke-linecap="round" stroke-linejoin="round"/>
<path d="M16.1534 12.7827C16.0708 12.7815 16.0094 12.4131 16.0162 11.9598C16.023 11.5066 16.0955 11.1402 16.1781 11.1415C16.2607 11.1427 16.3221 11.5111 16.3153 11.9643C16.3085 12.4175 16.236 12.7839 16.1534 12.7827Z" fill="#FFDDBD"/>
<path d="M21.4966 9.34621C21.4456 11.0652 20.0318 12.4173 18.3393 12.3659C16.6469 12.3149 15.3162 10.8796 15.3672 9.16064C15.4182 7.44164 16.3375 6.10964 18.5245 6.14092C20.2178 6.16535 21.5476 7.62721 21.4966 9.34621Z" fill="black"/>
<path d="M19.711 14.3917L18.0627 17.2936L17.1336 14.7689C17.1336 14.7689 16.9429 13.6439 16.8023 12.7987C16.8014 12.7936 16.8006 12.7884 16.7997 12.7833C16.7179 12.2926 16.6531 11.8996 16.6536 11.882L17.551 11.5512L17.6041 11.5314L19.1256 10.9704L19.7114 14.3922L19.711 14.3917Z" fill="#802F00"/>
<path d="M18.9663 11.276C18.9663 11.276 18.3916 12.077 17.9116 12.3929C17.603 12.5956 16.9962 12.7542 16.7999 12.7829C16.718 12.2922 16.6533 11.8992 16.6537 11.8816L17.5512 11.5507L17.6043 11.531L18.9663 11.276Z" fill="#612300"/>
<path d="M19.8051 10.4566C19.8051 10.4566 18.8875 12.2463 17.0104 12.2334C15.1337 12.2201 14.8915 11.0544 15.3364 9.83513C15.3887 9.69156 15.4294 9.56641 15.4615 9.45541C15.5147 9.26984 15.543 9.12541 15.5562 9.00627C15.6038 8.59056 15.4795 8.47656 15.6561 7.98198C16.2201 6.45027 17.6391 6.55613 17.6391 6.55613C21.7268 6.82613 19.806 10.4561 19.806 10.4561L19.8051 10.4566Z" fill="#802F00"/>
<path d="M18.1479 9.37018C18.1479 9.37018 18.0811 9.56775 17.7695 9.66118C17.7279 9.67403 17.6825 9.68475 17.6311 9.69246C17.5904 9.69889 17.5471 9.70403 17.4999 9.7066C17.0748 9.73232 16.8657 9.5596 16.8657 9.5596C16.8657 9.5596 17.0319 9.15332 17.4485 9.09846C17.4657 9.09589 17.4832 9.09418 17.5012 9.09289C17.6654 9.08346 17.7957 9.11732 17.8951 9.16489C18.0687 9.2476 18.1479 9.36975 18.1479 9.36975V9.37018Z" fill="#FF5B00"/>
<path d="M20.5593 9.79533C20.7633 10.1939 20.4161 10.88 19.9057 11.141C19.3953 11.4025 18.8206 11.3369 18.6166 10.9383C18.4126 10.5398 18.7554 9.80819 19.2659 9.54676C19.7763 9.28533 20.3553 9.39676 20.5593 9.79533Z" fill="#802F00"/>
<path d="M18.1479 9.48372C18.1479 9.48372 18.0802 9.65943 17.7622 9.74215C17.7198 9.75329 17.6731 9.76315 17.6212 9.77C17.5797 9.77557 17.5355 9.78029 17.4871 9.78243C17.0534 9.80429 16.8395 9.65043 16.8395 9.65043C16.8395 9.65043 17.0084 9.28915 17.4331 9.24072C17.4507 9.23857 17.4687 9.23686 17.4867 9.236C17.6542 9.22786 17.7871 9.25829 17.8887 9.30072C18.0661 9.37443 18.1471 9.48372 18.1471 9.48372H18.1479Z" fill="white"/>
<path d="M17.939 9.47176C17.9373 9.59219 17.8653 9.69505 17.7624 9.74219C17.7225 9.76105 17.6775 9.77133 17.6308 9.77048C17.6278 9.77048 17.6244 9.77048 17.6214 9.77005C17.4581 9.76276 17.3295 9.62733 17.3321 9.46276C17.3334 9.37405 17.3724 9.29519 17.4337 9.24119C17.4512 9.23905 17.4692 9.23733 17.4872 9.23648C17.6548 9.22833 17.7877 9.25876 17.8892 9.30119C17.9214 9.35048 17.9398 9.40919 17.9385 9.47176H17.939Z" fill="black"/>
<path d="M16.8684 9.63463C16.8684 9.63463 17.2529 8.83491 18.1602 9.45677" stroke="black" stroke-width="0.0852857" stroke-linecap="round" stroke-linejoin="round"/>
<path d="M16.3234 9.42714C16.3234 9.42714 16.2239 9.482 15.9162 9.45414C15.8751 9.45114 15.8309 9.44428 15.7825 9.43443C15.7444 9.42628 15.7036 9.416 15.6599 9.40271C15.5944 9.383 15.5352 9.36028 15.4834 9.33714C15.5365 9.15157 15.5648 9.00714 15.5781 8.888C15.6415 8.88371 15.7109 8.88886 15.7851 8.906C15.8014 8.90943 15.8172 8.91371 15.8339 8.91886C15.9852 8.96514 16.0932 9.03414 16.1699 9.104C16.3036 9.22571 16.3242 9.42757 16.3242 9.42757L16.3234 9.42714Z" fill="#FF5B00"/>
<path d="M16.318 9.46616C16.318 9.46616 16.2018 9.60073 15.8941 9.57287C15.853 9.56987 15.8088 9.56301 15.7604 9.55316C15.7223 9.54501 15.6816 9.53473 15.6378 9.52144C15.5723 9.50173 15.5131 9.47901 15.4613 9.45587C15.5144 9.2703 15.5427 9.12587 15.556 9.00673C15.6194 9.00244 15.6888 9.00758 15.763 9.02473C15.7793 9.02815 15.7951 9.03244 15.8118 9.03758C15.9631 9.08387 16.0711 9.15287 16.1478 9.22273C16.2816 9.34444 16.3188 9.46658 16.3188 9.46658L16.318 9.46616Z" fill="white"/>
<path d="M16.2144 9.45804C16.1579 9.55619 16.0516 9.60804 15.9453 9.59947C15.9037 9.5969 15.8621 9.58447 15.824 9.56262C15.8214 9.56133 15.8189 9.55962 15.8167 9.5579C15.686 9.47733 15.6423 9.30676 15.7194 9.17262C15.761 9.10019 15.8296 9.05304 15.9046 9.03676C15.92 9.04276 15.9354 9.05004 15.9509 9.05733C16.0923 9.12719 16.1879 9.21333 16.2517 9.29476C16.2556 9.35004 16.244 9.40662 16.2144 9.45762V9.45804Z" fill="black"/>
<path d="M15.5668 8.99684C15.7836 8.97627 16.0588 9.06156 16.3369 9.44599" stroke="black" stroke-width="0.0801429" stroke-linecap="round" stroke-linejoin="round"/>
<path d="M19.1622 12.7825C19.0796 12.7812 19.0182 12.4128 19.025 11.9596C19.0318 11.5064 19.1043 11.14 19.1869 11.1412C19.2695 11.1425 19.3309 11.5109 19.3241 11.9641C19.3173 12.4173 19.2448 12.7837 19.1622 12.7825Z" fill="#FFDDBD"/>
<path d="M17.0045 6.55061C16.894 6.56518 16.7838 6.58703 16.6822 6.61318C16.5597 6.64489 16.4397 6.70275 16.3565 6.79832C16.2734 6.89389 16.2318 7.03189 16.2721 7.15189C16.3694 7.44246 17.0731 7.47589 17.326 7.53975C17.4344 7.56718 17.5505 7.59889 17.6208 7.68546C17.6992 7.78189 17.6992 7.91903 17.6808 8.0416C17.6624 8.16418 17.6294 8.28932 17.6555 8.41061C17.6868 8.55675 17.8008 8.67503 17.9332 8.74446C18.0657 8.81389 18.2152 8.84218 18.3631 8.86446C18.5182 8.88803 18.6888 8.91375 18.7929 9.03118C18.8765 9.12546 18.8984 9.26218 18.8791 9.38689C18.8431 9.62432 18.7261 9.95561 18.4317 9.94532C18.5157 9.94832 18.5992 9.97532 18.6832 9.96846C18.7719 9.96118 18.8585 9.9376 18.9399 9.90203C19.1067 9.82875 19.2117 9.69503 19.3582 9.59818C19.6539 9.40275 20.0667 9.39675 20.3671 9.58489C20.3885 9.59818 20.4104 9.61318 20.4357 9.61703C20.4824 9.62475 20.5282 9.59175 20.5509 9.55018C20.5737 9.50861 20.5784 9.45975 20.5822 9.41261C20.5887 9.34146 20.5938 9.2656 20.5595 9.20303C20.5479 9.18203 20.5321 9.16318 20.5218 9.14132C20.4807 9.05518 20.5291 8.9566 20.5312 8.86789C20.5334 8.78046 20.5471 8.69518 20.5574 8.60646C20.5788 8.41832 20.5788 8.22161 20.5051 8.04375C20.4674 7.95289 20.4121 7.87018 20.3529 7.79132C20.0615 7.40303 19.6711 7.08975 19.2288 6.8896C18.9549 6.76575 18.6635 6.68518 18.3687 6.62903C18.0078 6.56003 17.6401 6.52703 17.2728 6.53003C17.1871 6.53089 17.0958 6.53775 17.0045 6.54975V6.55061Z" fill="black"/>
<path d="M16.9766 10.8466C16.9895 10.8487 16.9166 11.2211 16.6111 11.2683C16.1606 11.3377 15.9845 10.9066 15.9845 10.9066C15.9845 10.9066 16.3209 10.7343 16.9766 10.8466Z" fill="#FF27E7"/>
<path d="M15.9839 10.9066C15.971 10.9032 16.076 10.6786 16.3897 10.655C16.7034 10.631 17.0142 10.8453 17.0142 10.8453C17.0142 10.8453 16.6284 11.072 15.9839 10.9066Z" fill="#801478"/>
<path d="M15.9113 10.8775C16.0103 10.889 16.108 10.9075 16.2066 10.9212C16.2927 10.9332 16.3823 10.9439 16.4697 10.9388C16.6094 10.9306 16.75 10.8938 16.8837 10.853C16.9523 10.8325 17.023 10.8128 17.0881 10.7832C17.1036 10.7763 17.116 10.7965 17.1014 10.8063C16.9849 10.8843 16.8456 10.9259 16.7097 10.9568C16.6407 10.9726 16.5704 10.985 16.4997 10.9906C16.4179 10.9975 16.3356 10.9889 16.2546 10.9769C16.1363 10.9598 16.0219 10.9328 15.9087 10.8959C15.8993 10.8929 15.9001 10.8758 15.9113 10.8775Z" fill="black"/>
<path d="M19.0763 10.4103C19.2057 10.0726 19.5996 9.94572 19.9321 9.94572C19.9887 9.94572 20.0457 9.94958 20.1019 9.95601C20.128 9.95901 20.1546 9.96287 20.1803 9.96801C20.2094 9.97358 20.2334 9.98387 20.2604 9.99544C20.2801 10.004 20.2677 10.031 20.2506 10.0323C20.158 10.04 20.065 10.0242 19.972 10.0224C19.879 10.0207 19.7894 10.025 19.6999 10.0422C19.546 10.0709 19.3951 10.1322 19.2734 10.2324C19.2083 10.286 19.1457 10.3499 19.0973 10.4189C19.0904 10.4283 19.072 10.4227 19.0767 10.4103H19.0763Z" fill="black"/>
<path d="M19.599 10.0332C19.6256 10.0473 19.6415 10.0726 19.6573 10.097C19.6753 10.1245 19.6925 10.1523 19.707 10.1815C19.7353 10.2372 19.755 10.2972 19.7598 10.3598C19.7683 10.4763 19.7212 10.5998 19.6243 10.6683C19.5973 10.6872 19.5738 10.6478 19.5918 10.6259C19.6573 10.5453 19.6989 10.4515 19.6895 10.346C19.6843 10.2925 19.6685 10.2398 19.6479 10.1905C19.6368 10.1643 19.6243 10.1386 19.6106 10.1138C19.5982 10.0906 19.5858 10.0688 19.5832 10.0426C19.5823 10.034 19.5926 10.0302 19.599 10.0336V10.0332Z" fill="black"/>
<path d="M16.8466 9.1019C17.0009 8.9579 17.1792 8.85462 17.3913 8.82848C17.6574 8.79548 17.945 8.86705 18.1825 8.9849C18.2386 9.01276 18.1987 9.0989 18.1405 9.08433C17.8979 9.02219 17.6583 8.93647 17.4037 8.95362C17.2135 8.96647 17.0403 9.04447 16.8847 9.15162C16.8552 9.17219 16.8205 9.12633 16.8466 9.1019Z" fill="black"/>
<path d="M16.1517 8.8696C16.1024 8.84689 16.0484 8.8366 15.9961 8.82246C15.9486 8.8096 15.9006 8.79889 15.8521 8.79075C15.7647 8.77618 15.673 8.76846 15.5886 8.75689C15.556 8.7526 15.5277 8.73203 15.5277 8.69603C15.5277 8.6626 15.5556 8.63603 15.5886 8.63518C15.6889 8.63346 15.787 8.65018 15.883 8.67889C15.934 8.69432 15.9841 8.71275 16.033 8.73418C16.0853 8.75732 16.1316 8.79118 16.1791 8.82203C16.2091 8.84132 16.183 8.88375 16.1517 8.86918V8.8696Z" fill="black"/>
<path d="M16.3336 8.93773C16.4502 8.98102 16.5346 9.09673 16.5706 9.21202C16.6079 9.33116 16.5861 9.44644 16.5239 9.55273C16.4631 9.65687 16.3803 9.74602 16.3152 9.84716C16.2548 9.94059 16.2115 10.0507 16.2548 10.1609C16.2788 10.2217 16.3521 10.2539 16.4116 10.2663C16.4999 10.2843 16.5874 10.2607 16.6675 10.2239C16.6928 10.2123 16.7108 10.244 16.6889 10.2607C16.5745 10.3482 16.4035 10.3602 16.2818 10.28C16.2261 10.2432 16.1935 10.1922 16.1811 10.127C16.1703 10.07 16.1746 10.0113 16.1926 9.95602C16.2303 9.83987 16.3122 9.74473 16.3855 9.64916C16.4575 9.55487 16.5355 9.45116 16.5338 9.3273C16.5329 9.25444 16.5102 9.18459 16.4742 9.12159C16.4356 9.05473 16.3821 9.00244 16.3246 8.9523C16.3182 8.94673 16.3246 8.93473 16.3332 8.93773H16.3336Z" fill="black"/>
<path d="M18.1878 6.88962C16.6013 6.88962 15.3151 6.07759 15.3151 5.07591C15.3151 4.07422 16.6013 3.26219 18.1878 3.26219C19.7744 3.26219 21.0605 4.07422 21.0605 5.07591C21.0605 6.07759 19.7744 6.88962 18.1878 6.88962Z" fill="black"/>
<path d="M18.1785 4.5912C17.0838 4.5912 16.1964 3.77918 16.1964 2.77749C16.1964 1.7758 17.0838 0.963776 18.1785 0.963776C19.2732 0.963776 20.1606 1.7758 20.1606 2.77749C20.1606 3.77918 19.2732 4.5912 18.1785 4.5912Z" fill="black"/>
<path d="M26.1279 0.808971C26.5076 0.826971 26.6992 0.745543 26.9499 0.459686C26.9992 0.403543 27.0913 0.4404 27.0879 0.5154C27.0699 0.895114 27.1513 1.08669 27.4372 1.3374C27.4933 1.38669 27.4565 1.47883 27.3815 1.4754C27.0018 1.4574 26.8102 1.53883 26.5595 1.82469C26.5102 1.88083 26.418 1.84397 26.4215 1.76897C26.4395 1.38926 26.358 1.19769 26.0722 0.946971C26.016 0.897685 26.0529 0.805542 26.1279 0.808971Z" fill="#FF9260"/>
<path d="M26.1279 20.9746C26.5076 20.9926 26.6992 20.9112 26.9499 20.6253C26.9992 20.5692 27.0913 20.606 27.0879 20.681C27.0699 21.0607 27.1513 21.2523 27.4372 21.503C27.4933 21.5523 27.4565 21.6445 27.3815 21.641C27.0018 21.623 26.8102 21.7045 26.5595 21.9903C26.5102 22.0465 26.418 22.0096 26.4215 21.9346C26.4395 21.5549 26.358 21.3633 26.0722 21.1126C26.016 21.0633 26.0529 20.9712 26.1279 20.9746Z" fill="#FF9260"/>
<path d="M10.5019 7.85175C10.7526 7.56589 10.8083 7.36575 10.741 6.99118C10.7277 6.91746 10.8143 6.8686 10.8704 6.91789C11.1563 7.1686 11.3564 7.22432 11.731 7.15703C11.8047 7.14375 11.8536 7.23032 11.8043 7.28646C11.5536 7.57232 11.4979 7.77246 11.5651 8.14703C11.5784 8.22075 11.4919 8.2696 11.4357 8.22032C11.1499 7.9696 10.9497 7.91389 10.5752 7.98118C10.5014 7.99446 10.4526 7.90789 10.5019 7.85175Z" fill="#FF9260"/>
<path d="M24.7511 13.0212L17.9386 13.7964L10.5543 13.1373C10.0061 13.0884 9.47729 13.3546 9.19015 13.8243C8.63643 14.7303 9.21415 15.9042 10.2697 16.0186L17.2349 16.7729L25.0241 16.3962C26.2931 16.3349 27.0453 14.9497 26.4059 13.8517C26.0677 13.271 25.4184 12.9453 24.7507 13.0212H24.7511Z" fill="#FF84EE"/>
<path d="M22.2227 16.2638L21.1127 22.0731L17.9996 23.4655L15.5267 22.3675L14.7819 19.4228L14.0267 18.7281C13.7379 18.4624 13.6239 18.0556 13.7327 17.6785L14.1411 16.2612L22.2231 16.2638H22.2227Z" fill="#FF84EE"/>
<path d="M8.93158 15.2588C9.27016 15.6638 9.81101 15.8378 10.3223 15.7066C11.599 15.3788 12.0096 13.7699 11.0462 12.8699L5.35944 7.09532C5.35944 7.09532 5.2043 7.91604 4.60816 8.23746C4.01201 8.55932 3.40387 9.01061 3.40387 9.01061L7.91073 14.0373L8.93158 15.2588Z" fill="#FF84EE"/>
<path d="M26.3655 15.7983C26.027 16.2033 25.4861 16.3773 24.9748 16.2462C23.6981 15.9183 23.2875 14.3095 24.251 13.4095L29.9377 7.6349C29.9377 7.6349 30.1935 8.37076 30.7374 8.91462C31.4471 9.62433 31.4951 9.79705 31.4951 9.79705L27.3864 14.5769L26.3655 15.7983Z" fill="#FF84EE"/>
<path d="M25.4819 13.9135L24.6184 13.0362" stroke="black" stroke-width="0.0458571" stroke-miterlimit="10"/>
<path d="M11.3242 13.2059L10.0878 13.4751" stroke="black" stroke-width="0.0458571" stroke-miterlimit="10"/>
<path d="M21.146 18.5557C21.146 18.5557 19.9439 19.379 18.941 19.3143C17.8083 19.241 17.546 18.6804 17.546 18.6804C17.546 18.6804 16.1386 20.108 14.4071 19.0777" stroke="black" stroke-width="0.0458571" stroke-miterlimit="10"/>
<path d="M14.478 15.7495L14.0362 16.6246" stroke="black" stroke-width="0.0458571" stroke-miterlimit="10"/>
<path d="M22.4434 16.5209L21.2815 16.5466" stroke="black" stroke-width="0.0458571" stroke-miterlimit="10"/>
<path d="M20.0636 24.9183C20.0636 26.1106 21.03 27.077 22.2223 27.077C23.0945 27.077 23.8457 26.5597 24.186 25.8157C23.9375 25.0019 22.6753 23.6304 21.8477 22.7926C20.8342 22.9696 20.0636 23.8542 20.0636 24.9183Z" fill="#FFDDBD"/>
<path d="M15.163 30.6886C15.163 30.8965 15.1926 31.0983 15.2479 31.2882H19.3956C19.4509 31.0983 19.4805 30.8965 19.4805 30.6886C19.4805 29.4963 18.5145 28.5299 17.3222 28.5299C16.1299 28.5299 15.1635 29.4963 15.1635 30.6886H15.163Z" fill="#FFDDBD"/>
<path d="M13.082 28.8303C13.1462 28.8363 13.2118 28.8389 13.2778 28.8389C14.4701 28.8389 15.4365 27.8729 15.4365 26.6806C15.4365 25.7227 14.813 24.9106 13.9494 24.629C13.8161 24.8896 13.6832 25.1729 13.5551 25.4797C13.1565 26.4333 13.0635 27.7139 13.0815 28.8299L13.082 28.8303Z" fill="#FFDDBD"/>
<path d="M22.4596 30.4786C22.4596 30.7653 22.5154 31.0383 22.6165 31.2886H25.4819C25.4819 31.2886 25.1408 29.7933 24.7966 28.328C24.7375 28.3233 24.6784 28.3203 24.6179 28.3203C23.4256 28.3203 22.4596 29.2863 22.4596 30.4786Z" fill="#FFDDBD"/>
<path d="M34.6538 31.2886H2.91123" stroke="black" stroke-width="0.0514286" stroke-linecap="round" stroke-linejoin="round"/>
<path d="M16.3653 14.696C17.3424 14.33 18.9268 14.33 19.904 14.696L19.9263 14.7041L19.904 14.7123C18.9268 15.0783 17.3424 15.0783 16.3653 14.7123L16.343 14.7041L16.3653 14.696Z" fill="#802F00"/>
</g>
<defs>
<clipPath id="clip0_1530_14501">
<rect width="36" height="32.1429" fill="white" transform="matrix(-1 0 0 1 36 0.121063)"/>
</clipPath>
</defs>
</svg>
