<svg width="96" height="40" viewBox="0 0 96 40" fill="none" xmlns="http://www.w3.org/2000/svg">
<path d="M29.1952 20.926C29.1796 18.262 30.3866 16.2542 32.8241 14.7737C31.4608 12.8206 29.3983 11.7463 26.6796 11.5393C24.1053 11.3362 21.2889 13.0393 20.2577 13.0393C19.1678 13.0393 16.6757 11.6096 14.7147 11.6096C10.6678 11.6721 6.36707 14.8362 6.36707 21.2737C6.36707 23.176 6.71472 25.1409 7.41003 27.1643C8.33972 29.8284 11.6913 36.3557 15.1874 36.2502C17.0155 36.2073 18.3085 34.9534 20.6874 34.9534C22.996 34.9534 24.1913 36.2502 26.2303 36.2502C29.7577 36.1995 32.7889 30.2659 33.6718 27.594C28.9413 25.3635 29.1952 21.0627 29.1952 20.926ZM25.0897 9.01196C27.0702 6.6604 26.8905 4.51978 26.8319 3.75024C25.0819 3.85181 23.0585 4.94165 21.9061 6.28149C20.6366 7.71899 19.8905 9.49634 20.0507 11.5002C21.9413 11.6448 23.6678 10.6721 25.0897 9.01196Z" fill="white"/>
<line x1="48.5" x2="48.5" y2="40" stroke="url(#paint0_linear_1056_1302)"/>
<path d="M61 34.1668V5.8335C61 4.85016 61.5667 3.9835 62.4 3.5835L78.8167 20.0002L62.4 36.4168C61.5667 36.0002 61 35.1502 61 34.1668ZM84.0167 25.2002L66.0833 35.5668L80.2333 21.4168L84.0167 25.2002ZM89.6 18.0168C90.1667 18.4668 90.5833 19.1668 90.5833 20.0002C90.5833 20.8335 90.2167 21.5002 89.6333 21.9668L85.8167 24.1668L81.65 20.0002L85.8167 15.8335L89.6 18.0168ZM66.0833 4.4335L84.0167 14.8002L80.2333 18.5835L66.0833 4.4335Z" fill="white"/>
<defs>
<linearGradient id="paint0_linear_1056_1302" x1="47.5" y1="0" x2="47.5" y2="40" gradientUnits="userSpaceOnUse">
<stop stop-color="white" stop-opacity="0"/>
<stop offset="0.5" stop-color="white"/>
<stop offset="1" stop-color="white" stop-opacity="0"/>
</linearGradient>
</defs>
</svg>
