<svg width="48" height="49" viewBox="0 0 48 49" fill="none" xmlns="http://www.w3.org/2000/svg">
<path d="M32.625 30.5337H38.625V39.5337H32.625V30.5337ZM9.375 30.5337H15.375V39.5337H9.375V30.5337Z" fill="#8877D8" fill-opacity="0.5"/>
<path d="M24 6.90869C14.0578 6.90869 6 14.9665 6 24.9087V41.7837C6 42.4071 6.50156 42.9087 7.125 42.9087H15.75C17.4047 42.9087 18.75 41.5634 18.75 39.9087V30.1587C18.75 28.504 17.4047 27.1587 15.75 27.1587H9.375V24.9087C9.375 16.8321 15.9234 10.2837 24 10.2837C32.0766 10.2837 38.625 16.8321 38.625 24.9087V27.1587H32.25C30.5953 27.1587 29.25 28.504 29.25 30.1587V39.9087C29.25 41.5634 30.5953 42.9087 32.25 42.9087H40.875C41.4984 42.9087 42 42.4071 42 41.7837V24.9087C42 14.9665 33.9422 6.90869 24 6.90869ZM15.375 30.5337V39.5337H9.375V30.5337H15.375ZM38.625 39.5337H32.625V30.5337H38.625V39.5337Z" fill="#8877D8"/>
</svg>
