<svg width="1440" height="526" viewBox="0 0 1440 526" fill="none" xmlns="http://www.w3.org/2000/svg">
<g clip-path="url(#clip0_1625_14129)">
<rect width="1440" height="526" fill="#8877D8"/>
<path d="M262.929 186V144.4H282.449C289.105 144.4 293.841 148.752 293.841 154.896C293.841 159.312 291.153 163.024 286.801 164.304C292.049 165.456 295.441 169.488 295.441 174.736C295.441 181.328 290.577 186 283.793 186H262.929ZM270.033 179.408H281.809C285.457 179.408 288.145 176.976 288.145 173.52C288.145 170.128 285.521 167.632 281.873 167.632H270.033V179.408ZM270.033 161.872H280.721C284.177 161.872 286.737 159.568 286.737 156.368C286.737 153.168 284.241 150.864 280.785 150.864H270.033V161.872ZM315.108 186.768C305.7 186.768 299.108 179.792 299.108 170C299.108 160.208 305.572 153.232 314.66 153.232C324.836 153.232 330.724 161.936 329.828 172.112H306.276C307.108 176.976 310.564 180.24 315.172 180.24C318.82 180.24 321.764 178.192 322.532 175.184L329.38 177.616C327.716 183.056 322.02 186.768 315.108 186.768ZM306.34 167.12H322.788C322.148 162.64 318.82 159.632 314.66 159.632C310.436 159.632 307.236 162.64 306.34 167.12ZM349.385 186.768C340.169 186.768 333.641 179.792 333.641 170.064C333.641 160.208 340.105 153.232 349.257 153.232C356.681 153.232 362.633 157.968 363.593 164.624L356.937 166.672C356.297 162.512 353.161 159.632 349.193 159.632C344.201 159.632 340.745 163.984 340.745 169.936C340.745 175.952 344.329 180.176 349.385 180.176C353.545 180.176 356.745 177.296 357.193 172.816L364.105 174.992C362.953 182.096 356.873 186.768 349.385 186.768ZM383.676 186.768C374.268 186.768 367.612 179.792 367.612 170C367.612 160.208 374.268 153.232 383.676 153.232C393.084 153.232 399.804 160.208 399.804 170C399.804 179.792 393.084 186.768 383.676 186.768ZM383.676 180.176C388.988 180.176 392.828 175.952 392.828 170C392.828 163.92 388.988 159.632 383.676 159.632C378.364 159.632 374.588 163.92 374.588 170C374.588 175.952 378.364 180.176 383.676 180.176ZM405.186 186V154H410.498L411.65 159.184C413.122 155.664 416.77 153.232 421.058 153.232C425.41 153.232 429.25 155.728 430.914 159.376C432.514 155.728 436.418 153.232 440.898 153.232C447.49 153.232 452.226 158.608 452.226 166.096V186H445.506V166.992C445.506 162.896 442.882 159.888 439.234 159.888C435.138 159.888 432.194 163.344 432.194 168.08V186H425.602V167.12C425.602 162.896 422.914 159.888 419.202 159.888C414.978 159.888 411.906 163.408 411.906 168.336V186H405.186ZM473.178 186.768C463.77 186.768 457.178 179.792 457.178 170C457.178 160.208 463.642 153.232 472.73 153.232C482.906 153.232 488.794 161.936 487.898 172.112H464.346C465.178 176.976 468.634 180.24 473.242 180.24C476.89 180.24 479.834 178.192 480.602 175.184L487.45 177.616C485.786 183.056 480.09 186.768 473.178 186.768ZM464.41 167.12H480.858C480.218 162.64 476.89 159.632 472.73 159.632C468.506 159.632 465.306 162.64 464.41 167.12ZM521.183 186.768C511.775 186.768 505.183 179.792 505.183 170C505.183 160.208 511.647 153.232 520.735 153.232C530.911 153.232 536.799 161.936 535.903 172.112H512.351C513.183 176.976 516.639 180.24 521.247 180.24C524.895 180.24 527.839 178.192 528.607 175.184L535.455 177.616C533.791 183.056 528.095 186.768 521.183 186.768ZM512.415 167.12H528.863C528.223 162.64 524.895 159.632 520.735 159.632C516.511 159.632 513.311 162.64 512.415 167.12ZM543.556 151.888C543.556 142.672 553.22 139.6 559.492 143.248L557.636 149.52C554.564 147.536 550.276 148.496 550.276 152.208V155.792H557.956V162H550.276V186H543.556V162H538.692V155.792H543.556V151.888ZM565.339 151.888C565.339 142.672 575.003 139.6 581.275 143.248L579.419 149.52C576.347 147.536 572.059 148.496 572.059 152.208V155.792H579.739V162H572.059V186H565.339V162H560.475V155.792H565.339V151.888ZM597.409 186.768C588.001 186.768 581.345 179.792 581.345 170C581.345 160.208 588.001 153.232 597.409 153.232C606.817 153.232 613.537 160.208 613.537 170C613.537 179.792 606.817 186.768 597.409 186.768ZM597.409 180.176C602.721 180.176 606.561 175.952 606.561 170C606.561 163.92 602.721 159.632 597.409 159.632C592.097 159.632 588.321 163.92 588.321 170C588.321 175.952 592.097 180.176 597.409 180.176ZM618.919 186V154H624.359L625.319 158.672C626.855 154.256 631.975 152.144 637.031 153.872L636.391 161.488C631.399 159.056 625.639 161.04 625.639 167.632V186H618.919ZM657.458 186.064C650.802 188.112 642.994 186.064 642.994 177.936V160.208H638.194V154H640.05C642.034 154 643.314 152.528 643.314 150.288V145.488H649.714V154H657.074V160.208H649.714V176.4C649.714 180.112 653.234 181.136 656.69 179.856L657.458 186.064ZM662.362 186V142.48H669.082V186H662.362ZM690.603 186.768C681.195 186.768 674.603 179.792 674.603 170C674.603 160.208 681.067 153.232 690.155 153.232C700.331 153.232 706.219 161.936 705.323 172.112H681.771C682.603 176.976 686.059 180.24 690.667 180.24C694.315 180.24 697.259 178.192 698.027 175.184L704.875 177.616C703.211 183.056 697.515 186.768 690.603 186.768ZM681.835 167.12H698.283C697.643 162.64 694.315 159.632 690.155 159.632C685.931 159.632 682.731 162.64 681.835 167.12ZM722.897 186.768C715.025 186.768 709.137 182.48 708.625 176.528L716.305 174.736C716.497 178.192 719.441 180.752 723.345 180.752C726.353 180.752 728.593 179.152 728.593 176.848C728.593 170.256 710.161 172.752 710.161 162.192C710.161 156.88 715.089 153.232 722.065 153.232C729.233 153.232 734.417 156.944 734.929 162.128L727.633 163.792C727.569 160.976 725.201 159.056 721.873 159.056C719.057 159.056 717.137 160.464 717.137 162.512C717.137 168.912 735.825 166.288 735.825 177.104C735.825 182.736 730.449 186.768 722.897 186.768ZM752.805 186.768C744.933 186.768 739.045 182.48 738.533 176.528L746.213 174.736C746.405 178.192 749.349 180.752 753.253 180.752C756.261 180.752 758.501 179.152 758.501 176.848C758.501 170.256 740.069 172.752 740.069 162.192C740.069 156.88 744.997 153.232 751.973 153.232C759.141 153.232 764.325 156.944 764.837 162.128L757.541 163.792C757.477 160.976 755.109 159.056 751.781 159.056C748.965 159.056 747.045 160.464 747.045 162.512C747.045 168.912 765.733 166.288 765.733 177.104C765.733 182.736 760.357 186.768 752.805 186.768ZM770.745 186V142.48H777.465V186H770.745ZM785.931 193.04C788.747 192.848 791.115 191.312 792.267 188.624L793.739 184.976L781.131 154H788.811L797.067 177.168L804.619 154H812.171L798.347 190.608C796.363 195.856 792.843 199.184 788.491 199.568L785.931 193.04ZM842.145 186.768C833.633 186.768 827.553 179.792 827.553 170C827.553 160.144 833.569 153.232 842.081 153.232C846.433 153.232 850.209 155.152 852.769 158.416V142.48H859.489V179.6L859.617 186H854.113L853.089 181.2C850.529 184.656 846.689 186.768 842.145 186.768ZM843.681 180.176C848.993 180.176 852.833 175.888 852.833 170C852.833 163.984 848.993 159.696 843.681 159.696C838.369 159.696 834.529 163.984 834.529 170C834.529 175.888 838.369 180.176 843.681 180.176ZM866.752 154H873.472V186H866.752V154ZM870.144 150.352C867.52 150.352 865.664 148.368 865.664 145.68C865.664 142.992 867.52 141.072 870.144 141.072C872.768 141.072 874.624 142.992 874.624 145.68C874.624 148.368 872.768 150.352 870.144 150.352ZM892.755 186.768C884.883 186.768 878.995 182.48 878.483 176.528L886.163 174.736C886.355 178.192 889.299 180.752 893.203 180.752C896.211 180.752 898.451 179.152 898.451 176.848C898.451 170.256 880.019 172.752 880.019 162.192C880.019 156.88 884.947 153.232 891.923 153.232C899.091 153.232 904.275 156.944 904.787 162.128L897.491 163.792C897.427 160.976 895.059 159.056 891.731 159.056C888.915 159.056 886.995 160.464 886.995 162.512C886.995 168.912 905.683 166.288 905.683 177.104C905.683 182.736 900.307 186.768 892.755 186.768ZM924.647 186.768C915.431 186.768 908.903 179.792 908.903 170.064C908.903 160.208 915.367 153.232 924.519 153.232C931.943 153.232 937.895 157.968 938.855 164.624L932.199 166.672C931.559 162.512 928.423 159.632 924.455 159.632C919.463 159.632 916.007 163.984 916.007 169.936C916.007 175.952 919.591 180.176 924.647 180.176C928.807 180.176 932.007 177.296 932.455 172.816L939.367 174.992C938.215 182.096 932.135 186.768 924.647 186.768ZM958.938 186.768C949.53 186.768 942.874 179.792 942.874 170C942.874 160.208 949.53 153.232 958.938 153.232C968.346 153.232 975.066 160.208 975.066 170C975.066 179.792 968.346 186.768 958.938 186.768ZM958.938 180.176C964.25 180.176 968.09 175.952 968.09 170C968.09 163.92 964.25 159.632 958.938 159.632C953.626 159.632 949.85 163.92 949.85 170C949.85 175.952 953.626 180.176 958.938 180.176ZM987.957 186L975.989 154H983.669L992.053 179.28L1000.24 154H1007.67L996.021 186H987.957ZM1024.82 186.768C1015.41 186.768 1008.82 179.792 1008.82 170C1008.82 160.208 1015.28 153.232 1024.37 153.232C1034.54 153.232 1040.43 161.936 1039.54 172.112H1015.98C1016.82 176.976 1020.27 180.24 1024.88 180.24C1028.53 180.24 1031.47 178.192 1032.24 175.184L1039.09 177.616C1037.42 183.056 1031.73 186.768 1024.82 186.768ZM1016.05 167.12H1032.5C1031.86 162.64 1028.53 159.632 1024.37 159.632C1020.14 159.632 1016.94 162.64 1016.05 167.12ZM1045.08 186V154H1050.52L1051.48 158.672C1053.01 154.256 1058.13 152.144 1063.19 153.872L1062.55 161.488C1057.56 159.056 1051.8 161.04 1051.8 167.632V186H1045.08ZM1075.5 186.768C1069.23 186.768 1065.01 182.992 1065.01 177.424C1065.01 173.136 1068.34 169.552 1073.39 168.592L1083.5 166.608C1084.46 166.48 1085.1 165.776 1085.1 164.944C1085.1 161.68 1082.74 159.312 1079.41 159.312C1075.95 159.312 1073.26 161.744 1073.01 165.392L1066.1 163.728C1067.12 157.584 1072.5 153.232 1079.09 153.232C1086.51 153.232 1091.82 158.224 1091.82 165.136V179.6L1091.95 186H1086.64L1085.49 181.648C1083.5 184.784 1079.86 186.768 1075.5 186.768ZM1072.24 176.528C1072.24 178.832 1074.1 180.368 1077.17 180.368C1081.65 180.368 1085.1 177.104 1085.1 172.304V170.832C1084.46 170.96 1083.76 171.152 1083.06 171.28L1076.08 172.56C1073.71 173.008 1072.24 174.544 1072.24 176.528ZM1116.12 186.768C1111.51 186.768 1107.61 184.656 1105.11 181.072L1104.02 186H1098.58V142.48H1105.3V158.544C1107.86 155.216 1111.64 153.232 1116.12 153.232C1124.44 153.232 1130.45 160.144 1130.45 169.872C1130.45 179.728 1124.44 186.768 1116.12 186.768ZM1114.39 180.176C1119.7 180.176 1123.48 175.888 1123.48 170C1123.48 163.984 1119.7 159.696 1114.39 159.696C1109.01 159.696 1105.24 163.984 1105.24 170C1105.24 175.888 1109.01 180.176 1114.39 180.176ZM1135.93 186V142.48H1142.65V186H1135.93ZM1164.17 186.768C1154.76 186.768 1148.17 179.792 1148.17 170C1148.17 160.208 1154.63 153.232 1163.72 153.232C1173.9 153.232 1179.79 161.936 1178.89 172.112H1155.34C1156.17 176.976 1159.63 180.24 1164.23 180.24C1167.88 180.24 1170.83 178.192 1171.59 175.184L1178.44 177.616C1176.78 183.056 1171.08 186.768 1164.17 186.768ZM1155.4 167.12H1171.85C1171.21 162.64 1167.88 159.632 1163.72 159.632C1159.5 159.632 1156.3 162.64 1155.4 167.12ZM478.743 268L473.687 236H480.791L484.119 260.576L489.815 236.064H496.087L501.591 260.576L505.239 236H512.023L506.519 268H498.711L492.887 243.552L486.935 268H478.743ZM516.961 236H523.681V268H516.961V236ZM520.353 232.352C517.729 232.352 515.873 230.368 515.873 227.68C515.873 224.992 517.729 223.072 520.353 223.072C522.977 223.072 524.833 224.992 524.833 227.68C524.833 230.368 522.977 232.352 520.353 232.352ZM547.187 268.064C540.531 270.112 532.723 268.064 532.723 259.936V242.208H527.923V236H529.779C531.763 236 533.043 234.528 533.043 232.288V227.488H539.443V236H546.803V242.208H539.443V258.4C539.443 262.112 542.963 263.136 546.419 261.856L547.187 268.064ZM552.091 268V224.48H558.811V240.608C560.603 237.344 564.379 235.232 568.731 235.232C575.835 235.232 580.891 240.8 580.891 248.416V268H574.171V249.504C574.171 245.024 571.163 241.824 566.939 241.824C562.267 241.824 558.811 245.472 558.811 250.592V268H552.091ZM601.095 268V226.4H620.615C627.271 226.4 632.007 230.752 632.007 236.896C632.007 241.312 629.319 245.024 624.967 246.304C630.215 247.456 633.607 251.488 633.607 256.736C633.607 263.328 628.743 268 621.959 268H601.095ZM608.199 261.408H619.975C623.623 261.408 626.311 258.976 626.311 255.52C626.311 252.128 623.687 249.632 620.039 249.632H608.199V261.408ZM608.199 243.872H618.887C622.343 243.872 624.903 241.568 624.903 238.368C624.903 235.168 622.407 232.864 618.951 232.864H608.199V243.872ZM653.274 268.768C643.866 268.768 637.274 261.792 637.274 252C637.274 242.208 643.738 235.232 652.826 235.232C663.002 235.232 668.89 243.936 667.994 254.112H644.442C645.274 258.976 648.73 262.24 653.338 262.24C656.986 262.24 659.93 260.192 660.698 257.184L667.546 259.616C665.882 265.056 660.186 268.768 653.274 268.768ZM644.506 249.12H660.954C660.314 244.64 656.986 241.632 652.826 241.632C648.602 241.632 645.402 244.64 644.506 249.12ZM682.241 268.768C675.969 268.768 671.745 264.992 671.745 259.424C671.745 255.136 675.073 251.552 680.129 250.592L690.241 248.608C691.201 248.48 691.841 247.776 691.841 246.944C691.841 243.68 689.473 241.312 686.145 241.312C682.689 241.312 680.001 243.744 679.745 247.392L672.833 245.728C673.857 239.584 679.233 235.232 685.825 235.232C693.249 235.232 698.561 240.224 698.561 247.136V261.6L698.689 268H693.377L692.225 263.648C690.241 266.784 686.593 268.768 682.241 268.768ZM678.977 258.528C678.977 260.832 680.833 262.368 683.905 262.368C688.385 262.368 691.841 259.104 691.841 254.304V252.832C691.201 252.96 690.497 253.152 689.793 253.28L682.817 254.56C680.449 255.008 678.977 256.544 678.977 258.528ZM716.776 268.768C709.736 268.768 704.744 263.584 704.744 256.096V236H711.464V254.816C711.464 258.976 714.472 262.048 718.696 262.048C723.176 262.048 726.376 258.656 726.376 253.984V236H733.096V261.6L733.224 268H727.656L726.504 263.136C725.032 266.528 721.32 268.768 716.776 268.768ZM756.546 268.064C749.89 270.112 742.082 268.064 742.082 259.936V242.208H737.282V236H739.138C741.122 236 742.402 234.528 742.402 232.288V227.488H748.802V236H756.162V242.208H748.802V258.4C748.802 262.112 752.322 263.136 755.778 261.856L756.546 268.064ZM762.976 275.04C765.792 274.848 768.16 273.312 769.312 270.624L770.784 266.976L758.176 236H765.856L774.112 259.168L781.664 236H789.216L775.392 272.608C773.408 277.856 769.888 281.184 765.536 281.568L762.976 275.04ZM806.391 268V226.4H825.911C832.567 226.4 837.303 230.752 837.303 236.896C837.303 241.312 834.615 245.024 830.263 246.304C835.511 247.456 838.903 251.488 838.903 256.736C838.903 263.328 834.039 268 827.255 268H806.391ZM813.495 261.408H825.271C828.919 261.408 831.607 258.976 831.607 255.52C831.607 252.128 828.983 249.632 825.335 249.632H813.495V261.408ZM813.495 243.872H824.183C827.639 243.872 830.199 241.568 830.199 238.368C830.199 235.168 827.703 232.864 824.247 232.864H813.495V243.872ZM855.818 268.768C848.778 268.768 843.786 263.584 843.786 256.096V236H850.506V254.816C850.506 258.976 853.514 262.048 857.738 262.048C862.218 262.048 865.418 258.656 865.418 253.984V236H872.138V261.6L872.266 268H866.698L865.546 263.136C864.074 266.528 860.362 268.768 855.818 268.768ZM895.587 268.064C888.931 270.112 881.123 268.064 881.123 259.936V242.208H876.323V236H878.179C880.163 236 881.443 234.528 881.443 232.288V227.488H887.843V236H895.203V242.208H887.843V258.4C887.843 262.112 891.363 263.136 894.819 261.856L895.587 268.064ZM900.491 268V224.48H907.211V268H900.491ZM928.733 268.768C919.325 268.768 912.733 261.792 912.733 252C912.733 242.208 919.197 235.232 928.285 235.232C938.461 235.232 944.349 243.936 943.453 254.112H919.901C920.733 258.976 924.189 262.24 928.797 262.24C932.445 262.24 935.389 260.192 936.157 257.184L943.005 259.616C941.341 265.056 935.645 268.768 928.733 268.768ZM919.965 249.12H936.413C935.773 244.64 932.445 241.632 928.285 241.632C924.061 241.632 920.861 244.64 919.965 249.12ZM948.994 268V236H954.434L955.394 240.672C956.93 236.256 962.05 234.144 967.106 235.872L966.466 243.488C961.474 241.056 955.714 243.04 955.714 249.632V268H948.994Z" fill="#FAFAFA"/>
<path d="M466.359 360V345.552L453.111 325.92H458.439L468.567 341.088L478.743 325.92H484.071L470.775 345.6V360H466.359ZM493.703 360.48C490.087 360.48 487.079 359.28 484.679 356.88C482.311 354.448 481.127 351.488 481.127 348C481.127 344.512 482.311 341.568 484.679 339.168C487.079 336.736 490.087 335.52 493.703 335.52C497.287 335.52 500.263 336.736 502.631 339.168C505.031 341.568 506.231 344.512 506.231 348C506.231 351.488 505.031 354.448 502.631 356.88C500.263 359.28 497.287 360.48 493.703 360.48ZM487.655 354.144C489.223 355.808 491.239 356.64 493.703 356.64C496.167 356.64 498.167 355.808 499.703 354.144C501.239 352.48 502.007 350.432 502.007 348C502.007 345.568 501.239 343.52 499.703 341.856C498.167 340.192 496.167 339.36 493.703 339.36C491.239 339.36 489.223 340.192 487.655 341.856C486.119 343.52 485.351 345.568 485.351 348C485.351 350.432 486.119 352.48 487.655 354.144ZM520.561 360.48C517.937 360.48 515.809 359.6 514.177 357.84C512.545 356.048 511.729 353.68 511.729 350.736V336H515.857V350.112C515.857 352.128 516.337 353.728 517.297 354.912C518.289 356.096 519.617 356.688 521.281 356.688C523.201 356.688 524.785 355.904 526.033 354.336C527.313 352.736 527.953 350.592 527.953 347.904V336H532.081V360H527.953V356.304C526.385 359.088 523.921 360.48 520.561 360.48ZM539.77 360V336H543.898V340.656C544.346 339.184 545.21 338 546.49 337.104C547.802 336.208 549.178 335.76 550.618 335.76C551.322 335.76 551.946 335.824 552.49 335.952V340.224C551.914 339.968 551.162 339.84 550.234 339.84C548.57 339.84 547.098 340.56 545.818 342C544.538 343.44 543.898 345.472 543.898 348.096V360H539.77ZM567.524 360V336H571.652V339.696C573.284 336.912 575.828 335.52 579.284 335.52C582.004 335.52 584.196 336.4 585.86 338.16C587.524 339.92 588.356 342.272 588.356 345.216V360H584.276V345.84C584.276 343.824 583.764 342.24 582.74 341.088C581.716 339.904 580.34 339.312 578.612 339.312C576.628 339.312 574.964 340.096 573.62 341.664C572.308 343.232 571.652 345.376 571.652 348.096V360H567.524ZM605.922 360.48C602.434 360.48 599.538 359.296 597.234 356.928C594.962 354.56 593.826 351.584 593.826 348C593.826 344.384 594.93 341.408 597.138 339.072C599.378 336.704 602.338 335.52 606.018 335.52C609.73 335.52 612.642 336.832 614.754 339.456C616.866 342.08 617.794 345.296 617.538 349.104H598.002C598.066 351.28 598.866 353.104 600.402 354.576C601.938 356.016 603.794 356.736 605.97 356.736C609.234 356.736 611.554 355.392 612.93 352.704H617.154C616.546 354.944 615.25 356.8 613.266 358.272C611.282 359.744 608.834 360.48 605.922 360.48ZM610.626 340.896C609.314 339.744 607.73 339.168 605.874 339.168C604.018 339.168 602.354 339.728 600.882 340.848C599.442 341.968 598.546 343.632 598.194 345.84H613.17C612.786 343.664 611.938 342.016 610.626 340.896ZM643.661 360L637.709 342.768L631.805 360H628.157L619.997 336H624.317L630.125 353.52L636.125 336H639.293L645.293 353.52L651.101 336H655.469L647.309 360H643.661ZM683.046 360.48C681.286 360.48 679.638 360.096 678.102 359.328C676.598 358.528 675.43 357.52 674.598 356.304V360H670.47V324H674.598V339.696C675.43 338.48 676.598 337.488 678.102 336.72C679.638 335.92 681.286 335.52 683.046 335.52C686.374 335.52 689.158 336.736 691.398 339.168C693.67 341.6 694.806 344.544 694.806 348C694.806 351.456 693.67 354.4 691.398 356.832C689.158 359.264 686.374 360.48 683.046 360.48ZM676.566 354.192C678.102 355.856 680.054 356.688 682.422 356.688C684.79 356.688 686.742 355.856 688.278 354.192C689.814 352.528 690.582 350.464 690.582 348C690.582 345.536 689.814 343.472 688.278 341.808C686.742 340.144 684.79 339.312 682.422 339.312C680.054 339.312 678.102 340.144 676.566 341.808C675.03 343.472 674.262 345.536 674.262 348C674.262 350.464 675.03 352.528 676.566 354.192ZM710.836 360.48C707.348 360.48 704.452 359.296 702.148 356.928C699.876 354.56 698.74 351.584 698.74 348C698.74 344.384 699.844 341.408 702.052 339.072C704.292 336.704 707.252 335.52 710.932 335.52C714.644 335.52 717.556 336.832 719.668 339.456C721.78 342.08 722.708 345.296 722.452 349.104H702.916C702.98 351.28 703.78 353.104 705.316 354.576C706.852 356.016 708.708 356.736 710.884 356.736C714.148 356.736 716.468 355.392 717.844 352.704H722.068C721.46 354.944 720.164 356.8 718.18 358.272C716.196 359.744 713.748 360.48 710.836 360.48ZM715.54 340.896C714.228 339.744 712.644 339.168 710.788 339.168C708.932 339.168 707.268 339.728 705.796 340.848C704.356 341.968 703.46 343.632 703.108 345.84H718.084C717.7 343.664 716.852 342.016 715.54 340.896ZM738.206 360.48C734.878 360.48 732.078 359.264 729.806 356.832C727.566 354.4 726.446 351.456 726.446 348C726.446 344.544 727.566 341.6 729.806 339.168C732.078 336.736 734.878 335.52 738.206 335.52C739.966 335.52 741.598 335.92 743.102 336.72C744.638 337.488 745.822 338.48 746.654 339.696V336H750.782V360H746.654V356.304C745.822 357.52 744.638 358.528 743.102 359.328C741.598 360.096 739.966 360.48 738.206 360.48ZM738.83 356.688C741.198 356.688 743.15 355.856 744.686 354.192C746.222 352.528 746.99 350.464 746.99 348C746.99 345.536 746.222 343.472 744.686 341.808C743.15 340.144 741.198 339.312 738.83 339.312C736.43 339.312 734.462 340.144 732.926 341.808C731.39 343.472 730.622 345.536 730.622 348C730.622 350.464 731.39 352.528 732.926 354.192C734.462 355.856 736.43 356.688 738.83 356.688ZM766.956 360.48C764.332 360.48 762.204 359.6 760.572 357.84C758.94 356.048 758.124 353.68 758.124 350.736V336H762.252V350.112C762.252 352.128 762.732 353.728 763.692 354.912C764.684 356.096 766.012 356.688 767.676 356.688C769.596 356.688 771.18 355.904 772.428 354.336C773.708 352.736 774.348 350.592 774.348 347.904V336H778.476V360H774.348V356.304C772.78 359.088 770.316 360.48 766.956 360.48ZM795.478 360.24C793.27 360.24 791.494 359.616 790.15 358.368C788.806 357.12 788.134 355.296 788.134 352.896V339.792H783.046V336H788.134V329.328H792.262V336H799.174V339.792H792.262V352.368C792.262 353.872 792.582 354.928 793.222 355.536C793.862 356.144 794.87 356.448 796.246 356.448C797.462 356.448 798.438 356.288 799.174 355.968V359.664C798.022 360.048 796.79 360.24 795.478 360.24ZM810.739 370.032H806.131L811.363 358.752L800.851 336H805.411L813.667 354.24L821.875 336H826.483L810.739 370.032ZM853.498 360.48C851.738 360.48 850.09 360.096 848.554 359.328C847.05 358.528 845.882 357.52 845.05 356.304V360H840.922V324H845.05V339.696C845.882 338.48 847.05 337.488 848.554 336.72C850.09 335.92 851.738 335.52 853.498 335.52C856.826 335.52 859.61 336.736 861.85 339.168C864.122 341.6 865.258 344.544 865.258 348C865.258 351.456 864.122 354.4 861.85 356.832C859.61 359.264 856.826 360.48 853.498 360.48ZM847.018 354.192C848.554 355.856 850.506 356.688 852.874 356.688C855.242 356.688 857.194 355.856 858.73 354.192C860.266 352.528 861.034 350.464 861.034 348C861.034 345.536 860.266 343.472 858.73 341.808C857.194 340.144 855.242 339.312 852.874 339.312C850.506 339.312 848.554 340.144 847.018 341.808C845.482 343.472 844.714 345.536 844.714 348C844.714 350.464 845.482 352.528 847.018 354.192ZM881.289 360.48C877.801 360.48 874.905 359.296 872.601 356.928C870.329 354.56 869.193 351.584 869.193 348C869.193 344.384 870.297 341.408 872.505 339.072C874.745 336.704 877.705 335.52 881.385 335.52C885.097 335.52 888.009 336.832 890.121 339.456C892.233 342.08 893.161 345.296 892.905 349.104H873.369C873.433 351.28 874.233 353.104 875.769 354.576C877.305 356.016 879.161 356.736 881.337 356.736C884.601 356.736 886.921 355.392 888.297 352.704H892.521C891.913 354.944 890.617 356.8 888.633 358.272C886.649 359.744 884.201 360.48 881.289 360.48ZM885.993 340.896C884.681 339.744 883.097 339.168 881.241 339.168C879.385 339.168 877.721 339.728 876.249 340.848C874.809 341.968 873.913 343.632 873.561 345.84H888.537C888.153 343.664 887.305 342.016 885.993 340.896ZM906.498 360.48C903.81 360.48 901.554 359.824 899.73 358.512C897.938 357.2 896.946 355.376 896.754 353.04H900.978C901.234 354.384 901.874 355.376 902.898 356.016C903.954 356.656 905.17 356.976 906.546 356.976C907.922 356.976 909.026 356.704 909.858 356.16C910.722 355.616 911.154 354.832 911.154 353.808C911.154 352.848 910.834 352.064 910.194 351.456C909.586 350.848 908.578 350.352 907.17 349.968L903.714 349.056C899.586 347.968 897.522 345.616 897.522 342C897.522 340.048 898.29 338.48 899.826 337.296C901.394 336.112 903.394 335.52 905.826 335.52C908.29 335.52 910.306 336.176 911.874 337.488C913.474 338.768 914.37 340.4 914.562 342.384H910.434C910.114 341.328 909.538 340.496 908.706 339.888C907.906 339.28 906.946 338.976 905.826 338.976C904.642 338.976 903.65 339.248 902.85 339.792C902.082 340.336 901.698 341.056 901.698 341.952C901.698 342.816 901.986 343.52 902.562 344.064C903.138 344.608 904.066 345.056 905.346 345.408L909.186 346.416C913.282 347.44 915.33 349.808 915.33 353.52C915.33 355.824 914.514 357.568 912.882 358.752C911.25 359.904 909.122 360.48 906.498 360.48ZM930.021 360.24C927.813 360.24 926.037 359.616 924.693 358.368C923.349 357.12 922.677 355.296 922.677 352.896V339.792H917.589V336H922.677V329.328H926.805V336H933.717V339.792H926.805V352.368C926.805 353.872 927.125 354.928 927.765 355.536C928.405 356.144 929.413 356.448 930.789 356.448C932.005 356.448 932.981 356.288 933.717 355.968V359.664C932.565 360.048 931.333 360.24 930.021 360.24ZM943.075 328.752C942.531 329.296 941.843 329.568 941.011 329.568C940.179 329.568 939.475 329.296 938.899 328.752C938.323 328.176 938.035 327.472 938.035 326.64C938.035 325.84 938.323 325.152 938.899 324.576C939.475 324 940.179 323.712 941.011 323.712C941.843 323.712 942.531 324 943.075 324.576C943.619 325.152 943.891 325.84 943.891 326.64C943.891 327.472 943.619 328.176 943.075 328.752ZM938.899 360V336H943.027V360H938.899ZM960.984 360.48C957.496 360.48 954.6 359.296 952.296 356.928C950.024 354.56 948.888 351.584 948.888 348C948.888 344.384 949.992 341.408 952.2 339.072C954.44 336.704 957.4 335.52 961.08 335.52C964.792 335.52 967.704 336.832 969.816 339.456C971.928 342.08 972.856 345.296 972.6 349.104H953.064C953.128 351.28 953.928 353.104 955.464 354.576C957 356.016 958.856 356.736 961.032 356.736C964.296 356.736 966.616 355.392 967.992 352.704H972.216C971.608 354.944 970.312 356.8 968.328 358.272C966.344 359.744 963.896 360.48 960.984 360.48ZM965.688 340.896C964.376 339.744 962.792 339.168 960.936 339.168C959.08 339.168 957.416 339.728 955.944 340.848C954.504 341.968 953.608 343.632 953.256 345.84H968.232C967.848 343.664 967 342.016 965.688 340.896ZM979.81 349.344L978.994 339.552V325.92H983.17V339.552L982.354 349.344H979.81ZM983.554 359.328C982.882 360.032 982.05 360.384 981.058 360.384C980.066 360.384 979.218 360.032 978.514 359.328C977.842 358.624 977.506 357.776 977.506 356.784C977.506 355.824 977.858 354.992 978.562 354.288C979.266 353.552 980.098 353.184 981.058 353.184C982.018 353.184 982.85 353.552 983.554 354.288C984.258 354.992 984.61 355.824 984.61 356.784C984.61 357.776 984.258 358.624 983.554 359.328Z" fill="#8FF1EC"/>
<path d="M89.6279 92.5716C93.8848 90.9889 95.6284 89.1374 97.1171 84.6143C97.4099 83.7249 98.5901 83.7249 98.8828 84.6143C100.373 89.1374 102.115 90.9889 106.372 92.5716C107.209 92.8827 107.209 94.1374 106.372 94.4485C102.115 96.0312 100.372 97.8827 98.8828 102.407C98.5901 103.297 97.4099 103.297 97.1171 102.407C95.6269 97.8844 93.8848 96.0312 89.6279 94.4485C88.7907 94.1374 88.7907 92.8844 89.6279 92.5716Z" fill="#FF9260"/>
<path d="M891.453 87.1993C894.528 86.2452 895.787 85.129 896.862 82.4021C897.074 81.866 897.926 81.866 898.138 82.4021C899.214 85.129 900.472 86.2452 903.547 87.1993C904.151 87.3869 904.151 88.1433 903.547 88.3308C900.472 89.285 899.213 90.4012 898.138 93.1291C897.926 93.6652 897.074 93.6652 896.862 93.1291C895.786 90.4022 894.528 89.285 891.453 88.3308C890.849 88.1433 890.849 87.3879 891.453 87.1993Z" fill="#FFDDBD"/>
<path d="M1097.84 340.599C1103.51 338.837 1105.84 336.777 1107.82 331.742C1108.21 330.753 1109.79 330.753 1110.18 331.742C1112.16 336.777 1114.49 338.837 1120.16 340.599C1121.28 340.945 1121.28 342.341 1120.16 342.688C1114.49 344.449 1112.16 346.51 1110.18 351.546C1109.79 352.536 1108.21 352.536 1107.82 351.546C1105.84 346.512 1103.51 344.449 1097.84 342.688C1096.72 342.341 1096.72 340.947 1097.84 340.599Z" fill="#FFC0FF"/>
<path d="M1273.56 231.399C1277.34 230.225 1278.89 228.851 1280.22 225.495C1280.48 224.835 1281.52 224.835 1281.78 225.495C1283.11 228.851 1284.66 230.225 1288.44 231.399C1289.19 231.63 1289.19 232.561 1288.44 232.792C1284.66 233.966 1283.11 235.34 1281.78 238.697C1281.52 239.357 1280.48 239.357 1280.22 238.697C1278.89 235.341 1277.34 233.966 1273.56 232.792C1272.81 232.561 1272.81 231.631 1273.56 231.399Z" fill="#8FF1EC"/>
<path d="M-54.2529 532.271V291.378C-54.2529 257.099 -40.9057 224.873 -16.6697 200.637C7.56622 176.401 39.7925 163.048 74.0713 163.048C108.35 163.048 140.576 176.395 164.812 200.637C189.048 224.873 202.395 257.099 202.395 291.378V532.271H-54.2529Z" stroke="#FFDDBD" stroke-width="1.06575" stroke-miterlimit="10"/>
<path d="M74.0735 173.688C139.028 173.688 191.768 226.423 191.768 291.383V521.642H-43.6157V291.383C-43.6157 226.429 9.11916 173.688 74.0792 173.688H74.0735Z" stroke="#FFDDBD" stroke-width="1.06575" stroke-miterlimit="10"/>
<path d="M-42.6675 276.361H189.254" stroke="#FFDDBD" stroke-width="1.06575" stroke-miterlimit="10"/>
<path d="M-42.6675 344.065H189.254" stroke="#FFDDBD" stroke-width="1.06575" stroke-miterlimit="10"/>
<path d="M72.0371 174.275V497.886" stroke="#FFDDBD" stroke-width="1.25747" stroke-miterlimit="10"/>
<path d="M-41.8916 413.656H190.03" stroke="#FFDDBD" stroke-width="1.06575" stroke-miterlimit="10"/>
<path d="M309.541 432.926C307.263 433.603 304.957 433.93 302.69 433.93C292.884 433.93 283.749 427.896 280.163 418.271L223.903 320.199L138.519 315.942L136.252 350.3L89.3369 337.81L96.1882 291.486C98.7877 278.167 111.221 269.111 124.693 270.724L233.501 283.755C247.243 285.092 259.158 293.832 264.565 306.548L324.608 399.978C330.608 413.258 323.514 428.782 309.547 432.926H309.541Z" fill="#37353F"/>
<path d="M199.709 313.092L220.049 307.459L243.095 317.778L247.228 344.738L231.321 363.374L290.715 532.626L89.3223 533.55C89.3223 533.55 107.169 451.696 156.955 412.889L155.173 405.931L121.052 312.607L153.183 307.386L181.417 304.566L199.715 313.098L199.709 313.092Z" fill="#37353F"/>
<path d="M136.242 350.298L130.851 431.983C128.793 447.925 113.534 458.695 97.83 455.289C85.0297 452.515 76.1992 441.192 76.1992 428.499C76.1992 426.97 76.3289 425.42 76.5939 423.863L89.3266 337.803L136.242 350.293V350.298Z" fill="#37353F"/>
<path d="M312.884 381.74L240.897 483.167L264.051 520.265L331.441 447.586C340.807 437.481 341.783 422.182 333.77 410.972L312.884 381.74Z" fill="#37353F"/>
<path d="M159.244 409.833L221.077 404.847L226.216 468.585L166.862 473.371C165.491 473.481 164.288 472.458 164.177 471.087L159.238 409.833L159.244 409.833Z" fill="#FF9260"/>
<path d="M86.781 446.367C113.797 473.135 210.019 432.771 210.019 432.771L215.353 399.976L86.8374 410.131C86.8374 410.131 73.056 432.76 86.7867 446.367H86.781Z" fill="#37353F"/>
<path d="M121.047 407.424L195.446 402.704" stroke="black" stroke-width="0.603361" stroke-linecap="round" stroke-linejoin="round"/>
<path d="M209.039 255.925C210.163 255.908 210.999 250.891 210.907 244.719C210.814 238.548 209.828 233.558 208.703 233.575C207.579 233.592 206.743 238.609 206.836 244.78C206.928 250.952 207.915 255.942 209.039 255.925Z" fill="#FF5B00"/>
<path d="M136.298 209.135C136.997 232.542 156.243 250.947 179.289 250.254C202.335 249.554 220.453 230.016 219.753 206.614C219.054 183.207 206.542 165.073 176.763 165.496C153.711 165.828 135.599 185.734 136.298 209.135Z" fill="black"/>
<path d="M160.6 277.833L183.042 309.89L195.69 282.959C195.69 282.959 198.284 267.643 200.202 256.134C200.213 256.067 200.224 255.993 200.241 255.926C201.352 249.244 202.237 243.892 202.232 243.656L190.012 239.15L189.29 238.885L168.573 231.25L160.6 277.838V277.833Z" fill="#8E410F"/>
<path d="M170.738 235.411C170.738 235.411 178.565 246.317 185.095 250.619C189.296 253.382 197.557 255.536 200.229 255.931C201.34 249.249 202.226 243.898 202.22 243.661L190 239.155L189.279 238.89L170.732 235.417L170.738 235.411Z" fill="#72310B"/>
<path d="M159.327 224.253C159.327 224.253 171.817 248.619 197.378 248.444C222.934 248.264 226.227 232.39 220.171 215.789C219.455 213.833 218.902 212.13 218.468 210.624C217.746 208.098 217.363 206.13 217.182 204.512C216.534 198.85 218.231 197.3 215.823 190.567C208.143 169.714 188.824 171.152 188.824 171.152C133.168 174.829 159.322 224.253 159.322 224.253H159.327Z" fill="#8E410F"/>
<path d="M181.873 209.464C181.873 209.464 182.781 212.153 187.027 213.428C187.591 213.603 188.217 213.749 188.91 213.856C189.463 213.947 190.055 214.014 190.698 214.054C196.483 214.403 199.331 212.052 199.331 212.052C199.331 212.052 197.064 206.52 191.397 205.776C191.166 205.742 190.923 205.719 190.681 205.703C188.442 205.573 186.672 206.035 185.318 206.684C182.956 207.806 181.873 209.469 181.873 209.469V209.464Z" fill="#FF5B00"/>
<path d="M149.062 215.246C146.282 220.671 151.007 230.015 157.96 233.567C164.912 237.125 172.739 236.234 175.514 230.81C178.294 225.385 173.625 215.421 166.677 211.863C159.725 208.305 151.841 209.822 149.067 215.246H149.062Z" fill="#8F410F"/>
<path d="M181.873 211.012C181.873 211.012 182.798 213.408 187.123 214.53C187.698 214.683 188.335 214.812 189.046 214.908C189.61 214.987 190.213 215.049 190.873 215.077C196.777 215.376 199.686 213.278 199.686 213.278C199.686 213.278 197.386 208.356 191.6 207.702C191.363 207.668 191.115 207.651 190.867 207.64C188.583 207.527 186.773 207.944 185.392 208.525C182.978 209.529 181.873 211.017 181.873 211.017V211.012Z" fill="white"/>
<path d="M184.719 210.842C184.741 212.483 185.722 213.887 187.127 214.525C187.668 214.784 188.283 214.919 188.92 214.908C188.959 214.908 189.004 214.908 189.049 214.902C191.271 214.807 193.025 212.957 192.991 210.718C192.974 209.512 192.438 208.435 191.604 207.702C191.367 207.668 191.119 207.651 190.871 207.64C188.587 207.527 186.777 207.944 185.395 208.525C184.961 209.196 184.707 209.997 184.724 210.848L184.719 210.842Z" fill="black"/>
<path d="M199.317 213.059C199.317 213.059 194.084 202.17 181.729 210.634" stroke="black" stroke-width="1.16161" stroke-linecap="round" stroke-linejoin="round"/>
<path d="M206.726 210.239C206.726 210.239 208.079 210.989 212.269 210.606C212.833 210.561 213.43 210.471 214.09 210.335C214.609 210.223 215.167 210.087 215.759 209.907C216.656 209.636 217.456 209.332 218.167 209.01C217.445 206.484 217.062 204.516 216.881 202.898C216.018 202.841 215.071 202.909 214.067 203.146C213.848 203.191 213.628 203.253 213.402 203.321C211.338 203.946 209.866 204.888 208.829 205.841C207.008 207.499 206.726 210.245 206.726 210.245V210.239Z" fill="#FF5B00"/>
<path d="M206.798 210.771C206.798 210.771 208.382 212.604 212.572 212.22C213.136 212.175 213.734 212.085 214.393 211.95C214.912 211.837 215.47 211.701 216.063 211.521C216.959 211.25 217.76 210.946 218.47 210.624C217.749 208.098 217.365 206.13 217.185 204.512C216.322 204.455 215.375 204.523 214.371 204.76C214.151 204.805 213.931 204.867 213.705 204.935C211.642 205.561 210.17 206.502 209.132 207.455C207.311 209.113 206.803 210.777 206.803 210.777L206.798 210.771Z" fill="white"/>
<path d="M208.22 210.658C208.992 211.994 210.436 212.699 211.885 212.586C212.449 212.552 213.013 212.383 213.537 212.084C213.571 212.068 213.611 212.045 213.639 212.022C215.421 210.923 216.018 208.605 214.964 206.778C214.394 205.797 213.464 205.154 212.443 204.929C212.235 205.013 212.026 205.109 211.812 205.211C209.883 206.164 208.586 207.337 207.712 208.442C207.662 209.197 207.819 209.964 208.22 210.663V210.658Z" fill="black"/>
<path d="M217.022 204.381C214.073 204.099 210.323 205.261 206.539 210.493" stroke="black" stroke-width="1.09394" stroke-linecap="round" stroke-linejoin="round"/>
<path d="M168.073 255.927C169.197 255.91 170.033 250.893 169.941 244.721C169.848 238.55 168.862 233.56 167.738 233.577C166.613 233.594 165.777 238.611 165.87 244.782C165.963 250.954 166.949 255.944 168.073 255.927Z" fill="#FF5B00"/>
<path d="M197.446 171.074C198.951 171.271 200.451 171.57 201.833 171.925C203.502 172.359 205.132 173.149 206.271 174.451C207.404 175.754 207.968 177.626 207.421 179.267C206.096 183.226 196.515 183.682 193.07 184.545C191.593 184.917 190.014 185.351 189.055 186.53C187.989 187.838 187.989 189.71 188.237 191.379C188.486 193.048 188.937 194.751 188.581 196.404C188.159 198.394 186.602 200.001 184.803 200.949C183.005 201.896 180.963 202.279 178.95 202.584C176.836 202.905 174.512 203.255 173.097 204.856C171.958 206.142 171.665 208.003 171.924 209.7C172.415 212.931 174.005 217.442 178.02 217.307C176.875 217.346 175.742 217.713 174.591 217.623C173.385 217.521 172.206 217.205 171.095 216.721C168.823 215.722 167.39 213.907 165.4 212.587C161.374 209.926 155.752 209.847 151.664 212.407C151.37 212.593 151.072 212.79 150.733 212.847C150.096 212.948 149.47 212.503 149.16 211.933C148.85 211.364 148.788 210.704 148.731 210.055C148.647 209.085 148.574 208.054 149.042 207.202C149.199 206.915 149.414 206.655 149.555 206.362C150.119 205.189 149.459 203.847 149.425 202.635C149.391 201.445 149.211 200.283 149.07 199.076C148.777 196.511 148.777 193.838 149.78 191.413C150.293 190.173 151.049 189.051 151.855 187.979C155.819 182.69 161.137 178.427 167.159 175.703C170.887 174.017 174.856 172.923 178.871 172.156C183.783 171.22 188.79 170.764 193.792 170.809C194.959 170.82 196.2 170.916 197.44 171.079L197.446 171.074Z" fill="black"/>
<path d="M197.832 229.559C197.658 229.587 198.65 234.662 202.811 235.305C208.947 236.252 211.343 230.377 211.343 230.377C211.343 230.377 206.759 228.031 197.832 229.559Z" fill="#FF27E7"/>
<path d="M211.341 230.38C211.516 230.335 210.089 227.279 205.815 226.952C201.546 226.63 197.312 229.54 197.312 229.54C197.312 229.54 202.561 232.624 211.341 230.374V230.38Z" fill="#801478"/>
<path d="M212.334 229.984C210.992 230.142 209.667 230.39 208.325 230.581C207.141 230.751 205.911 230.891 204.716 230.824C202.799 230.711 200.881 230.198 199.054 229.645C198.135 229.369 197.188 229.11 196.314 228.709C196.105 228.613 195.936 228.89 196.134 229.025C197.718 230.079 199.601 230.649 201.44 231.066C202.387 231.281 203.346 231.455 204.316 231.534C205.421 231.625 206.526 231.512 207.614 231.354C209.238 231.117 210.806 230.751 212.368 230.243C212.498 230.198 212.486 229.972 212.334 229.989V229.984Z" fill="black"/>
<path d="M169.239 223.622C167.474 219.026 162.117 217.301 157.595 217.295C156.845 217.295 156.095 217.346 155.351 217.425C154.956 217.47 154.567 217.526 154.178 217.605C153.789 217.684 153.473 217.814 153.118 217.972C152.847 218.09 153.022 218.451 153.253 218.473C153.563 218.502 153.851 218.535 154.167 218.513C154.482 218.49 154.821 218.462 155.153 218.44C155.791 218.395 156.428 218.349 157.065 218.338C158.311 218.316 159.563 218.378 160.792 218.614C162.862 219.009 164.897 219.832 166.538 221.174C167.435 221.908 168.298 222.787 168.963 223.735C169.053 223.864 169.307 223.791 169.239 223.616V223.622Z" fill="black"/>
<path d="M162.13 218.488C161.763 218.68 161.538 219.046 161.312 219.385C161.087 219.723 160.873 220.084 160.681 220.456C160.286 221.234 159.999 222.069 159.936 222.943C159.824 224.522 160.467 226.202 161.78 227.133C162.147 227.392 162.468 226.856 162.226 226.557C161.341 225.469 160.765 224.189 160.895 222.762C160.963 222.035 161.177 221.319 161.453 220.648C161.606 220.276 161.786 219.915 161.978 219.56C162.141 219.255 162.31 218.962 162.339 218.612C162.35 218.5 162.209 218.443 162.119 218.488H162.13Z" fill="black"/>
<path d="M199.6 205.814C197.497 203.852 195.072 202.448 192.179 202.093C188.559 201.647 184.64 202.617 181.409 204.224C180.642 204.608 181.183 205.781 181.979 205.578C185.283 204.732 188.548 203.565 192.016 203.801C194.604 203.976 196.967 205.036 199.081 206.497C199.487 206.773 199.961 206.153 199.606 205.82L199.6 205.814Z" fill="black"/>
<path d="M209.062 202.651C209.733 202.341 210.472 202.206 211.182 202.008C211.825 201.834 212.479 201.687 213.139 201.58C214.329 201.382 215.575 201.275 216.731 201.117C217.177 201.061 217.56 200.779 217.56 200.288C217.56 199.832 217.182 199.471 216.731 199.46C215.366 199.437 214.03 199.663 212.722 200.057C212.028 200.266 211.346 200.52 210.681 200.807C209.97 201.117 209.339 201.585 208.69 202.003C208.278 202.268 208.634 202.843 209.068 202.646L209.062 202.651Z" fill="black"/>
<path d="M206.592 203.575C205.014 204.162 203.869 205.724 203.373 207.286C203.119 208.087 203.034 208.932 203.158 209.767C203.277 210.545 203.604 211.278 203.999 211.955C204.822 213.37 205.944 214.577 206.835 215.953C207.664 217.233 208.256 218.738 207.664 220.238C207.337 221.067 206.327 221.507 205.515 221.671C204.32 221.913 203.13 221.586 202.047 221.09C201.703 220.932 201.461 221.366 201.754 221.592C203.316 222.787 205.662 222.951 207.32 221.84C208.075 221.338 208.51 220.639 208.673 219.748C208.82 218.964 208.752 218.163 208.504 217.408C207.98 215.817 206.852 214.52 205.848 213.212C204.873 211.938 203.835 210.534 203.869 208.853C203.886 207.867 204.196 206.919 204.686 206.068C205.211 205.16 205.933 204.455 206.711 203.773C206.795 203.699 206.711 203.536 206.598 203.575H206.592Z" fill="black"/>
<path d="M181.346 175.685C202.95 175.685 220.463 164.63 220.463 150.993C220.463 137.355 202.95 126.3 181.346 126.3C159.743 126.3 142.229 137.355 142.229 150.993C142.229 164.63 159.743 175.685 181.346 175.685Z" fill="black"/>
<path d="M181.455 144.389C196.363 144.389 208.449 133.334 208.449 119.697C208.449 106.059 196.363 95.0039 181.455 95.0039C166.547 95.0039 154.462 106.059 154.462 119.697C154.462 133.334 166.547 144.389 181.455 144.389Z" fill="black"/>
<path d="M163.367 324.737L212.808 372.916L215.357 409.388L159.583 411.768L163.367 324.737Z" fill="#37353F"/>
<path d="M161.624 323.022L212.797 372.915L211.359 392.336" stroke="black" stroke-width="0.603361" stroke-linecap="round" stroke-linejoin="round"/>
<path d="M212.34 281.222L227.515 293.221L221.712 310.065L242.429 311.198L208.455 368.675" stroke="black" stroke-width="0.603361" stroke-linecap="round" stroke-linejoin="round"/>
<path d="M134.954 272.312L127.9 290.329L141.405 301.945L124.094 313.369L182.417 345.866" stroke="black" stroke-width="0.603361" stroke-linecap="round" stroke-linejoin="round"/>
<path d="M128.392 332.698L140.109 364.738" stroke="black" stroke-width="0.603361" stroke-linecap="round" stroke-linejoin="round"/>
<path d="M238.698 354.743L247.839 342.529C250.083 339.529 250.952 335.717 250.23 332.041L247.343 317.346" stroke="black" stroke-width="0.603361" stroke-linecap="round" stroke-linejoin="round"/>
<path d="M206.525 380.157C208.309 380.157 209.756 378.711 209.756 376.926C209.756 375.142 208.309 373.695 206.525 373.695C204.741 373.695 203.294 375.142 203.294 376.926C203.294 378.711 204.741 380.157 206.525 380.157Z" fill="black"/>
<path d="M206.525 395.568C208.309 395.568 209.756 394.121 209.756 392.337C209.756 390.552 208.309 389.105 206.525 389.105C204.741 389.105 203.294 390.552 203.294 392.337C203.294 394.121 204.741 395.568 206.525 395.568Z" fill="black"/>
<path d="M183.052 379.217C184.837 379.217 186.283 377.77 186.283 375.986C186.283 374.201 184.837 372.755 183.052 372.755C181.268 372.755 179.821 374.201 179.821 375.986C179.821 377.77 181.268 379.217 183.052 379.217Z" fill="black"/>
<path d="M183.052 394.637C184.837 394.637 186.283 393.19 186.283 391.406C186.283 389.621 184.837 388.175 183.052 388.175C181.268 388.175 179.821 389.621 179.821 391.406C179.821 393.19 181.268 394.637 183.052 394.637Z" fill="black"/>
<path d="M202.417 532.27L206.533 508.051" stroke="black" stroke-width="0.603361" stroke-linecap="round" stroke-linejoin="round"/>
<path d="M118.632 455.52C118.632 455.52 139.823 454.217 153.249 450.851C166.675 447.484 172.314 445.883 172.314 445.883" stroke="black" stroke-width="0.603361" stroke-linecap="round" stroke-linejoin="round"/>
<path d="M255.4 459.164L262.55 457.404L283.527 507.81L276.659 513.551L255.4 459.164Z" fill="black"/>
<path d="M117.508 461.829L124.094 465.134L107.29 517.085L98.3359 516.983L117.508 461.829Z" fill="black"/>
<path d="M315.484 400.238C311.875 397.199 310.82 394.847 310.944 390.133C310.967 389.203 309.816 388.769 309.219 389.479C306.179 393.088 303.828 394.143 299.114 394.019C298.183 393.996 297.749 395.146 298.46 395.744C302.069 398.783 303.123 401.135 302.999 405.849C302.976 406.779 304.127 407.214 304.725 406.503C307.764 402.894 310.115 401.84 314.829 401.964C315.76 401.986 316.194 400.836 315.484 400.238Z" fill="white"/>
<path d="M197.816 270.377L183.042 309.894L162.201 268.482C162.201 268.482 156.804 256.827 148.013 257.109C139.222 257.39 136.239 261.8 136.239 261.8L151.876 273.986L136.239 272.114L150.049 312.325L197.816 357.684L215.347 310.706L212.336 281.226C212.336 281.226 213.684 272.655 220.061 272.875L226.439 273.095C226.439 273.095 217.642 257.216 198.724 270.546" fill="#FFDDBD"/>
<path d="M169.096 282.964C169.096 282.964 159.589 274.737 150.054 272.561" stroke="black" stroke-width="0.603361" stroke-linecap="round" stroke-linejoin="round"/>
<path d="M191.234 287.989C191.234 287.989 204.283 276.435 216.209 274.056" stroke="black" stroke-width="0.603361" stroke-linecap="round" stroke-linejoin="round"/>
<path d="M166.285 291.219C167.175 291.219 167.897 290.497 167.897 289.606C167.897 288.715 167.175 287.993 166.285 287.993C165.394 287.993 164.672 288.715 164.672 289.606C164.672 290.497 165.394 291.219 166.285 291.219Z" fill="#FF9260"/>
<path d="M170.05 298.183C170.941 298.183 171.663 297.461 171.663 296.571C171.663 295.68 170.941 294.958 170.05 294.958C169.16 294.958 168.438 295.68 168.438 296.571C168.438 297.461 169.16 298.183 170.05 298.183Z" fill="#FF9260"/>
<path d="M173.931 304.559C174.822 304.559 175.544 303.837 175.544 302.947C175.544 302.056 174.822 301.334 173.931 301.334C173.04 301.334 172.318 302.056 172.318 302.947C172.318 303.837 173.04 304.559 173.931 304.559Z" fill="#FF9260"/>
<path d="M177.712 312.314C178.603 312.314 179.325 311.592 179.325 310.702C179.325 309.811 178.603 309.089 177.712 309.089C176.822 309.089 176.1 309.811 176.1 310.702C176.1 311.592 176.822 312.314 177.712 312.314Z" fill="#FF9260"/>
<path d="M181.348 321.032C182.239 321.032 182.961 320.31 182.961 319.419C182.961 318.529 182.239 317.807 181.348 317.807C180.457 317.807 179.735 318.529 179.735 319.419C179.735 320.31 180.457 321.032 181.348 321.032Z" fill="#FF9260"/>
<path d="M184.655 329.582C185.545 329.582 186.267 328.86 186.267 327.969C186.267 327.079 185.545 326.356 184.655 326.356C183.764 326.356 183.042 327.079 183.042 327.969C183.042 328.86 183.764 329.582 184.655 329.582Z" fill="#FF9260"/>
<path d="M182.424 308.648L197.824 357.679" stroke="#FF9260" stroke-width="0.3045" stroke-linecap="round" stroke-linejoin="round"/>
<path d="M204.63 433.815C204.63 433.815 232.463 427.872 237.922 431.176C241.587 433.398 248.827 445.882 250.062 451.51C250.372 452.937 245.354 467.507 250.767 462.692C253.925 459.884 257.026 454.527 255.972 450.111C255.087 446.418 252.397 439.206 252.397 439.206C252.397 439.206 259.282 447.743 260.066 450.839C260.85 453.935 261.583 461.457 262.908 464.705C264.233 467.953 266.652 468.19 266.917 465.912C267.182 463.633 266.72 459.917 266.72 459.917C266.72 459.917 268.259 469.594 271.586 468.974C274.913 468.353 271.795 453.371 271.795 453.371C271.795 453.371 275.477 459.072 277.456 460.374C279.435 461.677 283.619 463.024 280.095 457.656C276.571 452.288 262.784 424.511 260.562 420.502C258.34 416.492 251.517 400.636 240.724 399.142C229.926 397.647 203.429 400.912 203.429 400.912L204.641 433.809L204.63 433.815Z" fill="#8E410F"/>
<path d="M258.727 424.285C258.727 424.285 268.566 441.439 269.88 445.944C271.194 450.444 271.888 453.872 271.888 453.872" stroke="black" stroke-width="0.603361" stroke-linecap="round" stroke-linejoin="round"/>
<path d="M254.715 430.065L263.641 445.747C264.825 447.828 265.575 450.134 265.852 452.514L266.838 461.17" stroke="black" stroke-width="0.603361" stroke-linecap="round" stroke-linejoin="round"/>
<path d="M249.397 434.096L253.333 440.406" stroke="black" stroke-width="0.603361" stroke-linecap="round" stroke-linejoin="round"/>
<path d="M237.04 423.468C236.419 427.838 236.814 430.234 236.814 430.234" stroke="black" stroke-width="0.603361" stroke-linecap="round" stroke-linejoin="round"/>
<path d="M251.529 462.412C252.667 461 253.241 459.576 252.811 459.23C252.382 458.884 251.112 459.748 249.975 461.159C248.838 462.571 248.264 463.995 248.693 464.341C249.122 464.687 250.392 463.823 251.529 462.412Z" fill="#FFDDBD"/>
<path d="M266.02 467.764C266.571 467.751 266.982 466.271 266.938 464.459C266.894 462.647 266.412 461.189 265.861 461.202C265.31 461.216 264.899 462.695 264.943 464.507C264.987 466.319 265.469 467.777 266.02 467.764Z" fill="#FFDDBD"/>
<path d="M281.742 461.682C282.226 461.418 281.912 459.914 281.042 458.324C280.171 456.734 279.074 455.66 278.59 455.925C278.107 456.19 278.42 457.693 279.291 459.283C280.161 460.873 281.259 461.947 281.742 461.682Z" fill="#FFDDBD"/>
<path d="M271.987 469.39C272.687 469.373 273.216 467.731 273.167 465.723C273.118 463.715 272.511 462.101 271.81 462.118C271.11 462.135 270.581 463.776 270.63 465.784C270.679 467.793 271.286 469.407 271.987 469.39Z" fill="#FFDDBD"/>
<path d="M223.399 391.368L165.781 396.015C163.142 396.229 161.304 400.137 161.676 404.732L168.758 404.163L177.668 514.584C177.944 518.001 179.754 520.64 181.716 520.482L235.613 516.134C237.575 515.976 238.94 513.078 238.664 509.667L229.884 400.813C229.444 395.344 226.54 391.115 223.399 391.368Z" fill="#FFDDBD"/>
<mask id="mask0_1625_14129" style="mask-type:luminance" maskUnits="userSpaceOnUse" x="161" y="390" width="78" height="131">
<path d="M223.404 390.969L165.786 395.615C163.147 395.83 161.309 399.737 161.681 404.333L168.763 403.763L177.673 514.184C177.949 517.601 179.759 520.24 181.721 520.083L235.618 515.735C237.58 515.577 238.945 512.679 238.668 509.267L229.889 400.414C229.449 394.944 226.545 390.715 223.404 390.969Z" fill="white"/>
</mask>
<g mask="url(#mask0_1625_14129)">
<path d="M181.183 412.054C178.262 411.033 177.067 409.838 176.046 406.917C175.843 406.342 175.037 406.342 174.834 406.917C173.813 409.838 172.618 411.033 169.697 412.054C169.122 412.257 169.122 413.063 169.697 413.266C172.618 414.287 173.813 415.482 174.834 418.403C175.037 418.978 175.843 418.978 176.046 418.403C177.067 415.482 178.262 414.287 181.183 413.266C181.759 413.063 181.759 412.257 181.183 412.054Z" fill="#FFEAD7"/>
<path d="M189.994 407.344V398.282C189.994 390.411 183.814 383.83 175.947 383.565C167.681 383.289 160.892 389.903 160.892 398.108V407.344C160.892 408.489 159.961 409.419 158.816 409.419V411.494L158.952 411.477C161.625 411.212 164.224 410.412 166.542 409.053C170.207 406.904 172.209 404.006 173.996 398.908C174.476 397.544 176.415 397.544 176.889 398.908C178.671 404.006 180.678 406.91 184.344 409.053C186.661 410.412 189.261 411.212 191.934 411.477L192.069 411.494V409.419C190.924 409.419 189.994 408.489 189.994 407.344Z" fill="#FFEAD7"/>
<path d="M214.413 412.054C211.492 411.033 210.296 409.838 209.276 406.917C209.073 406.342 208.267 406.342 208.064 406.917C207.043 409.838 205.847 411.033 202.926 412.054C202.351 412.257 202.351 413.063 202.926 413.266C205.847 414.287 207.043 415.482 208.064 418.403C208.267 418.978 209.073 418.978 209.276 418.403C210.296 415.482 211.492 414.287 214.413 413.266C214.988 413.063 214.988 412.257 214.413 412.054Z" fill="#FFEAD7"/>
<path d="M223.223 407.344V398.282C223.223 390.411 217.043 383.83 209.177 383.565C200.91 383.289 194.121 389.903 194.121 398.108V407.344C194.121 408.489 193.191 409.419 192.046 409.419V411.494L192.181 411.477C194.854 411.212 197.454 410.412 199.771 409.053C203.436 406.904 205.438 404.006 207.226 398.908C207.705 397.544 209.645 397.544 210.119 398.908C211.9 404.006 213.908 406.91 217.573 409.053C219.891 410.412 222.49 411.212 225.163 411.477L225.298 411.494V409.419C224.154 409.419 223.223 408.489 223.223 407.344Z" fill="#FFEAD7"/>
<path d="M247.677 412.054C244.756 411.033 243.56 409.838 242.54 406.917C242.337 406.342 241.53 406.342 241.327 406.917C240.307 409.838 239.111 411.033 236.19 412.054C235.615 412.257 235.615 413.063 236.19 413.266C239.111 414.287 240.307 415.482 241.327 418.403C241.53 418.978 242.337 418.978 242.54 418.403C243.56 415.482 244.756 414.287 247.677 413.266C248.252 413.063 248.252 412.257 247.677 412.054Z" fill="#FFEAD7"/>
<path d="M256.487 407.344V398.282C256.487 390.411 250.307 383.83 242.441 383.565C234.174 383.289 227.385 389.903 227.385 398.108V407.344C227.385 408.489 226.454 409.419 225.31 409.419V411.494L225.445 411.477C228.118 411.212 230.717 410.412 233.035 409.053C236.7 406.904 238.702 404.006 240.489 398.908C240.969 397.544 242.909 397.544 243.382 398.908C245.164 404.006 247.172 406.91 250.837 409.053C253.154 410.412 255.754 411.212 258.427 411.477L258.562 411.494V409.419C257.417 409.419 256.487 408.489 256.487 407.344Z" fill="#FFEAD7"/>
<path d="M236.19 427.939C239.111 428.96 240.307 430.155 241.327 433.076C241.53 433.651 242.337 433.651 242.54 433.076C243.56 430.155 244.756 428.96 247.677 427.939C248.252 427.736 248.252 426.93 247.677 426.727C244.756 425.706 243.56 424.511 242.54 421.59C242.337 421.014 241.53 421.014 241.327 421.59C240.307 424.511 239.111 425.706 236.19 426.727C235.615 426.93 235.615 427.736 236.19 427.939Z" fill="#FFEAD7"/>
<path d="M227.385 432.646V441.708C227.385 449.58 233.565 456.16 241.431 456.426C249.698 456.702 256.487 450.087 256.487 441.883V432.646C256.487 431.502 257.417 430.571 258.562 430.571V428.496L258.427 428.513C255.754 428.778 253.154 429.579 250.837 430.938C247.172 433.086 245.17 435.985 243.382 441.082C242.903 442.447 240.963 442.447 240.489 441.082C238.708 435.985 236.7 433.081 233.035 430.938C230.717 429.579 228.118 428.778 225.445 428.513L225.31 428.496V430.571C226.454 430.571 227.385 431.502 227.385 432.646Z" fill="#FFEAD7"/>
<path d="M202.944 427.94C205.865 428.961 207.06 430.156 208.081 433.077C208.284 433.652 209.09 433.652 209.293 433.077C210.314 430.156 211.51 428.961 214.431 427.94C215.006 427.737 215.006 426.931 214.431 426.728C211.51 425.707 210.314 424.511 209.293 421.591C209.09 421.015 208.284 421.015 208.081 421.591C207.06 424.511 205.865 425.707 202.944 426.728C202.369 426.931 202.369 427.737 202.944 427.94Z" fill="#FFEAD7"/>
<path d="M194.139 432.647V441.709C194.139 449.581 200.319 456.161 208.185 456.427C216.452 456.703 223.241 450.088 223.241 441.884V432.647C223.241 431.503 224.171 430.572 225.316 430.572V428.497L225.181 428.514C222.508 428.779 219.908 429.58 217.591 430.939C213.925 433.087 211.924 435.986 210.136 441.083C209.657 442.448 207.717 442.448 207.243 441.083C205.462 435.986 203.454 433.081 199.789 430.939C197.471 429.58 194.872 428.779 192.199 428.514L192.063 428.497V430.572C193.208 430.572 194.139 431.503 194.139 432.647Z" fill="#FFEAD7"/>
<path d="M169.716 427.94C172.636 428.961 173.832 430.156 174.853 433.077C175.056 433.652 175.862 433.652 176.065 433.077C177.086 430.156 178.281 428.961 181.202 427.94C181.777 427.737 181.777 426.931 181.202 426.728C178.281 425.707 177.086 424.511 176.065 421.591C175.862 421.015 175.056 421.015 174.853 421.591C173.832 424.511 172.636 425.707 169.716 426.728C169.14 426.931 169.14 427.737 169.716 427.94Z" fill="#FFEAD7"/>
<path d="M160.909 432.647V441.709C160.909 449.581 167.089 456.161 174.956 456.427C183.222 456.703 190.011 450.088 190.011 441.884V432.647C190.011 431.503 190.942 430.572 192.087 430.572V428.497L191.951 428.514C189.278 428.779 186.679 429.58 184.361 430.939C180.696 433.087 178.694 435.986 176.907 441.083C176.427 442.448 174.488 442.448 174.014 441.083C172.232 435.986 170.225 433.081 166.559 430.939C164.242 429.58 161.642 428.779 158.969 428.514L158.834 428.497V430.572C159.979 430.572 160.909 431.503 160.909 432.647Z" fill="#FFEAD7"/>
<path d="M181.183 480.101C178.262 479.08 177.067 477.885 176.046 474.964C175.843 474.388 175.037 474.388 174.834 474.964C173.813 477.885 172.618 479.08 169.697 480.101C169.122 480.304 169.122 481.11 169.697 481.313C172.618 482.334 173.813 483.529 174.834 486.45C175.037 487.025 175.843 487.025 176.046 486.45C177.067 483.529 178.262 482.334 181.183 481.313C181.759 481.11 181.759 480.304 181.183 480.101Z" fill="#FFEAD7"/>
<path d="M189.994 475.397V466.335C189.994 458.463 183.814 451.883 175.947 451.618C167.681 451.341 160.892 457.956 160.892 466.16V475.397C160.892 476.542 159.961 477.472 158.816 477.472V479.547L158.952 479.53C161.625 479.265 164.224 478.464 166.542 477.106C170.207 474.957 172.209 472.059 173.996 466.961C174.476 465.597 176.415 465.597 176.889 466.961C178.671 472.059 180.678 474.963 184.344 477.106C186.661 478.464 189.261 479.265 191.934 479.53L192.069 479.547V477.472C190.924 477.472 189.994 476.542 189.994 475.397Z" fill="#FFEAD7"/>
<path d="M214.413 480.101C211.492 479.08 210.296 477.885 209.276 474.964C209.073 474.388 208.267 474.388 208.064 474.964C207.043 477.885 205.847 479.08 202.926 480.101C202.351 480.304 202.351 481.11 202.926 481.313C205.847 482.334 207.043 483.529 208.064 486.45C208.267 487.025 209.073 487.025 209.276 486.45C210.296 483.529 211.492 482.334 214.413 481.313C214.988 481.11 214.988 480.304 214.413 480.101Z" fill="#FFEAD7"/>
<path d="M223.223 475.397V466.335C223.223 458.463 217.043 451.883 209.177 451.618C200.91 451.341 194.121 457.956 194.121 466.16V475.397C194.121 476.542 193.191 477.472 192.046 477.472V479.547L192.181 479.53C194.854 479.265 197.454 478.464 199.771 477.106C203.436 474.957 205.438 472.059 207.226 466.961C207.705 465.597 209.645 465.597 210.119 466.961C211.9 472.059 213.908 474.963 217.573 477.106C219.891 478.464 222.49 479.265 225.163 479.53L225.298 479.547V477.472C224.154 477.472 223.223 476.542 223.223 475.397Z" fill="#FFEAD7"/>
<path d="M247.677 480.101C244.756 479.08 243.56 477.885 242.54 474.964C242.337 474.388 241.53 474.388 241.327 474.964C240.307 477.885 239.111 479.08 236.19 480.101C235.615 480.304 235.615 481.11 236.19 481.313C239.111 482.334 240.307 483.529 241.327 486.45C241.53 487.025 242.337 487.025 242.54 486.45C243.56 483.529 244.756 482.334 247.677 481.313C248.252 481.11 248.252 480.304 247.677 480.101Z" fill="#FFEAD7"/>
<path d="M256.487 475.397V466.335C256.487 458.463 250.307 451.883 242.441 451.618C234.174 451.341 227.385 457.956 227.385 466.16V475.397C227.385 476.542 226.454 477.472 225.31 477.472V479.547L225.445 479.53C228.118 479.265 230.717 478.464 233.035 477.106C236.7 474.957 238.702 472.059 240.489 466.961C240.969 465.597 242.909 465.597 243.382 466.961C245.164 472.059 247.172 474.963 250.837 477.106C253.154 478.464 255.754 479.265 258.427 479.53L258.562 479.547V477.472C257.417 477.472 256.487 476.542 256.487 475.397Z" fill="#FFEAD7"/>
<path d="M236.19 495.991C239.111 497.011 240.307 498.207 241.327 501.128C241.53 501.703 242.337 501.703 242.54 501.128C243.56 498.207 244.756 497.011 247.677 495.991C248.252 495.788 248.252 494.981 247.677 494.778C244.756 493.758 243.56 492.562 242.54 489.641C242.337 489.066 241.53 489.066 241.327 489.641C240.307 492.562 239.111 493.758 236.19 494.778C235.615 494.981 235.615 495.788 236.19 495.991Z" fill="#FFEAD7"/>
<path d="M227.385 500.694V509.756C227.385 517.628 233.565 524.208 241.431 524.473C249.698 524.75 256.487 518.135 256.487 509.931V500.694C256.487 499.549 257.417 498.619 258.562 498.619V496.544L258.427 496.561C255.754 496.826 253.154 497.627 250.837 498.986C247.172 501.134 245.17 504.032 243.382 509.13C242.903 510.495 240.963 510.495 240.489 509.13C238.708 504.032 236.7 501.128 233.035 498.986C230.717 497.627 228.118 496.826 225.445 496.561L225.31 496.544V498.619C226.454 498.619 227.385 499.549 227.385 500.694Z" fill="#FFEAD7"/>
<path d="M202.944 495.991C205.865 497.011 207.06 498.207 208.081 501.128C208.284 501.703 209.09 501.703 209.293 501.128C210.314 498.207 211.51 497.011 214.431 495.991C215.006 495.788 215.006 494.981 214.431 494.778C211.51 493.758 210.314 492.562 209.293 489.641C209.09 489.066 208.284 489.066 208.081 489.641C207.06 492.562 205.865 493.758 202.944 494.778C202.369 494.981 202.369 495.788 202.944 495.991Z" fill="#FFEAD7"/>
<path d="M194.139 500.694V509.756C194.139 517.628 200.319 524.208 208.185 524.473C216.452 524.75 223.241 518.135 223.241 509.931V500.694C223.241 499.549 224.171 498.619 225.316 498.619V496.544L225.181 496.561C222.508 496.826 219.908 497.627 217.591 498.986C213.925 501.134 211.924 504.032 210.136 509.13C209.657 510.495 207.717 510.495 207.243 509.13C205.462 504.032 203.454 501.128 199.789 498.986C197.471 497.627 194.872 496.826 192.199 496.561L192.063 496.544V498.619C193.208 498.619 194.139 499.549 194.139 500.694Z" fill="#FFEAD7"/>
<path d="M169.716 495.991C172.636 497.011 173.832 498.207 174.853 501.128C175.056 501.703 175.862 501.703 176.065 501.128C177.086 498.207 178.281 497.011 181.202 495.991C181.777 495.788 181.777 494.981 181.202 494.778C178.281 493.758 177.086 492.562 176.065 489.641C175.862 489.066 175.056 489.066 174.853 489.641C173.832 492.562 172.636 493.758 169.716 494.778C169.14 494.981 169.14 495.788 169.716 495.991Z" fill="#FFEAD7"/>
<path d="M160.909 500.694V509.756C160.909 517.628 167.089 524.208 174.956 524.473C183.222 524.75 190.011 518.135 190.011 509.931V500.694C190.011 499.549 190.942 498.619 192.087 498.619V496.544L191.951 496.561C189.278 496.826 186.679 497.627 184.361 498.986C180.696 501.134 178.694 504.032 176.907 509.13C176.427 510.495 174.488 510.495 174.014 509.13C172.232 504.032 170.225 501.128 166.559 498.986C164.242 497.627 161.642 496.826 158.969 496.561L158.834 496.544V498.619C159.979 498.619 160.909 499.549 160.909 500.694Z" fill="#FFEAD7"/>
</g>
<path d="M106.694 220.919C102.013 220.333 99.8482 218.934 97.3896 214.908C96.9047 214.119 95.7036 214.372 95.5852 215.297C94.9987 219.977 93.6003 222.143 89.5741 224.601C88.7847 225.086 89.0384 226.287 89.9632 226.406C94.6435 226.992 96.8088 228.391 99.2674 232.417C99.7523 233.206 100.953 232.953 101.072 232.028C101.658 227.347 103.057 225.182 107.083 222.724C107.872 222.239 107.619 221.038 106.694 220.919Z" fill="#FFDDBD"/>
<path d="M396.978 472.175C396.978 472.175 382.83 398.396 381.944 389.424C381.059 380.458 382.694 368.51 391.186 367.461C399.673 366.412 403.496 375.631 405.769 391.578C408.041 407.525 417.864 469.22 417.864 469.22" fill="#A7B964"/>
<path d="M392.929 377.516L405.329 471.911" stroke="#365650" stroke-width="0.738694" stroke-miterlimit="10" stroke-linecap="round"/>
<path d="M405.625 487.554L387.773 413.002L366.672 418.624L387.462 490.96" fill="#808F3C"/>
<path d="M395.485 489.955C395.513 489.583 377.768 415.668 377.768 415.668" stroke="#365650" stroke-width="0.738694" stroke-miterlimit="10" stroke-linecap="round"/>
<path d="M405.361 487.616C405.389 487.244 387.644 413.329 387.644 413.329" stroke="#496836" stroke-width="0.597722" stroke-linejoin="round"/>
<path d="M366.666 418.624C366.666 418.624 359.415 430.285 357.593 433.516C355.778 436.747 353.776 445.313 359.962 445.961C366.148 446.61 372.903 441.253 379.083 429.231C382.861 421.878 387.767 413.002 387.767 413.002" fill="#A7B964"/>
<path d="M376.988 415.873L363.308 438.023" stroke="#365650" stroke-width="0.738694" stroke-miterlimit="10" stroke-linecap="round"/>
<path d="M374.444 382.765C382.457 414.782 389.19 447.572 394.609 480.881" stroke="#365650" stroke-width="0.738694" stroke-miterlimit="10" stroke-linecap="round"/>
<path d="M380.375 371.842C380.312 370.264 379.732 368.882 377.95 369.124C376.969 369.26 376.354 370.168 375.92 370.974C375.175 372.361 374.69 373.878 374.482 375.44C374.358 374.075 374.228 372.711 374.025 371.357C373.833 370.1 373.557 368.814 372.835 367.771C371.251 365.47 368.386 367.529 368.099 369.113C367.743 371.059 369.069 374.307 369.858 376.122C369.266 375.434 368.674 374.741 368.087 374.053C367.208 373.027 366.153 371.916 364.806 371.91C364.061 371.91 363.283 372.339 363.063 373.049C362.973 373.354 362.956 374.459 362.99 374.78C363.441 378.806 367.275 381.034 370.602 382.528C371.724 383.036 372.959 383.724 374.194 383.87C375.429 384.017 376.021 382.787 376.534 381.874C377.724 379.742 379.089 377.656 379.867 375.322C380.132 374.527 380.42 373.117 380.369 371.842H380.375Z" fill="#FF926C"/>
<path d="M374.988 380.166C374.582 380.183 374.187 380.262 373.798 380.375C372.829 380.657 371.926 381.175 371.238 381.914C371.12 382.038 370.985 382.258 370.877 382.438C370.787 382.596 370.849 382.799 371.013 382.878C371.684 383.2 373.342 383.961 374.306 384.074C375.541 384.22 376.133 382.991 376.646 382.077C376.832 381.739 377.029 381.401 377.221 381.062C377.311 380.905 377.249 380.702 377.08 380.617C376.437 380.29 375.71 380.121 374.988 380.155V380.166Z" fill="#496836"/>
<path d="M432.31 409.979C427.444 442.623 421.112 475.492 413.353 508.339" stroke="#365650" stroke-width="0.738694" stroke-miterlimit="10" stroke-linecap="round"/>
<path d="M441.962 402.151C442.509 400.668 442.503 399.173 440.767 398.711C439.808 398.457 438.889 399.061 438.184 399.641C436.966 400.64 435.934 401.852 435.145 403.217C435.551 401.908 435.957 400.6 436.284 399.275C436.588 398.04 436.825 396.749 436.56 395.503C435.979 392.768 432.545 393.574 431.671 394.927C430.6 396.591 430.577 400.098 430.611 402.077C430.329 401.215 430.047 400.346 429.765 399.484C429.348 398.198 428.801 396.771 427.555 396.247C426.867 395.959 425.982 396.061 425.513 396.63C425.31 396.873 424.876 397.893 424.786 398.198C423.658 402.089 426.348 405.613 428.846 408.269C429.692 409.166 430.566 410.276 431.649 410.885C432.731 411.494 433.752 410.587 434.575 409.938C436.492 408.421 438.551 407.017 440.163 405.162C440.71 404.53 441.517 403.341 441.962 402.14V402.151Z" fill="#FFD490"/>
<path d="M433.808 407.779C433.43 407.644 433.03 407.559 432.63 407.514C431.626 407.407 430.588 407.537 429.675 407.954C429.517 408.027 429.308 408.174 429.145 408.304C428.998 408.417 428.981 408.625 429.1 408.766C429.596 409.324 430.836 410.655 431.682 411.134C432.765 411.743 433.786 410.836 434.609 410.187C434.913 409.945 435.218 409.708 435.528 409.471C435.675 409.358 435.692 409.15 435.573 409.009C435.105 408.462 434.496 408.027 433.814 407.779H433.808Z" fill="#496836"/>
<path d="M395.307 477.761C395.307 477.761 402.874 405.273 404.566 396.696C406.257 388.12 411.135 377.485 419.311 378.894C427.488 380.304 428.446 389.935 426.089 405.38C423.727 420.825 415.533 480.879 415.533 480.879" fill="#65732D"/>
<path d="M418.111 388.718L403.14 479.859" stroke="#365650" stroke-width="0.738694" stroke-miterlimit="10" stroke-linecap="round"/>
<path d="M402.527 488.028L428.179 423.621L446.33 431.391L417.95 492.449" fill="#808F3C"/>
<path d="M411.282 491.492C411.305 491.154 436.776 427.305 436.776 427.305" stroke="#365650" stroke-width="0.738694" stroke-miterlimit="10" stroke-linecap="round"/>
<path d="M446.328 431.392C446.328 431.392 451.307 442.766 452.514 445.895C453.721 449.025 454.403 456.953 448.781 456.722C443.159 456.497 437.813 450.829 433.838 439.264C431.408 432.193 428.171 423.616 428.171 423.616" fill="#A7B964"/>
<path d="M437.457 427.593L446.823 449.19" stroke="#365650" stroke-width="0.738694" stroke-miterlimit="10" stroke-linecap="round"/>
<path d="M406.395 432.865C404.517 465.813 401.201 487.455 396.459 520.871" stroke="#496836" stroke-width="0.597722" stroke-linejoin="round"/>
<path d="M415.306 424.198C415.717 422.67 415.576 421.181 413.8 420.882C412.825 420.719 411.962 421.401 411.308 422.044C410.186 423.143 409.267 424.452 408.607 425.878C408.894 424.542 409.176 423.2 409.385 421.846C409.577 420.589 409.695 419.281 409.317 418.068C408.488 415.401 405.145 416.518 404.395 417.944C403.475 419.698 403.774 423.194 403.989 425.162C403.628 424.327 403.272 423.493 402.912 422.658C402.381 421.418 401.705 420.042 400.413 419.636C399.703 419.416 398.835 419.591 398.412 420.205C398.231 420.47 397.893 421.525 397.831 421.835C397.064 425.81 400.058 429.081 402.793 431.494C403.718 432.312 404.693 433.338 405.821 433.846C406.955 434.353 407.891 433.361 408.646 432.639C410.417 430.953 412.34 429.369 413.778 427.372C414.268 426.69 414.962 425.433 415.295 424.203L415.306 424.198Z" fill="#FFD490"/>
<path d="M407.687 430.542C407.298 430.44 406.892 430.395 406.486 430.39C405.477 430.373 404.456 430.598 403.582 431.1C403.43 431.185 403.238 431.354 403.086 431.495C402.951 431.619 402.951 431.833 403.086 431.957C403.633 432.465 404.986 433.683 405.871 434.077C407.005 434.585 407.941 433.592 408.697 432.871C408.978 432.606 409.26 432.341 409.548 432.076C409.683 431.952 409.683 431.737 409.548 431.608C409.029 431.106 408.386 430.728 407.687 430.542Z" fill="#496836"/>
<path d="M429.023 476.789H377.27V532.27H429.023V476.789Z" fill="#FF9260"/>
<mask id="mask1_1625_14129" style="mask-type:luminance" maskUnits="userSpaceOnUse" x="375" y="477" width="56" height="57">
<path d="M430.025 477.486H375.802V533.024H430.025V477.486Z" fill="white"/>
</mask>
<g mask="url(#mask1_1625_14129)">
<path d="M375.608 478.321H400.769" stroke="black" stroke-width="0.513139" stroke-miterlimit="10" stroke-linecap="round"/>
<path d="M375.608 483.085H400.769" stroke="black" stroke-width="0.513139" stroke-miterlimit="10" stroke-linecap="round"/>
<path d="M375.608 487.855H400.769" stroke="black" stroke-width="0.513139" stroke-miterlimit="10" stroke-linecap="round"/>
<path d="M376.453 511.361V490.965" stroke="black" stroke-width="0.513139" stroke-miterlimit="10" stroke-linecap="round"/>
<path d="M383.641 511.361V490.965" stroke="black" stroke-width="0.513139" stroke-miterlimit="10" stroke-linecap="round"/>
<path d="M390.841 511.361V490.965" stroke="black" stroke-width="0.513139" stroke-miterlimit="10" stroke-linecap="round"/>
<path d="M398.015 511.361V490.965" stroke="black" stroke-width="0.513139" stroke-miterlimit="10" stroke-linecap="round"/>
<path d="M375.708 516.489H400.869" stroke="black" stroke-width="0.513139" stroke-miterlimit="10" stroke-linecap="round"/>
<path d="M375.708 521.26H400.869" stroke="black" stroke-width="0.513139" stroke-miterlimit="10" stroke-linecap="round"/>
<path d="M375.708 526.03H400.869" stroke="black" stroke-width="0.513139" stroke-miterlimit="10" stroke-linecap="round"/>
<path d="M405.431 495.899H430.586" stroke="black" stroke-width="0.513139" stroke-miterlimit="10" stroke-linecap="round"/>
<path d="M405.431 500.67H430.586" stroke="black" stroke-width="0.513139" stroke-miterlimit="10" stroke-linecap="round"/>
<path d="M405.431 505.44H430.586" stroke="black" stroke-width="0.513139" stroke-miterlimit="10" stroke-linecap="round"/>
<path d="M406.275 528.946V508.55" stroke="black" stroke-width="0.513139" stroke-miterlimit="10" stroke-linecap="round"/>
<path d="M413.463 528.946V508.55" stroke="black" stroke-width="0.513139" stroke-miterlimit="10" stroke-linecap="round"/>
<path d="M420.649 528.946V508.55" stroke="black" stroke-width="0.513139" stroke-miterlimit="10" stroke-linecap="round"/>
<path d="M427.837 528.946V508.55" stroke="black" stroke-width="0.513139" stroke-miterlimit="10" stroke-linecap="round"/>
<path d="M407.231 490.966V473.745" stroke="black" stroke-width="0.468028" stroke-miterlimit="10" stroke-linecap="round"/>
<path d="M414.418 490.966V473.745" stroke="black" stroke-width="0.468028" stroke-miterlimit="10" stroke-linecap="round"/>
<path d="M421.605 490.966V473.745" stroke="black" stroke-width="0.468028" stroke-miterlimit="10" stroke-linecap="round"/>
<path d="M428.792 490.966V473.745" stroke="black" stroke-width="0.468028" stroke-miterlimit="10" stroke-linecap="round"/>
</g>
<path d="M348.339 260.874C343.525 259.189 341.553 257.221 339.872 252.407C339.542 251.459 338.209 251.459 337.879 252.407C336.194 257.221 334.226 259.193 329.412 260.874C328.464 261.204 328.464 262.537 329.412 262.867C334.226 264.552 336.198 266.52 337.879 271.334C338.209 272.282 339.542 272.282 339.872 271.334C341.557 266.52 343.525 264.548 348.339 262.867C349.286 262.537 349.286 261.204 348.339 260.874Z" fill="white"/>
</g>
<defs>
<clipPath id="clip0_1625_14129">
<rect width="1440" height="526" fill="white"/>
</clipPath>
</defs>
</svg>
