<svg width="36" height="36" viewBox="0 0 36 36" fill="none" xmlns="http://www.w3.org/2000/svg">
<g clip-path="url(#clip0_498_8687)">
<path d="M18 0.5C13.2509 0.5 12.6538 0.521875 10.7878 0.605C8.92188 0.6925 7.65094 0.985625 6.5375 1.41875C5.36903 1.85696 4.31093 2.54618 3.43781 3.43781C2.54618 4.31093 1.85696 5.36903 1.41875 6.5375C0.985625 7.64875 0.690313 8.92188 0.605 10.7812C0.521875 12.6516 0.5 13.2466 0.5 18.0022C0.5 22.7534 0.521875 23.3484 0.605 25.2144C0.6925 27.0781 0.985625 28.3491 1.41875 29.4625C1.86719 30.6131 2.46438 31.5887 3.43781 32.5622C4.40906 33.5356 5.38469 34.135 6.53531 34.5812C7.65094 35.0144 8.91969 35.3097 10.7834 35.395C12.6516 35.4781 13.2466 35.5 18 35.5C22.7534 35.5 23.3463 35.4781 25.2144 35.395C27.0759 35.3075 28.3512 35.0144 29.4647 34.5812C30.6324 34.1428 31.6897 33.4535 32.5622 32.5622C33.5356 31.5887 34.1328 30.6131 34.5812 29.4625C35.0122 28.3491 35.3075 27.0781 35.395 25.2144C35.4781 23.3484 35.5 22.7534 35.5 18C35.5 13.2466 35.4781 12.6516 35.395 10.7834C35.3075 8.92188 35.0122 7.64875 34.5812 6.5375C34.143 5.36903 33.4538 4.31093 32.5622 3.43781C31.6891 2.54618 30.631 1.85696 29.4625 1.41875C28.3469 0.985625 27.0737 0.690313 25.2122 0.605C23.3441 0.521875 22.7513 0.5 17.9956 0.5H18ZM16.4316 3.65438H18.0022C22.6747 3.65438 23.2281 3.66969 25.0722 3.755C26.7784 3.83156 27.7059 4.11812 28.3228 4.35656C29.1388 4.67375 29.7228 5.05438 30.3353 5.66687C30.9478 6.27938 31.3263 6.86125 31.6434 7.67938C31.8841 8.29406 32.1684 9.22156 32.245 10.9278C32.3303 12.7719 32.3478 13.3253 32.3478 17.9956C32.3478 22.6659 32.3303 23.2216 32.245 25.0656C32.1684 26.7719 31.8819 27.6972 31.6434 28.3141C31.3609 29.0729 30.9133 29.7595 30.3331 30.3244C29.7206 30.9369 29.1388 31.3153 28.3206 31.6325C27.7081 31.8731 26.7806 32.1575 25.0722 32.2362C23.2281 32.3194 22.6747 32.3391 18.0022 32.3391C13.3297 32.3391 12.7741 32.3194 10.93 32.2362C9.22375 32.1575 8.29844 31.8731 7.68156 31.6325C6.92213 31.3509 6.23475 30.9041 5.66906 30.3244C5.08779 29.7591 4.63947 29.0717 4.35656 28.3119C4.11812 27.6972 3.83156 26.7697 3.755 25.0634C3.67188 23.2194 3.65438 22.6659 3.65438 17.9912C3.65438 13.3166 3.67188 12.7675 3.755 10.9234C3.83375 9.21719 4.11813 8.28969 4.35875 7.67281C4.67594 6.85687 5.05656 6.27281 5.66906 5.66031C6.28156 5.04781 6.86344 4.66937 7.68156 4.35219C8.29844 4.11156 9.22375 3.82719 10.93 3.74844C12.5444 3.67406 13.17 3.65219 16.4316 3.65V3.65438ZM27.3428 6.55937C27.067 6.55937 26.794 6.61369 26.5392 6.71923C26.2844 6.82476 26.0529 6.97945 25.8579 7.17445C25.6629 7.36945 25.5082 7.60096 25.4027 7.85574C25.2971 8.11052 25.2428 8.3836 25.2428 8.65938C25.2428 8.93515 25.2971 9.20823 25.4027 9.46301C25.5082 9.71779 25.6629 9.9493 25.8579 10.1443C26.0529 10.3393 26.2844 10.494 26.5392 10.5995C26.794 10.7051 27.067 10.7594 27.3428 10.7594C27.8998 10.7594 28.4339 10.5381 28.8277 10.1443C29.2216 9.75047 29.4428 9.21633 29.4428 8.65938C29.4428 8.10242 29.2216 7.56828 28.8277 7.17445C28.4339 6.78062 27.8998 6.55937 27.3428 6.55937ZM18.0022 9.01375C16.8102 8.99515 15.6263 9.21387 14.5196 9.65718C13.4129 10.1005 12.4055 10.7595 11.556 11.5959C10.7064 12.4323 10.0317 13.4294 9.57121 14.529C9.1107 15.6286 8.87353 16.8089 8.87353 18.0011C8.87353 19.1933 9.1107 20.3735 9.57121 21.4732C10.0317 22.5728 10.7064 23.5699 11.556 24.4063C12.4055 25.2427 13.4129 25.9017 14.5196 26.345C15.6263 26.7883 16.8102 27.007 18.0022 26.9884C20.3615 26.9516 22.6117 25.9886 24.2671 24.3071C25.9226 22.6257 26.8504 20.3607 26.8504 18.0011C26.8504 15.6415 25.9226 13.3765 24.2671 11.6951C22.6117 10.0136 20.3615 9.05056 18.0022 9.01375ZM18.0022 12.1659C18.7683 12.1659 19.527 12.3168 20.2348 12.61C20.9426 12.9032 21.5858 13.333 22.1275 13.8747C22.6692 14.4164 23.099 15.0596 23.3922 15.7674C23.6853 16.4752 23.8363 17.2339 23.8363 18C23.8363 18.7661 23.6853 19.5248 23.3922 20.2326C23.099 20.9404 22.6692 21.5836 22.1275 22.1253C21.5858 22.667 20.9426 23.0968 20.2348 23.39C19.527 23.6832 18.7683 23.8341 18.0022 23.8341C16.4549 23.8341 14.971 23.2194 13.8769 22.1253C12.7828 21.0312 12.1681 19.5473 12.1681 18C12.1681 16.4527 12.7828 14.9688 13.8769 13.8747C14.971 12.7806 16.4549 12.1659 18.0022 12.1659Z" fill="#8877D8"/>
</g>
<defs>
<clipPath id="clip0_498_8687">
<rect width="35" height="35" fill="white" transform="translate(0.5 0.5)"/>
</clipPath>
</defs>
</svg>
