<svg width="1360" height="100" viewBox="0 0 1360 100" fill="none" xmlns="http://www.w3.org/2000/svg">
<g clip-path="url(#clip0_563_4191)">
<path d="M9.65162 54.0706V42.0069C9.65162 41.5598 9.69622 41.2917 10.4562 41.2917H20.6878C22.4753 41.2917 23.4583 42.8112 24.1734 45.6705L24.7542 47.9497H26.4966C26.809 41.4712 27.0768 38.6561 27.0768 38.6561C27.0768 38.6561 22.6983 39.1475 20.1067 39.1475H7.01601L0 38.924V40.8007L2.36858 41.2474C4.02178 41.5604 4.42313 41.9174 4.55824 43.4371C4.55824 43.4371 4.69256 47.9051 4.69256 55.2778C4.69256 62.6495 4.55824 67.0735 4.55824 67.0735C4.55824 68.4137 4.02178 68.905 2.36858 69.2188L0 69.6658V71.5415L7.01601 71.3185H18.7224C21.3586 71.3185 27.4798 71.5415 27.4798 71.5415C27.6133 69.9326 28.5076 62.6495 28.6416 61.8463H26.9884L25.2458 65.823C23.8604 68.9499 21.8502 69.1737 19.6157 69.1737H12.9578C10.7235 69.1737 9.65109 68.2799 9.65109 66.3589V56.1713C9.65109 56.1713 14.5212 56.1713 16.2188 56.3056C17.4701 56.3954 18.2292 56.7527 18.6319 58.495L19.1684 60.8185H21.0886L20.9551 54.9646L21.2229 49.0672H19.3022L18.6771 51.6585C18.2744 53.3563 18.0068 53.6698 16.2639 53.8479C14.2983 54.0719 9.65083 54.0271 9.65083 54.0271V54.0714H9.65162V54.0706ZM36.1474 43.2582C35.5217 46.0284 34.8961 48.1729 32.7067 49.6029C31.3664 50.4961 30.0257 50.8085 29.4903 50.8534V52.5512H33.4667V66.2681C33.4667 70.1112 36.0139 71.9882 39.4092 71.9882C42.0456 71.9882 44.7707 70.8712 45.7093 68.5472L44.7707 67.3408C44.3237 68.1007 42.8948 69.2175 41.1073 69.2175C39.1416 69.2175 38.0692 67.8767 38.0692 64.4817V52.3733L44.6826 52.8652L45.0396 49.8261L38.0695 50.0945V43.3025L36.1474 43.2582ZM50.267 64.3569L48.5692 64.4015C48.6584 65.3842 48.7035 66.6357 48.7035 67.7973C48.7035 69.0038 48.6589 70.1208 48.5692 70.6567C48.5692 70.6567 51.9651 71.9067 55.4055 71.9067C60.0524 71.9067 63.7612 69.6727 63.7612 65.2939C63.7612 57.7884 52.5015 58.9057 52.5015 53.8558C52.5015 51.7562 54.378 50.9516 56.4333 50.9516C58.0419 50.9516 59.3822 51.5324 59.6503 52.3821L60.7675 55.7331L62.421 55.6439C62.5553 53.8564 62.6442 51.801 62.9126 50.1481C61.4824 49.5224 58.4884 49.1643 56.6133 49.1643C52.2334 49.1643 48.7043 51.0859 48.7043 55.3755C48.7043 62.8369 59.6954 61.3178 59.6954 66.8144C59.6954 68.7795 58.4884 70.1649 55.7636 70.1649C53.262 70.1649 52.0104 68.8695 51.5199 67.573L50.267 64.3569ZM77.1973 69.5188C74.6105 76.7445 71.444 78.6164 68.59 78.6164C67.3851 78.6164 66.8059 78.0807 66.6267 77.2348L65.9578 73.755L64.0843 73.8442C63.7275 75.8961 63.3707 78.1715 62.8807 80.0442C63.9959 80.8905 65.8681 81.3375 67.3405 81.3375C70.4186 81.3375 75.1011 80.9353 79.3819 70.7672L86.563 53.8197C87.1433 52.4368 87.3655 52.303 89.0604 51.6335L89.9971 51.2776V49.7165L85.7598 49.9394L81.2109 49.7165V51.2776L82.3698 51.6335C83.529 51.9911 84.0652 52.4368 84.0652 53.2397C84.0652 53.6408 83.9309 54.0425 83.7074 54.6663C83.0385 56.3622 78.8906 66.4412 77.7768 68.5825L78.8903 68.1804C76.9276 63.3193 73.9408 55.2014 73.4943 53.82C73.4051 53.5522 73.3605 53.3292 73.3605 53.1052C73.3605 52.3919 73.8511 51.8119 74.9216 51.5892L76.3935 51.2778V49.7167L70.2827 49.9397L65.4216 49.7167V51.2778L66.2246 51.5451C67.3394 51.9019 67.6073 52.2143 68.2762 53.7751C71.9768 62.2495 73.7173 66.8871 76.08 72.9534L77.1973 69.5188Z" fill="#D0D5DD"/>
</g>
<g clip-path="url(#clip1_563_4191)">
<path d="M199.463 71.8754H193.282L197.145 48.1373H203.326L199.463 71.8754ZM188.083 48.1373L182.191 64.4646L181.494 60.9487L181.495 60.9499L179.415 50.2746C179.415 50.2746 179.164 48.1373 176.483 48.1373H166.743L166.628 48.5392C166.628 48.5392 169.607 49.159 173.093 51.2525L178.463 71.8761H184.902L194.735 48.1373H188.083ZM236.694 71.8754H242.369L237.421 48.1367H232.453C230.159 48.1367 229.6 49.9057 229.6 49.9057L220.383 71.8754H226.825L228.114 68.3494H235.97L236.694 71.8754ZM229.893 63.4784L233.141 54.5951L234.968 63.4784H229.893ZM220.866 53.8458L221.748 48.7482C221.748 48.7482 219.026 47.7131 216.189 47.7131C213.122 47.7131 205.839 49.0536 205.839 55.5717C205.839 61.7043 214.387 61.7805 214.387 65.0018C214.387 68.223 206.72 67.6458 204.189 65.6145L203.271 70.9445C203.271 70.9445 206.03 72.285 210.247 72.285C214.464 72.285 220.827 70.1013 220.827 64.1579C220.827 57.9859 212.202 57.4112 212.202 54.7278C212.202 52.0437 218.221 52.3885 220.866 53.8458Z" fill="#D0D5DD"/>
<path d="M181.495 60.9491L179.415 50.2738C179.415 50.2738 179.164 48.1364 176.483 48.1364H166.743L166.628 48.5384C166.628 48.5384 171.31 49.5086 175.801 53.1439C180.094 56.6185 181.495 60.9491 181.495 60.9491Z" fill="#D0D5DD"/>
</g>
<g clip-path="url(#clip2_563_4191)">
<path d="M395.826 70.6544C397.079 70.7759 398.332 70.9064 399.582 71.0414L402.341 64.228L404.964 71.6699C406.31 71.8384 407.655 72.0154 408.996 72.2002L404.398 59.1504L408.997 47.7915H405.102L405.061 47.8473L402.576 53.9836L400.395 47.7924H396.548L400.519 59.0616L395.826 70.6544H395.826ZM392.917 70.3874V47.7915H389.072V70.0703C390.354 70.1693 391.638 70.2758 392.917 70.3874ZM364.034 69.1238C365.072 69.1238 366.109 69.1316 367.144 69.14V60.8387H371.763V57.3036H367.144V51.3308H372.464V47.7915H363.284V69.1268C363.533 69.1268 363.784 69.1229 364.034 69.1238ZM352.096 69.3398C353.377 69.2942 354.659 69.2558 355.943 69.2246V51.3314H359.537V47.7924H348.502V51.3314H352.097V69.3398H352.096ZM322.69 71.7224V58.2603L327.243 71.1788C328.643 71.0216 330.045 70.8737 331.451 70.7339V47.7918H327.761V61.7363L322.849 47.7918H319.001V72.2062H319.025C320.243 72.0376 321.466 71.8774 322.69 71.7224ZM344.795 51.3305V47.7918H335.614V70.3514C338.669 70.0877 341.727 69.8666 344.787 69.6881V66.1461C343.012 66.2493 341.241 66.3681 339.474 66.5004V60.8402H344.093V57.303H339.474V51.3305H344.795ZM380.084 65.9769V47.7906H376.222V69.3527C379.294 69.4655 382.354 69.6227 385.403 69.8207V66.2766C383.634 66.1623 381.861 66.0633 380.084 65.9769Z" fill="#D0D5DD"/>
</g>
<g clip-path="url(#clip3_563_4191)">
<path d="M493.486 69.9027L487.598 69.795C485.692 69.7575 483.781 69.8324 481.912 69.4436C479.068 68.8628 478.867 66.0148 478.656 63.6259C478.366 60.2673 478.478 56.8479 479.026 53.5174C479.335 51.6484 480.553 50.5336 482.436 50.4118C488.793 49.9715 495.191 50.023 501.534 50.2291C502.203 50.2479 502.878 50.3509 503.538 50.468C506.799 51.0395 506.878 54.2669 507.089 56.9837C507.3 59.7287 507.211 62.4876 506.808 65.2138C506.485 67.4716 505.866 69.364 503.257 69.5467C499.988 69.7856 496.793 69.9776 493.514 69.9167C493.514 69.9027 493.495 69.9027 493.486 69.9027ZM490.025 64.188C492.488 62.7734 494.905 61.3822 497.355 59.9769C494.887 58.5623 492.474 57.1711 490.025 55.7658V64.188Z" fill="#D0D5DD"/>
<path d="M554.47 67.3361C554.357 67.7951 554.259 68.1558 554.16 68.5399H551.856V50.7635H554.545V57.3213C554.685 57.1433 554.755 57.0684 554.816 56.9887C555.275 56.3564 555.87 55.9442 556.638 55.7849C557.861 55.546 558.906 56.0847 559.276 57.2604C559.514 57.9911 559.669 58.7734 559.688 59.5369C559.725 61.4996 559.697 63.4576 559.627 65.4203C559.599 66.0198 559.416 66.6335 559.187 67.1956C558.432 69.0505 555.969 69.3315 554.746 67.7249C554.671 67.6265 554.601 67.5188 554.47 67.3361ZM554.601 62.4458V65.6966C554.601 66.2259 554.882 66.5491 555.411 66.6709C555.931 66.7927 556.353 66.5913 556.563 66.1088C556.652 65.9074 556.741 65.6966 556.746 65.4858C556.798 63.4997 556.844 61.5136 556.859 59.5229C556.859 59.1528 556.77 58.7687 556.657 58.408C556.446 57.7569 555.865 57.5649 555.294 57.9443C554.863 58.2347 554.601 58.6469 554.601 59.195V62.4458ZM547.293 56.0378H550.109V68.5493H547.912C547.832 68.0762 547.752 67.589 547.659 67.0176C547.509 67.2377 547.42 67.3782 547.326 67.5188C546.595 68.5727 545.56 68.9334 544.338 68.7413C543.293 68.5727 542.665 67.767 542.525 66.4461C542.483 66.0526 542.464 65.6545 542.464 65.261C542.455 62.3334 542.464 59.3964 542.464 56.4688V56.0285H545.312V56.5391C545.312 59.3683 545.303 62.1929 545.321 65.0221C545.321 65.4249 545.364 65.8418 545.434 66.2447C545.513 66.6569 545.813 66.8068 546.216 66.7787C546.867 66.7271 547.317 66.2447 547.317 65.5982V56.5906C547.293 56.4079 547.293 56.2393 547.293 56.0378ZM527.91 56.0285H530.74V56.5578C530.74 59.373 530.73 62.1835 530.749 64.9893C530.749 65.3921 530.786 65.809 530.871 66.2025C530.978 66.6662 531.25 66.8161 531.714 66.7552C532.356 66.6662 532.744 66.2212 532.749 65.5701V56.6093V56.0472H535.564V68.5493H533.377C533.297 68.0855 533.217 67.6078 533.114 67.0035C532.974 67.2143 532.894 67.3361 532.815 67.4626C532.084 68.5352 531.058 68.9287 529.807 68.7366C528.805 68.5868 528.191 67.8467 528.004 66.6335C527.952 66.254 527.915 65.8793 527.915 65.4999C527.906 62.4599 527.906 59.4058 527.906 56.3657L527.91 56.0285ZM526.458 62.7081C526.449 63.1297 526.421 63.5513 526.397 63.9728C526.29 65.2376 526.238 67.0316 525.217 67.9544C524.566 68.5352 523.741 68.746 522.889 68.7741C522.509 68.7835 522.125 68.7835 521.746 68.732C519.952 68.4603 519.118 67.6687 518.818 65.6966C518.476 63.4201 518.448 61.1061 518.856 58.8296C519.277 56.4735 520.729 55.6397 522.987 55.7943C525.095 55.9442 526.037 57.326 526.285 59.2933C526.421 60.4222 526.486 61.5652 526.458 62.7081ZM523.591 62.2772C523.591 61.4762 523.61 60.6705 523.582 59.8695C523.563 59.4058 523.502 58.9373 523.404 58.4783C523.292 57.949 522.954 57.696 522.533 57.7054C522.121 57.7148 521.83 57.9677 521.68 58.4596C521.629 58.6422 521.573 58.8296 521.573 59.0123C521.573 60.2677 521.563 61.5277 521.554 62.7831C521.545 63.9541 521.395 65.1814 521.765 66.3009C521.877 66.6428 522.168 66.8302 522.547 66.8302C522.917 66.8302 523.161 66.6475 523.296 66.3196C523.404 66.0667 523.498 65.7903 523.498 65.5186C523.531 64.4413 523.591 63.3592 523.591 62.2772ZM514.687 59.921C514.935 58.7078 515.169 57.5227 515.427 56.3329C515.75 54.82 516.111 53.307 516.429 51.7893C516.509 51.4192 516.659 51.3302 517.01 51.3396C517.764 51.3677 518.533 51.349 519.338 51.349C519.076 52.3139 518.818 53.232 518.565 54.1361C517.764 56.9747 516.963 59.8227 516.172 62.6706C516.111 62.8908 516.083 63.1297 516.083 63.3639C516.073 64.919 516.083 66.4695 516.083 68.0247V68.5305H513.333C513.324 68.39 513.305 68.2495 513.305 68.109C513.305 67.2283 513.235 66.343 513.314 65.4718C513.516 63.3779 512.851 61.4528 512.312 59.5041C511.6 56.9278 510.879 54.3422 510.167 51.7659C510.129 51.6441 510.115 51.5129 510.078 51.363H512.883C513.474 54.2063 514.069 57.0496 514.687 59.921ZM568.485 63.1859H563.744C563.796 64.1368 563.815 65.0408 563.913 65.9355C563.983 66.5585 564.325 66.8255 564.864 66.8302C565.426 66.8396 565.754 66.5585 565.885 65.9402C565.927 65.7388 565.955 65.5374 565.974 65.3313C565.993 65.1486 566.002 64.9518 566.016 64.6895C566.817 64.7317 567.599 64.7785 568.372 64.8113C568.822 66.1463 568.012 67.8607 566.648 68.39C565.576 68.8116 564.475 68.8116 563.379 68.4884C562.569 68.2495 561.964 67.7342 561.693 66.9426C561.44 66.2025 561.201 65.4296 561.149 64.6567C561.009 62.7503 560.957 60.8251 561.248 58.9139C561.299 58.5954 561.388 58.2909 561.486 57.9818C561.88 56.7077 562.737 55.9254 564.063 55.7943C564.784 55.724 565.529 55.7521 566.241 55.8739C567.393 56.0753 568.007 56.9044 568.274 57.9911C568.396 58.5017 568.485 59.0263 568.503 59.5463C568.508 60.7408 568.485 61.9259 568.485 63.1859ZM565.791 61.5418C565.791 60.6002 565.801 59.7149 565.782 58.8249C565.782 58.6141 565.702 58.394 565.623 58.1926C565.463 57.7991 565.131 57.6914 564.733 57.6914C564.334 57.6914 564.082 57.8928 563.983 58.2535C563.683 59.3355 563.782 60.441 563.791 61.5511C564.508 61.5418 565.159 61.5418 565.791 61.5418Z" fill="#D0D5DD"/>
<path d="M537.738 53.644H534.951V51.3862H543.27V53.63H540.502V68.5303H537.743L537.738 53.644Z" fill="#D0D5DD"/>
</g>
<g clip-path="url(#clip4_563_4191)">
<mask id="mask0_563_4191" style="mask-type:luminance" maskUnits="userSpaceOnUse" x="573" y="19" width="250" height="82">
<path d="M573.4 100.474H822.602V19.5232H573.4V100.474Z" fill="white"/>
</mask>
<g mask="url(#mask0_563_4191)">
<path d="M662.782 48.1657C661.502 46.7074 659.189 46.0822 656.231 46.0822H647.644C647.351 46.082 647.068 46.1864 646.845 46.3765C646.622 46.5667 646.474 46.8301 646.429 47.1193L642.855 69.7971C642.838 69.9023 642.845 70.0098 642.874 70.1123C642.903 70.2148 642.953 70.3097 643.023 70.3907C643.092 70.4716 643.178 70.5366 643.275 70.5811C643.371 70.6256 643.477 70.6486 643.583 70.6485H648.884L650.216 62.2037L650.174 62.4681C650.219 62.1794 650.366 61.9163 650.588 61.7261C650.81 61.536 651.092 61.4313 651.384 61.431H653.903C658.852 61.431 662.727 59.4208 663.859 53.606C663.893 53.434 663.922 53.2666 663.947 53.1031C664.284 50.9539 663.945 49.491 662.782 48.1664" fill="#D0D5DD"/>
<path d="M727.68 58.9572C727.356 61.0851 725.731 61.0851 724.16 61.0851H723.265L723.893 57.1122C723.931 56.8722 724.138 56.6956 724.381 56.6956H724.791C725.861 56.6956 726.871 56.6956 727.393 57.3048C727.704 57.6694 727.798 58.2105 727.68 58.9572ZM726.996 53.4053H721.068C720.872 53.4054 720.682 53.4755 720.533 53.603C720.383 53.7304 720.284 53.9069 720.253 54.1008L717.858 69.3006C717.847 69.3711 717.851 69.4431 717.871 69.5117C717.89 69.5803 717.924 69.6439 717.971 69.6982C718.017 69.7524 718.074 69.796 718.139 69.8259C718.204 69.8558 718.274 69.8714 718.346 69.8715H721.388C721.671 69.8715 721.913 69.6652 721.957 69.3854L722.637 65.0747C722.7 64.675 723.045 64.3792 723.45 64.3792H725.326C729.232 64.3792 731.485 62.4906 732.073 58.7448C732.339 57.1076 732.084 55.8205 731.317 54.9194C730.474 53.9289 728.98 53.4045 726.997 53.4045" fill="#D0D5DD"/>
<path d="M685.399 58.9569C685.075 61.0848 683.45 61.0848 681.878 61.0848H680.984L681.611 57.1119C681.649 56.8719 681.856 56.6954 682.099 56.6954H682.509C683.579 56.6954 684.59 56.6954 685.111 57.3045C685.423 57.6691 685.517 58.2102 685.399 58.9569ZM684.715 53.405H678.787C678.382 53.405 678.036 53.7 677.973 54.1005L675.577 69.3003C675.566 69.3708 675.57 69.4428 675.589 69.5115C675.609 69.5802 675.643 69.6439 675.689 69.6981C675.735 69.7524 675.793 69.796 675.858 69.8259C675.923 69.8557 675.993 69.8712 676.065 69.8712H678.895C679.301 69.8712 679.645 69.5762 679.709 69.1757L680.356 65.0752C680.419 64.6747 680.764 64.3797 681.169 64.3797H683.045C686.951 64.3797 689.204 62.4903 689.792 58.7445C690.057 57.1073 689.803 55.8202 689.036 54.9191C688.193 53.9286 686.699 53.4043 684.716 53.4043M698.478 64.4141C698.203 66.0359 696.916 67.1251 695.274 67.1251C694.451 67.1251 693.791 66.8599 693.368 66.3585C692.947 65.8617 692.79 65.1532 692.923 64.3652C693.178 62.7571 694.487 61.6335 696.104 61.6335C696.91 61.6335 697.564 61.901 697.996 62.407C698.431 62.9168 698.602 63.6291 698.478 64.4141ZM702.434 58.8882H699.595C699.477 58.888 699.363 58.9301 699.273 59.0067C699.184 59.0834 699.124 59.1896 699.106 59.3062L698.982 60.0996L698.784 59.8122C698.169 58.9203 696.799 58.6214 695.43 58.6214C692.295 58.6214 689.616 60.9984 689.094 64.3308C688.823 65.9947 689.208 67.5837 690.151 68.6927C691.017 69.7115 692.253 70.1357 693.726 70.1357C696.254 70.1357 697.656 68.5123 697.656 68.5123L697.529 69.3011C697.518 69.3716 697.522 69.4437 697.542 69.5125C697.561 69.5812 697.595 69.6449 697.642 69.6992C697.688 69.7535 697.746 69.797 697.811 69.8269C697.876 69.8567 697.946 69.8721 698.018 69.872H700.574C700.979 69.872 701.324 69.5777 701.387 69.1765L702.922 59.4599C702.933 59.3893 702.929 59.3171 702.909 59.2484C702.89 59.1796 702.856 59.1159 702.809 59.0617C702.763 59.0074 702.705 58.9639 702.64 58.9341C702.575 58.9042 702.505 58.8888 702.433 58.8889" fill="#D0D5DD"/>
<path d="M740.759 64.4141C740.484 66.0359 739.198 67.1251 737.555 67.1251C736.732 67.1251 736.073 66.8599 735.649 66.3585C735.229 65.8617 735.071 65.1532 735.204 64.3652C735.46 62.7571 736.767 61.6335 738.385 61.6335C739.192 61.6335 739.845 61.901 740.278 62.407C740.713 62.9168 740.884 63.6291 740.759 64.4141ZM744.715 58.8882H741.877C741.759 58.888 741.645 58.9301 741.555 59.0067C741.465 59.0834 741.406 59.1896 741.388 59.3062L741.264 60.0996L741.065 59.8122C740.451 58.9203 739.08 58.6214 737.712 58.6214C734.577 58.6214 731.898 60.9984 731.376 64.3308C731.105 65.9947 731.491 67.5837 732.434 68.6927C733.3 69.7115 734.536 70.1357 736.008 70.1357C738.537 70.1357 739.939 68.5123 739.939 68.5123L739.812 69.3011C739.801 69.3715 739.805 69.4436 739.824 69.5124C739.843 69.5811 739.877 69.6448 739.924 69.6992C739.97 69.7535 740.028 69.7971 740.092 69.8269C740.157 69.8568 740.228 69.8721 740.299 69.872H742.854C743.259 69.872 743.605 69.5777 743.669 69.1765L745.204 59.4599C745.215 59.3893 745.21 59.3171 745.191 59.2484C745.171 59.1796 745.137 59.1159 745.091 59.0617C745.044 59.0074 744.987 58.9639 744.922 58.9341C744.857 58.9042 744.786 58.8888 744.715 58.8889" fill="#D0D5DD"/>
<path d="M717.553 58.8889H714.699C714.426 58.8889 714.171 59.0241 714.018 59.2504L710.082 65.0469L708.414 59.4766C708.363 59.3067 708.259 59.1577 708.116 59.0517C707.974 58.9457 707.802 58.8884 707.624 58.8881H704.82C704.741 58.8881 704.664 58.9069 704.594 58.9429C704.524 58.9789 704.464 59.031 704.418 59.095C704.372 59.159 704.342 59.2329 704.331 59.3107C704.32 59.3885 704.327 59.4679 704.352 59.5423L707.493 68.7645L704.539 72.9338C704.486 73.0078 704.456 73.0947 704.449 73.185C704.443 73.2754 704.462 73.3657 704.504 73.4462C704.545 73.5266 704.608 73.5941 704.686 73.6412C704.763 73.6883 704.852 73.7133 704.942 73.7133H707.793C708.062 73.7133 708.315 73.5811 708.47 73.3595L717.958 59.6646C718.009 59.5906 718.039 59.5039 718.045 59.4139C718.051 59.3239 718.032 59.234 717.99 59.1541C717.948 59.0741 717.885 59.0071 717.808 58.9604C717.731 58.9136 717.643 58.8889 717.553 58.8889Z" fill="#D0D5DD"/>
<path d="M748.061 53.8231L745.628 69.3011C745.616 69.3716 745.621 69.4437 745.64 69.5124C745.66 69.5811 745.694 69.6447 745.74 69.699C745.787 69.7532 745.844 69.7968 745.909 69.8267C745.974 69.8565 746.045 69.872 746.116 69.872H748.562C748.968 69.872 749.313 69.577 749.376 69.1765L751.776 53.976C751.787 53.9054 751.783 53.8333 751.763 53.7646C751.744 53.6958 751.71 53.6321 751.663 53.5779C751.617 53.5236 751.559 53.48 751.494 53.4502C751.429 53.4204 751.359 53.405 751.287 53.4051H748.549C748.432 53.4048 748.318 53.4467 748.228 53.5232C748.138 53.5998 748.079 53.7067 748.061 53.8231Z" fill="#D0D5DD"/>
<path d="M662.782 48.1657C661.502 46.7074 659.189 46.0822 656.231 46.0822H647.644C647.351 46.082 647.068 46.1864 646.845 46.3765C646.622 46.5667 646.474 46.8301 646.429 47.1193L642.855 69.7971C642.838 69.9023 642.845 70.0098 642.874 70.1123C642.903 70.2148 642.953 70.3097 643.023 70.3907C643.092 70.4716 643.178 70.5366 643.275 70.5811C643.371 70.6256 643.477 70.6486 643.583 70.6485H648.884L650.216 62.2037L650.174 62.4681C650.219 62.1794 650.366 61.9163 650.588 61.7261C650.81 61.536 651.092 61.4313 651.384 61.431H653.903C658.852 61.431 662.727 59.4208 663.859 53.606C663.893 53.434 663.922 53.2666 663.947 53.1031C664.284 50.9539 663.945 49.491 662.782 48.1664" fill="#D0D5DD"/>
<path d="M651.646 53.1316C651.686 52.8789 651.815 52.6487 652.009 52.4824C652.204 52.3162 652.451 52.2247 652.707 52.2244H659.439C660.236 52.2244 660.98 52.2764 661.66 52.3849C662.031 52.4447 662.399 52.5269 662.76 52.631C663.171 52.7465 663.568 52.9048 663.946 53.1034C664.283 50.9534 663.944 49.4912 662.782 48.1659C661.501 46.7084 659.189 46.0832 656.231 46.0832H647.643C647.35 46.0834 647.067 46.188 646.845 46.3781C646.622 46.5682 646.475 46.8314 646.429 47.1204L642.854 69.7958C642.837 69.901 642.843 70.0086 642.872 70.1111C642.901 70.2136 642.952 70.3086 643.021 70.3896C643.09 70.4706 643.176 70.5357 643.273 70.5803C643.37 70.6249 643.475 70.648 643.581 70.648H648.883L650.215 62.2024L651.646 53.1316Z" fill="#D0D5DD"/>
<path d="M663.946 53.1023C663.92 53.2705 663.891 53.4381 663.858 53.6052C662.726 59.4193 658.851 61.4302 653.902 61.4302H651.382C651.09 61.4304 650.808 61.535 650.586 61.7252C650.364 61.9154 650.218 62.1787 650.173 62.4673L648.883 70.647L648.516 72.9674C648.502 73.0595 648.507 73.1537 648.533 73.2435C648.558 73.3332 648.602 73.4164 648.663 73.4873C648.724 73.5582 648.799 73.6152 648.884 73.6542C648.968 73.6932 649.06 73.7134 649.154 73.7133H653.623C654.151 73.7133 654.601 73.3281 654.684 72.8061L654.728 72.5784L655.57 67.2404L655.624 66.9454C655.664 66.6925 655.793 66.4621 655.987 66.2958C656.182 66.1295 656.43 66.0381 656.686 66.0382H657.355C661.684 66.0382 665.073 64.2803 666.064 59.1931C666.477 57.0683 666.263 55.2928 665.17 54.0462C664.823 53.6597 664.408 53.3399 663.946 53.1023Z" fill="#D0D5DD"/>
<path d="M662.762 52.631C662.589 52.5798 662.411 52.5339 662.227 52.4934C662.044 52.4529 661.854 52.417 661.66 52.3864C660.98 52.2756 660.237 52.2236 659.439 52.2236H652.708C652.452 52.2233 652.204 52.3147 652.009 52.4812C651.814 52.6477 651.686 52.8784 651.646 53.1316L650.216 62.2039L650.174 62.4676C650.219 62.1789 650.365 61.9157 650.587 61.7255C650.809 61.5353 651.091 61.4306 651.383 61.4304H653.903C658.852 61.4304 662.727 59.4203 663.859 53.6055C663.893 53.4335 663.921 53.2669 663.947 53.1025C663.648 52.9461 663.337 52.8147 663.016 52.7097C662.933 52.6822 662.848 52.657 662.762 52.631Z" fill="#D0D5DD"/>
</g>
</g>
<g clip-path="url(#clip5_563_4191)">
<path d="M870.067 59.5911V70.0637H866.742V44.1951H875.556C877.682 44.1499 879.736 44.9566 881.263 46.4344C882.809 47.8254 883.68 49.8159 883.646 51.8931C883.691 53.9853 882.82 55.9909 881.263 57.3857C879.721 58.856 877.817 59.5911 875.556 59.5873L870.067 59.5911ZM870.067 47.3806V56.4131H875.638C876.875 56.4508 878.066 55.9645 878.926 55.0748C880.671 53.3784 880.713 50.585 879.012 48.8395C878.982 48.8094 878.956 48.7792 878.926 48.7528C878.078 47.8443 876.879 47.3467 875.638 47.3806H870.067ZM891.306 51.7875C893.764 51.7875 895.702 52.4435 897.123 53.7554C898.544 55.0673 899.253 56.8693 899.253 59.1538V70.0637H896.075V67.6057H895.931C894.555 69.6301 892.723 70.6405 890.439 70.6405C888.49 70.6405 886.858 70.0637 885.546 68.9063C884.271 67.8319 883.548 66.2411 883.578 64.571C883.578 62.7389 884.271 61.2837 885.655 60.2018C887.038 59.1199 888.886 58.577 891.2 58.577C893.172 58.577 894.801 58.9389 896.075 59.6589V58.8974C896.082 57.7589 895.577 56.6808 894.703 55.957C893.824 55.1653 892.678 54.7318 891.494 54.7469C889.64 54.7469 888.169 55.531 887.087 57.0955L884.162 55.252C885.768 52.9411 888.151 51.7875 891.306 51.7875ZM887.005 64.6464C887.001 65.5059 887.412 66.3127 888.105 66.8141C888.84 67.3909 889.753 67.7 890.688 67.6811C892.09 67.6774 893.436 67.1194 894.427 66.128C895.528 65.0913 896.079 63.8774 896.079 62.4788C895.042 61.6532 893.598 61.2385 891.743 61.2385C890.394 61.2385 889.266 61.5627 888.365 62.2149C887.457 62.8784 887.005 63.6813 887.005 64.6464ZM917.499 52.3643L906.404 77.8672H902.974L907.09 68.944L899.792 52.3643H903.403L908.677 65.08H908.749L913.88 52.3643H917.499Z" fill="#D0D5DD"/>
<path d="M856.635 57.3291C856.635 56.315 856.552 55.3047 856.379 54.3057H842.363V60.0283H850.389C850.057 61.8755 848.986 63.5078 847.422 64.5445V68.2616H852.213C855.018 65.6793 856.635 61.8529 856.635 57.3291Z" fill="#D0D5DD"/>
<path d="M842.362 71.8542C846.373 71.8542 849.751 70.5385 852.213 68.2653L847.421 64.5483C846.087 65.453 844.372 65.9695 842.362 65.9695C838.487 65.9695 835.196 63.357 834.02 59.836H829.085V63.6661C831.607 68.6875 836.745 71.8542 842.362 71.8542Z" fill="#D0D5DD"/>
<path d="M834.02 59.8361C833.398 57.9927 833.398 55.9909 834.02 54.1475V50.3173H829.086C826.975 54.5169 826.975 59.4667 829.086 63.6663L834.02 59.8361Z" fill="#D0D5DD"/>
<path d="M842.362 48.0139C844.481 47.9799 846.528 48.7791 848.062 50.2418L852.307 46.0008C849.615 43.475 846.053 42.0877 842.362 42.1292C836.745 42.1292 831.607 45.2996 829.085 50.3172L834.02 54.1474C835.196 50.6264 838.487 48.0139 842.362 48.0139Z" fill="#D0D5DD"/>
</g>
<g clip-path="url(#clip6_563_4191)">
<path d="M1004.06 45.7841C1005.11 44.4375 1005.86 42.642 1005.63 40.8466C1004.06 40.9214 1002.19 41.8939 1001.07 43.1657C1000.09 44.2879 999.197 46.1581 999.422 47.8788C1001.22 48.1032 1002.94 47.1307 1004.06 45.7841ZM1005.63 48.3276C1003.09 48.178 1000.92 49.749 999.721 49.749C998.524 49.749 996.654 48.4025 994.634 48.4025C992.015 48.4773 989.621 49.8987 988.275 52.2926C985.582 57.0057 987.527 63.9631 990.22 67.7784C991.492 69.6487 993.063 71.7434 995.083 71.6685C997.028 71.5937 997.776 70.3968 1000.09 70.3968C1002.41 70.3968 1003.09 71.6685 1005.18 71.5937C1007.28 71.5189 1008.62 69.7235 1009.9 67.7784C1011.39 65.6089 1011.99 63.5142 1011.99 63.4394C1011.91 63.3646 1007.88 61.8684 1007.88 57.2301C1007.8 53.34 1011.02 51.4697 1011.17 51.3949C1009.45 48.7017 1006.6 48.4025 1005.63 48.3276Z" fill="#D0D5DD"/>
<path d="M1027.62 43.0159C1033.16 43.0159 1036.98 46.8313 1036.98 52.2924C1036.98 57.8284 1033.09 61.6438 1027.47 61.6438H1021.41V71.2943H1017V43.0159H1027.62ZM1021.41 57.978H1026.43C1030.24 57.978 1032.41 55.8834 1032.41 52.3673C1032.41 48.7763 1030.24 46.7565 1026.43 46.7565H1021.34V57.978H1021.41ZM1038.1 65.5339C1038.1 61.943 1040.87 59.6987 1045.8 59.3994L1051.49 59.1002V57.5292C1051.49 55.2101 1049.92 53.8635 1047.37 53.8635C1044.91 53.8635 1043.41 55.0604 1043.04 56.8559H1039C1039.22 53.1154 1042.44 50.3474 1047.52 50.3474C1052.54 50.3474 1055.75 52.9657 1055.75 57.1551V71.3691H1051.71V68.0027H1051.64C1050.44 70.3218 1047.82 71.7432 1045.13 71.7432C1040.94 71.7432 1038.1 69.1996 1038.1 65.5339ZM1051.49 63.6637V62.0178L1046.4 62.3171C1043.86 62.4667 1042.44 63.5888 1042.44 65.3843C1042.44 67.1798 1043.93 68.3767 1046.18 68.3767C1049.17 68.3767 1051.49 66.3568 1051.49 63.6637ZM1059.49 78.9998V75.5585C1059.79 75.6333 1060.54 75.6333 1060.84 75.6333C1062.79 75.6333 1063.83 74.8104 1064.51 72.7157C1064.51 72.6409 1064.88 71.444 1064.88 71.444L1057.4 50.7962H1061.96L1067.2 67.6286H1067.27L1072.51 50.7962H1077L1069.29 72.5661C1067.5 77.5784 1065.48 79.1494 1061.21 79.1494C1060.91 79.0746 1059.87 79.0746 1059.49 78.9998Z" fill="#D0D5DD"/>
</g>
<g clip-path="url(#clip7_563_4191)">
<path d="M1155.65 54.0706V42.0069C1155.65 41.5598 1155.7 41.2917 1156.46 41.2917H1166.69C1168.48 41.2917 1169.46 42.8112 1170.17 45.6705L1170.75 47.9497H1172.5C1172.81 41.4712 1173.08 38.6561 1173.08 38.6561C1173.08 38.6561 1168.7 39.1475 1166.11 39.1475H1153.02L1146 38.924V40.8007L1148.37 41.2474C1150.02 41.5604 1150.42 41.9174 1150.56 43.4371C1150.56 43.4371 1150.69 47.9051 1150.69 55.2778C1150.69 62.6495 1150.56 67.0735 1150.56 67.0735C1150.56 68.4137 1150.02 68.905 1148.37 69.2188L1146 69.6658V71.5415L1153.02 71.3185H1164.72C1167.36 71.3185 1173.48 71.5415 1173.48 71.5415C1173.61 69.9326 1174.51 62.6495 1174.64 61.8463H1172.99L1171.25 65.823C1169.86 68.9499 1167.85 69.1737 1165.62 69.1737H1158.96C1156.72 69.1737 1155.65 68.2799 1155.65 66.3589V56.1713C1155.65 56.1713 1160.52 56.1713 1162.22 56.3056C1163.47 56.3954 1164.23 56.7527 1164.63 58.495L1165.17 60.8185H1167.09L1166.96 54.9646L1167.22 49.0672H1165.3L1164.68 51.6585C1164.27 53.3563 1164.01 53.6698 1162.26 53.8479C1160.3 54.0719 1155.65 54.0271 1155.65 54.0271V54.0714H1155.65V54.0706ZM1182.15 43.2582C1181.52 46.0284 1180.9 48.1729 1178.71 49.6029C1177.37 50.4961 1176.03 50.8085 1175.49 50.8534V52.5512H1179.47V66.2681C1179.47 70.1112 1182.01 71.9882 1185.41 71.9882C1188.05 71.9882 1190.77 70.8712 1191.71 68.5472L1190.77 67.3408C1190.32 68.1007 1188.89 69.2175 1187.11 69.2175C1185.14 69.2175 1184.07 67.8767 1184.07 64.4817V52.3733L1190.68 52.8652L1191.04 49.8261L1184.07 50.0945V43.3025L1182.15 43.2582ZM1196.27 64.3569L1194.57 64.4015C1194.66 65.3842 1194.7 66.6357 1194.7 67.7973C1194.7 69.0038 1194.66 70.1208 1194.57 70.6567C1194.57 70.6567 1197.97 71.9067 1201.41 71.9067C1206.05 71.9067 1209.76 69.6727 1209.76 65.2939C1209.76 57.7884 1198.5 58.9057 1198.5 53.8558C1198.5 51.7562 1200.38 50.9516 1202.43 50.9516C1204.04 50.9516 1205.38 51.5324 1205.65 52.3821L1206.77 55.7331L1208.42 55.6439C1208.56 53.8564 1208.64 51.801 1208.91 50.1481C1207.48 49.5224 1204.49 49.1643 1202.61 49.1643C1198.23 49.1643 1194.7 51.0859 1194.7 55.3755C1194.7 62.8369 1205.7 61.3178 1205.7 66.8144C1205.7 68.7795 1204.49 70.1649 1201.76 70.1649C1199.26 70.1649 1198.01 68.8695 1197.52 67.573L1196.27 64.3569ZM1223.2 69.5188C1220.61 76.7445 1217.44 78.6164 1214.59 78.6164C1213.39 78.6164 1212.81 78.0807 1212.63 77.2348L1211.96 73.755L1210.08 73.8442C1209.73 75.8961 1209.37 78.1715 1208.88 80.0442C1210 80.8905 1211.87 81.3375 1213.34 81.3375C1216.42 81.3375 1221.1 80.9353 1225.38 70.7672L1232.56 53.8197C1233.14 52.4368 1233.37 52.303 1235.06 51.6335L1236 51.2776V49.7165L1231.76 49.9394L1227.21 49.7165V51.2776L1228.37 51.6335C1229.53 51.9911 1230.07 52.4368 1230.07 53.2397C1230.07 53.6408 1229.93 54.0425 1229.71 54.6663C1229.04 56.3622 1224.89 66.4412 1223.78 68.5825L1224.89 68.1804C1222.93 63.3193 1219.94 55.2014 1219.49 53.82C1219.41 53.5522 1219.36 53.3292 1219.36 53.1052C1219.36 52.3919 1219.85 51.8119 1220.92 51.5892L1222.39 51.2778V49.7167L1216.28 49.9397L1211.42 49.7167V51.2778L1212.22 51.5451C1213.34 51.9019 1213.61 52.2143 1214.28 53.7751C1217.98 62.2495 1219.72 66.8871 1222.08 72.9534L1223.2 69.5188Z" fill="#D0D5DD"/>
</g>
<g clip-path="url(#clip8_563_4191)">
<path d="M1345.46 71.8754H1339.28L1343.14 48.1373H1349.33L1345.46 71.8754ZM1334.08 48.1373L1328.19 64.4646L1327.49 60.9487L1327.49 60.9499L1325.42 50.2746C1325.42 50.2746 1325.16 48.1373 1322.48 48.1373H1312.74L1312.63 48.5392C1312.63 48.5392 1315.61 49.159 1319.09 51.2525L1324.46 71.8761H1330.9L1340.73 48.1373H1334.08ZM1382.69 71.8754H1388.37L1383.42 48.1367H1378.45C1376.16 48.1367 1375.6 49.9057 1375.6 49.9057L1366.38 71.8754H1372.83L1374.11 68.3494H1381.97L1382.69 71.8754ZM1375.89 63.4784L1379.14 54.5951L1380.97 63.4784H1375.89ZM1366.87 53.8458L1367.75 48.7482C1367.75 48.7482 1365.03 47.7131 1362.19 47.7131C1359.12 47.7131 1351.84 49.0536 1351.84 55.5717C1351.84 61.7043 1360.39 61.7805 1360.39 65.0018C1360.39 68.223 1352.72 67.6458 1350.19 65.6145L1349.27 70.9445C1349.27 70.9445 1352.03 72.285 1356.25 72.285C1360.46 72.285 1366.83 70.1013 1366.83 64.1579C1366.83 57.9859 1358.2 57.4112 1358.2 54.7278C1358.2 52.0437 1364.22 52.3885 1366.87 53.8458Z" fill="#D0D5DD"/>
<path d="M1327.49 60.9491L1325.42 50.2738C1325.42 50.2738 1325.16 48.1364 1322.48 48.1364H1312.74L1312.63 48.5384C1312.63 48.5384 1317.31 49.5086 1321.8 53.1439C1326.09 56.6185 1327.49 60.9491 1327.49 60.9491Z" fill="#D0D5DD"/>
</g>
<defs>
<clipPath id="clip0_563_4191">
<rect width="89.9971" height="89.9971" fill="white" transform="translate(0 14.9995)"/>
</clipPath>
<clipPath id="clip1_563_4191">
<rect width="89.9971" height="89.9971" fill="white" transform="translate(159.5 14.9995)"/>
</clipPath>
<clipPath id="clip2_563_4191">
<rect width="89.9971" height="89.9971" fill="white" transform="translate(319.001 14.9995)"/>
</clipPath>
<clipPath id="clip3_563_4191">
<rect width="89.9971" height="89.9971" fill="white" transform="translate(478.502 14.9995)"/>
</clipPath>
<clipPath id="clip4_563_4191">
<rect width="119.996" height="119.996" fill="white" transform="translate(638.002)"/>
</clipPath>
<clipPath id="clip5_563_4191">
<rect width="89.9971" height="89.9971" fill="white" transform="translate(827.502 14.9995)"/>
</clipPath>
<clipPath id="clip6_563_4191">
<rect width="89.9971" height="89.9971" fill="white" transform="translate(987.003 14.9995)"/>
</clipPath>
<clipPath id="clip7_563_4191">
<rect width="89.9971" height="89.9971" fill="white" transform="translate(1146 14.9995)"/>
</clipPath>
<clipPath id="clip8_563_4191">
<rect width="89.9971" height="89.9971" fill="white" transform="translate(1305.5 14.9995)"/>
</clipPath>
</defs>
</svg>
