<svg width="98" height="71" viewBox="0 0 98 71" fill="none" xmlns="http://www.w3.org/2000/svg">
<g clip-path="url(#clip0_122_14118)">
<path d="M69.4726 8.52485C70.0013 8.75743 70.5073 9.02513 70.961 9.36402C71.8097 9.9991 72.4581 10.936 72.4315 11.9385C72.4106 12.6998 72.0005 13.4232 71.4195 13.9681C70.8386 14.513 70.0972 14.8946 69.3292 15.1889C69.9073 15.5705 70.4532 16.0271 70.7475 16.6204C71.0417 17.2137 71.0351 17.9674 70.5804 18.4677C70.0004 19.1066 68.959 19.136 68.0524 19.1132C68.4464 19.1227 68.7074 20.5305 68.7255 20.7821C68.7748 21.4665 68.5783 22.0997 68.2043 22.6863C67.4468 23.8739 65.8045 24.4776 64.3597 24.639C62.7934 24.8146 61.1976 24.5147 59.7281 23.9888C58.9668 23.7163 57.9292 23.0309 57.0986 23.3641C56.735 23.5103 56.4379 23.7619 56.1151 23.9745C55.0453 24.6779 53.6403 24.9371 52.356 24.6684C51.2367 24.434 49.9732 23.5511 49.6201 22.5174C49.0268 22.6664 48.4088 22.7746 47.7984 22.7053C47.188 22.636 46.5814 22.3674 46.2454 21.8956C46.0223 21.5814 45.934 21.2045 45.8761 20.8343C45.7926 20.3027 45.7631 19.7549 45.9074 19.2347C46.0517 18.7145 46.3878 18.2218 46.8985 17.957C46.2549 17.7263 45.616 17.4491 45.11 17.0181C44.6041 16.5872 44.2443 15.9768 44.2775 15.3445C44.3107 14.7123 44.811 14.0896 45.4936 13.9871C44.53 12.8868 44.5063 11.2018 45.3796 10.0399C46.253 8.87799 47.9266 8.29513 49.4397 8.56377C49.5442 7.2661 50.5219 6.16587 51.6003 5.31816C52.0474 4.96692 52.5335 4.63562 53.0992 4.48469C54.0324 4.23502 55.0263 4.50937 55.9519 4.78181C56.0563 4.81219 56.8831 4.37267 57.073 4.33185C57.5305 4.23407 58.0109 4.22173 58.4751 4.28913C59.1908 4.3926 60.3043 4.74764 60.5274 5.45486C60.7059 5.19475 60.9413 4.99635 61.2365 4.84162C62.8826 3.97777 65.0432 4.27015 66.6275 5.22608C67.1297 5.5289 67.5977 5.90292 67.8929 6.38326C68.1882 6.8636 68.2907 7.4626 68.0629 7.97237C68.5366 8.14609 69.0131 8.32266 69.4735 8.52485H69.4726Z" fill="black"/>
<path d="M49.9374 14.1427C49.0451 14.1294 48.3075 15.0873 48.2904 16.2815C48.2723 17.4766 48.9805 18.4563 49.8719 18.4696C50.7642 18.4829 51.5009 17.525 51.5189 16.3299C51.5369 15.1357 50.8288 14.156 49.9374 14.1427ZM49.8814 17.9873C49.2435 17.9778 48.7375 17.2773 48.7498 16.4229C48.7631 15.5685 49.29 14.8841 49.9279 14.8936C50.5649 14.9031 51.0718 15.6037 51.0585 16.458C51.0462 17.3124 50.5193 17.9968 49.8814 17.9873Z" fill="#FF5B00"/>
<path d="M82.3412 42.3994C81.9292 41.9295 81.8372 41.6001 81.9473 40.985C81.9691 40.8635 81.8267 40.7837 81.7346 40.8644C81.2647 41.2764 80.9353 41.3685 80.3202 41.2584C80.1987 41.2366 80.119 41.3789 80.1996 41.471C80.6116 41.9409 80.7037 42.2703 80.5936 42.8855C80.5718 43.007 80.7142 43.0867 80.8062 43.006C81.2761 42.594 81.6055 42.502 82.2207 42.6121C82.3422 42.6339 82.4219 42.4915 82.3412 42.3994Z" fill="#FF9260"/>
<path d="M21.1537 58.6482C20.7417 58.1783 20.6497 57.8489 20.7598 57.2338C20.7816 57.1123 20.6392 57.0325 20.5471 57.1132C20.0772 57.5252 19.7478 57.6173 19.1327 57.5072C19.0112 57.4853 18.9315 57.6277 19.0121 57.7198C19.4241 58.1897 19.5162 58.5191 19.4061 59.1342C19.3843 59.2558 19.5267 59.3355 19.6187 59.2548C20.0886 58.8428 20.418 58.7507 21.0332 58.8609C21.1547 58.8827 21.2344 58.7403 21.1537 58.6482Z" fill="#FF9260"/>
<path d="M18.0447 18.8597C17.4646 18.6271 17.234 18.3746 17.0545 17.7756C17.0194 17.6579 16.8561 17.6503 16.8106 17.7642C16.578 18.3442 16.3255 18.5749 15.7265 18.7543C15.6088 18.7894 15.6012 18.9527 15.7151 18.9982C16.2951 19.2308 16.5258 19.4833 16.7052 20.0823C16.7403 20.2 16.9036 20.2076 16.9492 20.0937C17.1817 19.5137 17.4343 19.283 18.0333 19.1036C18.151 19.0685 18.1586 18.9052 18.0447 18.8597Z" fill="#FF9260"/>
<path d="M33.5599 54.8729C34.0013 55.0039 34.4475 55.0675 34.887 55.0675C36.7856 55.0675 38.555 53.8989 39.249 52.0355L47.0939 30.9632L63.6267 30.1382L64.0662 36.7918L73.1509 34.373L71.8238 25.4032C71.3207 22.824 68.9123 21.0716 66.3046 21.383L45.2361 23.9071C42.5753 24.1663 40.2685 25.8579 39.2214 28.3203L30.6437 48.4927C29.4818 51.0643 30.8554 54.0698 33.5599 54.8729Z" fill="#1A1A1A"/>
<path d="M36.5635 65.2343H72.2472C69.4259 59.7445 65.2006 52.9229 60.0555 48.9122L60.4001 47.5642L63.2518 38.7596L64.0662 28.811L55.3195 27.9358L51.7768 29.5885L47.8382 28.4978L43.3756 30.496L42.5753 35.7162L45.6558 39.3234L36.5635 65.2343Z" fill="#1A1A1A"/>
<path d="M62.7747 8.83129C62.8388 4.56626 59.5611 1.05878 55.4538 0.997127C51.3466 0.935473 47.9651 4.34299 47.9011 8.60803C47.8371 12.8731 51.1147 16.3805 55.222 16.4422C59.3292 16.5039 62.7107 13.0963 62.7747 8.83129Z" fill="black"/>
<path d="M59.3495 22.7603L55.3378 28.3203L52.5554 23.7533C52.5554 23.7533 52.0532 20.7877 51.6821 18.5588C51.6802 18.5455 51.6783 18.5322 51.6745 18.5179C51.459 17.2241 51.2881 16.1874 51.2891 16.1419L53.6547 15.2695L53.7952 15.2173L57.8069 13.7383L59.3514 22.7594L59.3495 22.7603Z" fill="#8E410F"/>
<path d="M57.3844 14.5464C57.3844 14.5464 55.8694 16.6586 54.604 17.4911C53.7904 18.0255 52.1909 18.4432 51.6735 18.5201C51.458 17.2262 51.2871 16.1896 51.2881 16.144L53.6537 15.2716L53.7942 15.2194L57.3854 14.5464H57.3844Z" fill="#72310B"/>
<path d="M59.5962 12.3854C59.5962 12.3854 57.1774 17.1034 52.2278 17.0692C47.2801 17.0341 46.6412 13.9612 47.8145 10.7469C47.9531 10.3682 48.0604 10.0388 48.1439 9.74638C48.2835 9.2575 48.3585 8.87683 48.3936 8.56262C48.5189 7.46714 48.1914 7.16622 48.6566 5.86284C50.1431 1.82742 53.8719 3.05295 53.8776 3.05485C54.3314 3.20389 55.0025 3.02352 55.4762 3.02257C56.0714 3.02067 56.4882 3.1175 56.9685 3.4507C57.4868 3.81048 58.0545 4.08957 58.5833 4.43132C59.1082 4.77021 59.4699 5.31985 60.0034 5.59704C60.2379 5.71855 60.4951 5.91126 60.479 6.17516C60.4685 6.33939 60.3518 6.47703 60.3119 6.63651C60.2341 6.94313 60.4477 7.23836 60.6261 7.49941C60.7087 7.61997 60.7885 7.77566 60.7201 7.90476C60.6631 8.01298 60.5208 8.0557 60.4629 8.16392C60.3831 8.31106 60.4951 8.48383 60.5929 8.61957C60.8302 8.94898 60.6033 9.49197 60.516 9.85555C60.4106 10.2922 60.2796 10.7232 60.1268 11.1456C59.974 11.5671 59.8069 11.9895 59.5971 12.3863L59.5962 12.3854Z" fill="#8E410F"/>
<path d="M55.23 9.52147C55.23 9.52147 55.0535 10.0426 54.2323 10.2885C54.1232 10.3217 54.0026 10.3502 53.8678 10.3711C53.7605 10.3882 53.6457 10.4015 53.5213 10.4091C52.4011 10.4765 51.8496 10.0217 51.8496 10.0217C51.8496 10.0217 52.2882 8.95095 53.3856 8.80571C53.4311 8.79906 53.4767 8.79432 53.5241 8.79147C53.957 8.76679 54.3007 8.85602 54.5627 8.98133C55.0202 9.19871 55.2291 9.52147 55.2291 9.52147H55.23Z" fill="#FF5B00"/>
<path d="M55.229 9.82151C55.229 9.82151 55.0506 10.2848 54.2123 10.5031C54.1003 10.5325 53.9779 10.5582 53.8402 10.5762C53.7311 10.5914 53.6143 10.6028 53.4871 10.6094C52.3442 10.6673 51.7803 10.261 51.7803 10.261C51.7803 10.261 52.2255 9.30795 53.3456 9.18169C53.3922 9.176 53.4387 9.1722 53.4871 9.16935C53.9285 9.14752 54.2798 9.22821 54.5474 9.34022C55.0154 9.53483 55.229 9.82246 55.229 9.82246V9.82151Z" fill="white"/>
<path d="M54.6787 9.78921C54.6739 10.1072 54.4841 10.3787 54.2126 10.5021C54.1072 10.5524 53.9886 10.5781 53.8652 10.5771C53.8576 10.5771 53.8481 10.5771 53.8405 10.5752C53.4104 10.5562 53.0706 10.1983 53.0772 9.76547C53.081 9.53195 53.1836 9.3231 53.3459 9.18071C53.3924 9.17502 53.4389 9.17122 53.4873 9.16837C53.9288 9.14654 54.28 9.22723 54.5477 9.33924C54.6322 9.4693 54.6806 9.62403 54.6777 9.78921H54.6787Z" fill="black"/>
<path d="M51.8545 10.2184C51.8545 10.2184 52.8674 8.11001 55.2596 9.74943" stroke="black" stroke-width="0.224981" stroke-linecap="round" stroke-linejoin="round"/>
<path d="M50.4178 9.67149C50.4178 9.67149 50.1558 9.81673 49.3441 9.74269C49.235 9.73415 49.1191 9.71706 48.991 9.69048C48.8904 9.66865 48.7831 9.64207 48.6673 9.60694C48.4936 9.55473 48.3388 9.49492 48.2012 9.43322C48.3407 8.94434 48.4157 8.56367 48.4508 8.24946C48.6189 8.23807 48.8011 8.25136 48.9957 8.29692C49.0384 8.30547 49.0812 8.31686 49.1248 8.33015C49.5245 8.45166 49.8093 8.63392 50.0105 8.81903C50.3627 9.13989 50.4178 9.67149 50.4178 9.67149Z" fill="#FF5B00"/>
<path d="M50.4048 9.77493C50.4048 9.77493 50.0982 10.13 49.2875 10.0559C49.1783 10.0474 49.0625 10.0303 48.9343 10.0037C48.8337 9.98188 48.7264 9.9553 48.6106 9.92017C48.4369 9.86796 48.2822 9.80816 48.1445 9.74646C48.2841 9.25757 48.3591 8.87691 48.3942 8.56269C48.5622 8.5513 48.7445 8.56459 48.9391 8.61016C48.9818 8.6187 49.0245 8.63009 49.0682 8.64338C49.4678 8.76489 49.7526 8.94716 49.9539 9.13227C50.3061 9.45313 50.4048 9.77493 50.4048 9.77493Z" fill="white"/>
<path d="M50.1307 9.75324C49.9817 10.0124 49.7016 10.1491 49.4216 10.1263C49.3124 10.1197 49.2023 10.0864 49.1017 10.0285C49.095 10.0247 49.0884 10.0209 49.0818 10.0162C48.7372 9.80356 48.6213 9.35359 48.8254 9.00046C48.9356 8.80965 49.1159 8.6853 49.3134 8.64258C49.3542 8.65872 49.395 8.6777 49.4358 8.69764C49.8089 8.88275 50.0605 9.10868 50.2294 9.32417C50.2399 9.47036 50.2086 9.61939 50.1307 9.75419V9.75324Z" fill="black"/>
<path d="M48.4248 8.53824C48.9963 8.48413 49.7225 8.70816 50.4553 9.722" stroke="black" stroke-width="0.211691" stroke-linecap="round" stroke-linejoin="round"/>
<path d="M52.1397 13.4137C52.1738 13.4194 51.9811 14.4019 51.1761 14.5262C49.9876 14.7095 49.5234 13.5722 49.5234 13.5722C49.5234 13.5722 50.411 13.1175 52.1397 13.4137Z" fill="#FF27E7"/>
<path d="M49.5241 13.5722C49.4909 13.5637 49.7671 12.9713 50.594 12.9087C51.4208 12.846 52.24 13.4099 52.24 13.4099C52.24 13.4099 51.2233 14.007 49.5241 13.5722Z" fill="#801478"/>
<path d="M49.3251 13.5447C49.4571 13.5874 49.5881 13.6301 49.7229 13.6615C49.8577 13.6928 49.9934 13.7184 50.1301 13.7412C50.357 13.7792 50.5905 13.8115 50.8212 13.7982C51.2038 13.7763 51.592 13.6843 51.9528 13.557C52.1331 13.4934 52.3097 13.4137 52.4701 13.3074C52.5081 13.2818 52.4758 13.2276 52.435 13.2466C52.2869 13.314 52.1274 13.3624 51.9718 13.408C51.7829 13.464 51.593 13.5181 51.4003 13.5618C51.2237 13.6017 51.0434 13.6368 50.863 13.652C50.6523 13.67 50.4377 13.6491 50.2289 13.6244C50.0779 13.6064 49.9279 13.5808 49.778 13.5552C49.6299 13.5295 49.4827 13.5115 49.3337 13.4944C49.3043 13.4906 49.3014 13.5352 49.327 13.5438L49.3251 13.5447Z" fill="black"/>
<path d="M51.8992 8.94551C52.3074 8.66358 52.765 8.45853 53.2653 8.42436C53.9374 8.37784 54.5696 8.60472 55.2103 8.768C55.3622 8.80692 55.4705 8.58099 55.3205 8.50599C54.6958 8.19463 53.9374 8.00667 53.2368 8.09305C52.6767 8.16235 52.2059 8.4329 51.7986 8.81356C51.7303 8.87716 51.8204 8.99867 51.8992 8.94456V8.94551Z" fill="black"/>
<path d="M50.0395 8.07762C49.917 7.99883 49.7993 7.91055 49.6655 7.8517C49.5316 7.79284 49.3968 7.74253 49.2582 7.70076C49.0057 7.62481 48.7466 7.58115 48.4817 7.58495C48.3953 7.58684 48.3213 7.65709 48.3213 7.74537C48.3213 7.84125 48.3953 7.89441 48.4817 7.9058C48.7048 7.93523 48.9459 7.95707 49.1766 7.99504C49.3048 8.01592 49.431 8.0444 49.5554 8.07857C49.693 8.11655 49.8354 8.14313 49.9655 8.20293C50.049 8.2409 50.1173 8.12984 50.0386 8.07857L50.0395 8.07762Z" fill="black"/>
<path d="M50.4216 8.41949C50.5555 8.53625 50.6817 8.65681 50.7785 8.80585C50.8754 8.95488 50.938 9.10867 50.9627 9.27669C50.9855 9.43238 50.9703 9.58996 50.9105 9.7352C50.8507 9.88044 50.7624 10.0114 50.6703 10.1367C50.4814 10.3969 50.2545 10.6389 50.1235 10.9351C49.9925 11.2313 49.9631 11.6138 50.2118 11.8436C50.526 12.135 51.051 12.1217 51.3823 11.8673C51.4392 11.8236 51.3927 11.7391 51.3253 11.7705C51.0168 11.9119 50.5953 11.9822 50.3229 11.724C50.209 11.6167 50.1814 11.4458 50.1919 11.2949C50.2023 11.1553 50.2564 11.0215 50.3238 10.9C50.4776 10.6209 50.6979 10.3845 50.8735 10.1206C50.958 9.99435 51.0348 9.85861 51.0804 9.71241C51.1288 9.55958 51.1326 9.39535 51.1041 9.23777C51.0396 8.88274 50.7937 8.50872 50.4453 8.38056C50.4245 8.37297 50.4064 8.4043 50.4235 8.41854L50.4216 8.41949Z" fill="black"/>
<path d="M21.4853 32.2246C21.4853 32.2246 18.7931 29.3179 17.8495 29.4242C16.1835 29.6121 10.0473 29.1109 9.1645 28.979C8.28167 28.847 6.22741 28.5708 7.57255 29.3729C8.34907 29.8362 9.22431 30.308 9.82521 30.6241C9.95526 30.6924 10.2951 30.8652 10.2951 30.8652C9.41702 30.7181 7.40263 30.4674 6.01762 30.1865C3.8333 29.7431 3.46498 29.6871 4.39528 30.5102C4.47312 30.5795 5.14807 30.7674 5.0408 30.8016C4.32124 31.0304 6.01762 31.8819 6.01762 31.8819C5.57145 32.2445 7.55831 33.1881 9.74737 34.0671C13.1088 35.4161 13.1809 35.3231 15.4013 35.7123C17.5951 36.0967 19.433 38.8639 19.433 38.8639L21.7834 33.7757" fill="#8E410F"/>
<path d="M8.10971 29.4101C8.15182 29.3124 7.92445 29.1205 7.60185 28.9815C7.27926 28.8425 6.9836 28.809 6.94149 28.9068C6.89937 29.0045 7.12675 29.1964 7.44934 29.3354C7.77194 29.4744 8.06759 29.5079 8.10971 29.4101Z" fill="#B57548"/>
<path d="M5.15653 30.6681C5.2037 30.5715 4.94138 30.3465 4.57062 30.1654C4.19987 29.9843 3.86108 29.9158 3.81392 30.0124C3.76675 30.109 4.02907 30.334 4.39982 30.5151C4.77058 30.6962 5.10937 30.7647 5.15653 30.6681Z" fill="#B57548"/>
<path d="M6.81054 32.6355C6.85333 32.567 6.66206 32.3702 6.38332 32.196C6.10458 32.0217 5.84392 31.936 5.80112 32.0045C5.75833 32.0729 5.9496 32.2697 6.22834 32.4439C6.50708 32.6182 6.76774 32.7039 6.81054 32.6355Z" fill="#B57548"/>
<path d="M6.1038 31.6798C6.15096 31.5832 5.88864 31.3582 5.51789 31.1771C5.14714 30.996 4.80835 30.9275 4.76118 31.0241C4.71402 31.1207 4.97634 31.3458 5.34709 31.5268C5.71784 31.7079 6.05663 31.7764 6.1038 31.6798Z" fill="#B57548"/>
<path d="M10.7238 32.1774L8.76349 31.9049C7.71927 31.7597 6.69879 31.4806 5.72672 31.0724L4.64453 30.6177" stroke="black" stroke-width="0.116762" stroke-linecap="round" stroke-linejoin="round"/>
<path d="M10.8277 33.5092L8.64627 32.971C8.48014 32.9301 8.31876 32.876 8.16118 32.8105L5.85156 31.8413" stroke="black" stroke-width="0.116762" stroke-linecap="round" stroke-linejoin="round"/>
<path d="M10.5772 30.8911C10.5772 30.8911 10.0798 30.7706 9.32227 30.3567" stroke="black" stroke-width="0.141444" stroke-linecap="round" stroke-linejoin="round"/>
<path d="M64.0664 36.7918L65.5976 51.9804C65.9954 55.0675 68.9268 57.6164 71.505 57.1208C73.995 56.6424 75.6933 54.3907 75.6933 51.9339C75.6933 51.6377 75.6686 51.3378 75.6173 51.0368L73.152 34.373L64.0674 36.7918H64.0664Z" fill="#1A1A1A"/>
<path d="M30.8268 53.7469L16.8809 38.1235L21.4859 32.2246L36.7428 48.3027C38.0984 49.7314 38.2199 51.9318 37.0285 53.501C35.4992 55.5154 32.5118 55.634 30.8278 53.7469H30.8268Z" fill="#1A1A1A"/>
<path d="M85.7536 65.2343H74.4153L66.6131 54.8055C65.0819 52.7588 65.5651 49.8056 67.7257 48.4386C68.3939 48.0152 71.6063 47.1295 72.2471 47.8121C79.3155 55.3447 83.7847 62.0381 85.7536 65.2343Z" fill="#1A1A1A"/>
<path d="M36.9416 48.8421L27.3623 38.4189" stroke="black" stroke-width="0.116762" stroke-linecap="round" stroke-linejoin="round"/>
<path d="M62.6418 21.8224L67.7935 21.4285L64.0666 38.2081L60.1916 48.3787L66.6345 56.5009L56.5806 61.9991L51.2712 52.9847L45.8707 62.4861L39.6709 56.3784L45.6552 39.3235L42.5748 35.7162L44.2987 24.0608L52.4521 23.2881L54.0479 32.7592L60.7859 22.0446L62.6418 21.8224Z" fill="#37353F"/>
<mask id="mask0_122_14118" style="mask-type:luminance" maskUnits="userSpaceOnUse" x="39" y="21" width="29" height="42">
<path d="M62.7365 21.7995L67.8883 21.4065L64.1614 38.1852L60.2864 48.3568L66.7292 56.4779L56.6753 61.9762L51.3659 52.9618L45.9654 62.4632L39.7656 56.3564L45.7499 39.3006L42.6695 35.6933L44.3934 24.0389L52.5468 23.2661L54.1426 32.7362L60.8806 22.0226L62.7365 21.7995Z" fill="white"/>
</mask>
<g mask="url(#mask0_122_14118)">
<path d="M44.048 26.1046C43.4262 25.8872 43.1718 25.6328 42.9544 25.011C42.9117 24.8886 42.7399 24.8886 42.6971 25.011C42.4798 25.6328 42.2253 25.8872 41.6036 26.1046C41.4811 26.1473 41.4811 26.3192 41.6036 26.3619C42.2253 26.5793 42.4798 26.8337 42.6971 27.4554C42.7399 27.5779 42.9117 27.5779 42.9544 27.4554C43.1718 26.8337 43.4262 26.5793 44.048 26.3619C44.1704 26.3192 44.1704 26.1473 44.048 26.1046Z" fill="#29282F"/>
<path d="M45.9236 25.1032V23.1742C45.9236 21.4987 44.6079 20.0976 42.9333 20.0416C41.1743 19.9827 39.7285 21.3905 39.7285 23.1372V25.1032C39.7285 25.3471 39.5311 25.5446 39.2871 25.5446V25.986L39.3156 25.9832C39.8842 25.9272 40.4376 25.7563 40.9313 25.4677C41.7116 25.0111 42.1378 24.3931 42.5185 23.3081C42.6201 23.0176 43.033 23.0176 43.1346 23.3081C43.5143 24.3941 43.9405 25.0111 44.7218 25.4677C45.2154 25.7572 45.7688 25.9272 46.3375 25.9832L46.3659 25.986V25.5446C46.122 25.5446 45.9245 25.3471 45.9245 25.1032" fill="#29282F"/>
<path d="M51.1261 26.1046C50.5043 25.8872 50.2499 25.6328 50.0325 25.011C49.9898 24.8886 49.818 24.8886 49.7753 25.011C49.5579 25.6328 49.3035 25.8872 48.6817 26.1046C48.5592 26.1473 48.5592 26.3192 48.6817 26.3619C49.3035 26.5793 49.5579 26.8337 49.7753 27.4554C49.818 27.5779 49.9898 27.5779 50.0325 27.4554C50.2499 26.8337 50.5043 26.5793 51.1261 26.3619C51.2486 26.3192 51.2486 26.1473 51.1261 26.1046Z" fill="#29282F"/>
<path d="M53.0007 25.1032V23.1742C53.0007 21.4987 51.685 20.0976 50.0105 20.0416C48.2514 19.9827 46.8057 21.3905 46.8057 23.1372V25.1032C46.8057 25.3471 46.6082 25.5446 46.3643 25.5446V25.986L46.3927 25.9832C46.9614 25.9272 47.5148 25.7563 48.0084 25.4677C48.7887 25.0111 49.215 24.3931 49.5956 23.3081C49.6972 23.0176 50.1101 23.0176 50.2117 23.3081C50.5914 24.3941 51.0177 25.0111 51.7989 25.4677C52.2926 25.7572 52.846 25.9272 53.4146 25.9832L53.4431 25.986V25.5446C53.1991 25.5446 53.0017 25.3471 53.0017 25.1032" fill="#29282F"/>
<path d="M58.2042 26.1046C57.5824 25.8872 57.328 25.6328 57.1106 25.011C57.0679 24.8886 56.8961 24.8886 56.8534 25.011C56.636 25.6328 56.3816 25.8872 55.7598 26.1046C55.6374 26.1473 55.6374 26.3192 55.7598 26.3619C56.3816 26.5793 56.636 26.8337 56.8534 27.4554C56.8961 27.5779 57.0679 27.5779 57.1106 27.4554C57.328 26.8337 57.5824 26.5793 58.2042 26.3619C58.3267 26.3192 58.3267 26.1473 58.2042 26.1046Z" fill="#29282F"/>
<path d="M60.0789 25.1032V23.1742C60.0789 21.4987 58.7631 20.0976 57.0886 20.0416C55.3296 19.9827 53.8838 21.3905 53.8838 23.1372V25.1032C53.8838 25.3471 53.6863 25.5446 53.4424 25.5446V25.986L53.4709 25.9832C54.0395 25.9272 54.5929 25.7563 55.0865 25.4677C55.8669 25.0111 56.2931 24.3931 56.6738 23.3081C56.7753 23.0176 57.1883 23.0176 57.2898 23.3081C57.6696 24.3941 58.0958 25.0111 58.8771 25.4677C59.3707 25.7572 59.9241 25.9272 60.4927 25.9832L60.5212 25.986V25.5446C60.2773 25.5446 60.0798 25.3471 60.0798 25.1032" fill="#29282F"/>
<path d="M65.2814 26.1046C64.6596 25.8872 64.4052 25.6328 64.1878 25.011C64.1451 24.8886 63.9733 24.8886 63.9305 25.011C63.7131 25.6328 63.4587 25.8872 62.837 26.1046C62.7145 26.1473 62.7145 26.3192 62.837 26.3619C63.4587 26.5793 63.7131 26.8337 63.9305 27.4554C63.9733 27.5779 64.1451 27.5779 64.1878 27.4554C64.4052 26.8337 64.6596 26.5793 65.2814 26.3619C65.4038 26.3192 65.4038 26.1473 65.2814 26.1046Z" fill="#29282F"/>
<path d="M67.157 25.1032V23.1742C67.157 21.4987 65.8413 20.0976 64.1667 20.0416C62.4077 19.9827 60.9619 21.3905 60.9619 23.1372V25.1032C60.9619 25.3471 60.7645 25.5446 60.5205 25.5446V25.986L60.549 25.9832C61.1176 25.9272 61.671 25.7563 62.1647 25.4677C62.945 25.0111 63.3712 24.3931 63.7519 23.3081C63.8535 23.0176 64.2664 23.0176 64.368 23.3081C64.7477 24.3941 65.1739 25.0111 65.9552 25.4677C66.4488 25.7572 67.0022 25.9272 67.5709 25.9832L67.5993 25.986V25.5446C67.3554 25.5446 67.1579 25.3471 67.1579 25.1032" fill="#29282F"/>
<path d="M74.2332 25.1032V23.1742C74.2332 21.4987 72.9174 20.0976 71.2429 20.0416C69.4839 19.9827 68.0381 21.3905 68.0381 23.1372V25.1032C68.0381 25.3471 67.8406 25.5446 67.5967 25.5446V25.986L67.6252 25.9832C68.1938 25.9272 68.7472 25.7563 69.2408 25.4677C70.0212 25.0111 70.4474 24.3931 70.8281 23.3081C70.9296 23.0176 71.3426 23.0176 71.4441 23.3081C71.8239 24.3941 72.2501 25.0111 73.0314 25.4677C73.525 25.7572 74.0784 25.9272 74.647 25.9832L74.6755 25.986V25.5446C74.4316 25.5446 74.2341 25.3471 74.2341 25.1032" fill="#29282F"/>
<path d="M44.048 34.3085C43.4262 34.0911 43.1718 33.8367 42.9544 33.2149C42.9117 33.0924 42.7399 33.0924 42.6971 33.2149C42.4798 33.8367 42.2253 34.0911 41.6036 34.3085C41.4811 34.3512 41.4811 34.523 41.6036 34.5657C42.2253 34.7831 42.4798 35.0375 42.6971 35.6593C42.7399 35.7818 42.9117 35.7818 42.9544 35.6593C43.1718 35.0375 43.4262 34.7831 44.048 34.5657C44.1704 34.523 44.1704 34.3512 44.048 34.3085Z" fill="#29282F"/>
<path d="M45.9236 33.307V31.3781C45.9236 29.7026 44.6079 28.3014 42.9333 28.2454C41.1743 28.1866 39.7285 29.5944 39.7285 31.3411V33.307C39.7285 33.551 39.5311 33.7485 39.2871 33.7485V34.1899L39.3156 34.187C39.8842 34.131 40.4376 33.9601 40.9313 33.6716C41.7116 33.215 42.1378 32.597 42.5185 31.5119C42.6201 31.2215 43.033 31.2215 43.1346 31.5119C43.5143 32.5979 43.9405 33.215 44.7218 33.6716C45.2154 33.9611 45.7688 34.131 46.3375 34.187L46.3659 34.1899V33.7485C46.122 33.7485 45.9245 33.551 45.9245 33.307" fill="#29282F"/>
<path d="M51.1261 34.3085C50.5043 34.0911 50.2499 33.8367 50.0325 33.2149C49.9898 33.0924 49.818 33.0924 49.7753 33.2149C49.5579 33.8367 49.3035 34.0911 48.6817 34.3085C48.5592 34.3512 48.5592 34.523 48.6817 34.5657C49.3035 34.7831 49.5579 35.0375 49.7753 35.6593C49.818 35.7818 49.9898 35.7818 50.0325 35.6593C50.2499 35.0375 50.5043 34.7831 51.1261 34.5657C51.2486 34.523 51.2486 34.3512 51.1261 34.3085Z" fill="#29282F"/>
<path d="M53.0007 33.307V31.3781C53.0007 29.7026 51.685 28.3014 50.0105 28.2454C48.2514 28.1866 46.8057 29.5944 46.8057 31.3411V33.307C46.8057 33.551 46.6082 33.7485 46.3643 33.7485V34.1899L46.3927 34.187C46.9614 34.131 47.5148 33.9601 48.0084 33.6716C48.7887 33.215 49.215 32.597 49.5956 31.5119C49.6972 31.2215 50.1101 31.2215 50.2117 31.5119C50.5914 32.5979 51.0177 33.215 51.7989 33.6716C52.2926 33.9611 52.846 34.131 53.4146 34.187L53.4431 34.1899V33.7485C53.1991 33.7485 53.0017 33.551 53.0017 33.307" fill="#29282F"/>
<path d="M58.2042 34.3085C57.5824 34.0911 57.328 33.8367 57.1106 33.2149C57.0679 33.0924 56.8961 33.0924 56.8534 33.2149C56.636 33.8367 56.3816 34.0911 55.7598 34.3085C55.6374 34.3512 55.6374 34.523 55.7598 34.5657C56.3816 34.7831 56.636 35.0375 56.8534 35.6593C56.8961 35.7818 57.0679 35.7818 57.1106 35.6593C57.328 35.0375 57.5824 34.7831 58.2042 34.5657C58.3267 34.523 58.3267 34.3512 58.2042 34.3085Z" fill="#29282F"/>
<path d="M60.0789 33.307V31.3781C60.0789 29.7026 58.7631 28.3014 57.0886 28.2454C55.3296 28.1866 53.8838 29.5944 53.8838 31.3411V33.307C53.8838 33.551 53.6863 33.7485 53.4424 33.7485V34.1899L53.4709 34.187C54.0395 34.131 54.5929 33.9601 55.0865 33.6716C55.8669 33.215 56.2931 32.597 56.6738 31.5119C56.7753 31.2215 57.1883 31.2215 57.2898 31.5119C57.6696 32.5979 58.0958 33.215 58.8771 33.6716C59.3707 33.9611 59.9241 34.131 60.4927 34.187L60.5212 34.1899V33.7485C60.2773 33.7485 60.0798 33.551 60.0798 33.307" fill="#29282F"/>
<path d="M65.2814 34.3085C64.6596 34.0911 64.4052 33.8367 64.1878 33.2149C64.1451 33.0924 63.9733 33.0924 63.9305 33.2149C63.7131 33.8367 63.4587 34.0911 62.837 34.3085C62.7145 34.3512 62.7145 34.523 62.837 34.5657C63.4587 34.7831 63.7131 35.0375 63.9305 35.6593C63.9733 35.7818 64.1451 35.7818 64.1878 35.6593C64.4052 35.0375 64.6596 34.7831 65.2814 34.5657C65.4038 34.523 65.4038 34.3512 65.2814 34.3085Z" fill="#29282F"/>
<path d="M67.157 33.307V31.3781C67.157 29.7026 65.8413 28.3014 64.1667 28.2454C62.4077 28.1866 60.9619 29.5944 60.9619 31.3411V33.307C60.9619 33.551 60.7645 33.7485 60.5205 33.7485V34.1899L60.549 34.187C61.1176 34.131 61.671 33.9601 62.1647 33.6716C62.945 33.215 63.3712 32.597 63.7519 31.5119C63.8535 31.2215 64.2664 31.2215 64.368 31.5119C64.7477 32.5979 65.1739 33.215 65.9552 33.6716C66.4488 33.9611 67.0022 34.131 67.5709 34.187L67.5993 34.1899V33.7485C67.3554 33.7485 67.1579 33.551 67.1579 33.307" fill="#29282F"/>
<path d="M74.2332 33.307V31.3781C74.2332 29.7026 72.9174 28.3014 71.2429 28.2454C69.4839 28.1866 68.0381 29.5944 68.0381 31.3411V33.307C68.0381 33.551 67.8406 33.7485 67.5967 33.7485V34.1899L67.6252 34.187C68.1938 34.131 68.7472 33.9601 69.2408 33.6716C70.0212 33.215 70.4474 32.597 70.8281 31.5119C70.9296 31.2215 71.3426 31.2215 71.4441 31.5119C71.8239 32.5979 72.2501 33.215 73.0314 33.6716C73.525 33.9611 74.0784 34.131 74.647 34.187L74.6755 34.1899V33.7485C74.4316 33.7485 74.2341 33.551 74.2341 33.307" fill="#29282F"/>
<path d="M44.048 42.5114C43.4262 42.294 43.1718 42.0396 42.9544 41.4178C42.9117 41.2953 42.7399 41.2953 42.6971 41.4178C42.4798 42.0396 42.2253 42.294 41.6036 42.5114C41.4811 42.5541 41.4811 42.7259 41.6036 42.7686C42.2253 42.986 42.4798 43.2404 42.6971 43.8622C42.7399 43.9846 42.9117 43.9846 42.9544 43.8622C43.1718 43.2404 43.4262 42.986 44.048 42.7686C44.1704 42.7259 44.1704 42.5541 44.048 42.5114Z" fill="#29282F"/>
<path d="M45.9236 41.5097V39.5807C45.9236 37.9052 44.6079 36.5041 42.9333 36.4481C41.1743 36.3892 39.7285 37.797 39.7285 39.5437V41.5097C39.7285 41.7536 39.5311 41.9511 39.2871 41.9511V42.3925L39.3156 42.3897C39.8842 42.3337 40.4376 42.1628 40.9313 41.8742C41.7116 41.4176 42.1378 40.7996 42.5185 39.7146C42.6201 39.4241 43.033 39.4241 43.1346 39.7146C43.5143 40.8006 43.9405 41.4176 44.7218 41.8742C45.2154 42.1637 45.7688 42.3337 46.3375 42.3897L46.3659 42.3925V41.9511C46.122 41.9511 45.9245 41.7536 45.9245 41.5097" fill="#29282F"/>
<path d="M51.1261 42.5114C50.5043 42.294 50.2499 42.0396 50.0325 41.4178C49.9898 41.2953 49.818 41.2953 49.7753 41.4178C49.5579 42.0396 49.3035 42.294 48.6817 42.5114C48.5592 42.5541 48.5592 42.7259 48.6817 42.7686C49.3035 42.986 49.5579 43.2404 49.7753 43.8622C49.818 43.9846 49.9898 43.9846 50.0325 43.8622C50.2499 43.2404 50.5043 42.986 51.1261 42.7686C51.2486 42.7259 51.2486 42.5541 51.1261 42.5114Z" fill="#29282F"/>
<path d="M53.0007 41.5097V39.5807C53.0007 37.9052 51.685 36.5041 50.0105 36.4481C48.2514 36.3892 46.8057 37.797 46.8057 39.5437V41.5097C46.8057 41.7536 46.6082 41.9511 46.3643 41.9511V42.3925L46.3927 42.3897C46.9614 42.3337 47.5148 42.1628 48.0084 41.8742C48.7887 41.4176 49.215 40.7996 49.5956 39.7146C49.6972 39.4241 50.1101 39.4241 50.2117 39.7146C50.5914 40.8006 51.0177 41.4176 51.7989 41.8742C52.2926 42.1637 52.846 42.3337 53.4146 42.3897L53.4431 42.3925V41.9511C53.1991 41.9511 53.0017 41.7536 53.0017 41.5097" fill="#29282F"/>
<path d="M58.2042 42.5114C57.5824 42.294 57.328 42.0396 57.1106 41.4178C57.0679 41.2953 56.8961 41.2953 56.8534 41.4178C56.636 42.0396 56.3816 42.294 55.7598 42.5114C55.6374 42.5541 55.6374 42.7259 55.7598 42.7686C56.3816 42.986 56.636 43.2404 56.8534 43.8622C56.8961 43.9846 57.0679 43.9846 57.1106 43.8622C57.328 43.2404 57.5824 42.986 58.2042 42.7686C58.3267 42.7259 58.3267 42.5541 58.2042 42.5114Z" fill="#29282F"/>
<path d="M60.0789 41.5097V39.5807C60.0789 37.9052 58.7631 36.5041 57.0886 36.4481C55.3296 36.3892 53.8838 37.797 53.8838 39.5437V41.5097C53.8838 41.7536 53.6863 41.9511 53.4424 41.9511V42.3925L53.4709 42.3897C54.0395 42.3337 54.5929 42.1628 55.0865 41.8742C55.8669 41.4176 56.2931 40.7996 56.6738 39.7146C56.7753 39.4241 57.1883 39.4241 57.2898 39.7146C57.6696 40.8006 58.0958 41.4176 58.8771 41.8742C59.3707 42.1637 59.9241 42.3337 60.4927 42.3897L60.5212 42.3925V41.9511C60.2773 41.9511 60.0798 41.7536 60.0798 41.5097" fill="#29282F"/>
<path d="M65.2814 42.5114C64.6596 42.294 64.4052 42.0396 64.1878 41.4178C64.1451 41.2953 63.9733 41.2953 63.9305 41.4178C63.7131 42.0396 63.4587 42.294 62.837 42.5114C62.7145 42.5541 62.7145 42.7259 62.837 42.7686C63.4587 42.986 63.7131 43.2404 63.9305 43.8622C63.9733 43.9846 64.1451 43.9846 64.1878 43.8622C64.4052 43.2404 64.6596 42.986 65.2814 42.7686C65.4038 42.7259 65.4038 42.5541 65.2814 42.5114Z" fill="#29282F"/>
<path d="M67.157 41.5097V39.5807C67.157 37.9052 65.8413 36.5041 64.1667 36.4481C62.4077 36.3892 60.9619 37.797 60.9619 39.5437V41.5097C60.9619 41.7536 60.7645 41.9511 60.5205 41.9511V42.3925L60.549 42.3897C61.1176 42.3337 61.671 42.1628 62.1647 41.8742C62.945 41.4176 63.3712 40.7996 63.7519 39.7146C63.8535 39.4241 64.2664 39.4241 64.368 39.7146C64.7477 40.8006 65.1739 41.4176 65.9552 41.8742C66.4488 42.1637 67.0022 42.3337 67.5709 42.3897L67.5993 42.3925V41.9511C67.3554 41.9511 67.1579 41.7536 67.1579 41.5097" fill="#29282F"/>
<path d="M74.2332 41.5097V39.5807C74.2332 37.9052 72.9174 36.5041 71.2429 36.4481C69.4839 36.3892 68.0381 37.797 68.0381 39.5437V41.5097C68.0381 41.7536 67.8406 41.9511 67.5967 41.9511V42.3925L67.6252 42.3897C68.1938 42.3337 68.7472 42.1628 69.2408 41.8742C70.0212 41.4176 70.4474 40.7996 70.8281 39.7146C70.9296 39.4241 71.3426 39.4241 71.4441 39.7146C71.8239 40.8006 72.2501 41.4176 73.0314 41.8742C73.525 42.1637 74.0784 42.3337 74.647 42.3897L74.6755 42.3925V41.9511C74.4316 41.9511 74.2341 41.7536 74.2341 41.5097" fill="#29282F"/>
<path d="M44.048 50.715C43.4262 50.4976 43.1718 50.2432 42.9544 49.6214C42.9117 49.4989 42.7399 49.4989 42.6971 49.6214C42.4798 50.2432 42.2253 50.4976 41.6036 50.715C41.4811 50.7577 41.4811 50.9295 41.6036 50.9722C42.2253 51.1896 42.4798 51.444 42.6971 52.0658C42.7399 52.1883 42.9117 52.1883 42.9544 52.0658C43.1718 51.444 43.4262 51.1896 44.048 50.9722C44.1704 50.9295 44.1704 50.7577 44.048 50.715Z" fill="#29282F"/>
<path d="M45.9236 49.7128V47.7838C45.9236 46.1084 44.6079 44.7072 42.9333 44.6512C41.1743 44.5923 39.7285 46.0001 39.7285 47.7468V49.7128C39.7285 49.9568 39.5311 50.1542 39.2871 50.1542V50.5956L39.3156 50.5928C39.8842 50.5368 40.4376 50.3659 40.9313 50.0773C41.7116 49.6207 42.1378 49.0027 42.5185 47.9177C42.6201 47.6272 43.033 47.6272 43.1346 47.9177C43.5143 49.0037 43.9405 49.6207 44.7218 50.0773C45.2154 50.3669 45.7688 50.5368 46.3375 50.5928L46.3659 50.5956V50.1542C46.122 50.1542 45.9245 49.9568 45.9245 49.7128" fill="#29282F"/>
<path d="M51.1261 50.715C50.5043 50.4976 50.2499 50.2432 50.0325 49.6214C49.9898 49.4989 49.818 49.4989 49.7753 49.6214C49.5579 50.2432 49.3035 50.4976 48.6817 50.715C48.5592 50.7577 48.5592 50.9295 48.6817 50.9722C49.3035 51.1896 49.5579 51.444 49.7753 52.0658C49.818 52.1883 49.9898 52.1883 50.0325 52.0658C50.2499 51.444 50.5043 51.1896 51.1261 50.9722C51.2486 50.9295 51.2486 50.7577 51.1261 50.715Z" fill="#29282F"/>
<path d="M53.0007 49.7128V47.7838C53.0007 46.1084 51.685 44.7072 50.0105 44.6512C48.2514 44.5923 46.8057 46.0001 46.8057 47.7468V49.7128C46.8057 49.9568 46.6082 50.1542 46.3643 50.1542V50.5956L46.3927 50.5928C46.9614 50.5368 47.5148 50.3659 48.0084 50.0773C48.7887 49.6207 49.215 49.0027 49.5956 47.9177C49.6972 47.6272 50.1101 47.6272 50.2117 47.9177C50.5914 49.0037 51.0177 49.6207 51.7989 50.0773C52.2926 50.3669 52.846 50.5368 53.4146 50.5928L53.4431 50.5956V50.1542C53.1991 50.1542 53.0017 49.9568 53.0017 49.7128" fill="#29282F"/>
<path d="M58.2042 50.715C57.5824 50.4976 57.328 50.2432 57.1106 49.6214C57.0679 49.4989 56.8961 49.4989 56.8534 49.6214C56.636 50.2432 56.3816 50.4976 55.7598 50.715C55.6374 50.7577 55.6374 50.9295 55.7598 50.9722C56.3816 51.1896 56.636 51.444 56.8534 52.0658C56.8961 52.1883 57.0679 52.1883 57.1106 52.0658C57.328 51.444 57.5824 51.1896 58.2042 50.9722C58.3267 50.9295 58.3267 50.7577 58.2042 50.715Z" fill="#29282F"/>
<path d="M60.0789 49.7128V47.7838C60.0789 46.1084 58.7631 44.7072 57.0886 44.6512C55.3296 44.5923 53.8838 46.0001 53.8838 47.7468V49.7128C53.8838 49.9568 53.6863 50.1542 53.4424 50.1542V50.5956L53.4709 50.5928C54.0395 50.5368 54.5929 50.3659 55.0865 50.0773C55.8669 49.6207 56.2931 49.0027 56.6738 47.9177C56.7753 47.6272 57.1883 47.6272 57.2898 47.9177C57.6696 49.0037 58.0958 49.6207 58.8771 50.0773C59.3707 50.3669 59.9241 50.5368 60.4927 50.5928L60.5212 50.5956V50.1542C60.2773 50.1542 60.0798 49.9568 60.0798 49.7128" fill="#29282F"/>
<path d="M65.2814 50.715C64.6596 50.4976 64.4052 50.2432 64.1878 49.6214C64.1451 49.4989 63.9733 49.4989 63.9305 49.6214C63.7131 50.2432 63.4587 50.4976 62.837 50.715C62.7145 50.7577 62.7145 50.9295 62.837 50.9722C63.4587 51.1896 63.7131 51.444 63.9305 52.0658C63.9733 52.1883 64.1451 52.1883 64.1878 52.0658C64.4052 51.444 64.6596 51.1896 65.2814 50.9722C65.4038 50.9295 65.4038 50.7577 65.2814 50.715Z" fill="#29282F"/>
<path d="M67.157 49.7128V47.7838C67.157 46.1084 65.8413 44.7072 64.1667 44.6512C62.4077 44.5923 60.9619 46.0001 60.9619 47.7468V49.7128C60.9619 49.9568 60.7645 50.1542 60.5205 50.1542V50.5956L60.549 50.5928C61.1176 50.5368 61.671 50.3659 62.1647 50.0773C62.945 49.6207 63.3712 49.0027 63.7519 47.9177C63.8535 47.6272 64.2664 47.6272 64.368 47.9177C64.7477 49.0037 65.1739 49.6207 65.9552 50.0773C66.4488 50.3669 67.0022 50.5368 67.5709 50.5928L67.5993 50.5956V50.1542C67.3554 50.1542 67.1579 49.9568 67.1579 49.7128" fill="#29282F"/>
<path d="M74.2332 49.7128V47.7838C74.2332 46.1084 72.9174 44.7072 71.2429 44.6512C69.4839 44.5923 68.0381 46.0001 68.0381 47.7468V49.7128C68.0381 49.9568 67.8406 50.1542 67.5967 50.1542V50.5956L67.6252 50.5928C68.1938 50.5368 68.7472 50.3659 69.2408 50.0773C70.0212 49.6207 70.4474 49.0027 70.8281 47.9177C70.9296 47.6272 71.3426 47.6272 71.4441 47.9177C71.8239 49.0037 72.2501 49.6207 73.0314 50.0773C73.525 50.3669 74.0784 50.5368 74.647 50.5928L74.6755 50.5956V50.1542C74.4316 50.1542 74.2341 49.9568 74.2341 49.7128" fill="#29282F"/>
<path d="M44.048 58.9178C43.4262 58.7005 43.1718 58.446 42.9544 57.8243C42.9117 57.7018 42.7399 57.7018 42.6971 57.8243C42.4798 58.446 42.2253 58.7005 41.6036 58.9178C41.4811 58.9606 41.4811 59.1324 41.6036 59.1751C42.2253 59.3925 42.4798 59.6469 42.6971 60.2687C42.7399 60.3911 42.9117 60.3911 42.9544 60.2687C43.1718 59.6469 43.4262 59.3925 44.048 59.1751C44.1704 59.1324 44.1704 58.9606 44.048 58.9178Z" fill="#29282F"/>
<path d="M45.9236 57.9162V55.9872C45.9236 54.3117 44.6079 52.9106 42.9333 52.8546C41.1743 52.7957 39.7285 54.2035 39.7285 55.9502V57.9162C39.7285 58.1601 39.5311 58.3576 39.2871 58.3576V58.799L39.3156 58.7962C39.8842 58.7401 40.4376 58.5693 40.9313 58.2807C41.7116 57.8241 42.1378 57.2061 42.5185 56.1211C42.6201 55.8306 43.033 55.8306 43.1346 56.1211C43.5143 57.207 43.9405 57.8241 44.7218 58.2807C45.2154 58.5702 45.7688 58.7401 46.3375 58.7962L46.3659 58.799V58.3576C46.122 58.3576 45.9245 58.1601 45.9245 57.9162" fill="#29282F"/>
<path d="M51.1261 58.9178C50.5043 58.7005 50.2499 58.446 50.0325 57.8243C49.9898 57.7018 49.818 57.7018 49.7753 57.8243C49.5579 58.446 49.3035 58.7005 48.6817 58.9178C48.5592 58.9606 48.5592 59.1324 48.6817 59.1751C49.3035 59.3925 49.5579 59.6469 49.7753 60.2687C49.818 60.3911 49.9898 60.3911 50.0325 60.2687C50.2499 59.6469 50.5043 59.3925 51.1261 59.1751C51.2486 59.1324 51.2486 58.9606 51.1261 58.9178Z" fill="#29282F"/>
<path d="M53.0007 57.9162V55.9872C53.0007 54.3117 51.685 52.9106 50.0105 52.8546C48.2514 52.7957 46.8057 54.2035 46.8057 55.9502V57.9162C46.8057 58.1601 46.6082 58.3576 46.3643 58.3576V58.799L46.3927 58.7962C46.9614 58.7401 47.5148 58.5693 48.0084 58.2807C48.7887 57.8241 49.215 57.2061 49.5956 56.1211C49.6972 55.8306 50.1101 55.8306 50.2117 56.1211C50.5914 57.207 51.0177 57.8241 51.7989 58.2807C52.2926 58.5702 52.846 58.7401 53.4146 58.7962L53.4431 58.799V58.3576C53.1991 58.3576 53.0017 58.1601 53.0017 57.9162" fill="#29282F"/>
<path d="M58.2042 58.9178C57.5824 58.7005 57.328 58.446 57.1106 57.8243C57.0679 57.7018 56.8961 57.7018 56.8534 57.8243C56.636 58.446 56.3816 58.7005 55.7598 58.9178C55.6374 58.9606 55.6374 59.1324 55.7598 59.1751C56.3816 59.3925 56.636 59.6469 56.8534 60.2687C56.8961 60.3911 57.0679 60.3911 57.1106 60.2687C57.328 59.6469 57.5824 59.3925 58.2042 59.1751C58.3267 59.1324 58.3267 58.9606 58.2042 58.9178Z" fill="#29282F"/>
<path d="M60.0789 57.9162V55.9872C60.0789 54.3117 58.7631 52.9106 57.0886 52.8546C55.3296 52.7957 53.8838 54.2035 53.8838 55.9502V57.9162C53.8838 58.1601 53.6863 58.3576 53.4424 58.3576V58.799L53.4709 58.7962C54.0395 58.7401 54.5929 58.5693 55.0865 58.2807C55.8669 57.8241 56.2931 57.2061 56.6738 56.1211C56.7753 55.8306 57.1883 55.8306 57.2898 56.1211C57.6696 57.207 58.0958 57.8241 58.8771 58.2807C59.3707 58.5702 59.9241 58.7401 60.4927 58.7962L60.5212 58.799V58.3576C60.2773 58.3576 60.0798 58.1601 60.0798 57.9162" fill="#29282F"/>
<path d="M65.2814 58.9178C64.6596 58.7005 64.4052 58.446 64.1878 57.8243C64.1451 57.7018 63.9733 57.7018 63.9305 57.8243C63.7131 58.446 63.4587 58.7005 62.837 58.9178C62.7145 58.9606 62.7145 59.1324 62.837 59.1751C63.4587 59.3925 63.7131 59.6469 63.9305 60.2687C63.9733 60.3911 64.1451 60.3911 64.1878 60.2687C64.4052 59.6469 64.6596 59.3925 65.2814 59.1751C65.4038 59.1324 65.4038 58.9606 65.2814 58.9178Z" fill="#29282F"/>
<path d="M67.157 57.9162V55.9872C67.157 54.3117 65.8413 52.9106 64.1667 52.8546C62.4077 52.7957 60.9619 54.2035 60.9619 55.9502V57.9162C60.9619 58.1601 60.7645 58.3576 60.5205 58.3576V58.799L60.549 58.7962C61.1176 58.7401 61.671 58.5693 62.1647 58.2807C62.945 57.8241 63.3712 57.2061 63.7519 56.1211C63.8535 55.8306 64.2664 55.8306 64.368 56.1211C64.7477 57.207 65.1739 57.8241 65.9552 58.2807C66.4488 58.5702 67.0022 58.7401 67.5709 58.7962L67.5993 58.799V58.3576C67.3554 58.3576 67.1579 58.1601 67.1579 57.9162" fill="#29282F"/>
<path d="M74.2332 57.9162V55.9872C74.2332 54.3117 72.9174 52.9106 71.2429 52.8546C69.4839 52.7957 68.0381 54.2035 68.0381 55.9502V57.9162C68.0381 58.1601 67.8406 58.3576 67.5967 58.3576V58.799L67.6252 58.7962C68.1938 58.7401 68.7472 58.5693 69.2408 58.2807C70.0212 57.8241 70.4474 57.2061 70.8281 56.1211C70.9296 55.8306 71.3426 55.8306 71.4441 56.1211C71.8239 57.207 72.2501 57.8241 73.0314 58.2807C73.525 58.5702 74.0784 58.7401 74.647 58.7962L74.6755 58.799V58.3576C74.4316 58.3576 74.2341 58.1601 74.2341 57.9162" fill="#29282F"/>
</g>
<path d="M50.4043 23.2881L52.1424 21.3164L52.4519 23.2881L55.8902 24.9133L59.3494 22.7603L59.0229 20.4497L60.7857 21.718L64.8601 21.5566L53.4638 37.721L50.4043 23.2881Z" fill="#FFDDBD"/>
<path d="M60.0919 26.9286L55.4717 24.7129L59.7065 22.4119L60.0919 26.9286Z" fill="#FF5B00"/>
<path d="M51.6904 26.9286L56.3097 24.7129L52.0749 22.4119L51.6904 26.9286Z" fill="#FF5B00"/>
<path d="M55.8902 24.9133L53.4639 37.7211" stroke="black" stroke-width="0.121509" stroke-miterlimit="10"/>
<path d="M54.7475 36.3047L50.6836 40.7891L51.2712 52.9846" stroke="black" stroke-width="0.121509" stroke-miterlimit="10"/>
<path d="M54.7478 27.3113C54.9591 27.3113 55.1304 27.14 55.1304 26.9287C55.1304 26.7174 54.9591 26.5461 54.7478 26.5461C54.5365 26.5461 54.3652 26.7174 54.3652 26.9287C54.3652 27.14 54.5365 27.3113 54.7478 27.3113Z" stroke="#1A1A1A" stroke-width="0.0949288" stroke-miterlimit="10"/>
<path d="M54.405 28.9346C54.6163 28.9346 54.7876 28.7633 54.7876 28.552C54.7876 28.3407 54.6163 28.1694 54.405 28.1694C54.1937 28.1694 54.0225 28.3407 54.0225 28.552C54.0225 28.7633 54.1937 28.9346 54.405 28.9346Z" stroke="#1A1A1A" stroke-width="0.0949288" stroke-miterlimit="10"/>
<path d="M54.2107 30.3916C54.422 30.3916 54.5933 30.2203 54.5933 30.009C54.5933 29.7977 54.422 29.6265 54.2107 29.6265C53.9994 29.6265 53.8281 29.7977 53.8281 30.009C53.8281 30.2203 53.9994 30.3916 54.2107 30.3916Z" stroke="#1A1A1A" stroke-width="0.0949288" stroke-miterlimit="10"/>
<path d="M53.9997 31.9531C54.211 31.9531 54.3823 31.7818 54.3823 31.5706C54.3823 31.3593 54.211 31.188 53.9997 31.188C53.7885 31.188 53.6172 31.3593 53.6172 31.5706C53.6172 31.7818 53.7885 31.9531 53.9997 31.9531Z" stroke="#1A1A1A" stroke-width="0.0949288" stroke-miterlimit="10"/>
<path d="M52.1427 43.0828C52.5527 43.0828 52.8851 42.7505 52.8851 42.3405C52.8851 41.9305 52.5527 41.5981 52.1427 41.5981C51.7327 41.5981 51.4004 41.9305 51.4004 42.3405C51.4004 42.7505 51.7327 43.0828 52.1427 43.0828Z" fill="#1A1A1A"/>
<path d="M52.4318 45.8092C52.8418 45.8092 53.1741 45.4768 53.1741 45.0668C53.1741 44.6568 52.8418 44.3245 52.4318 44.3245C52.0218 44.3245 51.6895 44.6568 51.6895 45.0668C51.6895 45.4768 52.0218 45.8092 52.4318 45.8092Z" fill="#1A1A1A"/>
<path d="M52.4318 48.5543C52.8418 48.5543 53.1741 48.2219 53.1741 47.8119C53.1741 47.4019 52.8418 47.0696 52.4318 47.0696C52.0218 47.0696 51.6895 47.4019 51.6895 47.8119C51.6895 48.2219 52.0218 48.5543 52.4318 48.5543Z" fill="#1A1A1A"/>
<path d="M52.5275 51.6165C52.9375 51.6165 53.2698 51.2842 53.2698 50.8742C53.2698 50.4642 52.9375 50.1318 52.5275 50.1318C52.1175 50.1318 51.7852 50.4642 51.7852 50.8742C51.7852 51.2842 52.1175 51.6165 52.5275 51.6165Z" fill="#1A1A1A"/>
<path d="M50.9844 4.64034C51.029 4.15715 51.3641 3.74801 51.7182 3.43949C52.7852 2.56235 54.36 2.33737 55.634 2.85093C54.7844 3.30944 53.8683 3.52588 52.9665 3.82585C52.2811 4.05748 51.6138 4.25683 50.9844 4.64034Z" fill="black"/>
<path d="M49.5234 4.64034C49.5681 4.15715 49.9032 3.74801 50.2572 3.43949C51.3242 2.56235 52.8991 2.33737 54.173 2.85093C53.3234 3.30944 52.4074 3.52588 51.5055 3.82585C50.8202 4.05748 50.1528 4.25683 49.5234 4.64034Z" fill="black"/>
<path d="M52.7461 4.63182C52.8552 4.14199 53.2122 3.75942 53.5881 3.45185C54.7253 2.59085 56.3239 2.34783 57.652 2.86045C56.8603 3.27718 55.9926 3.49267 55.162 3.76132C54.3352 4.01668 53.5321 4.25115 52.7451 4.63182H52.7461Z" fill="black"/>
<path d="M54.4726 4.71164C54.5941 4.24269 54.99 3.89051 55.3877 3.64179C56.581 2.94502 58.172 2.97065 59.3491 3.67977C58.4369 3.99873 57.498 4.06708 56.5592 4.22086C55.8443 4.34142 55.1552 4.4335 54.4717 4.71164H54.4726Z" fill="black"/>
<path d="M55.8623 5.07322C56.1176 4.51219 56.7337 4.20842 57.3024 4.05558C58.5393 3.7651 59.9366 4.10684 60.846 5.00867C59.9404 5.17384 59.0528 5.08936 58.152 5.05423C57.3783 5.02575 56.6416 4.95835 55.8613 5.07227L55.8623 5.07322Z" fill="black"/>
<path d="M56.6621 5.87639C56.9146 5.44351 57.4139 5.21853 57.8829 5.10272C58.8037 4.89577 59.7843 5.1217 60.5827 5.60204C60.9804 5.8593 61.3307 6.16022 61.5965 6.56462C61.1257 6.60354 60.6966 6.55608 60.2523 6.49247C59.0306 6.34154 57.8981 5.94948 56.6621 5.87639Z" fill="black"/>
<path d="M57.5068 7.0506C57.7356 6.74209 58.1125 6.58925 58.4741 6.50002C59.2972 6.3206 60.1686 6.54273 60.8787 6.96991C61.4815 7.34393 61.9855 7.86224 62.257 8.52959C61.9969 8.52295 61.7701 8.48118 61.5517 8.43277C60.6129 8.24671 59.6038 7.81003 58.7143 7.46354C58.3033 7.30596 57.9577 7.15787 57.5059 7.0506H57.5068Z" fill="black"/>
<path d="M58.2793 8.34186C58.5707 8.10264 58.9647 8.04283 59.3311 8.03809C60.1646 8.05043 60.9563 8.45103 61.5591 9.00921C62.066 9.49239 62.4552 10.0914 62.6014 10.7863C62.3565 10.7179 62.1495 10.6239 61.9511 10.5252C60.6392 9.91198 59.5903 8.957 58.2793 8.34186Z" fill="black"/>
<path d="M61.9488 10.5516C62.4861 11.6025 61.572 13.4109 60.2259 14.1C58.8798 14.7892 57.3647 14.6165 56.8265 13.5656C56.2892 12.5147 57.192 10.5858 58.5381 9.89659C59.8841 9.20741 61.4106 9.50074 61.9488 10.5516Z" fill="#8F410F"/>
<path d="M58.8368 14.0087C57.9445 13.9954 57.2069 14.9532 57.1898 16.1474C57.1718 17.3426 57.8799 18.3222 58.7713 18.3355C59.6636 18.3488 60.4003 17.391 60.4183 16.1958C60.4364 15.0016 59.7282 14.022 58.8368 14.0087ZM58.7808 17.8533C58.1429 17.8438 57.6369 17.1432 57.6492 16.2889C57.6625 15.4345 58.1894 14.7501 58.8273 14.7596C59.4643 14.7691 59.9712 15.4696 59.9579 16.324C59.9456 17.1784 59.4187 17.8628 58.7808 17.8533Z" fill="#FF5B00"/>
<path d="M58.0951 12.1958C58.2081 12.0344 58.3514 11.8873 58.4976 11.7563C58.6438 11.6253 58.8137 11.519 58.9903 11.4297C59.3947 11.2256 59.8532 11.1488 60.3032 11.1497C60.4408 11.1497 60.5784 11.1554 60.7151 11.1658C60.7816 11.1715 60.848 11.1763 60.9145 11.181C60.9904 11.1867 61.0597 11.1829 61.1347 11.1763C61.1803 11.1725 61.2135 11.1022 61.1613 11.0795C61.1015 11.0529 61.0464 11.0272 60.9819 11.014C60.9173 11.0007 60.8509 10.9902 60.7844 10.9817C60.6544 10.9636 60.5224 10.9551 60.3914 10.9503C60.1313 10.9418 59.8684 10.9627 59.613 11.0121C59.1763 11.0965 58.7596 11.2883 58.4321 11.5911C58.2536 11.7553 58.1264 11.9471 58.0391 12.173C58.0268 12.2063 58.0752 12.2214 58.0932 12.1958H58.0951Z" fill="black"/>
<path d="M59.3751 11.2028C59.3798 11.2721 59.4149 11.3309 59.4472 11.3917C59.4814 11.4553 59.5137 11.5208 59.5421 11.5882C59.5982 11.7201 59.6409 11.8606 59.6542 12.004C59.6807 12.2821 59.5697 12.5308 59.3969 12.7425C59.3504 12.7995 59.4121 12.9048 59.4833 12.8545C59.7405 12.6723 59.864 12.3429 59.8393 12.0343C59.826 11.8701 59.7728 11.7135 59.6988 11.5673C59.6618 11.4932 59.619 11.423 59.5735 11.3537C59.5308 11.2891 59.4871 11.2161 59.4159 11.18C59.3988 11.1714 59.3722 11.1819 59.3741 11.2037L59.3751 11.2028Z" fill="black"/>
<path d="M28.9142 28.8123C29.0141 26.6042 22.709 24.5254 14.8314 24.169C6.95381 23.8127 0.486791 25.3138 0.386909 27.5219C0.287026 29.73 6.59211 31.8089 14.4697 32.1652C22.3473 32.5216 28.8143 31.0204 28.9142 28.8123Z" fill="#FFDDBD"/>
<path d="M26.0468 28.6198C26.1266 26.8559 21.09 25.1951 14.7973 24.9105C8.5045 24.6258 3.33853 25.8251 3.25873 27.589C3.17894 29.353 8.21555 31.0137 14.5083 31.2984C20.8011 31.583 25.967 30.3838 26.0468 28.6198Z" stroke="#FF5B00" stroke-width="0.0949288" stroke-miterlimit="10"/>
<path d="M22.2262 26.734V26.9391C22.2262 27.1233 22.1066 27.2856 21.931 27.3406L13.3485 30.0214C13.0238 30.123 12.6754 30.1268 12.3479 30.0319L6.61234 28.3725C6.43197 28.3203 6.30762 28.1551 6.30762 27.9662V27.7707L7.18476 28.0241L15.7616 25.4819L21.3481 27.0084L22.2262 26.734Z" fill="#29282F"/>
<path d="M6.30762 27.7697L15.5812 25.0206C15.6989 24.9855 15.8242 24.9845 15.9429 25.0168L22.2262 26.7341L13.3637 29.5031C13.0286 29.6076 12.6707 29.6114 12.3346 29.5136L6.30857 27.7697H6.30762Z" fill="#84E6E1"/>
<path d="M16.9152 25.2825L16.6542 25.3897C16.5042 25.4514 16.5175 25.6679 16.6741 25.7106L18.9695 26.3419C19.1764 26.3988 19.3967 26.3912 19.5989 26.3191L20.083 26.1482L16.9152 25.2825Z" fill="#37353F"/>
<path d="M9.40018 28.3876L10.8906 28.8299C10.9323 28.8423 10.9769 28.8347 11.0111 28.809L11.0168 28.8052C11.1108 28.7378 11.0861 28.5907 10.975 28.5584L9.47897 28.1199C9.44859 28.1113 9.41632 28.1123 9.38689 28.1246C9.26538 28.1749 9.27487 28.3496 9.40018 28.3866V28.3876Z" fill="#37353F"/>
<path d="M93.5777 65.2341H85.7537H74.4154H14.2666" stroke="black" stroke-width="0.113915" stroke-linecap="round" stroke-linejoin="round"/>
</g>
<defs>
<clipPath id="clip0_122_14118">
<rect width="98" height="70.8615" fill="white" transform="translate(0 0.138428)"/>
</clipPath>
</defs>
</svg>
