<svg width="48" height="49" viewBox="0 0 48 49" fill="none" xmlns="http://www.w3.org/2000/svg">
<path d="M26.9156 26.4087H30V30.7212L26.9156 26.4087ZM18 23.4087H21.0844L18 19.0962V23.4087ZM43.5 24.9087C43.5 28.7654 42.3564 32.5356 40.2137 35.7423C38.071 38.9491 35.0255 41.4484 31.4623 42.9243C27.8992 44.4002 23.9784 44.7864 20.1957 44.034C16.4131 43.2816 12.9386 41.4244 10.2114 38.6973C7.4843 35.9701 5.62711 32.4956 4.8747 28.713C4.12228 24.9303 4.50845 21.0095 5.98436 17.4464C7.46027 13.8832 9.95963 10.8377 13.1664 8.69503C16.3731 6.55235 20.1433 5.40869 24 5.40869C29.1701 5.41415 34.1268 7.47036 37.7826 11.1261C41.4383 14.7819 43.4945 19.7386 43.5 24.9087ZM37.5 24.9087C37.5 24.5109 37.342 24.1293 37.0607 23.848C36.7794 23.5667 36.3978 23.4087 36 23.4087H33V14.4087C33 14.0109 32.842 13.6293 32.5607 13.348C32.2794 13.0667 31.8978 12.9087 31.5 12.9087C31.1022 12.9087 30.7207 13.0667 30.4393 13.348C30.158 13.6293 30 14.0109 30 14.4087V23.4087H24.7725L17.7206 13.5368C17.5359 13.2782 17.2738 13.0849 16.9722 12.9849C16.6705 12.8849 16.3449 12.8832 16.0422 12.9802C15.7396 13.0772 15.4756 13.2678 15.2882 13.5245C15.1009 13.7813 15 14.0909 15 14.4087V23.4087H12C11.6022 23.4087 11.2207 23.5667 10.9393 23.848C10.658 24.1293 10.5 24.5109 10.5 24.9087C10.5 25.3065 10.658 25.688 10.9393 25.9694C11.2207 26.2507 11.6022 26.4087 12 26.4087H15V35.4087C15 35.8065 15.158 36.188 15.4393 36.4694C15.7207 36.7507 16.1022 36.9087 16.5 36.9087C16.8978 36.9087 17.2794 36.7507 17.5607 36.4694C17.842 36.188 18 35.8065 18 35.4087V26.4087H23.2275L30.2794 36.2806C30.4182 36.4749 30.6013 36.6332 30.8136 36.7425C31.0259 36.8517 31.2612 36.9087 31.5 36.9087C31.6553 36.9091 31.8097 36.885 31.9575 36.8374C32.2603 36.7405 32.5244 36.5499 32.7117 36.2931C32.8991 36.0363 33.0001 35.7266 33 35.4087V26.4087H36C36.3978 26.4087 36.7794 26.2507 37.0607 25.9694C37.342 25.688 37.5 25.3065 37.5 24.9087Z" fill="#8877D8"/>
</svg>
