<svg width="48" height="49" viewBox="0 0 48 49" fill="none" xmlns="http://www.w3.org/2000/svg">
<path opacity="0.3" d="M14 8.90869H32V36.9087H14V8.90869Z" fill="#8877D8"/>
<path d="M31 2.90869H15C13.6739 2.90869 12.4021 3.43548 11.4645 4.37316C10.5268 5.31084 10 6.58261 10 7.90869V41.9087C10 43.2348 10.5268 44.5065 11.4645 45.4442C12.4021 46.3819 13.6739 46.9087 15 46.9087H31C32.3261 46.9087 33.5979 46.3819 34.5355 45.4442C35.4732 44.5065 36 43.2348 36 41.9087V7.90869C36 6.58261 35.4732 5.31084 34.5355 4.37316C33.5979 3.43548 32.3261 2.90869 31 2.90869ZM23 44.9087C21.34 44.9087 20 43.5687 20 41.9087C20 40.2487 21.34 38.9087 23 38.9087C24.66 38.9087 26 40.2487 26 41.9087C26 43.5687 24.66 44.9087 23 44.9087ZM32 36.9087H14V8.90869H32V36.9087Z" fill="#8877D8"/>
</svg>
