<svg width="104" height="41" viewBox="0 0 104 41" fill="none" xmlns="http://www.w3.org/2000/svg">
<path d="M37.6709 4.89844H44.4299C47.0711 4.89844 48.9532 6.54139 48.9532 8.84984C48.9532 10.4694 47.9523 11.8498 46.3354 12.3255C48.2383 12.8012 49.4757 14.2778 49.4757 16.1807C49.4757 18.6322 47.6196 20.3687 45.0018 20.3687H37.6709V4.89844ZM44.2401 11.5144C45.7869 11.5144 46.9047 10.5162 46.9047 9.15919C46.9047 7.8022 45.7869 6.80395 44.2401 6.80395H39.67V11.517H44.2401V11.5144ZM44.6196 18.4164C46.2392 18.4164 47.4272 17.3687 47.4272 15.9182C47.4272 14.4676 46.2366 13.4199 44.6196 13.4199H39.67V18.419H44.6196V18.4164Z" fill="#8877D8"/>
<path d="M50.5469 14.4182C50.5469 10.7762 52.9281 8.18176 56.2582 8.18176C59.9003 8.18176 62.1359 11.2051 61.8526 15.2033H52.6656C52.9983 17.2986 54.4749 18.7492 56.4974 18.7492C58.1169 18.7492 59.4011 17.7977 59.6871 16.4641L61.733 17.1296C61.1611 19.2249 59.019 20.6521 56.4506 20.6521C53.0009 20.6521 50.5469 18.0577 50.5469 14.4156V14.4182ZM59.8301 13.3472C59.5441 11.3481 58.1169 10.0379 56.3076 10.0379C54.4983 10.0379 53.0243 11.3949 52.689 13.3472H59.8301Z" fill="#8877D8"/>
<path d="M62.9473 17.2284C62.9473 15.5854 64.2575 14.2544 66.28 13.8957L69.9454 13.2302C70.351 13.16 70.6603 12.8507 70.6603 12.4685C70.6603 10.9685 69.6361 9.8975 68.1855 9.8975C66.6621 9.8975 65.5209 10.9919 65.4247 12.6583L63.3294 12.4191C63.5686 9.9443 65.5417 8.18176 68.0893 8.18176C70.6369 8.18176 72.5632 10.0145 72.5632 12.5621V17.9875L72.61 20.3687H71.0866L70.7539 18.5594C70.0156 19.8436 68.5884 20.6547 66.8519 20.6547C64.4966 20.6547 62.9499 19.2977 62.9499 17.2284H62.9473ZM67.2314 18.7985C69.2305 18.7985 70.6577 17.4182 70.6577 15.5152V14.6834C70.4445 14.7302 70.182 14.803 69.896 14.8497L66.7557 15.4217C65.7081 15.6114 65.0425 16.2795 65.0425 17.1348C65.0425 18.1357 65.9004 18.8012 67.2314 18.8012V18.7985Z" fill="#8877D8"/>
<path d="M74.5833 15.9909V8.47025H76.4862V15.7049C76.4862 17.4415 77.7964 18.7049 79.6266 18.7049C81.5789 18.7049 82.9593 17.3011 82.9593 15.3254V8.47025H84.8622V17.99L84.909 20.3712H83.2426L82.9567 18.4683C82.4341 19.8019 81.0044 20.6572 79.195 20.6572C76.481 20.6572 74.5781 18.7543 74.5781 15.9935L74.5833 15.9909Z" fill="#8877D8"/>
<path d="M88.0308 17.7977V10.3238H86.1279V8.46773H86.8428C87.6279 8.46773 88.127 7.89581 88.127 6.99115V5.42099H89.9363V8.46773H92.6009V10.3238H89.9363V17.322C89.9363 18.6556 91.3167 19.0351 92.5541 18.5594L92.6503 20.4623C90.6512 21.0342 88.0334 20.4623 88.0334 17.7977H88.0308Z" fill="#8877D8"/>
<path d="M96.8585 21.7022L97.524 19.9891L92.8604 8.47025H95.0986L98.5743 17.6105L101.811 8.47025H104L98.7641 22.0844C98.0258 23.9873 96.7182 25.2247 95.0986 25.4171L94.5761 23.418C95.6237 23.3218 96.4322 22.7993 96.8611 21.7048L96.8585 21.7022Z" fill="#8877D8"/>
<path d="M37.6709 24.4735H44.4299C47.0711 24.4735 48.9532 26.1165 48.9532 28.4249C48.9532 30.0445 47.9523 31.4249 46.3354 31.9006C48.2383 32.3763 49.4757 33.8529 49.4757 35.7558C49.4757 38.2073 47.6196 39.9438 45.0018 39.9438H37.6709V24.4735ZM44.2401 31.0895C45.7869 31.0895 46.9047 30.0913 46.9047 28.7343C46.9047 27.3773 45.7869 26.3791 44.2401 26.3791H39.67V31.0921H44.2401V31.0895ZM44.6196 37.9915C46.2392 37.9915 47.4272 36.9438 47.4272 35.4933C47.4272 34.0427 46.2366 32.995 44.6196 32.995H39.67V37.9941H44.6196V37.9915Z" fill="#8877D8"/>
<path d="M51.0228 35.566V28.0453H52.9257V35.28C52.9257 37.0166 54.2359 38.28 56.066 38.28C58.0183 38.28 59.3987 36.8762 59.3987 34.9005V28.0453H61.3016V37.5651L61.3484 39.9463H59.6821L59.3961 38.0434C58.8736 39.377 57.4438 40.2323 55.6345 40.2323C52.9205 40.2323 51.0176 38.3294 51.0176 35.5686L51.0228 35.566Z" fill="#8877D8"/>
<path d="M64.4674 37.3727V29.8988H62.5645V28.0427H63.2793C64.0644 28.0427 64.5635 27.4708 64.5635 26.5661V24.996H66.3729V28.0427H69.0375V29.8988H66.3729V36.897C66.3729 38.2306 67.7533 38.6101 68.9907 38.1344L69.0869 40.0373C67.0878 40.6092 64.47 40.0373 64.47 37.3727H64.4674Z" fill="#8877D8"/>
<path d="M70.7754 23.7611H72.6783V39.9463H70.7754V23.7611Z" fill="#8877D8"/>
<path d="M74.5133 33.9932C74.5133 30.3511 76.8946 27.7567 80.2247 27.7567C83.8667 27.7567 86.1024 30.7801 85.8164 34.7782H76.6294C76.9622 36.8735 78.4387 38.3241 80.4612 38.3241C82.0808 38.3241 83.365 37.3727 83.6509 36.0391L85.6968 36.7046C85.1249 38.7998 82.9828 40.227 80.4144 40.227C76.9622 40.227 74.5107 37.6326 74.5107 33.9906L74.5133 33.9932ZM83.7965 32.9221C83.5106 30.923 82.0834 29.6128 80.2741 29.6128C78.4647 29.6128 76.9908 30.9698 76.6554 32.9221H83.7965Z" fill="#8877D8"/>
<path d="M87.6719 28.0453H89.2914L89.4812 29.9482C90.0765 28.2117 91.9092 27.3772 93.9551 27.9491L93.8589 30.1874C91.956 29.2359 89.5748 30.021 89.5748 32.7116V39.9463H87.6719V28.0453Z" fill="#8877D8"/>
<path d="M94.5498 38.5633C94.5498 37.6586 95.1919 36.9931 96.0732 36.9931C96.9544 36.9931 97.5966 37.6586 97.5966 38.5633C97.5966 39.4679 96.9544 40.1334 96.0732 40.1334C95.1919 40.1334 94.5498 39.4679 94.5498 38.5633Z" fill="#8877D8"/>
<path d="M18.2447 3.57004C18.4474 1.52155 16.7395 -0.186388 14.691 0.0163814C13.1754 0.167158 11.9484 1.39157 11.7976 2.90974C11.5949 4.95823 13.3028 6.66617 15.3513 6.4634C16.8669 6.31262 18.0939 5.08821 18.2447 3.57004Z" fill="#8877D8"/>
<path d="M20.2116 34.0843C17.573 33.1614 16.4941 32.08 15.5687 29.4414C15.3867 28.9214 14.6562 28.9214 14.4743 29.4414C13.5514 32.08 12.4699 33.1588 9.83135 34.0843C9.31143 34.2662 9.31143 34.9967 9.83135 35.1787C12.4699 36.1016 13.5488 37.183 14.4743 39.8216C14.6562 40.3415 15.3867 40.3415 15.5687 39.8216C16.4915 37.183 17.573 36.1042 20.2116 35.1787C20.7315 34.9967 20.7315 34.2662 20.2116 34.0843Z" fill="#8877D8"/>
<path d="M28.1719 29.8312V21.6425C28.1719 14.5299 22.5854 8.57943 15.478 8.34027C8.00938 8.08811 1.87431 14.0698 1.87431 21.4813V29.8312C1.87431 30.8659 1.03464 31.7055 0 31.7055V33.5798L0.122174 33.5668C2.53721 33.3277 4.88725 32.6024 6.97993 31.378C10.2918 29.4387 12.1037 26.8157 13.7155 22.2066C14.147 20.9744 15.9018 20.9744 16.3307 22.2066C17.9425 26.8157 19.7544 29.4387 23.0663 31.378C25.1616 32.605 27.509 33.3303 29.924 33.5668L30.0462 33.5798V31.7055C29.0116 31.7055 28.1719 30.8659 28.1719 29.8312Z" fill="#8877D8"/>
</svg>
