<svg width="170" height="170" viewBox="0 0 170 170" fill="none" xmlns="http://www.w3.org/2000/svg">
<path d="M92.5986 10.2769C92.5986 14.4728 89.1966 17.8748 85.0008 17.8748C80.8049 17.8748 77.4032 14.4728 77.4032 10.2769C77.4032 6.08107 80.8049 2.67908 85.0008 2.67908C89.1966 2.67908 92.5986 6.08107 92.5986 10.2769ZM92.5986 159.723C92.5986 163.919 89.1966 167.321 85.0008 167.321C80.8049 167.321 77.4032 163.919 77.4032 159.723C77.4032 155.527 80.8052 152.125 85.0008 152.125C89.1966 152.125 92.5986 155.527 92.5986 159.723ZM47.2262 20.0818C49.6926 23.4762 48.9398 28.2282 45.5455 30.6945C42.1511 33.1609 37.3991 32.4078 34.9328 29.0135C32.4664 25.6191 33.2192 20.8671 36.6135 18.4008C40.0082 15.9344 44.7602 16.6875 47.2262 20.0818ZM135.069 140.986C137.535 144.381 136.782 149.133 133.388 151.599C129.994 154.065 125.242 153.312 122.775 149.918C120.309 146.524 121.062 141.772 124.456 139.305C127.85 136.839 132.602 137.592 135.069 140.986ZM16.2826 54.6831C20.2729 55.9797 22.4574 60.2666 21.1608 64.2569C19.8642 68.2473 15.5773 70.4314 11.587 69.1348C7.59664 67.8382 5.4122 63.5514 6.70879 59.561C8.00537 55.5707 12.2922 53.3866 16.2826 54.6831ZM158.415 100.865C162.405 102.161 164.589 106.448 163.293 110.438C161.996 114.429 157.709 116.613 153.719 115.316C149.729 114.02 147.544 109.733 148.841 105.743C150.137 101.752 154.424 99.5681 158.415 100.865ZM11.587 100.865C15.5773 99.5681 19.8642 101.752 21.1608 105.743C22.4574 109.733 20.2729 114.02 16.2826 115.317C12.2922 116.613 8.00537 114.429 6.70879 110.439C5.4122 106.448 7.59664 102.161 11.587 100.865ZM153.719 54.6831C157.709 53.3866 161.996 55.5707 163.292 59.5613C164.589 63.5517 162.405 67.8386 158.414 69.1351C154.424 70.4317 150.137 68.2476 148.84 64.2573C147.544 60.2666 149.728 55.9797 153.719 54.6831ZM34.9328 140.986C37.3991 137.592 42.1508 136.839 45.5455 139.306C48.9398 141.772 49.6926 146.524 47.2262 149.918C44.7599 153.313 40.0082 154.066 36.6135 151.599C33.2192 149.133 32.4668 144.381 34.9328 140.986ZM122.775 20.0818C125.242 16.6875 129.993 15.9344 133.388 18.4011C136.782 20.8674 137.535 25.6191 135.069 29.0138C132.602 32.4085 127.851 33.1612 124.456 30.6949C121.061 28.2282 120.309 23.4762 122.775 20.0818Z" fill="#8877D8"/>
<path d="M133.376 84.9844C133.376 111.728 111.728 133.376 85.0149 133.376C58.302 133.376 36.623 111.728 36.623 84.9844C36.623 58.2715 58.302 36.6234 85.0149 36.6234C111.728 36.6237 133.376 58.2715 133.376 84.9844Z" fill="white"/>
<path d="M93.3002 62.1117V68.3462C93.3002 72.9299 89.5844 76.646 85.0004 76.646C80.4167 76.646 76.7006 72.9303 76.7006 68.3462V62.1117C76.7006 57.528 80.4164 53.8119 85.0004 53.8119C89.5841 53.8119 93.3002 57.528 93.3002 62.1117ZM106.901 105.976C92.3008 112.896 77.7004 112.896 63.0996 105.976C63.0996 93.8728 72.9098 84.0629 84.9878 84.0629C97.091 84.0629 106.901 93.8728 106.901 105.976Z" fill="#8877D8"/>
<path d="M159.236 98.3383C154.739 96.8774 149.979 98.7338 147.51 102.517L134.235 98.2039C135.37 93.9791 136.032 89.5624 136.032 84.984C136.032 80.4163 135.372 76.0092 134.241 71.7934L147.498 67.486C149.994 71.3157 154.756 73.1169 159.234 71.661C164.613 69.9128 167.572 64.1421 165.819 58.74C164.071 53.364 158.273 50.409 152.898 52.1568C148.4 53.619 145.641 57.9175 145.868 62.4305L132.602 66.7409C129.361 58.3163 123.982 50.9525 117.084 45.3588L125.264 34.1003C129.734 35.8195 134.549 34.246 137.217 30.5744C140.535 26.0063 139.55 19.5978 134.948 16.2516C130.362 12.923 123.961 13.9357 120.627 18.5207C117.998 22.1405 117.906 27.1738 120.976 30.9649L112.781 42.2433C105.478 37.4827 96.8886 34.5774 87.6558 34.1013V20.137C92.0177 18.9586 95.254 15.0065 95.254 10.2773C95.254 4.62385 90.6534 0.0235596 85.0002 0.0235596C79.347 0.0235596 74.7464 4.62419 74.7464 10.2773C74.7464 15.0068 77.9827 18.9586 82.3446 20.137V34.1032C73.1131 34.5844 64.5248 37.4903 57.2228 42.25L49.0243 30.9659C52.0929 27.1774 52.0042 22.1438 49.3736 18.5214C46.0469 13.9466 39.647 12.913 35.0521 16.2523C30.4773 19.5789 29.4464 25.9801 32.783 30.5751C35.4681 34.2699 40.2948 35.8092 44.7361 34.1013L52.9203 45.3657C46.0214 50.9585 40.6428 58.3199 37.4005 66.7413L24.1326 62.4302C24.3583 57.9179 21.6005 53.6197 17.1028 52.1578C11.7295 50.41 5.92961 53.365 4.18179 58.741C2.429 64.1421 5.3864 69.9135 10.766 71.662C15.2315 73.1136 20.0004 71.3276 22.5033 67.486L35.7606 71.7934C34.6284 76.0096 33.968 80.4166 33.968 84.9847C33.968 89.5634 34.6304 93.9804 35.7663 98.2052L22.4917 102.519C20.0227 98.7345 15.2643 96.8777 10.7646 98.339C5.3874 100.087 2.43498 105.883 4.18146 111.26C5.92629 116.628 11.7109 119.589 17.1025 117.843C21.6002 116.381 24.3583 112.083 24.1322 107.571L37.4068 103.257C40.6504 111.678 46.0277 119.038 52.9233 124.63L44.7261 135.913C40.1829 134.169 35.4213 135.795 32.7826 139.425C29.4653 143.993 30.4501 150.402 35.0517 153.748C39.6643 157.098 46.0606 156.034 49.3732 151.479C51.9973 147.867 52.0992 142.831 49.0239 139.034L57.2251 127.747C64.5268 132.508 73.1138 135.416 82.3443 135.897V149.863C77.9824 151.042 74.7461 154.994 74.7461 159.723C74.7461 165.376 79.3467 169.977 84.9999 169.977C90.653 169.977 95.2536 165.376 95.2536 159.723C95.2536 154.993 92.0173 151.042 87.6554 149.863V135.898C96.8876 135.422 105.476 132.516 112.779 127.753L120.975 139.035C117.902 142.829 118 147.865 120.626 151.479C123.939 156.034 130.335 157.098 134.948 153.748C139.523 150.421 140.554 144.02 137.217 139.425C134.581 135.797 129.82 134.168 125.273 135.913L117.08 124.636C123.975 119.043 129.352 111.68 132.595 103.257L145.867 107.569C145.641 112.082 148.399 116.381 152.897 117.843C158.222 119.574 164.055 116.686 165.818 111.26C167.565 105.882 164.613 100.086 159.236 98.3383ZM154.539 57.209C157.138 56.3636 159.925 57.791 160.767 60.3819C161.609 62.9707 160.198 65.7654 157.593 66.6098C155.002 67.4551 152.208 66.0287 151.366 63.4369C150.524 60.845 151.947 58.052 154.539 57.209ZM124.924 21.6438C126.524 19.4384 129.611 18.9407 131.826 20.5494C134.031 22.1495 134.529 25.2383 132.92 27.4527C131.322 29.6547 128.237 30.1567 126.017 28.5457C123.811 26.9447 123.316 23.8524 124.924 21.6438ZM37.0808 27.4527C35.4731 25.24 35.9685 22.1508 38.1752 20.5494C40.3888 18.9414 43.476 19.4374 45.0771 21.6438C46.6174 23.7601 46.285 26.8019 44.0212 28.4664C41.9902 29.9598 38.8933 29.9505 37.0808 27.4527ZM12.4082 66.6098C9.80839 65.7674 8.38996 62.9757 9.23398 60.3819C10.082 57.7728 12.889 56.3713 15.4619 57.209C18.4923 58.1944 19.2856 60.9842 18.5727 63.317C17.8406 65.7116 15.5223 67.6245 12.4082 66.6098ZM15.4619 112.791C12.8701 113.635 10.0783 112.21 9.23398 109.618C8.39128 107.026 9.81504 104.233 12.4069 103.39C15.4778 102.389 17.7748 104.242 18.5378 106.592C19.3008 108.944 18.5292 111.795 15.4619 112.791ZM45.0771 148.356C43.4797 150.557 40.3944 151.063 38.1752 149.451C35.9701 147.851 35.4718 144.762 37.0808 142.547C38.9634 139.953 41.8995 140.118 43.8967 141.575C45.8936 143.032 46.9514 145.781 45.0771 148.356ZM132.92 142.547C134.528 144.76 134.033 147.849 131.826 149.451C129.597 151.068 126.516 150.55 124.924 148.356C123.319 146.152 123.806 143.059 126.017 141.454C128.225 139.85 131.316 140.336 132.92 142.547ZM80.0576 10.2773C80.0576 7.5517 82.2749 5.3344 85.0005 5.3344C87.7262 5.3344 89.9435 7.5517 89.9435 10.2773C89.9435 13.4841 87.4722 15.1107 85.0009 15.1223C82.5292 15.134 80.0576 13.5306 80.0576 10.2773ZM89.9431 159.723C89.9431 162.448 87.7258 164.666 85.0002 164.666C82.2745 164.666 80.0572 162.448 80.0572 159.723C80.0572 156.998 82.2745 154.781 85.0002 154.781C87.7258 154.781 89.9431 156.998 89.9431 159.723ZM85.0161 130.721C59.7964 130.721 39.2798 110.204 39.2798 84.9844C39.2798 59.7829 59.7967 39.2793 85.0161 39.2793C110.218 39.2793 130.721 59.7829 130.721 84.9844C130.721 110.204 110.218 130.721 85.0161 130.721ZM160.767 109.618C159.924 112.209 157.137 113.634 154.539 112.791C151.947 111.95 150.524 109.155 151.366 106.563C152.214 103.954 155.021 102.552 157.594 103.39C160.186 104.233 161.61 107.026 160.767 109.618Z" fill="#8877D8"/>
<path d="M85 79.3013C91.041 79.3013 95.9554 74.3869 95.9554 68.346V62.1117C95.9554 56.0708 91.041 51.1564 85 51.1564C78.9591 51.1564 74.0447 56.0708 74.0447 62.1117V68.346C74.0447 74.3869 78.9591 79.3013 85 79.3013ZM79.3558 62.1117C79.3558 58.9999 81.8882 56.4675 85 56.4675C88.1118 56.4675 90.6442 58.9999 90.6442 62.1117V68.346C90.6442 71.4578 88.1118 73.9902 85 73.9902C81.8882 73.9902 79.3558 71.4578 79.3558 68.346V62.1117ZM84.9871 81.4071C71.4542 81.4071 60.4443 92.4285 60.4443 105.977C60.4443 107.003 61.0357 107.938 61.9627 108.377C77.0997 115.549 92.5969 115.693 108.037 108.377C108.964 107.937 109.556 107.003 109.556 105.977C109.556 92.4285 98.5343 81.4071 84.9871 81.4071ZM65.8279 104.303C66.6772 94.4642 74.9458 86.7179 84.9871 86.7179C95.0427 86.7179 103.322 94.4639 104.172 104.303C91.2887 109.956 78.7114 109.956 65.8279 104.303Z" fill="#8877D8"/>
</svg>
