<svg width="48" height="49" viewBox="0 0 48 49" fill="none" xmlns="http://www.w3.org/2000/svg">
<path d="M31 15.9087C31 16.8279 30.8189 17.7382 30.4672 18.5875C30.1154 19.4368 29.5998 20.2084 28.9497 20.8584C28.2997 21.5084 27.5281 22.0241 26.6788 22.3758C25.8295 22.7276 24.9193 22.9087 24 22.9087C23.0807 22.9087 22.1705 22.7276 21.3212 22.3758C20.4719 22.0241 19.7003 21.5084 19.0503 20.8584C18.4002 20.2084 17.8846 19.4368 17.5328 18.5875C17.1811 17.7382 17 16.8279 17 15.9087C17 14.0522 17.7375 12.2717 19.0503 10.9589C20.363 9.64619 22.1435 8.90869 24 8.90869C25.8565 8.90869 27.637 9.64619 28.9497 10.9589C30.2625 12.2717 31 14.0522 31 15.9087Z" fill="#8877D8"/>
<path opacity="0.4" d="M39 15.9087C39 17.2348 38.4732 18.5065 37.5355 19.4442C36.5979 20.3819 35.3261 20.9087 34 20.9087C32.6739 20.9087 31.4021 20.3819 30.4645 19.4442C29.5268 18.5065 29 17.2348 29 15.9087C29 14.5826 29.5268 13.3108 30.4645 12.3732C31.4021 11.4355 32.6739 10.9087 34 10.9087C35.3261 10.9087 36.5979 11.4355 37.5355 12.3732C38.4732 13.3108 39 14.5826 39 15.9087ZM9 15.9087C9 17.2348 9.52678 18.5065 10.4645 19.4442C11.4021 20.3819 12.6739 20.9087 14 20.9087C15.3261 20.9087 16.5979 20.3819 17.5355 19.4442C18.4732 18.5065 19 17.2348 19 15.9087C19 14.5826 18.4732 13.3108 17.5355 12.3732C16.5979 11.4355 15.3261 10.9087 14 10.9087C12.6739 10.9087 11.4021 11.4355 10.4645 12.3732C9.52678 13.3108 9 14.5826 9 15.9087Z" fill="#8877D8"/>
<path d="M36 33.9087C36 37.7747 30.628 40.9087 24 40.9087C17.372 40.9087 12 37.7747 12 33.9087C12 30.0427 17.372 26.9087 24 26.9087C30.628 26.9087 36 30.0427 36 33.9087Z" fill="#8877D8"/>
<path opacity="0.4" d="M44 33.9087C44 36.6687 40.42 38.9087 36 38.9087C31.58 38.9087 28 36.6687 28 33.9087C28 31.1487 31.58 28.9087 36 28.9087C40.42 28.9087 44 31.1487 44 33.9087ZM4 33.9087C4 36.6687 7.58 38.9087 12 38.9087C16.42 38.9087 20 36.6687 20 33.9087C20 31.1487 16.42 28.9087 12 28.9087C7.58 28.9087 4 31.1487 4 33.9087Z" fill="#8877D8"/>
</svg>
