<svg width="194" height="166" viewBox="0 0 194 166" fill="none" xmlns="http://www.w3.org/2000/svg">
<g clip-path="url(#clip0_454_6628)">
<path d="M42.6537 107.466H6.96973V162.364H42.6537V107.466Z" fill="#FEFDFD"/>
<path d="M24.1511 115.416H21.6628V127.857H24.1511V115.416Z" fill="#F0E8DB"/>
<path d="M23.7304 116.249H22.0833V119.544H23.7304V116.249Z" fill="#37353F"/>
<path d="M23.4569 124.485C23.4569 124.788 23.2103 125.035 22.9072 125.035C22.6042 125.035 22.3575 124.788 22.3575 124.485C22.3575 124.182 22.6042 123.935 22.9072 123.935C23.2103 123.935 23.4569 124.182 23.4569 124.485Z" fill="#FF5B00"/>
<path d="M32.7789 134.366H29.4263V144.544H32.7789V134.366Z" fill="#B2AD0D"/>
<path d="M32.2003 135.384H30.0034V135.934H32.2003V135.384Z" fill="#D4CB61"/>
<path d="M31.7338 140.413H30.4693L29.8361 141.506L30.4693 142.602H31.7338L32.3651 141.506L31.7338 140.413Z" fill="#D4CB61"/>
<path d="M30.4239 139.747H31.7797C31.9973 139.747 31.9992 139.407 31.7797 139.407H30.4239C30.2064 139.407 30.2044 139.747 30.4239 139.747Z" fill="#D4CB61"/>
<path d="M30.4685 138.812H31.7291C31.9466 138.812 31.9486 138.472 31.7291 138.472H30.4685C30.2509 138.472 30.249 138.812 30.4685 138.812Z" fill="#D4CB61"/>
<path d="M22.6801 144.319V141.831H10.2389V144.319H22.6801Z" fill="#ED9618"/>
<path d="M13.7761 114.054H11.2878V126.495H13.7761V114.054Z" fill="#F0E8DB"/>
<path d="M15.5716 115.771H13.7943V126.791H15.5716V115.771Z" fill="#37353F"/>
<path d="M18.7702 111.506H16.6375V127.146H18.7702V111.506Z" fill="#FF84EE"/>
<path d="M19.9243 116.071L18.8624 116.17L19.8456 126.788L20.9074 126.69L19.9243 116.071Z" fill="#37353F"/>
<path d="M39.616 126.628V124.139H27.1748V126.628H39.616Z" fill="#EBA88A"/>
<path d="M39.3506 124.139V122.158H26.9094V124.139H39.3506Z" fill="#FF84EE"/>
<path d="M28.5211 134.384H27.2993V144.562H28.5211V134.384Z" fill="#913757"/>
<path d="M37.8896 136.128L35.5864 135.472L33.1137 144.141L35.4169 144.797L37.8896 136.128Z" fill="#3D71A9"/>
<path d="M40.0966 132.002H37.2218V144.799H40.0966V132.002Z" fill="#B2AD0D"/>
<path d="M27.6712 149.894H24.7964V162.69H27.6712V149.894Z" fill="#913757"/>
<path d="M23.5927 152.382H20.749V162.69H23.5927V152.382Z" fill="#913757"/>
<path d="M20.65 153.093H17.783V162.69H20.65V153.093Z" fill="#913757"/>
<path d="M19.864 155.228C19.864 155.834 19.5745 156.325 19.2171 156.325C18.8597 156.325 18.5703 155.834 18.5703 155.228C18.5703 154.622 18.8597 154.13 19.2171 154.13C19.5745 154.13 19.864 154.622 19.864 155.228Z" fill="#AB6680"/>
<path d="M20.3236 161.267H18.1267V161.816H20.3236V161.267Z" fill="#AB6680"/>
<path d="M12.6382 142.468C13.2443 142.468 13.7357 142.757 13.7357 143.115C13.7357 143.472 13.2443 143.762 12.6382 143.762C12.0322 143.762 11.5408 143.472 11.5408 143.115C11.5408 142.757 12.0322 142.468 12.6382 142.468Z" fill="#EBAC61"/>
<path d="M15.3816 142.015V144.212H15.9313V142.015H15.3816Z" fill="#EBAC61"/>
<path d="M21.4224 142.015V144.212H21.9721V142.015H21.4224Z" fill="#EBAC61"/>
<path d="M18.401 142.015V144.212H18.9507V142.015H18.401Z" fill="#EBAC61"/>
<path d="M15.1494 160.169H14.0597V161.267H15.1494V160.169Z" fill="#EDB84B"/>
<path d="M4.96558 107.468V164.716H42.0501V162.335H7.24596L7.27704 146.873H42.1685L42.1083 162.366L42.1006 164.716H44.6568V107.468H4.96558ZM7.31006 128.924H42.2385L42.1783 144.385H7.28093L7.31006 128.924ZM7.33337 110.76H42.2851L42.2482 126.435H7.31589L7.33337 110.76Z" fill="#FFDDBD"/>
<path d="M21.9711 141.635V139.857H9.52994V141.635H21.9711Z" fill="#3D71A9"/>
<path d="M15.5809 140.471H10.6394V141.021H15.5809V140.471Z" fill="#5F8ABD"/>
<path d="M21.345 140.471H20.7953V141.021H21.345V140.471Z" fill="#5F8ABD"/>
<path d="M22.4288 139.793V137.305H13.1868V139.793H22.4288Z" fill="#B2AD0D"/>
<path d="M15.9332 138.548C15.9332 139.003 15.5641 139.372 15.1096 139.372C14.6551 139.372 14.286 139.003 14.286 138.548C14.286 138.094 14.6551 137.725 15.1096 137.725C15.5641 137.725 15.9332 138.094 15.9332 138.548Z" fill="#D4CB61"/>
<path d="M21.4214 139.034C21.4214 139.185 21.299 139.308 21.1475 139.308C20.996 139.308 20.8737 139.185 20.8737 139.034C20.8737 138.882 20.996 138.76 21.1475 138.76C21.299 138.76 21.4214 138.882 21.4214 139.034Z" fill="#D4CB61"/>
<path d="M21.4214 137.934C21.4214 138.086 21.299 138.208 21.1475 138.208C20.996 138.208 20.8737 138.086 20.8737 137.934C20.8737 137.783 20.996 137.66 21.1475 137.66C21.299 137.66 21.4214 137.783 21.4214 137.934Z" fill="#D4CB61"/>
<path d="M20.3258 138.484C20.3258 138.636 20.2035 138.758 20.052 138.758C19.9004 138.758 19.7781 138.636 19.7781 138.484C19.7781 138.333 19.9004 138.21 20.052 138.21C20.2035 138.21 20.3258 138.333 20.3258 138.484Z" fill="#D4CB61"/>
<path d="M37.7509 132.832H38.7785C38.8678 132.832 38.9533 132.754 38.9475 132.663C38.9436 132.571 38.8736 132.494 38.7785 132.494H37.7509C37.6616 132.494 37.5761 132.571 37.5819 132.663C37.5858 132.754 37.6558 132.832 37.7509 132.832Z" fill="#D4CB61"/>
<path d="M38.4062 144.092H39.6202C39.7115 144.092 39.7892 144.014 39.7892 143.923C39.7892 143.831 39.7115 143.754 39.6202 143.754H38.4062C38.3149 143.754 38.2372 143.831 38.2372 143.923C38.2372 144.014 38.3149 144.092 38.4062 144.092Z" fill="#D4CB61"/>
<path d="M37.7241 134.531V138.643C37.7241 138.861 38.064 138.863 38.064 138.643V134.531C38.064 134.314 37.7241 134.312 37.7241 134.531Z" fill="#D4CB61"/>
<path d="M39.5388 142.052C39.5388 142.507 39.1697 142.876 38.7152 142.876C38.2607 142.876 37.8916 142.507 37.8916 142.052C37.8916 141.598 38.2607 141.229 38.7152 141.229C39.1697 141.229 39.5388 141.598 39.5388 142.052Z" fill="#D4CB61"/>
<path d="M39.9634 122.183V119.695H30.7214V122.183H39.9634Z" fill="#37353F"/>
<path d="M32.6258 120.076H31.5283V121.723H32.6258V120.076Z" fill="#FFDDBD"/>
<path d="M39.2144 120.076H38.6647V121.723H39.2144V120.076Z" fill="#EBAC61"/>
<path d="M29.1086 122.838H27.4614V123.388H29.1086V122.838Z" fill="#BF6A86"/>
<path d="M38.4408 122.838H35.1465V123.388H38.4408V122.838Z" fill="#BF6A86"/>
<path d="M30.3401 122.803V123.411C30.3401 123.5 30.4178 123.584 30.5091 123.58C30.6004 123.576 30.6781 123.506 30.6781 123.411V122.803C30.6781 122.714 30.6004 122.628 30.5091 122.634C30.4178 122.638 30.3401 122.708 30.3401 122.803Z" fill="#BF6A86"/>
<path d="M31.1329 122.78V123.388C31.1329 123.477 31.2106 123.562 31.3019 123.557C31.3932 123.553 31.4709 123.483 31.4709 123.388V122.78C31.4709 122.69 31.3932 122.605 31.3019 122.611C31.2106 122.615 31.1329 122.684 31.1329 122.78Z" fill="#BF6A86"/>
<path d="M12.3333 116.987L11.6923 116.389L11.8904 115.536L12.7295 115.28L13.3705 115.878L13.1724 116.731L12.3333 116.987Z" fill="#FF5B00"/>
<path d="M12.7036 125.227L11.8722 124.947L11.6993 124.089L12.3578 123.51L13.1892 123.79L13.362 124.648L12.7036 125.227Z" fill="#FF5B00"/>
<path d="M13.1459 117.896H12.0485V121.738H13.1459V117.896Z" fill="#FF5B00"/>
<path d="M36.3421 152.203C36.3421 152.19 36.9869 152.19 36.9869 152.19C37.3346 152.19 37.6299 151.904 37.6415 151.539C37.6551 151.154 37.3638 150.838 37.0005 150.838H33.2342C32.8865 150.838 32.5913 151.123 32.5796 151.489C32.566 151.873 32.8574 152.19 33.2187 152.19H33.712C33.712 153.713 33.1973 155.162 32.2999 156.333C31.8687 156.894 31.6104 157.609 31.6104 158.388C31.6104 159.878 32.5544 161.133 33.8441 161.527V162.211H36.208V161.527C37.4978 161.133 38.4418 159.876 38.4418 158.388C38.4418 157.609 38.1835 156.894 37.7522 156.333C36.8529 155.162 36.3401 153.713 36.3401 152.205L36.3421 152.203Z" fill="#913757"/>
<path d="M34.1113 152.567H35.9041C36.1217 152.567 36.1236 152.227 35.9041 152.227H34.1113C33.8937 152.227 33.8918 152.567 34.1113 152.567Z" fill="#5B1E36"/>
<path d="M32.0576 158.881C32.0712 158.78 32.1858 158.685 32.2538 158.619C32.345 158.528 32.4441 158.444 32.5568 158.384C32.6384 158.341 32.7394 158.308 32.8307 158.343C32.9025 158.37 32.9433 158.417 32.988 158.473C33.0929 158.606 33.1725 158.786 33.2871 158.926C33.4153 159.081 33.6037 159.165 33.8057 159.116C34.0699 159.052 34.2506 158.796 34.3962 158.586C34.5225 158.407 34.6526 158.205 34.876 158.139C34.9615 158.114 35.0508 158.11 35.1246 158.167C35.2159 158.238 35.2645 158.359 35.3325 158.452C35.4898 158.67 35.7015 158.831 35.9521 158.926C36.1172 158.988 36.294 158.996 36.4086 158.839C36.4882 158.73 36.529 158.592 36.6048 158.479C36.7563 158.254 36.968 158.079 37.2108 157.961H37.0399C37.1331 158.019 37.1875 158.118 37.238 158.211C37.2982 158.322 37.3545 158.433 37.4361 158.53C37.6032 158.726 37.9023 158.858 38.1393 158.701C38.3199 158.58 38.1509 158.287 37.9683 158.407C37.8829 158.464 37.7838 158.4 37.71 158.326C37.6167 158.233 37.5682 158.099 37.5021 157.986C37.4322 157.864 37.3176 157.689 37.1719 157.65C37.0865 157.627 36.9971 157.687 36.9253 157.728C36.8514 157.77 36.7835 157.819 36.7155 157.871C36.4668 158.066 36.292 158.312 36.158 158.594C36.1522 158.607 36.1366 158.623 36.1347 158.637C36.1308 158.672 36.1347 158.621 36.1463 158.635C36.1463 158.631 36.1366 158.629 36.1289 158.627C36.1094 158.617 36.0861 158.613 36.0648 158.607C35.9987 158.584 35.9385 158.551 35.8802 158.514C35.7579 158.438 35.6569 158.334 35.5792 158.213C35.4918 158.079 35.4102 157.937 35.2664 157.854C35.1305 157.776 34.9692 157.764 34.8197 157.799C34.4992 157.875 34.2972 158.134 34.1185 158.39C34.0349 158.51 33.9475 158.642 33.8271 158.73C33.7844 158.761 33.7416 158.78 33.6911 158.788C33.6542 158.794 33.6406 158.784 33.6115 158.765C33.5843 158.745 33.6018 158.759 33.6076 158.765C33.5998 158.759 33.5921 158.751 33.5843 158.743C33.5688 158.728 33.5532 158.712 33.5396 158.695C33.5299 158.683 33.528 158.681 33.5086 158.652C33.493 158.629 33.4775 158.606 33.4639 158.584C33.4056 158.491 33.3512 158.394 33.2871 158.304C33.2055 158.194 33.1123 158.095 32.9841 158.038C32.8073 157.961 32.6209 157.982 32.448 158.06C32.2848 158.132 32.143 158.252 32.0168 158.376C31.8692 158.52 31.7487 158.668 31.7215 158.877C31.7099 158.969 31.807 159.046 31.8905 159.046C31.9915 159.046 32.0479 158.969 32.0595 158.877L32.0576 158.881Z" fill="#5B1E36"/>
<path d="M34.252 161.811H35.9769C36.1944 161.811 36.1964 161.471 35.9769 161.471H34.252C34.0345 161.471 34.0325 161.811 34.252 161.811Z" fill="#5B1E36"/>
<path d="M8.15071 110.154H41.465C41.6825 110.154 41.6845 109.814 41.465 109.814H8.15071C7.93316 109.814 7.93122 110.154 8.15071 110.154Z" fill="#FF9260"/>
<path d="M7.94417 146.572H41.2584C41.476 146.572 41.4779 146.232 41.2584 146.232H7.94417C7.72662 146.232 7.72467 146.572 7.94417 146.572Z" fill="white"/>
<path d="M7.8426 163.877H41.4677C41.6852 163.877 41.6871 163.537 41.4677 163.537H7.8426C7.62505 163.537 7.62311 163.877 7.8426 163.877Z" fill="#926F1A"/>
<path d="M42.836 128.502H6.97327V145.517H42.836V128.502Z" fill="#FFDDBD"/>
<path d="M24.6414 128.411V146.102C24.6414 146.32 24.9813 146.322 24.9813 146.102V128.411C24.9813 128.193 24.6414 128.191 24.6414 128.411Z" fill="#FF9260"/>
<path d="M8.04744 128.57H41.0529C41.2704 128.57 41.2724 128.23 41.0529 128.23H8.04744C7.82989 128.23 7.82794 128.57 8.04744 128.57Z" fill="white"/>
<path d="M15.4823 138.228C16.1539 138.228 16.6983 137.683 16.6983 137.012C16.6983 136.34 16.1539 135.796 15.4823 135.796C14.8108 135.796 14.2664 136.34 14.2664 137.012C14.2664 137.683 14.8108 138.228 15.4823 138.228Z" fill="#FF9260"/>
<path d="M33.1095 138.228C33.7811 138.228 34.3254 137.683 34.3254 137.012C34.3254 136.34 33.7811 135.796 33.1095 135.796C32.438 135.796 31.8936 136.34 31.8936 137.012C31.8936 137.683 32.438 138.228 33.1095 138.228Z" fill="#FF9260"/>
<path d="M7.02673 127.121V145.774C7.02673 146.137 7.59197 146.137 7.59197 145.774V127.121C7.59197 126.758 7.02673 126.758 7.02673 127.121Z" fill="#FF9260"/>
<path d="M41.9568 127.121V145.774C41.9568 146.137 42.522 146.137 42.522 145.774V127.121C42.522 126.758 41.9568 126.758 41.9568 127.121Z" fill="#B88830"/>
<path d="M20.5837 153.615V161.729C20.5837 161.911 20.8654 161.911 20.8654 161.729V153.615C20.8654 153.433 20.5837 153.433 20.5837 153.615Z" fill="#5B1E36"/>
<path d="M16.9796 125.254H18.2286C18.4111 125.254 18.4111 124.973 18.2286 124.973H16.9796C16.797 124.973 16.797 125.254 16.9796 125.254Z" fill="#5B1E36"/>
<path d="M17.8129 113.604H18.4364C18.5102 113.604 18.5801 113.54 18.5782 113.462C18.5743 113.386 18.516 113.32 18.4364 113.32H17.8129C17.739 113.32 17.6691 113.384 17.6711 113.462C17.6749 113.538 17.7332 113.604 17.8129 113.604Z" fill="#5B1E36"/>
<path d="M17.3978 114.435H18.0213C18.0951 114.435 18.1651 114.371 18.1631 114.293C18.1592 114.217 18.101 114.151 18.0213 114.151H17.3978C17.324 114.151 17.2541 114.216 17.256 114.293C17.2599 114.369 17.3182 114.435 17.3978 114.435Z" fill="#5B1E36"/>
<g opacity="0.49">
<path d="M178.358 43.2651H105.883V102.4H178.358V43.2651Z" fill="#FFDDBD"/>
<path d="M142.949 43.2651H141.296V102.4H142.949V43.2651Z" fill="white"/>
<path d="M178.358 72.5237H104.444V73.7455H178.358V72.5237Z" fill="white"/>
</g>
<path d="M71.1802 55.6442C73.9393 55.6442 76.1761 53.4074 76.1761 50.6483C76.1761 47.8891 73.9393 45.6524 71.1802 45.6524C68.4211 45.6524 66.1843 47.8891 66.1843 50.6483C66.1843 53.4074 68.4211 55.6442 71.1802 55.6442Z" fill="#FF9260"/>
<path d="M71.1794 -0.380737V37.1311" stroke="#FFDDBD" stroke-width="0.466178" stroke-miterlimit="10"/>
<path d="M64.5392 37.1311H77.8194C85.0977 37.1311 91.0084 43.0399 91.0084 50.3201H51.3522C51.3522 43.0419 57.261 37.1311 64.5411 37.1311H64.5392Z" fill="#FFDDBD"/>
<path d="M38.6972 99.5348H23.8864V107.112H38.6972V99.5348Z" fill="#FF84EE"/>
<path d="M40.0538 97.9673H22.5236V99.797H40.0538V97.9673Z" fill="#37353F"/>
<path d="M27.4117 102.54C27.4117 102.901 27.7886 103.192 28.2547 103.192H34.3228C34.789 103.192 35.1658 102.899 35.1658 102.54C35.1658 102.18 34.789 101.887 34.3228 101.887H28.2547C27.7886 101.887 27.4117 102.18 27.4117 102.54Z" fill="#37353F"/>
<path d="M37.5491 92.7714H27.3922V97.9674H37.5491V92.7714Z" fill="#FF84EE"/>
<path d="M38.4785 91.6972H26.4569V92.952H38.4785V91.6972Z" fill="#37353F"/>
<path d="M29.8096 94.8323C29.8096 95.079 30.0679 95.281 30.3884 95.281H34.549C34.8676 95.281 35.1279 95.0809 35.1279 94.8323C35.1279 94.5837 34.8695 94.3836 34.549 94.3836H30.3884C30.0699 94.3836 29.8096 94.5837 29.8096 94.8323Z" fill="#37353F"/>
<path d="M40.3329 51.4894C39.014 50.3783 38.6294 49.5198 38.6741 47.7969C38.6838 47.4589 38.2623 47.2977 38.0447 47.558C36.9337 48.8769 36.0751 49.2614 34.3522 49.2168C34.0143 49.2071 33.853 49.6286 34.1133 49.8461C35.4322 50.9572 35.8168 51.8157 35.7721 53.5386C35.7624 53.8766 36.1839 54.0378 36.4015 53.7775C37.5125 52.4587 38.3711 52.0741 40.094 52.1187C40.432 52.1284 40.5932 51.7069 40.3329 51.4894Z" fill="#FF9260"/>
<path d="M169.956 94.1602C168.637 93.0492 168.253 92.1906 168.297 90.4677C168.307 90.1297 167.886 89.9685 167.668 90.2288C166.557 91.5477 165.698 91.9323 163.976 91.8876C163.638 91.8779 163.476 92.2994 163.737 92.5169C165.055 93.628 165.44 94.4866 165.395 96.2095C165.386 96.5474 165.807 96.7087 166.025 96.4484C167.136 95.1295 167.994 94.7449 169.717 94.7896C170.055 94.7993 170.216 94.3778 169.956 94.1602Z" fill="white"/>
<path d="M140.572 99.733H115.904C106.867 99.733 99.5408 107.059 99.5408 116.096V146.475C99.5408 155.512 106.867 162.838 115.904 162.838H140.572C149.609 162.838 156.935 155.512 156.935 146.475V116.096C156.935 107.059 149.609 99.733 140.572 99.733Z" fill="#8077CD"/>
<path d="M133.067 99.733H108.399C99.3615 99.733 92.0356 107.059 92.0356 116.096V146.475C92.0356 155.512 99.3615 162.838 108.399 162.838H133.067C142.104 162.838 149.43 155.512 149.43 146.475V116.096C149.43 107.059 142.104 99.733 133.067 99.733Z" fill="#37353F"/>
<path d="M119.306 70.4959L134.906 110.855L81.5128 108.924L97.8096 67.7085L119.306 70.4959Z" fill="black"/>
<path d="M98.1688 90.1437C98.6451 90.1366 99.0157 89.1012 98.9966 87.8312C98.9775 86.5612 98.576 85.5375 98.0998 85.5446C97.6235 85.5518 97.2529 86.5871 97.2719 87.8571C97.291 89.1271 97.6925 90.1509 98.1688 90.1437Z" stroke="#FF84EE" stroke-width="0.31467" stroke-miterlimit="10"/>
<path d="M71.9927 150.96C72.7192 151.176 73.4534 151.281 74.178 151.281C77.3033 151.281 80.2169 149.356 81.359 146.289L94.2741 111.601L121.489 110.243L122.212 121.195L137.166 117.213L134.983 102.447C134.154 98.2024 130.191 95.316 125.897 95.8288L91.2148 99.9836C86.8347 100.409 83.0373 103.196 81.3144 107.248L67.195 140.456C65.2817 144.69 67.5446 149.635 71.9947 150.958L71.9927 150.96Z" fill="#8E410F"/>
<path d="M120.088 75.1672C120.193 68.1457 114.797 62.3714 108.035 62.2699C101.273 62.1684 95.7059 67.7781 95.6005 74.7997C95.4951 81.8212 100.891 87.5955 107.653 87.697C114.415 87.7985 119.982 82.1888 120.088 75.1672Z" fill="black"/>
<path d="M114.447 98.0975L103.262 99.733C103.262 99.733 102.435 94.8518 101.825 91.1825C101.821 91.1612 101.819 91.1379 101.813 91.1165C101.458 88.9857 101.178 87.2803 101.178 87.2045L105.073 85.7691L105.304 85.6836L111.908 83.2498L114.45 98.0995L114.447 98.0975Z" fill="#8E410F"/>
<path d="M111.214 84.5745C111.214 84.5745 108.72 88.0514 106.638 89.4208C105.3 90.3007 102.666 90.9883 101.813 91.1146C101.458 88.9837 101.178 87.2783 101.178 87.2025L105.073 85.7671L105.304 85.6816L111.214 84.5745Z" fill="#72310B"/>
<path d="M114.853 81.0179C114.853 81.0179 110.871 88.7837 102.725 88.7293C94.5805 88.671 93.5296 83.613 95.4604 78.3219C95.6876 77.6983 95.8644 77.1564 96.0023 76.6747C96.2335 75.8705 96.3539 75.2431 96.4122 74.7265C96.6181 72.922 96.0781 72.4286 96.8453 70.2822C99.2927 63.6353 105.45 64.0937 105.45 64.0937C123.19 65.2669 114.853 81.0199 114.853 81.0199V81.0179Z" fill="#8E410F"/>
<path d="M107.666 76.3036C107.666 76.3036 107.376 77.1602 106.022 77.5661C105.842 77.6225 105.644 77.6691 105.422 77.7021C105.245 77.7313 105.057 77.7526 104.853 77.7643C103.008 77.875 102.101 77.1272 102.101 77.1272C102.101 77.1272 102.823 75.3654 104.63 75.1265C104.704 75.1148 104.781 75.1071 104.859 75.1032C105.572 75.0624 106.137 75.21 106.568 75.4159C107.322 75.7733 107.666 76.3036 107.666 76.3036Z" fill="#FF5B00"/>
<path d="M118.127 78.149C119.012 79.8778 117.507 82.8555 115.291 83.9899C113.076 85.1242 110.58 84.8406 109.695 83.1099C108.809 81.3812 110.297 78.2054 112.511 77.071C114.725 75.9366 117.239 76.4203 118.125 78.149H118.127Z" fill="#8F410F"/>
<path d="M107.664 76.7971C107.664 76.7971 107.369 77.5604 105.99 77.9178C105.805 77.9664 105.603 78.0091 105.378 78.0383C105.198 78.0635 105.005 78.0829 104.797 78.0926C102.915 78.1878 101.987 77.5196 101.987 77.5196C101.987 77.5196 102.721 75.9521 104.564 75.7423C104.64 75.7326 104.718 75.7268 104.797 75.721C105.524 75.686 106.101 75.8181 106.544 76.0026C107.313 76.3231 107.664 76.7971 107.664 76.7971Z" fill="white"/>
<path d="M106.759 76.7446C106.751 77.2671 106.438 77.7139 105.991 77.9178C105.818 77.9994 105.624 78.0441 105.42 78.0402C105.407 78.0402 105.393 78.0402 105.379 78.0383C104.672 78.0072 104.113 77.4186 104.123 76.7038C104.129 76.3192 104.298 75.9754 104.564 75.7423C104.639 75.7326 104.717 75.7268 104.797 75.721C105.523 75.686 106.1 75.8181 106.543 76.0026C106.683 76.2182 106.762 76.4727 106.757 76.7446H106.759Z" fill="black"/>
<path d="M102.11 77.4516C102.11 77.4516 103.776 73.9805 107.715 76.6805" stroke="black" stroke-width="0.369058" stroke-linecap="round" stroke-linejoin="round"/>
<path d="M99.7451 76.5523C99.7451 76.5523 99.3139 76.7912 97.9775 76.6688C97.7988 76.6552 97.6065 76.6261 97.3968 76.5834C97.2317 76.5484 97.0549 76.5037 96.8645 76.4455C96.579 76.36 96.3246 76.2609 96.0973 76.1599C96.3284 75.3558 96.4489 74.7284 96.5071 74.2117C96.783 74.1942 97.084 74.2156 97.4045 74.2894C97.4745 74.303 97.5444 74.3224 97.6163 74.3438C98.2728 74.5438 98.7429 74.843 99.075 75.1479C99.6558 75.6763 99.7451 76.5523 99.7451 76.5523Z" fill="#FF5B00"/>
<path d="M99.7226 76.7213C99.7226 76.7213 99.2176 77.3059 97.8832 77.1835C97.7045 77.1699 97.5122 77.1408 97.3024 77.0981C97.1373 77.0631 96.9605 77.0184 96.7702 76.9602C96.4846 76.8747 96.2302 76.7756 96.0029 76.6746C96.2341 75.8705 96.3545 75.2431 96.4128 74.7264C96.6886 74.7089 96.9897 74.7303 97.3102 74.8041C97.3801 74.8177 97.45 74.8371 97.5219 74.8585C98.1784 75.0586 98.6485 75.3577 98.9806 75.6626C99.5614 76.191 99.7226 76.7213 99.7226 76.7213Z" fill="white"/>
<path d="M99.2704 76.6863C99.0237 77.1136 98.5633 77.337 98.103 77.3001C97.9223 77.2885 97.7436 77.2341 97.5766 77.1389C97.5669 77.1331 97.5533 77.1253 97.5435 77.1175C96.9764 76.7679 96.786 76.0278 97.1221 75.4451C97.3027 75.1324 97.5999 74.9265 97.9262 74.8566C97.9942 74.8838 98.0602 74.9129 98.1282 74.9459C98.742 75.2509 99.1557 75.6238 99.4335 75.9773C99.451 76.2182 99.3986 76.4629 99.2704 76.6844V76.6863Z" fill="black"/>
<path d="M96.4625 74.6857C97.4027 74.5963 98.5992 74.9654 99.8054 76.6339" stroke="black" stroke-width="0.347691" stroke-linecap="round" stroke-linejoin="round"/>
<path d="M112.361 88.7343C112.838 88.7271 113.208 87.6918 113.189 86.4218C113.17 85.1518 112.769 84.128 112.292 84.1352C111.816 84.1423 111.446 85.1777 111.465 86.4477C111.484 87.7177 111.885 88.7414 112.361 88.7343Z" stroke="#FF84EE" stroke-width="0.31467" stroke-miterlimit="10"/>
<path d="M102.579 82.7097C102.635 82.7195 102.319 84.3355 100.992 84.5414C99.0358 84.8425 98.2725 82.972 98.2725 82.972C98.2725 82.972 99.7331 82.2241 102.579 82.7117V82.7097Z" fill="#FF27E7"/>
<path d="M98.2731 82.9719C98.2187 82.9583 98.6732 81.9832 100.033 81.8803C101.393 81.7773 102.743 82.7058 102.743 82.7058C102.743 82.7058 101.068 83.6887 98.2712 82.9719H98.2731Z" fill="#801478"/>
<path d="M97.9461 82.9273C98.3773 83.0671 98.8105 83.1739 99.2592 83.2497C99.6321 83.3119 100.015 83.3662 100.392 83.3468C101.025 83.3138 101.666 83.1623 102.262 82.9525C102.563 82.8476 102.857 82.7155 103.121 82.5388C103.183 82.496 103.13 82.4086 103.062 82.4397C102.818 82.5504 102.554 82.6301 102.297 82.7058C101.986 82.7971 101.676 82.8865 101.359 82.9583C101.068 83.0244 100.77 83.0826 100.471 83.1079C100.122 83.137 99.7681 83.104 99.4224 83.0632C98.9309 83.005 98.4453 82.9078 97.9539 82.8496C97.9053 82.8437 97.9014 82.9175 97.9422 82.9311L97.9461 82.9273Z" fill="black"/>
<path d="M111.783 80.8548C112.16 80.3187 112.682 79.8836 113.267 79.5902C113.927 79.2581 114.677 79.1318 115.411 79.1318C115.872 79.1318 116.334 79.2154 116.791 79.1765C116.864 79.1707 116.921 79.0541 116.833 79.0172C116.742 78.9764 116.657 78.9357 116.557 78.9143C116.447 78.889 116.334 78.8735 116.223 78.858C116.008 78.8288 115.786 78.8113 115.569 78.8055C115.139 78.7919 114.708 78.8249 114.287 78.9065C113.568 79.0444 112.884 79.361 112.344 79.8564C112.049 80.1283 111.839 80.443 111.694 80.8179C111.672 80.8722 111.752 80.8975 111.783 80.8548Z" fill="black"/>
<path d="M113.89 79.2211C113.91 79.4348 114.071 79.6388 114.156 79.833C114.251 80.0525 114.325 80.2895 114.349 80.5284C114.393 80.9907 114.213 81.4005 113.927 81.754C113.851 81.8473 113.952 82.0221 114.069 81.9386C114.49 81.6394 114.694 81.0994 114.656 80.5925C114.634 80.3225 114.549 80.0641 114.426 79.8233C114.362 79.697 114.288 79.5747 114.211 79.4562C114.141 79.3513 114.073 79.2425 113.96 79.1823C113.931 79.1668 113.888 79.1862 113.89 79.2211Z" fill="black"/>
<path d="M102.181 75.3557C102.855 74.8915 103.609 74.5535 104.434 74.4972C105.539 74.4234 106.577 74.7944 107.631 75.0644C107.882 75.1285 108.059 74.7555 107.812 74.6332C106.781 74.1204 105.532 73.8115 104.376 73.9533C103.455 74.0679 102.684 74.5147 102.014 75.1401C101.901 75.245 102.051 75.4451 102.181 75.3557Z" fill="black"/>
<path d="M99.1197 73.9261C98.9176 73.796 98.7234 73.6503 98.5039 73.5532C98.2864 73.4561 98.061 73.3745 97.8338 73.3046C97.4181 73.1783 96.9908 73.1064 96.5557 73.1142C96.4139 73.1162 96.2915 73.2346 96.2915 73.3784C96.2915 73.5357 96.4139 73.6231 96.5557 73.6426C96.9228 73.6911 97.321 73.7261 97.6998 73.7882C97.9095 73.8232 98.1193 73.8698 98.3233 73.9261C98.5505 73.9883 98.7836 74.033 98.9992 74.132C99.1371 74.1942 99.2498 74.0116 99.1197 73.9281V73.9261Z" fill="black"/>
<path d="M122.213 121.197L125.713 146.969C126.368 152.05 129.45 155.748 134.458 154.662C138.537 153.777 141.351 150.168 141.351 146.124C141.351 145.636 141.311 145.143 141.225 144.647L137.167 117.217L122.213 121.199V121.197Z" fill="#8E410F"/>
<path d="M66.8087 151.487L58.536 110.741L67.6168 107.996L78.7992 139.556L66.8087 151.487Z" fill="#8E410F"/>
<path d="M135.991 140.799L109.65 134.252" stroke="black" stroke-width="0.192299" stroke-linecap="round" stroke-linejoin="round"/>
<path d="M77.8581 140.491L71.5725 119.161" stroke="black" stroke-width="0.192299" stroke-linecap="round" stroke-linejoin="round"/>
<path d="M64.2265 113.211C67.9552 111.681 70.5926 109.502 70.1174 108.344C69.6421 107.185 66.2342 107.487 62.5055 109.017C58.7768 110.547 56.1394 112.726 56.6147 113.884C57.0899 115.042 60.4979 114.741 64.2265 113.211Z" stroke="#FF84EE" stroke-width="0.386539" stroke-miterlimit="10"/>
<path d="M64.0876 112.091C67.8163 110.561 70.4537 108.381 69.9785 107.223C69.5032 106.065 66.0953 106.366 62.3666 107.896C58.6379 109.426 56.0005 111.606 56.4757 112.764C56.951 113.922 60.3589 113.621 64.0876 112.091Z" stroke="#FF84EE" stroke-width="0.386539" stroke-miterlimit="10"/>
<path d="M57.7975 107.984L58.9008 112.537L67.9349 108.897L66.2878 104.645L57.7975 107.984Z" fill="#8E410F"/>
<path d="M131.13 148.402C127.638 140.885 123.306 133.958 118.143 129.934L118.713 127.715L125.711 110.579L124.348 96.0171L118.965 96.3804L118.732 93.8008L110.751 94.7138L111.042 98.0547L107.715 104.437L104.826 98.6977L104.294 95.2149L94.6287 96.1317V99.5543L93.5467 99.7077L91.2139 99.9855L85.7849 113.027C84.837 115.307 85.0895 117.912 86.4628 119.965L92.0511 128.329L84.5514 148.402L78.4523 164.716H137.383C135.734 159.551 133.65 153.823 131.13 148.402ZM107.812 106.106L107.472 105.556L108.093 105.727L107.812 106.106Z" fill="#8077CD"/>
<path d="M105.439 80.5304C107.502 80.5304 109.174 79.2163 109.174 77.5954C109.174 75.9744 107.502 74.6604 105.439 74.6604C103.376 74.6604 101.703 75.9744 101.703 77.5954C101.703 79.2163 103.376 80.5304 105.439 80.5304Z" stroke="#84E6E1" stroke-width="0.16122" stroke-linecap="round" stroke-linejoin="round"/>
<path d="M99.9365 77.4193C100.169 75.8152 98.8047 74.2893 96.8884 74.0111C94.9722 73.7329 93.23 74.8078 92.9971 76.4119C92.7642 78.0161 94.1289 79.542 96.0451 79.8202C97.9614 80.0984 99.7036 79.0235 99.9365 77.4193Z" stroke="#84E6E1" stroke-width="0.157335" stroke-linecap="round" stroke-linejoin="round"/>
<path opacity="0.37" d="M105.546 80.5304C107.608 80.5304 109.281 79.2163 109.281 77.5954C109.281 75.9744 107.608 74.6604 105.546 74.6604C103.483 74.6604 101.81 75.9744 101.81 77.5954C101.81 79.2163 103.483 80.5304 105.546 80.5304Z" fill="#84E6E1"/>
<path opacity="0.37" d="M100.042 77.4185C100.274 75.8143 98.9098 74.2884 96.9935 74.0102C95.0773 73.7321 93.3351 74.807 93.1022 76.4111C92.8693 78.0152 94.234 79.5411 96.1502 79.8193C98.0665 80.0975 99.8087 79.0226 100.042 77.4185Z" fill="#84E6E1"/>
<path d="M99.7516 74.4914C100.185 74.8721 100.563 75.3227 100.643 75.9152C100.719 76.4746 100.449 76.9291 100.128 77.3623C99.8079 77.7954 99.4524 78.182 99.2446 78.6695C99.0368 79.157 99.0096 79.7806 99.4213 80.1457C99.9458 80.608 100.789 80.5847 101.331 80.169C101.424 80.0972 101.348 79.9593 101.238 80.0098C100.725 80.2448 100.02 80.3613 99.5729 79.9204C99.3864 79.7359 99.3456 79.4309 99.3747 79.1804C99.4019 78.9414 99.5029 78.7181 99.6234 78.5141C100.126 77.6536 101.088 76.9097 100.865 75.8044C100.748 75.2314 100.35 74.639 99.7865 74.4292C99.7516 74.4156 99.7224 74.4681 99.7496 74.4914H99.7516Z" fill="black"/>
<path d="M99.8044 76.1929C99.8044 76.1929 100.14 75.5131 100.935 75.651C101.729 75.7889 102.025 76.4066 102.025 76.4066" stroke="#84E6E1" stroke-width="0.16122" stroke-linecap="round" stroke-linejoin="round"/>
<path d="M109.139 77.201L111.954 77.4089" stroke="#84E6E1" stroke-width="0.16122" stroke-linecap="round" stroke-linejoin="round"/>
<path d="M102.695 64.0159C101.248 64.2277 99.8781 64.7696 98.6913 65.8671C97.3122 67.1413 96.4284 68.938 96.2594 70.8085C97.6871 70.657 98.9749 69.9073 100.185 69.1303C101.683 68.1688 103.137 67.1432 104.546 66.0555C106.832 67.5492 108.58 69.8121 109.545 72.3586C110.058 73.7124 111.67 78.9006 108.897 78.8054C109.262 78.8171 109.623 78.9356 109.988 78.9045C110.373 78.8734 110.75 78.7705 111.103 78.6151C111.828 78.2965 112.282 77.7177 112.919 77.2962C114.201 76.4493 115.994 76.4221 117.298 77.2379C117.391 77.2962 117.486 77.3603 117.595 77.3778C117.799 77.4108 117.997 77.267 118.096 77.0864C118.195 76.9058 118.214 76.694 118.232 76.4881C118.259 76.1793 118.282 75.851 118.133 75.5791C118.082 75.4878 118.014 75.4062 117.968 75.311C117.789 74.9381 117.999 74.5088 118.009 74.1242C118.018 73.7455 118.077 73.3745 118.121 72.9899C118.214 72.1721 118.214 71.3194 117.894 70.5483C117.731 70.154 117.49 69.7946 117.234 69.4527C115.969 67.7667 114.275 66.407 112.354 65.5388C111.167 65.0027 109.901 64.653 108.621 64.4083C106.673 64.0373 104.614 63.7323 102.695 64.012V64.0159Z" fill="black"/>
<path d="M0.21936 164.716H4.96661H42.0511H42.1016H44.6578H192.702" stroke="black" stroke-width="0.384597" stroke-miterlimit="10" stroke-linecap="round"/>
<mask id="mask0_454_6628" style="mask-type:luminance" maskUnits="userSpaceOnUse" x="78" y="93" width="60" height="72">
<path d="M131.133 148.402C127.641 140.885 123.309 133.958 118.146 129.934L118.715 127.715L125.714 110.579L124.35 96.0172L118.968 96.3804L118.735 93.8009L110.753 94.7138L111.045 98.0548L107.717 104.438L104.829 98.6977L104.297 95.215L94.6315 96.1318V99.5543L93.5495 99.7078L91.2167 99.9855L85.7877 113.027C84.8398 115.307 85.0923 117.912 86.4656 119.965L92.0539 128.329L84.5542 148.402L78.4551 164.716H137.386C135.737 159.551 133.653 153.823 131.133 148.402ZM107.815 106.106L107.475 105.556L108.096 105.727L107.815 106.106Z" fill="white"/>
</mask>
<g mask="url(#mask0_454_6628)">
<path d="M133.745 101.528C133.743 105.529 133.745 109.532 133.745 113.536C133.745 130.497 133.745 147.458 133.745 164.419C133.745 164.98 133.625 165.515 133.347 166.01C133.289 166.014 133.229 166.018 133.17 166.018H125.599C125.56 166.018 125.519 166.018 125.48 166.018C125.249 166.004 125.23 165.975 125.341 165.773C125.694 165.13 126.044 164.487 126.407 163.852C128.235 160.643 130.125 157.475 132.063 154.332C132.339 153.885 132.621 153.444 132.805 152.949C133.202 151.889 133.244 150.781 133.2 149.672C133.17 149 133.157 148.328 133.161 147.656C133.161 147.532 133.19 147.406 133.139 147.285C133.007 147.272 132.949 147.367 132.877 147.427C132.413 147.812 131.949 148.198 131.488 148.587C130.348 149.55 129.216 150.525 128.041 151.45C126.852 152.386 125.646 153.301 124.449 154.229C122.885 155.443 121.32 156.653 119.665 157.739C117.845 158.93 115.945 159.959 113.876 160.659C112.319 161.185 110.736 161.521 109.075 161.381C108.014 161.292 107.006 161.037 106.082 160.503C105.037 159.901 104.267 159.048 103.792 157.935C103.215 156.587 103.129 155.173 103.312 153.74C103.535 151.997 103.98 150.304 104.535 148.641C105.023 147.182 105.619 145.77 106.287 144.389C106.892 143.142 107.562 141.928 108.271 140.737C109.203 139.172 110.196 137.645 111.223 136.143C111.985 135.032 112.748 133.923 113.552 132.845C114.854 131.101 116.219 129.407 117.656 127.77C119.004 126.229 120.399 124.73 121.838 123.273C122.52 122.583 123.216 121.908 123.901 121.22C124.367 120.75 124.849 120.295 125.335 119.845C126.255 118.992 127.178 118.139 128.114 117.3C129.056 116.453 130.014 115.628 130.96 114.787C131.471 114.334 132.015 113.92 132.458 113.394C133.011 112.739 133.322 111.999 133.264 111.133C133.229 110.589 133.108 110.059 132.937 109.538C132.792 109.092 132.862 109.084 132.442 109.369C131.989 109.678 131.611 110.069 131.216 110.445C130.315 111.306 129.406 112.157 128.501 113.015C127.883 113.6 127.271 114.188 126.654 114.775C125.748 115.632 124.841 116.486 123.936 117.343C123.332 117.916 122.734 118.489 122.13 119.06C121.267 119.876 120.391 120.678 119.542 121.505C118.523 122.5 117.524 123.518 116.491 124.499C115.364 125.571 114.203 126.598 112.931 127.494C111.944 128.189 110.889 128.747 109.722 129.071C108.055 129.533 106.418 129.456 104.815 128.782C103.64 128.288 102.624 127.56 101.713 126.682C100.268 125.285 99.1472 123.652 98.2381 121.865C97.5117 120.431 96.9387 118.934 96.4628 117.401C95.9539 115.766 95.4877 114.12 95.1827 112.432C94.9982 111.411 94.8622 110.379 94.8117 109.344C94.7632 108.357 94.7593 107.367 94.8389 106.378C94.9011 105.618 94.9924 104.863 95.1283 104.113C95.5149 102.004 96.2258 100.009 97.2378 98.1188C97.7758 97.1127 98.3877 96.1551 99.0695 95.2421L119.356 92.0236C116.097 95.5413 111.342 103.499 110.26 108.146C109.838 109.954 109.663 112.164 111.079 113.363C112.666 114.705 115.153 113.814 116.71 112.442C119.125 110.319 120.558 107.275 122.885 105.057C125.043 103.002 127.943 101.743 130.919 101.569C131.832 101.516 132.796 101.543 133.742 101.528H133.745Z" fill="#84E6E1"/>
<path d="M82.4495 127.56C83.2206 127.554 83.9898 127.554 84.7609 127.603C85.2543 127.634 85.7496 127.616 86.2449 127.628C86.9461 127.645 87.6473 127.655 88.3486 127.692C89.1974 127.735 90.0423 127.811 90.8912 127.855C93.2318 127.976 95.4597 128.533 97.5789 129.533C98.2587 129.856 98.9405 130.173 99.564 130.598C101.058 131.62 102.058 133.008 102.575 134.737C103.115 136.548 103.06 138.369 102.619 140.19C102.287 141.561 101.679 142.81 100.912 143.989C100.236 145.028 99.465 145.992 98.6045 146.887C97.4332 148.105 96.1279 149.158 94.7391 150.111C93.1618 151.193 91.4991 152.13 89.8131 153.027C87.8027 154.097 85.7185 155.006 83.6305 155.911C83.376 156.022 83.1254 156.139 82.871 156.247C82.7369 156.304 82.6068 156.389 82.4514 156.376V142.889C82.6087 142.889 82.768 142.882 82.9254 142.886C83.7858 142.911 84.6424 142.903 85.499 142.783C87.3987 142.517 89.2052 141.977 90.8776 141.025C91.9148 140.434 92.8549 139.714 93.6824 138.853C94.0262 138.494 94.3137 138.088 94.471 137.61C94.7138 136.874 94.6245 136.21 94.0301 135.658C93.7485 135.398 93.4221 135.219 93.0647 135.091C92.2936 134.815 91.4875 134.727 90.6756 134.691C89.6208 134.642 88.5855 134.749 87.5716 135.064C86.1517 135.503 84.7823 136.068 83.4129 136.639C83.0963 136.771 82.7972 136.953 82.4495 137.01V127.564V127.56Z" fill="#84E6E1"/>
<path d="M82.4496 157.92C83.3528 157.813 84.256 157.731 85.1631 157.667C86.0217 157.607 86.8783 157.568 87.7388 157.545C88.1836 157.533 88.6264 157.504 89.0712 157.514C91.4779 157.57 93.8651 157.774 96.2077 158.365C98.6531 158.98 100.951 159.942 103.082 161.3C104.329 162.094 105.49 162.993 106.572 164.002C107.145 164.536 107.668 165.115 108.187 165.697C108.254 165.773 108.357 165.839 108.348 165.983C108.221 166.043 108.082 166.016 107.948 166.016C102.891 166.016 97.8335 166.016 92.7774 166.016C89.4714 166.016 86.1673 166.016 82.8614 166.016C82.7234 166.016 82.5855 166.006 82.4476 166C82.4476 163.306 82.4476 160.614 82.4476 157.92H82.4496Z" fill="#84E6E1"/>
<path d="M94.1468 95.2383C94.1448 95.3956 94.1409 95.5549 94.139 95.7122C94.1021 97.6197 93.8826 99.4999 93.3154 101.328C92.756 103.132 91.8605 104.744 90.5086 106.085C89.3218 107.26 87.9116 108.047 86.3014 108.476C85.3612 108.726 84.4017 108.845 83.4266 108.835C83.1003 108.831 82.774 108.839 82.4476 108.843V95.2363H94.1468V95.2383Z" fill="#84E6E1"/>
<path d="M82.4495 111.696C82.7486 111.685 83.0361 111.772 83.3294 111.815C84.6191 112.007 85.9089 112.203 87.1851 112.466C88.0475 112.642 88.9041 112.838 89.7374 113.124C90.6425 113.435 91.4409 113.913 92.0527 114.664C92.8433 115.636 93.0628 116.745 92.8064 117.955C92.6219 118.825 92.2062 119.584 91.6507 120.268C90.7572 121.368 89.65 122.199 88.4068 122.863C86.9772 123.627 85.4447 124.124 83.9024 124.592C83.4207 124.738 82.9331 124.868 82.4495 125.006C82.4495 120.569 82.4495 116.133 82.4495 111.696Z" fill="#84E6E1"/>
</g>
<path d="M101.598 143.053C101.598 143.053 93.156 139.729 91.268 140.483C89.9996 140.99 87.0704 144.537 86.3867 146.242C86.2138 146.675 87.0296 151.518 85.5806 149.721C84.7356 148.672 84.0383 146.827 84.6016 145.494C85.0736 144.379 86.2954 142.252 86.2954 142.252C86.2954 142.252 83.6848 144.577 83.2769 145.508C82.869 146.44 82.2455 148.767 81.6589 149.719C81.0723 150.671 80.2992 150.618 80.3361 149.888C80.373 149.158 80.711 148.013 80.711 148.013C80.711 148.013 79.7203 150.974 78.7083 150.607C77.6963 150.239 79.4581 145.69 79.4581 145.69C79.4581 145.69 78.0013 147.291 77.3117 147.598C76.6222 147.905 75.2353 148.111 76.6241 146.605C78.013 145.1 83.8013 137.089 84.7084 135.943C85.6155 134.799 88.5913 130.17 92.0643 130.264C95.5374 130.359 103.699 132.769 103.699 132.769L101.598 143.049V143.053Z" fill="#8E410F"/>
<path d="M85.0868 137.229C85.0868 137.229 81.0952 142.108 80.4483 143.455C79.7996 144.801 79.4033 145.844 79.4033 145.844" stroke="black" stroke-width="0.192299" stroke-linecap="round" stroke-linejoin="round"/>
<path d="M86.0443 139.255L82.4179 143.719C81.9361 144.311 81.5787 144.997 81.369 145.731L80.6075 148.402" stroke="black" stroke-width="0.192299" stroke-linecap="round" stroke-linejoin="round"/>
<path d="M87.5051 140.799L85.9376 142.579" stroke="black" stroke-width="0.192299" stroke-linecap="round" stroke-linejoin="round"/>
<path d="M91.9467 138.103C91.9117 139.51 91.6631 140.242 91.6631 140.242" stroke="black" stroke-width="0.192299" stroke-linecap="round" stroke-linejoin="round"/>
<path d="M86.1356 150.375C86.2879 150.289 86.1812 149.811 85.8971 149.307C85.6131 148.804 85.2594 148.465 85.1071 148.551C84.9548 148.637 85.0615 149.115 85.3456 149.618C85.6296 150.122 85.9833 150.461 86.1356 150.375Z" fill="#FFDDBD"/>
<path d="M81.0414 149.577C81.1501 149.009 81.0989 148.522 80.9272 148.49C80.7554 148.457 80.5281 148.89 80.4195 149.458C80.3109 150.026 80.362 150.513 80.5338 150.546C80.7055 150.579 80.9328 150.145 81.0414 149.577Z" fill="#FFDDBD"/>
<path d="M76.7892 147.166C77.1463 146.711 77.3242 146.255 77.1867 146.147C77.0492 146.039 76.6482 146.32 76.2911 146.775C75.934 147.23 75.756 147.686 75.8935 147.794C76.0311 147.902 76.4321 147.621 76.7892 147.166Z" fill="#FFDDBD"/>
<path d="M79.1857 149.681C79.3061 149.052 79.226 148.508 79.0068 148.466C78.7876 148.424 78.5124 148.9 78.3921 149.529C78.2717 150.158 78.3519 150.702 78.571 150.744C78.7902 150.786 79.0654 150.31 79.1857 149.681Z" fill="#FFDDBD"/>
<path d="M175.34 164.716H8.26782L20.7556 148.402H161.073L175.34 164.716Z" fill="#FFDDBD"/>
<path d="M137.994 153.161C128.101 160.165 99.9558 142.443 99.9558 142.443L99.9927 131.851L139.872 141.763C139.872 141.763 143.023 149.599 137.994 153.159V153.161Z" fill="#8E410F"/>
<path d="M84.2656 147.001H105.199C106.221 147.001 107.05 147.831 107.05 148.853H84.2637V147.001H84.2656Z" fill="#FF7C33"/>
<path d="M87.5096 148.853H46.0896C45.0757 148.853 44.1705 148.213 43.8326 147.256L34.476 120.758C34.0467 119.54 34.9499 118.262 36.2416 118.262H74.0429C75.7988 118.262 77.3605 119.376 77.9335 121.035L87.5115 148.851L87.5096 148.853Z" fill="#FF7C33"/>
<path d="M85.9437 148.853H44.5237C43.5098 148.853 42.6046 148.213 42.2666 147.256L32.91 120.758C32.4808 119.54 33.384 118.262 34.6757 118.262H72.4769C74.2329 118.262 75.7946 119.376 76.3676 121.035L85.9456 148.851L85.9437 148.853Z" fill="#FF5B00"/>
<path d="M57.4769 129.331C57.4963 128.717 56.9525 128.245 56.3484 128.346C55.8997 128.422 55.5617 128.813 55.5462 129.265C55.5267 129.879 56.0706 130.351 56.6747 130.25C57.1234 130.174 57.4614 129.784 57.4769 129.331Z" fill="#FFECDC"/>
<path d="M58.5791 136.852C57.775 136.631 57.4312 136.332 57.1029 135.566C57.0388 135.415 56.8212 135.43 56.7785 135.588C56.5571 136.392 56.2579 136.736 55.4926 137.064C55.3411 137.128 55.3567 137.346 55.514 137.388C56.3182 137.61 56.662 137.909 56.9902 138.674C57.0543 138.826 57.2719 138.81 57.3146 138.653C57.536 137.849 57.8352 137.505 58.6005 137.177C58.752 137.113 58.7365 136.895 58.5791 136.852Z" fill="#FFECDC"/>
<path d="M60.8597 135.427L60.6927 132.991C60.547 130.875 58.7639 129.219 56.6447 129.292C54.4168 129.37 52.7152 131.274 52.8667 133.478L53.0377 135.963C53.059 136.27 52.8259 136.538 52.519 136.559L52.5579 137.116L52.5929 137.111C53.3057 136.99 53.9894 136.726 54.5877 136.32C55.5337 135.675 56.0193 134.859 56.4039 133.455C56.5068 133.08 57.0293 133.043 57.1828 133.403C57.7558 134.741 58.3482 135.483 59.3738 135.994C60.0226 136.316 60.7354 136.483 61.458 136.505H61.4949L61.4561 135.949C61.1492 135.97 60.8811 135.737 60.8597 135.43" fill="#FFECDC"/>
<path d="M61.0175 87.1792C61.2702 87.151 61.4253 86.6839 61.3641 86.1359C61.3028 85.5879 61.0483 85.1666 60.7956 85.1948C60.543 85.2231 60.3878 85.6902 60.4491 86.2382C60.5104 86.7862 60.7649 87.2075 61.0175 87.1792Z" fill="#8077CD"/>
<path d="M49.2286 86.152C49.4194 85.984 49.2787 85.5123 48.9144 85.0984C48.55 84.6846 48.1 84.4853 47.9091 84.6533C47.7183 84.8213 47.859 85.293 48.2233 85.7068C48.5877 86.1207 49.0378 86.32 49.2286 86.152Z" fill="#8077CD"/>
<path d="M67.6838 108.163C67.6838 108.163 64.5838 100.759 63.9738 97.3865C63.7641 96.2288 63.0357 93.7406 62.6763 91.5263C61.8119 86.2002 60.8757 83.4905 60.3377 86.8451C59.518 91.9536 60.3066 95.1994 57.4279 92.3732C53.4149 88.432 49.6214 85.2717 48.891 84.992C45.6181 83.7411 52.8128 91.7186 52.8128 91.7186C52.8128 91.7186 50.1614 94.4263 51.321 97.1593C52.4787 99.8922 55.7924 102.555 56.6024 104.667C57.4629 106.914 58.7876 111.281 58.7876 111.281L67.6819 108.161L67.6838 108.163Z" fill="#8E410F"/>
<path d="M53.2336 98.3693C54.3331 99.6746 57.4798 101.409 56.6173 99.5833C55.4888 97.1961 52.5499 94.7506 51.8332 94.8108C51.1164 94.8691 51.0659 95.1798 51.0659 95.1798" stroke="black" stroke-width="0.0912932" stroke-linecap="round" stroke-linejoin="round"/>
<path d="M55.3485 97.5807C56.4713 98.5558 57.9222 99.0375 57.3259 97.7166C56.4946 95.8772 53.5421 93.251 52.8254 93.3113C52.1086 93.3695 52.0581 93.6803 52.0581 93.6803" stroke="black" stroke-width="0.0912932" stroke-linecap="round" stroke-linejoin="round"/>
<path d="M56.4728 96.3007C57.3294 96.6872 58.5861 97.169 58.4132 96.4969C57.9781 94.7895 54.779 91.6059 53.8311 91.534C53.1143 91.4796 52.7511 91.7846 52.7511 91.7846" stroke="black" stroke-width="0.0912932" stroke-linecap="round" stroke-linejoin="round"/>
<path d="M60.0342 98.8977C60.0342 98.8977 59.2261 97.7885 59.4359 95.9238" stroke="black" stroke-width="0.0912932" stroke-linecap="round" stroke-linejoin="round"/>
<path d="M58.4528 97.0098C58.6437 96.8418 58.503 96.3701 58.1386 95.9562C57.7743 95.5424 57.3242 95.3431 57.1334 95.5111C56.9425 95.6791 57.0832 96.1508 57.4476 96.5646C57.8119 96.9785 58.262 97.1778 58.4528 97.0098Z" fill="#8077CD"/>
<path d="M57.6564 98.7185C57.8473 98.5505 57.7066 98.0788 57.3422 97.665C56.9779 97.2511 56.5278 97.0518 56.337 97.2198C56.1462 97.3878 56.2868 97.8595 56.6512 98.2734C57.0155 98.6872 57.4656 98.8865 57.6564 98.7185Z" fill="#8077CD"/>
<path d="M56.8193 100.675C57.0101 100.507 56.8694 100.036 56.5051 99.6218C56.1407 99.2079 55.6907 99.0086 55.4998 99.1766C55.309 99.3446 55.4497 99.8163 55.814 100.23C56.1784 100.644 56.6284 100.843 56.8193 100.675Z" fill="#8077CD"/>
</g>
<defs>
<clipPath id="clip0_454_6628">
<rect width="193.363" height="166" fill="white" transform="translate(0.318726)"/>
</clipPath>
</defs>
</svg>
