<svg width="234" height="166" viewBox="0 0 234 166" fill="none" xmlns="http://www.w3.org/2000/svg">
<g clip-path="url(#clip0_454_6967)">
<path d="M172.983 20.5826C174.298 21.1608 175.556 21.8264 176.684 22.6689C178.794 24.2478 180.406 26.5772 180.34 29.0695C180.288 30.9623 179.268 32.7607 177.824 34.1154C176.379 35.4701 174.536 36.4188 172.627 37.1505C174.064 38.0992 175.421 39.2344 176.153 40.7095C176.885 42.1845 176.868 44.0585 175.738 45.3022C174.296 46.8906 171.707 46.9637 169.453 46.9071C170.432 46.9307 171.081 50.4307 171.126 51.0561C171.249 52.7578 170.76 54.332 169.83 55.7905C167.947 58.743 163.864 60.244 160.272 60.6452C156.378 61.0818 152.41 60.336 148.757 59.0285C146.864 58.3512 144.285 56.6472 142.219 57.4756C141.316 57.8391 140.577 58.4645 139.774 58.9931C137.115 60.742 133.622 61.3863 130.428 60.7184C127.646 60.1354 124.505 57.9405 123.627 55.3704C122.152 55.7409 120.615 56.01 119.098 55.8377C117.58 55.6654 116.072 54.9975 115.237 53.8245C114.682 53.0433 114.462 52.1064 114.318 51.1859C114.111 49.8643 114.038 48.5025 114.396 47.2092C114.755 45.9158 115.591 44.691 116.86 44.0325C115.26 43.459 113.672 42.7698 112.414 41.6984C111.156 40.6269 110.261 39.1093 110.344 37.5375C110.427 35.9657 111.67 34.4175 113.367 34.1626C110.972 31.4272 110.913 27.2381 113.084 24.3493C115.255 21.4605 119.416 20.0114 123.178 20.6793C123.438 17.4531 125.869 14.7177 128.55 12.6102C129.661 11.7369 130.87 10.9133 132.276 10.538C134.596 9.91731 137.067 10.5994 139.368 11.2767C139.628 11.3522 141.684 10.2595 142.156 10.158C143.293 9.91495 144.488 9.88427 145.642 10.0518C147.421 10.3091 150.19 11.1918 150.744 12.95C151.188 12.3034 151.773 11.8101 152.507 11.4254C156.6 9.27772 161.971 10.0046 165.91 12.3812C167.159 13.1341 168.322 14.064 169.056 15.2582C169.79 16.4524 170.045 17.9416 169.479 19.209C170.656 19.6409 171.841 20.0799 172.986 20.5826H172.983Z" fill="black"/>
<path d="M124.419 34.5497C122.201 34.5166 120.367 36.898 120.324 39.867C120.279 42.8383 122.04 45.2739 124.256 45.307C126.475 45.34 128.306 42.9587 128.351 39.9873C128.396 37.0183 126.635 34.5827 124.419 34.5497ZM124.28 44.108C122.694 44.0844 121.436 42.3427 121.467 40.2186C121.5 38.0945 122.81 36.3929 124.395 36.4165C125.979 36.4401 127.239 38.1818 127.206 40.3059C127.176 42.43 125.866 44.1316 124.28 44.108Z" fill="#FF5B00"/>
<path d="M204.978 104.8C203.954 103.632 203.725 102.813 203.999 101.284C204.053 100.982 203.699 100.783 203.47 100.984C202.302 102.008 201.483 102.237 199.954 101.963C199.651 101.909 199.453 102.263 199.654 102.492C200.678 103.66 200.907 104.479 200.633 106.009C200.579 106.311 200.933 106.509 201.162 106.308C202.33 105.284 203.149 105.055 204.678 105.329C204.981 105.383 205.179 105.029 204.978 104.8Z" fill="#FF9260"/>
<path d="M52.8565 145.198C51.8322 144.03 51.6033 143.211 51.877 141.682C51.9313 141.379 51.5773 141.181 51.3484 141.382C50.1801 142.406 49.3612 142.635 47.8318 142.361C47.5297 142.307 47.3315 142.661 47.5321 142.89C48.5564 144.058 48.7853 144.877 48.5115 146.406C48.4573 146.709 48.8113 146.907 49.0402 146.706C50.2085 145.682 51.0274 145.453 52.5567 145.727C52.8588 145.781 53.0571 145.427 52.8565 145.198Z" fill="#FF9260"/>
<path d="M45.1248 46.277C43.6828 45.6987 43.1093 45.0709 42.6632 43.5817C42.5759 43.2891 42.17 43.2702 42.0567 43.5534C41.4785 44.9954 40.8507 45.5689 39.3615 46.015C39.0688 46.1023 39.0499 46.5082 39.3331 46.6215C40.7752 47.1998 41.3487 47.8275 41.7947 49.3168C41.882 49.6094 42.288 49.6283 42.4013 49.3451C42.9795 47.9031 43.6073 47.3296 45.0965 46.8835C45.3891 46.7962 45.408 46.3902 45.1248 46.277Z" fill="#FF9260"/>
<path d="M83.7006 135.812C84.798 136.138 85.9073 136.296 87 136.296C91.7202 136.296 96.1194 133.39 97.8447 128.758L117.348 76.3681L158.452 74.3172L159.545 90.8591L182.131 84.8456L178.831 62.545C177.58 56.1326 171.593 51.7759 165.11 52.55L112.73 58.8255C106.114 59.4698 100.379 63.6755 97.7762 69.7976L76.4504 119.95C73.5616 126.343 76.9767 133.815 83.7006 135.812Z" fill="#1A1A1A"/>
<path d="M91.1691 161.572H179.885C172.871 147.924 162.366 130.964 149.574 120.993L150.431 117.641L157.521 95.7515L159.546 71.0177L137.8 68.8417L128.992 72.9507L119.2 70.2389L108.105 75.2069L106.116 88.1851L113.774 97.1534L91.1691 161.572Z" fill="#1A1A1A"/>
<path d="M156.332 21.3441C156.491 10.7405 148.342 2.02026 138.131 1.86697C127.92 1.71369 119.513 10.1854 119.354 20.789C119.194 31.3926 127.343 40.1128 137.555 40.2661C147.766 40.4194 156.173 31.9477 156.332 21.3441Z" fill="black"/>
<path d="M147.82 55.9746L137.846 69.7977L130.929 58.4433C130.929 58.4433 129.68 51.0703 128.758 45.5288C128.753 45.4958 128.748 45.4627 128.739 45.4273C128.203 42.2105 127.778 39.6333 127.781 39.52L133.662 37.3511L134.011 37.2213L143.985 33.5443L147.825 55.9722L147.82 55.9746Z" fill="#8E410F"/>
<path d="M142.933 35.5527C142.933 35.5527 139.166 40.8039 136.02 42.8737C133.998 44.2024 130.021 45.2409 128.735 45.432C128.199 42.2152 127.774 39.638 127.777 39.5247L133.658 37.3558L134.007 37.226L142.936 35.5527H142.933Z" fill="#72310B"/>
<path d="M148.432 30.1811C148.432 30.1811 142.418 41.9108 130.113 41.8258C117.812 41.7385 116.223 34.0989 119.14 26.1076C119.485 25.1659 119.752 24.347 119.959 23.6201C120.306 22.4046 120.493 21.4582 120.58 20.677C120.892 17.9535 120.077 17.2053 121.234 13.9649C124.93 3.93214 134.2 6.97903 134.214 6.98375C135.343 7.35428 137.011 6.90586 138.189 6.9035C139.669 6.89878 140.705 7.13951 141.899 7.9679C143.187 8.86238 144.599 9.55625 145.913 10.4059C147.219 11.2484 148.118 12.6149 149.444 13.3041C150.027 13.6062 150.667 14.0853 150.626 14.7414C150.601 15.1497 150.31 15.4919 150.211 15.8884C150.018 16.6507 150.549 17.3847 150.992 18.0337C151.198 18.3334 151.396 18.7205 151.226 19.0415C151.084 19.3105 150.73 19.4167 150.586 19.6858C150.388 20.0516 150.667 20.4811 150.91 20.8186C151.5 21.6376 150.936 22.9876 150.719 23.8915C150.457 24.9771 150.131 26.0486 149.751 27.0988C149.371 28.1467 148.956 29.197 148.434 30.1835L148.432 30.1811Z" fill="#8E410F"/>
<path d="M137.579 23.0607C137.579 23.0607 137.14 24.3564 135.098 24.9677C134.827 25.0503 134.527 25.1211 134.192 25.173C133.925 25.2155 133.64 25.2485 133.331 25.2674C130.546 25.435 129.174 24.3045 129.174 24.3045C129.174 24.3045 130.265 21.6423 132.993 21.2812C133.106 21.2647 133.22 21.2529 133.338 21.2458C134.414 21.1845 135.268 21.4063 135.92 21.7178C137.057 22.2583 137.576 23.0607 137.576 23.0607H137.579Z" fill="#FF5B00"/>
<path d="M137.572 23.8065C137.572 23.8065 137.128 24.9582 135.044 25.501C134.766 25.5742 134.461 25.6379 134.119 25.6828C133.848 25.7205 133.558 25.7489 133.241 25.7654C130.4 25.9093 128.998 24.8992 128.998 24.8992C128.998 24.8992 130.105 22.5297 132.89 22.2158C133.005 22.2016 133.121 22.1922 133.241 22.1851C134.339 22.1308 135.212 22.3314 135.877 22.6099C137.041 23.0937 137.572 23.8089 137.572 23.8089V23.8065Z" fill="white"/>
<path d="M136.204 23.7263C136.192 24.5169 135.72 25.1919 135.045 25.4987C134.783 25.6238 134.488 25.6875 134.182 25.6852C134.163 25.6852 134.139 25.6852 134.12 25.6804C133.051 25.6332 132.206 24.7435 132.223 23.6673C132.232 23.0867 132.487 22.5675 132.891 22.2135C133.006 22.1993 133.122 22.1899 133.242 22.1828C134.34 22.1285 135.213 22.3291 135.879 22.6076C136.089 22.9309 136.209 23.3156 136.202 23.7263H136.204Z" fill="black"/>
<path d="M129.184 24.793C129.184 24.793 131.702 19.5513 137.65 23.6272" stroke="black" stroke-width="0.559343" stroke-linecap="round" stroke-linejoin="round"/>
<path d="M125.613 23.4336C125.613 23.4336 124.962 23.7947 122.944 23.6106C122.672 23.5894 122.384 23.5469 122.066 23.4808C121.816 23.4265 121.549 23.3605 121.261 23.2731C120.829 23.1433 120.444 22.9946 120.102 22.8412C120.449 21.6258 120.636 20.6794 120.723 19.8982C121.141 19.8699 121.594 19.9029 122.078 20.0162C122.184 20.0374 122.29 20.0658 122.399 20.0988C123.392 20.4009 124.1 20.854 124.601 21.3142C125.476 22.112 125.613 23.4336 125.613 23.4336Z" fill="#FF5B00"/>
<path d="M125.582 23.6908C125.582 23.6908 124.819 24.5735 122.804 24.3894C122.533 24.3681 122.245 24.3257 121.926 24.2596C121.676 24.2053 121.409 24.1392 121.121 24.0519C120.689 23.9221 120.305 23.7734 119.962 23.62C120.309 22.4045 120.496 21.4581 120.583 20.6769C121.001 20.6486 121.454 20.6817 121.938 20.7949C122.044 20.8162 122.15 20.8445 122.259 20.8775C123.252 21.1796 123.96 21.6328 124.461 22.093C125.336 22.8907 125.582 23.6908 125.582 23.6908Z" fill="white"/>
<path d="M124.897 23.6366C124.526 24.2809 123.83 24.6208 123.134 24.5641C122.862 24.5476 122.589 24.465 122.338 24.321C122.322 24.3116 122.305 24.3022 122.289 24.2904C121.432 23.7617 121.144 22.643 121.652 21.7651C121.925 21.2907 122.374 20.9815 122.865 20.8753C122.966 20.9154 123.068 20.9626 123.169 21.0122C124.097 21.4724 124.722 22.0341 125.142 22.5699C125.168 22.9333 125.09 23.3038 124.897 23.639V23.6366Z" fill="black"/>
<path d="M120.656 20.6156C122.076 20.4811 123.882 21.0381 125.704 23.5587" stroke="black" stroke-width="0.526301" stroke-linecap="round" stroke-linejoin="round"/>
<path d="M129.892 32.737C129.976 32.7512 129.497 35.1939 127.496 35.5031C124.541 35.9586 123.387 33.1312 123.387 33.1312C123.387 33.1312 125.594 32.0007 129.892 32.737Z" fill="#FF27E7"/>
<path d="M123.39 33.1312C123.307 33.11 123.994 31.6373 126.05 31.4815C128.105 31.3257 130.142 32.7276 130.142 32.7276C130.142 32.7276 127.614 34.2121 123.39 33.1312Z" fill="#801478"/>
<path d="M122.898 33.0627C123.226 33.1689 123.551 33.2751 123.887 33.353C124.222 33.4309 124.559 33.4946 124.899 33.5513C125.463 33.6457 126.044 33.7259 126.617 33.6929C127.568 33.6386 128.534 33.4097 129.43 33.0934C129.879 32.9353 130.318 32.737 130.717 32.4727C130.811 32.409 130.731 32.2745 130.629 32.3217C130.261 32.4892 129.865 32.6096 129.478 32.7229C129.008 32.8621 128.536 32.9967 128.057 33.1052C127.618 33.2043 127.17 33.2917 126.721 33.3294C126.197 33.3743 125.664 33.3223 125.145 33.261C124.769 33.2161 124.396 33.1524 124.024 33.0887C123.655 33.025 123.29 32.9801 122.919 32.9377C122.846 32.9282 122.839 33.0391 122.902 33.0604L122.898 33.0627Z" fill="black"/>
<path d="M129.294 21.6282C130.309 20.9273 131.447 20.4175 132.691 20.3325C134.362 20.2169 135.933 20.7809 137.526 21.1869C137.904 21.2836 138.173 20.7219 137.8 20.5355C136.247 19.7614 134.362 19.2941 132.62 19.5088C131.227 19.6811 130.057 20.3537 129.044 21.3001C128.874 21.4583 129.099 21.7604 129.294 21.6258V21.6282Z" fill="black"/>
<path d="M124.671 19.4709C124.366 19.2751 124.074 19.0556 123.741 18.9092C123.408 18.7629 123.073 18.6378 122.729 18.534C122.101 18.3452 121.456 18.2366 120.798 18.2461C120.583 18.2508 120.399 18.4254 120.399 18.6449C120.399 18.8833 120.583 19.0154 120.798 19.0438C121.353 19.1169 121.952 19.1712 122.526 19.2656C122.844 19.3175 123.158 19.3883 123.467 19.4733C123.81 19.5677 124.164 19.6338 124.487 19.7825C124.695 19.8769 124.864 19.6007 124.669 19.4733L124.671 19.4709Z" fill="black"/>
<path d="M125.623 20.3206C125.956 20.6109 126.27 20.9106 126.51 21.2812C126.751 21.6517 126.907 22.034 126.968 22.4518C127.025 22.8388 126.987 23.2306 126.838 23.5917C126.69 23.9528 126.47 24.2785 126.241 24.59C125.772 25.2367 125.207 25.8385 124.882 26.5749C124.556 27.3112 124.483 28.2623 125.101 28.8335C125.882 29.558 127.188 29.525 128.011 28.8925C128.153 28.7839 128.037 28.5739 127.87 28.6518C127.103 29.0034 126.055 29.1781 125.377 28.5361C125.094 28.2694 125.026 27.8446 125.052 27.4694C125.078 27.1224 125.212 26.7896 125.38 26.4876C125.762 25.7937 126.31 25.206 126.746 24.5499C126.956 24.236 127.147 23.8985 127.261 23.5351C127.381 23.1551 127.391 22.7468 127.32 22.355C127.159 21.4723 126.548 20.5425 125.682 20.2239C125.63 20.205 125.585 20.2829 125.628 20.3183L125.623 20.3206Z" fill="black"/>
<path d="M53.6766 79.5049C53.6766 79.5049 46.9833 72.2783 44.6374 72.5426C40.4954 73.0099 25.2398 71.7638 23.0449 71.4357C20.85 71.1077 15.7428 70.4209 19.087 72.4152C21.0176 73.5669 23.1936 74.7399 24.6875 75.5258C25.0108 75.6957 25.8558 76.1253 25.8558 76.1253C23.6727 75.7594 18.6646 75.1364 15.2212 74.4378C9.7906 73.3356 8.87488 73.1964 11.1878 75.2426C11.3813 75.4149 13.0593 75.8822 12.7926 75.9671C11.0037 76.5359 15.2212 78.6529 15.2212 78.6529C14.1119 79.5545 19.0516 81.9004 24.494 84.0859C32.8511 87.4395 33.0305 87.2083 38.5507 88.1759C44.0049 89.1317 48.574 96.0114 48.574 96.0114L54.4176 83.3613" fill="#8E410F"/>
<path d="M20.4264 72.5071C20.5311 72.2641 19.9658 71.787 19.1638 71.4414C18.3617 71.0958 17.6267 71.0127 17.522 71.2557C17.4173 71.4987 17.9826 71.9758 18.7846 72.3214C19.5866 72.667 20.3217 72.7501 20.4264 72.5071Z" fill="#B57548"/>
<path d="M13.084 75.6353C13.2012 75.3952 12.5491 74.8356 11.6273 74.3854C10.7056 73.9353 9.86327 73.765 9.74601 74.0051C9.62875 74.2452 10.2809 74.8048 11.2027 75.2549C12.1244 75.7051 12.9667 75.8754 13.084 75.6353Z" fill="#B57548"/>
<path d="M17.1982 80.526C17.3046 80.3558 16.8291 79.8666 16.1361 79.4334C15.4431 79.0002 14.795 78.787 14.6886 78.9572C14.5822 79.1275 15.0578 79.6166 15.7508 80.0498C16.4438 80.483 17.0918 80.6962 17.1982 80.526Z" fill="#B57548"/>
<path d="M15.438 78.1501C15.5553 77.91 14.9031 77.3504 13.9813 76.9002C13.0596 76.45 12.2173 76.2797 12.1 76.5198C11.9828 76.7599 12.6349 77.3195 13.5567 77.7697C14.4784 78.2199 15.3207 78.3902 15.438 78.1501Z" fill="#B57548"/>
<path d="M26.9241 79.3869L22.0505 78.7095C19.4544 78.3484 16.9173 77.6545 14.5006 76.6397L11.8101 75.5092" stroke="black" stroke-width="0.290292" stroke-linecap="round" stroke-linejoin="round"/>
<path d="M27.1802 82.6981L21.7567 81.36C21.3437 81.2585 20.9425 81.124 20.5507 80.9611L14.8086 78.5515" stroke="black" stroke-width="0.290292" stroke-linecap="round" stroke-linejoin="round"/>
<path d="M26.5583 76.189C26.5583 76.189 25.3216 75.8892 23.4382 74.8602" stroke="black" stroke-width="0.351654" stroke-linecap="round" stroke-linejoin="round"/>
<path d="M159.546 90.8592L163.353 128.621C164.342 136.296 171.63 142.633 178.04 141.401C184.23 140.211 188.453 134.613 188.453 128.505C188.453 127.769 188.391 127.023 188.264 126.275L182.135 84.8456L159.549 90.8592H159.546Z" fill="#1A1A1A"/>
<path d="M76.9017 133.013L42.2295 94.1704L53.6783 79.5048L91.6098 119.478C94.98 123.03 95.2821 128.5 92.3202 132.402C88.518 137.41 81.0908 137.705 76.904 133.013H76.9017Z" fill="#1A1A1A"/>
<path d="M213.461 161.572H185.272L165.875 135.644C162.068 130.556 163.269 123.214 168.641 119.815C170.302 118.763 178.289 116.561 179.882 118.258C197.455 136.985 208.567 153.626 213.461 161.572Z" fill="#1A1A1A"/>
<path d="M92.1099 120.818L68.2942 94.9043" stroke="black" stroke-width="0.290292" stroke-linecap="round" stroke-linejoin="round"/>
<path d="M156.004 53.6428L168.812 52.6633L159.546 94.3804L149.912 119.666L165.93 139.859L140.934 153.529L127.734 131.118L114.308 154.74L98.894 139.555L113.772 97.1535L106.114 88.1851L110.4 59.2079L130.67 57.2868L134.638 80.8334L151.39 54.195L156.004 53.6428Z" fill="#37353F"/>
<mask id="mask0_454_6967" style="mask-type:luminance" maskUnits="userSpaceOnUse" x="99" y="52" width="71" height="103">
<path d="M156.237 53.5862L169.045 52.6091L159.779 94.3238L150.145 119.612L166.163 139.803L141.167 153.472L127.967 131.061L114.541 154.683L99.127 139.501L114.005 97.0969L106.346 88.1285L110.632 59.1536L130.903 57.2325L134.871 80.7768L151.623 54.1408L156.237 53.5862Z" fill="white"/>
</mask>
<g mask="url(#mask0_454_6967)">
<path d="M109.775 64.2892C108.23 63.7487 107.597 63.1162 107.057 61.5704C106.95 61.2659 106.523 61.2659 106.417 61.5704C105.877 63.1162 105.244 63.7487 103.698 64.2892C103.394 64.3954 103.394 64.8226 103.698 64.9288C105.244 65.4693 105.877 66.1018 106.417 67.6476C106.523 67.9521 106.95 67.9521 107.057 67.6476C107.597 66.1018 108.23 65.4693 109.775 64.9288C110.08 64.8226 110.08 64.3954 109.775 64.2892Z" fill="#29282F"/>
<path d="M114.44 61.7993V57.0036C114.44 52.838 111.169 49.3545 107.006 49.2153C102.633 49.069 99.0381 52.569 99.0381 56.9116V61.7993C99.0381 62.4059 98.5472 62.8968 97.9407 62.8968V63.9942L98.0115 63.9871C99.4252 63.8479 100.801 63.4231 102.028 62.7056C103.968 61.5704 105.028 60.034 105.974 57.3364C106.227 56.6142 107.254 56.6142 107.506 57.3364C108.45 60.0363 109.51 61.5704 111.452 62.7056C112.679 63.4254 114.055 63.8479 115.469 63.9871L115.54 63.9942V62.8968C114.933 62.8968 114.442 62.4059 114.442 61.7993" fill="#29282F"/>
<path d="M127.376 64.2893C125.83 63.7488 125.198 63.1163 124.657 61.5704C124.551 61.266 124.124 61.266 124.017 61.5704C123.477 63.1163 122.845 63.7488 121.299 64.2893C120.994 64.3955 120.994 64.8227 121.299 64.9289C122.845 65.4693 123.477 66.1018 124.017 67.6477C124.124 67.9521 124.551 67.9521 124.657 67.6477C125.198 66.1018 125.83 65.4693 127.376 64.9289C127.68 64.8227 127.68 64.3955 127.376 64.2893Z" fill="#29282F"/>
<path d="M132.037 61.7994V57.0037C132.037 52.8381 128.766 49.3546 124.602 49.2154C120.229 49.069 116.635 52.5691 116.635 56.9116V61.7994C116.635 62.4059 116.144 62.8968 115.537 62.8968V63.9943L115.608 63.9872C117.022 63.848 118.398 63.4231 119.625 62.7057C121.565 61.5705 122.625 60.034 123.571 57.3365C123.824 56.6143 124.85 56.6143 125.103 57.3365C126.047 60.0364 127.106 61.5705 129.049 62.7057C130.276 63.4255 131.652 63.848 133.066 63.9872L133.136 63.9943V62.8968C132.53 62.8968 132.039 62.4059 132.039 61.7994" fill="#29282F"/>
<path d="M144.973 64.2892C143.427 63.7487 142.794 63.1162 142.254 61.5704C142.148 61.2659 141.72 61.2659 141.614 61.5704C141.074 63.1162 140.441 63.7487 138.895 64.2892C138.591 64.3954 138.591 64.8226 138.895 64.9288C140.441 65.4693 141.074 66.1018 141.614 67.6476C141.72 67.9521 142.148 67.9521 142.254 67.6476C142.794 66.1018 143.427 65.4693 144.973 64.9288C145.277 64.8226 145.277 64.3954 144.973 64.2892Z" fill="#29282F"/>
<path d="M149.633 61.7993V57.0036C149.633 52.838 146.362 49.3545 142.199 49.2153C137.826 49.069 134.231 52.569 134.231 56.9116V61.7993C134.231 62.4059 133.74 62.8968 133.134 62.8968V63.9942L133.205 63.9871C134.618 63.8479 135.994 63.4231 137.222 62.7056C139.162 61.5704 140.221 60.034 141.168 57.3364C141.42 56.6142 142.447 56.6142 142.699 57.3364C143.643 60.0363 144.703 61.5704 146.645 62.7056C147.873 63.4254 149.249 63.8479 150.662 63.9871L150.733 63.9942V62.8968C150.127 62.8968 149.636 62.4059 149.636 61.7993" fill="#29282F"/>
<path d="M162.567 64.2892C161.021 63.7487 160.389 63.1162 159.848 61.5704C159.742 61.2659 159.315 61.2659 159.209 61.5704C158.668 63.1162 158.036 63.7487 156.49 64.2892C156.185 64.3954 156.185 64.8226 156.49 64.9288C158.036 65.4693 158.668 66.1018 159.209 67.6476C159.315 67.9521 159.742 67.9521 159.848 67.6476C160.389 66.1018 161.021 65.4693 162.567 64.9288C162.872 64.8226 162.872 64.3954 162.567 64.2892Z" fill="#29282F"/>
<path d="M167.232 61.7993V57.0036C167.232 52.838 163.961 49.3545 159.798 49.2153C155.424 49.069 151.83 52.569 151.83 56.9116V61.7993C151.83 62.4059 151.339 62.8968 150.732 62.8968V63.9942L150.803 63.9871C152.217 63.8479 153.593 63.4231 154.82 62.7056C156.76 61.5704 157.82 60.034 158.766 57.3364C159.019 56.6142 160.045 56.6142 160.298 57.3364C161.242 60.0363 162.302 61.5704 164.244 62.7056C165.471 63.4254 166.847 63.8479 168.261 63.9871L168.332 63.9942V62.8968C167.725 62.8968 167.234 62.4059 167.234 61.7993" fill="#29282F"/>
<path d="M184.821 61.7993V57.0036C184.821 52.838 181.55 49.3545 177.386 49.2153C173.013 49.069 169.419 52.569 169.419 56.9116V61.7993C169.419 62.4059 168.928 62.8968 168.321 62.8968V63.9942L168.392 63.9871C169.806 63.8479 171.182 63.4231 172.409 62.7056C174.349 61.5704 175.409 60.034 176.355 57.3364C176.608 56.6142 177.634 56.6142 177.887 57.3364C178.831 60.0363 179.89 61.5704 181.833 62.7056C183.06 63.4254 184.436 63.8479 185.85 63.9871L185.921 63.9942V62.8968C185.314 62.8968 184.823 62.4059 184.823 61.7993" fill="#29282F"/>
<path d="M109.775 84.6851C108.23 84.1447 107.597 83.5122 107.057 81.9663C106.95 81.6619 106.523 81.6619 106.417 81.9663C105.877 83.5122 105.244 84.1447 103.698 84.6851C103.394 84.7913 103.394 85.2185 103.698 85.3247C105.244 85.8652 105.877 86.4977 106.417 88.0436C106.523 88.348 106.95 88.348 107.057 88.0436C107.597 86.4977 108.23 85.8652 109.775 85.3247C110.08 85.2185 110.08 84.7913 109.775 84.6851Z" fill="#29282F"/>
<path d="M114.44 82.1953V77.3996C114.44 73.234 111.169 69.7505 107.006 69.6112C102.633 69.4649 99.0381 72.9649 99.0381 77.3075V82.1953C99.0381 82.8018 98.5472 83.2927 97.9407 83.2927V84.3901L98.0115 84.3831C99.4252 84.2438 100.801 83.819 102.028 83.1015C103.968 81.9663 105.028 80.4299 105.974 77.7323C106.227 77.0101 107.254 77.0101 107.506 77.7323C108.45 80.4323 109.51 81.9663 111.452 83.1015C112.679 83.8214 114.055 84.2438 115.469 84.3831L115.54 84.3901V83.2927C114.933 83.2927 114.442 82.8018 114.442 82.1953" fill="#29282F"/>
<path d="M127.376 84.6851C125.83 84.1446 125.198 83.5121 124.657 81.9663C124.551 81.6618 124.124 81.6618 124.017 81.9663C123.477 83.5121 122.845 84.1446 121.299 84.6851C120.994 84.7913 120.994 85.2185 121.299 85.3247C122.845 85.8651 123.477 86.4976 124.017 88.0435C124.124 88.348 124.551 88.348 124.657 88.0435C125.198 86.4976 125.83 85.8651 127.376 85.3247C127.68 85.2185 127.68 84.7913 127.376 84.6851Z" fill="#29282F"/>
<path d="M132.037 82.1952V77.3995C132.037 73.2339 128.766 69.7504 124.602 69.6112C120.229 69.4649 116.635 72.9649 116.635 77.3074V82.1952C116.635 82.8017 116.144 83.2927 115.537 83.2927V84.3901L115.608 84.383C117.022 84.2438 118.398 83.819 119.625 83.1015C121.565 81.9663 122.625 80.4299 123.571 77.7323C123.824 77.0101 124.85 77.0101 125.103 77.7323C126.047 80.4322 127.106 81.9663 129.049 83.1015C130.276 83.8213 131.652 84.2438 133.066 84.383L133.136 84.3901V83.2927C132.53 83.2927 132.039 82.8017 132.039 82.1952" fill="#29282F"/>
<path d="M144.973 84.6851C143.427 84.1447 142.794 83.5122 142.254 81.9663C142.148 81.6619 141.72 81.6619 141.614 81.9663C141.074 83.5122 140.441 84.1447 138.895 84.6851C138.591 84.7913 138.591 85.2185 138.895 85.3247C140.441 85.8652 141.074 86.4977 141.614 88.0436C141.72 88.348 142.148 88.348 142.254 88.0436C142.794 86.4977 143.427 85.8652 144.973 85.3247C145.277 85.2185 145.277 84.7913 144.973 84.6851Z" fill="#29282F"/>
<path d="M149.633 82.1953V77.3996C149.633 73.234 146.362 69.7505 142.199 69.6112C137.826 69.4649 134.231 72.9649 134.231 77.3075V82.1953C134.231 82.8018 133.74 83.2927 133.134 83.2927V84.3901L133.205 84.3831C134.618 84.2438 135.994 83.819 137.222 83.1015C139.162 81.9663 140.221 80.4299 141.168 77.7323C141.42 77.0101 142.447 77.0101 142.699 77.7323C143.643 80.4323 144.703 81.9663 146.645 83.1015C147.873 83.8214 149.249 84.2438 150.662 84.3831L150.733 84.3901V83.2927C150.127 83.2927 149.636 82.8018 149.636 82.1953" fill="#29282F"/>
<path d="M162.567 84.6851C161.021 84.1447 160.389 83.5122 159.848 81.9663C159.742 81.6619 159.315 81.6619 159.209 81.9663C158.668 83.5122 158.036 84.1447 156.49 84.6851C156.185 84.7913 156.185 85.2185 156.49 85.3247C158.036 85.8652 158.668 86.4977 159.209 88.0436C159.315 88.348 159.742 88.348 159.848 88.0436C160.389 86.4977 161.021 85.8652 162.567 85.3247C162.872 85.2185 162.872 84.7913 162.567 84.6851Z" fill="#29282F"/>
<path d="M167.232 82.1953V77.3996C167.232 73.234 163.961 69.7505 159.798 69.6112C155.424 69.4649 151.83 72.9649 151.83 77.3075V82.1953C151.83 82.8018 151.339 83.2927 150.732 83.2927V84.3901L150.803 84.3831C152.217 84.2438 153.593 83.819 154.82 83.1015C156.76 81.9663 157.82 80.4299 158.766 77.7323C159.019 77.0101 160.045 77.0101 160.298 77.7323C161.242 80.4323 162.302 81.9663 164.244 83.1015C165.471 83.8214 166.847 84.2438 168.261 84.3831L168.332 84.3901V83.2927C167.725 83.2927 167.234 82.8018 167.234 82.1953" fill="#29282F"/>
<path d="M184.821 82.1951V77.3994C184.821 73.2339 181.55 69.7504 177.386 69.6111C173.013 69.4648 169.419 72.9648 169.419 77.3074V82.1951C169.419 82.8017 168.928 83.2926 168.321 83.2926V84.39L168.392 84.383C169.806 84.2437 171.182 83.8189 172.409 83.1014C174.349 81.9662 175.409 80.4298 176.355 77.7322C176.608 77.01 177.634 77.01 177.887 77.7322C178.831 80.4322 179.89 81.9662 181.833 83.1014C183.06 83.8213 184.436 84.2437 185.85 84.383L185.921 84.39V83.2926C185.314 83.2926 184.823 82.8017 184.823 82.1951" fill="#29282F"/>
<path d="M109.775 105.079C108.23 104.538 107.597 103.906 107.057 102.36C106.95 102.056 106.523 102.056 106.417 102.36C105.877 103.906 105.244 104.538 103.698 105.079C103.394 105.185 103.394 105.612 103.698 105.718C105.244 106.259 105.877 106.891 106.417 108.437C106.523 108.742 106.95 108.742 107.057 108.437C107.597 106.891 108.23 106.259 109.775 105.718C110.08 105.612 110.08 105.185 109.775 105.079Z" fill="#29282F"/>
<path d="M114.44 102.589V97.7932C114.44 93.6276 111.169 90.1441 107.006 90.0049C102.633 89.8585 99.0381 93.3585 99.0381 97.7011V102.589C99.0381 103.195 98.5472 103.686 97.9407 103.686V104.784L98.0115 104.777C99.4252 104.637 100.801 104.213 102.028 103.495C103.968 102.36 105.028 100.824 105.974 98.1259C106.227 97.4037 107.254 97.4037 107.506 98.1259C108.45 100.826 109.51 102.36 111.452 103.495C112.679 104.215 114.055 104.637 115.469 104.777L115.54 104.784V103.686C114.933 103.686 114.442 103.195 114.442 102.589" fill="#29282F"/>
<path d="M127.376 105.079C125.83 104.538 125.198 103.906 124.657 102.36C124.551 102.056 124.124 102.056 124.017 102.36C123.477 103.906 122.845 104.538 121.299 105.079C120.994 105.185 120.994 105.612 121.299 105.718C122.845 106.259 123.477 106.891 124.017 108.437C124.124 108.742 124.551 108.742 124.657 108.437C125.198 106.891 125.83 106.259 127.376 105.718C127.68 105.612 127.68 105.185 127.376 105.079Z" fill="#29282F"/>
<path d="M132.037 102.589V97.7932C132.037 93.6276 128.766 90.1441 124.602 90.0049C120.229 89.8585 116.635 93.3585 116.635 97.7011V102.589C116.635 103.195 116.144 103.686 115.537 103.686V104.784L115.608 104.777C117.022 104.637 118.398 104.213 119.625 103.495C121.565 102.36 122.625 100.824 123.571 98.1259C123.824 97.4037 124.85 97.4037 125.103 98.1259C126.047 100.826 127.106 102.36 129.049 103.495C130.276 104.215 131.652 104.637 133.066 104.777L133.136 104.784V103.686C132.53 103.686 132.039 103.195 132.039 102.589" fill="#29282F"/>
<path d="M144.973 105.079C143.427 104.538 142.794 103.906 142.254 102.36C142.148 102.056 141.72 102.056 141.614 102.36C141.074 103.906 140.441 104.538 138.895 105.079C138.591 105.185 138.591 105.612 138.895 105.718C140.441 106.259 141.074 106.891 141.614 108.437C141.72 108.742 142.148 108.742 142.254 108.437C142.794 106.891 143.427 106.259 144.973 105.718C145.277 105.612 145.277 105.185 144.973 105.079Z" fill="#29282F"/>
<path d="M149.633 102.589V97.7932C149.633 93.6276 146.362 90.1441 142.199 90.0049C137.826 89.8585 134.231 93.3585 134.231 97.7011V102.589C134.231 103.195 133.74 103.686 133.134 103.686V104.784L133.205 104.777C134.618 104.637 135.994 104.213 137.222 103.495C139.162 102.36 140.221 100.824 141.168 98.1259C141.42 97.4037 142.447 97.4037 142.699 98.1259C143.643 100.826 144.703 102.36 146.645 103.495C147.873 104.215 149.249 104.637 150.662 104.777L150.733 104.784V103.686C150.127 103.686 149.636 103.195 149.636 102.589" fill="#29282F"/>
<path d="M162.567 105.079C161.021 104.538 160.389 103.906 159.848 102.36C159.742 102.056 159.315 102.056 159.209 102.36C158.668 103.906 158.036 104.538 156.49 105.079C156.185 105.185 156.185 105.612 156.49 105.718C158.036 106.259 158.668 106.891 159.209 108.437C159.315 108.742 159.742 108.742 159.848 108.437C160.389 106.891 161.021 106.259 162.567 105.718C162.872 105.612 162.872 105.185 162.567 105.079Z" fill="#29282F"/>
<path d="M167.232 102.589V97.7932C167.232 93.6276 163.961 90.1441 159.798 90.0049C155.424 89.8585 151.83 93.3585 151.83 97.7011V102.589C151.83 103.195 151.339 103.686 150.732 103.686V104.784L150.803 104.777C152.217 104.637 153.593 104.213 154.82 103.495C156.76 102.36 157.82 100.824 158.766 98.1259C159.019 97.4037 160.045 97.4037 160.298 98.1259C161.242 100.826 162.302 102.36 164.244 103.495C165.471 104.215 166.847 104.637 168.261 104.777L168.332 104.784V103.686C167.725 103.686 167.234 103.195 167.234 102.589" fill="#29282F"/>
<path d="M184.821 102.589V97.7932C184.821 93.6276 181.55 90.1441 177.386 90.0049C173.013 89.8585 169.419 93.3585 169.419 97.7011V102.589C169.419 103.195 168.928 103.686 168.321 103.686V104.784L168.392 104.777C169.806 104.637 171.182 104.213 172.409 103.495C174.349 102.36 175.409 100.824 176.355 98.1259C176.608 97.4037 177.634 97.4037 177.887 98.1259C178.831 100.826 179.89 102.36 181.833 103.495C183.06 104.215 184.436 104.637 185.85 104.777L185.921 104.784V103.686C185.314 103.686 184.823 103.195 184.823 102.589" fill="#29282F"/>
<path d="M109.775 125.475C108.23 124.934 107.597 124.302 107.057 122.756C106.95 122.451 106.523 122.451 106.417 122.756C105.877 124.302 105.244 124.934 103.698 125.475C103.394 125.581 103.394 126.008 103.698 126.114C105.244 126.655 105.877 127.287 106.417 128.833C106.523 129.138 106.95 129.138 107.057 128.833C107.597 127.287 108.23 126.655 109.775 126.114C110.08 126.008 110.08 125.581 109.775 125.475Z" fill="#29282F"/>
<path d="M114.44 122.983V118.187C114.44 114.021 111.169 110.538 107.006 110.398C102.633 110.252 99.0381 113.752 99.0381 118.095V122.983C99.0381 123.589 98.5472 124.08 97.9407 124.08V125.177L98.0115 125.17C99.4252 125.031 100.801 124.606 102.028 123.889C103.968 122.754 105.028 121.217 105.974 118.52C106.227 117.797 107.254 117.797 107.506 118.52C108.45 121.22 109.51 122.754 111.452 123.889C112.679 124.609 114.055 125.031 115.469 125.17L115.54 125.177V124.08C114.933 124.08 114.442 123.589 114.442 122.983" fill="#29282F"/>
<path d="M127.376 125.475C125.83 124.934 125.198 124.302 124.657 122.756C124.551 122.451 124.124 122.451 124.017 122.756C123.477 124.302 122.845 124.934 121.299 125.475C120.994 125.581 120.994 126.008 121.299 126.114C122.845 126.655 123.477 127.287 124.017 128.833C124.124 129.138 124.551 129.138 124.657 128.833C125.198 127.287 125.83 126.655 127.376 126.114C127.68 126.008 127.68 125.581 127.376 125.475Z" fill="#29282F"/>
<path d="M132.037 122.983V118.187C132.037 114.021 128.766 110.538 124.602 110.398C120.229 110.252 116.635 113.752 116.635 118.095V122.983C116.635 123.589 116.144 124.08 115.537 124.08V125.177L115.608 125.17C117.022 125.031 118.398 124.606 119.625 123.889C121.565 122.754 122.625 121.217 123.571 118.52C123.824 117.797 124.85 117.797 125.103 118.52C126.047 121.22 127.106 122.754 129.049 123.889C130.276 124.609 131.652 125.031 133.066 125.17L133.136 125.177V124.08C132.53 124.08 132.039 123.589 132.039 122.983" fill="#29282F"/>
<path d="M144.973 125.475C143.427 124.934 142.794 124.302 142.254 122.756C142.148 122.451 141.72 122.451 141.614 122.756C141.074 124.302 140.441 124.934 138.895 125.475C138.591 125.581 138.591 126.008 138.895 126.114C140.441 126.655 141.074 127.287 141.614 128.833C141.72 129.138 142.148 129.138 142.254 128.833C142.794 127.287 143.427 126.655 144.973 126.114C145.277 126.008 145.277 125.581 144.973 125.475Z" fill="#29282F"/>
<path d="M149.633 122.983V118.187C149.633 114.021 146.362 110.538 142.199 110.398C137.826 110.252 134.231 113.752 134.231 118.095V122.983C134.231 123.589 133.74 124.08 133.134 124.08V125.177L133.205 125.17C134.618 125.031 135.994 124.606 137.222 123.889C139.162 122.754 140.221 121.217 141.168 118.52C141.42 117.797 142.447 117.797 142.699 118.52C143.643 121.22 144.703 122.754 146.645 123.889C147.873 124.609 149.249 125.031 150.662 125.17L150.733 125.177V124.08C150.127 124.08 149.636 123.589 149.636 122.983" fill="#29282F"/>
<path d="M162.567 125.475C161.021 124.934 160.389 124.302 159.848 122.756C159.742 122.452 159.315 122.452 159.209 122.756C158.668 124.302 158.036 124.934 156.49 125.475C156.185 125.581 156.185 126.008 156.49 126.114C158.036 126.655 158.668 127.287 159.209 128.833C159.315 129.138 159.742 129.138 159.848 128.833C160.389 127.287 161.021 126.655 162.567 126.114C162.872 126.008 162.872 125.581 162.567 125.475Z" fill="#29282F"/>
<path d="M167.232 122.983V118.187C167.232 114.021 163.961 110.538 159.798 110.398C155.424 110.252 151.83 113.752 151.83 118.095V122.983C151.83 123.589 151.339 124.08 150.732 124.08V125.177L150.803 125.17C152.217 125.031 153.593 124.606 154.82 123.889C156.76 122.754 157.82 121.217 158.766 118.52C159.019 117.797 160.045 117.797 160.298 118.52C161.242 121.22 162.302 122.754 164.244 123.889C165.471 124.609 166.847 125.031 168.261 125.17L168.332 125.177V124.08C167.725 124.08 167.234 123.589 167.234 122.983" fill="#29282F"/>
<path d="M184.821 122.983V118.187C184.821 114.021 181.55 110.538 177.386 110.398C173.013 110.252 169.419 113.752 169.419 118.095V122.983C169.419 123.589 168.928 124.08 168.321 124.08V125.177L168.392 125.17C169.806 125.031 171.182 124.606 172.409 123.889C174.349 122.754 175.409 121.217 176.355 118.52C176.608 117.797 177.634 117.797 177.887 118.52C178.831 121.22 179.89 122.754 181.833 123.889C183.06 124.609 184.436 125.031 185.85 125.17L185.921 125.177V124.08C185.314 124.08 184.823 123.589 184.823 122.983" fill="#29282F"/>
<path d="M109.775 145.868C108.23 145.328 107.597 144.695 107.057 143.15C106.95 142.845 106.523 142.845 106.417 143.15C105.877 144.695 105.244 145.328 103.698 145.868C103.394 145.975 103.394 146.402 103.698 146.508C105.244 147.048 105.877 147.681 106.417 149.227C106.523 149.531 106.95 149.531 107.057 149.227C107.597 147.681 108.23 147.048 109.775 146.508C110.08 146.402 110.08 145.975 109.775 145.868Z" fill="#29282F"/>
<path d="M114.44 143.378V138.583C114.44 134.417 111.169 130.934 107.006 130.794C102.633 130.648 99.0381 134.148 99.0381 138.491V143.378C99.0381 143.985 98.5472 144.476 97.9407 144.476V145.573L98.0115 145.566C99.4252 145.427 100.801 145.002 102.028 144.285C103.968 143.149 105.028 141.613 105.974 138.915C106.227 138.193 107.254 138.193 107.506 138.915C108.45 141.615 109.51 143.149 111.452 144.285C112.679 145.005 114.055 145.427 115.469 145.566L115.54 145.573V144.476C114.933 144.476 114.442 143.985 114.442 143.378" fill="#29282F"/>
<path d="M127.376 145.868C125.83 145.328 125.198 144.695 124.657 143.15C124.551 142.845 124.124 142.845 124.017 143.15C123.477 144.695 122.845 145.328 121.299 145.868C120.994 145.975 120.994 146.402 121.299 146.508C122.845 147.048 123.477 147.681 124.017 149.227C124.124 149.531 124.551 149.531 124.657 149.227C125.198 147.681 125.83 147.048 127.376 146.508C127.68 146.402 127.68 145.975 127.376 145.868Z" fill="#29282F"/>
<path d="M132.037 143.378V138.583C132.037 134.417 128.766 130.934 124.602 130.794C120.229 130.648 116.635 134.148 116.635 138.491V143.378C116.635 143.985 116.144 144.476 115.537 144.476V145.573L115.608 145.566C117.022 145.427 118.398 145.002 119.625 144.285C121.565 143.149 122.625 141.613 123.571 138.915C123.824 138.193 124.85 138.193 125.103 138.915C126.047 141.615 127.106 143.149 129.049 144.285C130.276 145.005 131.652 145.427 133.066 145.566L133.136 145.573V144.476C132.53 144.476 132.039 143.985 132.039 143.378" fill="#29282F"/>
<path d="M144.973 145.868C143.427 145.328 142.794 144.695 142.254 143.15C142.148 142.845 141.72 142.845 141.614 143.15C141.074 144.695 140.441 145.328 138.895 145.868C138.591 145.975 138.591 146.402 138.895 146.508C140.441 147.048 141.074 147.681 141.614 149.227C141.72 149.531 142.148 149.531 142.254 149.227C142.794 147.681 143.427 147.048 144.973 146.508C145.277 146.402 145.277 145.975 144.973 145.868Z" fill="#29282F"/>
<path d="M149.633 143.378V138.583C149.633 134.417 146.362 130.934 142.199 130.794C137.826 130.648 134.231 134.148 134.231 138.491V143.378C134.231 143.985 133.74 144.476 133.134 144.476V145.573L133.205 145.566C134.618 145.427 135.994 145.002 137.222 144.285C139.162 143.149 140.221 141.613 141.168 138.915C141.42 138.193 142.447 138.193 142.699 138.915C143.643 141.615 144.703 143.149 146.645 144.285C147.873 145.005 149.249 145.427 150.662 145.566L150.733 145.573V144.476C150.127 144.476 149.636 143.985 149.636 143.378" fill="#29282F"/>
<path d="M162.567 145.868C161.021 145.328 160.389 144.695 159.848 143.15C159.742 142.845 159.315 142.845 159.209 143.15C158.668 144.695 158.036 145.328 156.49 145.868C156.185 145.975 156.185 146.402 156.49 146.508C158.036 147.048 158.668 147.681 159.209 149.227C159.315 149.531 159.742 149.531 159.848 149.227C160.389 147.681 161.021 147.048 162.567 146.508C162.872 146.402 162.872 145.975 162.567 145.868Z" fill="#29282F"/>
<path d="M167.232 143.378V138.583C167.232 134.417 163.961 130.934 159.798 130.794C155.424 130.648 151.83 134.148 151.83 138.491V143.378C151.83 143.985 151.339 144.476 150.732 144.476V145.573L150.803 145.566C152.217 145.427 153.593 145.002 154.82 144.285C156.76 143.149 157.82 141.613 158.766 138.915C159.019 138.193 160.045 138.193 160.298 138.915C161.242 141.615 162.302 143.149 164.244 144.285C165.471 145.005 166.847 145.427 168.261 145.566L168.332 145.573V144.476C167.725 144.476 167.234 143.985 167.234 143.378" fill="#29282F"/>
<path d="M184.821 143.378V138.583C184.821 134.417 181.55 130.934 177.386 130.794C173.013 130.648 169.419 134.148 169.419 138.491V143.378C169.419 143.985 168.928 144.476 168.321 144.476V145.573L168.392 145.566C169.806 145.427 171.182 145.002 172.409 144.285C174.349 143.149 175.409 141.613 176.355 138.915C176.608 138.193 177.634 138.193 177.887 138.915C178.831 141.615 179.89 143.149 181.833 144.285C183.06 145.005 184.436 145.427 185.85 145.566L185.921 145.573V144.476C185.314 144.476 184.823 143.985 184.823 143.378" fill="#29282F"/>
</g>
<path d="M125.581 57.2867L129.902 52.3848L130.672 57.2867L139.22 61.3272L147.82 55.9745L147.008 50.23L151.391 53.3831L161.52 52.9819L133.187 93.1696L125.581 57.2867Z" fill="#FFDDBD"/>
<path d="M149.667 66.3378L138.181 60.8293L148.709 55.1085L149.667 66.3378Z" fill="#FF5B00"/>
<path d="M128.776 66.3378L140.261 60.8293L129.732 55.1085L128.776 66.3378Z" fill="#FF5B00"/>
<path d="M139.218 61.3273L133.185 93.1697" stroke="black" stroke-width="0.302092" stroke-miterlimit="10"/>
<path d="M136.374 89.6484L126.27 100.797L127.731 131.118" stroke="black" stroke-width="0.302092" stroke-miterlimit="10"/>
<path d="M136.375 67.2888C136.9 67.2888 137.326 66.863 137.326 66.3377C137.326 65.8124 136.9 65.3866 136.375 65.3866C135.85 65.3866 135.424 65.8124 135.424 66.3377C135.424 66.863 135.85 67.2888 136.375 67.2888Z" stroke="#1A1A1A" stroke-width="0.23601" stroke-miterlimit="10"/>
<path d="M135.525 71.3246C136.05 71.3246 136.476 70.8988 136.476 70.3735C136.476 69.8482 136.05 69.4224 135.525 69.4224C134.999 69.4224 134.574 69.8482 134.574 70.3735C134.574 70.8988 134.999 71.3246 135.525 71.3246Z" stroke="#1A1A1A" stroke-width="0.23601" stroke-miterlimit="10"/>
<path d="M135.041 74.9474C135.567 74.9474 135.992 74.5216 135.992 73.9963C135.992 73.471 135.567 73.0452 135.041 73.0452C134.516 73.0452 134.09 73.471 134.09 73.9963C134.09 74.5216 134.516 74.9474 135.041 74.9474Z" stroke="#1A1A1A" stroke-width="0.23601" stroke-miterlimit="10"/>
<path d="M134.515 78.8297C135.04 78.8297 135.466 78.4039 135.466 77.8786C135.466 77.3533 135.04 76.9275 134.515 76.9275C133.99 76.9275 133.564 77.3533 133.564 77.8786C133.564 78.4039 133.99 78.8297 134.515 78.8297Z" stroke="#1A1A1A" stroke-width="0.23601" stroke-miterlimit="10"/>
<path d="M129.902 106.499C130.921 106.499 131.747 105.673 131.747 104.654C131.747 103.635 130.921 102.808 129.902 102.808C128.882 102.808 128.056 103.635 128.056 104.654C128.056 105.673 128.882 106.499 129.902 106.499Z" fill="#1A1A1A"/>
<path d="M130.618 113.278C131.637 113.278 132.464 112.451 132.464 111.432C132.464 110.413 131.637 109.587 130.618 109.587C129.599 109.587 128.773 110.413 128.773 111.432C128.773 112.451 129.599 113.278 130.618 113.278Z" fill="#1A1A1A"/>
<path d="M130.618 120.103C131.637 120.103 132.464 119.277 132.464 118.258C132.464 117.238 131.637 116.412 130.618 116.412C129.599 116.412 128.773 117.238 128.773 118.258C128.773 119.277 129.599 120.103 130.618 120.103Z" fill="#1A1A1A"/>
<path d="M130.859 127.717C131.878 127.717 132.704 126.89 132.704 125.871C132.704 124.852 131.878 124.026 130.859 124.026C129.84 124.026 129.013 124.852 129.013 125.871C129.013 126.89 129.84 127.717 130.859 127.717Z" fill="#1A1A1A"/>
<path d="M127.021 10.9251C127.132 9.72379 127.965 8.70658 128.846 7.93955C131.498 5.75883 135.414 5.19948 138.581 6.4763C136.469 7.61622 134.191 8.15432 131.949 8.90011C130.245 9.47598 128.586 9.9716 127.021 10.9251Z" fill="black"/>
<path d="M123.387 10.9251C123.498 9.72379 124.331 8.70658 125.211 7.93955C127.864 5.75883 131.78 5.19948 134.947 6.4763C132.835 7.61622 130.557 8.15432 128.315 8.90011C126.611 9.47598 124.952 9.9716 123.387 10.9251Z" fill="black"/>
<path d="M131.4 10.9039C131.671 9.68604 132.559 8.73492 133.493 7.97025C136.321 5.82964 140.295 5.22546 143.597 6.49991C141.628 7.53599 139.471 8.07173 137.406 8.73964C135.351 9.37451 133.354 9.95745 131.397 10.9039H131.4Z" fill="black"/>
<path d="M135.694 11.1021C135.996 9.93619 136.98 9.06059 137.969 8.44225C140.936 6.70993 144.892 6.77366 147.818 8.53665C145.55 9.32964 143.216 9.49957 140.882 9.88191C139.105 10.1816 137.391 10.4106 135.692 11.1021H135.694Z" fill="black"/>
<path d="M139.148 12.0013C139.783 10.6064 141.315 9.85121 142.728 9.47123C145.803 8.74905 149.278 9.59868 151.538 11.8408C149.287 12.2514 147.08 12.0414 144.841 11.9541C142.917 11.8833 141.086 11.7157 139.146 11.9989L139.148 12.0013Z" fill="black"/>
<path d="M141.136 13.998C141.763 12.9218 143.005 12.3624 144.171 12.0745C146.46 11.56 148.898 12.1217 150.883 13.3159C151.872 13.9555 152.743 14.7037 153.403 15.7091C152.233 15.8058 151.166 15.6878 150.062 15.5297C147.024 15.1544 144.208 14.1797 141.136 13.998Z" fill="black"/>
<path d="M143.237 16.9173C143.805 16.1503 144.742 15.7703 145.642 15.5485C147.688 15.1024 149.854 15.6547 151.62 16.7167C153.118 17.6466 154.372 18.9352 155.047 20.5944C154.4 20.5779 153.836 20.474 153.293 20.3536C150.959 19.8911 148.45 18.8054 146.239 17.944C145.217 17.5522 144.358 17.184 143.234 16.9173H143.237Z" fill="black"/>
<path d="M145.154 20.1271C145.879 19.5324 146.858 19.3837 147.769 19.3719C149.842 19.4026 151.81 20.3985 153.309 21.7863C154.569 22.9876 155.536 24.4768 155.9 26.2044C155.291 26.0344 154.777 25.8008 154.283 25.5553C151.022 24.0307 148.414 21.6565 145.154 20.1271Z" fill="black"/>
<path d="M154.28 25.6214C155.616 28.234 153.343 32.73 149.996 34.4434C146.65 36.1569 142.883 35.7273 141.545 33.1147C140.209 30.5021 142.453 25.7064 145.8 23.9929C149.147 22.2795 152.942 23.0088 154.28 25.6214Z" fill="#8F410F"/>
<path d="M146.544 34.2169C144.325 34.1839 142.491 36.5652 142.449 39.5342C142.404 42.5055 144.165 44.9412 146.381 44.9742C148.599 45.0072 150.431 42.6259 150.476 39.6546C150.52 36.6856 148.76 34.2499 146.544 34.2169ZM146.404 43.7753C144.818 43.7517 143.56 42.0099 143.591 39.8858C143.624 37.7618 144.934 36.0601 146.52 36.0837C148.104 36.1073 149.364 37.8491 149.331 39.9732C149.3 42.0972 147.99 43.7989 146.404 43.7753Z" fill="#FF5B00"/>
<path d="M144.701 29.709C144.981 29.3078 145.338 28.942 145.701 28.6163C146.065 28.2906 146.487 28.0263 146.926 27.8044C147.932 27.297 149.071 27.1059 150.19 27.1082C150.532 27.1082 150.875 27.1224 151.214 27.1483C151.38 27.1625 151.545 27.1743 151.71 27.1861C151.899 27.2003 152.071 27.1908 152.258 27.1743C152.371 27.1649 152.454 26.9902 152.324 26.9336C152.175 26.8675 152.038 26.8038 151.878 26.7707C151.717 26.7377 151.552 26.7117 151.387 26.6905C151.063 26.6456 150.735 26.6244 150.41 26.6126C149.763 26.5914 149.109 26.6433 148.474 26.766C147.389 26.9761 146.353 27.4528 145.538 28.2057C145.095 28.614 144.778 29.0907 144.561 29.6524C144.531 29.735 144.651 29.7728 144.696 29.709H144.701Z" fill="black"/>
<path d="M147.881 27.2405C147.893 27.4128 147.98 27.5591 148.06 27.7102C148.145 27.8683 148.225 28.0311 148.296 28.1987C148.435 28.5268 148.542 28.876 148.575 29.2324C148.641 29.9239 148.365 30.5423 147.935 31.0686C147.819 31.2102 147.973 31.4721 148.15 31.3471C148.789 30.8939 149.096 30.075 149.035 29.3079C149.002 28.8996 148.87 28.5102 148.686 28.1468C148.594 27.9627 148.487 27.788 148.374 27.6158C148.268 27.4553 148.159 27.2735 147.982 27.1839C147.94 27.1626 147.874 27.1886 147.878 27.2429L147.881 27.2405Z" fill="black"/>
<path d="M72.1515 71.0207C72.3998 65.531 56.7242 60.3625 37.1392 59.4766C17.5541 58.5907 1.47591 62.3228 1.22759 67.8125C0.979262 73.3022 16.6548 78.4707 36.2399 79.3566C55.825 80.2425 71.9031 76.5104 72.1515 71.0207Z" fill="#FFDDBD"/>
<path d="M65.0223 70.5423C65.2207 66.1568 52.6988 62.028 37.0539 61.3203C21.409 60.6126 8.56551 63.594 8.36713 67.9795C8.16875 72.3651 20.6906 76.4939 36.3355 77.2016C51.9804 77.9093 64.8239 74.9278 65.0223 70.5423Z" stroke="#FF5B00" stroke-width="0.23601" stroke-miterlimit="10"/>
<path d="M55.5219 65.8539V66.3637C55.5219 66.8216 55.2245 67.2252 54.7879 67.362L33.4503 74.0269C32.6431 74.2795 31.777 74.2889 30.9627 74.0529L16.703 69.9275C16.2546 69.7977 15.9454 69.387 15.9454 68.9173V68.4312L18.1262 69.0613L39.4496 62.741L53.3388 66.536L55.5219 65.8539Z" fill="#29282F"/>
<path d="M15.9454 68.4288L39.0012 61.594C39.2939 61.5067 39.6054 61.5043 39.9004 61.5846L55.5219 65.854L33.488 72.7384C32.6549 72.998 31.7652 73.0074 30.9297 72.7643L15.9478 68.4288H15.9454Z" fill="#84E6E1"/>
<path d="M42.3221 62.2454L41.6731 62.5121C41.3002 62.6655 41.3332 63.2036 41.7226 63.3098L47.4293 64.8793C47.9438 65.0209 48.4914 65.002 48.9941 64.8226L50.1977 64.3978L42.3221 62.2454Z" fill="#37353F"/>
<path d="M23.6321 69.9653L27.3375 71.0651C27.4413 71.0957 27.5522 71.0769 27.6372 71.0131L27.6514 71.0037C27.885 70.8361 27.8237 70.4703 27.5475 70.3901L23.828 69.2997C23.7525 69.2785 23.6723 69.2808 23.5991 69.3115C23.297 69.4366 23.3206 69.8708 23.6321 69.9629V69.9653Z" fill="#37353F"/>
<path d="M232.912 161.572H213.46H185.271H35.7306" stroke="black" stroke-width="0.283211" stroke-linecap="round" stroke-linejoin="round"/>
</g>
<defs>
<clipPath id="clip0_454_6967">
<rect width="232.4" height="166" fill="white" transform="translate(0.799561)"/>
</clipPath>
</defs>
</svg>
