<svg width="242" height="177" viewBox="0 0 242 177" fill="none" xmlns="http://www.w3.org/2000/svg">
<path d="M219.875 132.843C218.355 131.562 217.912 130.573 217.964 128.588C217.975 128.199 217.489 128.013 217.239 128.313C215.959 129.832 214.969 130.276 212.984 130.224C212.595 130.213 212.409 130.699 212.709 130.949C214.229 132.229 214.672 133.219 214.62 135.204C214.609 135.593 215.095 135.779 215.345 135.479C216.625 133.959 217.615 133.516 219.6 133.568C219.989 133.579 220.175 133.093 219.875 132.843Z" fill="#FF9260"/>
<path d="M54.8052 129.756C52.82 129.799 51.8331 129.349 50.5619 127.82C50.3112 127.52 49.8255 127.702 49.8345 128.091C49.877 130.076 49.4272 131.063 47.8986 132.334C47.5987 132.585 47.78 133.071 48.1694 133.062C50.1545 133.019 51.1415 133.469 52.4127 134.998C52.6634 135.298 53.149 135.116 53.1401 134.727C53.0976 132.742 53.5474 131.755 55.076 130.484C55.3759 130.233 55.1946 129.747 54.8052 129.756Z" fill="#FF9260"/>
<path d="M39.6672 35.908C47.5618 35.908 53.9617 29.5082 53.9617 21.6136C53.9617 13.719 47.5618 7.31912 39.6672 7.31912C31.7726 7.31912 25.3728 13.719 25.3728 21.6136C25.3728 29.5082 31.7726 35.908 39.6672 35.908Z" fill="#FFDDBD"/>
<path d="M53.9614 36.9957L106.439 70.242" stroke="#FFDDBD" stroke-width="0.671416" stroke-miterlimit="10"/>
<path d="M63.9868 25.8927L147.202 44.8311" stroke="#FFDDBD" stroke-width="0.671416" stroke-miterlimit="10"/>
<path d="M36.8757 40.825L46.1301 84.4939" stroke="#FFDDBD" stroke-width="0.671416" stroke-miterlimit="10"/>
<path d="M179.328 73.9313C180.029 72.5101 176.128 69.1541 170.615 66.4354C165.102 63.7168 160.065 62.6649 159.364 64.0861C158.663 65.5073 162.564 68.8633 168.077 71.582C173.59 74.3007 178.627 75.3525 179.328 73.9313Z" fill="#37353F"/>
<path d="M187.955 89.4212C190.663 83.8504 182.282 74.1946 169.236 67.8542C156.19 61.5139 143.42 60.89 140.712 66.4608C138.005 72.0315 146.386 81.6874 159.432 88.0277C172.477 94.368 185.248 94.9919 187.955 89.4212Z" fill="#FF5B00"/>
<path d="M187.316 89.8878C190.023 84.3171 181.642 74.6612 168.596 68.3209C155.55 61.9805 142.78 61.3566 140.072 66.9274C137.365 72.4981 145.746 82.154 158.792 88.4943C171.838 94.8347 184.608 95.4585 187.316 89.8878Z" fill="#FF9260"/>
<path d="M165.065 99.1464C168.356 99.1464 171.025 96.4781 171.025 93.1865C171.025 89.8949 168.356 87.2266 165.065 87.2266C161.773 87.2266 159.105 89.8949 159.105 93.1865C159.105 96.4781 161.773 99.1464 165.065 99.1464Z" fill="black"/>
<path d="M172.714 105.554C176.005 105.554 178.674 102.886 178.674 99.594C178.674 96.3024 176.005 93.6341 172.714 93.6341C169.422 93.6341 166.754 96.3024 166.754 99.594C166.754 102.886 169.422 105.554 172.714 105.554Z" fill="black"/>
<path d="M183.112 106.78C186.404 106.78 189.072 104.112 189.072 100.82C189.072 97.5289 186.404 94.8605 183.112 94.8605C179.821 94.8605 177.152 97.5289 177.152 100.82C177.152 104.112 179.821 106.78 183.112 106.78Z" fill="black"/>
<path d="M191.501 103.287C193.877 103.287 195.803 101.361 195.803 98.9852C195.803 96.6096 193.877 94.6837 191.501 94.6837C189.125 94.6837 187.199 96.6096 187.199 98.9852C187.199 101.361 189.125 103.287 191.501 103.287Z" fill="black"/>
<path d="M152.803 88.377C153.256 86.766 152.649 85.1855 151.446 84.8467C150.243 84.5079 148.9 85.5392 148.447 87.1501C147.993 88.761 148.6 90.3416 149.803 90.6804C151.006 91.0192 152.349 89.9879 152.803 88.377Z" fill="#FF84EE"/>
<path d="M171.798 83.1941C173.418 77.4428 170.24 71.5157 164.701 69.9555C159.161 68.3953 153.358 71.7928 151.738 77.5441C150.118 83.2953 153.295 89.2224 158.835 90.7827C164.374 92.3429 170.178 88.9453 171.798 83.1941Z" fill="black"/>
<path d="M162.146 100.82L152.59 99.7238C152.59 99.7238 152.975 95.5275 153.274 92.3763C153.274 92.3561 153.279 92.3382 153.279 92.3181C153.453 90.4896 153.594 89.0237 153.61 88.9633L157.126 88.632L157.334 88.6119L163.296 88.0524L162.144 100.82H162.146Z" fill="#802E00"/>
<path d="M162.439 88.9924C162.439 88.9924 159.628 91.3065 157.616 91.9802C156.323 92.4121 154.006 92.4032 153.279 92.3204C153.454 90.4919 153.595 89.0259 153.61 88.9655L157.126 88.6343L157.334 88.6141L162.437 88.9946L162.439 88.9924Z" fill="#602300"/>
<path d="M166.212 86.8617C166.212 86.8617 161.241 92.3807 154.552 90.5545C147.865 88.7282 148.106 84.3394 150.85 80.4072C151.173 79.9439 151.437 79.5366 151.656 79.1718C152.021 78.5608 152.258 78.0706 152.419 77.6588C152.983 76.2198 152.647 75.6961 153.746 74.0981C157.211 69.1654 162.175 70.8887 162.175 70.8887C176.509 75.7274 166.212 86.8617 166.212 86.8617Z" fill="#802E00"/>
<path d="M161.326 81.4143C161.326 81.4143 160.901 82.0566 159.699 82.0947C159.538 82.1014 159.366 82.0947 159.175 82.0768C159.023 82.0611 158.864 82.0387 158.692 82.0029C157.15 81.6918 156.568 80.8772 156.568 80.8772C156.568 80.8772 157.546 79.5858 159.086 79.7828C159.149 79.7895 159.213 79.8007 159.278 79.8141C159.874 79.935 160.306 80.1811 160.617 80.4452C161.158 80.904 161.326 81.4165 161.326 81.4165V81.4143Z" fill="#FF5B00"/>
<path d="M169.528 85.2167C169.879 86.8326 167.99 88.952 165.92 89.4019C163.85 89.8517 161.86 89.0729 161.511 87.457C161.16 85.8411 163.078 83.5539 165.148 83.1062C167.218 82.6564 169.179 83.6031 169.53 85.219L169.528 85.2167Z" fill="#802E00"/>
<path d="M161.222 81.8216C161.222 81.8216 160.812 82.3856 159.599 82.3789C159.438 82.3789 159.262 82.37 159.069 82.3431C158.915 82.3252 158.753 82.2984 158.579 82.2603C157.01 81.9291 156.392 81.1748 156.392 81.1748C156.392 81.1748 157.339 80.0446 158.899 80.2752C158.964 80.2841 159.029 80.2953 159.096 80.3087C159.702 80.4385 160.148 80.6735 160.47 80.922C161.034 81.3539 161.22 81.8194 161.22 81.8194L161.222 81.8216Z" fill="white"/>
<path d="M160.485 81.5799C160.364 82.0096 160.011 82.3073 159.599 82.3789C159.438 82.408 159.268 82.4013 159.102 82.3543C159.091 82.3521 159.08 82.3476 159.068 82.3431C158.493 82.1641 158.162 81.5575 158.328 80.9712C158.417 80.6556 158.632 80.4117 158.901 80.2751C158.965 80.2841 159.03 80.2953 159.097 80.3087C159.704 80.4385 160.149 80.6735 160.472 80.9219C160.539 81.1278 160.55 81.3561 160.487 81.5777L160.485 81.5799Z" fill="black"/>
<path d="M156.511 81.1457C156.511 81.1457 158.639 78.6548 161.289 81.7343" stroke="black" stroke-width="0.315565" stroke-linecap="round" stroke-linejoin="round"/>
<path d="M154.759 79.888C154.759 79.888 154.352 79.9909 153.28 79.597C153.136 79.5456 152.984 79.4807 152.821 79.4001C152.693 79.3352 152.557 79.2591 152.413 79.1718C152.199 79.0398 152.008 78.9032 151.845 78.769C152.21 78.158 152.447 77.6678 152.608 77.256C152.839 77.3008 153.083 77.3836 153.329 77.5157C153.383 77.5425 153.436 77.5738 153.49 77.6074C153.987 77.9163 154.307 78.2632 154.513 78.5877C154.875 79.1494 154.757 79.888 154.757 79.888H154.759Z" fill="#FF5B00"/>
<path d="M154.705 80.0245C154.705 80.0245 154.164 80.3937 153.092 80.0021C152.949 79.9506 152.796 79.8857 152.633 79.8051C152.505 79.7402 152.369 79.6641 152.226 79.5768C152.011 79.4448 151.821 79.3083 151.657 79.174C152.022 78.563 152.259 78.0729 152.42 77.6611C152.651 77.7058 152.895 77.7886 153.141 77.9207C153.195 77.9475 153.248 77.9789 153.302 78.0124C153.799 78.3213 154.119 78.6682 154.325 78.9927C154.688 79.5545 154.705 80.0245 154.705 80.0245Z" fill="white"/>
<path d="M154.341 79.8947C154.045 80.1924 153.618 80.2752 153.246 80.1454C153.101 80.0961 152.964 80.0133 152.848 79.8992C152.841 79.8925 152.832 79.8835 152.825 79.8746C152.434 79.4627 152.44 78.8137 152.843 78.4064C153.06 78.1871 153.349 78.0841 153.633 78.0975C153.683 78.1333 153.732 78.1736 153.779 78.2162C154.218 78.6011 154.477 78.9972 154.627 79.3486C154.589 79.55 154.493 79.7403 154.341 79.8947Z" fill="black"/>
<path d="M152.469 77.6365C153.261 77.7685 154.165 78.3325 154.792 79.9685" stroke="black" stroke-width="0.295423" stroke-linecap="round" stroke-linejoin="round"/>
<path d="M165.434 92.312C165.887 90.701 165.28 89.1205 164.077 88.7817C162.875 88.4429 161.532 89.4742 161.078 91.0851C160.624 92.696 161.231 94.2766 162.434 94.6154C163.637 94.9542 164.98 93.9229 165.434 92.312Z" fill="#FF84EE"/>
<path d="M166.243 89.9838C166.649 89.9838 166.977 89.6552 166.977 89.2498C166.977 88.8443 166.649 88.5157 166.243 88.5157C165.838 88.5157 165.509 88.8443 165.509 89.2498C165.509 89.6552 165.838 89.9838 166.243 89.9838Z" stroke="#FF84EE" stroke-width="0.163378" stroke-miterlimit="10"/>
<path d="M159.922 70.2599C159.121 70.1793 157.849 70.3405 157.283 70.9962C157.084 71.7012 156.775 72.1779 157.514 72.6524C158.346 73.1873 159.266 73.6237 160.132 74.1026C160.493 74.3018 160.877 74.5279 161.048 74.9038C161.236 75.3224 161.106 75.8125 160.924 76.2332C160.743 76.654 160.506 77.068 160.484 77.5268C160.457 78.0774 160.752 78.6078 161.157 78.9816C161.562 79.3553 162.073 79.597 162.578 79.8186C163.111 80.0491 163.695 80.302 163.955 80.8213C164.163 81.2375 164.111 81.7456 163.926 82.173C163.572 82.9855 162.84 84.0575 161.8 83.7419C162.097 83.8314 162.368 84.0082 162.677 84.062C163.001 84.1201 163.333 84.1179 163.657 84.0687C164.322 83.9657 164.823 83.5875 165.439 83.3816C166.678 82.9653 168.158 83.3346 169.051 84.2902C169.116 84.3596 169.178 84.4312 169.266 84.4693C169.425 84.5409 169.622 84.467 169.74 84.3395C169.859 84.2119 169.924 84.0418 169.982 83.8784C170.071 83.63 170.163 83.3659 170.098 83.1085C170.076 83.0213 170.038 82.9407 170.022 82.8512C169.957 82.5043 170.224 82.1977 170.315 81.8843C170.407 81.5755 170.535 81.2823 170.656 80.9757C170.911 80.3244 171.096 79.6217 171.002 78.9167C170.953 78.5563 170.835 78.2095 170.698 77.8715C170.027 76.2086 168.93 74.7203 167.54 73.5879C166.681 72.8874 165.716 72.3234 164.716 71.8422C163.494 71.2536 162.211 70.7881 160.898 70.4501C160.578 70.3673 160.253 70.2935 159.922 70.2599Z" fill="black"/>
<path d="M155.744 85.5726C155.789 85.5927 155.175 86.8527 154.038 86.7319C152.364 86.5528 152.145 84.8475 152.145 84.8475C152.145 84.8475 153.51 84.552 155.744 85.5726Z" fill="#FF5B00"/>
<path d="M152.147 84.8475C152.105 84.8229 152.691 84.1224 153.835 84.3327C154.976 84.5454 155.882 85.604 155.882 85.604C155.882 85.604 154.291 86.0471 152.147 84.8475Z" fill="#401700"/>
<path d="M151.89 84.7401C152.584 85.1877 153.365 85.5816 154.195 85.68C154.858 85.7584 155.594 85.7673 156.232 85.5502C156.292 85.5301 156.268 85.445 156.205 85.4562C155.898 85.5077 155.58 85.5099 155.272 85.5144C154.918 85.5189 154.564 85.5144 154.213 85.4786C153.394 85.3936 152.671 84.975 151.917 84.6774C151.879 84.6617 151.859 84.7199 151.89 84.7423V84.7401Z" fill="black"/>
<path d="M163.721 86.0561C164.291 85.5794 165.028 85.2996 165.768 85.2727C166.18 85.2571 166.592 85.3085 166.993 85.4093C167.393 85.51 167.792 85.6913 168.206 85.7696C168.268 85.7808 168.34 85.6957 168.277 85.6465C167.921 85.3712 167.456 85.228 167.019 85.125C166.583 85.0221 166.144 84.9661 165.703 84.9975C164.918 85.0534 164.132 85.3533 163.658 86.0046C163.629 86.0449 163.689 86.0829 163.723 86.0538L163.721 86.0561Z" fill="black"/>
<path d="M165.812 85.1743C165.783 85.3645 165.873 85.5704 165.902 85.7584C165.933 85.9733 165.938 86.1948 165.895 86.4074C165.821 86.7722 165.586 87.052 165.291 87.2668C165.208 87.3273 165.253 87.4929 165.367 87.4481C165.759 87.3004 166.036 86.9356 166.13 86.535C166.186 86.3 166.177 86.0561 166.13 85.8211C166.108 85.7025 166.074 85.5861 166.036 85.4697C165.998 85.3533 165.965 85.2414 165.879 85.1586C165.859 85.1407 165.819 85.1452 165.815 85.1765L165.812 85.1743Z" fill="black"/>
<path d="M157.029 79.4381C157.685 79.2031 158.378 79.089 159.072 79.2233C159.997 79.4045 160.769 79.9372 161.577 80.3871C161.769 80.4945 161.995 80.2282 161.821 80.0715C161.08 79.4225 160.124 78.8987 159.139 78.7622C158.361 78.6548 157.626 78.8562 156.942 79.2233C156.827 79.2837 156.906 79.4829 157.031 79.4359L157.029 79.4381Z" fill="black"/>
<path d="M154.821 77.594C154.684 77.444 154.556 77.2829 154.398 77.1553C154.239 77.0277 154.073 76.9113 153.898 76.8039C153.585 76.6092 153.249 76.457 152.891 76.3697C152.773 76.3406 152.647 76.4078 152.616 76.5264C152.58 76.6562 152.661 76.7569 152.773 76.8017C152.894 76.8509 153.07 76.927 153.218 76.983C153.375 77.0434 153.527 77.1016 153.684 77.1732C153.851 77.2493 154.013 77.3321 154.171 77.4239C154.344 77.5246 154.525 77.6119 154.68 77.7372C154.778 77.8178 154.91 77.6924 154.823 77.594H154.821Z" fill="black"/>
<path d="M155.216 78.1959C155.516 78.648 155.742 79.1583 155.613 79.7111C155.503 80.1699 155.12 80.472 154.762 80.7473C154.431 81.0025 154.077 81.2486 153.831 81.5955C153.585 81.9424 153.469 82.4393 153.728 82.7996C154.068 83.2741 154.746 83.4285 155.275 83.2114C155.369 83.1734 155.335 83.0436 155.232 83.0592C154.753 83.1398 154.122 83.0794 153.867 82.5937C153.668 82.2132 153.959 81.75 154.22 81.4859C154.802 80.8995 155.74 80.5101 155.836 79.5902C155.892 79.0733 155.693 78.4623 155.257 78.1512C155.23 78.1333 155.196 78.1691 155.212 78.1959H155.216Z" fill="black"/>
<g style="mix-blend-mode:multiply" opacity="0.7">
<path d="M31.5305 160.277C28.6949 160.512 25.8615 160.747 23.0259 160.982C40.1156 167.221 57.5635 172.487 75.2531 176.742C78.3662 175.585 81.9359 174.705 85.1318 173.801C103.573 168.582 122.677 166.91 141.799 165.587C151.439 164.921 159.525 164.665 169.137 163.681C180.82 162.483 192.384 161.767 203.878 159.37C205.546 159.023 207.285 158.618 208.567 157.499C190.681 154.489 172.749 151.477 154.644 150.409C133.096 149.14 111.95 156.987 90.4069 158.298C86.7746 158.52 83.0594 158.591 79.6464 159.849C67.5184 164.318 53.6581 157.806 40.9325 160.057C37.7254 160.623 34.7801 160.008 31.535 160.277H31.5305Z" fill="#251838"/>
</g>
<path d="M24.8987 157.922C24.8987 157.922 25.8991 162.423 33.3988 164.171C40.8985 165.921 42.6487 168.421 51.8963 169.92C61.1462 171.42 64.6443 171.42 68.1446 173.421C71.6449 175.422 75.3936 176.171 75.3936 176.171C75.3936 176.171 101.892 173.172 106.892 172.423C111.892 171.673 145.89 167.172 161.637 164.923C177.386 162.674 206.884 158.674 212.383 157.423C217.881 156.174 219.133 153.923 219.133 153.923C219.133 153.923 202.634 151.423 195.134 150.673C187.634 149.923 167.886 145.924 164.887 145.423C161.888 144.924 158.515 143.995 158.515 143.995C158.515 143.995 102.391 150.922 86.3937 152.173C70.3938 153.421 38.647 157.672 34.397 157.922C30.1469 158.173 24.8987 157.922 24.8987 157.922Z" fill="#FF84EE"/>
<mask id="mask0_454_6161" style="mask-type:luminance" maskUnits="userSpaceOnUse" x="24" y="143" width="196" height="34">
<path d="M24.9006 157.922C24.9006 157.922 25.901 162.423 33.4008 164.171C40.9005 165.921 42.6506 168.421 51.8983 169.92C61.1481 171.42 64.6462 171.42 68.1465 173.421C71.6468 175.421 75.3956 176.171 75.3956 176.171C75.3956 176.171 101.894 173.172 106.894 172.422C111.894 171.673 145.892 167.172 161.639 164.923C177.388 162.674 206.886 158.674 212.385 157.423C217.883 156.174 219.135 153.923 219.135 153.923C219.135 153.923 202.636 151.423 195.136 150.673C187.636 149.923 167.888 145.924 164.889 145.423C161.89 144.924 158.517 143.995 158.517 143.995C158.517 143.995 102.393 150.922 86.3956 152.173C70.3958 153.421 38.649 157.671 34.3989 157.922C30.1489 158.173 24.9006 157.922 24.9006 157.922Z" fill="white"/>
</mask>
<g mask="url(#mask0_454_6161)">
<path d="M70.1144 164.448C70.0517 162.866 69.058 161.619 67.5585 161.145C66.0814 160.677 64.4342 160.984 62.9437 161.221C59.5978 161.751 56.3414 162.779 53.273 164.213C54.1772 162.179 54.7793 159.939 54.2667 157.736C53.5931 154.838 50.7955 153.625 48.0472 154.297C46.5567 154.661 45.1803 155.442 43.8844 156.239C42.5617 157.052 41.2995 157.958 40.0887 158.932C37.4232 161.078 35.1068 163.616 33.1552 166.425C32.3405 167.597 34.2586 168.705 35.0665 167.541C38.0274 163.282 42.0492 159.581 46.673 157.193C48.3919 156.304 51.2364 155.534 52.0354 157.974C52.7023 160.008 51.7736 162.322 50.8716 164.126C50.5426 164.784 50.1801 165.422 49.7884 166.037C47.6488 167.342 45.7017 169.05 45.1646 171.483C44.9184 172.599 46.1739 173.273 47.0132 172.559C48.6739 171.151 50.142 169.509 51.3528 167.696C51.8676 167.403 52.3801 167.134 52.8612 166.881C55.5335 165.473 58.387 164.437 61.3323 163.777C62.6952 163.47 64.1052 163.184 65.504 163.132C66.4283 163.097 67.7376 163.197 67.892 164.345C68.0531 165.538 67.187 166.789 66.5738 167.729C65.8308 168.873 65.0183 169.965 64.1298 170.999C62.0775 173.387 59.6963 175.464 57.0442 177.163C55.849 177.928 56.9569 179.846 58.161 179.074C60.8981 177.322 63.398 175.2 65.5353 172.749C66.632 171.489 67.6458 170.151 68.55 168.745C69.3646 167.481 70.1681 166.004 70.1077 164.448H70.1144Z" fill="#BF6BB2"/>
<path d="M119.664 159.041C118.22 157.694 116.246 157.213 114.315 157.197C112.345 157.181 110.358 157.6 108.444 158.061C108.33 157.757 108.189 157.454 108.015 157.152C107.032 155.445 105.175 154.274 103.272 153.873C100.931 153.381 98.5456 153.802 96.2493 154.337C92.4044 155.232 88.6691 156.635 85.1553 158.435C78.1815 162.007 72.1052 167.253 67.5284 173.606C66.9532 174.403 66.4072 175.222 65.8834 176.053C64.8181 177.745 67.4971 179.302 68.5602 177.617C72.047 172.078 76.7447 167.326 82.2145 163.734C84.9427 161.942 87.8566 160.406 90.9026 159.229C92.4536 158.629 94.0381 158.115 95.6428 157.685C97.3728 157.222 99.1655 156.763 100.967 156.745C102.44 156.731 104.047 157.101 105.036 158.28C105.195 158.47 105.32 158.672 105.419 158.882C104.109 159.278 102.814 159.733 101.554 160.256C98.192 161.651 94.159 164.101 93.8009 168.141C93.7181 169.07 93.98 170.057 94.6626 170.715C95.6406 171.659 96.9722 171.368 98.136 171.013C100.139 170.402 102.048 169.444 103.718 168.179C105.902 166.525 108.205 163.954 108.709 161.17C109.584 160.966 110.456 160.782 111.318 160.619C113.997 160.109 118.352 159.818 118.44 163.6C118.482 165.435 117.726 167.237 116.902 168.842C115.955 170.684 114.765 172.364 113.341 173.868C111.972 175.316 114.158 177.512 115.532 176.059C118.419 173.009 120.984 168.96 121.477 164.712C121.714 162.676 121.208 160.487 119.666 159.048L119.664 159.041ZM96.3702 168.278C96.4754 167.971 96.5739 168.02 96.6589 168.161C96.5022 168.204 96.3814 168.244 96.3702 168.278ZM97.4243 167.984C97.3661 168.002 97.1513 168.045 96.9297 168.094C96.97 167.933 97.0259 167.767 97.0841 167.615C97.205 167.304 97.3728 167.009 97.5564 166.724C98.3106 165.547 99.5169 164.715 100.721 164.05C102.095 163.291 103.572 162.678 105.094 162.172C103.566 165.015 100.432 167.04 97.4243 167.984Z" fill="#BF6BB2"/>
<path d="M171.976 144.749C169.237 149.576 165.275 153.641 160.502 156.476C159.3 157.19 158.049 157.851 156.757 158.385C155.972 158.71 155.101 159.03 154.222 159.162C154.804 158.359 155.339 157.522 155.815 156.649C156.621 155.181 157.31 153.368 156.529 151.741C155.616 149.838 153.403 149.637 151.691 150.516C150.211 151.277 148.886 152.739 148.054 154.162C147.105 155.783 146.908 157.768 147.901 159.417C148.161 159.849 148.488 160.245 148.862 160.597C148.356 161.071 147.83 161.521 147.282 161.946C143.528 164.856 136.998 167.644 133.186 163.329C131.387 161.29 130.865 158.278 130.731 155.653C130.668 154.411 130.673 153.171 130.745 151.933C140.191 152.186 149.768 150.436 158.855 148.052C163.216 146.909 167.54 145.617 171.86 144.326C173.767 143.758 172.954 140.765 171.036 141.338C158.051 145.219 144.694 149.185 131.056 148.849C131.273 147.341 131.586 145.843 131.989 144.366C132.517 142.439 129.527 141.618 129.001 143.543C128.54 145.23 128.184 146.956 127.945 148.697C127.307 148.65 126.669 148.594 126.031 148.527C121.9 148.088 117.822 147.144 113.926 145.702C113.14 145.411 112.227 146.027 112.019 146.786C111.782 147.652 112.314 148.399 113.102 148.692C117.838 150.445 122.714 151.409 127.647 151.781C127.573 153.108 127.569 154.44 127.64 155.765C127.815 158.954 128.502 162.304 130.483 164.889C132.64 167.705 136.058 168.947 139.547 168.569C143.049 168.19 146.261 166.61 149.032 164.484C149.976 163.759 150.869 162.971 151.706 162.125C151.776 162.141 151.845 162.157 151.914 162.17C153.897 162.539 155.869 162.08 157.706 161.324C164.826 158.388 170.853 153.007 174.651 146.316C175.635 144.579 172.961 143.015 171.974 144.751L171.976 144.749ZM153.617 154.077C153.416 154.686 153.056 155.252 152.729 155.801C152.201 156.685 151.61 157.533 150.961 158.336C150.712 158.101 150.513 157.821 150.404 157.504C150.03 156.423 150.934 155.308 151.637 154.532C152.06 154.064 152.501 153.609 153.056 153.301C153.318 153.155 153.633 153.005 153.752 153.099C153.729 153.131 153.774 153.426 153.77 153.471C153.75 153.647 153.678 153.889 153.617 154.077Z" fill="#BF6BB2"/>
<path d="M185.353 151.707C184.467 151.439 183.448 151.443 182.531 151.38C181.517 151.311 180.496 151.28 179.483 151.365C178.554 151.443 177.643 151.611 176.766 151.877C177.453 149.384 179.568 147.506 182.056 146.913C183.995 146.452 183.175 143.464 181.233 143.925C177.793 144.745 174.917 147.41 173.854 150.785C173.574 151.674 173.476 152.573 173.574 153.437C169.937 156.006 168.01 160.129 166.791 164.303C166.231 166.221 169.221 167.04 169.778 165.126C170.58 162.38 171.654 159.598 173.635 157.475C174.026 157.054 174.438 156.682 174.866 156.351C174.89 156.38 174.913 156.409 174.937 156.436C176.208 157.837 178.16 158.526 180.024 158.486C181.994 158.444 184.366 157.754 185.913 156.501C186.626 155.921 187.244 155.075 187.237 154.115C187.231 152.965 186.432 152.032 185.353 151.703V151.707ZM184.127 153.952C184.127 153.952 184.113 153.959 184.109 153.963C184.097 153.75 184.303 153.865 184.127 153.952ZM180.899 155.299C179.859 155.496 178.704 155.328 177.856 154.818C178.796 154.543 179.796 154.408 180.859 154.411C181.602 154.411 182.343 154.46 183.084 154.52C183.131 154.525 183.178 154.527 183.227 154.532C183.196 154.545 183.164 154.558 183.135 154.574C182.423 154.899 181.667 155.156 180.899 155.301V155.299Z" fill="#BF6BB2"/>
<path d="M208.475 148.67C206.116 149.321 203.963 150.499 201.9 151.792C199.829 153.09 197.782 154.413 195.66 155.626C191.332 158.097 186.829 160.256 182.185 162.067C181.406 162.371 180.864 163.108 181.101 163.974C181.305 164.717 182.223 165.361 183.008 165.057C187.733 163.215 192.334 161.064 196.75 158.571C198.887 157.365 200.955 156.058 203.028 154.744C205.006 153.489 207.023 152.289 209.296 151.66C211.217 151.13 210.4 148.14 208.473 148.672L208.475 148.67Z" fill="#BF6BB2"/>
</g>
<path d="M85.3186 145.425C85.3186 145.425 79.108 153.809 77.3713 157.488C75.6346 161.167 75.3772 163.103 71.2323 164.325C67.0875 165.547 48.3796 170.491 50.8191 167.322C53.2585 164.153 61.0179 160.151 67.6962 150.167C72.5192 142.958 74.2873 140.897 74.2873 140.897L85.3186 145.425Z" fill="#802E00"/>
<path d="M51.3591 168.04L54.5506 166.205" stroke="black" stroke-width="0.311089" stroke-linecap="round" stroke-linejoin="round"/>
<path d="M51.9558 166.483L55.1227 164.607" stroke="black" stroke-width="0.311089" stroke-linecap="round" stroke-linejoin="round"/>
<path d="M63.9851 147.081C63.9851 147.081 89.1073 111.612 93.6483 108.772C99.3934 105.18 105.268 107.266 111.665 111.901C118.061 116.536 142.178 139.713 142.178 139.713L128.636 150.134L101.864 124.544L76.8047 157.548L63.9829 147.081H63.9851Z" fill="#802E00"/>
<path d="M156.58 98.1213C156.58 98.1213 153.501 97.4074 149.557 96.7405C145.614 96.0735 142.136 94.5651 138.859 96.5659C135.583 98.5667 133.972 102.788 134.804 108.177C135.637 113.566 138.054 124.544 138.054 124.544L159.803 123.431L169.57 116.156L178.019 111.485C178.019 111.485 176.434 102.855 170.553 101.011C162.762 98.5667 156.58 98.1213 156.58 98.1213Z" fill="#802E00"/>
<path d="M138.199 102.555C138.103 104.471 138.004 106.386 137.908 108.302" stroke="#251838" stroke-width="0.147711" stroke-linecap="round" stroke-linejoin="round"/>
<path d="M165.102 115.048C165.102 115.048 171.601 128.422 172.727 130.421C175.227 135.546 180.697 148.457 181.196 149.832L190.938 146.463C190.938 146.463 184.689 130.074 182.689 124.949C180.688 119.824 177.689 108.45 174.314 103.951C167.315 111.825 165.102 115.048 165.102 115.048Z" fill="#802E00"/>
<path d="M168.911 113.069C168.911 113.069 162.407 120.544 158.68 125.388C157.629 126.755 156.796 127.912 156.395 128.633L138.052 124.544L138.11 119.837L138.198 113.072C138.198 113.072 135.875 105.731 136.338 104.276C136.799 102.826 140.324 99.0076 142.703 98.9897C144.988 98.9718 146.74 99.7126 148.014 100.59C148.247 100.749 148.466 100.914 148.667 101.082C150.026 102.199 150.657 103.352 150.657 103.352C150.657 103.352 158.515 100.004 162.986 103.799C163.004 103.824 163.024 103.846 163.042 103.871C163.282 104.171 163.519 104.473 163.75 104.784C166.632 108.622 168.908 113.072 168.908 113.072L168.911 113.069Z" fill="#802E00"/>
<path d="M162.833 152.262C162.6 152.62 162.374 152.969 162.143 153.327C157.347 158.166 149.14 161.239 142.538 161.239C141.047 161.239 139.613 161.082 138.254 160.782C137.274 160.567 136.484 159.842 136.155 158.893L128.416 136.589L128.226 136.041C127.847 134.946 128.15 133.731 129 132.945L132.957 129.275C134.315 128.015 136.464 128.337 137.444 129.908C137.451 129.917 137.455 129.929 137.462 129.938C138.158 131.048 138.955 131.862 139.606 132.411C140.307 133.001 141.242 133.216 142.135 133.019C152.294 130.768 156.532 133.776 160.496 133.935C161.456 133.973 162.336 134.487 162.846 135.302C165.386 139.355 165.426 145.246 162.837 152.26L162.833 152.262Z" fill="#802E00"/>
<path d="M152.844 97.676L148.671 101.078L142.72 105.925L141.551 105.509L148.017 100.588L152.052 97.5104L152.844 97.676Z" fill="#0F9B8C"/>
<path d="M166.217 99.9275L165.973 100.406L163.751 104.782L160.882 110.426L159.799 110.008L163.044 103.869L165.302 99.594L165.541 99.6813L166.217 99.9275Z" fill="#0F9B8C"/>
<path d="M138.05 161.026C138.001 161.02 137.954 161.006 137.902 160.997H137.898C131.168 159.657 111.972 149.279 102.546 143.995L96.1561 141.468C96.1561 141.468 86.9957 145.223 77.2938 150.955C73.5339 153.175 60.3584 158.482 58.5926 159.661L46.1289 154.632C51.4264 150.691 68.2744 139.756 73.2899 136.117C81.4879 130.168 90.2051 121.659 97.2102 121.954C104.22 122.245 132.482 136.117 132.482 136.117C132.482 136.117 143.415 139.655 149.173 146.983C149.173 146.985 149.905 147.965 149.905 147.967C149.966 148.048 150.019 148.131 150.075 148.213C156.089 157.175 146.747 162.618 138.048 161.024L138.05 161.026Z" fill="#802E00"/>
<path d="M63.0411 157.41C63.0411 157.41 53.7666 162.188 50.5818 164.721C47.3971 167.255 46.3116 168.877 42.0526 168.143C37.7936 167.407 18.8283 163.578 22.4159 161.812C26.0035 160.046 34.7319 159.883 45.1367 153.878C52.6476 149.541 55.1452 148.475 55.1452 148.475L63.0433 157.41H63.0411Z" fill="#802E00"/>
<path d="M22.5854 162.694L26.2581 162.459" stroke="black" stroke-width="0.311089" stroke-linecap="round" stroke-linejoin="round"/>
<path d="M23.8064 161.559L27.4768 161.275" stroke="black" stroke-width="0.311089" stroke-linecap="round" stroke-linejoin="round"/>
<path d="M166.756 118.438C166.756 118.438 162.41 120.544 158.684 125.387L138.116 119.835L138.203 113.069C138.203 113.069 135.88 105.728 136.343 104.274C136.804 102.823 140.329 99.0053 142.708 98.9874C144.993 98.9695 146.746 99.7103 148.019 100.588L152.054 97.5103L152.849 97.6759L148.673 101.08C150.031 102.197 150.662 103.349 150.662 103.349C150.662 103.349 158.52 100.001 162.992 103.797C163.01 103.822 163.03 103.844 163.048 103.869L165.306 99.5939L165.545 99.6812L165.977 100.406L163.755 104.782C166.638 108.62 166.756 118.438 166.756 118.438Z" fill="#84E6E1"/>
<path d="M50.8757 164.124C50.8757 164.124 56.726 159.981 65.0605 155.7C73.395 151.418 91.4449 143.01 91.4449 143.01" stroke="black" stroke-width="0.311089" stroke-linecap="round" stroke-linejoin="round"/>
<path d="M181.046 149.529C181.046 149.529 183.295 154.892 185.842 156.114C188.389 157.336 198.579 157.083 199.293 156.877C200.007 156.673 199.955 155.756 198.12 155.603L196.287 155.451L201.535 155.044C201.535 155.044 203.778 156.476 205.51 156.423C207.242 156.369 206.886 156.011 205.51 155.248C204.134 154.484 202.999 153.894 202.999 153.894C202.999 153.894 204.695 153.974 206.02 153.312C207.345 152.649 209.178 151.528 205.409 151.987C201.638 152.446 196.444 152.956 194.711 151.935C192.979 150.915 190.533 145.617 190.533 145.617L181.05 149.527L181.046 149.529Z" fill="#802E00"/>
<path d="M191.377 155.055C191.377 155.055 193.076 155.297 195.305 155.427L197.534 155.556" stroke="black" stroke-width="0.311089" stroke-linecap="round" stroke-linejoin="round"/>
<path d="M195.802 153.524L200.596 153.31C201.089 153.287 201.579 153.365 202.04 153.538L203.448 154.064" stroke="black" stroke-width="0.311089" stroke-linecap="round" stroke-linejoin="round"/>
<path d="M154.131 77.0948C154.444 77.4261 154.701 77.7864 154.847 78.2206C155.1 78.9726 155.048 79.8432 154.618 80.5123C154.189 81.1815 153.365 81.6 152.584 81.4658C150.995 81.1927 150.18 79.776 149.997 78.3191C149.97 78.1042 149.954 77.8871 149.972 77.67C150.183 75.1612 152.915 75.8057 154.133 77.0948H154.131Z" fill="#37D0BF"/>
<path d="M153.745 77.5715C153.986 77.8267 154.174 78.1333 154.286 78.4668C154.481 79.0464 154.441 79.7156 154.112 80.2304C153.783 80.7451 153.147 81.0674 152.545 80.9644C151.923 80.857 151.442 80.3423 151.149 79.785C150.813 79.1516 150.6 78.4198 150.694 77.7103C150.956 75.7073 153.002 76.7949 153.747 77.5738L153.745 77.5715Z" fill="#8077CD"/>
<path d="M157.581 83.2674C159.331 83.6523 161.262 83.0637 162.502 81.7701C162.939 81.3158 163.308 80.6824 163.122 80.0826C162.972 79.5992 162.766 79.3418 162.048 79.0039C160.718 78.3772 158.541 77.8893 156.936 79.0621C155.302 80.2549 155.446 82.7996 157.581 83.2674Z" fill="#37D0BF"/>
<path d="M157.904 82.6721C159.334 82.9854 160.919 82.5602 161.93 81.5016C162.286 81.1301 162.593 80.7429 162.44 80.2505C162.317 79.8544 161.97 79.6731 161.594 79.5007C160.538 79.0173 158.432 78.7801 157.405 79.5701C156.093 80.5795 156.156 82.2871 157.904 82.6721Z" fill="#8077CD"/>
<path d="M156.146 80.7451C156.273 80.49 156.311 80.2796 156.378 80.0021C155.973 79.5522 155.32 79.3396 154.727 79.4672C154.608 79.7649 154.505 79.9887 154.386 80.2863C154.977 80.1364 155.745 80.2863 156.146 80.7451Z" fill="#37D0BF"/>
<path d="M162.814 80.6847L167.933 85.9016L166.697 85.8703L162.192 81.9111L162.814 80.6847Z" fill="#37D0BF"/>
<path d="M160.504 73.1559C165.511 75.8461 170.296 79.7067 170.191 85.5637C170.173 86.5328 170.162 87.6831 170.992 88.2404C171.688 88.7059 172.648 88.5022 173.427 88.1777C175.555 87.2915 178.87 85.1004 178.859 82.6408C178.852 81.0831 178.015 79.6485 177.122 78.346C175.034 75.2933 172.482 72.4934 169.374 70.3762C166.265 68.259 162.572 66.8491 158.759 66.6812C157.678 66.6342 156.574 66.6879 155.554 67.0281C154.207 67.4757 153.09 68.3866 152.058 69.3266C151.644 69.7026 150.312 70.9962 151.091 71.5109C151.476 71.7661 153.15 71.2401 153.645 71.2401C156.042 71.2357 158.439 72.0458 160.504 73.1559Z" fill="#FF9260"/>
<path d="M206.971 156.053C207.046 155.882 206.611 155.525 205.999 155.255C205.388 154.985 204.831 154.905 204.755 155.076C204.68 155.247 205.115 155.604 205.727 155.874C206.339 156.143 206.896 156.224 206.971 156.053Z" fill="#FFDDBD"/>
<path d="M199.118 156.691C199.668 156.691 200.113 156.514 200.113 156.295C200.113 156.076 199.668 155.899 199.118 155.899C198.567 155.899 198.122 156.076 198.122 156.295C198.122 156.514 198.567 156.691 199.118 156.691Z" fill="#FFDDBD"/>
<path d="M66.3318 140.899L89.1308 124.269C92.5886 121.746 97.1117 121.22 101.057 122.879L141.557 139.921" stroke="black" stroke-width="0.311089" stroke-linecap="round" stroke-linejoin="round"/>
<path d="M162.945 151.969C162.62 152.484 162.307 152.981 161.98 153.493C157.164 158.235 149.069 161.237 142.541 161.237C140.455 161.237 138.481 160.928 136.666 160.355C129.806 158.195 125.198 152.235 125.198 144.702C125.198 141.768 126.424 139.004 128.419 136.585C130.677 133.838 133.917 131.533 137.463 129.933C138.942 132.296 140.887 133.31 140.887 133.31C153.107 130.228 157.225 134.505 161.781 133.87C165.29 137.849 165.738 144.207 162.943 151.962L162.945 151.969Z" fill="#802E00"/>
<path d="M161.782 133.877C157.223 134.512 151.554 133.483 131.156 135.544C131.156 135.544 132.237 130.463 132.338 129.852L138.058 124.542L137.913 124.161L156.688 128.299C156.52 128.458 156.424 128.57 156.401 128.628C156.296 128.953 159.044 130.775 161.784 133.874L161.782 133.877Z" fill="#84E6E1"/>
</svg>
