<svg width="208" height="166" viewBox="0 0 208 166" fill="none" xmlns="http://www.w3.org/2000/svg">
<g clip-path="url(#clip0_454_6812)">
<path d="M128.726 -0.202087V156.946H122.708V5.81771H60.9461V156.946H54.9263V-0.202087H128.726Z" fill="#FFDDBD"/>
<path d="M62.6798 5.81775H60.947V156.946H62.6798V5.81775Z" fill="#FF9260"/>
<path d="M122.707 5.81775H120.975V156.946H122.707V5.81775Z" fill="#FF9260"/>
<path d="M170.735 2.33282L122.609 5.81767V156.944L170.735 161.164V2.33282Z" fill="#FFDDBD"/>
<g opacity="0.2">
<path d="M161.782 15.3012L131.556 17.6827L131.696 17.4927C131.775 47.4785 131.84 115.293 131.848 145.279L131.558 144.88L161.784 147.094L161.519 147.432L161.544 116.335C161.582 96.535 161.726 35.7785 161.784 15.3012H161.782ZM161.782 16.0477C161.851 51.4373 162.068 112.476 162.047 147.47V147.827L161.782 147.808L131.556 145.634L131.265 145.613V145.235C131.274 115.27 131.339 47.4785 131.416 17.51V17.3296L131.554 17.32L161.78 15.2993V16.0458L161.782 16.0477Z" fill="#FF9260"/>
</g>
<path d="M164.41 87.8574L168.582 87.8881V73.1965L164.41 73.2349V87.8574Z" fill="#FFBB99"/>
<path d="M169.251 76.7313C169.251 78.5198 168.019 79.9724 166.498 79.9744C164.978 79.9744 163.744 78.5351 163.744 76.7562C163.744 74.9774 164.976 73.5247 166.498 73.5132C168.017 73.5017 169.251 74.9428 169.251 76.7313Z" fill="#FF9260"/>
<path d="M174.271 2.33282H170.735V161.164H174.271V2.33282Z" fill="#FF9260"/>
<path d="M15.658 156.946H120.979" stroke="black" stroke-width="0.180383" stroke-linecap="round" stroke-linejoin="round"/>
<path d="M84.4204 64.9774C84.4204 64.9774 80.7801 63.494 77.7827 62.8224C75.7658 62.3695 73.9927 63.4921 71.7091 61.7785C69.4256 60.0648 68.1034 59.1955 68.2416 58.8156C68.3797 58.4356 68.9861 58.7235 68.9861 58.7235C68.9861 58.7235 67.6774 58.1977 67.948 57.6335C68.0631 57.3956 68.5256 57.5683 68.8921 57.6412C68.8921 57.6412 67.4836 56.5685 68.6849 56.7086C69.8861 56.8487 72.9987 58.7715 72.9987 58.7715C72.9987 58.7715 70.1279 56.7623 69.8823 56.3209C69.6367 55.8796 69.5196 55.4114 71.2371 56.3018C72.9526 57.1922 74.3957 58.2226 76.0921 58.0384C77.7884 57.8542 80.8741 58.2361 83.8063 59.7501C83.8178 59.8288 84.4223 64.9774 84.4223 64.9774H84.4204Z" fill="#B2EDEA"/>
<path d="M72.5291 61.2047L68.6912 58.6006" stroke="black" stroke-width="0.0959484" stroke-linecap="round" stroke-linejoin="round"/>
<path d="M72.6578 60.0418L68.699 57.5164" stroke="black" stroke-width="0.0959484" stroke-linecap="round" stroke-linejoin="round"/>
<path d="M73.3022 58.9596L72.8589 58.6736" stroke="black" stroke-width="0.0959484" stroke-linecap="round" stroke-linejoin="round"/>
<path d="M111.186 71.5C111.186 71.5 114.112 83.2786 117.563 87.8899L121.176 93.476L147.111 134.891L160.361 143.227C160.361 143.227 128.222 77.9765 122.133 69.9322C116.047 61.8879 111.186 71.5 111.186 71.5Z" fill="#37353F"/>
<path d="M111.92 71.8358C111.92 71.8358 112.617 90.066 109.6 94.9728C106.583 99.8796 102.565 139.476 102.565 139.476L93.9297 145.881C93.9297 145.881 95.1098 85.8903 102.795 72.3156L111.92 71.8377V71.8358Z" fill="#37353F"/>
<path d="M121.686 165.831H99.4011C98.9328 165.831 98.668 165.297 98.9501 164.925L99.19 164.606C99.9249 163.633 100.992 162.969 102.185 162.733C104.882 162.198 109.737 160.937 110.725 158.642C110.9 158.239 111.051 157.825 111.184 157.406C111.59 156.13 111.819 154.827 111.945 153.768C112.11 152.411 112.11 151.452 112.11 151.452H119.08L119.637 154.522L120.076 156.946L121.686 165.831Z" fill="#602300"/>
<path d="M142.189 164.583C141.691 164.282 140.731 159.757 139.954 155.656C139.697 154.305 139.461 153.001 139.267 151.909C138.96 150.172 138.76 148.971 138.76 148.971C138.76 148.971 141.612 143.333 143.817 147.286C144.306 148.161 144.872 149.174 145.486 150.268C145.86 150.936 146.256 151.636 146.661 152.352C148.591 155.766 150.792 159.592 152.573 162.488C155.342 166.988 143.112 165.14 142.189 164.583Z" fill="#602300"/>
<path d="M105.408 68.7828L120.786 69.6866C120.786 69.6866 125.582 70.4676 135.167 96.7268C139.444 108.444 149.01 149.337 149.01 149.337L134.868 153.066L114.605 85.3588L121.87 154.737L104.83 153.064L104.141 143.498C104.141 143.498 97.9408 93.8061 99.5681 84.5778C101.197 75.3514 105.408 68.777 105.408 68.777V68.7828Z" fill="#1A1A1A"/>
<path d="M147.353 94.399C147.129 94.445 146.891 94.0613 146.783 93.8674C146.463 93.2822 146.207 92.7698 145.87 92.2133C145.983 92.8082 146.027 93.4587 145.923 93.9922C145.897 94.1303 145.826 94.3741 145.597 94.3606C145.407 94.351 145.338 94.1342 145.302 93.9768C145.167 93.4184 145.048 92.8542 144.874 92.3073C144.856 92.2517 144.837 92.1941 144.818 92.1385C144.862 92.3649 144.87 92.6028 144.807 92.8254C144.772 92.9502 144.707 93.1497 144.492 93.1114C144.396 93.0941 144.329 92.9809 144.292 92.8888C144.221 92.7084 144.177 92.5184 144.12 92.3323C143.935 91.7278 143.628 91.1617 143.221 90.6781C142.763 90.5572 142.302 90.4478 141.846 90.3404C141.531 90.2675 141.149 90.2118 140.93 90.4478C140.771 90.6205 140.767 90.895 140.861 91.1099C140.957 91.3248 141.132 91.4918 141.308 91.6472C141.846 92.1231 142.429 92.5453 143.049 92.908C143.166 92.977 143.289 93.048 143.365 93.1593C143.442 93.2726 143.456 93.4395 143.358 93.5335C143.264 93.6218 143.076 93.6218 142.949 93.6007C140.773 93.2534 139.002 91.8218 137.616 90.1082C136.233 88.3945 135.156 86.253 134.227 84.2534C135.246 82.8564 137.169 81.8835 138.652 81.7434C138.173 81.7895 140.042 84.9001 140.218 85.1361C141.049 86.2453 142.118 87.2086 143.448 87.6653C144.004 87.8572 144.515 88.3408 144.912 88.7572C145.192 89.0489 145.58 89.8741 145.908 90.0353C147.115 90.8124 148.171 91.7585 148.762 92.6048C148.89 92.789 148.98 93.0039 148.896 93.1939C148.813 93.3762 148.562 93.428 148.374 93.3589C148.186 93.2898 148.042 93.1363 147.9 92.9943C147.622 92.718 147.32 92.4723 147.002 92.2517C147.259 92.7372 147.457 93.2591 147.551 93.7888C147.583 93.973 147.627 94.3376 147.349 94.3952L147.353 94.399Z" fill="#B2EDEA"/>
<path d="M146.915 90.7433C145.86 89.9009 144.668 89.2273 143.404 88.7552" stroke="#33261A" stroke-width="0.105543" stroke-linecap="round" stroke-linejoin="round"/>
<path d="M147.187 92.3841C145.612 91.3191 143.787 90.6244 141.902 90.3711" stroke="#33261A" stroke-width="0.105543" stroke-linecap="round" stroke-linejoin="round"/>
<path d="M146.249 92.8849C145.961 92.3572 145.679 91.8602 145.27 91.3248" stroke="#33261A" stroke-width="0.105543" stroke-linecap="round" stroke-linejoin="round"/>
<path d="M144.97 92.6104C144.792 91.9983 144.477 91.3573 144.16 90.8929" stroke="#33261A" stroke-width="0.105543" stroke-linecap="round" stroke-linejoin="round"/>
<path d="M138.37 90.9717C136.885 89.331 135.674 87.4446 134.801 85.4105" stroke="#33261A" stroke-width="0.105543" stroke-linecap="round" stroke-linejoin="round"/>
<path d="M110.775 38.0915C110.789 37.0975 110.655 36.2895 110.473 36.2868C110.292 36.284 110.133 37.0876 110.118 38.0816C110.103 39.0756 110.238 39.8836 110.419 39.8863C110.601 39.8891 110.76 39.0855 110.775 38.0915Z" fill="#FF5B00"/>
<path d="M94.2376 68.3837C94.6041 68.4931 94.9764 68.5449 95.341 68.5449C96.9203 68.5449 98.3902 67.5739 98.9678 66.0233L108.025 50.2322L121.773 49.5471L122.137 55.0795L129.691 53.0684L128.587 45.6094C128.169 43.4659 126.165 42.0075 123.997 42.2665L106.479 44.3659C104.266 44.5808 102.347 45.9874 101.478 48.0349L91.8101 63.0777C90.8448 65.2155 91.9866 67.7159 94.2357 68.3837H94.2376Z" fill="#37353F"/>
<path d="M111.919 49.0902L108.645 48.1826L104.934 49.8444L104.268 54.1851L106.83 57.1844L100.3 81.6724L129.693 84.5854C129.693 84.5854 125.375 73.6741 118.804 65.1577L119.09 64.0371L124.584 49.0116L119.411 48.171L114.865 47.7162L111.919 49.0902Z" fill="#37353F"/>
<path d="M122.128 32.3512C122.017 36.12 118.918 39.0829 115.206 38.9716C111.495 38.8603 108.578 35.7132 108.691 31.9443C108.803 28.1755 110.82 25.2548 115.613 25.3239C119.324 25.3776 122.241 28.5823 122.128 32.3512Z" fill="black"/>
<path d="M118.217 43.4121L114.603 49.7734L112.567 44.2391C112.567 44.2391 112.149 41.7733 111.84 39.9195C111.84 39.908 111.836 39.8965 111.834 39.885C111.656 38.8085 111.514 37.9469 111.514 37.9085L113.481 37.1831L113.598 37.1409L116.933 35.9108L118.217 43.4121Z" fill="#602300"/>
<path d="M116.584 36.5806C116.584 36.5806 115.323 38.3364 114.271 39.0292C113.594 39.4744 112.264 39.8217 111.834 39.885C111.656 38.8085 111.514 37.9469 111.514 37.9085L113.481 37.1831L113.598 37.1409L116.584 36.5806Z" fill="#481A00"/>
<path d="M118.422 34.7843C118.422 34.7843 116.411 38.7067 112.294 38.6798C108.18 38.651 107.649 36.095 108.625 33.4219C108.74 33.1071 108.829 32.8327 108.9 32.589C109.017 32.1822 109.078 31.8656 109.107 31.6046C109.211 30.6931 108.938 30.4436 109.326 29.3594C110.562 26.0012 113.672 26.2334 113.672 26.2334C122.634 26.8264 118.422 34.7824 118.422 34.7824V34.7843Z" fill="#602300"/>
<path d="M114.789 32.4029C114.789 32.4029 114.643 32.8366 113.96 33.04C113.87 33.0688 113.768 33.0918 113.657 33.1091C113.568 33.1244 113.472 33.134 113.369 33.1398C112.436 33.1954 111.979 32.8174 111.979 32.8174C111.979 32.8174 112.344 31.927 113.258 31.8061C113.296 31.8003 113.334 31.7965 113.373 31.7946C113.733 31.7735 114.017 31.8483 114.236 31.952C114.616 32.1323 114.791 32.401 114.791 32.401L114.789 32.4029Z" fill="#FF5B00"/>
<path d="M120.079 33.3356C120.526 34.2087 119.766 35.7132 118.647 36.2851C117.529 36.8569 116.268 36.7149 115.821 35.8399C115.374 34.9667 116.124 33.3625 117.245 32.7887C118.363 32.2169 119.634 32.4606 120.081 33.3337L120.079 33.3356Z" fill="#602300"/>
<path d="M114.791 32.6523C114.791 32.6523 114.644 33.0381 113.945 33.2184C113.853 33.2434 113.749 33.2645 113.636 33.2799C113.546 33.2933 113.448 33.3029 113.343 33.3067C112.393 33.3547 111.923 33.017 111.923 33.017C111.923 33.017 112.293 32.2244 113.224 32.1189C113.262 32.1131 113.3 32.1112 113.341 32.1093C113.707 32.092 113.999 32.1592 114.222 32.2513C114.611 32.4125 114.788 32.6523 114.788 32.6523H114.791Z" fill="white"/>
<path d="M114.335 32.6255C114.331 32.8903 114.174 33.1149 113.948 33.2185C113.859 33.2607 113.761 33.2818 113.66 33.2799C113.654 33.2799 113.646 33.2799 113.639 33.2799C113.282 33.2645 113 32.9671 113.003 32.6063C113.007 32.4125 113.092 32.2379 113.226 32.1208C113.264 32.1151 113.303 32.1132 113.343 32.1112C113.71 32.094 114.001 32.1611 114.224 32.2532C114.295 32.3626 114.335 32.4912 114.331 32.6274L114.335 32.6255Z" fill="black"/>
<path d="M111.981 32.9825C111.981 32.9825 112.824 31.2285 114.814 32.5929" stroke="black" stroke-width="0.18614" stroke-linecap="round" stroke-linejoin="round"/>
<path d="M110.794 32.5296C110.794 32.5296 110.575 32.6505 109.902 32.5891C109.811 32.5814 109.713 32.568 109.608 32.545C109.524 32.5277 109.435 32.5047 109.339 32.4759C109.195 32.4318 109.067 32.3838 108.952 32.332C109.069 31.9252 109.13 31.6085 109.159 31.3476C109.299 31.338 109.451 31.3476 109.612 31.3878C109.646 31.3955 109.683 31.4051 109.719 31.4147C110.051 31.5164 110.287 31.668 110.456 31.8215C110.75 32.0883 110.794 32.5296 110.794 32.5296Z" fill="#FF5B00"/>
<path d="M110.779 32.614C110.779 32.614 110.524 32.9096 109.85 32.8482C109.76 32.8405 109.662 32.827 109.557 32.804C109.472 32.7867 109.384 32.7637 109.288 32.7349C109.144 32.6908 109.016 32.6428 108.9 32.591C109.017 32.1842 109.079 31.8676 109.108 31.6066C109.248 31.597 109.399 31.6066 109.561 31.6469C109.595 31.6546 109.632 31.6641 109.668 31.6737C110 31.7754 110.236 31.9271 110.405 32.0806C110.698 32.3473 110.779 32.614 110.779 32.614Z" fill="white"/>
<path d="M110.549 32.5967C110.425 32.8116 110.192 32.9248 109.96 32.9076C109.87 32.9018 109.778 32.875 109.695 32.827C109.69 32.8231 109.684 32.8212 109.678 32.8174C109.392 32.6408 109.296 32.2666 109.465 31.973C109.557 31.8138 109.707 31.7121 109.872 31.6756C109.907 31.689 109.939 31.7044 109.974 31.7217C110.285 31.8752 110.494 32.0632 110.634 32.2417C110.642 32.3626 110.617 32.4873 110.551 32.5986L110.549 32.5967Z" fill="black"/>
<path d="M109.132 31.5855C109.608 31.5413 110.211 31.7275 110.821 32.5699" stroke="black" stroke-width="0.176545" stroke-linecap="round" stroke-linejoin="round"/>
<path d="M117.371 38.0903C117.386 37.0963 117.251 36.2883 117.07 36.2856C116.888 36.2829 116.729 37.0865 116.715 38.0805C116.7 39.0745 116.834 39.8825 117.016 39.8852C117.197 39.8879 117.356 39.0843 117.371 38.0903Z" fill="#FF5B00"/>
<path d="M112.282 26.2219C112.04 26.2546 111.798 26.3025 111.576 26.3601C111.307 26.4292 111.044 26.5558 110.862 26.7669C110.679 26.978 110.589 27.2793 110.677 27.5422C110.891 28.1793 112.433 28.2522 112.988 28.3923C113.226 28.4518 113.479 28.5228 113.635 28.7127C113.805 28.9238 113.807 29.2251 113.767 29.4938C113.727 29.7624 113.654 30.0368 113.711 30.3036C113.78 30.624 114.03 30.8831 114.32 31.0347C114.609 31.1882 114.938 31.2496 115.262 31.2976C115.602 31.3494 115.976 31.4051 116.204 31.6641C116.388 31.8714 116.434 32.1707 116.394 32.4432C116.315 32.9633 116.058 33.6906 115.414 33.6675C115.598 33.6733 115.78 33.7328 115.964 33.7174C116.158 33.7021 116.348 33.6503 116.527 33.5716C116.893 33.4104 117.123 33.1187 117.444 32.9057C118.092 32.4778 118.996 32.4643 119.654 32.8769C119.702 32.9057 119.75 32.9383 119.804 32.9479C119.906 32.9652 120.008 32.8923 120.057 32.8002C120.107 32.708 120.117 32.6025 120.126 32.4989C120.14 32.3434 120.151 32.1765 120.077 32.0402C120.052 31.9942 120.017 31.952 119.994 31.904C119.904 31.7159 120.009 31.4991 120.015 31.3034C120.021 31.1115 120.05 30.9234 120.073 30.7296C120.121 30.317 120.121 29.8852 119.958 29.4957C119.875 29.2961 119.754 29.1157 119.624 28.943C118.985 28.091 118.129 27.404 117.16 26.9665C116.559 26.6959 115.92 26.5194 115.273 26.3946C114.483 26.243 113.677 26.1701 112.871 26.1778C112.683 26.1778 112.483 26.1951 112.284 26.2219H112.282Z" fill="black"/>
<path d="M112.222 35.6403C112.251 35.646 112.09 36.4616 111.42 36.5652C110.432 36.7168 110.046 35.7727 110.046 35.7727C110.046 35.7727 110.785 35.3946 112.222 35.6403Z" fill="#FF27E7"/>
<path d="M110.047 35.7708C110.018 35.7631 110.248 35.2718 110.935 35.2181C111.622 35.1663 112.303 35.6345 112.303 35.6345C112.303 35.6345 111.457 36.1315 110.045 35.7689L110.047 35.7708Z" fill="#801478"/>
<path d="M109.882 35.7496C110.348 35.9012 110.857 36.0087 111.348 35.9377C111.741 35.8801 112.161 35.7745 112.495 35.5539C112.528 35.5328 112.499 35.4886 112.467 35.504C112.115 35.6613 111.71 35.7592 111.33 35.8187C110.847 35.8954 110.365 35.7669 109.886 35.7093C109.861 35.7055 109.859 35.7438 109.88 35.7496H109.882Z" fill="black"/>
<path d="M116.869 34.7018C117.117 34.3525 117.48 34.0858 117.884 33.9534C118.119 33.8766 118.364 33.8402 118.61 33.8325C118.871 33.8248 119.137 33.8805 119.397 33.8536C119.435 33.8498 119.462 33.7922 119.418 33.773C119.168 33.6598 118.855 33.656 118.585 33.6656C118.314 33.6751 118.042 33.7174 117.787 33.8114C117.364 33.9687 116.988 34.2528 116.821 34.6807C116.81 34.7076 116.852 34.721 116.865 34.6999L116.869 34.7018Z" fill="black"/>
<path d="M117.933 33.8767C117.945 33.9841 118.024 34.0839 118.066 34.1818C118.114 34.2931 118.152 34.4121 118.166 34.533C118.191 34.769 118.098 34.9763 117.953 35.1566C117.914 35.2046 117.964 35.291 118.024 35.2487C118.239 35.0952 118.34 34.8227 118.319 34.5656C118.308 34.4293 118.263 34.3008 118.202 34.1799C118.171 34.1185 118.137 34.0609 118.098 34.0033C118.06 33.9458 118.026 33.8901 117.966 33.8575C117.953 33.8498 117.93 33.8575 117.932 33.8767H117.933Z" fill="black"/>
<path d="M112.021 31.9251C112.363 31.691 112.743 31.5183 113.161 31.4914C113.718 31.455 114.242 31.643 114.773 31.7774C114.9 31.81 114.99 31.6219 114.865 31.5605C114.343 31.3015 113.712 31.146 113.129 31.217C112.664 31.2746 112.275 31.501 111.937 31.8158C111.879 31.8695 111.956 31.9693 112.021 31.9251Z" fill="black"/>
<path d="M110.476 31.2036C110.374 31.1383 110.276 31.0654 110.165 31.0155C110.053 30.9656 109.942 30.9253 109.825 30.8908C109.614 30.8275 109.399 30.791 109.18 30.7948C109.107 30.7948 109.048 30.8543 109.048 30.9272C109.048 31.0078 109.109 31.0501 109.18 31.0596C109.366 31.0846 109.566 31.1019 109.758 31.1345C109.863 31.1518 109.969 31.1748 110.073 31.2036C110.188 31.2343 110.305 31.2573 110.414 31.3072C110.483 31.3379 110.541 31.2458 110.476 31.2036Z" fill="black"/>
<path d="M110.793 31.4876C111.023 31.6949 111.227 31.9367 111.25 32.261C111.269 32.5584 111.092 32.7983 110.92 33.0247C110.76 33.2339 110.582 33.4411 110.501 33.6964C110.43 33.9228 110.453 34.2068 110.649 34.3642C110.92 34.5829 111.321 34.5561 111.591 34.3584C111.639 34.3219 111.599 34.2529 111.543 34.2778C111.288 34.3949 110.822 34.4755 110.651 34.1665C110.519 33.9266 110.649 33.6388 110.783 33.4335C111.056 33.019 111.492 32.6352 111.342 32.0902C111.269 31.8234 111.077 31.5586 110.812 31.4569C110.795 31.4492 110.78 31.4761 110.793 31.4895V31.4876Z" fill="black"/>
<path d="M122.612 54.4078L123.934 68.232C124.23 70.7996 126.429 72.5324 128.691 71.9836C130.535 71.5365 131.808 69.7134 131.808 67.6697C131.808 67.4241 131.789 67.1747 131.75 66.9233L129.916 53.0664L122.612 54.4058V54.4078Z" fill="#37353F"/>
<path d="M124.817 68.0765C122.451 74.1155 135.276 86.4583 135.276 86.4583L140.771 85.0767L130.494 65.6356C130.494 65.6356 126.018 65.0062 124.815 68.0765H124.817Z" fill="#37353F"/>
<path d="M119.41 27.1814C121.478 27.1814 123.155 25.5043 123.155 23.4356C123.155 21.3668 121.478 19.6898 119.41 19.6898C117.341 19.6898 115.664 21.3668 115.664 23.4356C115.664 25.5043 117.341 27.1814 119.41 27.1814Z" fill="black"/>
<path d="M125.592 24.6848C127.66 24.6848 129.337 23.0078 129.337 20.939C129.337 18.8702 127.66 17.1932 125.592 17.1932C123.523 17.1932 121.846 18.8702 121.846 20.939C121.846 23.0078 123.523 24.6848 125.592 24.6848Z" fill="black"/>
<path d="M129.694 29.9237C131.763 29.9237 133.44 28.2466 133.44 26.1778C133.44 24.1091 131.763 22.432 129.694 22.432C127.626 22.432 125.948 24.1091 125.948 26.1778C125.948 28.2466 127.626 29.9237 129.694 29.9237Z" fill="black"/>
<path d="M117.776 50.9651L109.814 58.7196L109.406 64.5936L118.384 64.9774L117.776 50.9651Z" fill="#37353F"/>
<path d="M118.052 50.6868L109.812 58.7196L112.812 82.912" stroke="black" stroke-width="0.0978673" stroke-linecap="round" stroke-linejoin="round"/>
<path d="M109.887 43.957L107.444 45.8894L108.378 48.6009L105.043 48.7852L110.512 58.0384" stroke="black" stroke-width="0.0978673" stroke-linecap="round" stroke-linejoin="round"/>
<path d="M122.347 42.5236L123.483 45.4231L121.307 47.2941L124.095 49.1344L110.044 60.1416" stroke="black" stroke-width="0.0978673" stroke-linecap="round" stroke-linejoin="round"/>
<path d="M123.402 52.2451L121.516 57.4032" stroke="black" stroke-width="0.0978673" stroke-linecap="round" stroke-linejoin="round"/>
<path d="M105.645 55.7952L104.173 53.8282C103.813 53.3446 103.673 52.7306 103.788 52.1395L104.252 49.7734" stroke="black" stroke-width="0.0978673" stroke-linecap="round" stroke-linejoin="round"/>
<path d="M111.513 66.0175C111.8 66.0175 112.033 65.7847 112.033 65.4975C112.033 65.2102 111.8 64.9774 111.513 64.9774C111.226 64.9774 110.993 65.2102 110.993 65.4975C110.993 65.7847 111.226 66.0175 111.513 66.0175Z" fill="black"/>
<path d="M117.3 45.569C117.444 45.569 117.561 45.4521 117.561 45.308C117.561 45.1638 117.444 45.047 117.3 45.047C117.156 45.047 117.039 45.1638 117.039 45.308C117.039 45.4521 117.156 45.569 117.3 45.569Z" fill="#FF9260"/>
<path d="M116.695 46.6897C116.839 46.6897 116.956 46.5728 116.956 46.4287C116.956 46.2846 116.839 46.1677 116.695 46.1677C116.551 46.1677 116.434 46.2846 116.434 46.4287C116.434 46.5728 116.551 46.6897 116.695 46.6897Z" fill="#FF9260"/>
<path d="M116.07 47.7163C116.214 47.7163 116.331 47.5995 116.331 47.4553C116.331 47.3112 116.214 47.1943 116.07 47.1943C115.926 47.1943 115.809 47.3112 115.809 47.4553C115.809 47.5995 115.926 47.7163 116.07 47.7163Z" fill="#FF9260"/>
<path d="M115.463 48.9656C115.607 48.9656 115.724 48.8487 115.724 48.7046C115.724 48.5604 115.607 48.4436 115.463 48.4436C115.319 48.4436 115.202 48.5604 115.202 48.7046C115.202 48.8487 115.319 48.9656 115.463 48.9656Z" fill="#FF9260"/>
<path d="M114.879 50.3683C115.024 50.3683 115.14 50.2514 115.14 50.1073C115.14 49.9632 115.024 49.8463 114.879 49.8463C114.735 49.8463 114.618 49.9632 114.618 50.1073C114.618 50.2514 114.735 50.3683 114.879 50.3683Z" fill="#FF9260"/>
<path d="M114.345 51.7461C114.489 51.7461 114.606 51.6293 114.606 51.4852C114.606 51.341 114.489 51.2242 114.345 51.2242C114.201 51.2242 114.084 51.341 114.084 51.4852C114.084 51.6293 114.201 51.7461 114.345 51.7461Z" fill="#FF9260"/>
<path d="M111.183 63.0968C111.47 63.0968 111.703 62.864 111.703 62.5768C111.703 62.2896 111.47 62.0568 111.183 62.0568C110.896 62.0568 110.663 62.2896 110.663 62.5768C110.663 62.864 110.896 63.0968 111.183 63.0968Z" fill="black"/>
<path d="M112.51 72.1141C112.797 72.1141 113.03 71.8812 113.03 71.594C113.03 71.3068 112.797 71.074 112.51 71.074C112.222 71.074 111.99 71.3068 111.99 71.594C111.99 71.8812 112.222 72.1141 112.51 72.1141Z" fill="black"/>
<path d="M114.704 48.3726L112.223 56.2672" stroke="#FF9260" stroke-width="0.0479742" stroke-linecap="round" stroke-linejoin="round"/>
<path d="M104.829 71.784L103.677 71.5L100.3 79.6153L101.405 80.5403L104.829 71.784Z" fill="black"/>
<path d="M125.153 73.037L124.094 73.5686L126.799 81.9334L128.24 81.918L125.153 73.037Z" fill="black"/>
<path d="M101.701 61.1241L79.6116 58.19L77.6812 63.0776L94.1459 68.372C96.1531 68.9343 98.2755 67.9748 99.2254 66.075L101.701 61.1241Z" fill="#37353F"/>
<path d="M111.993 68.7828C112.28 68.7828 112.513 68.5499 112.513 68.2627C112.513 67.9755 112.28 67.7427 111.993 67.7427C111.705 67.7427 111.473 67.9755 111.473 68.2627C111.473 68.5499 111.705 68.7828 111.993 68.7828Z" fill="black"/>
<path d="M39.5505 99.6378C39.516 96.9743 40.8746 94.4509 42.6938 92.505C43.3961 91.7528 44.2155 91.0447 45.2153 90.801C46.2151 90.5573 47.424 90.9161 47.8731 91.8411C48.0899 92.2901 48.1494 92.8696 48.5754 93.1306C48.75 93.2381 48.963 93.2707 49.1415 93.3724C49.5157 93.5873 49.6558 94.0517 49.7306 94.4777C50.1528 96.8438 49.5502 99.373 48.1091 101.294C47.2859 102.392 46.1959 103.28 44.9677 103.89C44.3345 104.205 43.682 104.406 43.0027 104.593C42.0317 104.859 41.0319 105.149 40.297 104.215C39.9189 103.735 39.9477 103.186 39.8633 102.618C39.7194 101.647 39.562 100.615 39.5486 99.6378H39.5505Z" fill="#A7B964"/>
<path d="M48.3745 92.9579C46.4939 97.195 43.8975 101.131 40.7197 104.56" stroke="#496836" stroke-width="0.295521" stroke-linejoin="round"/>
<path d="M41.3836 94.044C41.2185 96.8822 41.5774 99.7491 42.439 102.457" stroke="#496836" stroke-width="0.295521" stroke-linejoin="round"/>
<path d="M45.4052 90.8527C44.9639 93.1094 45.1481 95.487 45.9291 97.6497" stroke="#496836" stroke-width="0.295521" stroke-linejoin="round"/>
<path d="M43.6572 101.115C45.2576 100.795 46.8216 100.29 48.3069 99.611C48.7137 99.4248 49.1263 99.2176 49.4237 98.8818" stroke="#496836" stroke-width="0.295521" stroke-linejoin="round"/>
<path d="M46.595 96.3372C47.683 95.846 48.6905 95.1744 49.5636 94.3569" stroke="#496836" stroke-width="0.295521" stroke-linejoin="round"/>
<path d="M33.7904 115.109C33.0497 114.241 32.1286 113.543 31.1537 112.95C29.0544 111.674 26.4484 110.864 24.138 111.703C23.8175 111.82 23.5009 111.969 23.261 112.211C22.6873 112.783 22.5798 113.81 21.8352 114.128C21.6011 114.228 21.3401 114.236 21.0849 114.253C19.4692 114.366 17.8898 114.946 16.5849 115.905C13.2901 118.327 14.3359 123.207 17.8515 124.767C20.6973 126.03 24.4988 126.118 27.5499 125.838C30.2365 125.592 33.8556 125.135 35.7286 122.998C36.6401 121.957 36.2121 120.514 35.8974 119.294C35.504 117.77 34.8171 116.31 33.7923 115.109H33.7904Z" fill="#A7B964"/>
<path d="M22.0684 114.141C28.3261 116.58 31.9741 119.503 36.9097 123.679" stroke="#496836" stroke-width="0.295521" stroke-linejoin="round"/>
<path d="M16.2463 123.679C18.5952 122.591 20.871 121.368 23.3369 120.553C25.9007 119.705 28.5815 119.196 31.2968 119.046" stroke="#496836" stroke-width="0.295521" stroke-linejoin="round"/>
<path d="M14.5623 119.183C18.12 117.256 22.1249 116.158 26.1682 116.005" stroke="#496836" stroke-width="0.295521" stroke-linejoin="round"/>
<path d="M24.0786 111.722C26.0705 113.167 27.6824 115.128 28.7129 117.361" stroke="#496836" stroke-width="0.295521" stroke-linejoin="round"/>
<path d="M30.73 112.658C32.4014 115.091 33.4338 117.958 33.7005 120.898" stroke="#496836" stroke-width="0.295521" stroke-linejoin="round"/>
<path d="M27.4209 125.878C29.6469 124.16 32.1147 122.754 34.7283 121.716" stroke="#496836" stroke-width="0.295521" stroke-linejoin="round"/>
<path d="M26.3494 107.152C25.2517 106.423 24.2059 105.575 23.4594 104.489C22.7129 103.401 22.2908 102.046 22.5249 100.749C22.759 99.4516 23.7338 98.258 25.0214 97.9779C25.5357 97.8665 26.0903 97.8915 26.5585 97.6516C26.8713 97.4904 27.117 97.2256 27.3856 96.9973C28.7346 95.8593 30.763 95.7422 32.3788 96.4484C33.9945 97.1546 35.2208 98.5766 35.9941 100.164C36.7674 101.749 37.132 103.501 37.4065 105.243C37.6559 106.815 38.5175 110.946 36.0478 111.088C33.1905 111.253 32.5937 110.255 31.1545 109.657C29.4869 108.962 27.8577 108.158 26.3513 107.156L26.3494 107.152Z" fill="#808F3C"/>
<path d="M26.3784 97.7917C27.5912 98.6092 29.7635 102.123 30.9475 103.149C34.1713 105.943 36.121 109.645 37.9786 113.485" stroke="#496836" stroke-width="0.295521" stroke-linejoin="round"/>
<path d="M25.6375 106.746C28.5543 107.586 31.6246 107.809 34.6009 107.39" stroke="#496836" stroke-width="0.295521" stroke-linejoin="round"/>
<path d="M22.4661 100.762C24.8955 102.059 27.6454 102.745 30.3991 102.741" stroke="#496836" stroke-width="0.295521" stroke-linejoin="round"/>
<path d="M28.6379 96.3122C29.0217 97.6171 29.062 99.0218 28.7531 100.346" stroke="#496836" stroke-width="0.295521" stroke-linejoin="round"/>
<path d="M33.7017 106.287C34.711 103.733 35.0104 100.904 34.5594 98.1966" stroke="#496836" stroke-width="0.295521" stroke-linejoin="round"/>
<path d="M35.6057 108.699L36.0356 108.354C36.2025 108.219 36.3714 108.085 36.5268 107.937C36.8876 107.596 37.352 106.63 37.5573 106.178" stroke="#496836" stroke-width="0.295521" stroke-linejoin="round"/>
<path d="M41.0345 123.621C42.6118 120.802 45.5805 118.885 48.7564 118.29C50.4086 117.981 52.1472 118.01 53.738 118.549C55.3308 119.089 56.7661 120.169 57.5779 121.641C57.7621 121.973 57.9175 122.33 58.1804 122.604C58.4548 122.888 58.8214 123.057 59.1764 123.232C60.6118 123.94 61.9608 124.82 63.187 125.847C64.2367 126.728 65.2653 127.883 65.2211 129.253C65.1674 130.861 63.6648 132.026 62.193 132.675C57.148 134.897 51.5197 133.924 46.3327 132.823C44.2046 132.372 41.4585 132.026 40.0423 130.165C38.7048 128.405 40.1287 125.239 41.0345 123.623V123.621Z" fill="#A7B964"/>
<path d="M58.2331 122.639C54.6984 122.811 51.0677 123.17 47.7882 124.602C43.9483 126.277 41.8278 128.438 39.6997 130.959" stroke="#496836" stroke-width="0.295521" stroke-linejoin="round"/>
<path d="M43.1404 127.469C46.8267 130.161 50.8815 132.35 55.1531 133.959" stroke="#496836" stroke-width="0.295521" stroke-linejoin="round"/>
<path d="M46.8699 125.02C52.4809 127.85 58.7099 129.468 64.9868 129.727" stroke="#496836" stroke-width="0.295521" stroke-linejoin="round"/>
<path d="M52.6665 123.138C55.8501 124.3 59.1776 125.066 62.5492 125.41" stroke="#496836" stroke-width="0.295521" stroke-linejoin="round"/>
<path d="M43.575 127.054C43.1855 124.281 44.0663 121.353 45.9258 119.257" stroke="#496836" stroke-width="0.295521" stroke-linejoin="round"/>
<path d="M48.2512 124.412C48.7425 123.13 49.5081 121.965 50.3794 120.908C51.1892 119.923 52.1103 118.923 53.3115 118.421" stroke="#496836" stroke-width="0.295521" stroke-linejoin="round"/>
<path d="M53.3445 123.109C54.2617 122.023 55.2769 121.017 56.3745 120.111" stroke="#496836" stroke-width="0.295521" stroke-linejoin="round"/>
<path d="M31.7873 125.239C29.7033 123.684 26.9419 122.844 24.4549 123.598C22.7912 124.103 21.3539 125.314 20.5748 126.868C20.2428 127.53 20.0912 128.468 20.6918 128.898C20.9624 129.092 21.3155 129.119 21.6494 129.14C24.382 129.309 25.7617 129.716 28.4943 129.885C30.4901 130.007 34.777 131.815 36.5943 132.897C36.1434 130.006 33.8713 126.791 31.7892 125.239H31.7873Z" fill="#808F3C"/>
<path d="M24.4766 129.209C25.6491 129.407 26.8215 129.603 27.994 129.8C29.7019 130.088 31.4213 130.378 33.0831 131.015C34.745 131.652 36.3665 132.661 37.5869 134.183" stroke="#496836" stroke-width="0.295521" stroke-linejoin="round"/>
<path d="M21.5686 125.429C22.7085 125.646 23.7524 126.237 24.6409 126.983C25.5294 127.73 26.2758 128.628 26.9935 129.539" stroke="#496836" stroke-width="0.295521" stroke-linejoin="round"/>
<path d="M20.4092 127.091C21.2439 127.233 22.0729 127.44 22.8405 127.795C23.6081 128.15 24.3162 128.66 24.8247 129.336" stroke="#496836" stroke-width="0.295521" stroke-linejoin="round"/>
<path d="M26.5024 123.352C28.6152 124.93 29.8318 127.653 30.467 130.149" stroke="#496836" stroke-width="0.295521" stroke-linejoin="round"/>
<path d="M33.1973 126.517C33.9533 128.04 34.3045 129.764 34.2028 131.464" stroke="#496836" stroke-width="0.295521" stroke-linejoin="round"/>
<path d="M36.7534 110.918C36.7534 110.918 38.4152 113.721 38.4152 115.187V144.129" stroke="#496836" stroke-width="0.443281" stroke-linejoin="round"/>
<path d="M38.4158 122.353C38.4158 122.353 38.671 117.582 41.2194 115.74" stroke="#496836" stroke-width="0.443281" stroke-linejoin="round"/>
<path d="M35.7139 122.692C35.7139 122.692 38.0473 123.637 38.4119 126.937" stroke="#496836" stroke-width="0.443281" stroke-linejoin="round"/>
<path d="M36.3074 132.732C36.3074 132.732 38.2417 133.679 38.4163 136.743" stroke="#496836" stroke-width="0.443281" stroke-linejoin="round"/>
<path d="M40.3002 130.408C40.3002 130.408 38.4158 131.706 38.4158 134.223" stroke="#496836" stroke-width="0.443281" stroke-linejoin="round"/>
<path d="M40.874 104.372C40.874 104.372 38.4158 106.395 38.4158 110.444V119.965" stroke="#496836" stroke-width="0.443281" stroke-linejoin="round"/>
<path d="M41.702 105.93C43.3274 103.704 46.2365 102.729 48.9154 102.906C51.9819 103.107 54.9256 104.717 56.7525 107.189C56.8465 107.316 56.9425 107.462 56.929 107.619C56.9156 107.778 56.7966 107.907 56.6834 108.018C54.5687 110.112 52.0261 111.708 49.3568 112.996C48.0078 113.646 46.6223 114.222 45.2214 114.756C44.0739 115.193 42.6634 116.273 41.37 115.984C40.6351 115.819 40.163 115.435 40.0613 114.648C39.6986 111.858 39.9961 108.267 41.7001 105.932L41.702 105.93Z" fill="#808F3C"/>
<path d="M55.73 108.289C51.3049 108.757 47.0486 110.762 43.6443 113.593C42.5505 114.502 41.6102 115.285 40.7812 116.043" stroke="#496836" stroke-width="0.295521" stroke-linejoin="round"/>
<path d="M44.0789 104.105C42.5879 106.773 41.9642 109.893 42.3116 112.932C42.371 113.46 42.4612 113.988 42.6263 114.495" stroke="#496836" stroke-width="0.295521" stroke-linejoin="round"/>
<path d="M50.0635 103.136C48.2962 105.604 47.1313 108.479 46.6919 111.466" stroke="#496836" stroke-width="0.295521" stroke-linejoin="round"/>
<path d="M54.673 105.051C53.796 106.258 53.0418 107.554 52.4297 108.914" stroke="#496836" stroke-width="0.295521" stroke-linejoin="round"/>
<path d="M43.4438 113.666C44.624 113.495 45.8157 114.024 46.9997 113.884" stroke="#496836" stroke-width="0.295521" stroke-linejoin="round"/>
<path d="M47.9475 110.72C49.4654 110.758 50.9795 110.946 52.4628 111.277" stroke="#496836" stroke-width="0.295521" stroke-linejoin="round"/>
<path d="M51.4192 137.952H23.7439V149.568H51.4192V137.952Z" fill="#FFDDBD"/>
<path d="M51.4192 149.568H23.7439" stroke="#FF9260" stroke-width="0.443281" stroke-miterlimit="10"/>
<path d="M23.7439 136.743V161.525" stroke="#FF9260" stroke-width="0.443281" stroke-miterlimit="10"/>
<path d="M42.3894 136.743V161.525" stroke="#FF9260" stroke-width="0.443281" stroke-miterlimit="10"/>
<path d="M51.4243 136.743V161.525" stroke="#FF9260" stroke-width="0.443281" stroke-miterlimit="10"/>
<path d="M121.683 166.009H99.3976C98.9294 166.009 98.6646 165.476 98.9467 165.103L99.1866 164.785C99.9215 163.812 100.988 163.148 102.182 162.912C104.878 162.377 109.733 161.116 110.721 158.821C110.896 158.418 111.048 158.003 111.18 157.585C111.18 157.585 113.402 158.433 116.21 157.996C119.017 157.556 120.073 157.124 120.073 157.124L121.683 166.009Z" fill="#1A1A1A"/>
<path d="M142.189 164.762C141.69 164.461 140.731 159.936 139.954 155.835C139.954 155.835 142.343 157.531 144.567 156.257C146.793 154.985 146.66 152.53 146.66 152.53C148.591 155.944 150.792 159.771 152.573 162.666C155.342 167.166 143.112 165.318 142.189 164.762Z" fill="#1A1A1A"/>
</g>
<defs>
<clipPath id="clip0_454_6812">
<rect width="207.248" height="166" fill="white" transform="translate(0.375732)"/>
</clipPath>
</defs>
</svg>
